<svg width="91" height="91" viewBox="0 0 91 91" fill="none" xmlns="http://www.w3.org/2000/svg">
<path d="M50.05 72.8H40.95V36.4L25.025 52.325L18.564 45.864L45.5 18.928L72.436 45.864L65.975 52.325L50.05 36.4V72.8ZM45.5 0C51.4751 0 57.3918 1.17689 62.9121 3.46348C68.4324 5.75007 73.4483 9.10158 77.6734 13.3266C81.8984 17.5517 85.2499 22.5676 87.5365 28.0879C89.8231 33.6082 91 39.5249 91 45.5C91 57.5674 86.2063 69.1405 77.6734 77.6734C69.1405 86.2063 57.5674 91 45.5 91C39.5249 91 33.6082 89.8231 28.0879 87.5365C22.5676 85.2499 17.5517 81.8984 13.3266 77.6734C4.79374 69.1405 0 57.5674 0 45.5C0 33.4327 4.79374 21.8595 13.3266 13.3266C21.8595 4.79374 33.4327 0 45.5 0ZM45.5 9.1C35.8461 9.1 26.5876 12.935 19.7613 19.7613C12.935 26.5876 9.1 35.8461 9.1 45.5C9.1 55.1539 12.935 64.4124 19.7613 71.2387C26.5876 78.065 35.8461 81.9 45.5 81.9C55.1539 81.9 64.4124 78.065 71.2387 71.2387C78.065 64.4124 81.9 55.1539 81.9 45.5C81.9 35.8461 78.065 26.5876 71.2387 19.7613C64.4124 12.935 55.1539 9.1 45.5 9.1Z" fill="#471BB2"/>
</svg>
