<svg width="455" height="548" viewBox="0 0 455 548" fill="none" xmlns="http://www.w3.org/2000/svg">
<path d="M252.525 421.704C210.228 402.371 182.596 414.95 182.596 414.95C178.6 437.607 131.434 433.563 141.443 393.966C154.292 343.029 269.865 363.317 269.865 363.317C269.865 363.317 298.982 442.923 252.525 421.704Z" fill="white"/>
<path d="M163.664 431.23C157.02 431.27 150.6 428.837 145.651 424.405C138.083 417.414 135.725 406.38 139.014 393.413C144.555 371.404 169.228 358.861 210.346 357.129C230.395 356.517 250.457 357.8 270.266 360.96L271.68 361.207L272.176 362.551C273.991 367.526 289.552 411.449 275.63 424.334C270.502 429.049 262.379 428.967 251.499 423.992C215.509 407.488 190.199 414.833 184.729 416.801C183.162 422.884 178.552 427.67 171.915 429.957C169.251 430.821 166.465 431.251 163.664 431.23ZM220.495 361.879C188.172 361.879 150.567 367.856 143.871 394.58C140.264 408.903 144.708 416.719 149.07 420.762C151.918 423.296 155.378 425.042 159.108 425.827C162.837 426.613 166.708 426.411 170.336 425.242C173.483 424.181 178.941 421.387 180.144 414.538L180.368 413.253L181.547 412.711C182.725 412.18 210.711 399.885 253.55 419.465C262.438 423.532 268.722 423.945 272.246 420.644C276.856 416.377 277.61 405.107 274.368 388.922C272.729 381.018 270.591 373.226 267.967 365.593C252.255 363.197 236.389 361.956 220.495 361.879Z" fill="#15006D"/>
<path d="M195.527 412.064H190.564C190.682 373.457 165.019 371.512 163.935 371.453L164.194 366.49C164.5 366.49 195.669 368.577 195.527 412.064Z" fill="#15006D"/>
<g style="mix-blend-mode:multiply">
<path d="M152.312 402.395C158.831 376.566 186.286 373.23 216.994 373.23C228.264 373.23 235.031 413.11 237.436 413.959C259.209 421.68 256.132 424.344 263.146 425.382C261.543 420.03 269.842 363.363 269.842 363.363C269.842 363.363 154.316 343.028 141.419 394.013C136.586 413.157 145.133 423.967 155.695 427.492C151.439 421.916 149.471 413.652 152.312 402.395Z" fill="#E3E4E5"/>
</g>
<path d="M298.853 457.201C298.853 457.201 289.811 441.805 251.039 428.355C227.922 420.351 206.691 430.771 189.315 453.252C181.146 451.684 169.864 455.386 163.675 463.861C141.843 493.686 168.827 519.656 191.602 528.98C210.298 536.655 229.136 532.729 243.471 518.571C263.806 498.531 291.803 475.732 312.185 488.028C312.185 488.028 300.916 523.157 338.579 541.488C369.43 556.506 386.464 512.076 386.464 512.076L298.853 457.201Z" fill="white"/>
<path d="M351.122 547.11C346.399 547.045 341.754 545.9 337.542 543.762C303.662 527.258 307.6 497.328 309.356 489.311C294.774 482.109 273.767 492.294 245.251 520.374C230.056 535.333 210.169 539.318 190.659 531.337C177.032 525.714 159.361 512.971 154.41 495.5C151.274 484.36 153.714 473.22 161.648 462.375C164.714 458.315 168.763 455.103 173.414 453.04C178.064 450.978 183.163 450.133 188.231 450.587C207.198 426.656 229.172 418.169 251.888 426.02C287.406 438.339 298.582 452.355 300.586 455.385L389.517 511.096L388.786 513.006C388.397 514.02 378.978 538.104 361.036 545.188C357.883 546.449 354.519 547.101 351.122 547.11ZM299.407 482.062C304.389 482.018 309.286 483.356 313.553 485.928L315.227 486.942L314.637 488.816C314.201 490.172 304.535 522.154 339.747 539.294C346.501 542.583 353.079 543.019 359.292 540.567C372.495 535.369 380.912 518.712 383.434 513.089L297.049 458.992L296.743 458.473C296.589 458.226 287.312 443.537 250.249 430.712C223.949 421.587 203.673 438.763 191.307 454.772L190.376 455.95L188.879 455.667C182.03 454.347 171.574 457.271 165.715 465.287C158.724 474.835 156.555 484.537 159.255 494.121C163.699 509.882 179.991 521.517 192.592 526.692C210.157 533.907 228.099 530.311 241.809 516.814C257.817 501.029 279.767 482.062 299.407 482.062Z" fill="#15006D"/>
<path d="M321.97 493.048C342.8 520.467 362.415 531.725 386.44 529.167C458.479 521.481 414.06 398.87 393.513 363.352C374.416 330.345 343.236 308.524 303.922 315.869C285.765 319.389 268.595 326.827 253.609 337.665C253.609 337.665 213.151 358.413 256.862 428.931" fill="white"/>
<path d="M379.956 531.998C358.231 531.998 339.487 520.21 319.989 494.547L323.938 491.541C344.532 518.654 363.146 529.145 386.181 526.693C400.881 525.126 411.396 518.371 417.29 506.583C435.621 470.498 408.968 395.088 391.356 364.58C370.608 328.708 338.898 311.839 304.334 318.287C286.539 321.754 269.71 329.046 255.012 339.659L254.693 339.86C254.599 339.86 244.449 345.353 240.547 359.629C235.832 377.017 242.15 400.523 258.937 427.6L254.705 430.217C236.869 401.442 230.515 377.17 235.844 358.155C240.135 342.724 250.685 336.417 252.347 335.533C267.607 324.548 285.065 316.999 303.521 313.406C340.277 306.546 373.897 324.287 395.765 362.092C404.017 376.238 415.345 402.986 422.289 430.701C428.183 454.278 432.898 487.026 421.864 508.834C414.933 522.214 403.144 529.876 386.699 531.633C384.46 531.876 382.209 531.998 379.956 531.998Z" fill="#15006D"/>
<path d="M407.86 382.131C407.322 381.404 406.526 380.911 405.636 380.754C404.746 380.596 403.829 380.785 403.074 381.282C300.939 446.118 244.284 402.984 243.931 407.817C243.223 417.838 251.004 428.353 251.004 428.353C273.755 437.477 283.127 449.654 283.127 449.654C371.54 466.465 412.799 416.046 412.952 415.892C419.801 407.558 413.447 389.758 407.86 382.131Z" fill="#B6BBD3"/>
<path d="M317.973 455.539C306.134 455.499 294.326 454.346 282.702 452.097L281.771 451.92L281.194 451.166C281.111 451.06 271.857 439.378 250.119 430.666L249.459 430.407L249.047 429.841C248.705 429.381 240.689 418.453 241.455 407.655C241.485 407.212 241.617 406.782 241.839 406.397C242.062 406.013 242.37 405.685 242.74 405.439C244.319 404.425 245.982 405.026 250.426 406.618C319.093 431.574 381.277 392.118 401.73 379.163C403.022 378.343 404.576 378.041 406.081 378.316C407.587 378.591 408.933 379.424 409.852 380.648C415.475 388.287 422.996 407.549 414.909 417.439C414.815 417.569 404.04 430.642 382.291 441.346C367.909 448.443 346.395 455.539 317.973 455.539ZM284.506 447.382C328.948 455.634 360.871 446.321 379.874 437.02C400.669 426.835 410.96 414.445 411.066 414.327C416.559 407.596 411.561 391.387 405.844 383.607C405.674 383.395 405.431 383.254 405.162 383.212C404.894 383.171 404.62 383.232 404.394 383.383C319.694 437.102 266.281 417.687 248.787 411.309L246.43 410.484C246.948 417.487 251.322 424.383 252.654 426.328C272.293 434.368 282.03 444.529 284.506 447.382Z" fill="#15006D"/>
<path d="M210.098 464.462C203.846 459.854 196.561 456.847 188.879 455.703L189.705 450.799C198.17 452.081 206.195 455.411 213.081 460.501L210.098 464.462Z" fill="#15006D"/>
<path d="M295.257 375.211C295.257 375.211 300.539 398.882 306.668 411.861L295.257 375.211Z" fill="white"/>
<path d="M304.417 412.923C298.24 399.85 293.053 376.721 292.829 375.754L297.674 374.67C297.733 374.906 302.967 398.247 308.908 410.801L304.417 412.923Z" fill="#15006D"/>
<path d="M265.692 413.961C266.871 421.305 268.604 430.04 270.608 438.717L265.692 413.961Z" fill="white"/>
<path d="M268.191 439.257C266.152 430.475 264.395 421.575 263.24 414.348L268.144 413.57C269.323 420.738 271.021 429.461 273.036 438.137L268.191 439.257Z" fill="#15006D"/>
<path d="M189.775 238.196C175.628 216.011 134.369 150.844 137.328 40.4699C137.528 33.0197 145.957 28.1511 151.474 32.6189C179.766 55.5119 243.117 114.088 254.457 216.942" fill="white"/>
<path d="M187.676 239.528C173.884 217.885 131.894 151.988 134.841 40.3991C134.914 38.0882 135.627 35.8428 136.9 33.9134C138.174 31.9839 139.959 30.446 142.055 29.4713C143.809 28.6027 145.775 28.2523 147.72 28.4611C149.666 28.6699 151.513 29.4292 153.042 30.6501C212.927 79.1475 248.858 143.5 256.969 216.671L252.029 217.213C244.06 145.339 208.766 82.2006 149.918 34.5521C149.11 33.917 148.137 33.5253 147.114 33.423C146.091 33.3207 145.06 33.512 144.142 33.9744C142.884 34.561 141.813 35.4855 141.049 36.6448C140.285 37.8041 139.858 39.1528 139.816 40.5405C136.892 150.573 178.269 215.527 191.873 236.864L187.676 239.528Z" fill="#15006D"/>
<path d="M200.267 225.5C196.2 227.905 148.657 123.165 155.589 70.8836C156.072 67.2645 159.832 64.8715 162.662 66.8873C176.808 77.0724 221.38 121.479 238.331 212.78C238.331 212.78 217.277 215.409 200.267 225.5Z" fill="#FF8080"/>
<path d="M200.125 228.022C199.492 228.014 198.877 227.817 198.357 227.457C193.759 224.427 180.403 195.263 170.312 166.263C162.237 143.04 149.258 99.706 153.113 70.5534C153.288 69.1818 153.814 67.8786 154.64 66.7697C155.466 65.6608 156.564 64.7836 157.828 64.223C158.843 63.7647 159.961 63.5832 161.069 63.6971C162.177 63.811 163.235 64.2162 164.135 64.8714C166.493 66.5336 221.25 106.85 240.83 212.332L241.314 214.926L238.697 215.256C238.496 215.256 217.937 217.932 201.599 227.633C201.154 227.9 200.643 228.034 200.125 228.022ZM160.398 68.6437C160.171 68.6452 159.946 68.6933 159.738 68.7851C159.277 69.0186 158.881 69.3625 158.584 69.7862C158.288 70.2099 158.101 70.7002 158.041 71.2136C151.757 118.744 192.133 211.967 200.384 222.553C213.953 214.89 229.348 211.731 235.408 210.764C215.792 109.113 163.404 70.5652 161.141 68.9502C160.928 68.7778 160.67 68.6713 160.398 68.6437Z" fill="#15006D"/>
<g style="mix-blend-mode:multiply">
<path d="M195.598 188.294C177.491 147.211 171.526 119.686 169.593 94.5645C169.593 94.0105 168.308 81.2554 175.252 86.4777C187.04 95.3425 209.626 127.584 208.99 125.91C207.67 122.373 188.396 89.6488 167.837 71.0467C165.833 69.3138 164.076 67.9228 162.662 66.8736C159.856 64.8578 156.095 67.2509 155.589 70.8699C148.657 123.163 196.2 227.903 200.267 225.498C217.277 215.395 238.331 212.778 238.331 212.778C237.365 207.556 230.645 181.256 229.502 176.34C216.145 180.384 204.487 208.452 195.598 188.294Z" fill="#E3E4E5"/>
</g>
<path d="M365.669 317.06C370.161 339.646 334.018 367.538 295.257 375.212C245.852 384.984 228.347 367.88 223.855 345.293C219.364 322.707 247.432 298.081 286.617 290.277C325.801 282.473 361.166 294.473 365.669 317.06Z" fill="#EDBF40"/>
<path d="M269.488 380.516C242.151 380.516 226.024 368.892 221.415 345.775C219.057 333.987 224.68 321.373 237.235 310.41C249.401 299.73 266.777 291.737 286.133 287.883C326.567 279.831 363.347 292.716 368.098 316.611C369.465 323.448 367.496 331.075 362.427 338.667C350.722 356.184 323.29 372.228 295.741 377.675C287.103 379.472 278.31 380.423 269.488 380.516ZM310.358 290.37C302.547 290.395 294.757 291.184 287.1 292.728C268.58 296.417 252.029 304.009 240.5 314.112C229.349 323.896 224.303 334.8 226.354 344.761C231.706 371.639 254.104 380.787 294.833 372.723C321.192 367.501 347.315 352.33 358.36 335.826C362.746 329.26 364.408 323.094 363.288 317.495C359.905 300.826 337.978 290.37 310.358 290.37Z" fill="#15006D"/>
<path d="M375.878 256.904C386.582 315.61 329.408 354.924 289.575 363.058C259.857 369.117 195.445 364.897 180.12 310.317C163.841 252.13 194.75 206.709 255.672 191.101C313.836 176.189 367.119 208.772 375.878 256.904Z" fill="white"/>
<path d="M266.753 367.726C232.154 367.726 189.775 353.898 177.727 310.988C170.064 283.698 172.434 258.141 184.6 237.052C198.015 213.793 222.322 197.066 255.047 188.72C284.966 181.045 315.91 185.49 339.923 200.897C360.541 214.112 374.109 233.904 378.294 256.479C384.519 290.665 368.203 315.716 353.409 330.746C336.764 347.627 312.48 360.971 290.035 365.545C282.365 367.04 274.566 367.771 266.753 367.726ZM283.976 189.981C274.634 189.999 265.331 191.187 256.285 193.517C224.928 201.557 201.634 217.471 188.902 239.551C177.42 259.45 175.216 283.687 182.513 309.656C190.635 338.597 212.939 351.423 230.221 357.081C249.257 363.051 269.466 364.265 289.08 360.618C310.605 356.22 333.876 343.418 349.908 327.197C363.877 313.051 379.284 289.475 373.485 257.34C369.606 236.121 356.769 217.519 337.33 205.058C321.351 195.037 302.836 189.805 283.976 189.981Z" fill="#15006D"/>
<g style="mix-blend-mode:multiply">
<path d="M375.878 256.904C367.119 208.772 313.835 176.189 255.636 191.101C194.749 206.709 163.84 252.13 180.12 310.317C195.445 364.897 259.857 369.117 289.575 363.058C329.408 354.924 386.64 315.61 375.878 256.904ZM287.618 356.869C259.739 362.575 199.382 358.814 185.142 308.172C169.923 254.122 199.064 211.872 256.202 197.231C310.759 183.25 360.624 213.369 368.722 258.047C378.613 312.533 324.928 349.183 287.618 356.869Z" fill="#E3E4E5"/>
</g>
<path d="M367.06 274.471C367.06 274.471 388.279 276.828 395.164 293.332C395.164 293.332 376.09 293.639 370.101 294.098C370.101 294.098 376.656 299.934 378.07 306.335C378.07 306.335 367.331 308.209 359.209 303.812" fill="white"/>
<path d="M372.565 309.22C367.534 309.341 362.548 308.232 358.042 305.99L360.4 301.628C365.198 304.234 371.186 304.375 374.699 304.186C373.104 301.096 370.986 298.304 368.439 295.935L364.113 292.033L369.913 291.585C374.263 291.255 385.155 291.007 391.132 290.889C383.576 278.948 366.978 276.92 366.801 276.896L367.355 271.957C368.286 272.063 390.071 274.727 397.474 292.327L398.9 295.722L395.223 295.781C395.081 295.781 383.434 295.97 375.56 296.276C377.886 299.018 379.58 302.237 380.522 305.707L381.088 308.253L378.518 308.701C376.551 309.033 374.56 309.206 372.565 309.22Z" fill="#15006D"/>
<path d="M305.43 264.225C303.78 264.142 302.118 264.154 300.444 264.225C301.623 263.117 302.802 262.02 304.063 260.948C306.079 259.203 308.177 257.505 310.334 255.796C311.101 255.183 311.855 254.617 312.621 253.993C313.388 253.368 314.001 253.085 314.625 252.543C315.25 252 316.016 250.963 314.496 250.857C314.136 250.84 313.777 250.888 313.435 250.998C308.952 252.025 304.63 253.655 300.585 255.843C295.329 258.683 290.714 262.576 287.029 267.278C286.528 267.935 286.25 268.733 286.233 269.559C286.217 270.384 286.463 271.193 286.937 271.869C287.411 272.545 288.088 273.053 288.869 273.319C289.651 273.585 290.497 273.596 291.284 273.349C293.371 272.712 295.941 272.17 298.357 271.616C300.774 271.062 303.273 270.602 305.784 270.213C308.295 269.824 310.818 269.376 313.399 269.035C314.955 268.822 316.523 268.575 318.115 268.374C318.81 268.28 319.6 267.632 318.928 266.972C318.293 266.533 317.561 266.254 316.794 266.158C313.133 265.064 309.353 264.411 305.537 264.213L305.43 264.225Z" fill="#15006D"/>
<path d="M188.844 315.127C188.844 315.127 173.153 322.471 174.698 344.834C174.698 344.834 189.186 338.621 193.147 336.7C193.147 336.7 189.374 345.447 191.343 352.025C191.343 352.025 199.501 351.93 206.668 340.295" fill="white"/>
<path d="M189.456 354.512L188.926 352.72C188.008 348.949 188.057 345.008 189.067 341.261C183.491 343.737 176.1 346.92 175.64 347.156L172.422 348.535L172.186 344.998C170.571 321.209 187.087 313.17 187.794 312.863L189.892 317.366L188.843 315.115L189.904 317.366C189.362 317.626 177.373 323.579 177.055 341.096C181.523 339.187 189.338 335.768 192.038 334.471L198.026 331.571L195.386 337.69C195.386 337.76 192.792 343.82 193.264 349.101C195.763 348.276 200.219 345.894 204.439 338.986L208.683 341.58C200.938 354.24 191.708 354.547 191.319 354.547L189.456 354.512Z" fill="#15006D"/>
<path d="M282.455 192.292C286.828 165.709 299.901 87.8472 377.551 5.67047C382.797 0.118151 392.546 2.13396 393.701 9.33666C399.596 46.1399 407.93 134.081 346.3 220.278" fill="white"/>
<path d="M348.328 221.715L344.285 218.827C387.36 158.577 403.604 86.2788 391.25 9.73694C391.063 8.68974 390.583 7.71708 389.865 6.93232C389.147 6.14756 388.221 5.58302 387.195 5.30451C385.825 4.89202 384.368 4.8664 382.984 5.23048C381.601 5.59456 380.345 6.33415 379.355 7.36748C301.918 89.2731 289.115 167.076 284.907 192.692L280.003 191.891C284.27 165.956 297.261 86.9743 375.748 3.96064C377.378 2.24255 379.456 1.01426 381.748 0.414369C384.039 -0.185524 386.452 -0.133149 388.715 0.565584C390.634 1.10196 392.36 2.17607 393.688 3.66118C395.017 5.14629 395.893 6.98041 396.213 8.94712C408.72 86.8093 392.181 160.381 348.328 221.715Z" fill="#15006D"/>
<path d="M299.136 189.77C294.42 188.839 329.691 76.4724 370.691 41.3313C373.52 38.9029 378.024 39.6338 378.79 43.0995C382.68 60.5817 386.299 124.875 336.847 206.086C336.847 206.086 319.011 193.696 299.136 189.77Z" fill="#FF8080"/>
<path d="M337.601 209.633L335.432 208.124C335.255 208.006 317.749 195.982 298.652 192.209C298.099 192.086 297.592 191.808 297.191 191.407C296.79 191.006 296.512 190.499 296.389 189.946C294.962 184.511 304.641 153.154 316.806 124.167C326.52 100.932 346.277 59.0361 369.076 39.4438C370.128 38.5227 371.4 37.8881 372.769 37.6011C374.138 37.3141 375.558 37.3844 376.892 37.8052C377.964 38.1403 378.929 38.7529 379.689 39.581C380.449 40.409 380.976 41.4231 381.218 42.5206C381.854 45.3851 396.083 113.545 338.968 207.346L337.601 209.633ZM301.175 187.659C316.83 191.089 330.787 199.247 336.057 202.595C390.59 111.671 376.986 46.3871 376.373 43.6405C376.321 43.3723 376.193 43.1246 376.005 42.9262C375.817 42.7279 375.577 42.5872 375.312 42.5206C374.793 42.3732 374.245 42.3597 373.719 42.4814C373.194 42.603 372.707 42.8557 372.306 43.2161C334.901 75.2804 302 174.079 301.175 187.659Z" fill="#15006D"/>
<path d="M280.369 197.998C297.309 183.428 286.628 165.674 286.628 165.674C283.16 170.188 279.416 174.483 275.418 178.535C277.304 167.431 269.865 155.018 269.865 155.018C259.845 174.704 229.089 179.101 219.01 201.228C218.055 203.303 214.377 212.439 220.189 219.901" fill="white"/>
<path d="M218.267 221.432C211.689 213.051 215.438 203.054 216.746 200.213C222.31 188.024 233.545 181.069 244.402 174.349C254.045 168.373 263.157 162.738 267.649 153.908L269.688 149.912L271.987 153.767C275.222 159.405 277.295 165.634 278.081 172.086C279.873 170.058 282.136 167.371 284.683 164.164L286.911 161.335L288.762 164.412C288.879 164.612 300.302 184.157 281.995 199.895L278.753 196.134C289.775 186.704 287.972 175.811 286.038 170.4C283.254 173.872 280.283 177.189 277.138 180.338L271.692 185.619L272.965 178.145C274.073 171.614 271.574 164.424 269.664 160.144C264.147 167.972 255.518 173.347 247.019 178.57C236.787 184.9 226.201 191.454 221.273 202.276C220.259 204.492 217.336 212.214 222.181 218.391L218.267 221.432Z" fill="#15006D"/>
<g style="mix-blend-mode:multiply">
<path d="M316.936 168.799C329.337 117.154 363.559 60.7349 379.91 49.8425C379.579 47.1312 379.19 44.8796 378.79 43.0995C378.023 39.6338 373.52 38.9029 370.691 41.3313C329.691 76.4724 294.385 188.839 299.136 189.77C319.011 193.696 336.858 206.086 336.858 206.086C339.688 201.441 342.069 197.35 344.556 192.824C338.933 193.307 313.789 181.908 316.936 168.799Z" fill="#E3E4E5"/>
</g>
<path d="M275.63 300.674C277.245 309.975 277.257 310.199 278.612 315.999L275.63 300.674Z" fill="white"/>
<path d="M278.612 318.486C278.061 318.474 277.53 318.278 277.103 317.93C276.676 317.582 276.378 317.101 276.254 316.564C274.981 311.142 274.875 310.529 273.59 303.067L273.248 301.11C273.172 300.781 273.163 300.439 273.223 300.106C273.282 299.774 273.409 299.457 273.596 299.175C273.782 298.893 274.024 298.651 274.307 298.466C274.59 298.281 274.907 298.155 275.24 298.096C275.573 298.038 275.914 298.048 276.243 298.125C276.572 298.203 276.882 298.347 277.154 298.549C277.425 298.75 277.652 299.005 277.822 299.297C277.992 299.59 278.1 299.914 278.141 300.249L278.482 302.218C279.756 309.55 279.862 310.152 281.088 315.433C281.163 315.75 281.175 316.079 281.122 316.401C281.07 316.723 280.954 317.032 280.782 317.309C280.61 317.586 280.385 317.826 280.12 318.016C279.855 318.206 279.555 318.342 279.237 318.415C279.033 318.467 278.823 318.49 278.612 318.486Z" fill="#15006D"/>
<path d="M265.385 348.536C265.385 348.536 286.286 357.625 303.745 340.084L265.385 348.536Z" fill="white"/>
<path d="M278.435 353.333C273.642 353.365 268.883 352.518 264.395 350.833L266.399 346.26C272.455 348.587 279.064 349.078 285.397 347.672C291.731 346.265 297.51 343.022 302.012 338.35L305.548 341.886C302.043 345.535 297.831 348.433 293.17 350.4C288.508 352.368 283.495 353.366 278.435 353.333Z" fill="#15006D"/>
<g style="mix-blend-mode:multiply">
<path d="M288.42 285.784C289.775 291.761 283.846 298.197 275.181 300.154C266.517 302.111 258.407 298.857 257.051 292.88C255.695 286.904 261.92 283.744 270.584 281.788C279.248 279.831 287.076 279.807 288.42 285.784Z" fill="#E3E4E5"/>
</g>
<path d="M261.943 300.437C261.127 299.657 260.538 298.67 260.237 297.581C259.937 296.492 259.938 295.343 260.239 294.255C260.54 293.166 261.13 292.18 261.947 291.4C262.764 290.621 263.777 290.077 264.879 289.827L279.602 286.491C280.707 286.244 281.858 286.3 282.933 286.655C284.008 287.01 284.966 287.65 285.707 288.506C286.447 289.362 286.941 290.403 287.137 291.518C287.332 292.633 287.222 293.78 286.817 294.837C285.912 297.192 284.44 299.286 282.532 300.935C280.624 302.584 278.338 303.736 275.878 304.29C273.417 304.844 270.858 304.782 268.428 304.11C265.997 303.438 263.77 302.176 261.943 300.437Z" fill="#15006D"/>
<path d="M272.494 307.134C267.932 307.13 263.545 305.379 260.234 302.242C259.088 301.151 258.26 299.77 257.836 298.245C257.413 296.721 257.411 295.11 257.831 293.585C258.251 292.059 259.076 290.676 260.22 289.583C261.363 288.49 262.782 287.727 264.325 287.376L279.06 284.052C280.602 283.704 282.21 283.781 283.712 284.275C285.214 284.769 286.553 285.662 287.588 286.857C288.622 288.052 289.313 289.506 289.586 291.063C289.86 292.621 289.705 294.223 289.139 295.699C287.85 299.067 285.568 301.963 282.595 304.005C279.623 306.047 276.1 307.138 272.494 307.134ZM263.653 298.634C265.185 300.092 267.054 301.148 269.093 301.71C271.132 302.272 273.278 302.322 275.341 301.856C277.404 301.389 279.32 300.421 280.919 299.036C282.518 297.652 283.75 295.894 284.506 293.919C284.753 293.282 284.821 292.59 284.704 291.917C284.587 291.244 284.289 290.616 283.842 290.1C283.395 289.584 282.815 289.199 282.166 288.987C281.517 288.775 280.822 288.744 280.157 288.897L265.421 292.221C264.754 292.37 264.139 292.698 263.644 293.169C263.149 293.641 262.792 294.239 262.611 294.899C262.43 295.558 262.433 296.255 262.619 296.913C262.804 297.571 263.166 298.166 263.665 298.634L261.944 300.438L263.653 298.634Z" fill="#15006D"/>
<path d="M277.73 292.337C280.098 291.801 281.848 290.616 281.639 289.689C281.429 288.761 279.339 288.444 276.97 288.98C274.602 289.515 272.852 290.701 273.061 291.628C273.271 292.555 275.361 292.873 277.73 292.337Z" fill="white"/>
<path d="M298.228 315.998C287.406 326.065 278.588 315.998 278.588 315.998C278.588 315.998 274.168 328.824 261.542 324.839" fill="white"/>
<path d="M266.246 328.106C264.403 328.087 262.574 327.785 260.823 327.21C260.264 326.962 259.815 326.517 259.563 325.96C259.312 325.402 259.274 324.771 259.458 324.188C259.641 323.605 260.034 323.109 260.56 322.797C261.086 322.484 261.708 322.377 262.309 322.494C272.27 325.642 275.889 316.282 276.266 315.209L277.681 311.201L280.475 314.384C282.451 316.441 285.097 317.725 287.937 318.003C290.813 318.156 293.701 316.824 296.554 314.207C296.792 313.985 297.072 313.812 297.377 313.698C297.683 313.584 298.007 313.531 298.333 313.543C298.659 313.554 298.979 313.63 299.275 313.765C299.572 313.9 299.839 314.093 300.061 314.331C300.283 314.569 300.456 314.849 300.57 315.154C300.684 315.46 300.737 315.784 300.725 316.11C300.714 316.436 300.638 316.756 300.503 317.052C300.368 317.349 300.175 317.616 299.937 317.838C296.059 321.457 291.933 323.19 287.642 322.966C284.665 322.772 281.803 321.738 279.39 319.983C278.601 321.331 277.646 322.574 276.549 323.685C275.218 325.079 273.62 326.188 271.849 326.948C270.079 327.708 268.173 328.102 266.246 328.106Z" fill="#15006D"/>
<path d="M327.303 292.614C333.966 290.793 338.849 287.417 338.208 285.075C337.568 282.732 331.647 282.31 324.984 284.131C318.321 285.953 313.439 289.329 314.079 291.671C314.719 294.014 320.64 294.436 327.303 292.614Z" fill="#FF8080"/>
<path d="M227.324 323.363C233.894 321.231 238.613 317.63 237.864 315.32C237.114 313.01 231.18 312.866 224.61 314.999C218.039 317.131 213.321 320.732 214.07 323.042C214.82 325.352 220.754 325.495 227.324 323.363Z" fill="#FF8080"/>
<path d="M245.11 304.54C246.516 302.778 247.522 300.731 248.057 298.54C249.389 293.165 248.658 287.377 247.456 282.036C244.532 269.069 236.363 259.933 229.219 261.548C222.075 263.163 218.609 274.963 221.557 287.895C222.749 293.595 225.238 298.944 228.83 303.527C229.949 304.968 231.378 306.14 233.01 306.956C234.642 307.772 236.436 308.211 238.261 308.242C239.604 308.167 240.915 307.796 242.099 307.156C243.282 306.516 244.311 305.623 245.11 304.54Z" fill="#15006D"/>
<path d="M239.308 289.103C241.436 288.622 242.329 284.557 241.304 280.023C240.279 275.489 237.723 272.203 235.596 272.684C233.469 273.165 232.575 277.23 233.6 281.764C234.625 286.298 237.181 289.584 239.308 289.103Z" fill="white"/>
<path d="M217.737 252.566C222.016 248.346 227.026 246.365 231.883 246.978C236.74 247.591 241.054 250.762 244.155 255.914C244.427 256.357 244.528 256.884 244.439 257.396C244.35 257.909 244.077 258.371 243.671 258.696C243.337 258.978 242.927 259.154 242.492 259.203C242.205 259.234 241.913 259.205 241.637 259.118C241.361 259.031 241.107 258.887 240.889 258.696C238.11 256.21 234.641 254.627 230.942 254.157C227.243 253.688 223.489 254.354 220.177 256.067C219.724 256.292 219.204 256.345 218.715 256.218C218.225 256.09 217.798 255.789 217.513 255.372C217.201 254.957 217.051 254.443 217.093 253.926C217.134 253.41 217.363 252.926 217.737 252.566Z" fill="#15006D"/>
<path d="M304.334 238.986C298.652 237.454 293.324 238.114 289.327 240.849C285.331 243.584 282.891 248.228 282.455 253.957C282.412 254.45 282.555 254.942 282.856 255.334C283.157 255.727 283.594 255.993 284.082 256.079C284.497 256.16 284.927 256.119 285.319 255.961C285.585 255.854 285.825 255.694 286.028 255.491C286.23 255.289 286.39 255.048 286.498 254.783C287.894 251.389 290.25 248.476 293.276 246.401C296.354 244.316 299.958 243.143 303.674 243.018C304.173 243.004 304.651 242.817 305.026 242.487C305.401 242.158 305.648 241.707 305.725 241.214C305.816 240.736 305.724 240.241 305.466 239.828C305.208 239.415 304.804 239.114 304.334 238.986Z" fill="#15006D"/>
<path d="M371.032 322.683C365.068 330.84 361.154 340.448 365.244 350.327C370.844 363.824 383.646 379.797 398.499 379.184C409.604 378.748 427.404 342.806 432.792 330.722C438.697 317.973 443.608 304.786 447.48 291.279C453.044 270.72 458.09 234.541 438.356 219.263C424.74 208.654 399.454 202.854 389.375 226.112C382.019 243.111 403.297 259.344 403.309 259.356C405.667 270.602 375.206 316.848 371.41 322.164C371.315 322.329 371.162 322.506 371.032 322.683Z" fill="white"/>
<path d="M397.734 381.626C382.503 381.626 369.076 366.006 362.946 351.235C359.127 342.017 361.178 331.902 369.029 321.175L369.394 320.668C377.128 309.835 401.353 270.98 400.964 260.606C396.59 256.976 379.921 241.674 387.101 225.076C390.92 216.259 397.274 210.482 405.49 208.384C418.234 205.119 431.979 211.119 439.877 217.249C463.041 235.238 453.387 278.914 449.874 291.881C445.842 306.781 439.842 320.975 435.056 331.69C431.39 339.942 412.339 381.084 398.594 381.614L397.734 381.626ZM372.978 324.11C366.141 333.482 364.337 341.722 367.497 349.326C373.096 362.847 385.179 377.158 398.347 376.651C405.738 376.368 420.415 352.226 430.482 329.663C435.197 319.124 441.091 305.155 445.029 290.572C448.341 278.371 457.524 237.277 436.777 221.174C429.197 215.28 416.949 210.565 406.669 213.194C399.903 214.926 394.881 219.595 391.604 227.057C385.214 241.816 403.958 256.704 404.76 257.341L405.443 257.871L405.667 258.744C408.426 272.135 373.721 323.061 373.367 323.58L372.978 324.134V324.11Z" fill="#15006D"/>
<path d="M252.253 509.058C246.229 491.258 235.278 467.21 216.982 454.03C206.149 446.238 197.732 445.955 197.649 445.955L197.732 440.98C199.241 440.98 235.077 442.242 256.91 507.479L252.253 509.058Z" fill="#15006D"/>
<path d="M431.826 283.936C414.803 283.936 399.879 271.688 399.679 271.511L402.862 267.703C407.697 271.48 413.09 274.482 418.847 276.603C430.753 280.883 441.044 279.515 449.437 272.548L452.608 276.379C446.807 281.301 439.434 283.982 431.826 283.936Z" fill="#15006D"/>
<g style="mix-blend-mode:multiply">
<g style="mix-blend-mode:multiply">
<path d="M221.603 217.26C224.433 183.616 268.639 181.813 270.584 158.424L269.9 155.018C259.88 174.704 229.124 179.101 219.045 201.228C218.303 202.843 215.945 208.702 217.643 214.726C220.224 219.901 221.486 218.321 221.603 217.26Z" fill="#E3E4E5"/>
</g>
</g>
<g style="mix-blend-mode:multiply">
<path d="M438.356 219.253C430.942 213.5 420.061 209.162 410.064 210.14C415.263 211.814 422.925 214.089 426.839 217.119C446.526 232.444 445.147 264.272 439.582 284.796C435.904 298.376 426.992 315.752 421.275 328.578C416.348 339.612 397.757 372.631 377.34 368.965C386.511 378.018 394.563 379.315 398.5 379.174C409.605 378.738 427.405 342.795 432.792 330.712C438.698 317.962 443.609 304.775 447.481 291.268C453.045 270.709 458.043 234.53 438.356 219.253Z" fill="#E3E4E5"/>
</g>
<path d="M277.398 418.841L283.422 449.255C283.615 450.243 284.086 451.156 284.779 451.886C285.472 452.617 286.359 453.135 287.335 453.381C296 455.538 318.964 459.11 346.041 452.497C346.702 452.305 347.317 451.984 347.853 451.553C348.388 451.122 348.833 450.589 349.162 449.985C349.491 449.381 349.697 448.718 349.768 448.035C349.84 447.351 349.775 446.66 349.578 446.001L338.744 410.766C338.552 410.073 338.221 409.426 337.773 408.864C337.324 408.302 336.767 407.836 336.134 407.495C335.501 407.154 334.805 406.944 334.089 406.878C333.373 406.812 332.651 406.891 331.966 407.111C322.63 410.141 302.377 412.062 282.514 412.487C281.736 412.501 280.971 412.686 280.272 413.028C279.574 413.371 278.959 413.862 278.471 414.468C277.983 415.074 277.634 415.78 277.449 416.535C277.263 417.291 277.246 418.078 277.398 418.841Z" fill="white"/>
<path d="M314.296 458.769C305.024 458.853 295.774 457.852 286.734 455.786C285.303 455.422 284.004 454.662 282.986 453.592C281.969 452.522 281.274 451.186 280.982 449.739L274.958 419.348C274.735 418.232 274.76 417.081 275.031 415.975C275.301 414.87 275.81 413.837 276.523 412.949C277.235 412.061 278.133 411.34 279.154 410.837C280.175 410.334 281.294 410.06 282.432 410.036C303.58 409.576 322.712 407.513 331.177 404.778C332.181 404.452 333.24 404.333 334.292 404.428C335.343 404.524 336.364 404.832 337.293 405.333C338.222 405.834 339.04 406.519 339.697 407.346C340.353 408.172 340.836 409.123 341.114 410.142L351.924 445.283C352.218 446.321 352.301 447.409 352.168 448.48C352.034 449.551 351.687 450.584 351.146 451.519C350.663 452.362 350.014 453.097 349.238 453.681C348.462 454.265 347.575 454.684 346.631 454.914C336.045 457.487 325.189 458.781 314.296 458.769ZM279.838 418.358L285.862 448.772C285.966 449.297 286.216 449.782 286.583 450.172C286.95 450.562 287.419 450.841 287.937 450.977C292.393 452.085 316.111 457.26 345.452 450.081C346.043 449.916 346.546 449.526 346.855 448.996C347.059 448.643 347.191 448.252 347.243 447.848C347.296 447.443 347.268 447.032 347.162 446.638L336.34 411.474C336.247 411.095 336.077 410.739 335.841 410.429C335.604 410.119 335.306 409.862 334.965 409.672C334.624 409.483 334.248 409.366 333.859 409.329C333.471 409.293 333.08 409.336 332.709 409.458C321.923 412.994 299.702 414.586 282.538 414.951C282.128 414.955 281.724 415.052 281.357 415.233C280.989 415.415 280.668 415.677 280.416 416.001C280.151 416.326 279.961 416.706 279.861 417.114C279.761 417.522 279.754 417.947 279.838 418.358Z" fill="#15006D"/>
<g style="mix-blend-mode:multiply">
<path d="M328.583 433.61C332.366 433.61 335.432 430.544 335.432 426.761C335.432 422.979 332.366 419.912 328.583 419.912C324.8 419.912 321.734 422.979 321.734 426.761C321.734 430.544 324.8 433.61 328.583 433.61Z" fill="#E3E4E5"/>
</g>
<path d="M316.24 456.81L312.185 437.548L299.878 432.998L295.693 411.131L300.574 410.199L304.228 429.308L316.476 433.847L321.097 455.785L316.24 456.81Z" fill="#15006D"/>
<g style="mix-blend-mode:multiply">
<path d="M256.969 504.979C242.599 519.125 223.761 523.074 205.1 515.4C183.739 506.582 158.654 483.194 173.696 455.691C169.735 457.539 166.293 460.338 163.675 463.837C141.843 493.685 168.827 519.655 191.602 528.98C210.298 536.654 229.136 532.728 243.471 518.571C249.023 513.183 258.584 503.446 256.969 504.979Z" fill="#E3E4E5"/>
</g>
<g style="mix-blend-mode:multiply">
<g style="mix-blend-mode:multiply">
<path d="M352.136 527.905C317.054 514.938 313.529 491.361 312.893 488.367C311.762 492.538 311.016 496.804 310.665 501.11C310.912 513.005 315.71 530.369 338.627 541.521C357.158 550.551 370.703 538.114 378.566 526.75C371.41 531.253 363.064 531.937 352.136 527.905Z" fill="#E3E4E5"/>
</g>
</g>
<g style="mix-blend-mode:multiply">
<path d="M418.174 427.999L418.787 427.445L416.724 423.331L412.987 415.893C412.881 416.034 382.055 457.588 301.988 455.69L294.691 454.83C294.691 454.83 316.028 467.679 357.252 460.087C375.488 456.739 386.546 454.275 403.368 445.305C408.602 453.38 420.933 492.328 409.899 520.043C409.863 520.043 439.617 498.034 418.174 427.999Z" fill="#E3E4E5"/>
</g>
<g style="mix-blend-mode:multiply">
<path d="M194.03 447.545C194.03 447.545 202.978 448.17 207.434 459.675C207.434 459.675 196.058 454.323 189.315 453.25L194.03 447.545Z" fill="#E3E4E5"/>
</g>
<path d="M326.072 429.756C328.93 429.756 331.247 427.439 331.247 424.581C331.247 421.723 328.93 419.406 326.072 419.406C323.214 419.406 320.897 421.723 320.897 424.581C320.897 427.439 323.214 429.756 326.072 429.756Z" fill="#2DB7C4"/>
<path d="M326.084 432.233H325.588C323.819 432.121 322.144 431.398 320.848 430.189C319.552 428.98 318.715 427.359 318.48 425.602C318.245 423.845 318.627 422.061 319.56 420.553C320.493 419.046 321.919 417.909 323.597 417.336C325.274 416.762 327.098 416.788 328.759 417.409C330.419 418.03 331.813 419.207 332.702 420.74C333.592 422.273 333.923 424.068 333.638 425.817C333.353 427.567 332.471 429.163 331.141 430.335C329.745 431.567 327.945 432.242 326.084 432.233ZM326.084 421.883C325.431 421.881 324.802 422.12 324.315 422.555C324.035 422.783 323.803 423.065 323.634 423.384C323.464 423.703 323.361 424.053 323.33 424.413C323.3 424.773 323.342 425.136 323.454 425.479C323.567 425.823 323.747 426.14 323.985 426.412C324.223 426.684 324.514 426.905 324.839 427.062C325.164 427.22 325.518 427.31 325.879 427.327C326.24 427.344 326.601 427.289 326.94 427.164C327.279 427.038 327.589 426.846 327.852 426.598C328.118 426.366 328.336 426.082 328.492 425.764C328.648 425.447 328.739 425.101 328.76 424.748C328.783 424.395 328.737 424.041 328.624 423.707C328.51 423.372 328.332 423.063 328.098 422.798C327.865 422.533 327.581 422.316 327.264 422.161C326.946 422.006 326.601 421.916 326.249 421.895L326.084 421.883Z" fill="#15006D"/>
<g style="mix-blend-mode:multiply">
<path d="M413.53 393.413C413.53 393.413 409.003 380.729 403.062 381.295C403.062 381.295 373.591 380.257 363.677 343.808C362.947 340.703 362.431 337.552 362.132 334.377C352.148 352.189 324.41 369.436 295.257 375.224C262.474 381.707 243.754 376.402 233.545 365.416C238.06 369.447 236.504 370.744 237.423 375.224C238.685 381.33 258.913 391.845 297.32 385.149C314.307 382.191 341.42 370.438 354.175 361.514C362.18 370.355 384.295 396.749 395.163 421.988C369.913 438.716 348.623 442.193 348.623 442.193L347.55 438.716C316.099 452.661 281.795 441.073 281.795 441.073L280.616 435.179C266.399 423.403 246.359 419.913 246.359 419.913C247.703 422.848 249.28 425.671 251.074 428.354C269.358 434.413 283.457 449.255 283.457 449.255C293.43 461.137 338.414 453.97 338.414 453.97C349.024 451.836 349.79 449.879 349.79 449.879C364.413 446.292 378.455 440.652 391.497 433.128C397.952 429.912 403.803 425.605 408.791 420.397C411.714 417.626 414.485 414.267 414.933 412.487C416.559 407.559 416.795 402.749 413.53 393.413Z" fill="#E3E4E5"/>
</g>
<path d="M134.465 302.818L184.605 408.581C186.546 412.678 184.796 417.584 180.699 419.524L176.376 421.57C172.279 423.51 167.374 421.76 165.433 417.663L115.3 311.914C113.36 307.817 115.11 302.912 119.207 300.972L123.529 298.926C127.619 296.971 132.524 298.721 134.465 302.818Z" fill="white"/>
<path d="M172.733 424.708C171.581 424.689 170.429 424.49 169.308 424.087C166.656 423.147 164.529 421.221 163.321 418.677L113.196 312.907C110.704 307.65 112.956 301.358 118.201 298.862L122.524 296.817C125.068 295.609 127.93 295.472 130.582 296.412C133.234 297.353 135.36 299.279 136.568 301.823L186.708 407.586C187.916 410.13 188.064 412.995 187.113 415.644C186.172 418.296 184.246 420.422 181.702 421.63L177.38 423.676C175.906 424.387 174.326 424.728 172.733 424.708ZM127.109 300.455C126.23 300.442 125.342 300.64 124.522 301.028L120.2 303.074C117.262 304.463 116.014 307.981 117.404 310.919L167.544 416.682C168.211 418.106 169.4 419.176 170.885 419.71C172.369 420.244 173.961 420.157 175.385 419.489L179.708 417.444C181.132 416.776 182.202 415.587 182.736 414.103C183.269 412.618 183.182 411.026 182.515 409.602L132.367 303.825C131.7 302.4 130.511 301.331 129.026 300.797C128.394 300.578 127.751 300.463 127.109 300.455Z" fill="#15006D"/>
<g opacity="0.2">
<g opacity="0.2">
<path opacity="0.2" d="M130.292 304.804L180.432 410.567C182.373 414.664 180.623 419.57 176.526 421.51L175.864 421.819C174.944 422.257 173.966 422.51 173.002 422.576C175.299 420.189 176.005 416.541 174.503 413.364L140.188 340.989C139.107 338.713 136.661 337.434 134.156 337.795C131.84 338.123 129.52 338.318 127.218 338.388L114.777 312.16C113.276 308.982 113.981 305.334 116.279 302.948C116.443 302.775 116.614 302.616 116.785 302.457C116.8 302.45 116.803 302.439 116.818 302.432C116.885 302.37 116.953 302.309 117.032 302.251C117.21 302.107 117.396 301.977 117.582 301.847C117.661 301.789 117.736 301.742 117.822 301.698C117.882 301.659 117.943 301.619 118.004 301.579C118.108 301.518 118.226 301.449 118.34 301.391C118.455 301.333 118.569 301.275 118.684 301.217L119.346 300.908C123.446 298.957 128.341 300.704 130.292 304.804Z" fill="#15006D"/>
</g>
</g>
<g opacity="0.3">
<g opacity="0.3">
<path opacity="0.3" d="M116.801 302.7C116.966 302.527 117.137 302.369 117.308 302.21C117.126 302.365 116.955 302.524 116.801 302.7Z" fill="#15006D"/>
</g>
</g>
<path d="M161.154 236.052C164.325 242.736 166.223 249.696 166.94 256.651C169.627 282.596 155.981 308.587 131.059 320.393C106.137 332.199 77.3852 326.327 58.9909 307.817C54.0616 302.861 49.8735 296.989 46.7035 290.305C44.763 286.208 43.3063 282.019 42.2941 277.784C35.52 249.307 49.2899 218.999 76.7988 205.964C104.308 192.928 136.492 201.441 154.244 224.717C156.895 228.176 159.21 231.966 161.154 236.052Z" fill="#4BE1D9"/>
<g opacity="0.8">
<g opacity="0.2">
<path d="M156.129 232.556C159.299 239.24 161.197 246.199 161.915 253.154C164.601 279.1 150.955 305.091 126.033 316.897C113.356 322.914 99.6895 324.334 86.8959 321.851C93.5637 321.063 100.215 319.195 106.627 316.163C118.807 310.388 128.286 301.235 134.485 290.362C130.059 293.09 125.366 295.647 120.435 297.983C102.419 306.525 84.1799 310.756 68.4049 310.889C68.4049 310.889 68.3798 310.892 68.3439 310.893C67.8668 310.891 67.3898 310.89 66.9127 310.889C66.8911 310.882 66.8768 310.889 66.8552 310.882C64.9755 310.864 63.1243 310.794 61.3228 310.646C60.9855 310.619 60.6482 310.592 60.3108 310.565C59.413 309.662 58.5292 308.716 57.6776 307.745C53.8778 303.421 50.6166 298.51 48.0269 293.042C46.0864 288.945 44.6297 284.756 43.6175 280.521C43.6534 280.521 43.6893 280.521 43.7324 280.535C48.0252 281.058 52.578 281.224 57.3334 281.027C72.4029 280.425 89.4695 276.203 106.34 268.206C118.381 262.493 128.994 255.489 137.714 247.854C138.921 246.793 140.092 245.732 141.223 244.646C146.474 239.658 150.912 234.452 154.436 229.196C155.019 230.294 155.585 231.411 156.129 232.556Z" fill="#15006D"/>
</g>
</g>
<g opacity="0.2">
<g opacity="0.8">
<path d="M161.154 236.052C161.365 236.503 161.575 236.954 161.785 237.405C159.98 233.842 157.893 230.52 155.557 227.451C155.535 227.48 155.514 227.509 155.492 227.538C151.817 233.364 147.002 239.139 141.212 244.644C140.2 240.301 138.71 235.994 136.726 231.811C129.472 216.532 116.913 205.496 102.288 199.859C126.566 199.24 150.077 212.694 161.154 236.052Z" fill="#15006D"/>
</g>
</g>
<g opacity="0.6">
<g opacity="0.6">
<path opacity="0.6" d="M125.869 203.775C112.134 200.339 97.1713 201.454 83.3775 208C51.7716 222.977 38.3025 260.747 53.2821 292.342C53.536 292.879 53.7935 293.404 54.0617 293.934C52.3043 293.979 50.4608 294.032 48.6532 294.084C47.9689 292.857 47.3202 291.595 46.7144 290.31C31.7275 258.701 45.2039 220.945 76.8133 205.958C92.8363 198.363 110.451 198.081 125.869 203.775Z" fill="white"/>
</g>
</g>
<path d="M103.232 328.824C78.932 328.528 55.709 314.703 44.6104 291.302C29.1012 258.591 43.0936 219.369 75.8051 203.859C91.6599 196.341 109.472 195.455 125.996 201.344C142.52 207.234 155.751 219.206 163.259 235.058C178.768 267.769 164.772 307.002 132.06 322.511C122.75 326.922 112.896 328.946 103.232 328.824ZM104.629 202.152C95.4632 202.038 86.3267 204.023 77.7963 208.057C63.083 215.042 51.9557 227.332 46.4868 242.681C41.0072 258.026 41.8363 274.59 48.8183 289.314C63.2249 319.707 99.6797 332.71 130.073 318.303C160.466 303.897 173.468 267.442 159.061 237.049C152.069 222.321 139.775 211.205 124.43 205.725C117.975 203.42 111.297 202.235 104.629 202.152Z" fill="#15006D"/>
<path d="M166.594 235.697C167.087 236.742 167.563 237.804 167.995 238.853C168.874 240.979 168.754 243.387 167.642 245.398C160.712 257.917 148.406 270.453 132.329 280.728C127.378 283.893 122.052 286.851 116.416 289.517C98.4004 298.059 80.161 302.29 64.3859 302.423C64.3859 302.423 64.3608 302.426 64.325 302.427C63.8479 302.425 63.3708 302.424 62.8937 302.423C62.8722 302.416 62.8579 302.423 62.8363 302.416C58.2662 302.376 53.9059 301.986 49.8415 301.24C47.5867 300.835 45.6386 299.386 44.5555 297.372C44.0158 296.359 43.4938 295.329 43.0005 294.284C39.9937 287.94 38.0511 281.372 37.1018 274.759C36.8785 273.217 38.1629 271.883 39.7027 272.066C43.9955 272.588 48.5483 272.755 53.3037 272.558C68.3589 271.962 85.4254 267.741 102.307 259.747C114.348 254.034 124.961 247.031 133.681 239.395C141.058 232.943 147.076 226.046 151.47 219.082C152.295 217.765 154.153 217.633 155.202 218.765C159.726 223.684 163.587 229.353 166.594 235.697Z" fill="#FF1564"/>
<path d="M166.594 235.697C167.087 236.742 167.563 237.804 167.995 238.853C168.874 240.979 168.754 243.387 167.642 245.398C160.712 257.917 148.406 270.453 132.329 280.728C127.378 283.893 122.052 286.851 116.416 289.517C98.4004 298.059 80.161 302.29 64.3859 302.423C64.3859 302.423 64.3608 302.426 64.325 302.427C63.8479 302.425 63.3708 302.424 62.8937 302.423C62.8722 302.416 62.8579 302.423 62.8363 302.416C58.2662 302.376 53.9059 301.986 49.8415 301.24C47.5867 300.835 45.6386 299.386 44.5555 297.372C44.0158 296.359 43.4938 295.329 43.0005 294.284C39.9937 287.94 38.0511 281.372 37.1018 274.759C36.8785 273.217 38.1629 271.883 39.7027 272.066C43.9955 272.588 48.5483 272.755 53.3037 272.558C68.3589 271.962 85.4254 267.741 102.307 259.747C114.348 254.034 124.961 247.031 133.681 239.395C141.058 232.943 147.076 226.046 151.47 219.082C152.295 217.765 154.153 217.633 155.202 218.765C159.726 223.684 163.587 229.353 166.594 235.697Z" fill="#4BE1D9"/>
<g opacity="0.6">
<g opacity="0.6">
<path opacity="0.6" d="M63.6419 302.036C59.0718 301.995 54.7115 301.605 50.6471 300.859C48.3923 300.455 46.4441 299.005 45.3611 296.991C44.8213 295.979 44.2994 294.948 43.8061 293.903C40.7993 287.559 38.8566 280.991 37.9074 274.378C37.6841 272.837 38.9684 271.503 40.5082 271.685C44.8011 272.208 49.3539 272.374 54.1092 272.177L54.9289 273.209L44.8801 276.339C44.0027 276.613 43.4872 277.494 43.6712 278.39C44.3555 281.658 46.2537 289.346 50.0075 295.159C53.7251 300.936 60.5779 301.915 63.6419 302.036Z" fill="white"/>
</g>
</g>
<path d="M62.5942 304.761C58.0169 304.706 53.6027 304.299 49.4234 303.539C46.4613 302.998 43.9372 301.157 42.5099 298.481C41.9556 297.441 41.412 296.367 40.8934 295.29C37.8395 288.871 35.7917 282.077 34.7939 275.102C34.5818 273.636 35.0549 272.192 36.0932 271.135C37.1064 270.083 38.5315 269.594 39.9815 269.759C58.043 271.975 80.403 267.553 101.303 257.641C122.214 247.732 139.775 233.216 149.502 217.842C150.288 216.607 151.572 215.822 153.024 215.689C154.501 215.552 155.917 216.111 156.92 217.204C161.689 222.394 165.644 228.285 168.687 234.701C169.195 235.774 169.692 236.88 170.136 237.968C171.295 240.771 171.132 243.892 169.671 246.529C159.984 264.042 140.937 280.469 117.411 291.622C98.8865 300.403 79.5727 304.963 62.5942 304.761ZM39.421 274.386C39.421 274.386 39.4032 274.404 39.4034 274.44C40.3378 280.952 42.2577 287.298 45.1049 293.292C45.5872 294.297 46.0911 295.31 46.6091 296.279C47.3734 297.699 48.7021 298.672 50.2568 298.954C69.0025 302.36 92.7589 298.158 115.423 287.414C138.087 276.671 156.381 260.94 165.613 244.269C166.377 242.884 166.465 241.23 165.851 239.752C165.433 238.732 164.972 237.697 164.49 236.692C161.643 230.699 157.952 225.205 153.504 220.346C153.478 220.314 153.453 220.318 153.45 220.328C143.257 236.434 124.978 251.573 103.301 261.852C81.6142 272.128 58.3332 276.701 39.421 274.386Z" fill="#15006D"/>
<g opacity="0.2">
<path opacity="0.8" d="M166.594 235.698C167.088 236.743 167.563 237.805 167.995 238.854C168.875 240.98 168.754 243.388 167.642 245.399C160.713 257.918 148.407 270.454 132.33 280.729C132.333 280.718 132.344 280.722 132.348 280.711C141.298 270.549 137.37 251.967 135.006 243.733C135.774 243.101 136.52 242.462 137.259 241.809C144.636 235.357 150.655 228.46 155.049 221.496C155.44 220.884 156.045 220.533 156.686 220.433C160.566 224.95 163.918 230.059 166.594 235.698Z" fill="#15006D"/>
</g>
<path d="M101.062 267.922C94.761 270.871 88.7304 272.775 84.9623 273.821C82.8239 274.409 81.5874 276.654 82.2155 278.782L84.936 288.004C85.5604 290.106 87.7656 291.318 89.8644 290.704C93.9008 289.532 100.723 287.362 108.314 284.119C110.354 283.247 111.278 280.864 110.367 278.835L106.367 269.91C105.471 267.874 103.077 266.982 101.062 267.922Z" fill="#78E9E3"/>
<path opacity="0.25" d="M109.835 267.044L114.873 277.682C115.399 278.773 116.725 279.208 117.791 278.614L122.633 275.927C123.656 275.355 124.019 274.065 123.433 273.05L117.554 262.829C116.975 261.827 115.703 261.482 114.705 262.051L110.703 264.321C109.738 264.864 109.36 266.053 109.835 267.044Z" fill="white"/>
<g opacity="0.25">
<path d="M93.3884 248.642C104.456 239.02 108.491 225.54 102.4 218.533C96.3087 211.526 82.3985 213.646 71.3305 223.268C60.2624 232.89 56.2279 246.37 62.319 253.376C68.4101 260.383 82.3203 258.263 93.3884 248.642Z" fill="white"/>
</g>
</svg>
