<svg width="155" height="162" viewBox="0 0 155 162" fill="none" xmlns="http://www.w3.org/2000/svg">
<path d="M62.8645 112.988C53.9392 108.908 48.1083 111.562 48.1083 111.562C47.2651 116.343 37.3123 115.49 39.4243 107.134C42.1357 96.3857 66.5237 100.667 66.5237 100.667C66.5237 100.667 72.668 117.465 62.8645 112.988Z" fill="white"/>
<path d="M44.1134 114.997C42.7116 115.005 41.3567 114.492 40.3124 113.557C38.7154 112.082 38.2179 109.753 38.9119 107.017C40.0811 102.373 45.2876 99.726 53.9642 99.3603C58.195 99.2313 62.4285 99.502 66.6084 100.169L66.9069 100.221L67.0114 100.505C67.3945 101.554 70.6781 110.823 67.7403 113.542C66.6582 114.537 64.9442 114.52 62.6482 113.47C55.0537 109.987 49.7129 111.537 48.5587 111.952C48.2278 113.236 47.2552 114.246 45.8547 114.728C45.2925 114.911 44.7045 115.002 44.1134 114.997ZM56.1059 100.363C49.2851 100.363 41.3497 101.624 39.9368 107.263C39.1756 110.286 40.1134 111.935 41.0338 112.788C41.6348 113.323 42.3649 113.691 43.152 113.857C43.9391 114.023 44.7558 113.98 45.5214 113.733C46.1856 113.51 47.3373 112.92 47.591 111.475L47.6383 111.204L47.8871 111.089C48.1358 110.977 54.0413 108.383 63.0811 112.515C64.9567 113.373 66.2825 113.46 67.0263 112.763C67.999 111.863 68.1582 109.485 67.4741 106.069C67.1283 104.401 66.6771 102.757 66.1233 101.146C62.8078 100.641 59.4597 100.379 56.1059 100.363Z" fill="#15006D"/>
<path d="M50.8376 110.953H49.7903C49.8152 102.806 44.3998 102.396 44.1709 102.383L44.2256 101.336C44.2903 101.336 50.8674 101.776 50.8376 110.953Z" fill="#15006D"/>
<g style="mix-blend-mode:multiply">
<path d="M41.7178 108.913C43.0935 103.462 48.887 102.759 55.3671 102.759C57.7452 102.759 59.173 111.174 59.6805 111.353C64.275 112.982 63.6258 113.545 65.1059 113.763C64.7675 112.634 66.5188 100.676 66.5188 100.676C66.5188 100.676 42.1407 96.3854 39.4193 107.144C38.3994 111.184 40.2029 113.465 42.4318 114.209C41.5338 113.032 41.1183 111.288 41.7178 108.913Z" fill="#E3E4E5"/>
</g>
<path d="M72.6409 120.477C72.6409 120.477 70.733 117.228 62.5514 114.39C57.6733 112.701 53.1932 114.9 49.5265 119.644C47.8027 119.313 45.4221 120.094 44.1161 121.883C39.5091 128.176 45.2032 133.656 50.0091 135.624C53.9544 137.243 57.9295 136.415 60.9544 133.427C65.2454 129.199 71.1534 124.388 75.4543 126.982C75.4543 126.982 73.0762 134.395 81.024 138.263C87.5339 141.432 91.1284 132.057 91.1284 132.057L72.6409 120.477Z" fill="white"/>
<path d="M83.6702 139.45C82.6736 139.437 81.6933 139.195 80.8046 138.744C73.6553 135.261 74.4861 128.945 74.8568 127.254C71.7797 125.734 67.3469 127.883 61.3295 133.808C58.123 136.965 53.9265 137.806 49.8096 136.122C46.934 134.935 43.2051 132.246 42.1603 128.56C41.4986 126.209 42.0136 123.858 43.6877 121.57C44.3346 120.713 45.1891 120.035 46.1705 119.6C47.1518 119.165 48.2279 118.986 49.2971 119.082C53.2996 114.032 57.9364 112.241 62.7299 113.898C70.225 116.498 72.5832 119.455 73.0061 120.095L91.7722 131.851L91.618 132.254C91.5359 132.468 89.5483 137.55 85.7622 139.045C85.0967 139.311 84.3869 139.448 83.6702 139.45ZM72.7573 125.724C73.8086 125.715 74.8419 125.997 75.7424 126.54L76.0956 126.754L75.9712 127.149C75.8792 127.435 73.8394 134.184 81.2697 137.801C82.6951 138.495 84.0831 138.587 85.3941 138.07C88.1802 136.973 89.9563 133.458 90.4886 132.271L72.2598 120.856L72.1951 120.746C72.1628 120.694 70.2051 117.595 62.3842 114.888C56.8344 112.963 52.5558 116.587 49.9464 119.965L49.7499 120.214L49.434 120.154C47.9887 119.876 45.7822 120.493 44.5459 122.184C43.0708 124.199 42.6131 126.246 43.1827 128.269C44.1205 131.595 47.5583 134.05 50.2175 135.142C53.924 136.664 57.7101 135.905 60.6031 133.057C63.9812 129.726 68.613 125.724 72.7573 125.724Z" fill="#15006D"/>
<path d="M77.5193 128.042C81.9148 133.828 86.0541 136.204 91.1237 135.664C106.325 134.042 96.9521 108.169 92.6163 100.674C88.5864 93.709 82.0068 89.1045 73.7108 90.6543C69.8795 91.3971 66.2563 92.9668 63.0939 95.2537C63.0939 95.2537 54.5566 99.6319 63.7805 114.512" fill="white"/>
<path d="M89.7545 136.261C85.1699 136.261 81.2147 133.773 77.1003 128.358L77.9336 127.724C82.2794 133.445 86.2073 135.659 91.0679 135.141C94.1699 134.811 96.3888 133.385 97.6326 130.898C101.501 123.283 95.8764 107.37 92.16 100.933C87.7819 93.3629 81.0903 89.8032 73.7968 91.1639C70.0417 91.8954 66.4905 93.4343 63.3889 95.6739L63.3217 95.7161C63.3018 95.7161 61.16 96.8753 60.3366 99.8878C59.3416 103.557 60.675 108.517 64.2172 114.231L63.3242 114.783C59.5605 108.711 58.2197 103.589 59.3441 99.5768C60.2496 96.3206 62.4759 94.9898 62.8267 94.8032C66.0467 92.4851 69.7307 90.8922 73.6252 90.1341C81.3814 88.6863 88.4759 92.4301 93.0903 100.408C94.8316 103.393 97.2222 109.037 98.6873 114.885C99.9311 119.86 100.926 126.771 98.5978 131.373C97.1351 134.196 94.6475 135.813 91.1774 136.184C90.7048 136.235 90.2299 136.261 89.7545 136.261Z" fill="#15006D"/>
<path d="M95.6426 104.637C95.529 104.484 95.3611 104.38 95.1733 104.346C94.9854 104.313 94.792 104.353 94.6326 104.458C73.0804 118.139 61.1252 109.037 61.0506 110.057C60.9014 112.172 62.5431 114.391 62.5431 114.391C67.3441 116.316 69.3217 118.886 69.3217 118.886C87.9784 122.433 96.6849 111.794 96.7172 111.761C98.1625 110.003 96.8217 106.246 95.6426 104.637Z" fill="#B6BBD3"/>
<path d="M76.6752 120.127C74.177 120.118 71.6851 119.875 69.2324 119.4L69.0359 119.363L68.914 119.204C68.8966 119.181 66.9439 116.716 62.3568 114.878L62.2175 114.823L62.1305 114.704C62.0583 114.607 60.3668 112.301 60.5285 110.022C60.5348 109.929 60.5626 109.838 60.6096 109.757C60.6566 109.676 60.7216 109.606 60.7996 109.554C61.1329 109.34 61.4837 109.467 62.4215 109.803C76.9115 115.069 90.0334 106.743 94.3493 104.01C94.622 103.837 94.9499 103.773 95.2676 103.831C95.5853 103.889 95.8694 104.065 96.0632 104.323C97.2498 105.935 98.8369 110 97.1304 112.087C97.1105 112.114 94.8369 114.873 90.2473 117.132C87.2125 118.629 82.6727 120.127 76.6752 120.127ZM69.613 118.405C78.9911 120.146 85.7274 118.181 89.7374 116.219C94.1254 114.069 96.2971 111.455 96.3195 111.43C97.4787 110.01 96.4239 106.589 95.2175 104.947C95.1817 104.903 95.1303 104.873 95.0737 104.864C95.017 104.855 94.9591 104.868 94.9115 104.9C77.0384 116.236 65.7673 112.139 62.0757 110.793L61.5782 110.619C61.6877 112.097 62.6106 113.552 62.8916 113.962C67.0359 115.659 69.0906 117.803 69.613 118.405Z" fill="#15006D"/>
<path d="M53.9112 122.01C52.5919 121.037 51.0546 120.403 49.4336 120.161L49.6077 119.126C51.3942 119.397 53.0875 120.1 54.5405 121.174L53.9112 122.01Z" fill="#15006D"/>
<path d="M71.8818 103.176C71.8818 103.176 72.9963 108.171 74.2898 110.91L71.8818 103.176Z" fill="white"/>
<path d="M73.8144 111.134C72.5109 108.375 71.4164 103.495 71.3691 103.291L72.3915 103.062C72.404 103.112 73.5084 108.037 74.7622 110.686L73.8144 111.134Z" fill="#15006D"/>
<path d="M65.6426 111.353C65.8913 112.903 66.257 114.746 66.6799 116.577L65.6426 111.353Z" fill="white"/>
<path d="M66.1698 116.691C65.7394 114.838 65.3688 112.96 65.125 111.435L66.1598 111.271C66.4086 112.783 66.7668 114.624 67.1922 116.455L66.1698 116.691Z" fill="#15006D"/>
<path d="M49.6225 74.2635C46.6374 69.5819 37.931 55.8307 38.5554 32.5397C38.5976 30.9675 40.3763 29.9402 41.5404 30.883C47.5106 35.7138 60.8787 48.0745 63.2717 69.7784" fill="white"/>
<path d="M49.1804 74.5445C46.2699 69.9774 37.4093 56.0719 38.0312 32.5247C38.0465 32.037 38.1969 31.5632 38.4657 31.1561C38.7345 30.7489 39.1111 30.4244 39.5535 30.2187C39.9236 30.0354 40.3383 29.9615 40.749 30.0056C41.1596 30.0496 41.5492 30.2099 41.8719 30.4675C54.5087 40.7013 62.0908 54.2809 63.8023 69.7211L62.76 69.8356C61.0784 54.6689 53.6306 41.3456 41.2127 31.2909C41.0421 31.1568 40.8369 31.0742 40.621 31.0526C40.4052 31.031 40.1876 31.0714 39.9938 31.169C39.7283 31.2928 39.5023 31.4878 39.3412 31.7325C39.18 31.9771 39.0899 32.2617 39.0809 32.5545C38.464 55.7734 47.1953 69.4799 50.066 73.9823L49.1804 74.5445Z" fill="#15006D"/>
<path d="M51.8379 71.5842C50.9797 72.0916 40.9474 49.9897 42.4101 38.9574C42.5121 38.1937 43.3056 37.6887 43.9026 38.1141C46.8877 40.2633 56.2931 49.634 59.8702 68.9001C59.8702 68.9001 55.4275 69.4548 51.8379 71.5842Z" fill="#FF8080"/>
<path d="M51.8071 72.1167C51.6736 72.115 51.5437 72.0734 51.434 71.9973C50.4638 71.358 47.6454 65.2037 45.5161 59.0843C43.8121 54.1838 41.0733 45.0396 41.8867 38.8879C41.9237 38.5984 42.0347 38.3234 42.209 38.0894C42.3833 37.8554 42.615 37.6703 42.8818 37.552C43.0959 37.4553 43.3319 37.417 43.5656 37.4411C43.7994 37.4651 44.0226 37.5506 44.2126 37.6889C44.7101 38.0396 56.2648 46.547 60.3967 68.8057L60.4987 69.353L59.9464 69.4226C59.9041 69.4226 55.5658 69.9873 52.1181 72.0346C52.0242 72.0907 51.9164 72.1192 51.8071 72.1167ZM43.4241 38.4849C43.3761 38.4852 43.3287 38.4953 43.2848 38.5147C43.1874 38.564 43.1038 38.6366 43.0413 38.726C42.9788 38.8154 42.9394 38.9188 42.9265 39.0272C41.6007 49.057 50.1206 68.7286 51.8619 70.9624C54.725 69.3455 57.9738 68.6789 59.2524 68.4749C55.1131 47.0247 44.0584 38.8903 43.5808 38.5495C43.536 38.5132 43.4815 38.4907 43.4241 38.4849Z" fill="#15006D"/>
<g style="mix-blend-mode:multiply">
<path d="M50.8528 63.734C47.032 55.0648 45.7733 49.2564 45.3653 43.9554C45.3653 43.8385 45.0942 41.1469 46.5593 42.2489C49.0469 44.1196 53.813 50.923 53.6787 50.5698C53.4001 49.8235 49.333 42.9181 44.9947 38.9927C44.5718 38.627 44.2011 38.3335 43.9026 38.1121C43.3106 37.6867 42.517 38.1917 42.4101 38.9554C40.9474 49.9902 50.9797 72.0922 51.8379 71.5847C55.4275 69.4529 59.8702 68.9006 59.8702 68.9006C59.6663 67.7986 58.2484 62.2489 58.0071 61.2116C55.1887 62.0648 52.7285 67.9877 50.8528 63.734Z" fill="#E3E4E5"/>
</g>
<path d="M86.7398 90.9054C87.6875 95.6716 80.0607 101.557 71.8816 103.177C61.4562 105.239 57.7622 101.629 56.8144 96.8631C55.8667 92.0969 61.7895 86.9004 70.0582 85.2537C78.3268 83.6069 85.7895 86.1392 86.7398 90.9054Z" fill="#EDBF40"/>
<path d="M66.4437 104.296C60.675 104.296 57.2721 101.843 56.2994 96.9651C55.8019 94.4776 56.9885 91.8159 59.6377 89.5025C62.2049 87.2487 65.8716 85.5622 69.9561 84.7487C78.4884 83.0497 86.2496 85.7686 87.2521 90.8109C87.5407 92.2537 87.1253 93.8631 86.0556 95.4651C83.5855 99.1616 77.7969 102.547 71.9835 103.696C70.1607 104.076 68.3054 104.276 66.4437 104.296ZM75.0681 85.2736C73.4198 85.2788 71.7759 85.4454 70.1601 85.7711C66.2522 86.5497 62.7596 88.1517 60.3268 90.2836C57.9736 92.3482 56.9089 94.6492 57.3417 96.7512C58.4711 102.423 63.1974 104.353 71.7919 102.652C77.3541 101.55 82.8666 98.3482 85.1974 94.8656C86.1228 93.4801 86.4735 92.1791 86.2372 90.9975C85.5233 87.4801 80.8964 85.2736 75.0681 85.2736Z" fill="#15006D"/>
<path d="M88.8945 78.2111C91.1532 90.5991 79.0886 98.8951 70.6831 100.612C64.412 101.89 50.82 101 47.5861 89.4822C44.1508 77.2036 50.6732 67.6191 63.5289 64.3255C75.8025 61.1788 87.0463 68.0544 88.8945 78.2111Z" fill="white"/>
<path d="M65.8674 101.597C58.5664 101.597 49.6237 98.6791 47.0814 89.6244C45.4645 83.8657 45.9645 78.4727 48.5316 74.0224C51.3625 69.1145 56.4918 65.5846 63.3973 63.8234C69.7107 62.204 76.2405 63.1419 81.3077 66.3931C85.6584 69.1816 88.5216 73.3583 89.4047 78.1219C90.7181 85.3358 87.2753 90.6219 84.1535 93.7935C80.641 97.3557 75.5167 100.172 70.7804 101.137C69.162 101.452 67.5163 101.606 65.8674 101.597ZM69.5018 64.0896C67.5305 64.0933 65.5674 64.3441 63.6585 64.8359C57.0416 66.5324 52.1262 69.8906 49.4396 74.5498C47.0167 78.7488 46.5515 83.8632 48.0913 89.3433C49.8053 95.4503 54.5117 98.1567 58.1585 99.3507C62.1755 100.611 66.4399 100.867 70.5789 100.097C75.1211 99.1692 80.0316 96.4677 83.4147 93.0448C86.3624 90.0597 89.6137 85.0846 88.3898 78.3035C87.5714 73.8259 84.8624 69.9005 80.7604 67.2712C77.3887 65.1566 73.4816 64.0525 69.5018 64.0896Z" fill="#15006D"/>
<g style="mix-blend-mode:multiply">
<path d="M88.8936 78.2111C87.0453 68.0544 75.8016 61.1788 63.5205 64.3255C50.6723 67.6191 44.1499 77.2036 47.5852 89.4822C50.819 101 64.411 101.89 70.6822 100.612C79.0876 98.8951 91.1647 90.5991 88.8936 78.2111ZM70.2692 99.3056C64.3862 100.51 51.6499 99.716 48.6449 89.0295C45.4335 77.624 51.5827 68.7086 63.6399 65.6191C75.1523 62.6688 85.6747 69.0245 87.3836 78.4524C89.4707 89.9499 78.1424 97.6837 70.2692 99.3056Z" fill="#E3E4E5"/>
</g>
<path d="M87.0337 81.9175C87.0337 81.9175 91.5113 82.415 92.964 85.8976C92.964 85.8976 88.9391 85.9622 87.6755 86.0593C87.6755 86.0593 89.0585 87.2906 89.357 88.6413C89.357 88.6413 87.0909 89.0369 85.377 88.109" fill="white"/>
<path d="M88.1955 89.2509C87.1337 89.2763 86.0818 89.0423 85.1309 88.5693L85.6284 87.6489C86.6408 88.1986 87.9045 88.2285 88.6458 88.1887C88.3092 87.5364 87.8623 86.9473 87.3249 86.4474L86.412 85.624L87.6358 85.5295C88.5537 85.4598 90.8522 85.4076 92.1134 85.3827C90.5189 82.8628 87.0164 82.435 86.9791 82.43L87.096 81.3877C87.2925 81.4101 91.8896 81.9723 93.4517 85.6862L93.7527 86.4026L92.9766 86.415C92.9468 86.415 90.4891 86.4549 88.8274 86.5195C89.3183 87.098 89.6758 87.7774 89.8746 88.5096L89.994 89.0469L89.4517 89.1414C89.0366 89.2113 88.6165 89.2479 88.1955 89.2509Z" fill="#15006D"/>
<path d="M74.0287 79.7562C73.6804 79.7387 73.3297 79.7412 72.9764 79.7562C73.2252 79.5223 73.4739 79.291 73.7401 79.0646C74.1655 78.6965 74.6083 78.3383 75.0635 77.9776C75.2252 77.8482 75.3844 77.7288 75.5461 77.597C75.7078 77.4651 75.8371 77.4054 75.969 77.291C76.1008 77.1766 76.2625 76.9577 75.9416 76.9353C75.8658 76.9317 75.79 76.9418 75.7177 76.9651C74.7718 77.1817 73.8597 77.5257 73.0063 77.9875C71.8971 78.5868 70.9233 79.4082 70.1456 80.4004C70.04 80.539 69.9812 80.7075 69.9777 80.8817C69.9742 81.0559 70.0262 81.2266 70.1262 81.3693C70.2262 81.5119 70.369 81.6191 70.5339 81.6752C70.6988 81.7313 70.8773 81.7336 71.0436 81.6815C71.4839 81.5472 72.0262 81.4328 72.5361 81.3159C73.0461 81.1989 73.5735 81.1019 74.1033 81.0198C74.6332 80.9378 75.1655 80.8432 75.7103 80.7711C76.0386 80.7263 76.3695 80.6741 76.7053 80.6318C76.852 80.6119 77.0187 80.4751 76.8769 80.3358C76.7428 80.2431 76.5884 80.1843 76.4267 80.1641C75.654 79.9333 74.8564 79.7955 74.0511 79.7537L74.0287 79.7562Z" fill="#15006D"/>
<path d="M49.4266 90.4976C49.4266 90.4976 46.1156 92.0473 46.4415 96.7662C46.4415 96.7662 49.4987 95.4553 50.3345 95.0498C50.3345 95.0498 49.5385 96.8956 49.9539 98.2836C49.9539 98.2836 51.6753 98.2637 53.1878 95.8085" fill="white"/>
<path d="M49.5564 98.8081L49.4444 98.43C49.2508 97.6343 49.261 96.8027 49.4743 96.0121C48.2977 96.5344 46.738 97.2061 46.641 97.2558L45.9619 97.5469L45.9121 96.8006C45.5713 91.7807 49.0564 90.0842 49.2056 90.0195L49.6484 90.9698L49.427 90.4946L49.6509 90.9698C49.5365 91.0245 47.0066 92.2807 46.9395 95.9772C47.8823 95.5742 49.5315 94.8529 50.1012 94.5792L51.3648 93.9673L50.8076 95.2583C50.8076 95.2733 50.2604 96.5519 50.3599 97.6663C50.8872 97.4922 51.8275 96.9897 52.7181 95.532L53.6136 96.0792C51.9793 98.7509 50.0315 98.8155 49.9494 98.8155L49.5564 98.8081Z" fill="#15006D"/>
<path d="M69.1807 64.5769C70.1035 58.9674 72.8622 42.5371 89.2478 25.1963C90.3548 24.0247 92.412 24.4501 92.6558 25.97C93.8995 33.7361 95.6582 52.2933 82.6533 70.4823" fill="white"/>
<path d="M83.081 70.7859L82.2277 70.1765C91.3173 57.4626 94.7451 42.2064 92.1382 26.0547C92.0988 25.8337 91.9975 25.6284 91.846 25.4628C91.6945 25.2972 91.4991 25.1781 91.2824 25.1193C90.9934 25.0323 90.6859 25.0269 90.3939 25.1037C90.102 25.1806 89.837 25.3366 89.6282 25.5547C73.2875 42.8382 70.586 59.2561 69.6979 64.6616L68.6631 64.4924C69.5636 59.0198 72.3049 42.3531 88.867 24.8358C89.2111 24.4732 89.6496 24.214 90.133 24.0874C90.6165 23.9609 91.1258 23.9719 91.6033 24.1193C92.0083 24.2325 92.3724 24.4592 92.6527 24.7726C92.9331 25.086 93.1179 25.473 93.1854 25.888C95.8247 42.3183 92.3347 57.8432 83.081 70.7859Z" fill="#15006D"/>
<path d="M72.7009 64.0449C71.7058 63.8484 79.1486 40.137 87.8003 32.7216C88.3974 32.2092 89.3476 32.3634 89.5093 33.0947C90.3302 36.7838 91.0939 50.3509 80.6586 67.4877C80.6586 67.4877 76.8949 64.8733 72.7009 64.0449Z" fill="#FF8080"/>
<path d="M80.8178 68.2362L80.3601 67.9178C80.3228 67.893 76.6287 65.3557 72.5989 64.5596C72.4821 64.5336 72.3752 64.4749 72.2906 64.3903C72.206 64.3057 72.1473 64.1988 72.1213 64.082C71.8203 62.9353 73.8626 56.3184 76.4297 50.2015C78.4795 45.2985 82.6486 36.4577 87.4596 32.3234C87.6817 32.129 87.9501 31.9951 88.2389 31.9345C88.5278 31.874 88.8274 31.8888 89.1088 31.9776C89.3352 32.0483 89.5388 32.1776 89.6991 32.3523C89.8594 32.5271 89.9707 32.741 90.0218 32.9726C90.1561 33.5771 93.1586 47.9602 81.1064 67.7537L80.8178 68.2362ZM73.1312 63.5994C76.4347 64.3233 79.38 66.0447 80.4919 66.7512C91.9994 47.5646 89.1287 33.7885 88.9994 33.2089C88.9884 33.1524 88.9614 33.1001 88.9218 33.0582C88.8822 33.0164 88.8314 32.9867 88.7755 32.9726C88.666 32.9415 88.5504 32.9387 88.4394 32.9644C88.3285 32.99 88.2259 33.0434 88.1412 33.1194C80.2481 39.8856 73.3054 60.7338 73.1312 63.5994Z" fill="#15006D"/>
<path d="M68.7397 65.7811C72.3143 62.7064 70.0606 58.9602 70.0606 58.9602C69.3287 59.9127 68.5386 60.8191 67.6949 61.6741C68.0929 59.3308 66.5233 56.7114 66.5233 56.7114C64.4088 60.8656 57.9188 61.7935 55.7919 66.4627C55.5905 66.9005 54.8143 68.8283 56.0407 70.4029" fill="white"/>
<path d="M55.636 70.7263C54.2479 68.9576 55.039 66.8482 55.3151 66.2487C56.4892 63.6766 58.8599 62.2089 61.1509 60.791C63.1857 59.5298 65.1086 58.3407 66.0564 56.4776L66.4867 55.6343L66.9718 56.4477C67.6545 57.6374 68.0918 58.9518 68.2579 60.3134C68.636 59.8855 69.1136 59.3184 69.6509 58.6417L70.121 58.0447L70.5116 58.694C70.5365 58.7363 72.9469 62.8606 69.0837 66.1815L68.3997 65.388C70.7255 63.3979 70.3449 61.0994 69.937 59.9577C69.3494 60.6902 68.7225 61.3902 68.0589 62.0547L66.9096 63.1691L67.1783 61.592C67.4121 60.2139 66.8847 58.6965 66.4817 57.7935C65.3176 59.4452 63.4967 60.5795 61.7031 61.6815C59.5439 63.0173 57.3101 64.4004 56.2703 66.684C56.0564 67.1517 55.4395 68.781 56.4619 70.0845L55.636 70.7263Z" fill="#15006D"/>
<g style="mix-blend-mode:multiply">
<path d="M76.4563 59.6196C79.0732 48.7216 86.2946 36.8161 89.7449 34.5176C89.6752 33.9455 89.5931 33.4704 89.5085 33.0947C89.3469 32.3634 88.3966 32.2092 87.7996 32.7216C79.1479 40.137 71.6976 63.8484 72.7001 64.0449C76.8941 64.8733 80.6603 67.4877 80.6603 67.4877C81.2573 66.5076 81.7598 65.6444 82.2847 64.6892C81.0981 64.7912 75.7922 62.3857 76.4563 59.6196Z" fill="#E3E4E5"/>
</g>
<path d="M67.7402 87.4478C68.081 89.4104 68.0835 89.4577 68.3696 90.6816L67.7402 87.4478Z" fill="white"/>
<path d="M68.3691 91.2065C68.2529 91.2039 68.1409 91.1626 68.0508 91.0892C67.9607 91.0158 67.8976 90.9144 67.8716 90.8011C67.603 89.6568 67.5806 89.5274 67.3094 87.9528L67.2373 87.5399C67.2211 87.4704 67.2193 87.3983 67.2319 87.3281C67.2445 87.2579 67.2713 87.191 67.3106 87.1315C67.35 87.072 67.401 87.0211 67.4607 86.982C67.5203 86.9428 67.5873 86.9163 67.6576 86.9039C67.7278 86.8916 67.7999 86.8937 67.8693 86.9101C67.9387 86.9265 68.0041 86.9569 68.0614 86.9994C68.1186 87.0419 68.1667 87.0957 68.2025 87.1574C68.2383 87.2191 68.2611 87.2874 68.2696 87.3583L68.3418 87.7737C68.6104 89.321 68.6328 89.4478 68.8915 90.5623C68.9074 90.6292 68.9099 90.6987 68.8988 90.7666C68.8877 90.8345 68.8634 90.8996 68.8271 90.9581C68.7908 91.0166 68.7433 91.0673 68.6873 91.1074C68.6314 91.1475 68.568 91.1761 68.501 91.1916C68.4579 91.2024 68.4136 91.2075 68.3691 91.2065Z" fill="#15006D"/>
<path d="M65.5781 97.5472C65.5781 97.5472 69.9886 99.4652 73.6726 95.7637L65.5781 97.5472Z" fill="white"/>
<path d="M68.3328 98.5596C67.3213 98.5664 66.3172 98.3876 65.3701 98.0323L65.793 97.0671C67.071 97.5583 68.4654 97.6619 69.802 97.365C71.1386 97.0682 72.358 96.384 73.3079 95.3979L74.0542 96.1442C73.3146 96.9143 72.4258 97.5256 71.4421 97.9409C70.4585 98.3562 69.4005 98.5667 68.3328 98.5596Z" fill="#15006D"/>
<g style="mix-blend-mode:multiply">
<path d="M70.4388 84.306C70.7249 85.5672 69.4737 86.9254 67.6453 87.3383C65.817 87.7513 64.1055 87.0647 63.8195 85.8035C63.5334 84.5423 64.8468 83.8756 66.6752 83.4627C68.5035 83.0498 70.1553 83.0448 70.4388 84.306Z" fill="#E3E4E5"/>
</g>
<path d="M64.8527 87.3981C64.6805 87.2334 64.5561 87.0252 64.4927 86.7954C64.4294 86.5657 64.4295 86.3231 64.493 86.0935C64.5566 85.8638 64.6812 85.6557 64.8536 85.4912C65.026 85.3267 65.2397 85.212 65.4721 85.1593L68.5791 84.4553C68.8122 84.4031 69.0551 84.415 69.2819 84.4899C69.5087 84.5648 69.711 84.6997 69.8672 84.8804C70.0234 85.0611 70.1277 85.2808 70.1689 85.5161C70.2102 85.7514 70.1869 85.9934 70.1015 86.2165C69.9106 86.7132 69.6 87.1552 69.1973 87.5032C68.7947 87.8511 68.3123 88.0943 67.7931 88.2112C67.274 88.3281 66.734 88.315 66.221 88.1732C65.7081 88.0313 65.2381 87.7651 64.8527 87.3981Z" fill="#15006D"/>
<path d="M67.0783 88.8108C66.1157 88.81 65.19 88.4406 64.4912 87.7785C64.2494 87.5484 64.0745 87.2569 63.9852 86.9352C63.8959 86.6136 63.8955 86.2737 63.9841 85.9518C64.0727 85.6299 64.2469 85.3381 64.4882 85.1074C64.7295 84.8767 65.0289 84.7157 65.3544 84.6417L68.4639 83.9402C68.7893 83.8668 69.1285 83.8831 69.4454 83.9873C69.7623 84.0915 70.045 84.2798 70.2633 84.5321C70.4816 84.7844 70.6274 85.0911 70.685 85.4197C70.7427 85.7483 70.7101 86.0864 70.5907 86.3979C70.3186 87.1086 69.837 87.7198 69.2098 88.1507C68.5826 88.5816 67.8393 88.8118 67.0783 88.8108ZM65.2126 87.0173C65.536 87.3249 65.9304 87.5478 66.3606 87.6664C66.7909 87.785 67.2438 87.7955 67.6791 87.6971C68.1144 87.5987 68.5187 87.3943 68.856 87.1021C69.1934 86.81 69.4535 86.4391 69.6131 86.0223C69.6651 85.8879 69.6795 85.7419 69.6548 85.5999C69.6301 85.4579 69.5672 85.3253 69.4728 85.2164C69.3785 85.1075 69.2563 85.0263 69.1192 84.9816C68.9822 84.9369 68.8356 84.9303 68.6952 84.9626L65.5858 85.6641C65.4449 85.6954 65.3152 85.7646 65.2107 85.8642C65.1063 85.9637 65.0309 86.0899 64.9928 86.229C64.9546 86.3682 64.9552 86.5152 64.9944 86.6541C65.0336 86.793 65.1099 86.9186 65.2151 87.0173L64.8519 87.3979L65.2126 87.0173Z" fill="#15006D"/>
<path d="M68.1834 85.6884C68.6832 85.5754 69.0525 85.3252 69.0083 85.1296C68.9641 84.9339 68.523 84.8669 68.0232 84.98C67.5234 85.093 67.154 85.3432 67.1983 85.5388C67.2425 85.7345 67.6835 85.8014 68.1834 85.6884Z" fill="white"/>
<path d="M72.5089 90.6816C70.2253 92.806 68.3646 90.6816 68.3646 90.6816C68.3646 90.6816 67.4318 93.3881 64.7676 92.5473" fill="white"/>
<path d="M65.7604 93.2361C65.3715 93.2322 64.9856 93.1685 64.6161 93.047C64.4981 92.9948 64.4034 92.9009 64.3503 92.7832C64.2971 92.6656 64.2892 92.5325 64.328 92.4094C64.3667 92.2863 64.4495 92.1818 64.5605 92.1158C64.6715 92.0499 64.8029 92.0272 64.9296 92.052C67.0315 92.7162 67.7952 90.7411 67.8748 90.5147L68.1733 89.6689L68.7629 90.3406C69.1799 90.7747 69.7384 91.0456 70.3375 91.1043C70.9445 91.1366 71.5539 90.8555 72.1559 90.3033C72.2062 90.2564 72.2653 90.2199 72.3297 90.1958C72.3941 90.1718 72.4626 90.1606 72.5313 90.1631C72.6001 90.1655 72.6676 90.1814 72.7302 90.21C72.7928 90.2385 72.8491 90.2791 72.896 90.3294C72.9428 90.3797 72.9793 90.4387 73.0034 90.5032C73.0275 90.5676 73.0386 90.6361 73.0362 90.7048C73.0337 90.7735 73.0178 90.8411 72.9893 90.9037C72.9607 90.9662 72.9201 91.0226 72.8698 91.0694C72.0514 91.8331 71.1808 92.1988 70.2753 92.1515C69.6471 92.1105 69.0433 91.8923 68.534 91.5222C68.3675 91.8065 68.1661 92.0689 67.9345 92.3033C67.6538 92.5973 67.3164 92.8315 66.9428 92.9918C66.5692 93.1521 66.167 93.2352 65.7604 93.2361Z" fill="#15006D"/>
<path d="M78.6446 85.7474C80.0507 85.363 81.0809 84.6507 80.9458 84.1563C80.8107 83.662 79.5613 83.5729 78.1553 83.9573C76.7492 84.3417 75.7189 85.054 75.8541 85.5483C75.9892 86.0426 77.2386 86.1317 78.6446 85.7474Z" fill="#FF8080"/>
<path d="M57.5471 92.235C58.9336 91.7851 59.9293 91.0252 59.7711 90.5378C59.6129 90.0504 58.3607 90.02 56.9743 90.47C55.5878 90.9199 54.5921 91.6798 54.7503 92.1672C54.9085 92.6546 56.1606 92.685 57.5471 92.235Z" fill="#FF8080"/>
<path d="M61.2995 88.2635C61.5963 87.8916 61.8085 87.4595 61.9214 86.9973C62.2025 85.863 62.0482 84.6416 61.7945 83.5148C61.1776 80.7784 59.4537 78.8506 57.9463 79.1914C56.4388 79.5322 55.7075 82.0222 56.3293 84.7511C56.5809 85.9538 57.1061 87.0825 57.8642 88.0496C58.1004 88.3537 58.4017 88.6009 58.7462 88.7732C59.0906 88.9454 59.4692 89.0381 59.8542 89.0446C60.1377 89.0287 60.4143 88.9505 60.6641 88.8155C60.9139 88.6805 61.1309 88.492 61.2995 88.2635Z" fill="#15006D"/>
<path d="M60.0757 85.0061C60.5246 84.9046 60.7131 84.0467 60.4968 83.0899C60.2805 82.1332 59.7412 81.4398 59.2923 81.5413C58.8434 81.6428 58.6549 82.5007 58.8712 83.4575C59.0875 84.4143 59.6268 85.1076 60.0757 85.0061Z" fill="white"/>
<path d="M55.5241 77.2954C56.427 76.4049 57.4843 75.987 58.5091 76.1163C59.534 76.2457 60.4444 76.9148 61.0987 78.0019C61.1561 78.0954 61.1775 78.2066 61.1587 78.3147C61.1399 78.4228 61.0823 78.5203 60.9967 78.589C60.9261 78.6484 60.8396 78.6856 60.7479 78.6959C60.6872 78.7025 60.6258 78.6964 60.5675 78.678C60.5093 78.6596 60.4555 78.6293 60.4096 78.589C59.8232 78.0643 59.0912 77.7303 58.3107 77.6312C57.5301 77.5321 56.7378 77.6727 56.039 78.0342C55.9433 78.0817 55.8338 78.0929 55.7304 78.066C55.6271 78.039 55.5371 77.9756 55.4768 77.8875C55.411 77.8 55.3794 77.6916 55.3881 77.5825C55.3968 77.4734 55.4452 77.3713 55.5241 77.2954Z" fill="#15006D"/>
<path d="M73.7982 74.4299C72.5992 74.1065 71.4748 74.2458 70.6315 74.8229C69.7882 75.4 69.2733 76.3801 69.1813 77.5891C69.1722 77.6931 69.2024 77.7968 69.2659 77.8796C69.3295 77.9625 69.4217 78.0186 69.5246 78.0368C69.6122 78.0539 69.7029 78.0453 69.7857 78.012C69.8417 77.9892 69.8926 77.9554 69.9353 77.9127C69.978 77.87 70.0117 77.8192 70.0345 77.7632C70.3291 77.0471 70.8262 76.4324 71.4648 75.9945C72.1143 75.5545 72.8749 75.3071 73.6589 75.2806C73.7641 75.2778 73.8651 75.2382 73.9442 75.1686C74.0232 75.0991 74.0755 75.0041 74.0917 74.9C74.111 74.7991 74.0915 74.6946 74.037 74.6074C73.9826 74.5203 73.8973 74.4569 73.7982 74.4299Z" fill="#15006D"/>
<path d="M87.8718 92.0914C86.6131 93.8128 85.7873 95.8402 86.6504 97.9248C87.832 100.773 90.5335 104.144 93.6678 104.014C96.0111 103.922 99.7673 96.3377 100.904 93.788C102.15 91.0976 103.187 88.3148 104.004 85.4646C105.178 81.1263 106.242 73.492 102.078 70.2681C99.2051 68.0293 93.8693 66.8054 91.7425 71.7134C90.1902 75.3004 94.6803 78.7258 94.6828 78.7283C95.1803 81.1014 88.7524 90.8601 87.9514 91.982C87.9315 92.0168 87.8992 92.0541 87.8718 92.0914Z" fill="white"/>
<path d="M93.5061 104.53C90.2921 104.53 87.4588 101.234 86.1653 98.1169C85.3593 96.1716 85.7921 94.0373 87.4489 91.7736L87.526 91.6667C89.1578 89.3806 94.2697 81.1816 94.1876 78.9926C93.2648 78.2264 89.7474 74.9975 91.2623 71.4951C92.0682 69.6344 93.409 68.4155 95.1429 67.9727C97.8319 67.2836 100.732 68.5498 102.399 69.8433C107.287 73.6393 105.25 82.8557 104.509 85.592C103.658 88.7363 102.392 91.7313 101.382 93.9925C100.608 95.7338 96.5881 104.415 93.6877 104.527L93.5061 104.53ZM88.2822 92.393C86.8394 94.3706 86.4588 96.1094 87.1255 97.7139C88.3071 100.567 90.8568 103.587 93.6354 103.48C95.1951 103.42 98.2921 98.3259 100.416 93.5647C101.412 91.3408 102.655 88.393 103.486 85.3159C104.185 82.7413 106.123 74.0697 101.745 70.6717C100.145 69.4279 97.5608 68.4329 95.3916 68.9876C93.9638 69.3533 92.9041 70.3383 92.2125 71.913C90.8643 75.0274 94.8195 78.1692 94.9886 78.3035L95.1329 78.4154L95.1802 78.5995C95.7623 81.4254 88.4389 92.1716 88.3643 92.2811L88.2822 92.398V92.393Z" fill="#15006D"/>
<path d="M62.8075 131.42C61.5364 127.664 59.2254 122.59 55.3648 119.808C53.0787 118.164 51.3026 118.104 51.2852 118.104L51.3026 117.055C51.621 117.055 59.1832 117.321 63.7901 131.087L62.8075 131.42Z" fill="#15006D"/>
<path d="M100.7 83.9151C97.1076 83.9151 93.9583 81.3305 93.916 81.2932L94.5877 80.4897C95.608 81.2867 96.7459 81.9203 97.9608 82.3679C100.473 83.2708 102.645 82.9823 104.416 81.5121L105.085 82.3206C103.861 83.3592 102.305 83.9248 100.7 83.9151Z" fill="#15006D"/>
<g style="mix-blend-mode:multiply">
<g style="mix-blend-mode:multiply">
<path d="M56.3397 69.8457C56.9367 62.7462 66.2651 62.3656 66.6755 57.4303L66.5312 56.7114C64.4168 60.8656 57.9268 61.7935 55.7999 66.4627C55.6432 66.8034 55.1457 68.0398 55.5039 69.3109C56.0487 70.4029 56.3148 70.0696 56.3397 69.8457Z" fill="#E3E4E5"/>
</g>
</g>
<g style="mix-blend-mode:multiply">
<path d="M102.078 70.266C100.513 69.0521 98.2171 68.1367 96.1076 68.3431C97.2046 68.6964 98.8215 69.1765 99.6474 69.8158C103.802 73.0496 103.511 79.766 102.336 84.0968C101.56 86.9625 99.6797 90.6292 98.4733 93.3356C97.4335 95.664 93.5106 102.632 89.2021 101.858C91.1375 103.768 92.8365 104.042 93.6673 104.012C96.0106 103.92 99.7668 96.3356 100.904 93.7859C102.15 91.0955 103.186 88.3127 104.003 85.4625C105.177 81.1242 106.232 73.4899 102.078 70.266Z" fill="#E3E4E5"/>
</g>
<path d="M68.1134 112.383L69.3845 118.801C69.4254 119.01 69.5247 119.202 69.671 119.356C69.8172 119.511 70.0043 119.62 70.2104 119.672C72.0388 120.127 76.8845 120.881 82.5984 119.485C82.7377 119.445 82.8676 119.377 82.9806 119.286C83.0937 119.195 83.1876 119.083 83.2569 118.955C83.3263 118.828 83.3698 118.688 83.3848 118.544C83.3999 118.399 83.3863 118.253 83.3447 118.114L81.0586 110.679C81.018 110.533 80.9483 110.396 80.8536 110.278C80.7589 110.159 80.6413 110.061 80.5077 109.989C80.3741 109.917 80.2274 109.873 80.0763 109.859C79.9251 109.845 79.7728 109.862 79.6283 109.908C77.6582 110.547 73.3845 110.953 69.193 111.042C69.0289 111.045 68.8674 111.084 68.72 111.157C68.5726 111.229 68.4428 111.333 68.3399 111.46C68.2369 111.588 68.1633 111.737 68.1241 111.897C68.085 112.056 68.0813 112.222 68.1134 112.383Z" fill="white"/>
<path d="M75.8991 120.808C73.9425 120.826 71.9906 120.615 70.0832 120.179C69.7812 120.102 69.507 119.941 69.2923 119.716C69.0775 119.49 68.9309 119.208 68.8692 118.903L67.5981 112.49C67.5512 112.254 67.5564 112.011 67.6135 111.778C67.6705 111.544 67.778 111.326 67.9283 111.139C68.0786 110.952 68.2682 110.8 68.4836 110.694C68.699 110.587 68.9351 110.53 69.1752 110.524C73.6379 110.427 77.6752 109.992 79.4613 109.415C79.6731 109.346 79.8968 109.321 80.1186 109.341C80.3405 109.361 80.556 109.426 80.752 109.532C80.948 109.638 81.1206 109.782 81.2592 109.957C81.3977 110.131 81.4995 110.332 81.5583 110.547L83.8394 117.962C83.9015 118.181 83.919 118.411 83.8908 118.637C83.8625 118.863 83.7892 119.081 83.6752 119.278C83.5733 119.456 83.4363 119.611 83.2725 119.734C83.1087 119.858 82.9216 119.946 82.7224 119.995C80.4887 120.538 78.1979 120.811 75.8991 120.808ZM68.6279 112.281L69.8991 118.699C69.9211 118.809 69.9738 118.912 70.0512 118.994C70.1286 119.076 70.2276 119.135 70.3369 119.164C71.2772 119.398 76.2822 120.49 82.4737 118.975C82.5984 118.94 82.7046 118.858 82.7697 118.746C82.8127 118.671 82.8405 118.589 82.8516 118.503C82.8627 118.418 82.8569 118.331 82.8344 118.248L80.5508 110.828C80.5313 110.748 80.4954 110.673 80.4455 110.608C80.3955 110.542 80.3326 110.488 80.2607 110.448C80.1887 110.408 80.1093 110.383 80.0274 110.375C79.9455 110.368 79.8628 110.377 79.7846 110.403C77.5085 111.149 72.8195 111.485 69.1976 111.562C69.1111 111.563 69.0259 111.583 68.9484 111.621C68.8709 111.66 68.803 111.715 68.7498 111.783C68.6939 111.852 68.6539 111.932 68.6328 112.018C68.6117 112.104 68.6101 112.194 68.6279 112.281Z" fill="#15006D"/>
<g style="mix-blend-mode:multiply">
<path d="M78.914 115.499C79.7122 115.499 80.3593 114.852 80.3593 114.054C80.3593 113.256 79.7122 112.609 78.914 112.609C78.1158 112.609 77.4688 113.256 77.4688 114.054C77.4688 114.852 78.1158 115.499 78.914 115.499Z" fill="#E3E4E5"/>
</g>
<path d="M76.3094 120.395L75.4537 116.331L72.8567 115.371L71.9736 110.756L73.0035 110.56L73.7746 114.592L76.3592 115.55L77.3343 120.179L76.3094 120.395Z" fill="#15006D"/>
<g style="mix-blend-mode:multiply">
<path d="M63.8026 130.559C60.7703 133.544 56.7952 134.378 52.8574 132.758C48.3499 130.897 43.0564 125.962 46.2305 120.159C45.3948 120.549 44.6685 121.139 44.1161 121.878C39.5091 128.176 45.2032 133.656 50.0091 135.624C53.9544 137.243 57.9295 136.415 60.9544 133.427C62.126 132.291 64.1434 130.236 63.8026 130.559Z" fill="#E3E4E5"/>
</g>
<g style="mix-blend-mode:multiply">
<g style="mix-blend-mode:multiply">
<path d="M83.885 135.398C76.482 132.662 75.7383 127.687 75.6039 127.055C75.3654 127.935 75.208 128.835 75.1338 129.744C75.186 132.254 76.1985 135.918 81.0343 138.271C84.9447 140.177 87.8029 137.552 89.4621 135.154C87.9522 136.104 86.191 136.249 83.885 135.398Z" fill="#E3E4E5"/>
</g>
</g>
<g style="mix-blend-mode:multiply">
<path d="M97.8189 114.316L97.9482 114.199L97.5129 113.331L96.7244 111.761C96.702 111.791 90.197 120.56 73.3015 120.159L71.7617 119.978C71.7617 119.978 76.2642 122.689 84.9632 121.087C88.8114 120.381 91.1448 119.861 94.6945 117.968C95.799 119.672 98.401 127.891 96.0726 133.739C96.0652 133.739 102.344 129.095 97.8189 114.316Z" fill="#E3E4E5"/>
</g>
<g style="mix-blend-mode:multiply">
<path d="M50.5214 118.44C50.5214 118.44 52.4094 118.572 53.3497 121C53.3497 121 50.9493 119.87 49.5264 119.644L50.5214 118.44Z" fill="#E3E4E5"/>
</g>
<path d="M78.384 114.686C78.9871 114.686 79.4761 114.197 79.4761 113.594C79.4761 112.991 78.9871 112.502 78.384 112.502C77.7809 112.502 77.292 112.991 77.292 113.594C77.292 114.197 77.7809 114.686 78.384 114.686Z" fill="#2DB7C4"/>
<path d="M78.3873 115.209H78.2828C77.9095 115.185 77.556 115.032 77.2825 114.777C77.009 114.522 76.8324 114.18 76.7828 113.809C76.7332 113.438 76.8138 113.062 77.0106 112.744C77.2075 112.426 77.5085 112.186 77.8625 112.065C78.2164 111.944 78.6014 111.949 78.9517 112.08C79.3021 112.211 79.5962 112.46 79.7839 112.783C79.9717 113.107 80.0415 113.485 79.9814 113.855C79.9213 114.224 79.7351 114.561 79.4544 114.808C79.1598 115.068 78.7801 115.21 78.3873 115.209ZM78.3873 113.025C78.2496 113.024 78.1167 113.075 78.0141 113.166C77.9549 113.214 77.906 113.274 77.8703 113.341C77.8346 113.409 77.8128 113.482 77.8063 113.558C77.7998 113.634 77.8087 113.711 77.8324 113.783C77.8562 113.856 77.8943 113.923 77.9445 113.98C77.9947 114.038 78.056 114.084 78.1246 114.117C78.1933 114.151 78.2679 114.17 78.3441 114.173C78.4202 114.177 78.4964 114.165 78.5679 114.139C78.6394 114.112 78.7049 114.072 78.7604 114.02C78.8167 113.97 78.8626 113.911 78.8955 113.844C78.9284 113.776 78.9476 113.704 78.9519 113.629C78.957 113.555 78.9473 113.48 78.9233 113.409C78.8994 113.339 78.8617 113.274 78.8124 113.218C78.7632 113.162 78.7033 113.116 78.6363 113.083C78.5693 113.051 78.4965 113.031 78.4221 113.027L78.3873 113.025Z" fill="#15006D"/>
<g style="mix-blend-mode:multiply">
<path d="M96.8394 107.017C96.8394 107.017 95.8842 104.341 94.6305 104.46C94.6305 104.46 88.4116 104.241 86.3195 96.5496C86.1655 95.8945 86.0566 95.2296 85.9937 94.5596C83.8867 98.3183 78.0335 101.958 71.8817 103.179C64.9638 104.547 61.0136 103.428 58.8594 101.109C59.8121 101.96 59.4838 102.234 59.6778 103.179C59.944 104.468 64.2126 106.686 72.3171 105.273C75.9016 104.649 81.623 102.169 84.3146 100.286C86.0036 102.152 90.6703 107.721 92.9638 113.047C87.6354 116.577 83.1429 117.311 83.1429 117.311L82.9165 116.577C76.2797 119.52 69.0409 117.074 69.0409 117.074L68.7922 115.831C65.7922 113.346 61.5634 112.609 61.5634 112.609C61.847 113.229 62.1797 113.824 62.5584 114.39C66.4166 115.669 69.3917 118.801 69.3917 118.801C71.4962 121.308 80.9887 119.796 80.9887 119.796C83.2275 119.346 83.3892 118.933 83.3892 118.933C86.475 118.176 89.438 116.986 92.1902 115.398C93.5523 114.719 94.7869 113.81 95.8394 112.711C96.4563 112.127 97.0409 111.418 97.1354 111.042C97.4787 110.002 97.5285 108.987 96.8394 107.017Z" fill="#E3E4E5"/>
</g>
<circle cx="96.9429" cy="66.6426" r="22.7603" fill="url(#paint0_radial)"/>
<path d="M95.3446 77.7334L95.3429 77.7192L95.1175 77.6997C94.9685 77.6873 94.8194 77.6767 94.6704 77.6642C94.3528 77.6412 94.0245 77.6163 93.7069 77.5773C92.8073 77.4673 91.9361 77.3129 91.1146 77.1195C89.9134 76.8356 88.7725 76.4453 87.7239 75.9627C86.7835 75.5279 85.9407 75.0081 85.2167 74.4137C84.5638 73.8778 84.0563 73.3153 83.6642 72.6908C83.3714 72.2259 83.155 71.7184 82.9793 71.2855C82.667 70.5119 82.4381 69.7827 82.2767 69.0552C82.1897 68.6648 82.1081 68.2425 82.0265 67.7617C81.936 67.2329 81.8845 66.706 81.8739 66.1985C81.8721 66.0849 81.865 65.9732 81.8597 65.8596C81.8491 65.6733 81.8402 65.4976 81.8473 65.3255C81.8703 64.8234 81.9041 64.2875 81.9804 63.7659C82.0939 63.01 82.2589 62.3287 82.4878 61.6828C82.7504 60.9376 83.1053 60.2208 83.54 59.5518C83.8913 59.0124 84.2462 58.5671 84.6259 58.1909C85.1209 57.7012 85.6994 57.2488 86.3452 56.8478C87.2111 56.3101 88.1515 55.8666 89.2179 55.4922C90.1423 55.1692 91.0632 54.9226 91.9574 54.7629C92.4312 54.6778 92.9173 54.6032 93.3379 54.5394C93.8773 54.4577 94.4167 54.4169 94.9188 54.3868C95.4582 54.353 96.0082 54.3193 96.5476 54.3193C96.6949 54.3193 96.8422 54.3211 96.9894 54.3282L97.0249 54.33C97.4916 54.3477 97.9742 54.3655 98.4426 54.4045C99.3351 54.4773 100.141 54.5855 100.909 54.7328C102.33 55.0042 103.59 55.3786 104.763 55.8772C105.826 56.3279 106.725 56.8442 107.513 57.451C108.304 58.0614 108.979 58.8084 109.514 59.6707C109.985 60.4266 110.352 61.2179 110.604 62.0217C110.804 62.6587 110.934 63.2442 111 63.8102C111.005 63.8617 111.016 63.9415 111.026 64.0338C111.051 64.2379 111.104 64.6655 111.104 64.7418V66.344C111.099 66.4487 110.966 67.696 110.89 68.1414C110.765 68.8653 110.588 69.5822 110.363 70.2724C110.214 70.7248 110.04 71.1666 109.825 71.6883C109.617 72.194 109.353 72.6642 109.042 73.0829C108.633 73.6383 108.116 74.1493 107.463 74.6461C106.681 75.244 105.767 75.7586 104.671 76.2182C103.837 76.5677 102.983 76.848 102.133 77.0521C101.809 77.1302 101.471 77.1994 101.148 77.2668C101.001 77.297 100.854 77.3271 100.708 77.3591L100.666 77.3644L100.602 77.3821C100.588 77.3874 100.572 77.3928 100.558 77.3945C100.409 77.4158 100.258 77.4371 100.109 77.4584C99.7201 77.5134 99.3191 77.5702 98.9235 77.6163C98.6609 77.6465 98.3876 77.6625 98.1232 77.6802C98.0008 77.6873 97.8784 77.6962 97.7577 77.705L97.543 77.721L97.5413 77.737H95.3446V77.7334Z" fill="#FBECDB"/>
<path d="M96.5481 54.586C96.6971 54.586 96.8444 54.5896 96.981 54.5931L97.0218 54.5949C97.4832 54.6126 97.9604 54.6304 98.4235 54.6694C99.3036 54.7422 100.102 54.8468 100.861 54.9923C102.265 55.262 103.507 55.6311 104.66 56.1208C105.702 56.5644 106.584 57.0665 107.352 57.6609C108.119 58.2518 108.771 58.9757 109.291 59.8114C109.751 60.5495 110.108 61.3196 110.354 62.1021C110.549 62.7231 110.675 63.2909 110.739 63.8427C110.745 63.8942 110.755 63.974 110.768 64.068C110.792 64.2615 110.842 64.6625 110.844 64.7423V66.3303C110.833 66.4811 110.707 67.6664 110.635 68.0958C110.514 68.8055 110.338 69.5099 110.116 70.1877C109.971 70.6331 109.799 71.0678 109.586 71.5859C109.385 72.0721 109.133 72.521 108.835 72.9237C108.44 73.4578 107.941 73.9529 107.309 74.4337C106.545 75.0175 105.65 75.5214 104.575 75.9721C103.755 76.3163 102.916 76.5931 102.079 76.7936C101.758 76.8699 101.422 76.9391 101.099 77.0065C100.956 77.0367 100.812 77.065 100.67 77.097L100.657 77.0988L100.622 77.1041L100.586 77.1129C100.567 77.1183 100.549 77.1236 100.53 77.1289C100.524 77.1307 100.519 77.1325 100.514 77.1342C100.37 77.1538 100.226 77.175 100.083 77.1946C99.694 77.2496 99.2912 77.3064 98.8991 77.3525C98.6418 77.3809 98.3845 77.3968 98.113 77.4146C97.9906 77.4217 97.8682 77.4306 97.744 77.4394L97.3217 77.4696H97.2223H95.7691H95.5296L95.1428 77.4377C94.9938 77.4252 94.8447 77.4146 94.6939 77.4022C94.3639 77.3773 94.0534 77.3543 93.7393 77.317C92.8504 77.2088 91.988 77.0562 91.1754 76.8645C89.9901 76.5842 88.867 76.2009 87.8343 75.7236C86.9152 75.2996 86.0902 74.7903 85.384 74.2101C84.7541 73.6938 84.2644 73.1509 83.8882 72.5511C83.6061 72.1022 83.3949 71.6107 83.2246 71.1884C82.9194 70.429 82.6941 69.7122 82.5362 69.0007C82.451 68.6157 82.3694 68.1969 82.2878 67.7196C82.199 67.2033 82.1494 66.6905 82.1387 66.1955C82.1369 66.0766 82.1298 65.9595 82.1245 65.8477C82.1139 65.6685 82.105 65.4999 82.1121 65.342C82.1352 64.847 82.1671 64.3182 82.2434 63.809C82.3534 63.0709 82.5149 62.4055 82.7384 61.7756C82.9957 61.0499 83.3399 60.3526 83.7622 59.7014C84.1029 59.178 84.4454 58.7468 84.8109 58.3849C85.2917 57.9093 85.8542 57.4693 86.4823 57.0789C87.3322 56.552 88.2548 56.1173 89.3035 55.7482C90.2155 55.4288 91.1239 55.1857 92.004 55.0278C92.4724 54.9409 92.9391 54.8681 93.3773 54.8025C93.9043 54.7226 94.4384 54.6836 94.937 54.6517C95.4675 54.6197 96.0158 54.586 96.5481 54.586ZM96.5481 54.0537C95.9998 54.0537 95.4515 54.0874 94.9033 54.1211C94.3656 54.1548 93.8298 54.1957 93.2993 54.2755C92.8362 54.3465 92.3731 54.4174 91.9117 54.5008C90.9643 54.6712 90.038 54.9249 89.1296 55.2425C88.1058 55.6009 87.1264 56.0498 86.2037 56.6229C85.565 57.0186 84.9723 57.4729 84.4383 58.0034C84.0106 58.4274 83.6451 58.903 83.3169 59.4086C82.8715 60.0953 82.5113 60.8228 82.2381 61.5946C81.9932 62.2884 81.8264 62.9999 81.7182 63.7274C81.6401 64.2544 81.6064 64.7849 81.5816 65.3136C81.5674 65.6099 81.6011 65.9063 81.6082 66.2043C81.6188 66.7437 81.6738 67.2778 81.7643 67.8083C81.8389 68.2448 81.9222 68.6813 82.0181 69.1143C82.1902 69.8914 82.435 70.6473 82.7331 71.3854C82.9336 71.884 83.1519 72.3755 83.4393 72.8333C83.8722 73.5217 84.4223 74.109 85.0486 74.6218C85.8311 75.2641 86.6952 75.7822 87.6125 76.2063C88.7179 76.7173 89.8677 77.1005 91.053 77.3809C91.9188 77.5849 92.7918 77.7357 93.6737 77.844C94.1456 77.9025 94.6212 77.9274 95.0967 77.9664C95.0967 77.977 95.0984 77.9895 95.0967 78.0001C95.196 78.0001 95.2954 78.0001 95.3948 78.0001C95.519 78.0001 95.6432 78.0001 95.7674 78.0001C96.2518 78.0001 96.7362 78.0001 97.2206 78.0001C97.2951 78.0001 97.3696 78.0001 97.4441 78.0001C97.5559 78.0001 97.6677 78.0001 97.7795 78.0001C97.7795 77.9895 97.7795 77.9788 97.7812 77.9682C98.1734 77.9398 98.5673 77.9238 98.9576 77.8795C99.5059 77.8174 100.052 77.734 100.599 77.6577C100.641 77.6523 100.682 77.6364 100.723 77.6257C100.736 77.624 100.746 77.6222 100.759 77.6204C101.239 77.5175 101.724 77.4252 102.201 77.3099C103.083 77.0988 103.943 76.8131 104.779 76.4618C105.791 76.0377 106.756 75.5231 107.631 74.856C108.243 74.3876 108.8 73.8624 109.261 73.2396C109.595 72.7889 109.863 72.3027 110.076 71.7882C110.271 71.3144 110.461 70.8389 110.62 70.3527C110.853 69.6448 111.032 68.9209 111.158 68.1845C111.238 67.7214 111.376 66.4173 111.376 66.3427C111.376 65.8087 111.376 65.2746 111.376 64.7405C111.376 64.6163 111.291 63.9758 111.268 63.7788C111.195 63.1525 111.051 62.5403 110.863 61.9406C110.595 61.0889 110.218 60.2887 109.746 59.5275C109.192 58.6386 108.507 57.8756 107.68 57.2369C106.818 56.5715 105.87 56.0534 104.871 55.6275C103.613 55.0935 102.304 54.7226 100.964 54.4671C100.139 54.3092 99.3072 54.2045 98.4697 54.1353C97.9817 54.0945 97.4938 54.0768 97.0041 54.059C96.8497 54.0555 96.6989 54.0537 96.5481 54.0537Z" fill="#15006D"/>
<path d="M96.3371 61.7971C96.3371 61.7971 93.2108 55.7359 92.3076 54.8772L92.5365 54.6518C92.5365 54.6518 95.1678 54.2508 95.8829 54.3449C95.8829 54.3431 95.7214 58.9723 96.3371 61.7971Z" fill="#4BE1D9"/>
<path d="M96.3369 61.7971C96.3369 61.7971 97.7333 56.9248 101.044 54.9855C101.044 54.9855 101.781 54.7548 103.972 55.5444C106.163 56.334 105.792 56.6959 105.792 56.6959C105.792 56.6959 102.384 56.0838 99.8785 58.4436C97.3731 60.8035 96.3369 61.7971 96.3369 61.7971Z" fill="#8CDB26"/>
<path d="M96.3369 61.7971C96.3369 61.7971 101.14 59.6626 103.637 59.3415C106.133 59.0203 107.874 59.0079 109.41 59.7886C109.41 59.7886 111.216 61.7137 111 66.5488C110.784 71.3839 109.046 72.9861 109.046 72.9861C109.046 72.9861 110.695 67.1503 107.886 63.8873C105.077 60.6243 99.7507 61.3589 96.3369 61.7971Z" fill="#FFD654"/>
<path d="M96.3369 61.7969C96.3369 61.7969 100.899 63.156 103.035 64.634C105.171 66.1121 106.121 68.5624 106.165 70.2675C106.209 71.9727 106.442 74.3734 104.809 76.1033L100.819 77.3365C100.819 77.3365 102.3 75.988 102.077 72.1146C101.853 68.2413 100.155 67.0631 98.5034 64.705C96.8515 62.3469 96.3369 61.7969 96.3369 61.7969Z" fill="#FF9D33"/>
<path d="M91.2606 77.191C91.2606 77.191 90.2971 74.9908 91.2694 69.8062C91.2694 69.8062 92.4955 66.1032 96.3369 61.7969L96.1896 69.9003C96.1896 69.9003 96.4576 77.6257 95.7336 77.7286C95.0115 77.8315 91.2606 77.191 91.2606 77.191Z" fill="#FF4545"/>
<path d="M96.3371 61.7969C96.3371 61.7969 90.1979 63.7362 87.7315 67.606C85.2652 71.4759 87.233 75.6917 87.233 75.6917C87.233 75.6917 84.7773 75.1629 82.9284 71.7846C82.9284 71.7846 82.2116 66.4563 84.4206 64.4069C86.6297 62.3576 88.5264 62.1961 96.3371 61.7969Z" fill="#6E289B"/>
<path d="M83.7051 59.269C83.7051 59.269 87.4915 59.0152 90.1761 59.7108C92.8606 60.4063 96.3366 61.7974 96.3366 61.7974L91.4199 58.2647C91.4199 58.2647 88.7034 56.5276 86.0525 56.808C86.0525 56.808 83.9144 58.2274 83.7051 59.269Z" fill="#471BB1"/>
<path d="M96.5481 54.586C96.6971 54.586 96.8444 54.5896 96.981 54.5931L97.0218 54.5949C97.4832 54.6126 97.9604 54.6304 98.4235 54.6694C99.3036 54.7422 100.102 54.8468 100.861 54.9923C102.265 55.262 103.507 55.6311 104.66 56.1208C105.702 56.5644 106.584 57.0665 107.352 57.6609C108.119 58.2518 108.771 58.9757 109.291 59.8114C109.751 60.5495 110.108 61.3196 110.354 62.1021C110.549 62.7231 110.675 63.2909 110.739 63.8427C110.745 63.8942 110.755 63.974 110.768 64.068C110.792 64.2615 110.842 64.6625 110.844 64.7423V66.3303C110.833 66.4811 110.707 67.6664 110.635 68.0958C110.514 68.8055 110.338 69.5099 110.116 70.1877C109.971 70.6331 109.799 71.0678 109.586 71.5859C109.385 72.0721 109.133 72.521 108.835 72.9237C108.44 73.4578 107.941 73.9529 107.309 74.4337C106.545 75.0175 105.65 75.5214 104.575 75.9721C103.755 76.3163 102.916 76.5931 102.079 76.7936C101.758 76.8699 101.422 76.9391 101.099 77.0065C100.956 77.0367 100.812 77.065 100.67 77.097L100.657 77.0988L100.622 77.1041L100.586 77.1129C100.567 77.1183 100.549 77.1236 100.53 77.1289C100.524 77.1307 100.519 77.1325 100.514 77.1342C100.37 77.1538 100.226 77.175 100.083 77.1946C99.694 77.2496 99.2912 77.3064 98.8991 77.3525C98.6418 77.3809 98.3845 77.3968 98.113 77.4146C97.9906 77.4217 97.8682 77.4306 97.744 77.4394L97.3217 77.4696H97.2223H95.7691H95.5296L95.1428 77.4377C94.9938 77.4252 94.8447 77.4146 94.6939 77.4022C94.3639 77.3773 94.0534 77.3543 93.7393 77.317C92.8504 77.2088 91.988 77.0562 91.1754 76.8645C89.9901 76.5842 88.867 76.2009 87.8343 75.7236C86.9152 75.2996 86.0902 74.7903 85.384 74.2101C84.7541 73.6938 84.2644 73.1509 83.8882 72.5511C83.6061 72.1022 83.3949 71.6107 83.2246 71.1884C82.9194 70.429 82.6941 69.7122 82.5362 69.0007C82.451 68.6157 82.3694 68.1969 82.2878 67.7196C82.199 67.2033 82.1494 66.6905 82.1387 66.1955C82.1369 66.0766 82.1298 65.9595 82.1245 65.8477C82.1139 65.6685 82.105 65.4999 82.1121 65.342C82.1352 64.847 82.1671 64.3182 82.2434 63.809C82.3534 63.0709 82.5149 62.4055 82.7384 61.7756C82.9957 61.0499 83.3399 60.3526 83.7622 59.7014C84.1029 59.178 84.4454 58.7468 84.8109 58.3849C85.2917 57.9093 85.8542 57.4693 86.4823 57.0789C87.3322 56.552 88.2548 56.1173 89.3035 55.7482C90.2155 55.4288 91.1239 55.1857 92.004 55.0278C92.4724 54.9409 92.9391 54.8681 93.3773 54.8025C93.9043 54.7226 94.4384 54.6836 94.937 54.6517C95.4675 54.6197 96.0158 54.586 96.5481 54.586ZM96.5481 54.0537C95.9998 54.0537 95.4515 54.0874 94.9033 54.1211C94.3656 54.1548 93.8298 54.1957 93.2993 54.2755C92.8362 54.3465 92.3731 54.4174 91.9117 54.5008C90.9643 54.6712 90.038 54.9249 89.1296 55.2425C88.1058 55.6009 87.1264 56.0498 86.2037 56.6229C85.565 57.0186 84.9723 57.4729 84.4383 58.0034C84.0106 58.4274 83.6451 58.903 83.3169 59.4086C82.8715 60.0953 82.5113 60.8228 82.2381 61.5946C81.9932 62.2884 81.8264 62.9999 81.7182 63.7274C81.6401 64.2544 81.6064 64.7849 81.5816 65.3136C81.5674 65.6099 81.6011 65.9063 81.6082 66.2043C81.6188 66.7437 81.6738 67.2778 81.7643 67.8083C81.8389 68.2448 81.9222 68.6813 82.0181 69.1143C82.1902 69.8914 82.435 70.6473 82.7331 71.3854C82.9336 71.884 83.1519 72.3755 83.4393 72.8333C83.8722 73.5217 84.4223 74.109 85.0486 74.6218C85.8311 75.2641 86.6952 75.7822 87.6125 76.2063C88.7179 76.7173 89.8677 77.1005 91.053 77.3809C91.9188 77.5849 92.7918 77.7357 93.6737 77.844C94.1456 77.9025 94.6212 77.9274 95.0967 77.9664C95.0967 77.977 95.0984 77.9895 95.0967 78.0001C95.196 78.0001 95.2954 78.0001 95.3948 78.0001C95.519 78.0001 95.6432 78.0001 95.7674 78.0001C96.2518 78.0001 96.7362 78.0001 97.2206 78.0001C97.2951 78.0001 97.3696 78.0001 97.4441 78.0001C97.5559 78.0001 97.6677 78.0001 97.7795 78.0001C97.7795 77.9895 97.7795 77.9788 97.7812 77.9682C98.1734 77.9398 98.5673 77.9238 98.9576 77.8795C99.5059 77.8174 100.052 77.734 100.599 77.6577C100.641 77.6523 100.682 77.6364 100.723 77.6257C100.736 77.624 100.746 77.6222 100.759 77.6204C101.239 77.5175 101.724 77.4252 102.201 77.3099C103.083 77.0988 103.943 76.8131 104.779 76.4618C105.791 76.0377 106.756 75.5231 107.631 74.856C108.243 74.3876 108.8 73.8624 109.261 73.2396C109.595 72.7889 109.863 72.3027 110.076 71.7882C110.271 71.3144 110.461 70.8389 110.62 70.3527C110.853 69.6448 111.032 68.9209 111.158 68.1845C111.238 67.7214 111.376 66.4173 111.376 66.3427C111.376 65.8087 111.376 65.2746 111.376 64.7405C111.376 64.6163 111.291 63.9758 111.268 63.7788C111.195 63.1525 111.051 62.5403 110.863 61.9406C110.595 61.0889 110.218 60.2887 109.746 59.5275C109.192 58.6386 108.507 57.8756 107.68 57.2369C106.818 56.5715 105.87 56.0534 104.871 55.6275C103.613 55.0935 102.304 54.7226 100.964 54.4671C100.139 54.3092 99.3072 54.2045 98.4697 54.1353C97.9817 54.0945 97.4938 54.0768 97.0041 54.059C96.8497 54.0555 96.6989 54.0537 96.5481 54.0537Z" fill="#15006D"/>
<path opacity="0.1" d="M82.8164 69.806C82.8164 69.806 84.1383 75.5318 97.7776 75.4519C111.417 75.3721 110.406 63.5267 110.044 60.6842L110.216 60.4961C110.216 60.4961 112.705 65.1803 110.237 71.3497C107.769 77.519 97.9816 78.0922 94.1846 77.6273C90.3875 77.1624 83.7497 75.8849 82.8164 69.806Z" fill="black"/>
<path opacity="0.3" d="M83.7051 62.792C83.7051 62.792 86.0401 68.3421 93.6804 68.7449C101.321 69.1477 104.202 68.0919 106.182 67.1835C106.182 67.1835 102.74 70.7499 93.8862 70.0827C85.0323 69.4156 83.7033 63.1131 83.7051 62.792Z" fill="white"/>
<path opacity="0.3" d="M93.4393 65.743C93.4393 65.743 98.7375 65.4839 101.161 64.7582C103.585 64.0325 105.347 62.755 104.792 60.805C104.236 58.855 105.26 58.9632 105.927 59.1726C106.594 59.382 107.937 62.3469 105.482 64.9268C103.026 67.5066 97.428 67.2547 94.9706 67.3186C92.5149 67.3824 91.4077 66.6745 91.2179 66.0517C91.0262 65.4289 93.4393 65.743 93.4393 65.743Z" fill="white"/>
<path opacity="0.2" d="M88.673 62.8507C88.673 62.8507 87.4664 59.0004 91.519 57.7175C95.5716 56.4347 97.5251 56.5926 100.032 56.8747C102.539 57.1568 102.832 56.3247 101.29 55.615C99.7484 54.9052 94.1166 54.3871 89.9966 55.9698C85.8766 57.5525 84.3897 59.9621 85.8252 62.4266C87.2606 64.8912 89.1733 65.1733 88.673 62.8507Z" fill="white"/>
<defs>
<radialGradient id="paint0_radial" cx="0" cy="0" r="1" gradientUnits="userSpaceOnUse" gradientTransform="translate(96.9429 66.6426) rotate(90) scale(22.7603)">
<stop offset="0.21875" stop-color="#FFD654" stop-opacity="0"/>
<stop offset="0.963542" stop-color="#FFD654" stop-opacity="0.8"/>
</radialGradient>
</defs>
</svg>
