<svg width="142" height="133" viewBox="0 0 142 133" fill="none" xmlns="http://www.w3.org/2000/svg">
<path d="M94.1463 11.4541C93.6373 11.6422 93.1283 11.8414 92.6082 12.0627C84.5859 15.3712 77.3934 19.9522 68.5191 18.3146C60.6185 16.854 53.6474 11.5205 45.614 11.1775C38.6871 10.8787 31.8931 14.5966 27.7547 20.1735C20.5844 29.8446 24.6121 41.8947 18.0836 51.8091C13.8899 58.1606 7.53841 63.4055 4.42907 70.432C1.48571 77.1043 1.76234 84.9717 4.27415 91.7326C6.79703 98.5599 11.4555 104.624 16.8664 109.426C22.1224 114.096 30.3439 116.154 37.0495 117.913C54.4551 122.483 72.7128 122.063 90.4947 120.502C100.398 119.628 110.445 118.356 119.497 114.25C137.124 106.25 145.854 86.023 139.979 67.4001C137.998 61.1372 133.992 55.7594 130.706 50.0719C128.493 46.2323 126.545 42.0496 125.915 37.6235C125.361 33.7617 126.844 30.254 126.092 26.4475C124.996 20.926 120.371 14.3421 115.159 12.0959C108.664 9.30745 100.763 8.99762 94.1463 11.4541Z" fill="url(#paint0_linear)" fill-opacity="0.7"/>
<path d="M94.1463 11.4541C93.6373 11.6422 93.1283 11.8414 92.6082 12.0627C84.5859 15.3712 77.3934 19.9522 68.5191 18.3146C60.6185 16.854 53.6474 11.5205 45.614 11.1775C38.6871 10.8787 31.8931 14.5966 27.7547 20.1735C20.5844 29.8446 24.6121 41.8947 18.0836 51.8091C13.8899 58.1606 7.53841 63.4055 4.42907 70.432C1.48571 77.1043 1.76234 84.9717 4.27415 91.7326C6.79703 98.5599 11.4555 104.624 16.8664 109.426C22.1224 114.096 30.3439 116.154 37.0495 117.913C54.4551 122.483 72.7128 122.063 90.4947 120.502C100.398 119.628 110.445 118.356 119.497 114.25C137.124 106.25 145.854 86.023 139.979 67.4001C137.998 61.1372 133.992 55.7594 130.706 50.0719C128.493 46.2323 126.545 42.0496 125.915 37.6235C125.361 33.7617 126.844 30.254 126.092 26.4475C124.996 20.926 120.371 14.3421 115.159 12.0959C108.664 9.30745 100.763 8.99762 94.1463 11.4541Z" fill="white" fill-opacity="0.2"/>
<path d="M75.1244 7.34877C74.4937 7.23812 73.863 7.19385 73.2433 7.14959C72.9114 7.12746 72.5683 7.1164 72.2364 7.1164C72.3028 7.03894 72.3802 6.96148 72.4466 6.88403C72.7343 6.56313 73.0109 6.23118 73.2654 5.87709C73.2986 5.83283 73.2986 5.76643 73.2654 5.71111C73.2212 5.65578 73.1327 5.64472 73.0773 5.68898C72.7343 5.95454 72.4023 6.23118 72.0925 6.52994C72.0151 6.59633 71.9376 6.67379 71.8602 6.75124C71.8491 6.41929 71.827 6.07626 71.8048 5.7443C71.7495 5.11358 71.6942 4.49393 71.5725 3.86321C71.5503 3.76362 71.4729 3.68616 71.3733 3.66403C71.2405 3.6419 71.1188 3.73043 71.0966 3.86321C70.986 4.49393 70.9417 5.12465 70.8975 5.7443C70.8753 6.07626 70.8643 6.41929 70.8643 6.75124C70.7868 6.68485 70.7094 6.60739 70.6319 6.541C70.311 6.25331 69.9791 5.97667 69.625 5.72217C69.5807 5.68898 69.5143 5.68898 69.459 5.72217C69.4037 5.76643 69.3926 5.85496 69.4369 5.91028C69.7024 6.25331 69.9791 6.58526 70.2778 6.89509C70.3442 6.97255 70.4217 7.05001 70.4881 7.12746C70.1561 7.13853 69.8131 7.16066 69.4811 7.18279C68.8504 7.22705 68.2307 7.29344 67.6 7.41516C67.5004 7.43729 67.423 7.51475 67.4009 7.61433C67.3787 7.74712 67.4672 7.8799 67.6 7.90203C68.2307 8.01268 68.8615 8.06801 69.4811 8.10121C69.8131 8.12334 70.145 8.1344 70.477 8.1344C70.4106 8.21186 70.3331 8.28932 70.2668 8.36677C69.9791 8.68766 69.7024 9.01962 69.4479 9.37371C69.4147 9.41797 69.4147 9.48436 69.4479 9.53969C69.4922 9.59502 69.5807 9.61715 69.636 9.56182C69.9791 9.29625 70.311 9.01962 70.6208 8.72086C70.6983 8.65447 70.7758 8.57701 70.8421 8.51062C70.8532 8.84258 70.8753 9.17454 70.8975 9.50649C70.9417 10.1372 71.0081 10.7569 71.1298 11.3876C71.152 11.4872 71.2294 11.5646 71.329 11.5868C71.4618 11.6089 71.5946 11.5204 71.6167 11.3876C71.7274 10.7569 71.7827 10.1262 71.8159 9.50649C71.838 9.17454 71.8491 8.84258 71.8491 8.51062C71.9265 8.57701 72.004 8.65447 72.0815 8.72086C72.4023 9.00856 72.7343 9.28519 73.0884 9.53969C73.1327 9.57289 73.199 9.57289 73.2544 9.53969C73.3097 9.49543 73.3318 9.40691 73.2765 9.35158C73.0109 9.00856 72.7343 8.6766 72.4355 8.36677C72.3692 8.28932 72.2917 8.21186 72.2253 8.1344C72.5573 8.12334 72.8892 8.10121 73.2322 8.07908C73.863 8.02375 74.4826 7.96842 75.1133 7.8467C75.2129 7.82457 75.2904 7.74712 75.3125 7.64753C75.3568 7.49262 75.2572 7.3709 75.1244 7.34877Z" fill="white"/>
<path d="M91.1586 128.625C90.5279 128.514 89.8972 128.47 89.2775 128.425C88.9455 128.403 88.6025 128.392 88.2706 128.392C88.3369 128.315 88.4144 128.237 88.4808 128.16C88.7685 127.839 89.0451 127.507 89.2996 127.153C89.3328 127.109 89.3328 127.042 89.2996 126.987C89.2554 126.932 89.1668 126.921 89.1115 126.965C88.7685 127.23 88.4365 127.507 88.1267 127.806C88.0492 127.872 87.9718 127.95 87.8943 128.027C87.8833 127.695 87.8611 127.352 87.839 127.02C87.7837 126.389 87.7284 125.77 87.6066 125.139C87.5845 125.04 87.5071 124.962 87.4075 124.94C87.2747 124.918 87.153 125.006 87.1308 125.139C87.0202 125.77 86.9759 126.401 86.9317 127.02C86.9095 127.352 86.8985 127.695 86.8985 128.027C86.821 127.961 86.7435 127.883 86.6661 127.817C86.3452 127.529 86.0132 127.253 85.6592 126.998C85.6149 126.965 85.5485 126.965 85.4932 126.998C85.4378 127.042 85.4268 127.131 85.471 127.186C85.7366 127.529 86.0132 127.861 86.312 128.171C86.3784 128.248 86.4559 128.326 86.5222 128.403C86.1903 128.414 85.8473 128.437 85.5153 128.459C84.8846 128.503 84.2649 128.569 83.6342 128.691C83.5346 128.713 83.4572 128.791 83.435 128.89C83.4129 129.023 83.5014 129.156 83.6342 129.178C84.2649 129.289 84.8957 129.344 85.5153 129.377C85.8473 129.399 86.1792 129.41 86.5112 129.41C86.4448 129.488 86.3673 129.565 86.3009 129.643C86.0132 129.964 85.7366 130.296 85.4821 130.65C85.4489 130.694 85.4489 130.76 85.4821 130.816C85.5264 130.871 85.6149 130.893 85.6702 130.838C86.0132 130.572 86.3452 130.296 86.655 129.997C86.7325 129.93 86.8099 129.853 86.8763 129.787C86.8874 130.118 86.9095 130.45 86.9317 130.782C86.9759 131.413 87.0423 132.033 87.164 132.663C87.1862 132.763 87.2636 132.841 87.3632 132.863C87.496 132.885 87.6288 132.796 87.6509 132.663C87.7616 132.033 87.8169 131.402 87.8501 130.782C87.8722 130.45 87.8833 130.118 87.8833 129.787C87.9607 129.853 88.0382 129.93 88.1156 129.997C88.4365 130.284 88.7685 130.561 89.1226 130.816C89.1668 130.849 89.2332 130.849 89.2886 130.816C89.3439 130.771 89.366 130.683 89.3107 130.627C89.0451 130.284 88.7685 129.952 88.4697 129.643C88.4033 129.565 88.3259 129.488 88.2595 129.41C88.5914 129.399 88.9234 129.377 89.2664 129.355C89.8971 129.3 90.5168 129.244 91.1475 129.123C91.2471 129.1 91.3246 129.023 91.3467 128.923C91.3799 128.768 91.2914 128.647 91.1586 128.625Z" fill="white"/>
<path d="M14.4652 42.0388C14.0005 41.9614 13.5358 41.9171 13.0599 41.895C12.8054 41.8839 12.562 41.8729 12.3075 41.8618C12.3628 41.8065 12.4182 41.7512 12.4624 41.6848C12.6727 41.4413 12.8829 41.1979 13.071 40.9434C13.0931 40.9102 13.0931 40.8549 13.071 40.8217C13.0378 40.7774 12.9714 40.7663 12.9272 40.7995C12.6727 40.9987 12.4292 41.209 12.1969 41.4192C12.1415 41.4745 12.0862 41.5298 12.0198 41.5852C12.0087 41.3307 11.9977 41.0872 11.9755 40.8327C11.9424 40.368 11.8981 39.9033 11.8096 39.4385C11.7985 39.3611 11.7432 39.3057 11.6657 39.2947C11.5661 39.2836 11.4776 39.35 11.4555 39.4385C11.378 39.9033 11.3338 40.368 11.3116 40.8438C11.3006 41.0983 11.2895 41.3417 11.2784 41.5962C11.2231 41.5409 11.1678 41.4856 11.1014 41.4413C10.858 41.2311 10.6145 41.0208 10.36 40.8327C10.3268 40.8106 10.2715 40.8106 10.2383 40.8327C10.194 40.8659 10.183 40.9323 10.2162 40.9766C10.4153 41.2311 10.6256 41.4745 10.8358 41.7069C10.8912 41.7622 10.9465 41.8175 10.9907 41.8729C10.7473 41.8839 10.4928 41.895 10.2494 41.9171C9.78463 41.9503 9.31988 42.0057 8.85514 42.0942C8.78875 42.1052 8.72236 42.1606 8.7113 42.238C8.68917 42.3376 8.75556 42.4261 8.85514 42.4483C9.31988 42.5257 9.78463 42.57 10.2604 42.5921C10.5039 42.6032 10.7584 42.6142 11.0018 42.6142C10.9465 42.6696 10.9022 42.7249 10.8469 42.7802C10.6367 43.0237 10.4264 43.2671 10.2383 43.5216C10.2162 43.5548 10.2162 43.6101 10.2383 43.6433C10.2715 43.6876 10.3379 43.6986 10.3822 43.6654C10.6367 43.4663 10.8801 43.256 11.1125 43.0458C11.1678 42.9905 11.2231 42.9462 11.2784 42.8909C11.2895 43.1343 11.3006 43.3888 11.3227 43.6322C11.3559 44.097 11.4112 44.5617 11.4997 45.0265C11.5108 45.0929 11.5661 45.1593 11.6436 45.1703C11.7432 45.1924 11.8317 45.1261 11.8538 45.0265C11.9313 44.5617 11.9755 44.097 11.9977 43.6212C12.0087 43.3777 12.0198 43.1232 12.0198 42.8798C12.0751 42.9351 12.1305 42.9794 12.1858 43.0347C12.4292 43.245 12.6727 43.4552 12.9272 43.6433C12.9604 43.6654 13.0157 43.6654 13.0489 43.6433C13.0931 43.6101 13.1042 43.5437 13.071 43.4995C12.8718 43.245 12.6616 43.0015 12.4514 42.7692C12.396 42.7138 12.3407 42.6585 12.2964 42.6032C12.5399 42.5921 12.7944 42.581 13.0378 42.5589C13.5026 42.5257 13.9673 42.4815 14.432 42.3929C14.5095 42.3819 14.5648 42.3265 14.5759 42.2491C14.6312 42.1495 14.5648 42.061 14.4652 42.0388Z" fill="#16096B"/>
<path d="M137.113 34.2042C136.482 34.0936 135.851 34.0493 135.232 34.0051C134.9 33.9829 134.557 33.9719 134.225 33.9719C134.291 33.8944 134.369 33.817 134.435 33.7395C134.723 33.4186 134.999 33.0866 135.254 32.7326C135.287 32.6883 135.287 32.6219 135.254 32.5666C135.209 32.5113 135.121 32.5002 135.066 32.5444C134.723 32.81 134.391 33.0866 134.081 33.3854C134.003 33.4518 133.926 33.5293 133.848 33.6067C133.837 33.2748 133.815 32.9317 133.793 32.5998C133.738 31.9691 133.682 31.3494 133.561 30.7187C133.539 30.6191 133.461 30.5416 133.362 30.5195C133.229 30.4974 133.107 30.5859 133.085 30.7187C132.974 31.3494 132.93 31.9801 132.886 32.5998C132.864 32.9317 132.853 33.2748 132.853 33.6067C132.775 33.5403 132.698 33.4629 132.62 33.3965C132.299 33.1088 131.967 32.8321 131.613 32.5776C131.569 32.5444 131.503 32.5444 131.447 32.5776C131.392 32.6219 131.381 32.7104 131.425 32.7658C131.691 33.1088 131.967 33.4407 132.266 33.7506C132.332 33.828 132.41 33.9055 132.476 33.9829C132.144 33.994 131.801 34.0161 131.469 34.0383C130.839 34.0825 130.219 34.1489 129.588 34.2706C129.489 34.2928 129.411 34.3702 129.389 34.4698C129.367 34.6026 129.456 34.7243 129.588 34.7575C130.219 34.8682 130.85 34.9235 131.469 34.9567C131.801 34.9788 132.133 34.9899 132.465 34.9899C132.399 35.0673 132.321 35.1448 132.255 35.2222C131.967 35.5431 131.691 35.8751 131.436 36.2292C131.403 36.2734 131.403 36.3398 131.436 36.3952C131.48 36.4505 131.569 36.4726 131.624 36.4173C131.967 36.1517 132.299 35.8751 132.609 35.5763C132.687 35.5099 132.764 35.4325 132.83 35.3661C132.841 35.698 132.864 36.03 132.886 36.362C132.93 36.9927 132.996 37.6123 133.118 38.2431C133.14 38.3426 133.218 38.4201 133.317 38.4422C133.45 38.4644 133.583 38.3758 133.605 38.2431C133.716 37.6123 133.771 36.9816 133.804 36.362C133.826 36.03 133.837 35.698 133.837 35.3661C133.915 35.4325 133.992 35.5099 134.07 35.5763C134.391 35.864 134.723 36.1407 135.077 36.3952C135.121 36.4284 135.187 36.4284 135.243 36.3952C135.298 36.3509 135.32 36.2624 135.265 36.207C134.999 35.864 134.723 35.5321 134.424 35.2222C134.357 35.1448 134.28 35.0673 134.214 34.9899C134.546 34.9788 134.878 34.9567 135.221 34.9345C135.851 34.8792 136.471 34.8239 137.102 34.7022C137.201 34.68 137.279 34.6026 137.301 34.503C137.334 34.3481 137.245 34.2264 137.113 34.2042Z" fill="#16096B"/>
<path d="M30.0004 124.519C29.5357 124.442 29.0709 124.398 28.5951 124.375C28.3406 124.364 28.0972 124.353 27.8427 124.342C27.898 124.287 27.9533 124.232 27.9976 124.165C28.2078 123.922 28.4181 123.678 28.6062 123.424C28.6283 123.391 28.6283 123.335 28.6062 123.302C28.573 123.258 28.5066 123.247 28.4623 123.28C28.2078 123.479 27.9644 123.689 27.732 123.9C27.6767 123.955 27.6214 124.01 27.555 124.066C27.5439 123.811 27.5328 123.568 27.5107 123.313C27.4775 122.848 27.4332 122.384 27.3447 121.919C27.3337 121.842 27.2783 121.786 27.2009 121.775C27.1013 121.764 27.0128 121.83 26.9906 121.919C26.9132 122.384 26.8689 122.848 26.8468 123.324C26.8357 123.579 26.8247 123.822 26.8136 124.077C26.7583 124.021 26.7029 123.966 26.6365 123.922C26.3931 123.712 26.1497 123.501 25.8952 123.313C25.862 123.291 25.8067 123.291 25.7735 123.313C25.7292 123.346 25.7181 123.413 25.7513 123.457C25.9505 123.712 26.1607 123.955 26.371 124.187C26.4263 124.243 26.4816 124.298 26.5259 124.353C26.2825 124.364 26.028 124.375 25.7845 124.398C25.3198 124.431 24.855 124.486 24.3903 124.575C24.3239 124.586 24.2575 124.641 24.2465 124.718C24.2243 124.818 24.2907 124.907 24.3903 124.929C24.855 125.006 25.3198 125.05 25.7956 125.073C26.039 125.084 26.2935 125.095 26.537 125.095C26.4816 125.15 26.4374 125.205 26.382 125.261C26.1718 125.504 25.9616 125.748 25.7735 126.002C25.7513 126.035 25.7513 126.091 25.7735 126.124C25.8067 126.168 25.873 126.179 25.9173 126.146C26.1718 125.947 26.4152 125.737 26.6476 125.526C26.7029 125.471 26.7583 125.427 26.8136 125.371C26.8247 125.615 26.8357 125.869 26.8579 126.113C26.891 126.577 26.9464 127.042 27.0349 127.507C27.046 127.573 27.1013 127.64 27.1787 127.651C27.2783 127.673 27.3669 127.607 27.389 127.507C27.4664 127.042 27.5107 126.577 27.5328 126.102C27.5439 125.858 27.555 125.604 27.555 125.36C27.6103 125.416 27.6656 125.46 27.7209 125.515C27.9644 125.725 28.2078 125.936 28.4623 126.124C28.4955 126.146 28.5508 126.146 28.584 126.124C28.6283 126.091 28.6394 126.024 28.6062 125.98C28.407 125.725 28.1968 125.482 27.9865 125.25C27.9312 125.194 27.8759 125.139 27.8316 125.084C28.075 125.073 28.3295 125.062 28.573 125.039C29.0377 125.006 29.5025 124.962 29.9672 124.873C30.0447 124.862 30.1 124.807 30.111 124.73C30.1664 124.63 30.1 124.541 30.0004 124.519Z" fill="white"/>
<path d="M43.4006 1.7832C43.0908 1.72788 42.792 1.70575 42.4822 1.69468C42.3162 1.68362 42.1613 1.68362 41.9953 1.67255C42.1724 1.48444 42.3383 1.28527 42.4933 1.07503C42.5154 1.0529 42.5154 1.0197 42.4933 0.997569C42.4711 0.964373 42.4269 0.964373 42.4047 0.986503C42.1945 1.14142 42.0064 1.31846 41.8183 1.49551C41.8072 1.32953 41.8072 1.17461 41.7961 1.00863C41.774 0.709872 41.7408 0.400044 41.6855 0.101282C41.6744 0.0570209 41.6412 0.0127598 41.5859 0.00169458C41.5195 -0.00937069 41.4642 0.0348904 41.4531 0.101282C41.3978 0.411109 41.3757 0.709872 41.3646 1.0197C41.3535 1.18568 41.3535 1.34059 41.3425 1.50657C41.1544 1.32953 40.9552 1.16355 40.7449 1.00863C40.7228 0.986503 40.6896 0.986503 40.6675 1.00863C40.6343 1.03076 40.6343 1.07503 40.6564 1.09716C40.8113 1.3074 40.9884 1.49551 41.1654 1.68362C40.9994 1.69468 40.8445 1.69468 40.6786 1.70575C40.3798 1.72788 40.07 1.76107 39.7712 1.8164C39.7269 1.82746 39.6827 1.86066 39.6716 1.91599C39.6606 1.98238 39.7048 2.0377 39.7712 2.04877C40.081 2.1041 40.3798 2.12623 40.6896 2.14836C40.8556 2.15942 41.0105 2.15942 41.1765 2.17049C41.1433 2.20368 41.1101 2.24794 41.0769 2.28114C40.9441 2.43605 40.8003 2.60203 40.6786 2.76801C40.6675 2.79014 40.6564 2.82334 40.6786 2.84547C40.7007 2.87866 40.7449 2.87866 40.7671 2.85653C40.9331 2.73482 41.088 2.59097 41.2429 2.44712C41.2761 2.41392 41.3203 2.38073 41.3535 2.34753C41.3646 2.51351 41.3646 2.66842 41.3757 2.8344C41.3978 3.13317 41.431 3.44299 41.4863 3.74176C41.4974 3.78602 41.5306 3.83028 41.5859 3.84134C41.6523 3.85241 41.7076 3.80815 41.7187 3.74176C41.774 3.43193 41.7961 3.13317 41.8183 2.82334C41.8293 2.65736 41.8293 2.50245 41.8404 2.33647C41.8736 2.36966 41.9179 2.40286 41.9511 2.43605C42.106 2.56884 42.272 2.71269 42.4379 2.8344C42.4601 2.84547 42.4933 2.85653 42.5154 2.8344C42.5486 2.81227 42.5486 2.76801 42.5265 2.74588C42.4047 2.5799 42.2609 2.42499 42.117 2.27007C42.0838 2.23688 42.0506 2.19262 42.0064 2.15942C42.1724 2.14836 42.3273 2.14836 42.4933 2.13729C42.792 2.11516 43.1018 2.08196 43.4006 2.02664C43.4449 2.01557 43.4891 1.98238 43.5002 1.92705C43.5113 1.84959 43.467 1.79427 43.4006 1.7832Z" fill="white"/>
<path d="M132.189 118.212C131.879 118.157 131.58 118.135 131.27 118.124C131.104 118.113 130.949 118.113 130.783 118.102C130.96 117.914 131.126 117.714 131.281 117.504C131.303 117.482 131.303 117.449 131.281 117.427C131.259 117.394 131.215 117.394 131.193 117.416C130.983 117.571 130.794 117.748 130.606 117.925C130.595 117.759 130.595 117.604 130.584 117.438C130.562 117.139 130.529 116.829 130.474 116.53C130.463 116.486 130.429 116.442 130.374 116.431C130.308 116.42 130.252 116.464 130.241 116.53C130.186 116.84 130.164 117.139 130.153 117.449C130.142 117.615 130.142 117.77 130.131 117.936C129.942 117.759 129.743 117.593 129.533 117.438C129.511 117.416 129.478 117.416 129.456 117.438C129.422 117.46 129.422 117.504 129.445 117.526C129.599 117.737 129.776 117.925 129.954 118.113C129.788 118.124 129.633 118.124 129.467 118.135C129.168 118.157 128.858 118.19 128.559 118.246C128.515 118.257 128.471 118.29 128.46 118.345C128.449 118.412 128.493 118.467 128.559 118.478C128.869 118.533 129.168 118.555 129.478 118.578C129.644 118.589 129.799 118.589 129.965 118.6C129.931 118.633 129.898 118.677 129.865 118.71C129.732 118.865 129.588 119.031 129.467 119.197C129.456 119.219 129.445 119.253 129.467 119.275C129.489 119.308 129.533 119.308 129.555 119.286C129.721 119.164 129.876 119.02 130.031 118.876C130.064 118.843 130.108 118.81 130.142 118.777C130.153 118.943 130.153 119.098 130.164 119.264C130.186 119.562 130.219 119.872 130.274 120.171C130.285 120.215 130.319 120.259 130.374 120.271C130.44 120.282 130.496 120.237 130.507 120.171C130.562 119.861 130.584 119.562 130.606 119.253C130.617 119.087 130.617 118.932 130.628 118.766C130.662 118.799 130.706 118.832 130.739 118.865C130.894 118.998 131.06 119.142 131.226 119.264C131.248 119.275 131.281 119.286 131.303 119.264C131.337 119.241 131.337 119.197 131.315 119.175C131.193 119.009 131.049 118.854 130.905 118.699C130.872 118.666 130.839 118.622 130.794 118.589C130.96 118.578 131.115 118.578 131.281 118.566C131.58 118.544 131.89 118.511 132.189 118.456C132.233 118.445 132.277 118.412 132.288 118.356C132.299 118.29 132.255 118.223 132.189 118.212Z" fill="white"/>
<path d="M124.023 7.8916C123.713 7.83627 123.414 7.81414 123.104 7.80308C122.938 7.79201 122.783 7.79201 122.617 7.78095C122.794 7.59284 122.96 7.39366 123.115 7.18342C123.137 7.16129 123.137 7.1281 123.115 7.10597C123.093 7.07277 123.049 7.07277 123.027 7.0949C122.817 7.24982 122.628 7.42686 122.44 7.6039C122.429 7.43793 122.429 7.28301 122.418 7.11703C122.396 6.81827 122.363 6.50844 122.308 6.20968C122.297 6.16542 122.263 6.12116 122.208 6.11009C122.142 6.09903 122.086 6.14329 122.075 6.20968C122.02 6.51951 121.998 6.81827 121.987 7.1281C121.976 7.29408 121.976 7.44899 121.965 7.61497C121.776 7.43793 121.577 7.27195 121.367 7.11703C121.345 7.0949 121.312 7.0949 121.29 7.11703C121.256 7.13916 121.256 7.18342 121.278 7.20555C121.433 7.41579 121.61 7.6039 121.787 7.79201C121.622 7.80308 121.467 7.80308 121.301 7.81414C121.002 7.83627 120.692 7.86947 120.393 7.9248C120.349 7.93586 120.305 7.96906 120.294 8.02438C120.283 8.09078 120.327 8.1461 120.393 8.15717C120.703 8.21249 121.002 8.23462 121.312 8.25675C121.478 8.26782 121.633 8.26782 121.799 8.27889C121.765 8.31208 121.732 8.35634 121.699 8.38954C121.566 8.54445 121.422 8.71043 121.301 8.87641C121.29 8.89854 121.279 8.93174 121.301 8.95387C121.323 8.98706 121.367 8.98706 121.389 8.96493C121.555 8.84321 121.71 8.69937 121.865 8.55552C121.898 8.52232 121.942 8.48913 121.976 8.45593C121.987 8.62191 121.987 8.77682 121.998 8.9428C122.02 9.24156 122.053 9.55139 122.108 9.85015C122.119 9.89441 122.153 9.93868 122.208 9.94974C122.274 9.96081 122.33 9.91655 122.341 9.85015C122.396 9.54033 122.418 9.24156 122.44 8.93174C122.451 8.76576 122.451 8.61084 122.462 8.44486C122.496 8.47806 122.54 8.51126 122.573 8.54445C122.728 8.67724 122.894 8.82108 123.06 8.9428C123.082 8.95387 123.115 8.96493 123.137 8.9428C123.171 8.92067 123.171 8.87641 123.149 8.85428C123.027 8.6883 122.883 8.53339 122.739 8.37847C122.706 8.34528 122.673 8.30102 122.628 8.26782C122.794 8.25676 122.949 8.25675 123.115 8.24569C123.414 8.22356 123.724 8.19036 124.023 8.13504C124.067 8.12397 124.111 8.09078 124.122 8.03545C124.133 7.96906 124.089 7.90267 124.023 7.8916Z" fill="white"/>
<path d="M3.93088 59.6548C3.62106 59.5995 3.3223 59.5773 3.01247 59.5663C2.84649 59.5552 2.69158 59.5552 2.5256 59.5441C2.70264 59.356 2.86862 59.1568 3.02353 58.9466C3.04566 58.9245 3.04566 58.8913 3.02353 58.8692C3.0014 58.836 2.95714 58.836 2.93501 58.8581C2.72477 59.013 2.53666 59.19 2.34855 59.3671C2.33749 59.2011 2.33749 59.0462 2.32642 58.8802C2.30429 58.5815 2.27109 58.2716 2.21577 57.9729C2.2047 57.9286 2.17151 57.8843 2.11618 57.8733C2.04979 57.8622 1.99446 57.9065 1.9834 57.9729C1.92807 58.2827 1.90594 58.5815 1.89488 58.8913C1.88381 59.0573 1.88381 59.2122 1.87275 59.3782C1.68464 59.2011 1.48546 59.0351 1.27522 58.8802C1.25309 58.8581 1.21989 58.8581 1.19776 58.8802C1.16457 58.9024 1.16457 58.9466 1.1867 58.9687C1.34161 59.179 1.51866 59.3671 1.6957 59.5552C1.52972 59.5663 1.37481 59.5663 1.20883 59.5773C0.910067 59.5995 0.600239 59.6327 0.301477 59.688C0.257216 59.699 0.212955 59.7322 0.20189 59.7876C0.190825 59.854 0.235085 59.9093 0.301477 59.9204C0.611305 59.9757 0.910067 59.9978 1.21989 60.0199C1.38587 60.031 1.54079 60.031 1.70677 60.0421C1.67357 60.0753 1.64037 60.1195 1.60718 60.1527C1.4744 60.3076 1.33055 60.4736 1.20883 60.6396C1.19776 60.6617 1.1867 60.6949 1.20883 60.7171C1.23096 60.7502 1.27522 60.7503 1.29735 60.7281C1.46333 60.6064 1.61824 60.4626 1.77316 60.3187C1.80635 60.2855 1.85061 60.2523 1.88381 60.2191C1.89488 60.3851 1.89488 60.54 1.90594 60.706C1.92807 61.0048 1.96127 61.3146 2.01659 61.6133C2.02766 61.6576 2.06085 61.7019 2.11618 61.7129C2.18257 61.724 2.2379 61.6797 2.24896 61.6133C2.30429 61.3035 2.32642 61.0047 2.34855 60.6949C2.35962 60.5289 2.35962 60.374 2.37068 60.2081C2.40388 60.2412 2.44814 60.2744 2.48133 60.3076C2.63625 60.4404 2.80223 60.5843 2.96821 60.706C2.99034 60.7171 3.02353 60.7281 3.04566 60.706C3.07886 60.6839 3.07886 60.6396 3.05673 60.6175C2.93501 60.4515 2.79116 60.2966 2.64731 60.1417C2.61412 60.1085 2.58092 60.0642 2.53666 60.031C2.70264 60.0199 2.85755 60.0199 3.02353 60.0089C3.3223 59.9867 3.63212 59.9536 3.93088 59.8982C3.97515 59.8872 4.01941 59.854 4.03047 59.7986C4.04154 59.7322 3.99728 59.6659 3.93088 59.6548Z" fill="white"/>
<path d="M14.0891 113.963C13.7793 113.908 13.4805 113.885 13.1707 113.874C13.0047 113.863 12.8498 113.863 12.6838 113.852C12.8608 113.664 13.0268 113.465 13.1817 113.255C13.2039 113.233 13.2039 113.199 13.1817 113.177C13.1596 113.144 13.1153 113.144 13.0932 113.166C12.883 113.321 12.6949 113.498 12.5068 113.675C12.4957 113.509 12.4957 113.354 12.4846 113.188C12.4625 112.89 12.4293 112.58 12.374 112.281C12.3629 112.237 12.3297 112.192 12.2744 112.181C12.208 112.17 12.1527 112.215 12.1416 112.281C12.0863 112.591 12.0641 112.89 12.0531 113.199C12.042 113.365 12.042 113.52 12.0309 113.686C11.8428 113.509 11.6437 113.343 11.4334 113.188C11.4113 113.166 11.3781 113.166 11.356 113.188C11.3228 113.21 11.3228 113.255 11.3449 113.277C11.4998 113.487 11.6769 113.675 11.8539 113.863C11.6879 113.874 11.533 113.874 11.367 113.885C11.0683 113.908 10.7584 113.941 10.4597 113.996C10.4154 114.007 10.3712 114.04 10.3601 114.096C10.349 114.162 10.3933 114.217 10.4597 114.228C10.7695 114.284 11.0683 114.306 11.3781 114.328C11.5441 114.339 11.699 114.339 11.865 114.35C11.8318 114.383 11.7986 114.428 11.7654 114.461C11.6326 114.616 11.4888 114.782 11.367 114.948C11.356 114.97 11.3449 115.003 11.367 115.025C11.3892 115.058 11.4334 115.058 11.4556 115.036C11.6215 114.914 11.7764 114.771 11.9314 114.627C11.9646 114.594 12.0088 114.56 12.042 114.527C12.0531 114.693 12.0531 114.848 12.0641 115.014C12.0863 115.313 12.1195 115.623 12.1748 115.921C12.1859 115.966 12.2191 116.01 12.2744 116.021C12.3408 116.032 12.3961 115.988 12.4072 115.921C12.4625 115.612 12.4846 115.313 12.5068 115.003C12.5178 114.837 12.5178 114.682 12.5289 114.516C12.5621 114.549 12.6063 114.583 12.6395 114.616C12.7945 114.749 12.9604 114.892 13.1264 115.014C13.1485 115.025 13.1817 115.036 13.2039 115.014C13.2371 114.992 13.2371 114.948 13.2149 114.926C13.0932 114.76 12.9494 114.605 12.8055 114.45C12.7723 114.417 12.7391 114.372 12.6949 114.339C12.8608 114.328 13.0158 114.328 13.1817 114.317C13.4805 114.295 13.7903 114.262 14.0891 114.206C14.1333 114.195 14.1776 114.162 14.1887 114.107C14.1997 114.04 14.1555 113.974 14.0891 113.963Z" fill="white"/>
<path d="M63.8297 20.9668L61.9395 24.5292L63.139 27.1464C63.139 27.1464 63.9751 23.1115 65.0656 22.2027C64.3022 21.403 63.8297 20.9668 63.8297 20.9668Z" fill="#EBF438"/>
<path d="M74.1895 32.9261L76.4795 36.3067L77.7518 34.78C77.7518 34.78 76.2978 31.7992 76.1887 31.8719C76.0797 31.9446 74.1895 32.9261 74.1895 32.9261Z" fill="#EBF438"/>
<path d="M48.6348 81.7082L50.4887 84.6163L52.3062 82.6897C52.3062 82.6897 50.0888 80.5087 49.9798 80.5814C49.8707 80.6541 48.6348 81.7082 48.6348 81.7082Z" fill="#EBF438"/>
<path d="M101.731 79.199L103.549 82.0344L105.803 78.7628L103.985 76.2183L101.731 79.199Z" fill="#EBF438"/>
<path d="M109.922 61.6068C109.922 61.6068 111.158 65.5327 110.067 67.7137C112.03 67.2048 112.83 66.3324 112.83 66.3324C112.83 66.3324 111.521 62.3338 111.885 60.0801C110.94 60.7344 109.922 61.6068 109.922 61.6068Z" fill="#EBF438"/>
<path d="M15.9648 54.2114L17.0554 57.9919C17.0554 57.9919 19.6726 55.6654 19.5272 55.4473C19.3818 55.2292 18.1459 50.7944 18.1459 50.7944L15.9648 54.2114Z" fill="#EBF438"/>
<path d="M79.8604 47.3208L82.4412 51.4284C82.4412 51.4284 84.695 48.1568 84.5859 48.1568C84.4769 48.1568 82.3685 44.5581 82.3685 44.5581L79.8604 47.3208Z" fill="#39B54A"/>
<path d="M104.41 13.9331C104.41 13.9331 106.833 19.8466 111.389 18.49C113.134 17.3268 113.425 16.9386 113.425 16.9386C113.425 16.9386 108.093 15.678 106.93 11.7041C105.96 12.8673 104.41 13.9331 104.41 13.9331Z" fill="#39B54A"/>
<path d="M46.6241 54.8208C46.6241 54.8208 42.8436 56.9539 44.491 60.2501C44.9269 62.0331 45.2186 63.8483 45.3634 65.678L44.0068 70.8151C44.0068 70.8151 47.3816 71.6221 47.8178 69.822C48.254 68.0219 47.4543 64.7881 47.4543 64.7881C47.4543 64.7881 45.2733 61.6969 46.1631 59.2439C46.9992 57.1894 47.5081 56.7358 47.5081 56.7358L46.6241 54.8208Z" fill="#39B54A"/>
<path d="M24.8763 67.1592C24.8763 67.1592 23.6768 71.594 26.4394 73.5933C29.2021 75.5926 30.6561 79.991 30.6561 79.991L29.6019 81.2269L25.7124 81.9539L28.2933 84.0623C28.2933 84.0623 30.9105 83.2989 30.7651 80.3545C31.0196 78.1735 30.9832 77.4828 30.9832 77.4828C30.9832 77.4828 30.2199 74.7202 28.6931 73.1934C27.1664 71.6667 25.6033 69.6311 26.4758 66.9048C25.9668 67.0865 24.8763 67.1592 24.8763 67.1592Z" fill="#39B54A"/>
<path d="M88.2575 31.5811L87.167 32.4535C87.167 32.4535 88.1848 36.5974 90.3658 37.2518C92.5469 37.9061 94.8006 39.2874 94.8006 39.2874L94.5825 42.8498L92.6923 45.2489C92.6923 45.2489 93.9282 46.921 94.4371 46.8483C94.946 46.7756 96.3274 44.3765 96.3274 44.3765L97.8541 42.9225C97.8541 42.9225 96.909 38.5604 95.4549 37.1791C94.0009 35.8704 88.9845 35.2161 88.2575 31.5811Z" fill="#39B54A"/>
<path d="M70.7231 3.70033C70.7231 3.70033 69.8245 6.64037 71.1593 8.10603C72.4941 9.57169 73.7228 11.3049 73.4101 12.9116C73.083 14.1969 70.3567 15.8589 69.3389 15.4852C69.7431 17.0934 70.1924 16.9741 70.1924 16.9741C70.1924 16.9741 73.2705 16.6615 74.1997 14.37C75.0721 12.2122 74.4643 9.08459 73.967 8.22962C73.4698 7.37465 71.8252 5.69671 73.0801 3.39062C72.3025 3.54811 71.515 3.65159 70.7231 3.70033Z" fill="#29ABE2"/>
<path d="M22.3008 21.3927C22.4462 21.6108 24.5545 25.1005 27.8988 23.4284C30.6614 22.1924 32.6971 20.593 30.2979 16.8853C30.2383 19.9736 25.9707 22.4702 25.2815 22.4106L22.3008 21.3927Z" fill="#29ABE2"/>
<path d="M52.9969 63.6426L51.3975 64.8058C51.3975 64.8058 51.5429 67.3503 53.7966 67.1322C53.942 66.1871 52.9969 63.6426 52.9969 63.6426Z" fill="#29ABE2"/>
<path d="M88.7664 64.66C88.7664 64.66 88.621 66.4776 90.9475 67.2046C93.0558 68.077 93.7828 72.221 93.7828 72.221L95.455 68.3678C95.455 68.3678 92.765 65.896 92.5469 65.8233C92.3288 65.7506 90.2932 64.2965 90.4386 62.479C89.5662 63.206 88.7664 64.66 88.7664 64.66Z" fill="#29ABE2"/>
<path d="M117.193 48.884L118.647 53.6096L120.247 52.2283L119.084 47.2119L117.193 48.884Z" fill="#29ABE2"/>
<path d="M105.851 31.5812C105.851 31.5812 105.414 34.6346 108.032 35.6524C110.649 36.8156 111.376 37.5427 111.376 37.5427C111.376 37.5427 112.103 40.6688 109.558 42.7771L111.449 44.0858C111.449 44.0858 114.066 41.9774 113.775 38.9967C113.484 36.0159 109.922 32.7444 109.922 32.7444L108.468 29.6909L105.851 31.5812Z" fill="#F95555"/>
<path d="M59.4677 11.8062C59.4677 11.8062 58.8134 13.9872 59.7585 14.7869C60.5582 15.1504 62.0486 14.1689 61.9032 13.4419C61.3943 12.7149 59.4677 11.8062 59.4677 11.8062Z" fill="#F95555"/>
<path d="M102.083 53.0903L100.702 54.4353L100.884 58.4702L104.41 56.8344L102.083 53.0903Z" fill="#F95555"/>
<path d="M30.182 36.5347L26.9831 37.6252C26.9831 37.6252 25.4564 41.1875 28.5825 41.4057C30.4728 41.2603 30.8363 40.5332 30.8363 40.5332L30.182 36.5347Z" fill="#F95555"/>
<path d="M59.7581 39.2146C59.8715 39.014 62.0845 38.9238 62.0845 38.9238C62.0845 38.9238 60.1943 42.3408 61.3575 44.0129C60.1943 44.3037 57.0681 44.0129 59.7581 39.2146Z" fill="#F95555"/>
<path d="M45.4613 71.507C44.8702 71.4964 44.2833 71.4059 43.7165 71.238L43.1494 71.081L43.5435 70.6448C45.6605 68.298 44.9859 62.2231 43.8343 59.9548C42.4413 57.2198 46.3163 54.6941 46.482 54.588L46.7729 54.4033L46.975 54.6781C47.3885 55.2926 47.7017 55.9689 47.9026 56.6818L47.9593 56.8766L47.8256 57.022C45.6445 59.4619 46.4064 61.3957 47.2919 63.6349C47.6613 64.567 48.0422 65.5252 48.2036 66.5619C48.5308 68.6411 48.2545 70.0893 47.3835 70.8658C46.8979 71.2947 46.2581 71.507 45.4613 71.507ZM44.4435 70.6681C45.5573 70.8963 46.3774 70.7829 46.8877 70.3278C47.5624 69.7258 47.7601 68.4986 47.4693 66.6797C47.3239 65.7287 46.9546 64.8025 46.5969 63.9068C45.7245 61.6924 44.8157 59.3994 47.1276 56.6978C46.9839 56.25 46.7933 55.8187 46.5591 55.411C45.7376 56.0217 43.5667 57.8581 44.4668 59.6276C45.6489 61.9235 46.437 67.7556 44.4435 70.6681Z" fill="#26095B"/>
<path d="M50.159 85.2275L48.1045 81.7058L48.311 81.5081C49.7737 80.0977 49.9104 80.0977 50.066 80.0977H50.2114L50.316 80.198C51.1419 80.9875 52.5058 82.2816 52.6527 82.395C52.6992 82.4284 52.7376 82.4719 52.7648 82.5223C52.792 82.5727 52.8074 82.6286 52.8097 82.6858C52.8199 82.8865 52.8272 83.0595 50.4833 84.9599L50.159 85.2275ZM49.022 81.8338L50.3582 84.1268C50.9965 83.6004 51.6436 83.0406 51.9576 82.7411C51.5127 82.3354 50.6679 81.5313 50.0325 80.925C49.7941 81.1155 49.3957 81.4775 49.022 81.8338ZM52.199 82.9621C52.2121 82.9737 52.2252 82.9824 52.2383 82.9926L52.199 82.9621Z" fill="#26095B"/>
<path d="M28.4877 41.8318C28.1995 41.8432 27.912 41.796 27.6425 41.693C27.3731 41.59 27.1274 41.4334 26.9203 41.2327L26.8868 41.2008L26.865 41.1615C25.7018 39.2087 26.7196 37.381 26.7647 37.3054L26.8388 37.1746L30.5917 36.1567L31.1515 40.9783L30.9479 41.099C30.8752 41.1324 29.6829 41.8318 28.4877 41.8318ZM27.4699 40.7485C28.2914 41.5148 29.8254 40.8561 30.3779 40.5784L29.9708 37.0757L27.3361 37.794C27.1228 38.2607 27.0233 38.7713 27.0458 39.2839C27.0683 39.7966 27.2122 40.2965 27.4655 40.7427L27.4699 40.7485Z" fill="#26095B"/>
<path d="M25.9468 24.0927C22.8003 24.0927 21.9613 21.4231 21.9526 21.3955L21.6211 20.2875L22.5269 21.0058C23.2152 21.4806 23.9844 21.8255 24.7967 22.0236C24.9537 21.9931 25.5033 21.8389 26.8541 21.0858C29.5848 19.2362 29.9352 16.8691 29.9381 16.8386L30.0602 15.9429L30.5924 16.6699C30.7582 16.8967 32.1919 18.928 31.7745 20.3486C31.5317 21.1657 30.6361 22.1457 29.4365 22.9047C28.4523 23.5413 27.3349 23.9433 26.1707 24.0796H26.1489C26.0806 24.0927 26.0137 24.0927 25.9468 24.0927ZM23.3165 22.2897C23.8327 22.8524 24.7022 23.4122 26.1126 23.3628C26.6185 23.3096 27.1157 23.1933 27.5928 23.0167C26.1285 23.1297 24.6591 22.8774 23.3165 22.2824V22.2897ZM26.1678 22.2708C27.3273 22.3704 28.495 22.247 29.608 21.9073C30.3612 21.3257 30.9254 20.6655 31.0766 20.1523C31.27 19.4965 30.8382 18.4961 30.4339 17.7822C30.0893 18.7419 29.2475 20.3515 27.2482 21.7008L27.222 21.7168C26.8091 21.9407 26.4615 22.1225 26.1678 22.2635V22.2708Z" fill="#26095B"/>
<path d="M16.8239 58.6446L15.5342 54.0455L15.6229 53.9001C18.1674 49.9655 18.166 49.9742 18.5077 50.076L18.7723 50.1604L18.7636 50.4424C18.6938 52.0622 19.9268 55.5781 19.9428 55.613L20.0242 55.8456L16.8239 58.6446ZM16.3223 54.1618L17.2136 57.3389L19.1765 55.6246C18.9482 54.9528 18.3128 52.9913 18.102 51.4559C17.641 52.1407 16.962 53.1731 16.3223 54.1618Z" fill="#26095B"/>
<path d="M28.0705 84.5918L24.1562 81.0905L25.4125 81.3115C25.4402 81.3115 28.306 81.8059 29.7746 80.5598C30.012 80.3586 30.2059 80.1113 30.3446 79.8328C30.0262 77.5572 28.1737 75.5943 26.1657 73.7986C23.2577 71.1973 24.5183 67.2889 24.5663 67.1231L24.6361 66.9138L27.0061 66.5444L26.9029 67.0562C26.9029 67.081 26.4027 69.6197 27.4293 71.1435C27.7454 71.5856 28.0851 72.0103 28.4471 72.4158C29.6757 73.848 31.2097 75.6321 31.3464 78.3773C31.3639 78.9095 31.2754 79.4398 31.0861 79.9375C31.1218 80.3069 31.1218 80.6789 31.0861 81.0483C30.8491 83.4984 28.3787 84.4755 28.2741 84.5162L28.0705 84.5918ZM26.4129 82.1287L28.2144 83.7426C28.7481 83.478 30.1977 82.6158 30.3664 80.9945C30.3257 81.0333 30.2835 81.0711 30.2399 81.1079C29.1465 82.0385 27.502 82.1665 26.4129 82.1287ZM25.2002 67.5564C24.9981 68.3576 24.4543 71.2889 26.6455 73.2504C28.2842 74.7161 29.824 76.2966 30.5976 78.0923C30.3722 75.7659 28.9982 74.1752 27.8975 72.8825C27.5171 72.4559 27.1603 72.0089 26.8287 71.5434C25.9258 70.2028 26.0101 68.3111 26.1163 67.4139L25.2002 67.5564Z" fill="#26095B"/>
<path d="M53.4287 67.5435C52.9637 67.5504 52.506 67.4276 52.107 67.1887C51.396 66.7525 50.9438 65.9528 50.7722 64.8129C50.7344 64.5686 50.7068 64.3912 52.8427 63.1814L53.2353 62.9575L54.589 67.3196L54.2488 67.4301C53.9824 67.5079 53.7061 67.5461 53.4287 67.5435ZM51.5181 64.8623C51.6722 65.6911 51.995 66.264 52.4821 66.565C52.8408 66.7723 53.2577 66.8561 53.6686 66.8034L52.8093 64.0408C52.3653 64.2925 51.9343 64.5667 51.5181 64.8623Z" fill="#26095B"/>
<path d="M62.0219 44.5944L61.3415 44.5653C60.296 44.5202 59.0267 44.3472 58.5017 43.4021C58.0001 42.502 58.2837 41.1585 59.3931 39.1752L59.4716 39.0298L62.6705 38.3115L62.4262 38.9455C61.8446 40.4373 61.1379 43.1302 61.6701 44.0069L62.0219 44.5944ZM59.9485 39.6739C59.063 41.2923 58.7853 42.4279 59.1372 43.0516C59.3684 43.466 59.8976 43.7031 60.8253 43.8005C60.549 42.4846 61.1583 40.3879 61.5189 39.3221L59.9485 39.6739Z" fill="#26095B"/>
<path d="M82.4208 52.244L79.4502 47.3207L82.4193 43.8311L85.1282 48.3182L82.4208 52.244ZM80.343 47.3934L82.4615 50.9034L84.263 48.2862L82.319 45.067L80.343 47.3934Z" fill="#26095B"/>
<path d="M76.3608 37.0133L73.4004 32.8358L76.2547 31.3135L78.3892 34.9849L76.3608 37.0133ZM74.4706 33.0874L76.4553 35.8893L77.4731 34.8642L75.9726 32.2833L74.4706 33.0874Z" fill="#26095B"/>
<path d="M69.782 17.3342L68.2451 14.9845L69.0855 15.1445C69.2106 15.1663 72.1797 15.6694 73.1917 12.0808C73.1919 12.0774 73.1919 12.0741 73.1917 12.0707C73.0439 11.0713 72.5826 10.1447 71.8744 9.42434C69.1422 6.87979 70.3738 3.60096 70.3869 3.56752L70.4712 3.34796L73.6701 3.19238L73.308 3.77399C73.0321 4.26636 72.9135 4.83145 72.9684 5.39321C73.0232 5.95497 73.2488 6.48646 73.6148 6.91614C74.6893 8.21168 75.5763 11.7217 74.5222 14.2706C74.3079 14.7972 74.0005 15.2808 73.6148 15.6985L73.5785 15.8279L73.5101 15.8075C72.7831 16.5345 71.681 17.1496 70.003 17.3081L69.782 17.3342ZM69.7093 15.8947L70.1455 16.5665C71.332 16.4211 72.2699 16.0111 72.9518 15.3437C73.0729 14.8529 73.1607 14.3545 73.215 13.8518C72.8504 14.4604 72.3378 14.9669 71.7248 15.3241C71.1119 15.6813 70.4186 15.8776 69.7093 15.8947ZM70.9903 4.05026C70.743 4.907 70.7416 5.81606 70.9864 6.67355C71.2311 7.53104 71.7122 8.30238 72.3746 8.89943C73.1968 9.72844 73.7331 10.7981 73.9056 11.9529C73.9968 12.5299 74.0168 13.1159 73.9653 13.6977C74.733 11.3887 73.846 8.35708 73.0521 7.39888C72.6594 6.93571 72.3944 6.37808 72.2832 5.78111C72.1721 5.18414 72.2185 4.56849 72.4182 3.995L70.9903 4.05026Z" fill="#26095B"/>
<path d="M95.9157 45.2971C95.8491 45.297 95.7838 45.2789 95.7266 45.2448C95.6558 45.2 95.6027 45.1321 95.5762 45.0526C95.5497 44.9731 95.5515 44.8869 95.5812 44.8086C95.8345 44.1767 95.9575 43.5001 95.9427 42.8194C95.928 42.1388 95.7759 41.4682 95.4955 40.8478C94.9139 39.6032 93.8015 38.6755 92.285 38.1666C86.8891 36.9946 86.9283 32.3287 86.9298 32.2822C86.9308 32.1885 86.969 32.099 87.0359 32.0335C87.0359 32.0335 87.4721 31.5973 88.2326 30.7394C88.2836 30.6818 88.3515 30.6418 88.4267 30.6252C88.5018 30.6087 88.5803 30.6164 88.6508 30.6472C88.7213 30.6781 88.7801 30.7306 88.8189 30.7971C88.8577 30.8635 88.8744 30.9406 88.8666 31.0171C88.615 33.5341 91.6539 34.9677 93.9629 35.8271C96.0887 36.6181 97.0469 39.2411 97.7434 41.1575L97.8583 41.4701C98.3817 42.8951 98.2523 43.1801 97.3537 44.0045C96.9433 44.3731 96.5549 44.7654 96.1905 45.1794C96.1557 45.2174 96.1132 45.2476 96.0658 45.2679C96.0184 45.2882 95.9672 45.2982 95.9157 45.2971ZM87.6539 32.429C87.6873 33.1662 88.0901 36.5148 92.4522 37.4541L92.4914 37.4643C94.2101 38.0372 95.4751 39.0986 96.1483 40.5323C96.6034 41.52 96.7635 42.6182 96.6092 43.6948L96.8593 43.4636C97.5747 42.8064 97.5747 42.8064 97.1719 41.7188L97.0571 41.4033C96.4057 39.6206 95.5144 37.1866 93.7026 36.5046C92.2486 35.9637 88.6208 34.6144 88.1657 31.8881C87.9302 32.1426 87.7571 32.3243 87.6539 32.429Z" fill="#26095B"/>
<path d="M94.3019 47.0312C93.8875 47.0312 93.1794 46.787 92.403 45.4565C92.3561 45.3761 92.3418 45.2807 92.3632 45.1901C92.3846 45.0994 92.4399 45.0205 92.5178 44.9694C95.6294 42.9236 94.2336 39.1882 94.2191 39.1533L94.8981 38.8916C94.9141 38.9323 96.4248 42.9789 93.2071 45.3751C93.8192 46.2999 94.2554 46.3144 94.3353 46.3086C94.6538 46.0614 95.3881 45.3998 95.5698 44.8255L96.2619 45.0436C95.9639 45.9931 94.7774 46.8858 94.728 46.9222C94.7104 46.9352 94.692 46.9468 94.6727 46.9571C94.556 47.0086 94.4294 47.0339 94.3019 47.0312Z" fill="#26095B"/>
<path d="M103.476 82.616H103.444C103.383 82.6111 103.325 82.5909 103.274 82.557C103.223 82.5232 103.181 82.4769 103.153 82.4226L101.554 79.3691C101.523 79.3117 101.509 79.2469 101.512 79.1819C101.516 79.1168 101.536 79.0539 101.573 78.9998L103.656 75.8489C103.69 75.798 103.736 75.7563 103.79 75.7278C103.844 75.6993 103.904 75.685 103.965 75.6861C104.026 75.6873 104.086 75.7038 104.139 75.734C104.192 75.7642 104.236 75.8072 104.269 75.8591C104.996 77.0223 105.84 78.3106 106.066 78.5389C106.138 78.575 106.197 78.6337 106.233 78.7061C106.354 78.9504 106.403 79.0522 103.761 82.4764C103.727 82.5196 103.684 82.5546 103.635 82.5788C103.585 82.603 103.531 82.6157 103.476 82.616ZM102.298 79.2208L103.534 81.5807C104.365 80.4931 105.182 79.3866 105.465 78.9431C105.204 78.6421 104.766 78.0169 103.952 76.7214L102.298 79.2208Z" fill="#26095B"/>
<path d="M113.171 41.9528C113.154 41.9543 113.138 41.9543 113.121 41.9528C113.043 41.9423 112.97 41.9067 112.914 41.8514C112.858 41.7961 112.822 41.724 112.81 41.646C112.759 41.297 112.723 40.9801 112.691 40.6994C112.534 39.3472 112.463 38.7292 111.304 37.8612C110.864 37.5638 110.402 37.3022 109.921 37.0789C108.031 36.1265 105.457 34.8223 105.537 31.5536C105.538 31.4984 105.551 31.444 105.577 31.3948C105.602 31.3457 105.638 31.303 105.682 31.2701L108.397 29.2824C108.453 29.2403 108.52 29.2151 108.589 29.21C108.659 29.2048 108.729 29.2199 108.79 29.2533C108.851 29.2868 108.902 29.3372 108.935 29.3986C108.969 29.46 108.984 29.5297 108.979 29.5994C108.979 29.6823 108.878 31.6758 110.693 33.2258C113.857 35.9259 114.802 38.7918 113.504 41.742C113.475 41.8056 113.428 41.8595 113.368 41.8969C113.309 41.9343 113.241 41.9538 113.171 41.9528ZM106.263 31.7426C106.29 34.4253 108.481 35.5333 110.249 36.4275C110.768 36.6699 111.267 36.9539 111.74 37.2767C112.848 38.1069 113.15 38.8456 113.306 39.7921C113.559 37.7332 112.538 35.7514 110.22 33.7725C109.161 32.8832 108.472 31.6304 108.288 30.2595L106.263 31.7426Z" fill="#26095B"/>
<path d="M111.401 44.4969C111.362 44.4971 111.323 44.4907 111.286 44.478C111.237 44.462 111.17 44.4402 109.217 43.1795C109.171 43.1497 109.131 43.1096 109.103 43.0623C109.074 43.015 109.056 42.9617 109.051 42.9066C109.046 42.8515 109.054 42.7959 109.074 42.7442C109.093 42.6925 109.124 42.6459 109.165 42.6081C111.587 40.3442 110.978 37.6644 110.95 37.5554L111.657 37.3823C111.688 37.5059 112.345 40.3224 109.991 42.8131C110.757 43.306 111.154 43.5561 111.358 43.6855C111.753 43.3046 112.666 42.2969 112.985 40.9054L113.694 41.0654C113.236 43.101 111.695 44.366 111.629 44.4184C111.564 44.4696 111.484 44.4972 111.401 44.4969Z" fill="#26095B"/>
<path d="M118.598 54.2886C118.556 54.2885 118.513 54.2812 118.473 54.2668C118.42 54.2473 118.372 54.2155 118.333 54.1741C118.295 54.1327 118.266 54.0827 118.251 54.0283L116.82 49.2547C116.802 49.1934 116.8 49.1283 116.815 49.0661C116.829 49.0038 116.86 48.9465 116.904 48.8999L118.794 46.9123C118.839 46.8663 118.895 46.8327 118.956 46.8149C119.018 46.797 119.083 46.7955 119.145 46.8105C119.207 46.8255 119.264 46.8566 119.31 46.9008C119.357 46.945 119.39 47.0006 119.408 47.0621C119.715 48.1177 120.705 51.6219 120.526 52.362C120.334 53.1864 119.052 54.0617 118.797 54.229C118.738 54.2678 118.669 54.2885 118.598 54.2886ZM117.58 49.2475L118.803 53.3318C119.266 52.9727 119.75 52.503 119.821 52.1933C119.901 51.8429 119.423 49.7927 118.885 47.8749L117.58 49.2475Z" fill="#26095B"/>
<path d="M109.899 68.125C109.842 68.125 109.787 68.1121 109.737 68.0872C109.687 68.0623 109.643 68.0261 109.609 67.9815C109.575 67.9369 109.552 67.885 109.541 67.8299C109.531 67.7749 109.533 67.7181 109.548 67.6641C109.864 66.5401 110.483 63.3776 109.567 62.2478C109.526 62.1957 109.498 62.1342 109.486 62.0688C109.474 62.0034 109.478 61.936 109.499 61.8727C109.616 61.4641 110.703 60.2195 111.814 59.8371C111.871 59.8166 111.934 59.8112 111.994 59.8214C112.055 59.8316 112.112 59.857 112.16 59.8952C112.208 59.9329 112.245 59.9822 112.269 60.0384C112.292 60.0946 112.301 60.1559 112.295 60.2166C112.122 61.928 112.683 65.5208 113.103 65.9978C113.138 66.037 113.163 66.0832 113.178 66.1331C113.193 66.183 113.197 66.2356 113.19 66.2873C113.183 66.3389 113.165 66.3885 113.137 66.4326C113.11 66.4767 113.073 66.5144 113.029 66.543C112.087 67.1748 111.078 67.699 110.019 68.1061C109.98 68.1192 109.94 68.1256 109.899 68.125ZM110.261 61.9687C111.117 63.3035 110.697 65.8945 110.422 67.1523C111.085 66.8486 111.728 66.5018 112.346 66.1141C111.862 65.0265 111.526 62.37 111.543 60.772C111.047 61.0909 110.613 61.4962 110.261 61.9687Z" fill="#26095B"/>
<path d="M93.5892 73.0688C93.5554 73.0688 93.5217 73.0644 93.4889 73.0557C93.4039 73.031 93.3308 72.9762 93.2832 72.9016C93.2355 72.827 93.2167 72.7376 93.2301 72.6501C93.2301 72.6268 93.5762 70.2698 92.4362 68.89C91.9346 68.2822 91.1901 67.7864 90.4689 67.308C89.4307 66.6188 88.4521 65.9674 88.4521 65.0484C88.4521 65.0201 88.455 64.9918 88.4609 64.9641C88.7799 63.8167 89.4389 62.7927 90.3511 62.027C90.403 61.9849 90.4655 61.9579 90.5317 61.949C90.5979 61.9401 90.6653 61.9497 90.7264 61.9766C90.7876 62.0035 90.8401 62.0467 90.8783 62.1015C90.9165 62.1563 90.9389 62.2206 90.9429 62.2872C91.0403 63.8779 91.1377 64.5613 92.5961 65.5195C94.245 66.6013 95.622 68.2095 95.6787 68.2822C95.7227 68.3338 95.7514 68.3967 95.7614 68.4638C95.7715 68.5309 95.7624 68.5995 95.7354 68.6617L93.9178 72.8551C93.8892 72.9184 93.8431 72.9722 93.7848 73.0101C93.7266 73.0479 93.6587 73.0683 93.5892 73.0688ZM89.1806 65.0964C89.2213 65.6126 90.024 66.1462 90.8717 66.7089C91.5987 67.1946 92.4275 67.7442 92.9974 68.4349C93.6125 69.1793 93.8699 70.123 93.9615 70.9401L94.9793 68.5875C94.5852 68.1513 93.4598 66.9619 92.2006 66.1346C90.7466 65.1822 90.4122 64.3301 90.2799 63.1073C89.7768 63.685 89.4021 64.363 89.1806 65.0964Z" fill="#26095B"/>
<path d="M100.653 58.8339C100.6 58.8336 100.548 58.8221 100.501 58.8C100.453 58.778 100.411 58.7459 100.377 58.706C100.343 58.6661 100.318 58.6194 100.303 58.5689C100.289 58.5185 100.285 58.4655 100.293 58.4136C100.474 57.281 100.631 55.257 100.293 54.6506C100.254 54.5815 100.239 54.5015 100.249 54.4228C100.26 54.344 100.296 54.2709 100.352 54.2144L101.926 52.615C101.966 52.5739 102.015 52.5427 102.069 52.5241C102.123 52.5055 102.181 52.5 102.238 52.5079C102.294 52.5158 102.348 52.537 102.395 52.5698C102.442 52.6026 102.481 52.6459 102.508 52.6964L104.737 56.7924C104.762 56.8375 104.776 56.8872 104.78 56.9384C104.784 56.9896 104.778 57.0411 104.76 57.0895C104.743 57.1378 104.716 57.182 104.68 57.219C104.644 57.256 104.601 57.2851 104.554 57.3042L100.796 58.8062C100.751 58.8252 100.702 58.8346 100.653 58.8339ZM101.035 54.5532C101.326 55.4256 101.204 57.0091 101.097 57.8975L103.895 56.7793L102.095 53.4743L101.035 54.5532Z" fill="#26095B"/>
<path d="M110.542 18.9846C105.983 18.9846 104.254 14.3012 104.237 14.2503C104.216 14.192 104.211 14.1293 104.221 14.0683C104.231 14.0072 104.257 13.9497 104.295 13.9013C104.333 13.8548 105.223 12.7527 106.995 11.5749C107.047 11.54 107.107 11.5191 107.169 11.5143C107.231 11.5094 107.294 11.5208 107.35 11.5473C107.407 11.5738 107.456 11.6145 107.492 11.6655C107.528 11.7164 107.551 11.7758 107.558 11.8381C107.891 14.8334 113.57 16.6029 113.627 16.6204C113.698 16.6416 113.761 16.6842 113.807 16.7424C113.853 16.8006 113.881 16.8715 113.885 16.9456C113.889 17.0198 113.871 17.0935 113.832 17.1567C113.793 17.22 113.736 17.2698 113.668 17.2994C113.636 17.3168 113.219 17.5364 111.645 18.8465C111.593 18.8906 111.529 18.9189 111.461 18.9279C111.156 18.9663 110.849 18.9852 110.542 18.9846ZM104.999 14.2052C105.378 15.1024 107.163 18.6924 111.263 18.2212C111.887 17.7036 112.362 17.3285 112.71 17.0726C111.183 16.504 107.684 14.9555 106.952 12.4924C106.243 12.9942 105.589 13.5682 104.999 14.2052Z" fill="#26095B"/>
<path d="M59.6133 15.2479C59.5505 15.2479 59.4888 15.2315 59.4342 15.2004C59.3797 15.1693 59.3341 15.1245 59.3021 15.0705C58.5562 13.8186 59.0215 11.8077 59.0418 11.7263C59.0533 11.6774 59.0749 11.6314 59.1052 11.5914C59.1355 11.5513 59.1739 11.518 59.2178 11.4936C59.2617 11.4693 59.3102 11.4541 59.3602 11.4491C59.4102 11.4441 59.4607 11.4494 59.5086 11.4645C59.9448 11.6099 62.1084 12.3675 62.2523 13.4595C62.4254 14.7768 60.5671 15.0938 59.6743 15.2465C59.654 15.2484 59.6336 15.2489 59.6133 15.2479ZM59.6773 12.2919C59.5987 12.8255 59.5217 13.7779 59.8154 14.4729C60.7009 14.3072 61.598 14.0469 61.5311 13.5438C61.4817 13.1759 60.5933 12.6467 59.6773 12.2919Z" fill="#26095B"/>
<path d="M63.1503 28.1639C63.0767 28.164 63.0049 28.1416 62.9444 28.0997C62.8839 28.0579 62.8375 27.9987 62.8115 27.9298L61.6003 24.7557C61.5819 24.7091 61.5735 24.6591 61.5755 24.6091C61.5775 24.559 61.5899 24.5099 61.6119 24.4649L63.5996 20.3456C63.6289 20.2837 63.6753 20.2314 63.7332 20.1948C63.7911 20.1581 63.8582 20.1387 63.9267 20.1387C63.9953 20.1387 64.0624 20.1581 64.1203 20.1948C64.1782 20.2314 64.2245 20.2837 64.2539 20.3456C64.5784 20.9732 64.9356 21.5832 65.3241 22.1734C65.3708 22.2468 65.3897 22.3347 65.3771 22.4209C65.3646 22.5071 65.3215 22.5859 65.2557 22.643C63.6984 24.0011 63.5109 27.7757 63.5109 27.8135C63.5073 27.8969 63.4752 27.9765 63.4199 28.039C63.3645 28.1015 63.2894 28.1431 63.207 28.1567C63.1883 28.1604 63.1693 28.1628 63.1503 28.1639ZM62.3346 24.6423L62.9569 26.2708C63.1605 25.032 63.6025 23.3264 64.5563 22.3173C64.2975 21.9044 64.0968 21.567 63.9485 21.2995L62.3346 24.6423Z" fill="#26095B"/>
<path d="M37.1732 49.1018C37.1732 49.1018 33.6356 48.3268 31.5505 52.5435C29.4189 56.7602 28.5945 60.4432 32.7632 62.6722C33.3448 62.963 34.3175 62.9456 35.235 63.6421C40.1627 67.3804 48.5626 76.2441 48.5626 76.2441L54.2828 80.4608L57.675 90.6389L60.1468 90.4441L61.6489 96.8418L58.8862 96.8913L58.9836 118.556C58.9836 118.556 61.358 120.156 64.1701 120.156C66.9822 120.156 70.5678 118.798 71.052 118.168C71.5362 117.538 74.2989 103.58 74.2989 103.58L80.4552 102.707L91.215 116.471C91.215 116.471 92.3288 117.005 94.0736 116.714C95.8185 116.423 101.635 112.934 102.652 111.237C103.234 110.123 102.943 108.571 102.943 108.571L94.171 85.7432L84.4291 91.5593L72.5061 95.5826L70.6158 88.0697C70.6158 88.0697 78.9518 86.6636 84.7199 82.8352C89.9544 79.6363 91.3604 77.6007 91.3604 77.6007L87.5305 67.4705L83.7021 64.0783C83.7021 64.0783 83.023 67.4705 81.6664 69.1194C80.3098 70.7682 78.0793 73.8202 70.0342 76.5829C61.8917 79.2481 55.7368 77.0671 53.5557 73.4814C52.3925 73.1412 47.4968 70.3306 44.8796 66.7435C43.9097 64.5625 42.069 55.8383 42.069 55.8383C42.069 55.8383 42.069 53.0757 41.1965 52.2032C40.3241 51.3308 38.4819 49.1498 37.2212 48.9084C35.9606 48.667 37.1732 49.1018 37.1732 49.1018Z" fill="white"/>
<path d="M53.8945 73.6752C53.8945 73.6752 54.3307 78.1827 64.6063 77.4077C74.2029 76.5353 81.6664 69.1197 81.6664 69.1197L83.2179 64.999L75.0259 71.3008C75.0259 71.3008 70.6158 73.8686 64.6063 74.4022C58.5474 74.9358 53.8945 73.6752 53.8945 73.6752Z" fill="#FFFF00"/>
<path d="M59.8075 90.3965L61.2615 96.358L58.256 96.5034L56.8994 91.2209L59.8075 90.3965Z" fill="#BEC2DC"/>
<path d="M70.9062 87.9723C70.7608 87.9563 72.6991 95.2918 72.6991 95.2918C72.6991 95.2918 80.7456 93.3522 84.0899 91.5594C87.4341 89.7666 94.268 87.0999 94.7043 84.0464C94.316 82.1562 92.183 77.5527 92.183 77.5527L89.5178 79.5389L82.7318 84.1918C82.7318 84.1918 72.2149 88.1177 70.9062 87.9723Z" fill="#BEC2DC"/>
<path d="M65.5263 89.5064C65.5263 89.5064 64.3994 90.5053 64.7077 91.3414C65.016 92.1775 65.8346 92.1586 66.5805 92.0132C67.3264 91.8678 67.4529 90.7598 67.4529 90.7598C67.4529 90.7598 66.992 89.2883 65.5263 89.5064Z" fill="#29ABE2"/>
<path d="M30.5328 53.8276C30.5328 53.8276 31.1507 58.117 32.5321 59.3166C33.877 60.3707 37.0395 56.5539 37.5484 56.1177C38.7117 56.1177 40.9291 54.4456 41.1108 52.7734C41.8378 54.3365 41.2199 56.2631 40.2747 57.1355C39.3296 58.0079 38.4209 61.1341 39.0025 62.6608C39.5841 64.1875 48.6354 73.4206 48.6354 73.4206L53.6154 77.819L53.5791 74.3294L60.7765 89.5603L58.959 90.5054L57.2505 90.5418L53.8335 80.1455L47.4358 75.0564C47.4358 75.0564 36.3852 64.4783 35.222 63.2424C32.5684 62.8426 28.17 61.025 30.5328 53.8276Z" fill="#CFD1D0"/>
<path d="M65.6244 97.521C65.8134 97.4817 63.1526 98.6362 62.9577 102.028C62.7629 105.421 62.4255 116.18 63.8796 117.393C65.3336 118.606 69.4529 119.283 69.4529 119.283C69.4529 119.283 59.5175 121.61 59.0319 117.732C58.5462 113.854 59.0813 96.794 59.0813 96.794L61.7945 96.6006C62.3216 97.0339 62.9402 97.3418 63.6036 97.5013C64.267 97.6607 64.958 97.6675 65.6244 97.521Z" fill="#CFD1D0"/>
<path d="M67.2715 100.914C67.2715 100.914 70.3729 104.162 76.141 103.628C80.2603 102.999 80.6965 102.804 80.6965 102.804L89.0819 113.952L92.3287 117.053C92.3287 117.053 101.925 116.666 102.895 110.269C99.5508 112.498 95.7704 113.516 92.5235 111.237C89.2767 108.959 82.3933 99.0728 82.3933 99.0728C82.3933 99.0728 76.916 102.126 67.2715 100.914Z" fill="#CFD1D0"/>
<path d="M61.2139 94.5158L71.0518 93.8382L71.9242 93.3525L72.7007 96.2606L71.1012 96.7942L61.7955 97.4238L61.2139 94.5158Z" fill="#CFD1D0"/>
<path d="M71.8271 92.7704C71.8271 92.7704 81.5691 90.8322 87.1438 87.0517C91.2151 84.2411 93.6375 81.333 93.6375 81.333L94.8982 84.289L92.3289 87.1971L84.5746 91.3658C84.5746 91.3658 72.8944 95.3396 72.6996 95.2917C72.5047 95.2437 71.8271 92.7704 71.8271 92.7704Z" fill="#A2A7BC"/>
<path d="M57.7227 94.5157L60.6801 94.1289C60.6801 94.1289 61.2617 96.6967 61.1643 96.5513C61.0669 96.4059 58.2563 96.5033 58.2563 96.5033L57.7227 94.5157Z" fill="#A2A7BC"/>
<path d="M32.314 51.8284C32.314 51.8284 35.0766 49.1748 36.0043 49.4656C36.9319 49.7564 38.7117 50.4471 39.9476 52.0465C39.0577 51.8822 31.4604 52.9 30.2783 55.209C31.2598 52.9 32.314 51.8284 32.314 51.8284Z" fill="#A2F9F4"/>
<path d="M61.5892 78.2681C55.443 78.2681 52.5655 73.7824 52.4434 73.5847L53.5513 72.8911C53.6633 73.067 56.3532 77.2139 62.1301 76.9464H62.181C65.8073 77.0598 70.9327 75.7061 74.94 73.5788C77.7667 72.0783 82.5577 68.8329 82.8819 63.9619L84.1906 64.0492C83.9187 68.1277 80.8463 71.9227 75.5565 74.7348C71.3093 76.99 66.0574 78.3699 62.1693 78.255C61.9687 78.2637 61.7767 78.2681 61.5892 78.2681Z" fill="#26095B"/>
<path d="M63.6448 120.64C59.3627 120.64 58.3288 118.382 58.2867 118.285L58.2285 118.153L58.6647 98.798C58.64 98.6395 58.5426 98.0579 58.2823 96.9456L59.556 96.6548C59.8832 98.0506 59.9646 98.6512 59.9675 98.6773L59.9748 98.7268L59.5386 117.866C59.7698 118.211 60.7425 119.338 63.636 119.338H63.7451C69.9974 119.278 70.3929 118.16 70.7404 117.173C70.7957 117.018 70.8509 116.858 70.9222 116.696C71.3351 115.532 72.9752 106.644 73.5758 103.3L74.864 103.532C74.6401 104.78 72.6583 115.769 72.145 117.165L72.129 117.205C72.0737 117.327 72.0258 117.463 71.9749 117.607C71.3816 119.29 70.4002 120.582 63.7582 120.646L63.6448 120.64Z" fill="#26095B"/>
<path d="M56.8027 90.978C55.2527 85.5269 52.6224 77.9659 52.5947 77.8918L53.8306 77.4556C53.8568 77.5312 56.5017 85.1285 58.0618 90.616L56.8027 90.978Z" fill="#26095B"/>
<path d="M34.6417 63.8225C34.4314 63.8227 34.2215 63.8071 34.0135 63.776C32.4912 63.5506 31.0372 62.5444 30.124 61.0802L30.1008 61.0424C28.1087 57.2997 29.1237 54.38 30.3261 52.5901C31.1163 51.4331 32.1285 50.4446 33.304 49.6821C34.1415 48.7297 35.1244 48.2688 36.2266 48.3124C38.8176 48.4127 41.1092 51.315 41.7519 52.2034C42.982 53.906 42.015 56.4622 40.3778 57.6894C39.8107 58.1154 39.4778 58.8962 39.0924 59.8021C38.6562 60.8374 38.1517 62.0122 37.1455 62.8934C36.4529 63.4994 35.5619 63.83 34.6417 63.8225ZM31.2451 60.407C31.959 61.5382 33.0641 62.3132 34.204 62.4819C34.5708 62.5466 34.9475 62.5291 35.3067 62.4308C35.666 62.3325 35.999 62.1558 36.2818 61.9134C37.0641 61.23 37.4828 60.2456 37.8812 59.2961C38.3015 58.3088 38.7362 57.2866 39.5854 56.6498C40.8373 55.7119 41.3709 53.9264 40.6832 52.9755C39.5955 51.4705 37.7606 49.6894 36.1757 49.6312C35.4487 49.6021 34.8191 49.922 34.2316 50.6214L34.1589 50.7072L34.0615 50.7639C33.81 50.9049 28.052 54.38 31.2451 60.407Z" fill="#26095B"/>
<path d="M53.9049 81.3885C53.8439 81.3405 47.6526 76.5276 43.2498 72.4855C38.8471 68.4433 34.8034 63.7511 34.7627 63.7046L35.7558 62.8525C35.795 62.8976 39.7805 67.5243 44.1353 71.52C48.4901 75.5156 54.6465 80.3081 54.7076 80.3561L53.9049 81.3885Z" fill="#26095B"/>
<path d="M37.3663 65.1791L36.2031 64.5771C36.3005 64.3925 38.5921 60.0071 41.7997 58.4033L42.3813 59.5753C39.5619 60.9857 37.3882 65.1369 37.3663 65.1791Z" fill="#26095B"/>
<path d="M92.4914 117.587H92.474C92.1992 117.587 91.1523 117.413 89.217 115.18C87.2628 112.925 84.0756 108.492 80.993 104.201L80.3009 103.237C74.2682 105.156 69.8726 103.365 69.6865 103.286L70.1925 102.079C70.2347 102.097 74.5662 103.84 80.3401 101.847L80.8011 101.687L82.0588 103.432C85.1239 107.696 88.2937 112.106 90.2086 114.316C91.5914 115.916 92.3417 116.217 92.5031 116.266H92.4435H92.4914H92.5089C93.2097 116.21 99.3588 115.57 102.196 110.559C102.247 110.026 102.191 109.488 102.031 108.977C100.441 103.901 95.0796 89.8364 93.4744 85.6459L94.6958 85.1777C96.3054 89.377 101.675 103.474 103.275 108.588C103.541 109.438 103.6 110.545 103.407 111.059L103.366 111.144C100.031 117.134 92.8099 117.571 92.5045 117.585L92.4914 117.587Z" fill="#26095B"/>
<path d="M90.6809 77.8914C90.1168 76.2789 89.5177 74.5472 88.8852 72.734C86.2258 65.5802 83.3265 64.2628 83.2988 64.2512L83.7801 63.0356C83.9255 63.0894 87.2102 64.4679 90.1139 72.2847V72.2992C90.742 74.1095 91.3469 75.8456 91.9125 77.4581L90.6809 77.8914Z" fill="#26095B"/>
<path d="M61.6821 98.094C61.534 98.0938 61.3904 98.0433 61.2747 97.9508C61.1591 97.8584 61.0781 97.7295 61.0452 97.5851L59.2742 89.8308C59.2363 89.6643 59.2647 89.4897 59.3535 89.3439C59.4423 89.1981 59.5844 89.0926 59.7497 89.05L69.102 86.6624C69.1553 86.6492 69.2099 86.6423 69.2648 86.6421H70.4775C70.6255 86.6426 70.769 86.6932 70.8846 86.7856C71.0002 86.878 71.0812 87.0067 71.1144 87.151L73.1253 95.9726C73.1563 96.1055 73.145 96.2449 73.0928 96.3711C73.0407 96.4973 72.9503 96.604 72.8345 96.6763L71.8792 97.2579C71.7908 97.3113 71.6913 97.3437 71.5884 97.3524L61.7388 98.0896L61.6821 98.094ZM60.6919 90.1608L62.1954 96.7447L71.3252 96.0613L71.744 95.8054L69.9541 87.9536H69.3463L60.6919 90.1608Z" fill="#26095B"/>
<path d="M66.3768 97.105L64.9373 93.8233L63.0936 93.6604C62.9779 93.6503 62.8669 93.6096 62.772 93.5424C62.6772 93.4752 62.602 93.3839 62.5542 93.278L60.9111 89.643L62.1034 89.1035L63.5894 92.3925L65.4375 92.5554C65.5544 92.5655 65.6665 92.6069 65.7619 92.6752C65.8573 92.7435 65.9326 92.8362 65.9799 92.9436L67.5793 96.5787L66.3768 97.105Z" fill="#26095B"/>
<path d="M65.963 92.4553C65.5323 92.4553 65.1191 92.2842 64.8145 91.9796C64.51 91.675 64.3389 91.2619 64.3389 90.8312C64.3389 90.4004 64.51 89.9873 64.8145 89.6827C65.1191 89.3781 65.5323 89.207 65.963 89.207C66.3938 89.207 66.8069 89.3781 67.1115 89.6827C67.416 89.9873 67.5871 90.4004 67.5871 90.8312C67.5871 91.2619 67.416 91.675 67.1115 91.9796C66.8069 92.2842 66.3938 92.4553 65.963 92.4553ZM65.963 89.6432C65.6479 89.6432 65.3458 89.7684 65.123 89.9912C64.9002 90.214 64.7751 90.5161 64.7751 90.8312C64.7751 91.1462 64.9002 91.4484 65.123 91.6712C65.3458 91.894 65.6479 92.0191 65.963 92.0191C66.2777 92.0187 66.5794 91.8937 66.802 91.6713C67.0247 91.4489 67.1502 91.1473 67.1509 90.8326C67.1509 90.5177 67.026 90.2156 66.8036 89.9926C66.5812 89.7697 66.2794 89.644 65.9645 89.6432H65.963Z" fill="#26095B"/>
<path d="M72.6917 96.0496L72.4154 94.9213C72.4866 94.9038 79.562 93.1503 86.2577 89.8744C89.0766 88.5404 91.6725 86.7792 93.9539 84.653C94.0702 84.5323 94.2011 84.3054 94.1822 84.2168C94.0949 83.8445 92.7441 80.2662 91.8557 77.9644C91.8456 77.9775 91.831 77.9921 91.8165 78.0124L91.7903 78.0459C89.7241 80.7402 85.8811 83.3225 80.6757 85.5123H80.6583C72.8182 88.5134 70.9279 88.6937 70.8523 88.6995L70.7578 87.5363C70.8262 87.529 72.6757 87.3167 80.2322 84.4261C85.1759 82.344 88.9564 79.8227 90.867 77.3261L90.8946 77.2912C90.9923 77.1388 91.1243 77.0113 91.2799 76.9189C91.4356 76.8265 91.6107 76.7716 91.7913 76.7588C91.9719 76.7459 92.153 76.7754 92.3202 76.8449C92.4874 76.9143 92.636 77.0219 92.7543 77.1589C92.8034 77.2117 92.8419 77.2734 92.8677 77.3407C93.4174 78.7729 95.2189 83.4839 95.3177 83.9783C95.4719 84.746 94.8437 85.4018 94.771 85.473C94.6416 85.6024 91.5417 88.6719 86.755 90.9198C79.9574 94.2524 72.7644 96.0322 72.6917 96.0496Z" fill="#26095B"/>
<path d="M58.7197 97.329C58.3573 97.3264 58.0072 97.1971 57.7301 96.9633C57.4531 96.7296 57.2667 96.4063 57.2032 96.0494C57.1232 95.7586 56.418 93.1414 56.1388 91.9781V91.9534C56.005 91.2642 56.0966 90.748 56.4078 90.418C56.5053 90.3136 56.6236 90.231 56.7551 90.1754C56.8866 90.1198 57.0284 90.0924 57.1712 90.0952L59.643 89.7637L59.7972 90.9167L57.2671 91.2686H57.2453C57.2286 91.4232 57.2384 91.5796 57.2744 91.731C57.5652 92.9276 58.3242 95.7441 58.3329 95.7717C58.3417 95.7993 58.3417 95.8095 58.3446 95.8284C58.3545 95.9278 58.4033 96.0192 58.4804 96.0827C58.5575 96.1461 58.6566 96.1765 58.756 96.1672C59.6285 96.1192 61.1305 96.0712 61.145 96.0698L61.1828 97.233C61.1683 97.233 59.6764 97.281 58.8215 97.329H58.7197Z" fill="#26095B"/>
<path d="M89.4178 113.426C88.8809 113.437 88.3445 113.389 87.8184 113.281L88.1266 112.009C88.1571 112.018 91.247 112.707 95.5232 110.466C99.7995 108.225 100.791 105.28 100.8 105.25L102.047 105.646C102.002 105.791 100.893 109.136 96.1296 111.626C93.2666 113.12 90.8878 113.426 89.4178 113.426Z" fill="#26095B"/>
<path d="M65.1618 116.044C60.6384 116.044 58.5213 114.008 58.4297 113.924L59.3443 112.989C59.3646 113.008 61.3639 114.879 65.6533 114.734C69.9747 114.588 72.1848 112.417 72.2066 112.396L73.1386 113.314C73.0354 113.419 70.5723 115.872 65.6984 116.041C65.5166 116.041 65.3378 116.044 65.1618 116.044Z" fill="#26095B"/>
<path d="M63.106 88.9551C61.0325 85.006 60.4393 78.1386 60.416 77.8493L61.7246 77.7402C61.7246 77.8086 62.3193 84.6338 64.2692 88.3473L63.106 88.9551Z" fill="#26095B"/>
<path d="M57.4861 35.3744C57.4861 35.3744 46.2451 38.8859 43.1407 49.2618C40.6369 58.4556 42.3657 60.6453 42.3657 60.6453C42.3657 60.6453 39.9331 63.2931 40.2835 64.9158C41.5304 64.7123 42.7629 64.4296 43.9739 64.0696L43.036 66.793L44.7154 66.7682C44.7154 66.7682 51.0288 76.3081 62.1536 74.8366C71.2877 73.9162 80.2329 69.592 83.5452 63.4952C85.0312 63.9096 85.29 63.8646 85.29 63.8646L84.3987 59.9111L88.6503 61.1223C88.6503 61.1223 88.5383 57.778 86.2773 56.0128C86.872 52.4737 86.8749 48.6351 83.1395 43.831C79.4041 39.0269 72.8057 34.7913 68.4393 34.4758C67.942 33.5525 67.5669 33.3489 67.5669 33.3489L62.187 29.9102C62.187 29.9102 61.0238 32.1334 61.6999 33.2951C60.4349 33.3809 57.3378 29.9509 57.3378 29.9509C57.3378 29.9509 56.7693 34.3551 57.4861 35.3744Z" fill="white"/>
<path d="M68.2002 34.2449C68.2002 34.2449 74.6081 20.7996 82.3217 15.2103C88.1582 9.68501 93.5511 3.14189 97.4247 3.34545C99.8383 3.66534 98.4788 11.3121 98.0063 13.2125C97.5337 15.1129 95.8819 24.9668 92.9172 30.3351C89.9524 35.7033 85.8623 42.0065 83.6405 43.9433C82.2228 42.0342 74.6721 34.6637 68.2002 34.2449Z" fill="white"/>
<path d="M64.0403 30.8627C64.0403 30.8627 60.4518 21.1207 58.2679 17.8608C56.0839 14.6009 51.8324 8.00542 51.8324 8.00542C51.8324 8.00542 47.7611 2.4525 46.6386 2.17769C45.5161 1.90288 43.793 2.46849 43.162 9.65429C42.5309 16.8401 42.0569 27.629 45.1453 34.902C47.5226 40.4142 47.8701 41.6341 47.8701 41.6341C47.8701 41.6341 53.4143 36.3546 57.7255 35.1986C56.8822 33.4538 57.346 29.9438 57.346 29.9438C57.346 29.9438 59.8295 33.7533 61.7081 33.288C61.2588 31.4807 62.0149 29.2604 62.0149 29.2604L64.0403 30.8627Z" fill="white"/>
<path d="M50.7186 39.0489C50.7186 39.0489 45.7458 27.9271 46.0134 18.6533C46.3042 11.059 46.3856 7.67689 48.7236 9.49297C51.0719 11.373 59.0967 24.9245 60.036 32.2368C59.0309 31.6103 58.1244 30.838 57.346 29.9453C57.346 29.9453 56.6437 33.6371 57.836 35.4502C56.3442 35.7759 50.7186 39.0489 50.7186 39.0489Z" fill="#FF8080"/>
<path d="M72.4648 35.5212C72.4648 35.5212 79.101 23.383 84.5652 17.6469C89.5438 12.6014 94.1255 8.36731 93.9044 13.6585C93.6834 18.9497 89.0378 33.2326 81.2297 41.333C77.8636 38.2824 72.4648 35.5212 72.4648 35.5212Z" fill="#FF8080"/>
<path d="M57.6922 63.5595C57.3927 63.404 59.5475 57.9819 65.3462 58.7889C64.2513 62.549 62.1386 65.8816 57.6922 63.5595Z" fill="#FF8080"/>
<path d="M55.1113 58.4195L57.4901 62.7816C57.4901 62.7816 60.3545 57.9702 65.6734 58.7263C65.6734 56.8361 65.528 56.3271 65.528 56.3271C65.528 56.3271 61.5512 59.7834 58.9063 57.7521C57.5672 58.5969 55.1113 58.4195 55.1113 58.4195Z" fill="#C66666"/>
<path d="M43.1345 49.5093C43.1345 49.5093 41.9494 57.1255 43.9705 59.9608C43.2978 60.1803 42.6572 60.4884 42.0658 60.8769C42.0658 60.8769 41.5423 51.9433 43.1345 49.5093Z" fill="#CFD1D0"/>
<path d="M40.3584 64.4537L46.253 61.1792C46.253 61.1792 45.1916 63.0694 43.9731 64.0698C42.8928 64.8186 40.3584 64.4537 40.3584 64.4537Z" fill="#CFD1D0"/>
<path d="M43.1094 66.578C43.2969 66.3657 47.5165 63.7877 47.5165 63.7877C47.5165 63.7877 47.4686 65.0527 46.7895 65.8001C47.7928 67.6903 51.265 71.8881 58.6195 73.1196C65.3182 74.1942 76.2132 69.7332 79.3597 66.6681C81.8141 64.2646 82.5106 63.1101 82.5106 63.1101C82.5106 63.1101 79.7246 62.0705 80.267 58.748C81.042 60.3635 85.2907 63.8662 85.2907 63.8662L83.4339 64.032C83.4339 64.032 77.7995 72.65 65.9376 74.4065C55.1415 75.843 47.0847 71.0971 44.9633 66.6638C44.4587 67.1058 43.1094 66.578 43.1094 66.578Z" fill="#CFD1D0"/>
<path d="M82.9527 56.1177L88.4663 60.9479C88.4663 60.9479 79.9385 59.4256 82.9527 56.1177Z" fill="#CFD1D0"/>
<path d="M78.9561 39.3934C78.9561 39.3934 85.8379 48.2063 85.4061 55.5098C86.5693 56.4753 86.8281 56.9638 86.8281 56.9638C86.8281 56.9638 86.7816 49.3608 85.2069 46.6504C83.7267 44.0797 83.6336 43.9387 83.6336 43.9387C83.6336 43.9387 94.9227 30.5398 96.7969 18.8975C94.7802 22.5325 91.6148 23.1694 91.6148 23.1694C91.6148 23.1694 85.9979 37.8056 81.2301 41.3331C80.5219 40.6303 79.7617 39.9819 78.9561 39.3934Z" fill="#F5A5F9"/>
<path d="M55.418 13.3735L55.8542 20.5259L60.3122 32.6801L61.3519 32.7223C61.3519 32.7223 62.1719 34.3304 65.5031 34.3784C63.7757 32.9738 61.9873 31.2202 62.121 29.6703C63.642 30.6619 63.9807 30.2882 63.9807 30.2882L59.4282 19.9021L55.418 13.3735Z" fill="#A2F9F4"/>
<path d="M57.4766 30.3027C57.4766 30.3027 57.5697 34.9556 62.2749 36.1552C61.3153 37.0858 57.2047 37.7139 57.135 33.4609C56.9474 30.3449 57.4766 30.3027 57.4766 30.3027Z" fill="#A2F9F4"/>
<path d="M53.4 15.7017C53.4 15.7017 58.6694 31.2161 50.7188 39.0489C56.0986 36.0217 57.4698 35.1522 57.4698 35.1522C57.4698 35.1522 56.7515 31.552 57.48 29.8072C59.488 31.7919 60.0972 31.9548 60.0972 31.9548C60.0972 31.9548 55.0576 17.2095 53.4 15.7017Z" fill="#A2F9F4"/>
<path d="M72.4648 35.5216C72.4648 35.5216 84.4184 33.9047 90.7725 25.2969C88.6656 31.2322 83.7932 39.0447 81.0785 41.2693C78.8015 39.2861 72.4648 35.5216 72.4648 35.5216Z" fill="#F5A5F9"/>
<path d="M60.8224 50.5037L56.7133 51.0562C56.7133 51.0562 55.4207 51.1594 55.0645 52.692C54.9714 53.4074 55.0994 54.0457 55.854 54.7727C56.5432 55.3979 57.8766 56.0915 59.2215 55.8748C60.2713 55.7164 60.7861 55.3499 61.5116 54.857C62.1267 54.4601 62.5294 53.7738 62.749 53.1762C62.9686 52.5786 62.6676 51.2423 62.1776 50.857C61.9907 50.7036 61.7727 50.5926 61.5388 50.5316C61.3048 50.4706 61.0604 50.4611 60.8224 50.5037Z" fill="#26095B"/>
<path d="M57.6451 52.3534C58.5516 52.1769 59.2398 51.7948 59.1824 51.5C59.125 51.2052 58.3437 51.1093 57.4372 51.2858C56.5307 51.4624 55.8424 51.8444 55.8998 52.1392C55.9573 52.434 56.7386 52.5299 57.6451 52.3534Z" fill="white"/>
<path d="M72.4448 53.2628C74.0478 53.2155 75.3327 52.6852 75.3148 52.0784C75.2969 51.4715 73.9829 51.0179 72.38 51.0652C70.777 51.1125 69.4921 51.6428 69.51 52.2496C69.5279 52.8565 70.8418 53.3101 72.4448 53.2628Z" fill="#FF8080"/>
<path d="M72.5862 40.9947C72.4 40.3648 72.084 39.7808 71.6585 39.2804C71.2342 38.7532 70.7036 38.3212 70.1013 38.0125C69.4755 37.6833 68.7713 37.5324 68.0656 37.5763C67.3815 37.6227 66.7278 37.8763 66.1914 38.3033C66.1472 38.337 66.1157 38.3847 66.1022 38.4386C66.0886 38.4926 66.0937 38.5495 66.1167 38.6001C66.1396 38.6507 66.179 38.6921 66.2285 38.7174C66.278 38.7427 66.3346 38.7505 66.3891 38.7395C66.9343 38.6188 67.4946 38.5811 68.0511 38.6276C68.313 38.6528 68.5714 38.7064 68.8217 38.7875C69.0734 38.8635 69.3169 38.9643 69.5487 39.0885C69.7906 39.2121 70.0229 39.3535 70.2437 39.5116C70.4745 39.6705 70.6968 39.8413 70.9097 40.0234C71.3386 40.3913 71.7618 40.8071 72.1732 41.2259C72.2108 41.2639 72.2599 41.2883 72.3129 41.2954C72.3658 41.3025 72.4196 41.2918 72.4658 41.265C72.512 41.2382 72.5481 41.1969 72.5683 41.1475C72.5885 41.098 72.5917 41.0433 72.5775 40.9918L72.5862 40.9947Z" fill="#26095B"/>
<path d="M69.9117 46.437C69.9354 43.8184 68.712 41.6843 67.1791 41.6704C65.6461 41.6564 64.3842 43.768 64.3604 46.3866C64.3366 49.0052 65.5601 51.1392 67.093 51.1531C68.6259 51.167 69.8879 49.0555 69.9117 46.437Z" fill="#26095B"/>
<path d="M68.2784 46.3319C68.8069 46.3039 69.1924 45.4706 69.1395 44.4706C69.0865 43.4706 68.6152 42.6826 68.0868 42.7106C67.5583 42.7386 67.1728 43.5719 67.2257 44.5719C67.2787 45.5719 67.75 46.3598 68.2784 46.3319Z" fill="white"/>
<path d="M52.6217 53.1646C54.0625 53.0304 55.043 50.9071 54.8115 48.422C54.5801 45.9369 53.2245 44.0311 51.7837 44.1653C50.3428 44.2994 49.3624 46.4228 49.5938 48.9079C49.8252 51.3929 51.1808 53.2987 52.6217 53.1646Z" fill="#26095B"/>
<path d="M53.0499 48.7394C53.5481 48.6937 53.8813 47.8859 53.7941 46.9351C53.7069 45.9842 53.2323 45.2505 52.7341 45.2962C52.2359 45.3419 51.9027 46.1497 51.9899 47.1005C52.0771 48.0513 52.5517 48.7851 53.0499 48.7394Z" fill="white"/>
<path d="M48.4338 55.9417C49.9668 55.4709 51.0651 54.6189 50.8869 54.0385C50.7087 53.4582 49.3215 53.3693 47.7885 53.84C46.2554 54.3108 45.1572 55.1628 45.3354 55.7432C45.5136 56.3236 46.9008 56.4124 48.4338 55.9417Z" fill="#FF8080"/>
<path d="M44.5017 67.3861C44.0053 67.4754 43.4972 67.4788 42.9997 67.3962L42.3948 67.2843L43.2672 64.7034C42.6434 64.8706 41.694 65.096 40.3039 65.3693L39.747 65.4784L39.6758 64.9157C39.2163 61.3344 43.5406 59.434 43.7252 59.3555L44.144 60.3297L43.9346 59.8426L44.144 60.3297C44.1091 60.3457 40.8826 61.7692 40.711 64.2046C43.1145 63.7103 43.8968 63.4064 43.9099 63.402L44.9786 62.9789L43.8154 66.39C44.5148 66.3726 45.6169 66.1545 46.1825 65.0465L47.1276 65.5307C46.5286 66.7128 45.4613 67.2174 44.5017 67.3861Z" fill="#26095B"/>
<path d="M41.7345 60.8709C41.6996 60.7386 40.8854 57.6095 41.5266 53.31C42.1184 49.3492 44.1191 43.6262 50.2929 38.8468C54.2188 35.6479 57.5747 34.6984 57.7157 34.6592L57.9964 35.677C57.9644 35.6857 54.7059 36.6148 50.9574 39.6683L50.9472 39.677C46.226 43.331 43.411 47.9533 42.5837 53.4147C41.9628 57.5034 42.7524 60.5568 42.7596 60.5874L41.7345 60.8709Z" fill="#26095B"/>
<path d="M58.8001 36.7425C58.6925 36.7323 58.1327 36.6538 57.5976 35.9922C56.67 34.8493 56.3937 32.7032 56.7732 29.6149L56.9186 28.4284L57.7009 29.3328C59.2814 31.159 60.2469 32.0198 60.9492 32.4051C60.766 31.3786 60.9492 30.2503 61.5104 28.9824L61.9466 27.9893L62.4614 28.9446C62.9077 29.7719 63.9154 30.3608 65.0946 31.0427C66.5036 31.8599 68.1001 32.7875 69.256 34.435L68.3836 35.0442C67.3658 33.5902 65.8725 32.7177 64.5581 31.9602C63.6537 31.4353 62.7856 30.9308 62.1502 30.2823C61.8376 31.319 61.8667 32.1943 62.2316 32.9911L62.6126 33.8214L61.7024 33.7414C60.6017 33.644 59.469 32.869 57.7038 30.9409C57.3955 35.3597 58.8888 35.684 58.9063 35.6869H58.883L58.8001 36.7425Z" fill="#26095B"/>
<path d="M86.9209 56.6456L85.8856 56.4072C86.2913 54.6623 85.967 48.6819 83.943 45.803L83.9285 45.7812C77.4159 35.4939 66.4671 34.6928 66.3639 34.6971C66.4303 34.6917 66.4949 34.6718 66.5529 34.639L66.0498 33.7055C66.3639 33.5368 67.6492 33.7622 68.3762 33.9119C70.0062 34.2523 71.5995 34.7495 73.1338 35.3965C77.9402 37.3908 82.0176 40.8139 84.814 45.2024C87.0459 48.3751 87.3702 54.706 86.9209 56.6456Z" fill="#26095B"/>
<path d="M66.0618 74.7991C65.6401 74.8733 65.2344 74.9314 64.8491 74.9721C57.2649 76.1513 52.0915 73.9223 49.0875 71.8445C45.8174 69.5835 44.3677 67.0593 44.3066 66.9532L45.2299 66.4297C45.259 66.4792 46.6621 68.8899 49.7374 70.9997C52.58 72.9525 57.483 75.0448 64.7008 73.9209H64.727C70.4224 73.3145 80.2153 68.999 83.2338 63.3516L84.1687 63.8517C81.0847 69.6213 71.9796 73.7667 66.0618 74.7991Z" fill="#26095B"/>
<path d="M85.9989 64.3185L85.4101 64.3781C82.771 64.6457 79.9996 61.7521 79.8848 61.6286L80.6554 60.9015C80.6903 60.9379 82.7347 63.0637 84.6874 63.3138C84.3833 62.1355 84.0005 60.9789 83.5416 59.8517L83.0822 58.7656L88.039 60.4377C87.8499 59.2963 87.2247 57.1661 85.1643 56.0087L85.6834 55.084C89.1222 57.0135 89.1818 61.0324 89.1818 61.2025V61.9455L84.9288 60.5104C85.3139 61.566 85.6292 62.6457 85.8724 63.7427L85.9989 64.3185Z" fill="#26095B"/>
<path d="M83.9114 44.5943L83.0928 43.9167C84.4843 42.2373 86.3978 39.7379 88.7795 36.4867C92.5803 31.383 94.8966 24.3325 96.1717 19.3161C97.6185 13.6192 98.2743 8.32945 98.1565 6.24438C98.0852 4.98519 97.7973 4.20874 97.3262 3.97755C96.7722 3.71292 95.7763 4.09533 94.3659 5.11315C92.227 6.65732 87.5319 10.3476 80.1818 17.6701C74.6144 23.3175 70.4646 30.6182 68.4857 34.4685L67.542 33.9828C69.5471 30.0802 73.758 22.6734 79.4301 16.9213C86.8456 9.5392 91.5799 5.81544 93.745 4.25236C94.8762 3.4352 96.5251 2.41884 97.7828 3.01789C98.6552 3.43084 99.119 4.47192 99.215 6.18476C99.4375 10.0946 96.8886 27.3815 89.633 37.1177C87.2411 40.3776 85.316 42.896 83.9114 44.5943Z" fill="#26095B"/>
<path d="M81.562 41.8015L80.7579 41.1093C89.1913 31.3092 92.0877 20.9653 93.0633 15.6712C93.6856 12.2862 93.1855 11.7177 93.0183 11.6246C92.9107 11.565 92.4526 11.4487 91.0408 12.436C90.0099 13.163 88.7536 14.2564 87.1832 15.6842C81.3279 20.8737 75.0683 31.491 72.643 35.8152L71.7168 35.2976C74.1683 30.9268 80.5035 20.1874 86.4737 14.8947C89.818 11.85 92.1211 9.91176 93.533 10.6969C94.4897 11.2277 94.6671 12.8213 94.1073 15.8631C93.1128 21.2633 90.1611 31.8123 81.562 41.8015Z" fill="#26095B"/>
<path d="M47.3297 42.0164C46.6158 40.3559 45.7884 38.3392 44.8695 36.0229C40.3809 24.952 42.2522 7.87883 43.4358 4.2176C43.9563 2.60944 44.6615 1.74575 45.5921 1.564H45.6183C46.9633 1.3299 48.2733 2.70105 49.1458 3.75667C50.8208 5.79231 54.4122 10.515 59.6366 19.3874C61.5122 22.6357 63.18 26.4831 64.5992 30.8234L63.59 31.1534C62.1942 26.8829 60.5555 23.1039 58.7205 19.9211C53.534 11.1169 49.9818 6.43789 48.3271 4.43279C47.2424 3.12417 46.3933 2.50621 45.8015 2.60944H45.7899C45.2897 2.70541 44.8244 3.37572 44.4449 4.54766C43.8138 6.49896 43.1217 11.6884 43.0839 17.4652C43.0505 22.5543 43.5027 29.8244 45.8553 35.6304C46.7713 37.9423 47.6001 39.9488 48.3039 41.6006L47.3297 42.0164Z" fill="#26095B"/>
<path d="M50.1715 39.3369C45.2278 28.3037 45.1086 18.2637 45.4779 13.2604C45.7004 10.2273 46.2674 8.7529 47.3143 8.48536C48.8658 8.0855 50.5757 10.5123 53.0141 14.2549C56.2304 19.0532 58.8913 26.6709 60.5561 32.2121L59.5383 32.5175C57.8938 27.046 55.2737 19.5359 52.1228 14.8409C50.977 13.0815 50.0523 11.7206 49.2482 10.7696C48.1489 9.47991 47.688 9.477 47.5731 9.50754C47.4583 9.53807 46.7851 9.88122 46.5306 13.3316C46.17 18.2331 46.2878 28.0754 51.1355 38.8948L50.1715 39.3369Z" fill="#26095B"/>
<path d="M58.7673 58.1883L58.7033 58.1956C58.5626 58.2027 58.4248 58.1538 58.3202 58.0595C58.2155 57.9652 58.1525 57.8332 58.145 57.6925L58.0214 55.3312C58.0174 55.2614 58.0272 55.1914 58.0503 55.1254C58.0734 55.0594 58.1093 54.9986 58.156 54.9466C58.2027 54.8945 58.2592 54.8521 58.3223 54.822C58.3854 54.7918 58.4538 54.7744 58.5236 54.7707C58.5935 54.7671 58.6633 54.7773 58.7292 54.8007C58.7951 54.8242 58.8557 54.8604 58.9075 54.9074C58.9594 54.9543 59.0014 55.0111 59.0312 55.0743C59.0611 55.1375 59.0781 55.2061 59.0814 55.2759L59.205 57.6373C59.2116 57.7667 59.1708 57.894 59.0902 57.9955C59.0097 58.0969 58.8948 58.1655 58.7673 58.1883Z" fill="#26095B"/>
<path d="M62.3992 58.7191C61.2129 58.9081 59.9991 58.822 58.8513 58.4675C56.7895 59.9971 54.5096 59.0375 53.563 58.2858C53.4526 58.1984 53.3813 58.0707 53.3649 57.9309C53.3486 57.791 53.3885 57.6503 53.4758 57.5398C53.5632 57.4294 53.6908 57.3581 53.8307 57.3417C53.9706 57.3254 54.1112 57.3652 54.2217 57.4526C54.3119 57.5238 56.4231 59.1393 58.4006 57.47L58.6303 57.2767L58.9139 57.3741C61.1836 58.1447 64.1178 57.8757 65.1938 55.4606C65.2516 55.332 65.3582 55.2316 65.4901 55.1816C65.6219 55.1315 65.7682 55.1359 65.8968 55.1938C66.0254 55.2516 66.1258 55.3582 66.1758 55.49C66.2259 55.6219 66.2215 55.7682 66.1636 55.8968C65.4133 57.5762 63.9855 58.4413 62.3992 58.7191Z" fill="#26095B"/>
<path d="M60.6252 64.9261C60.1059 65.0218 59.5723 65.007 59.0592 64.8825C58.2827 64.6891 57.2271 64.1249 56.6033 62.5328V62.5197C55.6393 59.8573 54.3045 58.8046 54.2914 58.7945C54.2359 58.7523 54.1893 58.6995 54.1542 58.6393C54.1191 58.5791 54.0963 58.5126 54.0869 58.4435C54.0775 58.3745 54.0818 58.3042 54.0995 58.2368C54.1173 58.1694 54.1481 58.1062 54.1903 58.0507C54.2325 57.9953 54.2853 57.9486 54.3455 57.9135C54.4057 57.8784 54.4722 57.8555 54.5413 57.8462C54.6103 57.8368 54.6806 57.8411 54.748 57.8588C54.8154 57.8766 54.8786 57.9075 54.9341 57.9497C54.9981 57.9977 56.5175 59.171 57.5993 62.1518C57.9672 63.0882 58.5459 63.6596 59.3194 63.853C60.266 64.0886 61.4772 63.7236 62.4078 62.9253C63.7164 61.7985 65.2998 58.1125 64.9829 56.2935C64.97 56.2245 64.9709 56.1537 64.9856 56.0851C65.0003 56.0164 65.0285 55.9514 65.0685 55.8937C65.1085 55.8361 65.1596 55.7869 65.2187 55.7491C65.2778 55.7113 65.3438 55.6856 65.413 55.6735C65.4821 55.6614 65.553 55.6631 65.6214 55.6785C65.6899 55.694 65.7546 55.7229 65.8118 55.7635C65.869 55.8041 65.9176 55.8557 65.9548 55.9152C65.9919 55.9748 66.0169 56.0411 66.0283 56.1103C66.4122 58.3117 64.6484 62.4004 63.0985 63.7309C62.3932 64.3394 61.5402 64.7516 60.6252 64.9261Z" fill="#26095B"/>
<path d="M57.7494 63.7512C57.6644 63.7661 57.577 63.7601 57.4949 63.7336C57.4128 63.7071 57.3383 63.661 57.278 63.5993C57.2177 63.5376 57.1734 63.4621 57.1488 63.3793C57.1243 63.2966 57.1203 63.2091 57.1372 63.1245C57.388 62.1388 57.8768 61.2296 58.5607 60.4767C59.5975 59.3135 61.5778 57.9729 65.114 58.1692C65.2546 58.1771 65.3862 58.2405 65.48 58.3455C65.5738 58.4505 65.6221 58.5884 65.6142 58.729C65.6063 58.8695 65.5429 59.0012 65.4379 59.095C65.3329 59.1888 65.195 59.2371 65.0544 59.2292C59.1772 58.9035 58.2205 63.155 58.1783 63.3353C58.1564 63.4395 58.1039 63.5348 58.0275 63.6089C57.9511 63.683 57.8542 63.7326 57.7494 63.7512Z" fill="#26095B"/>
<path d="M64.3053 71.2267L63.776 71.2703C57.8814 71.7618 56.7022 67.9406 56.6513 67.7807L56.5059 67.2703L57.5237 66.9795L57.6691 67.4869C57.7142 67.6323 58.7015 70.6349 63.6844 70.2205L64.2122 70.1754L64.3053 71.2267Z" fill="#26095B"/>
<path d="M42.7959 52.0577C42.7959 52.0577 44.1045 45.2238 49.5324 40.8137C52.4404 38.2939 55.4372 36.4095 57.5979 35.9937C54.3787 37.9537 47.933 41.7836 42.7959 52.0577Z" fill="#A2F9F4"/>
<path d="M49.2519 41.8321C49.0812 42.0468 48.9303 42.2765 48.8011 42.5184C48.5384 42.9927 48.371 43.5138 48.3082 44.0524C48.3026 44.0972 48.312 44.1426 48.335 44.1814C48.358 44.2203 48.3932 44.2504 48.4351 44.267C48.4771 44.2837 48.5234 44.2859 48.5667 44.2734C48.6101 44.2609 48.648 44.2343 48.6747 44.1978L48.6921 44.1745C48.9829 43.7732 49.2737 43.3734 49.5645 43.0113C49.7099 42.8325 49.8553 42.6522 50.0196 42.4937C50.1693 42.3314 50.3307 42.1803 50.5024 42.0415C50.6653 41.9025 50.841 41.7793 51.0273 41.6736C51.2116 41.5639 51.4064 41.4728 51.6089 41.4017C52.0472 41.2562 52.5029 41.1696 52.964 41.1444H52.9844C53.0302 41.1401 53.0732 41.1208 53.1069 41.0895C53.1405 41.0581 53.1628 41.0165 53.1703 40.9711C53.1778 40.9258 53.17 40.8792 53.1482 40.8387C53.1264 40.7982 53.0918 40.7661 53.0498 40.7474C52.5346 40.5197 51.9646 40.4455 51.4082 40.5337C50.8357 40.6267 50.2986 40.8712 49.8524 41.2418" fill="#26095B"/>
<path d="M67.9503 34.9007C67.8049 34.8673 72.894 35.8705 75.123 37.518C74.7348 38.4878 74.4934 38.972 74.4934 38.972C74.4934 38.972 72.6992 36.0639 67.9503 34.9007Z" fill="#F569F9"/>
<path d="M70.4092 34.4339C70.4092 34.2885 79.8429 18.367 84.6586 15.805C85.8771 15.2059 86.1679 15.187 86.1679 15.187C86.1679 15.187 82.732 18.5676 81.4598 20.5131C80.1875 22.4586 77.8073 24.9653 76.5888 27.2365C75.2075 29.4001 73.6444 32.0348 73.6444 32.0348L71.9359 34.9618" fill="#F5A5F9"/>
<path d="M68.3026 44.212C68.7145 44.212 69.0485 43.8338 69.0485 43.3672C69.0485 42.9007 68.7145 42.5225 68.3026 42.5225C67.8906 42.5225 67.5566 42.9007 67.5566 43.3672C67.5566 43.8338 67.8906 44.212 68.3026 44.212Z" fill="#F569F9"/>
<path d="M52.1438 46.1577C52.5252 46.1577 52.8344 45.8485 52.8344 45.467C52.8344 45.0856 52.5252 44.7764 52.1438 44.7764C51.7623 44.7764 51.4531 45.0856 51.4531 45.467C51.4531 45.8485 51.7623 46.1577 52.1438 46.1577Z" fill="#6EF9F5"/>
<path d="M45.3403 18.7378C45.3403 18.7378 46.0426 28.1642 47.6173 32.3082C46.6722 34.3191 46.2127 34.9255 46.2127 34.9255C46.2127 34.9255 42.771 23.2933 45.3403 18.7378Z" fill="#A2F9F4"/>
<path d="M56.96 52.0614C57.4792 51.9435 57.8676 51.7051 57.8276 51.5289C57.7876 51.3527 57.3343 51.3054 56.8151 51.4233C56.2959 51.5412 55.9074 51.7796 55.9474 51.9558C55.9874 52.132 56.4408 52.1792 56.96 52.0614Z" fill="#6EF9F5"/>
<path d="M40.5658 50.3014L55.7022 27.5822C56.1064 26.9788 56.0846 26.2489 55.6542 25.9581L54.7484 25.3503C54.3122 25.0595 53.6331 25.3168 53.2274 25.9188L38.1695 48.3283L37.8555 48.7805C37.8555 48.7805 40.2517 49.7445 40.5658 50.3014Z" fill="#00FFFF"/>
<path d="M40.48 52.6585L39.5437 51.0053C39.2529 50.7756 38.2932 50.2885 37.3946 49.9264L35.9609 49.3448L37.1474 47.629L52.2024 25.2371C52.527 24.7443 52.9964 24.3643 53.5459 24.1494C53.8526 24.026 54.1844 23.9782 54.5134 24.0101C54.8424 24.042 55.1589 24.1526 55.4362 24.3326L56.342 24.9404C56.6137 25.1294 56.8358 25.3811 56.9894 25.6743C57.1431 25.9674 57.2237 26.2932 57.2246 26.6242C57.2337 27.2141 57.0595 27.7923 56.7259 28.2789L40.48 52.6585ZM39.7094 48.2514C39.913 48.3517 40.0947 48.4477 40.2561 48.5422L54.6728 26.9063C54.6896 26.8817 54.7046 26.8559 54.7178 26.8292L54.3049 26.5515C54.2867 26.5728 54.2697 26.5951 54.254 26.6184L39.7094 48.2514Z" fill="#00FFFF"/>
<path d="M39.0997 50.6898C38.9679 50.6899 38.8387 50.6542 38.7256 50.5866C38.6126 50.5189 38.5201 50.4218 38.458 50.3056C38.3959 50.1894 38.3665 50.0586 38.373 49.927C38.3794 49.7954 38.4216 49.6681 38.4948 49.5586L54.3931 25.7606C54.4454 25.6794 54.5133 25.6095 54.5929 25.5548C54.6725 25.5002 54.7622 25.462 54.8567 25.4424C54.9513 25.4228 55.0487 25.4222 55.1435 25.4407C55.2382 25.4592 55.3284 25.4963 55.4086 25.55C55.4888 25.6037 55.5576 25.6728 55.6108 25.7534C55.664 25.8339 55.7007 25.9242 55.7186 26.0191C55.7366 26.1139 55.7355 26.2114 55.7153 26.3058C55.6952 26.4002 55.6565 26.4897 55.6014 26.569L39.7046 50.3656C39.6382 50.4653 39.5483 50.547 39.4428 50.6036C39.3373 50.6601 39.2194 50.6898 39.0997 50.6898Z" fill="white"/>
<path d="M40.9109 53.3186C37.8706 49.192 35.3609 49.7562 35.2548 49.7824L34.9131 48.5203C35.0585 48.481 38.346 47.6304 41.9651 52.5421L40.9109 53.3186Z" fill="#26095B"/>
<path d="M72.4079 44.4489C72.4079 44.4489 63.5384 47.7205 66.5918 54.7725C67.6097 56.0084 68.1186 55.7176 68.1186 55.7176L74.7344 65.1688L79.8235 75.6378C79.8235 75.6378 89.5654 78.255 87.8206 70.9122C86.0758 65.0234 84.1128 60.3705 84.1128 60.3705L79.8962 51.9371L75.5341 45.5394C75.5341 45.5394 74.5163 44.3035 72.4079 44.4489Z" fill="white"/>
<path d="M68.7253 46.873C68.7253 46.873 66.7871 50.7495 68.6279 51.5259C70.4687 52.3024 69.8886 55.1116 72.1176 56.5656C74.1532 58.2144 80.9391 76.1469 80.9391 76.1469L76.6745 69.4584L71.1492 59.7644C71.1492 59.7644 68.3371 57.7288 68.2411 54.7248C66.3015 54.3366 63.6842 53.3667 68.7253 46.873Z" fill="#CFD1D0"/>
<path d="M69.0162 46.7753C68.9697 46.9135 71.7788 45.5641 72.6033 45.8549C73.4277 46.1458 81.957 56.7601 81.8596 56.6147C81.7622 56.4693 78.4674 50.0716 78.4674 50.0716L74.4935 44.7877C74.4935 44.7877 70.4222 42.6561 69.0162 46.7753Z" fill="#F5A5F9"/>
<path d="M75.6191 46.2856L80.57 36.8766L89.1212 20.6278C89.4759 19.9546 89.3887 19.2058 88.9292 18.963L87.9638 18.4555C87.5043 18.2141 86.8383 18.566 86.4835 19.2392L73.3145 44.2645" fill="#FF00FF"/>
<path d="M77.099 47.0663L74.1401 45.509L74.4716 44.878L71.834 43.4894L85.0104 18.4612C85.324 17.8547 85.8109 17.3552 86.4092 17.0261C86.7649 16.825 87.1649 16.7152 87.5734 16.7066C87.982 16.698 88.3862 16.7908 88.7501 16.9767L89.7156 17.4841C91.0141 18.1675 91.4066 19.8905 90.6084 21.41L77.099 47.0663Z" fill="#FF00FF"/>
<path d="M78.6646 74.4906C78.6079 74.3844 72.9939 63.8064 71.3582 61.3913C70.9569 60.7995 70.4697 60.2135 69.9986 59.6464C68.4734 57.8114 66.8972 55.9139 67.7129 53.3389L68.9605 53.7344C68.36 55.6246 69.5857 57.1019 71.0048 58.8104C71.4963 59.4007 72.0052 60.0128 72.4414 60.6584C74.1135 63.1303 79.5879 73.4393 79.8206 73.877L78.6646 74.4906Z" fill="#26095B"/>
<path d="M74.6618 45.6848C74.5448 45.685 74.4294 45.6566 74.3259 45.6019C74.1552 45.5127 74.0268 45.3594 73.9691 45.1757C73.9113 44.9919 73.9287 44.7928 74.0176 44.6219L86.8858 19.9762C86.9299 19.8915 86.9903 19.8163 87.0634 19.755C87.1366 19.6936 87.2211 19.6473 87.3122 19.6186C87.4033 19.5899 87.4991 19.5794 87.5942 19.5877C87.6893 19.5961 87.7818 19.6231 87.8665 19.6672C87.9512 19.7113 88.0264 19.7717 88.0877 19.8448C88.1491 19.918 88.1955 20.0025 88.2241 20.0936C88.2528 20.1846 88.2633 20.2805 88.255 20.3756C88.2466 20.4707 88.2196 20.5632 88.1755 20.6479L75.3074 45.2937C75.2459 45.4117 75.1532 45.5106 75.0393 45.5796C74.9255 45.6486 74.7949 45.6849 74.6618 45.6848Z" fill="white"/>
<path d="M87.4155 71.6875C86.6492 69.2157 84.3853 62.5039 82.6434 58.6013C81.4205 55.8604 79.5797 53.1356 77.9556 50.7306C77.2068 49.6212 76.5016 48.5743 75.92 47.6248C74.8658 45.896 73.672 44.9538 72.4696 44.9C71.6059 44.8622 70.7422 45.3013 70.1707 46.0734L70.1373 46.1185L70.098 46.1577C69.8581 46.3875 69.6269 46.5939 69.4045 46.8062C68.0231 48.0785 67.1086 48.9218 66.5837 51.4591C66.4252 52.9059 66.6098 53.931 67.1187 54.437C67.248 54.5607 67.4021 54.6554 67.5709 54.7149C67.7396 54.7743 67.9191 54.797 68.0973 54.7816L68.2892 56.0815C67.9161 56.1256 67.5378 56.0875 67.1808 55.97C66.8239 55.8524 66.497 55.6582 66.2231 55.401C65.3812 54.5954 65.0599 53.2199 65.2823 51.2904L65.291 51.2323C65.9003 48.2603 67.0533 47.1959 68.5132 45.8524C68.7182 45.6634 68.9305 45.4671 69.1486 45.2577C69.5351 44.7292 70.0442 44.3024 70.632 44.0139C71.2198 43.7255 71.8688 43.584 72.5234 43.6016C73.6866 43.6539 75.3994 44.2762 77.0309 46.9531C77.595 47.8749 78.2929 48.9102 79.033 50.0065C80.6877 52.4566 82.5619 55.2323 83.8313 58.0778C85.771 62.4225 88.1687 69.7318 88.6572 71.3095L87.4155 71.6875Z" fill="#26095B"/>
<path d="M71.9532 60.0204L70.6839 59.7034C70.6744 59.737 70.6695 59.7718 70.6694 59.8067C70.6694 59.7776 70.6664 59.7398 70.6606 59.6933C70.5966 58.9662 70.4004 56.7445 73.7853 54.5954C77.2474 52.0669 80.4128 52.7227 80.5465 52.7517L80.2659 54.0313C80.1569 54.008 77.512 53.4846 74.54 55.6642L74.5036 55.6889C71.7729 57.4163 71.9111 58.9866 71.9634 59.5784C71.9857 59.7252 71.9823 59.8748 71.9532 60.0204Z" fill="#26095B"/>
<defs>
<linearGradient id="paint0_linear" x1="116.237" y1="132.477" x2="-6.3773" y2="48.2871" gradientUnits="userSpaceOnUse">
<stop stop-color="#FF8080"/>
<stop offset="0.0729167" stop-color="#E37187" stop-opacity="0.92"/>
<stop offset="0.166667" stop-color="#BA5A92" stop-opacity="0.81"/>
<stop offset="0.239583" stop-color="#97479C" stop-opacity="0.72"/>
<stop offset="0.3125" stop-color="#7A37A3" stop-opacity="0.64"/>
<stop offset="0.359375" stop-color="#642BA9" stop-opacity="0.58"/>
<stop offset="0.416667" stop-color="#5422AE" stop-opacity="0.53"/>
<stop offset="0.541667" stop-color="#4A1DB0" stop-opacity="0.51"/>
<stop offset="0.619792" stop-color="#471BB1" stop-opacity="0.5"/>
<stop offset="0.83" stop-color="#471BB1" stop-opacity="0"/>
</linearGradient>
</defs>
</svg>
