<svg width="82" height="116" viewBox="0 0 82 116" fill="none" xmlns="http://www.w3.org/2000/svg">
<path d="M24.8645 88.9877C15.9392 84.9081 10.1083 87.5623 10.1083 87.5623C9.26506 92.3434 -0.687663 91.4902 1.42427 83.1345C4.13571 72.3857 28.5237 76.6668 28.5237 76.6668C28.5237 76.6668 34.668 93.4653 24.8645 88.9877Z" fill="white"/>
<path d="M6.11343 90.9971C4.71157 91.0055 3.35672 90.4921 2.31244 89.5568C0.715426 88.0817 0.217914 85.7534 0.911943 83.017C2.08109 78.3728 7.28755 75.726 15.9642 75.3603C20.195 75.2313 24.4285 75.502 28.6084 76.1688L28.9069 76.221L29.0114 76.5046C29.3945 77.5544 32.6781 86.823 29.7403 89.5419C28.6582 90.5369 26.9442 90.5195 24.6482 89.4698C17.0537 85.9872 11.7129 87.5369 10.5587 87.9524C10.2278 89.2359 9.25521 90.2459 7.85472 90.7285C7.29245 90.9108 6.70451 91.0016 6.11343 90.9971ZM18.1059 76.3628C11.2851 76.3628 3.34975 77.624 1.93682 83.2633C1.17562 86.2857 2.11343 87.9349 3.03383 88.7882C3.63479 89.3228 4.36494 89.6912 5.15202 89.857C5.9391 90.0228 6.75582 89.9802 7.52138 89.7335C8.18556 89.5096 9.3373 88.92 9.59103 87.4748L9.6383 87.2036L9.88705 87.0892C10.1358 86.9772 16.0413 84.3827 25.0811 88.5145C26.9567 89.3728 28.2825 89.4598 29.0263 88.7633C29.999 87.8628 30.1582 85.4847 29.4741 82.0693C29.1283 80.4014 28.6771 78.7572 28.1233 77.1464C24.8078 76.6409 21.4597 76.379 18.1059 76.3628Z" fill="#15006D"/>
<path d="M12.8376 86.9528H11.7903C11.8152 78.8061 6.39975 78.3956 6.1709 78.3832L6.22562 77.3359C6.2903 77.3359 12.8674 77.7762 12.8376 86.9528Z" fill="#15006D"/>
<g style="mix-blend-mode:multiply">
<path d="M3.71783 84.9127C5.09345 79.4625 10.887 78.7585 17.3671 78.7585C19.7452 78.7585 21.173 87.1739 21.6805 87.353C26.275 88.9824 25.6258 89.5446 27.1059 89.7635C26.7675 88.6341 28.5188 76.6764 28.5188 76.6764C28.5188 76.6764 4.14072 72.3854 1.41933 83.1441C0.399431 87.1839 2.20291 89.465 4.43176 90.2087C3.53375 89.0321 3.11833 87.2884 3.71783 84.9127Z" fill="#E3E4E5"/>
</g>
<path d="M34.6409 96.4772C34.6409 96.4772 32.733 93.2284 24.5514 90.3901C19.6733 88.7011 15.1932 90.9001 11.5265 95.6438C9.80265 95.313 7.42206 96.0941 6.11609 97.8826C1.50913 104.176 7.20315 109.656 12.0091 111.624C15.9544 113.243 19.9295 112.415 22.9544 109.427C27.2454 105.199 33.1534 100.388 37.4543 102.982C37.4543 102.982 35.0762 110.395 43.024 114.263C49.5339 117.432 53.1284 108.057 53.1284 108.057L34.6409 96.4772Z" fill="white"/>
<path d="M45.6702 115.45C44.6736 115.437 43.6933 115.195 42.8046 114.744C35.6553 111.261 36.4861 104.945 36.8568 103.254C33.7797 101.734 29.3469 103.883 23.3295 109.808C20.123 112.965 15.9265 113.806 11.8096 112.122C8.93396 110.935 5.20511 108.246 4.16033 104.56C3.49864 102.209 4.01357 99.8582 5.68769 97.5697C6.33465 96.713 7.18907 96.0351 8.17045 95.5999C9.15183 95.1647 10.2279 94.9865 11.2971 95.0821C15.2996 90.0324 19.9364 88.2413 24.7299 89.8981C32.225 92.4975 34.5832 95.4553 35.0061 96.0946L53.7722 107.851L53.618 108.254C53.5359 108.468 51.5483 113.55 47.7622 115.045C47.0967 115.311 46.3869 115.448 45.6702 115.45ZM34.7573 101.724C35.8086 101.715 36.8419 101.997 37.7424 102.54L38.0956 102.754L37.9712 103.149C37.8792 103.435 35.8394 110.184 43.2697 113.801C44.6951 114.495 46.0831 114.587 47.3941 114.07C50.1802 112.973 51.9563 109.458 52.4886 108.271L34.2598 96.8558L34.1951 96.7463C34.1628 96.6941 32.2051 93.5946 24.3842 90.8881C18.8344 88.9627 14.5558 92.5871 11.9464 95.9652L11.7499 96.214L11.434 96.1543C9.98868 95.8757 7.78222 96.4926 6.5459 98.1841C5.07078 100.199 4.61307 102.246 5.18272 104.269C6.12053 107.595 9.55833 110.05 12.2175 111.142C15.924 112.664 19.7101 111.905 22.6031 109.057C25.9812 105.726 30.613 101.724 34.7573 101.724Z" fill="#15006D"/>
<path d="M39.5193 104.042C43.9148 109.828 48.0541 112.204 53.1237 111.664C68.3252 110.042 58.9521 84.1692 54.6163 76.6741C50.5864 69.709 44.0068 65.1045 35.7108 66.6543C31.8795 67.3971 28.2563 68.9668 25.0939 71.2537C25.0939 71.2537 16.5566 75.6319 25.7805 90.5124" fill="white"/>
<path d="M51.7545 112.261C47.1699 112.261 43.2147 109.773 39.1003 104.358L39.9336 103.724C44.2794 109.445 48.2073 111.659 53.0679 111.141C56.1699 110.811 58.3888 109.385 59.6326 106.898C63.5008 99.2833 57.8764 83.3704 54.16 76.9326C49.7819 69.3629 43.0903 65.8032 35.7968 67.1639C32.0417 67.8954 28.4905 69.4343 25.3889 71.6739L25.3217 71.7161C25.3018 71.7161 23.16 72.8753 22.3366 75.8878C21.3416 79.5569 22.675 84.5171 26.2172 90.231L25.3242 90.7833C21.5605 84.7111 20.2197 79.5893 21.3441 75.5768C22.2496 72.3206 24.4759 70.9898 24.8267 70.8032C28.0467 68.4851 31.7307 66.8922 35.6252 66.1341C43.3814 64.6863 50.4759 68.4301 55.0903 76.4077C56.8316 79.3927 59.2222 85.037 60.6873 90.8853C61.9311 95.8604 62.9261 102.771 60.5978 107.373C59.1351 110.196 56.6475 111.813 53.1774 112.184C52.7048 112.235 52.2299 112.261 51.7545 112.261Z" fill="#15006D"/>
<path d="M57.6426 80.637C57.529 80.4837 57.3611 80.3797 57.1733 80.3464C56.9854 80.3131 56.792 80.353 56.6326 80.4579C35.0804 94.1395 23.1252 85.0375 23.0506 86.0574C22.9014 88.1718 24.5431 90.3907 24.5431 90.3907C29.3441 92.3161 31.3217 94.8857 31.3217 94.8857C49.9784 98.433 58.6849 87.7937 58.7172 87.7614C60.1625 86.0027 58.8217 82.2464 57.6426 80.637Z" fill="#B6BBD3"/>
<path d="M38.6752 96.1265C36.177 96.1179 33.6851 95.8747 31.2324 95.4002L31.0359 95.3628L30.914 95.2036C30.8966 95.1812 28.9439 92.7161 24.3568 90.8778L24.2175 90.8231L24.1305 90.7036C24.0583 90.6066 22.3668 88.3007 22.5285 86.0221C22.5348 85.9285 22.5626 85.8378 22.6096 85.7567C22.6566 85.6756 22.7216 85.6064 22.7996 85.5544C23.1329 85.3405 23.4837 85.4673 24.4215 85.8032C38.9115 91.0693 52.0334 82.7435 56.3493 80.0096C56.622 79.8367 56.9499 79.7729 57.2676 79.831C57.5853 79.8891 57.8694 80.0648 58.0632 80.3231C59.2498 81.935 60.8369 85.9997 59.1304 88.0867C59.1105 88.1141 56.8369 90.8728 52.2473 93.1315C49.2125 94.629 44.6727 96.1265 38.6752 96.1265ZM31.613 94.4051C40.9911 96.1464 47.7274 94.1812 51.7374 92.2186C56.1254 90.0693 58.2971 87.4549 58.3195 87.43C59.4787 86.0096 58.4239 82.5892 57.2175 80.9474C57.1817 80.9027 57.1303 80.873 57.0737 80.8642C57.017 80.8555 56.9591 80.8683 56.9115 80.9002C39.0384 92.236 27.7673 88.139 24.0757 86.7932L23.5782 86.6191C23.6877 88.0967 24.6106 89.5519 24.8916 89.9624C29.0359 91.6589 31.0906 93.8031 31.613 94.4051Z" fill="#15006D"/>
<path d="M15.9112 98.0095C14.5919 97.0372 13.0546 96.4027 11.4336 96.1613L11.6077 95.1265C13.3942 95.397 15.0875 96.0998 16.5405 97.1737L15.9112 98.0095Z" fill="#15006D"/>
<path d="M33.8818 79.1763C33.8818 79.1763 34.9963 84.1713 36.2898 86.9101L33.8818 79.1763Z" fill="white"/>
<path d="M35.8144 87.1341C34.5109 84.3754 33.4164 79.4948 33.3691 79.2909L34.3915 79.062C34.404 79.1118 35.5084 84.0371 36.7622 86.6864L35.8144 87.1341Z" fill="#15006D"/>
<path d="M27.6426 87.353C27.8913 88.9028 28.257 90.7461 28.6799 92.5769L27.6426 87.353Z" fill="white"/>
<path d="M28.1698 92.6914C27.7394 90.8382 27.3688 88.96 27.125 87.4352L28.1598 87.271C28.4086 88.7834 28.7668 90.6242 29.1922 92.4551L28.1698 92.6914Z" fill="#15006D"/>
<path d="M11.6225 50.2635C8.63744 45.5819 -0.0690163 31.8307 0.555361 8.53967C0.597649 6.96753 2.37625 5.94017 3.54043 6.88295C9.51057 11.7138 22.8787 24.0745 25.2717 45.7784" fill="white"/>
<path d="M11.1804 50.5445C8.26995 45.9774 -0.590734 32.0719 0.0311559 8.52469C0.0464885 8.03705 0.196941 7.56324 0.465743 7.15609C0.734546 6.74893 1.11114 6.42442 1.55354 6.21873C1.92364 6.03545 2.33832 5.9615 2.74896 6.00556C3.1596 6.04962 3.54916 6.20986 3.87195 6.46748C16.5087 16.7013 24.0908 30.2809 25.8023 45.7211L24.76 45.8356C23.0784 30.6689 15.6306 17.3456 3.21274 7.29086C3.04214 7.15685 2.83689 7.07421 2.62102 7.05262C2.40515 7.03103 2.1876 7.07139 1.99384 7.16897C1.7283 7.29275 1.50234 7.48783 1.34115 7.73247C1.17996 7.97711 1.08987 8.26171 1.08091 8.55454C0.463991 31.7734 9.19532 45.4799 12.066 49.9823L11.1804 50.5445Z" fill="#15006D"/>
<path d="M13.8379 47.5842C12.9797 48.0916 2.94739 25.9897 4.41008 14.9574C4.51207 14.1937 5.3056 13.6887 5.90261 14.1141C8.88768 16.2633 18.2931 25.634 21.8702 44.9001C21.8702 44.9001 17.4275 45.4548 13.8379 47.5842Z" fill="#FF8080"/>
<path d="M13.8071 48.1167C13.6736 48.115 13.5437 48.0734 13.434 47.9973C12.4638 47.358 9.64544 41.2037 7.51609 35.0843C5.81212 30.1838 3.07331 21.0396 3.88674 14.8879C3.92372 14.5984 4.03473 14.3234 4.20903 14.0894C4.38333 13.8554 4.61504 13.6703 4.88177 13.552C5.09593 13.4553 5.33188 13.417 5.56563 13.4411C5.79939 13.4651 6.02261 13.5506 6.21261 13.6889C6.71012 14.0396 18.2648 22.547 22.3967 44.8057L22.4987 45.353L21.9464 45.4226C21.9041 45.4226 17.5658 45.9873 14.1181 48.0346C14.0242 48.0907 13.9164 48.1192 13.8071 48.1167ZM5.42406 14.4849C5.37607 14.4852 5.32866 14.4953 5.28475 14.5147C5.18743 14.564 5.1038 14.6366 5.04131 14.726C4.97881 14.8154 4.93939 14.9188 4.92654 15.0272C3.60068 25.057 12.1206 44.7286 13.8619 46.9624C16.725 45.3455 19.9738 44.6789 21.2524 44.4749C17.1131 23.0247 6.05838 14.8903 5.58077 14.5495C5.53596 14.5132 5.48148 14.4907 5.42406 14.4849Z" fill="#15006D"/>
<g style="mix-blend-mode:multiply">
<path d="M12.8528 39.734C9.03196 31.0648 7.77326 25.2564 7.3653 19.9554C7.3653 19.8385 7.09415 17.1469 8.55933 18.2489C11.0469 20.1196 15.813 26.923 15.6787 26.5698C15.4001 25.8235 11.333 18.9181 6.99465 14.9927C6.57177 14.627 6.20112 14.3335 5.90261 14.1121C5.31057 13.6867 4.51704 14.1917 4.41008 14.9554C2.94739 25.9902 12.9797 48.0922 13.8379 47.5847C17.4275 45.4529 21.8702 44.9006 21.8702 44.9006C21.6663 43.7986 20.2484 38.2489 20.0071 37.2116C17.1887 38.0648 14.7285 43.9877 12.8528 39.734Z" fill="#E3E4E5"/>
</g>
<path d="M48.7398 66.9054C49.6875 71.6716 42.0607 77.5571 33.8816 79.1765C23.4562 81.2387 19.7622 77.6293 18.8144 72.8631C17.8667 68.0969 23.7895 62.9004 32.0582 61.2537C40.3268 59.6069 47.7895 62.1392 48.7398 66.9054Z" fill="#EDBF40"/>
<path d="M28.4437 80.296C22.675 80.296 19.2721 77.8432 18.2994 72.9651C17.8019 70.4776 18.9885 67.8159 21.6377 65.5025C24.2049 63.2487 27.8716 61.5622 31.9561 60.7487C40.4884 59.0497 48.2496 61.7686 49.2521 66.8109C49.5407 68.2537 49.1253 69.8631 48.0556 71.4651C45.5855 75.1616 39.7969 78.5472 33.9835 79.6965C32.1607 80.0757 30.3054 80.2765 28.4437 80.296ZM37.0681 61.2736C35.4198 61.2788 33.7759 61.4454 32.1601 61.7711C28.2522 62.5497 24.7596 64.1517 22.3268 66.2836C19.9736 68.3482 18.9089 70.6492 19.3417 72.7512C20.4711 78.4228 25.1974 80.3532 33.7919 78.6517C39.3541 77.5497 44.8666 74.3482 47.1974 70.8656C48.1228 69.4801 48.4735 68.1791 48.2372 66.9975C47.5233 63.4801 42.8964 61.2736 37.0681 61.2736Z" fill="#15006D"/>
<path d="M50.8945 54.2111C53.1532 66.5991 41.0886 74.8951 32.6831 76.6115C26.412 77.8902 12.82 76.9996 9.58614 65.4822C6.15082 53.2036 12.6732 43.6191 25.5289 40.3255C37.8025 37.1788 49.0463 44.0544 50.8945 54.2111Z" fill="white"/>
<path d="M27.8674 77.597C20.5664 77.597 11.6237 74.6791 9.08139 65.6244C7.46448 59.8657 7.96448 54.4727 10.5316 50.0224C13.3625 45.1145 18.4918 41.5846 25.3973 39.8234C31.7107 38.204 38.2405 39.1419 43.3077 42.3931C47.6584 45.1816 50.5216 49.3583 51.4047 54.1219C52.7181 61.3358 49.2753 66.6219 46.1535 69.7935C42.641 73.3557 37.5167 76.1716 32.7804 77.1368C31.162 77.4523 29.5163 77.6064 27.8674 77.597ZM31.5018 40.0896C29.5305 40.0933 27.5674 40.3441 25.6585 40.8359C19.0416 42.5324 14.1262 45.8906 11.4396 50.5498C9.01671 54.7488 8.55154 59.8632 10.0913 65.3433C11.8053 71.4503 16.5117 74.1567 20.1585 75.3507C24.1755 76.6105 28.4399 76.8668 32.5789 76.097C37.1211 75.1692 42.0316 72.4677 45.4147 69.0448C48.3624 66.0597 51.6137 61.0846 50.3898 54.3035C49.5714 49.8259 46.8624 45.9005 42.7604 43.2712C39.3887 41.1566 35.4816 40.0525 31.5018 40.0896Z" fill="#15006D"/>
<g style="mix-blend-mode:multiply">
<path d="M50.8936 54.2111C49.0453 44.0544 37.8016 37.1788 25.5205 40.3255C12.6723 43.6191 6.14989 53.2036 9.5852 65.4822C12.819 76.9996 26.411 77.8902 32.6822 76.6115C41.0876 74.8951 53.1647 66.5991 50.8936 54.2111ZM32.2692 75.3056C26.3862 76.5096 13.6499 75.716 10.6449 65.0295C7.43347 53.624 13.5827 44.7086 25.6399 41.6191C37.1523 38.6688 47.6747 45.0245 49.3836 54.4524C51.4707 65.9499 40.1424 73.6837 32.2692 75.3056Z" fill="#E3E4E5"/>
</g>
<path d="M49.0337 57.9175C49.0337 57.9175 53.5113 58.415 54.964 61.8976C54.964 61.8976 50.9391 61.9622 49.6755 62.0593C49.6755 62.0593 51.0585 63.2906 51.357 64.6413C51.357 64.6413 49.0909 65.0369 47.377 64.109" fill="white"/>
<path d="M50.1955 65.2509C49.1337 65.2763 48.0818 65.0423 47.1309 64.5693L47.6284 63.6489C48.6408 64.1986 49.9045 64.2285 50.6458 64.1887C50.3092 63.5364 49.8623 62.9473 49.3249 62.4474L48.412 61.624L49.6358 61.5295C50.5537 61.4598 52.8522 61.4076 54.1134 61.3827C52.5189 58.8628 49.0164 58.435 48.9791 58.43L49.096 57.3877C49.2925 57.4101 53.8896 57.9723 55.4517 61.6862L55.7527 62.4026L54.9766 62.415C54.9468 62.415 52.4891 62.4549 50.8274 62.5195C51.3183 63.098 51.6758 63.7774 51.8746 64.5096L51.994 65.0469L51.4517 65.1414C51.0366 65.2113 50.6165 65.2479 50.1955 65.2509Z" fill="#15006D"/>
<path d="M36.0287 55.7562C35.6804 55.7387 35.3297 55.7412 34.9764 55.7562C35.2252 55.5223 35.4739 55.291 35.7401 55.0646C36.1655 54.6965 36.6083 54.3383 37.0635 53.9776C37.2252 53.8482 37.3844 53.7288 37.5461 53.597C37.7078 53.4651 37.8371 53.4054 37.969 53.291C38.1008 53.1766 38.2625 52.9577 37.9416 52.9353C37.8658 52.9317 37.79 52.9418 37.7177 52.9651C36.7718 53.1817 35.8597 53.5257 35.0063 53.9875C33.8971 54.5868 32.9233 55.4082 32.1456 56.4004C32.04 56.539 31.9812 56.7075 31.9777 56.8817C31.9742 57.0559 32.0262 57.2266 32.1262 57.3693C32.2262 57.5119 32.369 57.6191 32.5339 57.6752C32.6988 57.7313 32.8773 57.7336 33.0436 57.6815C33.4839 57.5472 34.0262 57.4328 34.5361 57.3159C35.0461 57.1989 35.5735 57.1019 36.1033 57.0198C36.6332 56.9378 37.1655 56.8432 37.7103 56.7711C38.0386 56.7263 38.3695 56.6741 38.7053 56.6318C38.852 56.6119 39.0187 56.4751 38.8769 56.3358C38.7428 56.2431 38.5884 56.1843 38.4267 56.1641C37.654 55.9333 36.8564 55.7955 36.0511 55.7537L36.0287 55.7562Z" fill="#15006D"/>
<path d="M11.4266 66.4976C11.4266 66.4976 8.11564 68.0473 8.44151 72.7662C8.44151 72.7662 11.4987 71.4553 12.3345 71.0498C12.3345 71.0498 11.5385 72.8956 11.9539 74.2836C11.9539 74.2836 13.6753 74.2637 15.1878 71.8085" fill="white"/>
<path d="M11.5564 74.8081L11.4444 74.43C11.2508 73.6343 11.261 72.8027 11.4743 72.0121C10.2977 72.5344 8.73798 73.2061 8.64097 73.2558L7.96187 73.5469L7.91212 72.8006C7.57132 67.7807 11.0564 66.0842 11.2056 66.0195L11.6484 66.9698L11.427 66.4946L11.6509 66.9698C11.5365 67.0245 9.00664 68.2807 8.93948 71.9772C9.88226 71.5742 11.5315 70.8529 12.1012 70.5792L13.3648 69.9673L12.8076 71.2583C12.8076 71.2733 12.2604 72.5519 12.3599 73.6663C12.8872 73.4922 13.8275 72.9897 14.7181 71.532L15.6136 72.0792C13.9793 74.7509 12.0315 74.8155 11.9494 74.8155L11.5564 74.8081Z" fill="#15006D"/>
<path d="M31.1807 40.5769C32.1035 34.9674 34.8622 18.5371 51.2478 1.19633C52.3548 0.0246863 54.412 0.450059 54.6558 1.96996C55.8995 9.73611 57.6582 28.2933 44.6533 46.4823" fill="white"/>
<path d="M45.081 46.7859L44.2277 46.1765C53.3173 33.4626 56.7451 18.2064 54.1382 2.05467C54.0988 1.83369 53.9975 1.62844 53.846 1.46284C53.6945 1.29724 53.4991 1.17812 53.2824 1.11935C52.9934 1.0323 52.6859 1.0269 52.3939 1.10372C52.102 1.18055 51.837 1.33662 51.6282 1.55467C35.2875 18.8382 32.586 35.2561 31.6979 40.6616L30.6631 40.4924C31.5636 35.0198 34.3049 18.3531 50.867 0.835765C51.2111 0.473217 51.6496 0.214027 52.133 0.0874393C52.6165 -0.0391488 53.1258 -0.0280968 53.6033 0.119348C54.0083 0.232532 54.3724 0.45919 54.6527 0.772575C54.9331 1.08596 55.1179 1.47299 55.1854 1.888C57.8247 18.3183 54.3347 33.8432 45.081 46.7859Z" fill="#15006D"/>
<path d="M34.7009 40.0449C33.7058 39.8484 41.1486 16.137 49.8003 8.72161C50.3974 8.20917 51.3476 8.3634 51.5093 9.09474C52.3302 12.7838 53.0939 26.3509 42.6586 43.4877C42.6586 43.4877 38.8949 40.8733 34.7009 40.0449Z" fill="#FF8080"/>
<path d="M42.8178 44.2362L42.3601 43.9178C42.3228 43.893 38.6287 41.3557 34.5989 40.5596C34.4821 40.5336 34.3752 40.4749 34.2906 40.3903C34.206 40.3057 34.1473 40.1988 34.1213 40.082C33.8203 38.9353 35.8626 32.3184 38.4297 26.2015C40.4795 21.2985 44.6486 12.4577 49.4596 8.32337C49.6817 8.129 49.9501 7.99508 50.2389 7.93452C50.5278 7.87396 50.8274 7.8888 51.1088 7.9776C51.3352 8.04832 51.5388 8.17759 51.6991 8.35232C51.8594 8.52705 51.9707 8.74105 52.0218 8.97263C52.1561 9.5771 55.1586 23.9602 43.1064 43.7537L42.8178 44.2362ZM35.1312 39.5994C38.4347 40.3233 41.38 42.0447 42.4919 42.7512C53.9994 23.5646 51.1287 9.78855 50.9994 9.20895C50.9884 9.15236 50.9614 9.10008 50.9218 9.05823C50.8822 9.01638 50.8314 8.98669 50.7755 8.97263C50.666 8.94154 50.5504 8.93869 50.4394 8.96435C50.3285 8.99002 50.2259 9.04336 50.1412 9.11939C42.2481 15.8856 35.3054 36.7338 35.1312 39.5994Z" fill="#15006D"/>
<path d="M30.7397 41.7811C34.3143 38.7064 32.0606 34.9602 32.0606 34.9602C31.3287 35.9127 30.5386 36.8191 29.6949 37.6741C30.0929 35.3308 28.5233 32.7114 28.5233 32.7114C26.4088 36.8656 19.9188 37.7935 17.7919 42.4627C17.5905 42.9005 16.8143 44.8283 18.0407 46.4029" fill="white"/>
<path d="M17.636 46.7263C16.2479 44.9576 17.039 42.8482 17.3151 42.2487C18.4892 39.6766 20.8599 38.2089 23.1509 36.791C25.1857 35.5298 27.1086 34.3407 28.0564 32.4776L28.4867 31.6343L28.9718 32.4477C29.6545 33.6374 30.0918 34.9518 30.2579 36.3134C30.636 35.8855 31.1136 35.3184 31.6509 34.6417L32.121 34.0447L32.5116 34.694C32.5365 34.7363 34.9469 38.8606 31.0837 42.1815L30.3997 41.388C32.7255 39.3979 32.3449 37.0994 31.937 35.9577C31.3494 36.6902 30.7225 37.3902 30.0589 38.0547L28.9096 39.1691L29.1783 37.592C29.4121 36.2139 28.8847 34.6965 28.4817 33.7935C27.3176 35.4452 25.4967 36.5795 23.7031 37.6815C21.5439 39.0173 19.3101 40.4004 18.2703 42.684C18.0564 43.1517 17.4395 44.781 18.4619 46.0845L17.636 46.7263Z" fill="#15006D"/>
<g style="mix-blend-mode:multiply">
<path d="M38.4563 35.6196C41.0732 24.7216 48.2946 12.8161 51.7449 10.5176C51.6752 9.94548 51.5931 9.47036 51.5085 9.09474C51.3469 8.3634 50.3966 8.20917 49.7996 8.72161C41.1479 16.137 33.6976 39.8484 34.7001 40.0449C38.8941 40.8733 42.6603 43.4877 42.6603 43.4877C43.2573 42.5076 43.7598 41.6444 44.2847 40.6892C43.0981 40.7912 37.7922 38.3857 38.4563 35.6196Z" fill="#E3E4E5"/>
</g>
<path d="M29.7402 63.4478C30.081 65.4104 30.0835 65.4577 30.3696 66.6816L29.7402 63.4478Z" fill="white"/>
<path d="M30.3691 67.2065C30.2529 67.2039 30.1409 67.1626 30.0508 67.0892C29.9607 67.0158 29.8976 66.9144 29.8716 66.8011C29.603 65.6568 29.5806 65.5274 29.3094 63.9528L29.2373 63.5399C29.2211 63.4704 29.2193 63.3983 29.2319 63.3281C29.2445 63.2579 29.2713 63.191 29.3106 63.1315C29.35 63.072 29.401 63.0211 29.4607 62.982C29.5203 62.9428 29.5873 62.9163 29.6576 62.9039C29.7278 62.8916 29.7999 62.8937 29.8693 62.9101C29.9387 62.9265 30.0041 62.9569 30.0614 62.9994C30.1186 63.0419 30.1667 63.0957 30.2025 63.1574C30.2383 63.2191 30.2611 63.2874 30.2696 63.3583L30.3418 63.7737C30.6104 65.321 30.6328 65.4478 30.8915 66.5623C30.9074 66.6292 30.9099 66.6987 30.8988 66.7666C30.8877 66.8345 30.8634 66.8996 30.8271 66.9581C30.7908 67.0166 30.7433 67.0673 30.6873 67.1074C30.6314 67.1475 30.568 67.1761 30.501 67.1916C30.4579 67.2024 30.4136 67.2075 30.3691 67.2065Z" fill="#15006D"/>
<path d="M27.5781 73.5472C27.5781 73.5472 31.9886 75.4652 35.6726 71.7637L27.5781 73.5472Z" fill="white"/>
<path d="M30.3328 74.5596C29.3213 74.5664 28.3172 74.3876 27.3701 74.0323L27.793 73.0671C29.071 73.5583 30.4654 73.6619 31.802 73.365C33.1386 73.0682 34.358 72.384 35.3079 71.3979L36.0542 72.1442C35.3146 72.9143 34.4258 73.5256 33.4421 73.9409C32.4585 74.3562 31.4005 74.5667 30.3328 74.5596Z" fill="#15006D"/>
<g style="mix-blend-mode:multiply">
<path d="M32.4388 60.306C32.7249 61.5672 31.4737 62.9254 29.6453 63.3383C27.817 63.7513 26.1055 63.0647 25.8195 61.8035C25.5334 60.5423 26.8468 59.8756 28.6752 59.4627C30.5035 59.0498 32.1553 59.0448 32.4388 60.306Z" fill="#E3E4E5"/>
</g>
<path d="M26.8527 63.3981C26.6805 63.2334 26.5561 63.0252 26.4927 62.7954C26.4294 62.5657 26.4295 62.3231 26.493 62.0935C26.5566 61.8638 26.6812 61.6557 26.8536 61.4912C27.026 61.3267 27.2397 61.212 27.4721 61.1593L30.5791 60.4553C30.8122 60.4031 31.0551 60.415 31.2819 60.4899C31.5087 60.5648 31.711 60.6997 31.8672 60.8804C32.0234 61.0611 32.1277 61.2808 32.1689 61.5161C32.2102 61.7514 32.1869 61.9934 32.1015 62.2165C31.9106 62.7132 31.6 63.1552 31.1973 63.5032C30.7947 63.8511 30.3123 64.0943 29.7931 64.2112C29.274 64.3281 28.734 64.315 28.221 64.1732C27.7081 64.0313 27.2381 63.7651 26.8527 63.3981Z" fill="#15006D"/>
<path d="M29.0783 64.8108C28.1157 64.81 27.19 64.4406 26.4912 63.7785C26.2494 63.5484 26.0745 63.2569 25.9852 62.9352C25.8959 62.6136 25.8955 62.2737 25.9841 61.9518C26.0727 61.6299 26.2469 61.3381 26.4882 61.1074C26.7295 60.8767 27.0289 60.7157 27.3544 60.6417L30.4639 59.9402C30.7893 59.8668 31.1285 59.8831 31.4454 59.9873C31.7623 60.0915 32.045 60.2798 32.2633 60.5321C32.4816 60.7844 32.6274 61.0911 32.685 61.4197C32.7427 61.7483 32.7101 62.0864 32.5907 62.3979C32.3186 63.1086 31.837 63.7198 31.2098 64.1507C30.5826 64.5816 29.8393 64.8118 29.0783 64.8108ZM27.2126 63.0173C27.536 63.3249 27.9304 63.5478 28.3606 63.6664C28.7909 63.785 29.2438 63.7955 29.6791 63.6971C30.1144 63.5987 30.5187 63.3943 30.856 63.1021C31.1934 62.81 31.4535 62.4391 31.6131 62.0223C31.6651 61.8879 31.6795 61.7419 31.6548 61.5999C31.6301 61.4579 31.5672 61.3253 31.4728 61.2164C31.3785 61.1075 31.2563 61.0263 31.1192 60.9816C30.9822 60.9369 30.8356 60.9303 30.6952 60.9626L27.5858 61.6641C27.4449 61.6954 27.3152 61.7646 27.2107 61.8642C27.1063 61.9637 27.0309 62.0899 26.9928 62.229C26.9546 62.3682 26.9552 62.5152 26.9944 62.6541C27.0336 62.793 27.1099 62.9186 27.2151 63.0173L26.8519 63.3979L27.2126 63.0173Z" fill="#15006D"/>
<path d="M30.1834 61.6884C30.6832 61.5754 31.0525 61.3252 31.0083 61.1296C30.9641 60.9339 30.523 60.8669 30.0232 60.98C29.5234 61.093 29.154 61.3432 29.1983 61.5388C29.2425 61.7345 29.6835 61.8014 30.1834 61.6884Z" fill="white"/>
<path d="M34.5089 66.6816C32.2253 68.806 30.3646 66.6816 30.3646 66.6816C30.3646 66.6816 29.4318 69.3881 26.7676 68.5473" fill="white"/>
<path d="M27.7604 69.2361C27.3715 69.2322 26.9856 69.1685 26.6161 69.047C26.4981 68.9948 26.4034 68.9009 26.3503 68.7832C26.2971 68.6656 26.2892 68.5325 26.328 68.4094C26.3667 68.2863 26.4495 68.1818 26.5605 68.1158C26.6715 68.0499 26.8029 68.0272 26.9296 68.052C29.0315 68.7162 29.7952 66.7411 29.8748 66.5147L30.1733 65.6689L30.7629 66.3406C31.1799 66.7747 31.7384 67.0456 32.3375 67.1043C32.9445 67.1366 33.5539 66.8555 34.1559 66.3033C34.2062 66.2564 34.2653 66.2199 34.3297 66.1958C34.3941 66.1718 34.4626 66.1606 34.5313 66.1631C34.6001 66.1655 34.6676 66.1814 34.7302 66.21C34.7928 66.2385 34.8491 66.2791 34.896 66.3294C34.9428 66.3797 34.9793 66.4387 35.0034 66.5032C35.0275 66.5676 35.0386 66.6361 35.0362 66.7048C35.0337 66.7735 35.0178 66.8411 34.9893 66.9037C34.9607 66.9662 34.9201 67.0226 34.8698 67.0694C34.0514 67.8331 33.1808 68.1988 32.2753 68.1515C31.6471 68.1105 31.0433 67.8923 30.534 67.5222C30.3675 67.8065 30.1661 68.0689 29.9345 68.3033C29.6538 68.5973 29.3164 68.8315 28.9428 68.9918C28.5692 69.1521 28.167 69.2352 27.7604 69.2361Z" fill="#15006D"/>
<path d="M40.6446 61.7474C42.0507 61.363 43.0809 60.6507 42.9458 60.1563C42.8107 59.662 41.5613 59.5729 40.1553 59.9573C38.7492 60.3417 37.7189 61.054 37.8541 61.5483C37.9892 62.0426 39.2386 62.1317 40.6446 61.7474Z" fill="#FF8080"/>
<path d="M19.5471 68.235C20.9336 67.7851 21.9293 67.0252 21.7711 66.5378C21.6129 66.0504 20.3607 66.02 18.9743 66.47C17.5878 66.9199 16.5921 67.6798 16.7503 68.1672C16.9085 68.6546 18.1606 68.685 19.5471 68.235Z" fill="#FF8080"/>
<path d="M23.2995 64.2635C23.5963 63.8916 23.8085 63.4595 23.9214 62.9973C24.2025 61.863 24.0482 60.6416 23.7945 59.5148C23.1776 56.7784 21.4537 54.8506 19.9463 55.1914C18.4388 55.5322 17.7075 58.0222 18.3293 60.7511C18.5809 61.9538 19.1061 63.0825 19.8642 64.0496C20.1004 64.3537 20.4017 64.6009 20.7462 64.7732C21.0906 64.9454 21.4692 65.0381 21.8542 65.0446C22.1377 65.0287 22.4143 64.9505 22.6641 64.8155C22.9139 64.6805 23.1309 64.492 23.2995 64.2635Z" fill="#15006D"/>
<path d="M22.0757 61.0061C22.5246 60.9046 22.7131 60.0467 22.4968 59.0899C22.2805 58.1332 21.7412 57.4398 21.2923 57.5413C20.8434 57.6428 20.6549 58.5007 20.8712 59.4575C21.0875 60.4143 21.6268 61.1076 22.0757 61.0061Z" fill="white"/>
<path d="M17.5241 53.2954C18.427 52.4049 19.4843 51.987 20.5091 52.1163C21.534 52.2457 22.4444 52.9148 23.0987 54.0019C23.1561 54.0954 23.1775 54.2066 23.1587 54.3147C23.1399 54.4228 23.0823 54.5203 22.9967 54.589C22.9261 54.6484 22.8396 54.6856 22.7479 54.6959C22.6872 54.7025 22.6258 54.6964 22.5675 54.678C22.5093 54.6596 22.4555 54.6293 22.4096 54.589C21.8232 54.0643 21.0912 53.7303 20.3107 53.6312C19.5301 53.5321 18.7378 53.6727 18.039 54.0342C17.9433 54.0817 17.8338 54.0929 17.7304 54.066C17.6271 54.039 17.5371 53.9756 17.4768 53.8875C17.411 53.8 17.3794 53.6916 17.3881 53.5825C17.3968 53.4734 17.4452 53.3713 17.5241 53.2954Z" fill="#15006D"/>
<path d="M35.7982 50.4299C34.5992 50.1065 33.4748 50.2458 32.6315 50.8229C31.7882 51.4 31.2733 52.3801 31.1813 53.5891C31.1722 53.6931 31.2024 53.7968 31.2659 53.8796C31.3295 53.9625 31.4217 54.0186 31.5246 54.0368C31.6122 54.0539 31.7029 54.0453 31.7857 54.012C31.8417 53.9892 31.8926 53.9554 31.9353 53.9127C31.978 53.87 32.0117 53.8192 32.0345 53.7632C32.3291 53.0471 32.8262 52.4324 33.4648 51.9945C34.1143 51.5545 34.8749 51.3071 35.6589 51.2806C35.7641 51.2778 35.8651 51.2382 35.9442 51.1686C36.0232 51.0991 36.0755 51.0041 36.0917 50.9C36.111 50.7991 36.0915 50.6946 36.037 50.6074C35.9826 50.5203 35.8973 50.4569 35.7982 50.4299Z" fill="#15006D"/>
<path d="M49.8718 68.0914C48.6131 69.8128 47.7873 71.8402 48.6504 73.9248C49.832 76.773 52.5335 80.1437 55.6678 80.0143C58.0111 79.9223 61.7673 72.3377 62.9042 69.788C64.1504 67.0976 65.1866 64.3148 66.0036 61.4646C67.1778 57.1263 68.2425 49.492 64.0783 46.2681C61.2051 44.0293 55.8693 42.8054 53.7425 47.7134C52.1902 51.3004 56.6803 54.7258 56.6828 54.7283C57.1803 57.1014 50.7524 66.8601 49.9514 67.982C49.9315 68.0168 49.8992 68.0541 49.8718 68.0914Z" fill="white"/>
<path d="M55.5061 80.5298C52.2921 80.5298 49.4588 77.2338 48.1653 74.1169C47.3593 72.1716 47.7921 70.0373 49.4489 67.7736L49.526 67.6667C51.1578 65.3806 56.2697 57.1816 56.1876 54.9926C55.2648 54.2264 51.7474 50.9975 53.2623 47.4951C54.0682 45.6344 55.409 44.4155 57.1429 43.9727C59.8319 43.2836 62.7324 44.5498 64.3991 45.8433C69.2871 49.6393 67.2498 58.8557 66.5085 61.592C65.6578 64.7363 64.3916 67.7313 63.3817 69.9925C62.608 71.7338 58.5881 80.4154 55.6877 80.5273L55.5061 80.5298ZM50.2822 68.393C48.8394 70.3706 48.4588 72.1094 49.1255 73.7139C50.3071 76.5671 52.8568 79.587 55.6354 79.4801C57.1951 79.4204 60.2921 74.3259 62.4165 69.5647C63.4115 67.3408 64.6553 64.393 65.4861 61.3159C66.1851 58.7413 68.123 50.0697 63.7448 46.6717C62.1453 45.4279 59.5608 44.4329 57.3916 44.9876C55.9638 45.3533 54.9041 46.3383 54.2125 47.913C52.8643 51.0274 56.8195 54.1692 56.9886 54.3035L57.1329 54.4154L57.1802 54.5995C57.7623 57.4254 50.4389 68.1716 50.3643 68.2811L50.2822 68.398V68.393Z" fill="#15006D"/>
<path d="M24.8075 107.42C23.5364 103.664 21.2254 98.5895 17.3648 95.8084C15.0787 94.1641 13.3026 94.1044 13.2852 94.1044L13.3026 93.0547C13.621 93.0547 21.1832 93.3209 25.7901 107.087L24.8075 107.42Z" fill="#15006D"/>
<path d="M62.6996 59.9151C59.1076 59.9151 55.9583 57.3305 55.916 57.2932L56.5877 56.4897C57.608 57.2867 58.7459 57.9203 59.9608 58.3679C62.4732 59.2708 64.6449 58.9823 66.416 57.5121L67.0851 58.3206C65.8609 59.3592 64.305 59.9248 62.6996 59.9151Z" fill="#15006D"/>
<g style="mix-blend-mode:multiply">
<g style="mix-blend-mode:multiply">
<path d="M18.3397 45.8457C18.9367 38.7462 28.2651 38.3656 28.6755 33.4303L28.5312 32.7114C26.4168 36.8656 19.9268 37.7935 17.7999 42.4627C17.6432 42.8034 17.1457 44.0398 17.5039 45.3109C18.0487 46.4029 18.3148 46.0696 18.3397 45.8457Z" fill="#E3E4E5"/>
</g>
</g>
<g style="mix-blend-mode:multiply">
<path d="M64.0777 46.266C62.5131 45.0521 60.2171 44.1367 58.1076 44.3431C59.2046 44.6964 60.8215 45.1765 61.6474 45.8158C65.8016 49.0496 65.5106 55.766 64.3365 60.0968C63.5603 62.9625 61.6797 66.6292 60.4733 69.3356C59.4335 71.664 55.5106 78.6316 51.2021 77.858C53.1375 79.7685 54.8365 80.0421 55.6673 80.0122C58.0106 79.9202 61.7668 72.3356 62.9036 69.7859C64.1498 67.0955 65.1861 64.3127 66.0031 61.4625C67.1772 57.1242 68.232 49.4899 64.0777 46.266Z" fill="#E3E4E5"/>
</g>
<path d="M30.1134 88.3831L31.3845 94.801C31.4254 95.0096 31.5247 95.2022 31.671 95.3564C31.8172 95.5105 32.0043 95.6199 32.2104 95.6717C34.0388 96.1269 38.8845 96.8806 44.5984 95.4851C44.7377 95.4446 44.8676 95.3769 44.9806 95.2859C45.0937 95.195 45.1876 95.0825 45.2569 94.9551C45.3263 94.8277 45.3698 94.6879 45.3848 94.5436C45.3999 94.3993 45.3863 94.2534 45.3447 94.1144L43.0586 86.6791C43.018 86.5329 42.9483 86.3964 42.8536 86.2778C42.7589 86.1592 42.6413 86.061 42.5077 85.989C42.3741 85.917 42.2274 85.8727 42.0763 85.8588C41.9251 85.8448 41.7728 85.8616 41.6283 85.908C39.6582 86.5473 35.3845 86.9528 31.193 87.0423C31.0289 87.0453 30.8674 87.0844 30.72 87.1566C30.5726 87.2288 30.4428 87.3326 30.3399 87.4604C30.2369 87.5883 30.1633 87.7372 30.1241 87.8966C30.085 88.056 30.0813 88.2221 30.1134 88.3831Z" fill="white"/>
<path d="M37.8991 96.808C35.9425 96.8259 33.9906 96.6146 32.0832 96.1786C31.7812 96.1019 31.507 95.9413 31.2923 95.7156C31.0775 95.4898 30.9309 95.208 30.8692 94.9025L29.5981 88.4896C29.5512 88.254 29.5564 88.0111 29.6135 87.7778C29.6705 87.5445 29.778 87.3265 29.9283 87.1392C30.0786 86.9519 30.2682 86.7997 30.4836 86.6935C30.699 86.5873 30.9351 86.5296 31.1752 86.5244C35.6379 86.4274 39.6752 85.9921 41.4613 85.415C41.6731 85.3462 41.8968 85.3211 42.1186 85.3412C42.3405 85.3613 42.556 85.4263 42.752 85.5321C42.948 85.6379 43.1206 85.7824 43.2592 85.9568C43.3977 86.1312 43.4995 86.3319 43.5583 86.5468L45.8394 93.9622C45.9015 94.1814 45.919 94.4108 45.8908 94.6368C45.8625 94.8629 45.7892 95.081 45.6752 95.2781C45.5733 95.456 45.4363 95.6112 45.2725 95.7344C45.1087 95.8575 44.9216 95.9461 44.7224 95.9946C42.4887 96.5375 40.1979 96.8106 37.8991 96.808ZM30.6279 88.2806L31.8991 94.6985C31.9211 94.8093 31.9738 94.9117 32.0512 94.994C32.1286 95.0763 32.2276 95.1351 32.3369 95.1637C33.2772 95.3975 38.2822 96.4896 44.4737 94.9747C44.5984 94.9398 44.7046 94.8577 44.7697 94.7458C44.8127 94.6712 44.8405 94.5889 44.8516 94.5035C44.8627 94.4181 44.8569 94.3314 44.8344 94.2483L42.5508 86.8279C42.5313 86.748 42.4954 86.6729 42.4455 86.6075C42.3955 86.5421 42.3326 86.4877 42.2607 86.4478C42.1887 86.4079 42.1093 86.3832 42.0274 86.3754C41.9455 86.3676 41.8628 86.3769 41.7846 86.4025C39.5085 87.1488 34.8195 87.4846 31.1976 87.5617C31.1111 87.5626 31.0259 87.5829 30.9484 87.6212C30.8709 87.6596 30.803 87.7149 30.7498 87.7831C30.6939 87.8518 30.6539 87.9321 30.6328 88.0181C30.6117 88.1042 30.6101 88.1939 30.6279 88.2806Z" fill="#15006D"/>
<g style="mix-blend-mode:multiply">
<path d="M40.914 91.4994C41.7122 91.4994 42.3593 90.8524 42.3593 90.0542C42.3593 89.256 41.7122 88.6089 40.914 88.6089C40.1158 88.6089 39.4688 89.256 39.4688 90.0542C39.4688 90.8524 40.1158 91.4994 40.914 91.4994Z" fill="#E3E4E5"/>
</g>
<path d="M38.3094 96.3954L37.4537 92.3307L34.8567 91.3705L33.9736 86.7561L35.0035 86.5596L35.7746 90.5919L38.3592 91.5496L39.3343 96.179L38.3094 96.3954Z" fill="#15006D"/>
<g style="mix-blend-mode:multiply">
<path d="M25.8026 106.559C22.7703 109.544 18.7952 110.378 14.8574 108.758C10.3499 106.897 5.05639 101.962 8.23051 96.1587C7.39481 96.5486 6.66845 97.1391 6.11609 97.8776C1.50913 104.176 7.20315 109.656 12.0091 111.624C15.9544 113.243 19.9295 112.415 22.9544 109.427C24.126 108.291 26.1434 106.236 25.8026 106.559Z" fill="#E3E4E5"/>
</g>
<g style="mix-blend-mode:multiply">
<g style="mix-blend-mode:multiply">
<path d="M45.885 111.398C38.482 108.662 37.7383 103.687 37.6039 103.055C37.3654 103.935 37.208 104.835 37.1338 105.744C37.186 108.254 38.1985 111.918 43.0343 114.271C46.9447 116.177 49.8029 113.552 51.4621 111.154C49.9522 112.104 48.191 112.249 45.885 111.398Z" fill="#E3E4E5"/>
</g>
</g>
<g style="mix-blend-mode:multiply">
<path d="M59.8189 90.3159L59.9482 90.199L59.5129 89.3309L58.7244 87.7612C58.702 87.7911 52.197 96.5597 35.3015 96.1592L33.7617 95.9776C33.7617 95.9776 38.2642 98.6891 46.9632 97.0871C50.8114 96.3806 53.1448 95.8607 56.6945 93.9677C57.799 95.6717 60.401 103.891 58.0726 109.739C58.0652 109.739 64.3438 105.095 59.8189 90.3159Z" fill="#E3E4E5"/>
</g>
<g style="mix-blend-mode:multiply">
<path d="M12.5214 94.4399C12.5214 94.4399 14.4094 94.5718 15.3497 96.9996C15.3497 96.9996 12.9493 95.8703 11.5264 95.6439L12.5214 94.4399Z" fill="#E3E4E5"/>
</g>
<path d="M40.384 90.686C40.9871 90.686 41.4761 90.1971 41.4761 89.594C41.4761 88.9909 40.9871 88.502 40.384 88.502C39.7809 88.502 39.292 88.9909 39.292 89.594C39.292 90.1971 39.7809 90.686 40.384 90.686Z" fill="#2DB7C4"/>
<path d="M40.3873 91.2086H40.2828C39.9095 91.1848 39.556 91.0324 39.2825 90.7772C39.009 90.5221 38.8324 90.18 38.7828 89.8092C38.7332 89.4385 38.8138 89.062 39.0106 88.7439C39.2075 88.4259 39.5085 88.1859 39.8625 88.0649C40.2164 87.944 40.6014 87.9494 40.9517 88.0804C41.3021 88.2114 41.5962 88.4598 41.7839 88.7834C41.9717 89.1069 42.0415 89.4855 41.9814 89.8547C41.9213 90.2239 41.7351 90.5608 41.4544 90.8081C41.1598 91.0679 40.7801 91.2104 40.3873 91.2086ZM40.3873 89.0245C40.2496 89.0241 40.1167 89.0746 40.0141 89.1663C39.9549 89.2143 39.906 89.2738 39.8703 89.3412C39.8346 89.4086 39.8128 89.4825 39.8063 89.5584C39.7998 89.6344 39.8087 89.7109 39.8324 89.7834C39.8562 89.8558 39.8943 89.9228 39.9445 89.9802C39.9947 90.0376 40.056 90.0843 40.1246 90.1174C40.1933 90.1506 40.2679 90.1696 40.3441 90.1733C40.4202 90.177 40.4964 90.1652 40.5679 90.1388C40.6394 90.1124 40.7049 90.0718 40.7604 90.0195C40.8167 89.9704 40.8626 89.9106 40.8955 89.8435C40.9284 89.7765 40.9476 89.7035 40.9519 89.629C40.957 89.5546 40.9473 89.4799 40.9233 89.4093C40.8994 89.3387 40.8617 89.2736 40.8124 89.2176C40.7632 89.1616 40.7033 89.116 40.6363 89.0833C40.5693 89.0505 40.4965 89.0314 40.4221 89.027L40.3873 89.0245Z" fill="#15006D"/>
<g style="mix-blend-mode:multiply">
<path d="M58.8394 83.0173C58.8394 83.0173 57.8842 80.3406 56.6305 80.46C56.6305 80.46 50.4116 80.2411 48.3195 72.5496C48.1655 71.8945 48.0566 71.2296 47.9937 70.5596C45.8867 74.3183 40.0335 77.9576 33.8817 79.179C26.9638 80.5471 23.0136 79.4277 20.8594 77.1093C21.8121 77.9601 21.4838 78.2337 21.6778 79.179C21.944 80.4675 26.2126 82.6864 34.3171 81.2735C37.9016 80.6491 43.623 78.169 46.3146 76.2859C48.0036 78.1516 52.6703 83.7212 54.9638 89.0471C49.6354 92.5769 45.1429 93.3108 45.1429 93.3108L44.9165 92.5769C38.2797 95.5197 31.0409 93.0745 31.0409 93.0745L30.7922 91.8307C27.7922 89.3456 23.5634 88.6093 23.5634 88.6093C23.847 89.2286 24.1797 89.8242 24.5584 90.3904C28.4166 91.669 31.3917 94.8008 31.3917 94.8008C33.4962 97.3083 42.9887 95.7958 42.9887 95.7958C45.2275 95.3456 45.3892 94.9327 45.3892 94.9327C48.475 94.1756 51.438 92.9855 54.1902 91.3978C55.5523 90.7193 56.7869 89.8104 57.8394 88.7113C58.4563 88.1267 59.0409 87.4177 59.1354 87.0421C59.4787 86.0023 59.5285 84.9874 58.8394 83.0173Z" fill="#E3E4E5"/>
</g>
<circle cx="58.9429" cy="42.6426" r="22.7603" fill="url(#paint0_radial)"/>
<path d="M46.2324 37.3493C46.0346 37.0447 61.2623 33.2952 65.1661 32.3301C65.1661 32.3301 70.3238 36.4712 72.8789 38.5497C72.8789 38.5497 57.4831 44.0159 55.011 44.0376C55.013 44.0455 47.7116 39.5385 46.2324 37.3493Z" fill="#AD8366"/>
<path d="M72.8802 38.5498L72.3146 49.8223L54.8008 54.3708L55.0124 44.0456C55.0124 44.0456 71.397 39.1154 72.8802 38.5498Z" fill="#FFFBEE"/>
<path d="M46.2316 37.3496C46.2316 37.3496 45.2645 47.0004 46.2316 48.806C46.2316 48.806 52.4611 54.1594 54.7927 54.371L55.0122 44.0458C55.0122 44.0458 49.3621 40.67 46.2316 37.3496Z" fill="#F0EBDB"/>
<path d="M72.7315 41.3443C72.241 41.2533 71.8534 40.8855 71.361 40.8005C71.1245 40.7646 70.8832 40.7759 70.6511 40.8336C70.4189 40.8913 70.2005 40.9943 70.0083 41.1367C69.5693 41.463 69.3043 41.9613 68.974 42.3984C68.2284 43.3872 67.1743 43.3714 66.0867 43.0174C64.9001 42.6337 63.6957 42.5882 62.7563 43.5355C62.4063 43.8895 62.1354 44.3523 61.6825 44.5639C60.935 44.9179 60.1004 44.469 59.3271 44.645C58.5539 44.821 57.9725 45.4044 57.3357 45.8019C56.6396 46.235 55.8188 46.4802 55.0021 46.2963C54.0548 46.3536 53.1767 45.9561 52.4608 45.3569C51.7449 44.7577 51.3376 43.4169 50.503 43.0114C50.0917 42.8137 49.6289 42.7603 49.1839 42.6555C48.8688 42.5951 48.5702 42.4685 48.3077 42.284C48.0451 42.0996 47.8248 41.8615 47.6612 41.5856C47.058 40.5256 47.141 39.6653 46.0039 38.9395L46.2294 37.3574C46.2294 37.3574 51.6204 42.4735 55.012 44.0457C55.012 44.0457 72.1718 38.7912 72.8798 38.5578L72.7315 41.3443Z" fill="#A07555"/>
<path d="M54.8224 44.3443C54.5218 44.1604 47.436 39.7799 45.9409 37.5511C45.9087 37.5005 45.8883 37.4433 45.8815 37.3836C45.8746 37.324 45.8814 37.2636 45.9014 37.207C46.0003 36.9519 46.0616 36.7977 53.8712 34.7904C57.959 33.7383 62.5391 32.615 64.7481 32.0632L65.0962 31.9782C65.1501 31.9645 65.2064 31.9637 65.2606 31.9757C65.3149 31.9877 65.3656 32.0123 65.4087 32.0474C65.4601 32.0889 70.5979 36.2143 73.1214 38.271L72.6626 38.8307C70.3784 36.9677 65.9387 33.4001 65.0982 32.7238L64.9241 32.7653C52.2555 35.8939 47.9542 37.0765 46.8032 37.478C48.6582 39.6791 55.1448 43.6877 55.214 43.7292L54.8224 44.3443Z" fill="#15006D"/>
<path d="M54.8015 54.725C54.7199 54.7245 54.6407 54.6975 54.576 54.6478C54.5323 54.6128 54.4972 54.5682 54.4735 54.5175C54.4499 54.4667 54.4382 54.4111 54.4396 54.3552L54.6512 44.0221C54.6523 43.9456 54.6779 43.8716 54.7241 43.8107C54.7704 43.7499 54.8349 43.7054 54.9082 43.6839C55.0724 43.6345 71.2988 38.7596 72.7523 38.2059C72.8085 38.1839 72.8694 38.1764 72.9292 38.1841C72.9891 38.1917 73.046 38.2143 73.0949 38.2498C73.1437 38.2852 73.1829 38.3324 73.2087 38.3869C73.2346 38.4415 73.2463 38.5016 73.2428 38.5619L72.6772 49.8343C72.6733 49.9113 72.6449 49.9851 72.5962 50.0449C72.5475 50.1046 72.4809 50.1473 72.4063 50.1665L54.8924 54.7151C54.8626 54.7221 54.8321 54.7254 54.8015 54.725ZM55.369 44.3009L55.1713 53.8924L71.9672 49.5238L72.4933 39.0602C69.5684 40.0352 57.3565 43.7096 55.369 44.3088V44.3009Z" fill="#15006D"/>
<path d="M54.801 54.7252H54.7674C52.3487 54.5057 46.2636 49.2967 46.0045 49.0732C45.9706 49.0445 45.9424 49.0096 45.9215 48.9704C44.9327 47.1233 45.7811 38.307 45.8819 37.3024C45.889 37.2335 45.9157 37.168 45.9589 37.1139C46.0021 37.0597 46.0599 37.0191 46.1255 36.9968C46.1911 36.9745 46.2617 36.9715 46.329 36.9882C46.3962 37.0048 46.4573 37.0404 46.5049 37.0908C49.5544 40.3341 55.1411 43.6822 55.2064 43.7158C55.2618 43.7482 55.3074 43.7948 55.3387 43.8508C55.37 43.9068 55.3858 43.9701 55.3844 44.0342L55.1708 54.3673C55.1697 54.4166 55.1587 54.4651 55.1383 54.51C55.1179 54.5549 55.0886 54.5951 55.0522 54.6283C54.9837 54.6912 54.894 54.7258 54.801 54.7252ZM46.5306 48.5709C48.172 49.975 52.4318 53.3607 54.4411 53.9283L54.6388 44.2379C53.6935 43.6624 49.3962 40.9827 46.5207 38.1587C46.2577 41.1845 45.8839 47.1846 46.5306 48.5788V48.5709Z" fill="#15006D"/>
<defs>
<radialGradient id="paint0_radial" cx="0" cy="0" r="1" gradientUnits="userSpaceOnUse" gradientTransform="translate(58.9429 42.6426) rotate(90) scale(22.7603)">
<stop offset="0.21875" stop-color="#FFD654" stop-opacity="0"/>
<stop offset="0.963542" stop-color="#FFD654" stop-opacity="0.8"/>
</radialGradient>
</defs>
</svg>
