<svg width="103" height="110" viewBox="0 0 103 110" fill="none" xmlns="http://www.w3.org/2000/svg">
<ellipse cx="61.3509" cy="58.663" rx="38.8131" ry="39.1006" fill="url(#paint0_linear)"/>
<path d="M46.7199 35.6185C46.7199 35.6185 37.0113 42.4014 38.9612 56.0098C39.1944 57.3347 40.2861 60.0645 40.2861 60.0645C40.2861 60.0645 41.1444 59.3629 41.6127 61.6245C42.0811 62.871 44.3034 66.4984 49.3126 68.3699C54.1865 70.1239 57.8709 70.3002 60.6007 70.2023C63.3306 70.1043 69.2765 68.4215 71.7713 67.2587C74.2661 66.0959 78.0039 63.7097 79.0047 61.8577C80.1942 62.189 81.7346 62.1516 81.7346 62.1516C81.7346 62.1516 81.7916 59.3825 80.5646 58.3693C82.4166 58.9534 85.0165 59.0513 85.0165 59.0513C85.0165 59.0513 84.899 57.2973 83.948 56.2431C82.9971 55.1889 82.7585 54.7027 82.7585 54.7027L83.2268 49.6543C83.2268 49.6543 82.3489 43.1048 80.8282 41.5253C82.0177 40.3357 86.7545 35.7735 86.7741 35.6755L86.7937 35.5794L93.2043 27.0015L96.7516 20.5481L98.8974 14.6717L100.436 8.93949L101.645 2.35075C101.645 2.35075 101.743 -1.19827 96.8103 1.86282C91.8973 4.98268 84.021 10.6543 84.021 10.6543L76.7699 17.8877C76.7699 17.8877 71.6057 24.6723 71.5256 24.6545C71.4455 24.6367 67.4121 31.3412 67.4121 31.3412L61.9915 29.7225L60.7966 23.1979L58.7488 15.3412L55.8836 8.80949C55.8836 8.80949 54.0904 6.54795 49.8789 8.20582C45.6283 9.8815 43.153 11.5785 43.153 11.5785C43.153 11.5785 38.7279 13.0797 37.4547 16.18C36.1814 19.2802 34.3152 27.7014 34.3152 27.7014L33.6332 33.2217C33.6332 33.2217 33.1471 36.9452 37.5508 33.8645C40.8648 31.0581 43.9847 28.2107 43.9847 28.2107L46.9852 35.542L46.7199 35.6185Z" fill="white"/>
<path d="M60.7574 60.9621C60.7574 60.9621 56.0384 60.2213 54.4411 64.3936C56.7026 65.0952 59.5091 64.3936 60.7574 60.9621Z" fill="#FF8080"/>
<path d="M53.4653 59.9863L54.3236 64.082C54.3236 64.082 55.766 60.768 60.7575 60.9639L60.7966 59.1315C60.7966 59.1315 58.0667 61.3539 55.9227 58.8181C55.1475 59.2938 54.3237 59.6854 53.4653 59.9863Z" fill="#A34B4B"/>
<path d="M57.5201 59.9096C57.5201 59.9096 56.4676 60.2657 56.1952 62.0928C57.4417 61.3128 60.5616 60.8463 60.7575 60.962C60.9534 61.0777 60.9908 59.4021 60.9908 59.4021L58.8823 60.1037L57.5201 59.9096Z" fill="#873C3C"/>
<path d="M45.9007 67.3958L38.9878 67.5508L37.4795 68.0191L29.4217 68.0707L23.1303 70.6706C23.1303 70.6706 22.8187 71.2939 23.7554 72.5938C23.9619 76.0769 22.3503 80.0729 32.0732 79.6117C33.3692 79.3378 34.5386 78.6436 35.3996 77.6369C35.3996 77.6369 44.0291 76.4402 46.7857 77.7918C46.9406 80.4433 47.0457 81.12 47.0457 81.12L51.9373 82.3184C51.9373 82.3184 51.4174 80.7069 55.2638 80.8636C58.9036 81.0185 63.6332 81.0185 63.6332 81.0185L64.9314 82.6301L74.7575 80.9668C74.7575 80.9668 68.9879 84.7064 70.5995 89.5963C71.8995 93.4445 76.8891 94.951 80.6322 92.6129C84.1669 90.4297 87.3385 85.0216 87.3385 85.0216C87.3385 85.0216 89.99 80.5519 88.69 76.6521C87.3901 72.7523 82.3488 66.9827 76.7858 65.1628C74.0826 69.5292 68.0513 71.7658 68.0513 71.7658C68.0513 71.7658 57.7069 75.1973 51.2589 71.869C47.9841 70.5175 46.1126 67.3994 46.1126 67.3994" fill="white"/>
<path d="M45.5375 66.3025C45.5375 66.3025 46.9924 71.8655 55.3637 73.0693C62.4332 74.2125 74.3392 71.1461 76.7325 64.2831C71.2728 67.6096 62.8 71.2494 56.5087 69.8462C51.0471 69.3191 45.5375 66.3025 45.5375 66.3025Z" fill="#FCEE21"/>
<path d="M47.2007 88.1949C47.2007 88.1949 43.8743 101.244 45.8491 105.976C46.8374 108.314 49.6973 108.627 51.2554 108.73C52.8135 108.834 59.055 108.419 59.6249 106.65C59.7282 105.144 59.1049 98.8526 60.2998 96.9811C62.0164 97.1894 64.8229 96.9294 64.8229 96.9294L66.7461 106.442C66.7461 106.442 67.1022 110.29 74.7007 109.302C80.107 108.574 80.7836 104.884 80.7836 104.884L79.3787 93.3947C79.3787 93.3947 74.5528 95.3179 71.4276 91.2044C69.8677 89.0675 69.971 88.5012 69.971 88.5012L64.8763 89.2811L64.7214 82.4716C64.7214 82.4716 64.7214 81.015 62.5845 80.86C60.4476 80.6517 53.3246 81.12 53.3246 81.12C53.3246 81.12 51.8698 81.2749 52.1814 85.0181C52.3381 88.1379 52.233 89.1262 52.233 89.1262C52.233 89.1262 47.2007 88.3979 47.2007 88.1949Z" fill="white"/>
<path d="M65.1363 82.6266V89.0212L69.971 88.5012C69.971 88.5012 70.2844 83.4599 74.3908 81.1201C71.5256 82.0033 65.1363 82.6266 65.1363 82.6266Z" fill="#BEC2DC"/>
<path d="M51.9375 82.3185L51.7808 89.0853C51.7808 89.0853 45.3861 89.0853 46.1144 86.1204C46.1144 82.8973 46.5311 81.7024 46.5311 81.7024L47.0511 81.1308L51.9375 82.3185Z" fill="#BEC2DC"/>
<path d="M60.7699 82.7833C60.7699 82.7833 58.5351 83.6737 60.4138 85.4348C61.6603 86.5264 62.597 84.5445 62.597 84.5445C62.597 84.5445 62.6415 82.42 60.7699 82.7833Z" fill="#00FFFF"/>
<path d="M70.856 32.9795L77.5622 39.1142C77.5622 39.1142 84.2685 33.7595 88.0686 28.0398C91.8687 22.32 94.7749 15.3039 94.7749 15.3039L96.5948 8.07766C96.5948 8.07766 95.3483 5.68612 89.8885 10.5208C84.4822 15.4072 77.5141 23.6734 77.5141 23.6734L70.856 32.9795Z" fill="#FF8080"/>
<path d="M53.5402 12.2233C53.5402 12.2233 58.0117 24.0901 58.0117 28.9765C56.555 29.6532 53.7486 27.8849 53.7486 27.8849C53.7486 27.8849 52.9686 30.2248 54.6389 32.0963C54.119 32.7712 51.3125 31.108 51.3125 31.108L51.0472 33.3963L49.8381 33.512L46.7841 25.1817C46.7841 25.1817 52.0889 17.058 53.5402 12.2233Z" fill="#FF8080"/>
<path d="M6.28653 52.0335C6.28653 52.0335 0.588168 56.3215 3.40174 69.3441C4.88331 76.7519 7.69154 74.6471 8.78313 72.9323C9.87472 71.2174 11.2762 66.0693 11.0447 63.1061C10.8132 60.143 10.1864 51.9551 6.28653 52.0335Z" fill="#EFEFEF"/>
<path d="M9.40619 50.8885C9.40619 50.8885 12.031 53.93 12.6115 58.9464C12.9079 61.787 12.9252 64.6499 12.6632 67.4939C12.6632 67.4939 11.8316 72.6403 9.90659 74.9018C11.1032 75.0799 12.7665 74.0969 12.7665 74.0969L29.1172 67.8323C29.1172 67.8323 32.0804 58.9677 28.1556 55.8746C23.8587 54.8151 9.40619 50.8885 9.40619 50.8885Z" fill="#EFEFEF"/>
<path d="M28.6934 55.9636C28.6934 55.9636 31.5532 61.8899 29.4217 68.2845C33.7881 68.1278 36.3879 67.9729 36.3879 67.9729C37.427 66.0293 37.8787 63.8255 37.6879 61.6299C37.4977 59.4341 36.8794 57.2968 35.868 55.3385L28.6934 55.9636Z" fill="#DD2626"/>
<path d="M6.18308 50.3435L6.13143 52.0584C6.13143 52.0584 8.15793 50.9668 9.9262 55.4899C11.2261 58.9213 11.0178 66.1476 11.0178 66.1476C11.0178 66.1476 10.6029 70.254 8.73133 73.4255C7.43139 75.6087 5.19476 73.7816 5.19476 73.7816V75.3415C5.19476 75.3415 6.44127 77.7847 9.14622 75.1866C11.8512 72.5885 12.8858 63.9056 12.8858 63.9056L11.8975 56.0027C11.8975 56.0027 10.2895 49.0952 6.18308 50.3435Z" fill="#DD2626"/>
<path d="M6.54636 50.3435L6.28634 52.0335C6.28634 52.0335 3.27156 53.2551 2.69995 59.7013C2.28325 64.1194 2.3883 68.4875 4.1548 71.7107C5.04517 73.5288 5.97471 74.3622 5.97471 74.3622L5.45475 75.5054C5.45475 75.5054 3.31788 73.8938 2.80324 71.7659C2.28861 69.6379 0.465109 63.5513 1.5567 59.1849C2.6483 54.8185 2.64831 51.7058 6.75469 50.1388" fill="#DD2626"/>
<path d="M36.0765 55.5932C36.0765 55.5932 40.1829 62.1446 36.3881 67.9676L38.208 68.0192C38.208 68.0192 40.2345 67.0826 40.0796 62.0929C39.9247 57.1033 37.843 55.2816 37.843 55.2816L36.0765 55.5932Z" fill="#EFEFEF"/>
<path d="M10.5494 60.1163C10.5494 60.1163 7.43136 60.3763 8.26296 63.7045C8.99129 65.6793 10.5494 65.471 10.5494 65.471V60.1163Z" fill="#FCEE21"/>
<path d="M40.2861 60.0593L40.2344 64.0624C40.2344 64.0624 41.2227 64.6857 41.4311 62.3992C41.4781 61.9412 41.3957 61.4791 41.1933 61.0655C40.9909 60.6519 40.6766 60.3033 40.2861 60.0593Z" fill="#FCEE21"/>
<path d="M27.4985 79.6119C27.4985 79.6119 27.2902 81.7487 30.0967 81.6918C32.9031 81.6348 34.4114 80.8602 34.4114 80.8602L34.4648 78.5203C34.4648 78.5203 32.6449 80.3918 27.4985 79.6119Z" fill="#DD2626"/>
<g opacity="0.54">
<path opacity="0.54" d="M99.9159 10.7328C99.9159 10.7328 97.4229 17.0758 92.2214 21.5454C93.9896 17.2823 95.5496 13.2276 95.5496 13.2276C95.5496 13.2276 82.9686 38.1811 71.116 33.0864C78.0823 39.4294 82.552 44.6274 81.0971 53.9852C82.552 54.6102 82.8653 54.8186 82.8653 54.8186C82.8653 54.8186 84.7352 46.9156 80.5771 41.5093C84.6319 38.6904 97.2128 23.7322 99.9159 10.7328Z" fill="#131314"/>
</g>
<g opacity="0.54">
<path opacity="0.54" d="M45.0173 30.2763C45.174 30.1196 50.9953 26.3249 52.5552 21.6469C53.3868 19.4103 54.3235 27.8795 54.3235 27.8795L53.54 27.8278C53.54 27.8278 52.4483 30.7393 51.5651 31.2593C50.6284 31.9342 49.5369 32.862 49.5369 32.862L51.0968 33.3819L51.5117 31.562L54.5799 31.822C54.5799 31.822 53.1233 29.2738 53.8516 28.2338C55.0981 28.2338 58.8947 29.1705 58.8947 29.1705L62.2211 29.5266L59.3113 17.5173C59.3113 17.5173 56.4515 9.14785 55.3599 8.31624C54.2683 7.48464 52.8116 7.69299 52.8116 7.69299C52.8116 7.69299 38.9379 38.2825 34.2047 29.1331C33.633 33.4478 33.788 35.0594 35.1396 35.111C36.3861 35.0594 43.2508 29.1331 43.2508 29.1331L44.029 28.2427L45.0173 30.2763Z" fill="#131314"/>
</g>
<g opacity="0.54">
<path opacity="0.54" d="M79.1222 61.8845C77.4572 67.1875 65.0846 72.4906 56.8629 71.3456C45.3219 69.474 41.7872 62.2994 41.7872 62.2994L42.6188 61.2612C42.6188 61.2612 48.0251 66.8759 52.1849 67.7075C66.949 71.139 75.8901 63.2361 78.0751 61.4749C76.2035 60.435 75.2669 57.9402 75.2669 57.9402L82.0319 62.0928L79.1222 61.8845Z" fill="#131314"/>
</g>
<g opacity="0.54">
<path opacity="0.54" d="M51.5689 34.1228C51.5689 34.1228 38.3629 40.0491 40.1312 55.5415C38.8846 56.1665 37.1164 51.2784 40.8595 42.3373C44.1859 34.9544 51.1005 33.3962 51.1005 33.3962L51.5689 34.1228Z" fill="#131314"/>
</g>
<g opacity="0.54">
<path opacity="0.54" d="M72.6742 72.1772C72.2148 72.1059 75.4824 77.1632 74.2341 81.437C76.5224 79.6687 78.1856 78.3172 78.1856 78.3172C78.1856 78.3172 76.0024 72.7025 72.6742 72.1772Z" fill="#131314"/>
</g>
<g opacity="0.54">
<path opacity="0.54" d="M71.9477 70.2095C71.9477 70.2095 71.636 71.456 72.6742 72.1844C73.7124 72.9127 78.2889 75.8242 78.0823 79.0473C78.7056 75.8242 78.1856 73.5359 76.6256 72.1844C75.0657 70.8328 73.7141 69.5863 74.2341 68.338C72.6742 69.6753 71.9477 70.2095 71.9477 70.2095Z" fill="#131314"/>
</g>
<g opacity="0.54">
<path opacity="0.54" d="M70.8026 89.8527C70.8026 89.8527 74.1308 92.141 79.3288 89.3328C84.3149 86.8397 88.375 82.3665 88.375 82.3665C88.375 82.3665 87.5434 87.4612 79.8488 92.9726C79.4339 96.3008 80.6804 102.122 80.6804 102.122C80.6804 102.122 82.8654 107.425 75.8973 108.889C76.9373 105.249 76.4173 95.788 75.3791 93.7081C72.4676 93.181 71.3226 91.2043 70.8026 89.8527Z" fill="#131314"/>
</g>
<g opacity="0.54">
<path opacity="0.54" d="M53.127 93.3895C53.127 93.3895 62.1731 97.9642 70.1793 94.636C66.4398 97.129 60.1983 97.0275 60.1983 97.0275C60.1983 97.0275 59.1583 103.579 59.6783 106.177C59.6783 108.777 51.8804 108.777 51.8804 108.777C52.9967 108.168 53.9541 107.304 54.6754 106.257C55.3967 105.21 55.8618 104.007 56.0331 102.747C56.6582 98.3791 55.9298 95.8843 55.9298 95.8843C55.2843 95.7523 54.685 95.452 54.1928 95.0139C53.7006 94.5758 53.3329 94.0154 53.127 93.3895Z" fill="#131314"/>
</g>
<g opacity="0.54">
<path opacity="0.54" d="M35.4513 69.1624C35.4513 69.1624 28.4851 68.5391 28.1734 70.2023C27.7585 71.7623 28.3818 77.3769 29.1101 78.0002C29.8384 78.6235 34.8281 78.7285 35.5564 75.9203C35.348 78.6235 34.5164 78.9369 34.5164 78.9369L34.4114 81.3284L29.1101 81.535C29.1101 81.535 27.3418 80.8084 27.3418 79.3518C25.9902 79.1434 22.8704 79.0402 23.6022 72.4906C22.7706 71.3456 22.6674 70.7223 22.6674 70.7223L29.1137 68.1224H35.5546L35.4513 69.1624Z" fill="#131314"/>
</g>
<g opacity="0.54">
<path opacity="0.54" d="M35.647 73.7122C35.647 73.7122 42.6257 73.0088 46.3315 73.8671L46.6431 77.5319L40.0063 77.0653C40.0063 77.0653 35.1716 77.8827 35.2891 77.8061C35.4066 77.7295 35.802 75.3095 35.647 73.7122Z" fill="#131314"/>
</g>
<g opacity="0.54">
<path opacity="0.54" d="M45.7851 85.0965C45.7851 85.0965 47.5783 87.3972 51.9447 87.3972L52.023 86.3056C52.023 86.3056 58.2556 87.6305 64.9281 86.6173C64.8515 87.3189 64.8907 87.4756 64.8907 87.4756L70.3878 86.5852L70.2703 88.544L70.4662 89.4023C70.4662 89.4023 65.9431 90.0256 65.318 90.1039C64.344 91.468 64.7731 91.7066 60.9125 91.7066C57.0518 91.7066 52.8814 91.3932 52.8814 91.3932C52.8814 91.3932 51.6348 91.1207 51.3214 89.8351C49.6832 89.7959 47.2667 89.4059 46.72 87.846C46.2959 86.9716 45.9819 86.0481 45.7851 85.0965Z" fill="#131314"/>
</g>
<g opacity="0.54">
<path opacity="0.54" d="M52.9204 53.15C52.9204 53.15 53.3103 52.2151 54.1936 52.0816C55.0768 51.948 58.0916 52.0816 58.0916 52.0816C58.0916 52.0816 59.3381 52.4199 59.4966 53.3815C59.5483 52.2632 58.56 51.3016 57.5984 51.38C57 51.4281 54.6085 51.3283 54.6085 51.3283C54.6085 51.3283 52.6853 51.4868 52.9204 53.15Z" fill="#131314"/>
</g>
<g opacity="0.54">
<path opacity="0.54" d="M51.5688 31.2647C51.5688 31.2647 53.1803 35.9943 58.6383 36.2507C56.2468 37.1376 50.7888 36.8794 51.5688 31.2647Z" fill="#131314"/>
</g>
<g opacity="0.54">
<path opacity="0.54" d="M53.9604 28.0398C53.9604 28.0398 54.6869 31.7313 58.0667 32.1996C56.6635 33.3482 53.2837 31.888 53.9604 28.0398Z" fill="#131314"/>
</g>
<g opacity="0.54">
<path opacity="0.54" d="M10.9662 63.5994C10.9662 63.5994 8.82937 64.5877 8.05475 62.5078C8.41089 60.6363 10.7062 59.8563 10.7062 59.8563L9.61468 55.2264C9.61468 55.2264 6.07991 54.7064 5.87512 64.4862C6.29003 70.0475 8.62993 73.1674 9.61468 71.7125C10.5994 70.2576 10.9662 63.5994 10.9662 63.5994Z" fill="#131314"/>
</g>
<g opacity="0.54">
<path opacity="0.54" d="M1.92002 68.7992C1.87015 68.5232 4.25991 77.6886 8.62629 74.7255C10.9145 73.1656 11.6411 67.7592 11.6411 67.7592L30.0967 65.0044L37.688 65.5244L39.6628 65.4194L40.2344 62.5595L41.6911 62.5078L40.3395 64.431L38.3629 68.0192L29.103 68.1225L8.0992 75.9738C8.0992 75.9738 3.63665 78.2086 1.92002 68.7992Z" fill="#131314"/>
</g>
<g opacity="0.54">
<path opacity="0.54" d="M2.13556 61.1562C2.13556 61.0583 2.44718 52.8704 5.66319 51.428C7.90515 50.6089 9.1143 52.2472 9.8355 53.743C10.5567 55.2388 11.3954 58.6365 11.1034 61.3859C10.3038 57.1353 9.05554 53.1197 7.92477 52.5339C6.794 51.948 4.6304 53.0681 4.31877 54.2113C4.00714 55.3546 2.13556 61.1562 2.13556 61.1562Z" fill="#131314"/>
</g>
<path d="M4.41481 51.4352C4.26345 51.5955 7.48305 49.2983 10.1862 52.7351C12.6294 53.3584 29.0051 56.7899 29.0051 56.7899C29.0051 56.7899 38.5196 56.1132 38.5196 56.2699C38.5196 56.4266 37.8429 55.6466 37.8429 55.6466L28.2269 55.5932L9.35106 50.4985C9.35106 50.4985 6.33979 49.4069 4.41481 51.4352Z" fill="#F7ED92"/>
<path d="M40.391 60.9478L41.2742 61.5195L40.911 60.3762L40.391 60.9478Z" fill="#F7ED92"/>
<path d="M8.2628 62.4561C8.2628 62.4561 9.35439 60.8535 10.7558 60.9478C10.6525 59.9613 10.7042 59.8562 10.7042 59.8562C10.7042 59.8562 8.10609 59.8046 8.2628 62.4561Z" fill="white"/>
<path d="M38.776 56.537L38.5979 56.1043C38.5694 56.0312 37.8998 54.2772 38.256 50.1601C39.0181 43.1743 42.3944 38.8311 45.0922 36.4146C48.018 33.7934 50.7372 32.8371 50.8511 32.7979L51.2928 32.6448L51.5991 33.5351L51.1575 33.6865C51.1272 33.6972 48.4721 34.6392 45.6852 37.1447C43.1227 39.449 39.9138 43.5946 39.1873 50.2563C38.8543 54.1045 39.4633 55.7517 39.4704 55.7677L39.636 56.2022L38.776 56.537Z" fill="#15006D"/>
<path d="M38.6814 56.9145L38.1917 56.1167L38.5906 55.8728C38.9938 55.6206 39.423 55.4128 39.8709 55.2531L40.3161 55.1088L40.6028 55.9992L40.1577 56.1434C39.784 56.284 39.4259 56.4631 39.0892 56.6777L38.6814 56.9145Z" fill="#15006D"/>
<path d="M59.0801 70.596H58.7595C47.2755 70.4891 42.2378 63.9841 41.3457 62.6806L41.0803 62.2942L41.8532 61.7599L42.1167 62.1464C42.9644 63.3822 47.7492 69.5525 58.7719 69.654C58.8752 69.654 58.9821 69.654 59.0871 69.654C65.0277 69.654 75.1975 66.6107 78.816 61.4626L79.0866 61.0815L79.8506 61.6157L79.5817 61.9986C75.7869 67.4031 65.2272 70.5942 59.0801 70.596Z" fill="#15006D"/>
<path d="M81.2503 62.6396C78.8606 62.6396 76.4868 60.8304 76.38 60.7467L76.0096 60.4618L76.5812 59.721L76.9516 60.0059C76.989 60.0362 79.3164 61.8027 81.4248 61.6994C81.4747 60.809 80.5772 59.3256 79.9272 58.5279L79.1027 57.5111L84.623 58.6418C84.2669 57.4541 83.1522 55.0216 79.9611 54.0404L79.5141 53.9015L79.7883 53.0111L80.2353 53.1483C81.6182 53.5466 82.8629 54.3225 83.8294 55.3888C84.796 56.4551 85.4464 57.7696 85.7075 59.185L85.7983 59.8403L81.3607 58.9321C81.9501 59.867 82.6268 61.2595 82.2511 62.2941L82.1567 62.5577L81.8789 62.5986C81.6705 62.6265 81.4606 62.6402 81.2503 62.6396Z" fill="#15006D"/>
<path d="M83.1217 55.3866L82.201 55.2085L82.2883 54.7491C83.8607 46.3547 80.2369 41.723 80.1995 41.6767L79.9075 41.3206L80.634 40.7329L80.9278 41.0891C81.0899 41.2885 84.8651 46.0751 83.2072 54.9218L83.1217 55.3866Z" fill="#15006D"/>
<path d="M79.4073 42.8608L78.8589 42.104L79.2364 41.828C79.3005 41.7817 85.6239 37.15 90.3144 30.2532C95.2488 22.9521 98.1746 16.4329 99.5226 9.75686C100.603 4.64257 101.024 2.73184 101.079 2.48609C101.09 2.35432 101.136 1.51203 100.616 1.18793C100.221 0.940412 99.1486 0.785488 96.4116 2.52527C89.9244 6.62097 83.2057 11.2295 77.9952 17.2912C72.6815 23.4223 69.1254 28.4671 67.9786 31.4997L67.8129 31.9378L66.9386 31.6065L67.1042 31.1685C68.7069 26.9428 74.1684 20.2757 77.2865 16.6786C82.5913 10.5083 89.6786 5.66115 95.9112 1.73462C98.3651 0.174693 100.069 -0.263369 101.118 0.399067C102.167 1.0615 102.008 2.55198 102.008 2.61609V2.66061C102.008 2.67841 101.606 4.47874 100.45 9.9474C99.0774 16.7427 96.1053 23.3635 91.0997 30.7821C86.313 37.8267 79.8614 42.5492 79.7973 42.5973L79.4073 42.8608Z" fill="#15006D"/>
<path d="M55.7553 36.9256L55.3012 36.8117C49.9394 35.4726 50.7746 31.0082 50.7853 30.9637L50.9153 30.3173L51.4815 30.6539C52.209 31.0951 52.9966 31.4285 53.8197 31.644C52.6497 29.9968 53.257 27.7619 53.2855 27.6533L53.4457 27.0799L53.9657 27.3737C53.987 27.3862 56.3483 28.6879 60.079 28.9123H60.1021C66.2136 29.5819 69.0058 31.806 69.1198 31.9004L69.4759 32.196L68.8847 32.9208L68.5286 32.6269C68.4983 32.602 65.8058 30.49 60.0095 29.8436C57.9677 29.7398 55.9605 29.2744 54.0814 28.4689C53.9799 29.2756 53.9746 30.7554 55.0751 31.6226L55.547 31.993L55.0715 32.3598C54.2666 32.9831 52.6497 32.3295 51.6525 31.8256C51.6828 32.9279 52.1867 35.0772 55.5238 35.9106L55.9779 36.0228L55.7553 36.9256Z" fill="#15006D"/>
<path d="M67.4834 48.8246C66.8624 48.7376 66.2313 48.7533 65.6154 48.8709C65.3127 48.9289 65.015 49.0104 64.725 49.1148C64.4367 49.2227 64.1589 49.3568 63.8951 49.5155C63.6364 49.6715 63.3921 49.8503 63.1651 50.0497C62.4992 50.6576 62.0205 51.4428 61.785 52.3131L61.2864 51.6809C61.8135 51.3851 62.3837 51.1736 62.9763 51.0541C63.5728 50.9266 64.1836 50.8787 64.7926 50.9116C65.1086 50.9273 65.4225 50.9702 65.7311 51.0398C65.8896 51.0746 66.0455 51.1204 66.1977 51.1769C66.2742 51.2054 66.3508 51.2304 66.4256 51.2624L66.65 51.3693C66.7989 51.4441 66.9418 51.5304 67.0773 51.6275C67.1477 51.6726 67.2144 51.7232 67.2768 51.7788C67.3409 51.8323 67.405 51.8892 67.4637 51.9569C67.494 51.9854 67.5243 52.0121 67.5528 52.0442L67.6365 52.1421C67.6917 52.2062 67.7416 52.2757 67.7914 52.3415C67.8859 52.4859 67.9647 52.6399 68.0265 52.801C68.0273 52.8032 68.0277 52.8056 68.0276 52.8079C68.0275 52.8103 68.027 52.8126 68.026 52.8148C68.025 52.817 68.0236 52.8189 68.0218 52.8205C68.0201 52.8221 68.018 52.8233 68.0158 52.8241C68.0133 52.8254 68.0106 52.826 68.0078 52.826C68.005 52.826 68.0022 52.8254 67.9998 52.8241C67.8787 52.7511 67.7611 52.671 67.6436 52.6015L67.4531 52.5054C67.3916 52.4703 67.3273 52.4405 67.2608 52.4163C67.1297 52.362 66.996 52.3144 66.8601 52.2739C66.7252 52.2294 66.5878 52.1925 66.4487 52.1635C65.8937 52.0494 65.3266 52.0051 64.7606 52.0317C64.1951 52.0513 63.632 52.1138 63.076 52.2187C62.5147 52.3178 61.9594 52.4486 61.4128 52.6104L60.7005 52.8206L60.9195 51.9783C61.0146 51.2594 61.2815 50.574 61.6977 49.9803C61.9173 49.6772 62.1706 49.4 62.4528 49.154C62.7389 48.91 63.0512 48.6985 63.3841 48.5236C64.0348 48.1768 64.7587 47.99 65.496 47.9787C65.8573 47.9787 66.2168 48.0285 66.5645 48.1265C66.6517 48.1515 66.7426 48.18 66.8209 48.2102C66.8993 48.2405 66.9883 48.2797 67.0702 48.3189C67.2386 48.3964 67.397 48.4938 67.5421 48.6091L67.5831 48.6412C67.5998 48.6553 67.6114 48.6745 67.6163 48.6958C67.6212 48.7171 67.6191 48.7394 67.6103 48.7594C67.6015 48.7794 67.5864 48.796 67.5674 48.8068C67.5484 48.8176 67.5264 48.822 67.5047 48.8192L67.4834 48.8246Z" fill="#15006D"/>
<path d="M46.677 47.8327C46.677 47.8327 46.6681 47.8185 46.677 47.8131L46.7038 47.7953L46.7625 47.765C46.8017 47.7437 46.8427 47.7223 46.8836 47.7045C46.9656 47.6707 47.0475 47.6315 47.1329 47.603C47.3005 47.5447 47.4719 47.4977 47.6458 47.4623C47.9975 47.3931 48.3572 47.3745 48.7142 47.4071C49.4678 47.4777 50.1872 47.7556 50.7924 48.2102C50.9522 48.3259 51.1018 48.4552 51.2393 48.5967C51.3088 48.6679 51.3782 48.7391 51.4441 48.8121L51.6222 49.0472C51.8493 49.3663 52.0293 49.7166 52.1564 50.0871C52.3845 50.7876 52.4153 51.5374 52.2454 52.2543V52.3237C52.2422 52.4409 52.1928 52.552 52.1082 52.633C52.0235 52.714 51.9103 52.7584 51.7931 52.7565C51.7028 52.7534 51.6155 52.7236 51.542 52.671C51.2102 52.4584 50.8456 52.302 50.4629 52.208C50.0495 52.0927 49.6297 52.0018 49.2057 51.9355C48.3413 51.7982 47.4696 51.712 46.5951 51.6773C46.5908 51.6773 46.5865 51.6765 46.5824 51.6747C46.5784 51.673 46.5748 51.6705 46.5718 51.6673C46.5688 51.6642 46.5665 51.6604 46.565 51.6563C46.5635 51.6522 46.5629 51.6479 46.5631 51.6435C46.5632 51.6382 46.5646 51.6331 46.5671 51.6285C46.5695 51.6238 46.573 51.6198 46.5773 51.6168H46.5916C46.7983 51.4811 47.0177 51.366 47.2469 51.2731C47.4646 51.1799 47.689 51.1031 47.9182 51.0434C48.3677 50.9219 48.8295 50.852 49.2947 50.835H49.6509C49.7702 50.835 49.8859 50.8475 50.007 50.8546C50.1281 50.8618 50.2439 50.8849 50.3632 50.9098L50.5412 50.9455L50.7193 50.9989C50.9625 51.0721 51.1958 51.175 51.4138 51.3052C51.5274 51.3792 51.6367 51.4595 51.7415 51.5456C51.8475 51.6463 51.9441 51.7566 52.03 51.875L51.3266 52.2917C51.3799 51.7031 51.3151 51.1098 51.136 50.5466C50.9473 49.9798 50.6022 49.478 50.1406 49.0988C49.907 48.901 49.6505 48.7318 49.3767 48.5949C49.098 48.4591 48.8077 48.3482 48.5094 48.2637C48.2079 48.1793 47.9 48.1197 47.5888 48.0856C47.4327 48.0675 47.2758 48.0574 47.1187 48.0553H46.8836H46.7661H46.6735H46.613L46.677 47.8327Z" fill="#15006D"/>
<path d="M54.142 51.9676L57.9884 51.98C57.9884 51.98 59.9775 52.2792 59.5358 54.3324C59.1708 55.8531 56.7668 57.1673 54.7777 56.3606C53.175 55.7623 52.0888 54.3199 52.8812 52.8134C53.2837 52.1243 54.142 51.9676 54.142 51.9676Z" fill="#15006D"/>
<path d="M56.051 53.1072C56.9843 53.1072 57.7409 52.8824 57.7409 52.6051C57.7409 52.3277 56.9843 52.1029 56.051 52.1029C55.1177 52.1029 54.3611 52.3277 54.3611 52.6051C54.3611 52.8824 55.1177 53.1072 56.051 53.1072Z" fill="white"/>
<path d="M55.8302 59.1938C55.7077 59.1939 55.5901 59.1457 55.5028 59.0597C55.4155 58.9738 55.3655 58.8569 55.3637 58.7344L55.3245 56.3678C55.3197 56.3041 55.328 56.2401 55.3488 56.1798C55.3697 56.1194 55.4027 56.064 55.4458 56.0168C55.4888 55.9697 55.5411 55.9318 55.5993 55.9056C55.6575 55.8794 55.7205 55.8654 55.7844 55.8644C55.8482 55.8635 55.9116 55.8756 55.9706 55.9C56.0296 55.9244 56.083 55.9606 56.1275 56.0064C56.172 56.0523 56.2066 56.1067 56.2293 56.1664C56.252 56.2261 56.2622 56.2898 56.2594 56.3536L56.2986 58.7184C56.2997 58.7798 56.2888 58.8409 56.2663 58.898C56.2438 58.9552 56.2103 59.0074 56.1676 59.0515C56.1249 59.0957 56.0739 59.131 56.0175 59.1555C55.9612 59.1799 55.9005 59.1929 55.8391 59.1938H55.8302Z" fill="#15006D"/>
<path d="M58.4566 60.5401C57.4024 60.5401 56.5334 59.9613 55.8532 59.4894C53.0966 61.2559 51.2019 59.5268 51.1823 59.509C51.0966 59.4231 51.0476 59.3072 51.0457 59.1859C51.0437 59.0645 51.0889 58.9471 51.1718 58.8585C51.2547 58.7698 51.3688 58.7168 51.49 58.7106C51.6112 58.7044 51.7301 58.7455 51.8216 58.8252C51.8875 58.8858 53.3299 60.1483 55.5861 58.5403L55.8532 58.3498L56.3037 58.6614C57.5217 59.5126 58.6721 60.3139 60.5009 58.5937C60.5911 58.5087 60.7114 58.463 60.8353 58.4667C60.9592 58.4704 61.0766 58.5231 61.1616 58.6133C61.2466 58.7035 61.2923 58.8238 61.2886 58.9477C61.2849 59.0716 61.2322 59.189 61.142 59.274C60.1448 60.2142 59.2491 60.5401 58.4566 60.5401Z" fill="#15006D"/>
<path d="M56.2325 65.4015C55.4756 65.4283 54.7355 65.1747 54.1543 64.6892C53.8843 64.4433 53.6665 64.1458 53.5135 63.8143C53.3606 63.4827 53.2757 63.1238 53.2639 62.7589V62.7428C53.207 60.7929 52.7689 60.2195 52.7653 60.2142L52.7778 60.2284L53.4616 59.5891C53.5738 59.7085 54.1312 60.4172 54.1988 62.7072C54.2051 62.9482 54.2595 63.1854 54.3589 63.405C54.4583 63.6246 54.6006 63.8221 54.7776 63.9858C55.1818 64.3419 55.7659 64.504 56.4675 64.4595C57.1388 64.415 58.3497 63.7472 59.2739 62.5844C59.8919 61.8133 60.5757 60.5775 60.3424 59.0727C60.3296 59.0107 60.3296 58.9467 60.3422 58.8847C60.3549 58.8226 60.38 58.7638 60.4161 58.7117C60.4521 58.6597 60.4984 58.6155 60.552 58.5818C60.6056 58.5481 60.6655 58.5256 60.728 58.5157C60.7906 58.5059 60.8545 58.5088 60.9159 58.5243C60.9773 58.5398 61.0349 58.5676 61.0852 58.606C61.1356 58.6444 61.1776 58.6927 61.2087 58.7478C61.2399 58.8029 61.2596 58.8638 61.2666 58.9267C61.4927 60.3638 61.0476 61.8703 60.0094 63.1684C59.0193 64.415 57.5894 65.3231 56.5334 65.3926C56.4265 65.4015 56.3286 65.4015 56.2325 65.4015Z" fill="#15006D"/>
<path d="M54.5836 64.6126C54.5073 64.6128 54.4321 64.5942 54.3646 64.5586C54.2972 64.523 54.2395 64.4714 54.1966 64.4083C54.1537 64.3452 54.127 64.2726 54.1187 64.1967C54.1104 64.1209 54.1208 64.0442 54.1491 63.9733C54.1633 63.9359 55.7197 60.1518 60.5384 60.4563C60.6023 60.4565 60.6654 60.4697 60.724 60.4952C60.7826 60.5207 60.8354 60.5579 60.879 60.6045C60.9227 60.6511 60.9564 60.7062 60.978 60.7663C60.9996 60.8264 61.0087 60.8903 61.0046 60.9541C61.0006 61.0179 60.9836 61.0801 60.9546 61.1371C60.9257 61.194 60.8854 61.2444 60.8362 61.2852C60.787 61.326 60.73 61.3563 60.6687 61.3742C60.6074 61.3921 60.543 61.3973 60.4796 61.3894C56.3554 61.1295 55.0697 64.1888 55.0181 64.3205C54.9828 64.4068 54.9226 64.4806 54.8452 64.5326C54.7679 64.5846 54.6768 64.6125 54.5836 64.6126Z" fill="#15006D"/>
<path d="M57.6161 69.4135C53.613 69.4135 52.3879 66.0568 52.3736 66.0158L52.2205 65.5742L53.1109 65.2661L53.264 65.706C53.3281 65.884 54.8239 69.8604 60.387 67.9657L60.8304 67.8144L61.1313 68.7047L60.6879 68.8561C59.7014 69.2088 58.6637 69.3971 57.6161 69.4135Z" fill="#15006D"/>
<path d="M7.1162 76.5828C3.70786 76.5828 1.01537 70.6974 0.98332 63.1684C0.951267 55.6395 3.60101 49.7185 7.01469 49.7043H7.02716C10.4337 49.7043 13.1262 55.5807 13.1582 63.1168C13.1903 70.6529 10.5406 76.5685 7.12868 76.5828H7.1162ZM7.02716 50.6391H7.01825C4.22605 50.6516 1.8915 56.3874 1.91999 63.1649C1.94848 69.9424 4.32756 75.6479 7.1162 75.6479C9.91018 75.6354 12.2447 69.8996 12.2162 63.1221C12.1877 56.3446 9.8158 50.6391 7.02716 50.6391Z" fill="#15006D"/>
<path d="M6.74928 75.0175C5.42263 75.0175 4.21175 73.7425 3.33918 71.4275C2.51826 69.2514 2.05881 66.3666 2.04634 63.3038C2.03388 60.2409 2.46838 57.3508 3.26971 55.1676C4.12447 52.8401 5.32825 51.5544 6.65312 51.5491H6.66203C7.98868 51.5491 9.19957 52.8223 10.0721 55.1391C10.8931 57.3134 11.3507 60.1999 11.3649 63.2628C11.3774 66.3275 10.9429 69.2158 10.1416 71.399C9.28507 73.7264 8.08307 75.0121 6.7582 75.0175H6.74928ZM6.66738 52.484C4.90622 52.484 2.96167 56.9358 2.98838 63.2984C3.00085 66.2545 3.43711 69.0235 4.21886 71.0981C4.93115 72.9946 5.85892 74.0826 6.75463 74.0826C7.645 74.0826 8.5674 72.9821 9.26723 71.0767C10.0329 68.995 10.4461 66.2224 10.4336 63.2682C10.4069 56.9109 8.42853 52.4858 6.66738 52.4858V52.484Z" fill="#15006D"/>
<path d="M7.82474 76.5809C7.71513 76.5809 7.60902 76.5425 7.52484 76.4723C7.44067 76.4021 7.38377 76.3046 7.36407 76.1968C7.34437 76.089 7.36311 75.9777 7.41703 75.8822C7.47094 75.7868 7.55662 75.7133 7.65914 75.6745L28.8731 67.6452C28.9242 67.6254 28.9785 67.6151 29.0333 67.6149L38.0012 67.5223C38.2558 67.3834 39.6501 66.3969 39.7249 61.2897C39.4364 57.4059 38.0475 56.1416 37.6913 55.8834L28.5027 56.3072C28.4547 56.309 28.4067 56.3036 28.3602 56.2912L7.85321 50.7709C7.73958 50.7333 7.64468 50.6536 7.58797 50.5482C7.53126 50.4428 7.51705 50.3197 7.54828 50.2041C7.5795 50.0886 7.65379 49.9893 7.75587 49.9269C7.85796 49.8644 7.98008 49.8433 8.09719 49.8681L28.533 55.3759L37.7928 54.9485C37.8717 54.9448 37.9502 54.9613 38.0208 54.9966C38.1134 55.0429 40.2823 56.1719 40.6544 61.2434V61.2826C40.5672 67.6648 38.4481 68.3878 38.2059 68.4483C38.1698 68.4575 38.1328 68.4623 38.0955 68.4625L29.1206 68.5569L7.98498 76.5578C7.9332 76.5743 7.87907 76.5821 7.82474 76.5809Z" fill="#15006D"/>
<path d="M29.0388 68.5499C28.9483 68.5513 28.8593 68.5264 28.7827 68.4781C28.706 68.4298 28.6451 68.3603 28.6074 68.2779C28.5696 68.1956 28.5566 68.1041 28.57 68.0145C28.5834 67.9249 28.6225 67.8412 28.6827 67.7735C28.6827 67.7628 29.9025 66.2634 29.728 61.8347C29.4395 57.2974 28.1413 56.2895 28.1253 56.2806C28.0744 56.2468 28.0307 56.2034 27.9966 56.1527C27.9626 56.102 27.9388 56.0451 27.9267 55.9852C27.9147 55.9254 27.9145 55.8637 27.9262 55.8038C27.938 55.7438 27.9615 55.6868 27.9953 55.636C28.0652 55.5327 28.1729 55.461 28.2951 55.4364C28.4174 55.4117 28.5444 55.4361 28.6488 55.5042C28.8269 55.6164 30.3406 56.7507 30.6593 61.7849C30.8534 66.6659 29.4431 68.3238 29.3825 68.3914C29.3396 68.4405 29.2868 68.4799 29.2275 68.5072C29.1683 68.5345 29.104 68.5491 29.0388 68.5499Z" fill="#15006D"/>
<path d="M36.5856 68.2257C36.495 68.2267 36.4061 68.2013 36.3297 68.1528C36.2532 68.1043 36.1925 68.0346 36.1548 67.9523C36.1171 67.8699 36.1041 67.7784 36.1173 67.6888C36.1306 67.5992 36.1695 67.5154 36.2295 67.4475C36.2295 67.4368 37.4492 65.9392 37.2747 61.5087C36.988 57.0088 35.6988 55.9706 35.6845 55.9617C35.5836 55.8925 35.5138 55.7864 35.4901 55.6663C35.4664 55.5462 35.4906 55.4215 35.5577 55.3191C35.6247 55.2166 35.7292 55.1445 35.8488 55.1182C35.9684 55.0919 36.0935 55.1134 36.1974 55.1782C36.3755 55.2922 37.8891 56.4247 38.2096 61.4607C38.4019 66.3399 36.9916 67.9978 36.9311 68.0672C36.8879 68.1165 36.8348 68.1561 36.7753 68.1834C36.7157 68.2107 36.6511 68.2251 36.5856 68.2257Z" fill="#15006D"/>
<path d="M10.7452 65.9713C9.8871 65.9732 9.06335 65.6341 8.45522 65.0287C7.84709 64.4232 7.5044 63.601 7.50251 62.7429C7.50062 61.8847 7.83972 61.061 8.44518 60.4528C9.05064 59.8447 9.87288 59.502 10.731 59.5001C10.8552 59.5001 10.9743 59.5495 11.0622 59.6373C11.15 59.7251 11.1993 59.8442 11.1993 59.9685C11.1993 60.0927 11.15 60.2118 11.0622 60.2996C10.9743 60.3875 10.8552 60.4368 10.731 60.4368C10.1321 60.4535 9.56339 60.7031 9.1457 61.1326C8.728 61.562 8.49426 62.1375 8.49426 62.7366C8.49426 63.3357 8.728 63.9112 9.1457 64.3407C9.56339 64.7702 10.1321 65.0198 10.731 65.0364H10.7434C10.8624 65.0438 10.9742 65.0962 11.0558 65.1831C11.1375 65.27 11.1829 65.3847 11.1829 65.5039C11.1829 65.6231 11.1375 65.7378 11.0558 65.8247C10.9742 65.9115 10.8624 65.964 10.7434 65.9713H10.7452Z" fill="#15006D"/>
<path d="M40.1241 64.7373C40.0048 64.7375 39.8899 64.6923 39.8028 64.6107C39.7157 64.5292 39.663 64.4174 39.6555 64.2984C39.648 64.1793 39.6863 64.0618 39.7624 63.97C39.8386 63.8781 39.9469 63.8188 40.0653 63.8041C41.1195 63.6724 41.0928 62.1908 41.0341 61.5604C41.0091 61.2799 40.8917 61.0156 40.7002 60.809C40.5088 60.6024 40.2541 60.4652 39.9763 60.419C39.855 60.398 39.7468 60.3303 39.6748 60.2304C39.6029 60.1305 39.5731 60.0064 39.5916 59.8847C39.6007 59.8239 39.6218 59.7656 39.6537 59.713C39.6856 59.6605 39.7276 59.6148 39.7774 59.5786C39.8271 59.5425 39.8835 59.5166 39.9433 59.5025C40.0032 59.4884 40.0652 59.4864 40.1259 59.4965C40.6085 59.5756 41.0512 59.8126 41.3848 60.1703C41.7183 60.528 41.9238 60.9862 41.9689 61.4732C42.147 63.3518 41.481 64.5716 40.1882 64.7355L40.1241 64.7373Z" fill="#15006D"/>
<path d="M30.1607 80.1532C27.9829 80.1532 25.789 79.6581 24.9129 78.9779L24.9004 78.9654C23.556 77.8364 23.4082 75.6586 23.2978 73.9081C23.2639 73.4255 23.2337 72.9661 23.1785 72.6153C21.9444 71.3011 22.5178 70.2095 22.5445 70.1632C22.6064 70.0608 22.7051 69.9859 22.8205 69.954C22.9358 69.9221 23.059 69.9355 23.1648 69.9916C23.2705 70.0477 23.3508 70.1421 23.3891 70.2555C23.4274 70.3688 23.4209 70.4926 23.3708 70.6013C23.3512 70.6422 23.1072 71.2299 23.9442 72.0615C24.0114 72.1269 24.0568 72.2115 24.0742 72.3037C24.1562 72.8143 24.2085 73.3292 24.2309 73.8458C24.3359 75.4146 24.4677 77.3681 25.5006 78.2442C26.4586 78.9797 30.2231 79.5976 32.7393 78.9191C33.4889 78.7161 34.4505 78.3048 34.7835 77.4945C35.4264 75.6087 35.5813 73.0071 34.4808 71.44C34.4232 71.3602 34.3921 71.2642 34.3921 71.1658C34.3921 71.0673 34.4232 70.9714 34.4808 70.8915C34.9527 70.2576 35.2661 69.1108 34.9705 68.3006C34.9496 68.2421 34.9404 68.1801 34.9434 68.1181C34.9465 68.056 34.9617 67.9952 34.9882 67.9391C35.0148 67.883 35.0521 67.8326 35.0981 67.7909C35.1441 67.7492 35.1979 67.7169 35.2563 67.696C35.3148 67.6751 35.3768 67.6659 35.4388 67.6689C35.5009 67.6719 35.5617 67.6872 35.6178 67.7137C35.674 67.7402 35.7243 67.7776 35.766 67.8236C35.8077 67.8696 35.84 67.9233 35.8609 67.9818C36.2331 69.0146 35.9304 70.3217 35.4228 71.1747C36.5999 73.1335 36.3043 75.9435 35.665 77.8133C35.6628 77.8207 35.6599 77.8279 35.6561 77.8347C35.2768 78.7802 34.3776 79.4498 32.985 79.8255C32.0618 80.0568 31.1124 80.167 30.1607 80.1532Z" fill="#15006D"/>
<path d="M34.8602 71.6341C34.7896 71.6339 34.72 71.6178 34.6565 71.5869C34.593 71.5561 34.5372 71.5114 34.4934 71.456C34.4666 71.424 33.7437 70.6494 31.4234 70.7438C31.3602 70.7492 31.2966 70.7418 31.2363 70.722C31.1761 70.7022 31.1205 70.6703 31.0729 70.6283C31.0254 70.5864 30.9869 70.5352 30.9597 70.4779C30.9325 70.4206 30.9172 70.3584 30.9148 70.295C30.9124 70.2316 30.9229 70.1684 30.9457 70.1092C30.9684 70.05 31.0029 69.9961 31.0471 69.9506C31.0913 69.9052 31.1443 69.8692 31.2029 69.8448C31.2614 69.8204 31.3243 69.8082 31.3878 69.8089C34.2369 69.7002 35.138 70.7633 35.2306 70.8862C35.2838 70.9553 35.3167 71.038 35.3254 71.1248C35.334 71.2116 35.3182 71.2991 35.2796 71.3774C35.241 71.4557 35.1813 71.5215 35.1071 71.5676C35.033 71.6136 34.9475 71.6379 34.8602 71.6377V71.6341Z" fill="#15006D"/>
<path d="M57.7142 73.8671H57.5183C52.3933 73.8119 49.302 71.8566 47.6103 70.2272C45.7636 68.4465 45.1457 66.6853 45.1172 66.6106L44.9659 66.1671L45.8563 65.8644L46.0076 66.306C46.0076 66.3239 46.597 67.9639 48.2976 69.588C50.5788 71.7658 53.6826 72.8894 57.5272 72.9322C64.5113 72.9571 68.2597 71.5931 71.7375 69.5399L71.7518 69.531C75.0479 67.736 76.4387 64.2938 76.4529 64.26L76.631 63.8237L77.5018 64.1692L77.3237 64.6037C77.2632 64.7568 75.7941 68.3931 72.2076 70.3501C68.6284 72.4603 64.7873 73.8671 57.7142 73.8671Z" fill="#15006D"/>
<path d="M62.978 91.0227H53.8802C53.26 91.0222 52.6654 90.7758 52.2268 90.3375C51.7881 89.8991 51.5412 89.3047 51.5403 88.6846V82.7832C51.5412 82.1629 51.7881 81.5683 52.2267 81.1297C52.6653 80.6911 53.2599 80.4442 53.8802 80.4433H62.978C63.5981 80.4442 64.1925 80.6911 64.6309 81.1298C65.0692 81.5685 65.3156 82.1631 65.3161 82.7832V88.6846C65.3156 89.3045 65.0691 89.899 64.6308 90.3373C64.1924 90.7757 63.5979 91.0222 62.978 91.0227ZM53.8802 81.38C53.5078 81.38 53.1508 81.5278 52.8873 81.7909C52.6239 82.054 52.4756 82.4109 52.4752 82.7832V88.6846C52.4761 89.0567 52.6245 89.4134 52.8878 89.6764C53.1512 89.9394 53.508 90.0873 53.8802 90.0878H62.978C63.3498 90.0869 63.7062 89.9387 63.9692 89.6758C64.2321 89.4128 64.3802 89.0564 64.3812 88.6846V82.7832C64.3807 82.4112 64.2327 82.0545 63.9697 81.7915C63.7066 81.5284 63.35 81.3804 62.978 81.38H53.8802Z" fill="#15006D"/>
<path d="M59.3508 90.9426L58.4141 90.9391L58.4284 86.9484L56.0351 85.3297L55.8588 80.6517L56.7937 80.6161L56.9521 84.8205L59.365 86.4534L59.3508 90.9426Z" fill="#15006D"/>
<path d="M61.0851 86.1222C60.5597 86.1211 60.0552 85.9164 59.6776 85.5511C59.3 85.1859 59.0788 84.6884 59.0603 84.1634C59.0469 83.7628 59.1525 83.3672 59.3637 83.0265C59.5749 82.6859 59.8823 82.4155 60.2471 82.2494C60.6119 82.0833 61.0177 82.029 61.4133 82.0934C61.8089 82.1578 62.1766 82.338 62.4699 82.6112C62.7632 82.8843 62.9689 83.2383 63.0612 83.6283C63.1535 84.0184 63.1282 84.427 62.9884 84.8027C62.8486 85.1783 62.6007 85.5041 62.2759 85.739C61.951 85.9738 61.5639 86.1072 61.1634 86.1222H61.0851ZM61.0851 83.0023H61.0423C60.8991 83.0076 60.7584 83.0411 60.6282 83.1008C60.498 83.1605 60.3809 83.2453 60.2835 83.3503C60.1861 83.4553 60.1103 83.5785 60.0605 83.7128C60.0108 83.8471 59.988 83.99 59.9935 84.1331C59.9987 84.2762 60.0322 84.417 60.0919 84.5472C60.1516 84.6774 60.2364 84.7945 60.3414 84.8919C60.4464 84.9894 60.5696 85.0651 60.7039 85.1149C60.8382 85.1646 60.9811 85.1874 61.1242 85.182C61.4137 85.1708 61.6868 85.0453 61.8838 84.833C62.0808 84.6206 62.1855 84.3388 62.1749 84.0494C62.1638 83.7675 62.0443 83.5008 61.8412 83.305C61.6381 83.1092 61.3672 82.9995 61.0851 82.9988V83.0023Z" fill="#15006D"/>
<path d="M52.2544 89.6195L51.7914 89.5554C51.6382 89.5358 48.0322 89.0444 46.6272 88.341C45.1243 87.5895 45.3113 85.5968 45.4466 84.142C45.4608 83.9906 45.4751 83.841 45.4876 83.7004C45.6799 81.3569 46.166 80.8512 46.515 80.6731C46.6404 80.6093 46.7798 80.578 46.9204 80.582C47.0611 80.5861 47.1984 80.6253 47.3199 80.6963C49.1167 81.3605 51.9783 81.6668 52.0068 81.6703L52.4716 81.7184L52.3737 82.6497L51.9089 82.5999C51.786 82.5874 48.8638 82.274 46.9584 81.5599L46.9139 81.5421C46.8178 81.6685 46.5578 82.1547 46.4189 83.7858C46.4082 83.9301 46.394 84.0832 46.3797 84.2381C46.2622 85.4847 46.1162 87.0481 47.0457 87.5129C48.3136 88.1469 51.8804 88.633 51.916 88.6384L52.3808 88.7007L52.2544 89.6195Z" fill="#15006D"/>
<path d="M76.7199 94.269C75.2116 94.269 73.7265 93.7526 72.2859 92.7269L72.2413 92.6913C70.6636 91.2471 69.8516 89.664 69.832 87.9919C69.8053 85.9049 70.977 83.7502 73.4131 81.4032C74.4655 80.4238 75.68 79.6741 76.7502 79.0134C78.1748 78.1391 79.3946 77.3823 79.9146 76.369L80.1265 75.9541L80.9598 76.3797L80.7462 76.7964C80.1087 78.0429 78.7161 78.9013 77.2417 79.8112C76.1572 80.479 75.0353 81.1717 74.0559 82.0817C71.8211 84.2328 70.7437 86.1631 70.7669 87.9777C70.7847 89.3756 71.4792 90.7218 72.8521 91.979C74.5492 93.181 76.2996 93.5817 78.059 93.1757C82.2651 92.1998 85.5292 86.8986 86.7383 84.6637C89.4094 79.7222 89.1655 76.0574 85.921 72.414C82.0425 68.2026 76.2142 65.113 76.1572 65.088L75.7423 64.8708L76.1768 64.0428L76.5917 64.26C76.8356 64.3864 82.6195 67.4475 86.6137 71.7854C90.1235 75.7262 90.4138 79.8326 87.5611 85.1089C85.9851 88.0222 82.6818 93.0635 78.2709 94.0874C77.7624 94.2063 77.2421 94.2673 76.7199 94.269Z" fill="#15006D"/>
<path d="M77.7028 78.9351L77.5782 78.4846C76.4581 74.4423 72.601 72.6687 72.5619 72.6509L72.1362 72.4603L72.5173 71.6074L72.95 71.8121C73.1281 71.8887 77.247 73.771 78.4882 78.2477L78.6128 78.7L77.7028 78.9351Z" fill="#15006D"/>
<path d="M84.4626 88.4122L84.3326 87.9635C84.3326 87.935 83.5046 85.1588 81.6206 83.0896C79.5371 80.7283 76.0914 80.7924 76.0558 80.7924L75.5892 80.8049L75.5643 79.87L76.0308 79.8576C76.1893 79.8576 79.9485 79.7845 82.3186 82.4646C84.3469 84.694 85.1963 87.5806 85.2319 87.7035L85.3619 88.1522L84.4626 88.4122Z" fill="#15006D"/>
<path d="M64.8764 82.8865H64.4028V81.9516H64.8693C64.9281 81.9516 70.7671 81.9338 74.4657 80.4148L74.8984 80.2368L75.2546 81.1022L74.8219 81.2803C70.9612 82.8687 65.124 82.8865 64.8764 82.8865Z" fill="#15006D"/>
<path d="M64.3867 89.5715V88.6366H64.8532C64.8817 88.6366 67.6864 88.6045 69.8144 88.0792L70.2684 87.967L70.4928 88.8752L70.0387 88.9874C67.8021 89.5394 64.9815 89.5715 64.8621 89.5733L64.3867 89.5715Z" fill="#15006D"/>
<path d="M46.7056 81.4976L46.6344 81.0346C46.6344 80.9705 45.6425 74.4922 45.7974 69.8747L45.8135 69.4064L46.7484 69.4385L46.7323 69.9068C46.581 74.437 47.5497 80.8281 47.5603 80.8922L47.6298 81.3552L46.7056 81.4976Z" fill="#15006D"/>
<path d="M35.0757 78.1552L34.9083 77.2345L35.3766 77.1544C35.6117 77.1116 41.1907 76.1091 46.6184 77.1027L47.0779 77.1864L46.9105 78.1071L46.4511 78.0216C41.1943 77.0618 35.601 78.0643 35.5458 78.075L35.0757 78.1552Z" fill="#15006D"/>
<path d="M38.669 67.9569L38.5818 67.0237L39.0484 66.981C41.3317 66.7962 43.6254 66.779 45.9113 66.9294L46.3779 66.9632L46.3066 67.8963L45.8401 67.8607C43.6064 67.7155 41.3651 67.7327 39.1338 67.9123L38.669 67.9569Z" fill="#15006D"/>
<path d="M36.1548 68.8135C36.2368 69.0022 36.3008 69.1696 36.365 69.3477C36.4291 69.5258 36.4825 69.6931 36.543 69.8659C36.6499 70.222 36.746 70.5621 36.8279 70.9147C36.9927 71.6176 37.1041 72.3319 37.1609 73.0516L37.1841 73.3223L37.1948 73.593C37.1948 73.771 37.2108 73.9491 37.2126 74.1272C37.2037 74.4833 37.2126 74.8519 37.1734 75.2134C37.1201 75.9366 37.0111 76.6546 36.8475 77.361L36.7478 77.8187L35.8379 77.605L35.9358 77.1473C36.0889 76.4908 36.1907 75.8234 36.2403 75.1511C36.2741 74.8163 36.2688 74.478 36.2777 74.1397C36.2777 73.9616 36.267 73.8013 36.2634 73.6321L36.2527 73.3793L36.2314 73.1264C36.1789 72.45 36.0753 71.7785 35.9216 71.1177C35.8456 70.7877 35.7571 70.4606 35.6562 70.1365C35.5565 69.8196 35.4389 69.4884 35.3161 69.2034L35.138 68.7761L35.9785 68.3807L36.1548 68.8135Z" fill="#15006D"/>
<path d="M42.4585 60.6158L41.0653 62.1046L41.7492 62.7446L43.1424 61.2558L42.4585 60.6158Z" fill="#15006D"/>
<path d="M34.8174 35.6489C34.5733 35.6503 34.3329 35.589 34.1194 35.4708C32.9583 34.8315 33.0919 32.7249 33.2735 31.5282C33.6724 28.3852 34.7622 21.8606 36.3008 17.4087C37.3888 14.2782 38.8828 13.4413 40.6119 12.469C41.4685 12.0145 42.2862 11.4904 43.0569 10.9019C45.8135 8.75256 50.479 6.66731 53.6915 7.03771C56.5193 7.3618 57.6696 11.0835 58.7808 14.6806C58.9589 15.2345 59.137 15.8079 59.3151 16.3492C60.7129 20.6711 62.4064 29.4198 62.4224 29.5089L62.5115 29.9683L61.5926 30.1464L61.5036 29.6869C61.4876 29.5997 59.8048 20.9061 58.4247 16.6412C58.2466 16.0946 58.0685 15.5176 57.8905 14.9584C56.8665 11.648 55.8088 8.22368 53.5882 7.96904C50.7283 7.6396 46.2871 9.5717 43.6356 11.6427C42.8277 12.2592 41.9714 12.8095 41.0749 13.2881C39.3815 14.2372 38.1599 14.9228 37.1876 17.7168C35.6668 22.0956 34.5913 28.5401 34.196 31.6582C33.9627 33.179 34.1158 34.4059 34.5645 34.6534C34.7658 34.7638 35.4122 34.8618 37.0897 33.4069H37.1021C37.6595 32.9546 38.1919 32.5326 38.7048 32.1248C41.9706 29.5356 44.551 27.4949 48.4686 21.6558C52.2527 16.3421 52.9881 10.8645 52.9952 10.8111L53.054 10.3463L53.9817 10.4639L53.923 10.9286C53.6701 12.9017 52.3684 17.7934 49.2397 22.1882C45.2455 28.1324 42.6153 30.2176 39.2853 32.8584C38.7742 33.2627 38.2471 33.6811 37.6951 34.1281C36.5234 35.1414 35.5707 35.6489 34.8174 35.6489Z" fill="#15006D"/>
<path d="M57.9918 29.621L57.9135 29.1598C56.4319 20.4716 53.0877 12.2428 53.0556 12.1538L52.8776 11.721L53.7448 11.3649L53.9228 11.7976C53.9567 11.8813 57.3383 20.2134 58.8377 28.9996L58.916 29.4608L57.9918 29.621Z" fill="#15006D"/>
<path d="M77.5107 39.6858C77.431 39.6857 77.3526 39.6654 77.2828 39.6268C77.2131 39.5882 77.1542 39.5325 77.1118 39.465C75.8368 37.4154 70.5783 33.4978 70.5231 33.4586C70.4287 33.389 70.364 33.2863 70.3419 33.1712C70.3198 33.056 70.3419 32.9367 70.4037 32.8371C76.0701 23.7251 83.5634 14.9923 89.9581 10.0436C94.5364 6.67804 95.8684 6.89529 96.4738 7.35116C97.2805 7.9584 96.8745 9.27614 96.7801 9.55216C96.6733 10.0704 95.3769 16.1587 92.5312 21.6505C88.8843 29.1029 80.716 38.133 77.7173 39.636C77.6532 39.6683 77.5825 39.6854 77.5107 39.6858ZM71.4277 32.9671C72.578 33.8415 76.225 36.6817 77.6603 38.5996C80.5718 36.7761 88.1827 28.4333 91.7068 21.232C94.6076 15.6334 95.8666 9.4008 95.879 9.33847C95.879 9.31354 95.8915 9.29039 95.8986 9.26724C96.0375 8.88794 96.1248 8.254 95.92 8.10086C95.8327 8.03497 94.9388 7.55417 90.5332 10.7933C84.3042 15.6049 77.0103 24.0777 71.4277 32.9671Z" fill="#15006D"/>
<path d="M69.9905 56.1398C71.5031 56.1398 72.7293 55.5825 72.7293 54.8951C72.7293 54.2076 71.5031 53.6504 69.9905 53.6504C68.478 53.6504 67.2518 54.2076 67.2518 54.8951C67.2518 55.5825 68.478 56.1398 69.9905 56.1398Z" fill="#FF8080"/>
<path d="M43.8297 54.8203C45.2528 54.8203 46.4064 54.3012 46.4064 53.661C46.4064 53.0208 45.2528 52.5017 43.8297 52.5017C42.4066 52.5017 41.2529 53.0208 41.2529 53.661C41.2529 54.3012 42.4066 54.8203 43.8297 54.8203Z" fill="#FF8080"/>
<path d="M52.5821 109.32C51.7921 109.319 51.0026 109.276 50.2173 109.19C44.4922 108.608 44.6311 104.66 44.7344 101.777C44.7504 101.328 44.7646 100.906 44.7575 100.519V100.498C44.9142 95.0028 46.5739 88.0454 46.5899 87.9759L46.7003 87.5219L47.6102 87.7409L47.4999 88.195C47.4838 88.2644 45.8491 95.1185 45.6942 100.514C45.6942 100.922 45.6853 101.353 45.6693 101.809C45.5695 104.601 45.4573 107.765 50.3152 108.26C55.0733 108.782 58.9073 107.591 59.1726 106.531C59.2812 106.099 59.2189 105.203 59.1477 104.168C59.0052 102.074 58.8075 99.2071 59.7656 96.901L59.9437 96.4683L60.8073 96.8244L60.6293 97.2572C59.7567 99.3602 59.9437 102.101 60.0826 104.102C60.1609 105.263 60.225 106.18 60.0826 106.757C59.6997 108.278 56.4356 109.32 52.5821 109.32Z" fill="#15006D"/>
<path d="M62.1019 97.4387C59.6743 97.4139 57.2643 97.025 54.9522 96.2848L54.808 96.2403C54.6942 96.2178 54.5927 96.1539 54.5234 96.0609C54.454 95.9679 54.4216 95.8525 54.4325 95.737C54.4433 95.6215 54.4967 95.5142 54.5822 95.4357C54.6676 95.3573 54.7792 95.3134 54.8952 95.3125C55.0123 95.3201 55.1272 95.3472 55.2353 95.3927C57.8815 96.2367 64.5984 97.8252 69.8196 94.4008C69.9235 94.336 70.0486 94.3145 70.1682 94.3408C70.2877 94.3671 70.3923 94.4392 70.4593 94.5417C70.5264 94.6441 70.5506 94.7688 70.5269 94.8889C70.5032 95.009 70.4334 95.1151 70.3325 95.1843C67.7201 96.8974 64.7748 97.4387 62.1019 97.4387Z" fill="#15006D"/>
<path d="M72.1523 109.756C67.3942 109.756 66.5964 107.165 66.5572 107.033V107.008L64.269 96.8191C64.2434 96.6986 64.2664 96.573 64.3328 96.4693C64.3992 96.3657 64.5038 96.2923 64.6239 96.2652C64.7439 96.238 64.8698 96.2593 64.9744 96.3243C65.0789 96.3893 65.1537 96.4928 65.1825 96.6125L67.4654 106.784C67.5206 106.934 68.6496 109.786 75.3986 108.474C80.0285 107.502 80.5378 105.176 80.4274 103.03C80.39 102.318 80.1799 101.111 79.9573 99.825C79.5371 97.4103 79.0669 94.6751 79.2664 92.9887C79.2836 92.8672 79.3477 92.7573 79.4451 92.6827C79.5425 92.608 79.6653 92.5745 79.7871 92.5895C79.9088 92.6044 80.0199 92.6665 80.0964 92.7625C80.1728 92.8585 80.2086 92.9806 80.1959 93.1027C80.0054 94.6519 80.4897 97.4316 80.8779 99.6647C81.1166 101.031 81.3213 102.209 81.3623 102.977C81.4834 105.37 80.9385 108.26 75.5838 109.388C74.4543 109.619 73.3053 109.743 72.1523 109.756Z" fill="#15006D"/>
<path d="M51.5242 103.75C47.3537 103.75 45.1135 102.138 45.0192 102.063C44.9275 101.987 44.8685 101.879 44.8541 101.76C44.8397 101.642 44.8711 101.522 44.9417 101.426C45.0124 101.33 45.1171 101.265 45.2344 101.243C45.3517 101.221 45.4728 101.245 45.573 101.31C45.5979 101.328 48.0518 103.075 52.557 102.779C54.8206 102.623 57.067 102.275 59.2722 101.741C59.3904 101.714 59.5144 101.734 59.618 101.797C59.7217 101.86 59.797 101.96 59.8281 102.078C59.8593 102.195 59.8437 102.319 59.7849 102.425C59.7261 102.531 59.6285 102.61 59.5126 102.646C57.2503 103.198 54.9447 103.556 52.6212 103.714C52.2419 103.739 51.875 103.75 51.5242 103.75Z" fill="#15006D"/>
<path d="M71.0554 104.45C67.8893 104.45 65.9162 103.474 65.8913 103.461C65.7885 103.392 65.7172 103.285 65.6932 103.163C65.6692 103.041 65.6943 102.915 65.763 102.811C65.8276 102.714 65.9266 102.645 66.0401 102.617C66.1536 102.589 66.2734 102.605 66.3756 102.662C66.495 102.715 69.2586 103.942 73.2582 103.349C77.0512 102.883 80.1176 100.45 80.1496 100.425C80.2471 100.356 80.3673 100.327 80.4854 100.344C80.6036 100.361 80.711 100.422 80.7855 100.515C80.8601 100.608 80.8962 100.727 80.8866 100.846C80.877 100.964 80.8223 101.075 80.7337 101.155C80.602 101.262 77.4269 103.778 73.3828 104.277C72.6123 104.391 71.8344 104.449 71.0554 104.45Z" fill="#15006D"/>
<path d="M30.9496 82.1243H30.7609C29.9097 82.1082 29.2686 81.8483 28.8573 81.3514C28.6788 81.1162 28.5487 80.848 28.4744 80.5622C28.4002 80.2764 28.3832 79.9788 28.4246 79.6864C28.4507 79.5694 28.5207 79.4669 28.6202 79.3999C28.7196 79.333 28.841 79.3068 28.9592 79.3266C29.0775 79.3465 29.1836 79.4109 29.2557 79.5067C29.3279 79.6025 29.3605 79.7222 29.347 79.8414C29.3054 80.1672 29.3902 80.4967 29.5838 80.762C29.8135 81.0345 30.216 81.1787 30.7805 81.1894C31.8241 81.2243 32.8624 81.0266 33.8202 80.6106C33.9128 79.804 34.0268 78.9065 34.0909 78.7159C34.1308 78.5979 34.216 78.5005 34.3277 78.4452C34.4394 78.39 34.5685 78.3813 34.6865 78.4212C34.8046 78.4611 34.902 78.5463 34.9573 78.658C35.0125 78.7697 35.0212 78.8988 34.9813 79.0169C34.9439 79.1576 34.821 80.1227 34.7248 80.9668C34.7178 81.0397 34.6936 81.11 34.6543 81.1719C34.615 81.2338 34.5617 81.2855 34.4987 81.3229C34.4381 81.3479 33.1061 82.1243 30.9496 82.1243Z" fill="#15006D"/>
<path d="M29.7991 81.9464H29.7831C28.5597 81.9019 27.7281 81.56 27.3132 80.9242C26.8181 80.1692 27.1351 79.3216 27.1565 79.2877C27.2018 79.172 27.2912 79.0791 27.4051 79.0293C27.519 78.9796 27.648 78.9771 27.7637 79.0224C27.8794 79.0677 27.9724 79.1572 28.0221 79.2711C28.0719 79.385 28.0744 79.5139 28.029 79.6296C27.9835 79.7585 27.9663 79.8957 27.9786 80.0318C27.9909 80.168 28.0324 80.2999 28.1002 80.4185C28.3389 80.7747 28.9319 80.9794 29.8151 81.0115C29.9342 81.0206 30.0453 81.0749 30.1257 81.1631C30.2061 81.2514 30.2497 81.3671 30.2477 81.4865C30.2456 81.6059 30.198 81.72 30.1147 81.8055C30.0313 81.8909 29.9184 81.9414 29.7991 81.9464Z" fill="#15006D"/>
<path d="M49.4088 34.2742L49.2948 33.8201C48.6359 31.1846 46.223 25.5788 46.1999 25.5218L46.0218 25.0927L46.8801 24.7223L47.0582 25.1514C47.1597 25.3847 49.5245 30.8854 50.203 33.5939L50.3151 34.048L49.4088 34.2742Z" fill="#15006D"/>
<path d="M46.3728 36.0602L46.2339 35.6132C45.5733 33.4764 43.5165 28.5829 43.4952 28.5348L43.3171 28.1039L44.1789 27.7477L44.357 28.1787C44.4425 28.3799 46.4529 33.1647 47.1278 35.3443L47.2667 35.7913L46.3728 36.0602Z" fill="#15006D"/>
<path d="M57.294 81.3641L57.1943 80.9082C56.6464 78.4516 56.486 75.9245 56.7188 73.4184L56.7776 72.9554L57.7053 73.0729L57.6466 73.5359C57.4354 75.9364 57.5909 78.3551 58.1078 80.7088L58.2075 81.1646L57.294 81.3641Z" fill="#15006D"/>
<path d="M47.6155 43.9187C47.7672 43.8491 47.9252 43.7943 48.0874 43.7549C48.2403 43.7152 48.3965 43.689 48.554 43.6765C48.8681 43.6441 49.1851 43.6501 49.4978 43.6943C50.1327 43.7843 50.7404 44.0116 51.2785 44.3603C51.5555 44.5348 51.8108 44.7417 52.0389 44.9764C52.1529 45.094 52.2508 45.2311 52.3523 45.3593C52.4022 45.4234 52.4485 45.4929 52.493 45.5605C52.5375 45.6282 52.5767 45.7048 52.6123 45.7796C52.6901 45.9244 52.7579 46.0743 52.8153 46.2283C52.864 46.3864 52.9044 46.5468 52.9364 46.7091C52.9552 46.7893 52.9677 46.8709 52.9738 46.9531C52.9738 47.0368 52.9738 47.1205 52.9738 47.2059L52.9595 47.457C52.9517 47.542 52.9386 47.6265 52.9204 47.7099L52.8883 47.8434C52.8741 47.9012 52.8434 47.9537 52.8 47.9944C52.7566 48.0352 52.7024 48.0625 52.6438 48.073C52.5852 48.0836 52.5248 48.0769 52.4699 48.0539C52.415 48.0308 52.368 47.9924 52.3345 47.9432C52.2615 47.8345 52.1938 47.7241 52.1297 47.6137L52.0318 47.4499C52.0015 47.3947 51.9534 47.3502 51.9213 47.2968L51.7041 46.9869C51.6275 46.8872 51.5385 46.7981 51.4584 46.7038C51.4156 46.6575 51.3782 46.6094 51.3373 46.5613C51.2963 46.5132 51.2482 46.474 51.2055 46.4295L50.9384 46.1695L50.6517 45.9291C50.5591 45.8454 50.4505 45.7796 50.3508 45.703L50.1994 45.5926L50.0374 45.4946C49.9287 45.4305 49.8272 45.3557 49.7132 45.2988C49.4907 45.1741 49.2609 45.0637 49.0294 44.9533C48.9101 44.9052 48.7926 44.8518 48.6733 44.8055L48.3171 44.6737C48.0767 44.5829 47.815 44.5152 47.5799 44.4493C47.5283 44.4351 47.4822 44.4054 47.448 44.3642C47.4138 44.3229 47.393 44.2722 47.3885 44.2188C47.3841 44.1654 47.3961 44.1119 47.423 44.0656C47.4499 44.0192 47.4904 43.9823 47.539 43.9596L47.6155 43.9187Z" fill="#15006D"/>
<path d="M60.4103 48.5325C60.4066 48.4833 60.4066 48.4339 60.4103 48.3847C60.4103 48.3544 60.4103 48.3455 60.4103 48.333V48.2939C60.4103 48.2422 60.4103 48.1852 60.4103 48.1372C60.4103 48.0428 60.4281 47.9413 60.4423 47.8487C60.4709 47.6593 60.518 47.4732 60.583 47.2931C60.6125 47.2031 60.6475 47.1151 60.688 47.0295C60.7246 46.9415 60.7657 46.8553 60.8109 46.7713C60.9029 46.6037 61.0052 46.4419 61.1172 46.287C61.5833 45.6645 62.203 45.1736 62.9157 44.8624C63.0891 44.7844 63.2676 44.7184 63.45 44.6647C63.54 44.6329 63.6315 44.6055 63.7242 44.5828L64.0038 44.5329C64.0964 44.5151 64.1819 44.5027 64.2834 44.492C64.3752 44.4763 64.468 44.4668 64.5611 44.4635C64.7392 44.4635 64.9333 44.4635 65.1168 44.4777C65.2085 44.4794 65.3001 44.4866 65.391 44.4991L65.6599 44.5525C65.838 44.5917 66.016 44.6362 66.1941 44.6879C66.3659 44.749 66.5331 44.8222 66.6945 44.9069L66.9331 45.0369C67.0115 45.0885 67.0898 45.1331 67.1664 45.19L67.2733 45.272C67.3267 45.318 67.3652 45.3788 67.384 45.4467C67.4028 45.5146 67.4011 45.5866 67.3789 45.6535C67.3568 45.7205 67.3154 45.7793 67.2598 45.8227C67.2042 45.866 67.137 45.8919 67.0667 45.897C66.7568 45.897 66.4523 45.8774 66.1496 45.8792L65.6973 45.897H65.4729C65.3981 45.897 65.3251 45.9184 65.2503 45.9273C65.1043 45.9504 64.9565 45.9647 64.8087 45.9825C64.6609 46.0003 64.5202 46.0466 64.3778 46.0769L64.1623 46.1249C64.091 46.1445 64.0234 46.173 63.9539 46.1962L63.7474 46.2674C63.6778 46.288 63.6095 46.3124 63.5426 46.3404C63.0019 46.5586 62.5035 46.8695 62.0699 47.2593C61.9577 47.3519 61.8615 47.4623 61.7547 47.5638C61.6479 47.6653 61.5624 47.7828 61.4716 47.8985L61.338 48.0766L61.217 48.2547C61.176 48.3152 61.1457 48.3776 61.1083 48.4328C61.0887 48.463 61.078 48.4898 61.062 48.52L61.0495 48.5414C61.0495 48.5414 61.0495 48.5592 61.0495 48.5503C61.0497 48.546 61.049 48.5418 61.0474 48.5378C61.0459 48.5339 61.0436 48.5302 61.0407 48.5271C61.0401 48.5681 61.0314 48.6085 61.0152 48.6461C60.999 48.6837 60.9756 48.7177 60.9462 48.7462C60.9169 48.7747 60.8822 48.7972 60.8442 48.8123C60.8061 48.8274 60.7655 48.8349 60.7246 48.8343C60.6836 48.8337 60.6432 48.8251 60.6057 48.8089C60.5681 48.7927 60.5341 48.7693 60.5055 48.7399C60.477 48.7106 60.4545 48.6759 60.4394 48.6378C60.4243 48.5998 60.4168 48.5592 60.4174 48.5182L60.4103 48.5325Z" fill="#15006D"/>
<defs>
<linearGradient id="paint0_linear" x1="27.8621" y1="82.3547" x2="99.9167" y2="32.1352" gradientUnits="userSpaceOnUse">
<stop stop-color="#15006D"/>
<stop offset="0.2607" stop-color="#15006D"/>
<stop offset="0.6669" stop-color="#5521B6"/>
<stop offset="0.9996" stop-color="#2DB7C4"/>
</linearGradient>
</defs>
</svg>
