<svg width="36" height="60" viewBox="0 0 36 60" fill="none" xmlns="http://www.w3.org/2000/svg">
<path d="M13.4596 46.2471C8.85352 44.1269 5.84441 45.5063 5.84441 45.5063C5.40922 47.9911 0.272945 47.5477 1.36285 43.2052C2.76213 37.619 15.348 39.8439 15.348 39.8439C15.348 39.8439 18.5189 48.5741 13.4596 46.2471Z" fill="white"/>
<path d="M3.78289 47.2917C3.05944 47.296 2.36025 47.0292 1.82133 46.5432C0.997159 45.7765 0.74041 44.5665 1.09858 43.1444C1.70194 40.7307 4.38882 39.3552 8.86653 39.1652C11.0499 39.0981 13.2347 39.2388 15.3918 39.5853L15.5459 39.6125L15.5998 39.7598C15.7975 40.3054 17.492 45.1224 15.9759 46.5354C15.4175 47.0525 14.533 47.0435 13.3481 46.4979C9.42882 44.688 6.67261 45.4934 6.07695 45.7093C5.90621 46.3764 5.40427 46.9013 4.68152 47.1521C4.39135 47.2468 4.08793 47.294 3.78289 47.2917ZM9.97184 39.6862C6.4518 39.6862 2.35665 40.3416 1.62748 43.2724C1.23465 44.8431 1.71863 45.7002 2.19361 46.1437C2.50375 46.4215 2.88056 46.613 3.28674 46.6992C3.69293 46.7853 4.11441 46.7632 4.50949 46.6349C4.85225 46.5186 5.44663 46.2122 5.57757 45.4611L5.60196 45.3202L5.73034 45.2607C5.85871 45.2025 8.90633 43.8541 13.5715 46.0015C14.5394 46.4475 15.2237 46.4927 15.6075 46.1308C16.1094 45.6628 16.1916 44.4268 15.8386 42.6518C15.6601 41.785 15.4273 40.9305 15.1415 40.0934C13.4305 39.8307 11.7026 39.6946 9.97184 39.6862Z" fill="#15006D"/>
<path d="M7.25294 45.1896H6.71249C6.72532 40.9557 3.9306 40.7424 3.8125 40.7359L3.84074 40.1917C3.87412 40.1917 7.26835 40.4205 7.25294 45.1896Z" fill="#15006D"/>
<g style="mix-blend-mode:multiply">
<path d="M2.54654 44.1295C3.25645 41.2969 6.2463 40.9311 9.59047 40.9311C10.8177 40.9311 11.5546 45.3046 11.8165 45.3977C14.1876 46.2445 13.8525 46.5366 14.6163 46.6504C14.4417 46.0635 15.3455 39.849 15.3455 39.849C15.3455 39.849 2.76478 37.6189 1.36036 43.2103C0.834022 45.3098 1.76474 46.4953 2.91498 46.8818C2.45154 46.2703 2.23716 45.3641 2.54654 44.1295Z" fill="#E3E4E5"/>
</g>
<path d="M18.5048 50.1397C18.5048 50.1397 17.5202 48.4513 13.298 46.9762C10.7805 46.0984 8.4685 47.2412 6.57626 49.7066C5.68662 49.5347 4.45808 49.9406 3.78411 50.8701C1.40661 54.1409 4.34511 56.9889 6.82531 58.0115C8.86133 58.8531 10.9128 58.4226 12.4738 56.87C14.6883 54.6722 17.7372 52.172 19.9568 53.5203C19.9568 53.5203 18.7295 57.3729 22.8311 59.3832C26.1906 61.0302 28.0457 56.1576 28.0457 56.1576L18.5048 50.1397Z" fill="white"/>
<path d="M24.197 60C23.6827 59.9928 23.1768 59.8673 22.7181 59.6328C19.0286 57.8229 19.4574 54.5405 19.6487 53.6614C18.0607 52.8715 15.773 53.9885 12.6676 57.0679C11.0129 58.7085 8.84721 59.1454 6.72261 58.2702C5.2386 57.6535 3.31426 56.256 2.77509 54.3401C2.43361 53.1184 2.69935 51.8967 3.56331 50.7073C3.89718 50.2621 4.33812 49.9098 4.84458 49.6836C5.35104 49.4575 5.90634 49.3649 6.45816 49.4146C8.52371 46.7902 10.9166 45.8594 13.3904 46.7204C17.2583 48.0713 18.4753 49.6085 18.6936 49.9407L28.3782 56.0505L28.2986 56.2599C28.2562 56.3711 27.2305 59.0123 25.2766 59.7892C24.9332 59.9275 24.5668 59.999 24.197 60ZM18.5652 52.8663C19.1077 52.8615 19.641 53.0083 20.1057 53.2904L20.288 53.4015L20.2238 53.6071C20.1763 53.7558 19.1236 57.2631 22.9582 59.1428C23.6938 59.5035 24.4101 59.5514 25.0866 59.2825C26.5244 58.7123 27.441 56.8856 27.7157 56.269L18.3084 50.3363L18.2751 50.2794C18.2584 50.2523 17.2481 48.6415 13.212 47.2349C10.3479 46.2343 8.13987 48.1179 6.79322 49.8735L6.6918 50.0028L6.52877 49.9717C5.78291 49.827 4.64422 50.1476 4.0062 51.0267C3.24494 52.0738 3.00873 53.1378 3.30271 54.1888C3.78668 55.9173 5.56082 57.1933 6.93315 57.7608C8.84593 58.552 10.7998 58.1577 12.2928 56.6775C14.0361 54.9464 16.4265 52.8663 18.5652 52.8663Z" fill="#15006D"/>
<path d="M21.0224 54.0714C23.2908 57.0785 25.4269 58.3131 28.0432 58.0325C35.8882 57.1896 31.051 43.7433 28.8135 39.8481C26.7338 36.2282 23.3383 33.8353 19.057 34.6407C17.0797 35.0267 15.2099 35.8425 13.5779 37.0311C13.5779 37.0311 9.17212 39.3064 13.9323 47.0399" fill="white"/>
<path d="M27.3369 58.3425C24.971 58.3425 22.9298 57.0497 20.8065 54.2353L21.2365 53.9056C23.4792 56.8791 25.5063 58.0296 28.0147 57.7607C29.6156 57.5888 30.7607 56.848 31.4025 55.5552C33.3988 51.598 30.4962 43.328 28.5783 39.9822C26.3189 36.0482 22.8656 34.1982 19.1017 34.9054C17.1638 35.2856 15.3311 36.0853 13.7305 37.2492L13.6958 37.2712C13.6855 37.2712 12.5802 37.8736 12.1553 39.4392C11.6418 41.3461 12.3299 43.9239 14.158 46.8935L13.6971 47.1805C11.7548 44.0248 11.0628 41.3629 11.6431 39.2776C12.1104 37.5854 13.2593 36.8937 13.4403 36.7967C15.1021 35.592 17.0033 34.7642 19.0131 34.3702C23.0158 33.6178 26.6771 35.5634 29.0584 39.7094C29.957 41.2608 31.1907 44.1941 31.9469 47.2335C32.5887 49.8191 33.1022 53.4105 31.9006 55.8022C31.1458 57.2695 29.862 58.1098 28.0712 58.3024C27.8273 58.3291 27.5822 58.3425 27.3369 58.3425Z" fill="#15006D"/>
<path d="M30.3758 41.9075C30.3172 41.8278 30.2305 41.7738 30.1336 41.7564C30.0367 41.7391 29.9368 41.7599 29.8546 41.8144C18.7322 48.9248 12.5625 44.1944 12.524 44.7245C12.447 45.8233 13.2942 46.9765 13.2942 46.9765C15.7719 47.9771 16.7925 49.3126 16.7925 49.3126C26.4206 51.1561 30.9137 45.6268 30.9304 45.61C31.6762 44.696 30.9843 42.7439 30.3758 41.9075Z" fill="#B6BBD3"/>
<path d="M20.587 49.9575C19.2977 49.9531 18.0118 49.8267 16.746 49.58L16.6446 49.5606L16.5817 49.4779C16.5727 49.4663 15.5649 48.1851 13.1977 47.2297L13.1258 47.2013L13.0809 47.1392C13.0437 47.0888 12.1707 45.8904 12.2542 44.7062C12.2574 44.6576 12.2718 44.6104 12.296 44.5683C12.3203 44.5261 12.3538 44.4902 12.3941 44.4632C12.5661 44.352 12.7471 44.4179 13.2311 44.5924C20.7089 47.3293 27.4807 43.0023 29.708 41.5815C29.8487 41.4916 30.018 41.4585 30.1819 41.4887C30.3458 41.5189 30.4925 41.6102 30.5925 41.7444C31.2048 42.5821 32.0239 44.6946 31.1432 45.7792C31.133 45.7934 29.9596 47.2271 27.5911 48.401C26.0249 49.1793 23.6821 49.9575 20.587 49.9575ZM16.9424 49.0629C21.7821 49.9679 25.2585 48.9466 27.3279 47.9266C29.5925 46.8096 30.7132 45.4508 30.7247 45.4379C31.323 44.6997 30.7786 42.9221 30.156 42.0689C30.1375 42.0456 30.1111 42.0302 30.0818 42.0256C30.0526 42.0211 30.0227 42.0278 29.9981 42.0443C20.7744 47.9356 14.9577 45.8064 13.0526 45.107L12.7959 45.0165C12.8524 45.7844 13.3287 46.5407 13.4737 46.754C15.6124 47.6357 16.6728 48.7501 16.9424 49.0629Z" fill="#15006D"/>
<path d="M8.83955 50.9361C8.1587 50.4308 7.36536 50.101 6.52881 49.9755L6.61867 49.4377C7.5406 49.5784 8.41447 49.9436 9.16434 50.5017L8.83955 50.9361Z" fill="#15006D"/>
<path d="M18.1133 41.1484C18.1133 41.1484 18.6884 43.7444 19.356 45.1678L18.1133 41.1484Z" fill="white"/>
<path d="M19.1106 45.2842C18.4379 43.8505 17.873 41.3141 17.8486 41.208L18.3763 41.0891C18.3827 41.115 18.9527 43.6747 19.5997 45.0515L19.1106 45.2842Z" fill="#15006D"/>
<path d="M14.8936 45.3977C15.0219 46.2031 15.2106 47.1611 15.4289 48.1126L14.8936 45.3977Z" fill="white"/>
<path d="M15.1656 48.1722C14.9435 47.2091 14.7523 46.233 14.6265 45.4405L15.1605 45.3552C15.2889 46.1412 15.4737 47.0979 15.6933 48.0494L15.1656 48.1722Z" fill="#15006D"/>
<path d="M6.62631 26.1221C5.08581 23.6891 0.592691 16.5425 0.914912 4.43801C0.936736 3.62096 1.85462 3.08704 2.45541 3.57701C5.5364 6.08762 12.4353 12.5115 13.6702 23.7912" fill="white"/>
<path d="M6.39777 26.2683C4.89578 23.8948 0.323071 16.668 0.644008 4.4304C0.651921 4.17696 0.729564 3.93072 0.868285 3.71912C1.007 3.50752 1.20135 3.33887 1.42966 3.23197C1.62066 3.13672 1.83466 3.09829 2.04658 3.12119C2.25849 3.14409 2.45953 3.22736 2.62611 3.36125C9.14755 8.67982 13.0604 15.7372 13.9436 23.7616L13.4057 23.8211C12.5379 15.9389 8.69439 9.01465 2.28592 3.78917C2.19788 3.71952 2.09196 3.67657 1.98055 3.66535C1.86915 3.65413 1.75688 3.67511 1.65689 3.72582C1.51985 3.79015 1.40324 3.89153 1.32005 4.01867C1.23687 4.14582 1.19037 4.29372 1.18575 4.44591C0.86738 16.5129 5.37333 23.6362 6.85478 25.9762L6.39777 26.2683Z" fill="#15006D"/>
<path d="M7.76907 24.7298C7.32618 24.9936 2.14882 13.5071 2.90366 7.7735C2.9563 7.37661 3.36581 7.11417 3.67391 7.33524C5.21441 8.45222 10.0683 13.3222 11.9143 23.3349C11.9143 23.3349 9.62152 23.6232 7.76907 24.7298Z" fill="#FF8080"/>
<path d="M7.75332 25.0064C7.68442 25.0055 7.61736 24.9839 7.56076 24.9444C7.06009 24.6121 5.60561 21.4137 4.50672 18.2334C3.62735 15.6866 2.21394 10.9343 2.63373 7.73722C2.65281 7.58681 2.7101 7.44389 2.80005 7.32227C2.89 7.20066 3.00958 7.10447 3.14723 7.04299C3.25775 6.99273 3.37952 6.97283 3.50015 6.98532C3.62078 6.9978 3.73598 7.04224 3.83403 7.1141C4.09078 7.29638 10.0538 11.7177 12.1861 23.2857L12.2387 23.5701L11.9537 23.6063C11.9319 23.6063 9.69306 23.8998 7.91379 24.9637C7.86536 24.9929 7.80973 25.0077 7.75332 25.0064ZM3.42709 7.52779C3.40232 7.52795 3.37785 7.53323 3.3552 7.5433C3.30497 7.56891 3.26181 7.60662 3.22956 7.65309C3.19731 7.69955 3.17697 7.75332 3.17034 7.80962C2.4861 13.0222 6.88294 23.2456 7.78156 24.4065C9.25915 23.5662 10.9357 23.2198 11.5956 23.1138C9.45942 11.966 3.75444 7.73852 3.50796 7.5614C3.48483 7.5425 3.45672 7.53081 3.42709 7.52779Z" fill="#15006D"/>
<g style="mix-blend-mode:multiply">
<path d="M7.26071 20.6498C5.28887 16.1444 4.63929 13.1258 4.42876 10.3708C4.42876 10.31 4.28883 8.91123 5.04496 9.48394C6.32871 10.4561 8.78837 13.9919 8.71904 13.8083C8.57526 13.4205 6.47634 9.8317 4.23748 7.79167C4.01924 7.60163 3.82796 7.44908 3.67391 7.33402C3.36838 7.11295 2.95887 7.37539 2.90366 7.77228C2.14882 13.5071 7.32618 24.9936 7.76907 24.7299C9.62152 23.622 11.9143 23.335 11.9143 23.335C11.809 22.7623 11.0773 19.878 10.9528 19.3389C9.49828 19.7824 8.22865 22.8605 7.26071 20.6498Z" fill="#E3E4E5"/>
</g>
<path d="M25.781 34.7712C26.2701 37.2482 22.3342 40.307 18.1132 41.1486C12.733 42.2203 10.8266 40.3445 10.3375 37.8675C9.84842 35.3905 12.905 32.6898 17.1722 31.834C21.4394 30.9782 25.2906 32.2942 25.781 34.7712Z" fill="#EDBF40"/>
<path d="M15.307 41.7302C12.33 41.7302 10.5739 40.4555 10.0719 37.9203C9.81516 36.6275 10.4275 35.2442 11.7947 34.0419C13.1195 32.8706 15.0118 31.9941 17.1197 31.5713C21.5229 30.6884 25.5282 32.1014 26.0456 34.7219C26.1945 35.4717 25.9801 36.3082 25.4281 37.1407C24.1533 39.0618 21.1661 40.8213 18.1659 41.4186C17.2253 41.6157 16.2678 41.72 15.307 41.7302ZM19.7578 31.8441C18.9072 31.8468 18.0588 31.9334 17.225 32.1027C15.2082 32.5073 13.4058 33.3399 12.1503 34.4478C10.9359 35.5208 10.3864 36.7167 10.6098 37.8091C11.1926 40.7567 13.6317 41.7599 18.0671 40.8756C20.9376 40.3029 23.7823 38.6391 24.9852 36.8292C25.4628 36.1091 25.6438 35.4329 25.5218 34.8189C25.1534 32.9908 22.7656 31.8441 19.7578 31.8441Z" fill="#15006D"/>
<path d="M26.8927 28.1739C28.0583 34.612 21.8321 38.9235 17.4944 39.8155C14.258 40.48 7.24363 40.0172 5.57475 34.0315C3.8019 27.6503 7.16789 22.6691 13.8023 20.9575C20.1363 19.3221 25.9388 22.8954 26.8927 28.1739Z" fill="white"/>
<path d="M15.0093 40.3274C11.2415 40.3274 6.6264 38.811 5.31441 34.1052C4.47998 31.1124 4.73801 28.3096 6.06284 25.9968C7.52374 23.4461 10.1708 21.6116 13.7345 20.6963C16.9927 19.8547 20.3625 20.3421 22.9775 22.0318C25.2228 23.481 26.7004 25.6516 27.1561 28.1273C27.8339 31.8764 26.0572 34.6236 24.4461 36.2719C22.6335 38.1232 19.9889 39.5867 17.5447 40.0883C16.7095 40.2522 15.8602 40.3323 15.0093 40.3274ZM16.8848 20.8346C15.8675 20.8366 14.8545 20.9669 13.8693 21.2225C10.4545 22.1042 7.91785 23.8495 6.5314 26.2709C5.28103 28.4531 5.04097 31.1111 5.83561 33.9591C6.72012 37.1329 9.14897 38.5395 11.0309 39.1601C13.104 39.8148 15.3047 39.9479 17.4407 39.5479C19.7848 39.0657 22.3189 37.6617 24.0648 35.8828C25.5861 34.3315 27.2639 31.7459 26.6323 28.2217C26.21 25.8947 24.812 23.8546 22.6951 22.4881C20.955 21.3892 18.9387 20.8154 16.8848 20.8346Z" fill="#15006D"/>
<g style="mix-blend-mode:multiply">
<path d="M26.8927 28.1739C25.9389 22.8954 20.1363 19.3221 13.7985 20.9575C7.16791 22.6691 3.80192 27.6503 5.57478 34.0315C7.24365 40.0172 14.258 40.48 17.4944 39.8155C21.8322 38.9235 28.0648 34.612 26.8927 28.1739ZM17.2813 39.1368C14.2452 39.7625 7.67242 39.3501 6.12165 33.7963C4.46433 27.8688 7.63776 23.2354 13.8601 21.6297C19.8013 20.0965 25.2315 23.3996 26.1135 28.2993C27.1905 34.2746 21.3443 38.2939 17.2813 39.1368Z" fill="#E3E4E5"/>
</g>
<path d="M25.9326 30.1003C25.9326 30.1003 28.2434 30.3589 28.9931 32.1688C28.9931 32.1688 26.916 32.2024 26.2638 32.2529C26.2638 32.2529 26.9776 32.8928 27.1316 33.5948C27.1316 33.5948 25.9621 33.8003 25.0776 33.3181" fill="white"/>
<path d="M26.5323 33.9112C25.9843 33.9244 25.4414 33.8029 24.9507 33.557L25.2074 33.0787C25.7299 33.3644 26.3821 33.3799 26.7646 33.3592C26.5909 33.0202 26.3603 32.7141 26.0829 32.4543L25.6118 32.0263L26.2434 31.9772C26.7171 31.941 27.9033 31.9139 28.5542 31.9009C27.7313 30.5913 25.9238 30.369 25.9045 30.3664L25.9648 29.8247C26.0663 29.8363 28.4386 30.1285 29.2448 32.0587L29.4002 32.431L28.9996 32.4374C28.9842 32.4374 27.7159 32.4581 26.8583 32.4917C27.1117 32.7924 27.2962 33.1455 27.3988 33.526L27.4604 33.8052L27.1806 33.8544C26.9663 33.8907 26.7495 33.9097 26.5323 33.9112Z" fill="#15006D"/>
<path d="M19.221 28.9767C19.0413 28.9676 18.8603 28.9689 18.678 28.9767C18.8064 28.8551 18.9348 28.7349 19.0721 28.6173C19.2916 28.4259 19.5201 28.2398 19.7551 28.0523C19.8385 27.9851 19.9207 27.923 20.0041 27.8545C20.0876 27.786 20.1543 27.755 20.2224 27.6955C20.2904 27.636 20.3738 27.5223 20.2082 27.5106C20.1691 27.5088 20.13 27.514 20.0927 27.5261C19.6046 27.6387 19.1338 27.8174 18.6934 28.0575C18.121 28.3689 17.6184 28.7958 17.2171 29.3115C17.1626 29.3835 17.1323 29.4711 17.1305 29.5616C17.1287 29.6521 17.1555 29.7409 17.2071 29.815C17.2587 29.8891 17.3324 29.9448 17.4175 29.974C17.5026 30.0032 17.5947 30.0043 17.6805 29.9773C17.9078 29.9075 18.1876 29.848 18.4508 29.7872C18.7139 29.7265 18.9861 29.6761 19.2595 29.6334C19.533 29.5907 19.8077 29.5416 20.0888 29.5041C20.2583 29.4808 20.429 29.4537 20.6023 29.4317C20.6781 29.4214 20.7641 29.3503 20.6909 29.2779C20.6217 29.2297 20.542 29.1991 20.4586 29.1887C20.0598 29.0687 19.6482 28.9971 19.2326 28.9754L19.221 28.9767Z" fill="#15006D"/>
<path d="M6.5248 34.5591C6.5248 34.5591 4.81613 35.3645 4.9843 37.8169C4.9843 37.8169 6.56203 37.1356 6.99337 36.9249C6.99337 36.9249 6.58257 37.8842 6.79696 38.6055C6.79696 38.6055 7.68531 38.5952 8.46583 37.3192" fill="white"/>
<path d="M6.59152 38.8782L6.53375 38.6817C6.4338 38.2682 6.4391 37.836 6.54916 37.4251C5.94194 37.6966 5.13703 38.0457 5.08697 38.0715L4.7365 38.2228L4.71083 37.8349C4.53496 35.2261 6.33349 34.3444 6.41051 34.3108L6.63902 34.8046L6.52476 34.5577L6.6403 34.8046C6.58125 34.8331 5.27568 35.4859 5.24102 37.407C5.72756 37.1976 6.57868 36.8227 6.87266 36.6805L7.5248 36.3625L7.23724 37.0334C7.23724 37.0412 6.95482 37.7057 7.00617 38.2848C7.27832 38.1943 7.76358 37.9332 8.22316 37.1756L8.68531 37.46C7.84189 38.8485 6.83672 38.8821 6.79435 38.8821L6.59152 38.8782Z" fill="#15006D"/>
<path d="M16.7192 21.0882C17.1955 18.1729 18.6192 9.63399 27.0752 0.621901C27.6465 0.0129939 28.7082 0.234062 28.834 1.02396C29.4758 5.06007 30.3834 14.7043 23.672 24.1573" fill="white"/>
<path d="M23.8928 24.3149L23.4524 23.9982C28.1432 17.3907 29.9122 9.46195 28.5669 1.06782C28.5466 0.952979 28.4943 0.84631 28.4161 0.760248C28.3379 0.674185 28.2371 0.612274 28.1253 0.58173C27.9761 0.536494 27.8174 0.533684 27.6667 0.573612C27.5161 0.613539 27.3793 0.694648 27.2716 0.80797C18.8386 9.79033 17.4445 18.3228 16.9862 21.132L16.4521 21.0441C16.9169 18.2 18.3316 9.53823 26.8787 0.434352C27.0563 0.245934 27.2826 0.111231 27.5321 0.0454426C27.7816 -0.0203458 28.0444 -0.0146021 28.2909 0.062026C28.4999 0.120848 28.6878 0.238643 28.8324 0.401511C28.9771 0.564379 29.0725 0.765522 29.1073 0.981205C30.4694 9.52013 28.6683 17.5885 23.8928 24.3149Z" fill="#15006D"/>
<path d="M18.5355 20.8114C18.022 20.7093 21.8629 8.38633 26.3278 4.5325C26.6359 4.26618 27.1263 4.34634 27.2098 4.72642C27.6334 6.64364 28.0275 13.6946 22.6422 22.6006C22.6422 22.6006 20.6999 21.2419 18.5355 20.8114Z" fill="#FF8080"/>
<path d="M22.7244 22.9899L22.4882 22.8245C22.4689 22.8115 20.5626 21.4929 18.4829 21.0792C18.4226 21.0657 18.3674 21.0352 18.3238 20.9912C18.2801 20.9472 18.2498 20.8917 18.2364 20.831C18.0811 20.235 19.135 16.7962 20.4599 13.6172C21.5177 11.0691 23.6692 6.47446 26.152 4.32583C26.2666 4.22481 26.4051 4.15522 26.5542 4.12374C26.7033 4.09227 26.8579 4.09998 27.0031 4.14613C27.1199 4.18289 27.225 4.25007 27.3078 4.34088C27.3905 4.43169 27.4479 4.5429 27.4743 4.66325C27.5436 4.9774 29.0931 12.4524 22.8733 22.7391L22.7244 22.9899ZM18.7576 20.5802C20.4624 20.9564 21.9824 21.851 22.5562 22.2181C28.4948 12.2468 27.0134 5.08729 26.9466 4.78607C26.941 4.75666 26.9271 4.72949 26.9066 4.70774C26.8862 4.68599 26.86 4.67056 26.8311 4.66325C26.7746 4.64709 26.7149 4.64561 26.6577 4.65895C26.6004 4.67229 26.5475 4.70001 26.5038 4.73953C22.4304 8.25594 18.8475 19.0909 18.7576 20.5802Z" fill="#15006D"/>
<path d="M16.492 21.7138C18.3367 20.1159 17.1736 18.1689 17.1736 18.1689C16.7959 18.664 16.3882 19.135 15.9528 19.5794C16.1582 18.3616 15.3482 17.0002 15.3482 17.0002C14.257 19.1592 10.9077 19.6414 9.81007 22.068C9.70609 22.2955 9.30556 23.2975 9.93844 24.1158" fill="white"/>
<path d="M9.72923 24.2838C9.0129 23.3647 9.42113 22.2684 9.56362 21.9568C10.1696 20.62 11.393 19.8573 12.5753 19.1204C13.6254 18.4649 14.6177 17.847 15.1068 16.8787L15.3289 16.4404L15.5793 16.8632C15.9316 17.4814 16.1573 18.1646 16.243 18.8722C16.4381 18.6498 16.6846 18.3551 16.9619 18.0034L17.2045 17.6932L17.406 18.0306C17.4189 18.0525 18.6628 20.196 16.6692 21.9219L16.3161 21.5095C17.5164 20.4752 17.32 19.2807 17.1095 18.6873C16.8063 19.068 16.4827 19.4318 16.1403 19.7771L15.5472 20.3563L15.6858 19.5367C15.8065 18.8205 15.5343 18.0319 15.3264 17.5626C14.7256 18.421 13.7859 19.0105 12.8603 19.5832C11.746 20.2775 10.5932 20.9962 10.0566 22.183C9.94618 22.4261 9.62781 23.2729 10.1554 23.9503L9.72923 24.2838Z" fill="#15006D"/>
<g style="mix-blend-mode:multiply">
<path d="M20.4741 18.5115C21.8246 12.8478 25.5513 6.66044 27.3318 5.4659C27.2959 5.16856 27.2535 4.92163 27.2099 4.72642C27.1264 4.34634 26.6361 4.26618 26.328 4.5325C21.8631 8.38633 18.0182 20.7093 18.5356 20.8114C20.7 21.2419 22.6436 22.6006 22.6436 22.6006C22.9517 22.0913 23.211 21.6427 23.4819 21.1462C22.8695 21.1992 20.1313 19.9491 20.4741 18.5115Z" fill="#E3E4E5"/>
</g>
<path d="M15.9761 32.9741C16.1519 33.9941 16.1532 34.0187 16.3009 34.6548L15.9761 32.9741Z" fill="white"/>
<path d="M16.3006 34.9275C16.2407 34.9261 16.1828 34.9047 16.1363 34.8665C16.0898 34.8283 16.0573 34.7756 16.0439 34.7167C15.9052 34.122 15.8937 34.0548 15.7538 33.2365L15.7165 33.0219C15.7082 32.9858 15.7072 32.9483 15.7137 32.9118C15.7202 32.8753 15.7341 32.8406 15.7544 32.8096C15.7747 32.7787 15.801 32.7523 15.8318 32.7319C15.8626 32.7116 15.8972 32.6978 15.9334 32.6914C15.9697 32.685 16.0069 32.686 16.0427 32.6946C16.0785 32.7031 16.1122 32.7189 16.1418 32.741C16.1714 32.7631 16.1961 32.791 16.2146 32.8231C16.2331 32.8552 16.2449 32.8907 16.2493 32.9275L16.2865 33.1434C16.4252 33.9475 16.4367 34.0135 16.5702 34.5926C16.5784 34.6274 16.5797 34.6635 16.574 34.6988C16.5683 34.7341 16.5557 34.768 16.537 34.7984C16.5182 34.8287 16.4937 34.8551 16.4648 34.8759C16.436 34.8968 16.4033 34.9116 16.3687 34.9197C16.3464 34.9253 16.3236 34.9279 16.3006 34.9275Z" fill="#15006D"/>
<path d="M14.8604 38.2228C14.8604 38.2228 17.1364 39.2196 19.0377 37.2959L14.8604 38.2228Z" fill="white"/>
<path d="M16.2814 38.7491C15.7594 38.7526 15.2412 38.6597 14.7524 38.475L14.9707 37.9734C15.6302 38.2287 16.3498 38.2826 17.0396 38.1283C17.7294 37.974 18.3587 37.6184 18.8489 37.106L19.234 37.4938C18.8523 37.894 18.3937 38.2117 17.886 38.4275C17.3784 38.6434 16.8324 38.7528 16.2814 38.7491Z" fill="#15006D"/>
<g style="mix-blend-mode:multiply">
<path d="M17.3689 31.3412C17.5165 31.9967 16.8708 32.7026 15.9272 32.9172C14.9837 33.1318 14.1005 32.775 13.9528 32.1195C13.8052 31.4641 14.483 31.1176 15.4266 30.903C16.3701 30.6884 17.2225 30.6858 17.3689 31.3412Z" fill="#E3E4E5"/>
</g>
<path d="M14.4856 32.9483C14.3968 32.8628 14.3325 32.7545 14.2999 32.6351C14.2672 32.5158 14.2672 32.3897 14.3 32.2703C14.3328 32.151 14.3971 32.0428 14.4861 31.9573C14.5751 31.8718 14.6854 31.8122 14.8053 31.7848L16.4087 31.419C16.529 31.3918 16.6543 31.398 16.7714 31.4369C16.8884 31.4758 16.9928 31.546 17.0734 31.6399C17.1541 31.7338 17.2079 31.848 17.2292 31.9703C17.2505 32.0925 17.2384 32.2183 17.1944 32.3343C17.0958 32.5924 16.9355 32.8221 16.7277 33.0029C16.5199 33.1838 16.271 33.3102 16.0031 33.3709C15.7352 33.4317 15.4565 33.4249 15.1918 33.3512C14.9271 33.2774 14.6845 33.1391 14.4856 32.9483Z" fill="#15006D"/>
<path d="M15.6344 33.6825C15.1376 33.682 14.6599 33.49 14.2993 33.146C14.1745 33.0263 14.0842 32.8749 14.0381 32.7077C13.992 32.5405 13.9918 32.3639 14.0376 32.1966C14.0833 32.0293 14.1732 31.8777 14.2977 31.7578C14.4222 31.6379 14.5767 31.5542 14.7447 31.5157L16.3494 31.1512C16.5173 31.113 16.6924 31.1215 16.856 31.1756C17.0195 31.2298 17.1654 31.3277 17.2781 31.4588C17.3907 31.5899 17.4659 31.7493 17.4957 31.9201C17.5254 32.0909 17.5086 32.2666 17.447 32.4285C17.3066 32.7978 17.058 33.1154 16.7344 33.3394C16.4107 33.5633 16.0271 33.683 15.6344 33.6825ZM14.6715 32.7504C14.8385 32.9102 15.042 33.0261 15.264 33.0877C15.486 33.1493 15.7198 33.1548 15.9444 33.1036C16.169 33.0525 16.3777 32.9463 16.5518 32.7944C16.7259 32.6426 16.8601 32.4498 16.9425 32.2332C16.9693 32.1634 16.9768 32.0875 16.964 32.0137C16.9513 31.9399 16.9188 31.871 16.8701 31.8144C16.8214 31.7578 16.7583 31.7156 16.6876 31.6924C16.6169 31.6691 16.5413 31.6657 16.4688 31.6825L14.8641 32.0471C14.7914 32.0634 14.7245 32.0993 14.6706 32.1511C14.6167 32.2028 14.5778 32.2684 14.5581 32.3407C14.5384 32.413 14.5387 32.4894 14.5589 32.5616C14.5791 32.6338 14.6185 32.699 14.6728 32.7504L14.4854 32.9482L14.6715 32.7504Z" fill="#15006D"/>
<path d="M16.2045 32.06C16.4624 32.0012 16.653 31.8712 16.6302 31.7695C16.6074 31.6678 16.3798 31.633 16.1218 31.6918C15.8639 31.7505 15.6733 31.8805 15.6961 31.9822C15.7189 32.0839 15.9466 32.1187 16.2045 32.06Z" fill="white"/>
<path d="M18.4369 34.6545C17.2584 35.7586 16.2982 34.6545 16.2982 34.6545C16.2982 34.6545 15.8168 36.0611 14.4419 35.6241" fill="white"/>
<path d="M14.9539 35.9823C14.7532 35.9803 14.554 35.9471 14.3634 35.884C14.3025 35.8569 14.2536 35.8081 14.2262 35.7469C14.1987 35.6858 14.1946 35.6166 14.2147 35.5526C14.2347 35.4887 14.2774 35.4343 14.3347 35.4001C14.392 35.3658 14.4598 35.354 14.5251 35.3669C15.6099 35.7121 16.004 34.6856 16.0451 34.568L16.1991 34.1284L16.5034 34.4775C16.7186 34.7031 17.0068 34.8438 17.316 34.8744C17.6292 34.8912 17.9437 34.7451 18.2544 34.4581C18.2804 34.4337 18.3108 34.4147 18.3441 34.4022C18.3773 34.3897 18.4127 34.384 18.4482 34.3852C18.4836 34.3865 18.5185 34.3948 18.5508 34.4096C18.5831 34.4244 18.6121 34.4455 18.6363 34.4717C18.6605 34.4978 18.6794 34.5285 18.6918 34.562C18.7042 34.5954 18.7099 34.6311 18.7087 34.6668C18.7074 34.7025 18.6992 34.7376 18.6845 34.7701C18.6698 34.8026 18.6488 34.8319 18.6228 34.8563C18.2005 35.2531 17.7512 35.4432 17.2839 35.4186C16.9597 35.3973 16.6481 35.2839 16.3853 35.0915C16.2993 35.2393 16.1954 35.3757 16.0759 35.4975C15.931 35.6503 15.7569 35.772 15.5641 35.8553C15.3713 35.9386 15.1637 35.9818 14.9539 35.9823Z" fill="#15006D"/>
<path d="M21.603 32.0905C22.3286 31.8908 22.8603 31.5206 22.7906 31.2637C22.7208 31.0068 22.0761 30.9605 21.3505 31.1603C20.6248 31.36 20.0932 31.7302 20.1629 31.9871C20.2326 32.244 20.8774 32.2903 21.603 32.0905Z" fill="#FF8080"/>
<path d="M10.7157 35.4622C11.4312 35.2283 11.945 34.8334 11.8634 34.5801C11.7818 34.3268 11.1356 34.311 10.4201 34.5449C9.70454 34.7787 9.19069 35.1736 9.27232 35.4269C9.35396 35.6802 10.0002 35.696 10.7157 35.4622Z" fill="#FF8080"/>
<path d="M12.6521 33.3982C12.8053 33.2049 12.9148 32.9804 12.973 32.7402C13.1181 32.1507 13.0385 31.5159 12.9076 30.9303C12.5892 29.5082 11.6996 28.5063 10.9216 28.6834C10.1437 28.8605 9.76624 30.1546 10.0872 31.5728C10.217 32.1979 10.488 32.7844 10.8793 33.287C11.0011 33.4451 11.1567 33.5736 11.3344 33.6631C11.5122 33.7526 11.7076 33.8008 11.9063 33.8042C12.0526 33.7959 12.1953 33.7552 12.3242 33.6851C12.4531 33.6149 12.5651 33.517 12.6521 33.3982Z" fill="#15006D"/>
<path d="M12.0205 31.7052C12.2522 31.6524 12.3495 31.2066 12.2378 30.7093C12.1262 30.2121 11.8479 29.8517 11.6162 29.9045C11.3846 29.9572 11.2873 30.4031 11.3989 30.9003C11.5105 31.3976 11.7888 31.7579 12.0205 31.7052Z" fill="white"/>
<path d="M9.67146 27.6983C10.1375 27.2354 10.6831 27.0182 11.212 27.0855C11.7409 27.1527 12.2107 27.5005 12.5483 28.0654C12.578 28.114 12.589 28.1718 12.5793 28.228C12.5696 28.2842 12.5399 28.3348 12.4957 28.3705C12.4593 28.4014 12.4146 28.4207 12.3673 28.4261C12.336 28.4295 12.3043 28.4264 12.2742 28.4168C12.2442 28.4072 12.2164 28.3915 12.1927 28.3705C11.8901 28.0978 11.5124 27.9242 11.1095 27.8728C10.7067 27.8213 10.2979 27.8943 9.9372 28.0822C9.88783 28.1069 9.83129 28.1127 9.77797 28.0987C9.72466 28.0847 9.67817 28.0517 9.64707 28.0059C9.6131 27.9605 9.59683 27.9041 9.60132 27.8474C9.60581 27.7907 9.63077 27.7377 9.67146 27.6983Z" fill="#15006D"/>
<path d="M19.1017 26.2088C18.4829 26.0407 17.9027 26.1131 17.4675 26.413C17.0323 26.713 16.7666 27.2223 16.7191 27.8506C16.7144 27.9047 16.73 27.9586 16.7628 28.0016C16.7956 28.0447 16.8432 28.0738 16.8962 28.0833C16.9415 28.0922 16.9883 28.0877 17.031 28.0704C17.0599 28.0586 17.0861 28.041 17.1082 28.0188C17.1302 27.9966 17.1477 27.9702 17.1594 27.9411C17.3114 27.5689 17.568 27.2495 17.8976 27.0219C18.2327 26.7933 18.6252 26.6647 19.0298 26.6509C19.0841 26.6495 19.1362 26.6289 19.1771 26.5927C19.2179 26.5566 19.2448 26.5072 19.2532 26.4531C19.2631 26.4007 19.2531 26.3464 19.225 26.3011C19.1969 26.2558 19.1529 26.2228 19.1017 26.2088Z" fill="#15006D"/>
<path d="M26.3651 35.3876C25.7155 36.2823 25.2893 37.3359 25.7347 38.4193C26.3445 39.8995 27.7387 41.6512 29.3562 41.584C30.5655 41.5362 32.5039 37.5944 33.0906 36.2693C33.7337 34.8711 34.2685 33.4249 34.6902 31.9436C35.2961 29.689 35.8455 25.7214 33.6965 24.0459C32.2138 22.8824 29.4602 22.2464 28.3626 24.797C27.5615 26.6613 29.8787 28.4414 29.88 28.4427C30.1367 29.6761 26.8195 34.7477 26.4061 35.3308C26.3959 35.3489 26.3792 35.3682 26.3651 35.3876Z" fill="white"/>
<path d="M29.2728 41.8517C27.6142 41.8517 26.152 40.1387 25.4845 38.5188C25.0685 37.5079 25.2919 36.3986 26.1469 35.2222L26.1867 35.1666C27.0288 33.9785 29.6669 29.7175 29.6246 28.5798C29.1483 28.1816 27.3331 26.5036 28.1149 24.6833C28.5308 23.7163 29.2227 23.0828 30.1175 22.8527C31.5053 22.4946 33.0021 23.1526 33.8622 23.8249C36.3848 25.7977 35.3334 30.5875 34.9508 32.0096C34.5118 33.6437 33.8584 35.2002 33.3372 36.3754C32.9379 37.2803 30.8634 41.7922 29.3665 41.8504L29.2728 41.8517ZM26.5769 35.5441C25.8324 36.5719 25.636 37.4755 25.98 38.3094C26.5898 39.7922 27.9056 41.3617 29.3396 41.3061C30.1445 41.2751 31.7427 38.6274 32.8391 36.153C33.3526 34.9973 33.9944 33.4653 34.4232 31.8661C34.7839 30.5281 35.784 26.0214 33.5246 24.2554C32.6991 23.609 31.3653 23.0919 30.2459 23.3802C29.509 23.5702 28.9621 24.0822 28.6053 24.9005C27.9095 26.5191 29.9506 28.1519 30.0379 28.2217L30.1124 28.2799L30.1368 28.3755C30.4372 29.8442 26.6578 35.429 26.6193 35.4859L26.5769 35.5467V35.5441Z" fill="#15006D"/>
<path d="M13.4302 55.8268C12.7742 53.8746 11.5816 51.2373 9.58923 49.792C8.40947 48.9374 7.49287 48.9064 7.48389 48.9064L7.49287 48.3608C7.65719 48.3608 11.5598 48.4992 13.9373 55.6535L13.4302 55.8268Z" fill="#15006D"/>
<path d="M32.9852 31.1383C31.1314 31.1383 29.5062 29.7951 29.4844 29.7757L29.831 29.3582C30.3575 29.7723 30.9448 30.1016 31.5718 30.3342C32.8683 30.8035 33.989 30.6535 34.9031 29.8895L35.2484 30.3097C34.6166 30.8494 33.8137 31.1434 32.9852 31.1383Z" fill="#15006D"/>
<g style="mix-blend-mode:multiply">
<g style="mix-blend-mode:multiply">
<path d="M10.0921 23.8262C10.4002 20.1366 15.2142 19.9388 15.426 17.3739L15.3516 17.0002C14.2604 19.1592 10.9111 19.6414 9.81349 22.068C9.73261 22.2451 9.47586 22.8876 9.66072 23.5483C9.94187 24.1158 10.0792 23.9426 10.0921 23.8262Z" fill="#E3E4E5"/>
</g>
</g>
<g style="mix-blend-mode:multiply">
<path d="M33.6969 24.0448C32.8894 23.4139 31.7045 22.9381 30.6159 23.0454C31.1821 23.229 32.0165 23.4785 32.4427 23.8108C34.5866 25.4914 34.4364 28.982 33.8304 31.2327C33.4299 32.722 32.4594 34.6276 31.8368 36.0342C31.3002 37.2442 29.2757 40.8654 27.0522 40.4633C28.051 41.4562 28.9278 41.5984 29.3566 41.5829C30.5659 41.535 32.5043 37.5933 33.091 36.2682C33.7341 34.87 34.2689 33.4237 34.6905 31.9425C35.2965 29.6878 35.8408 25.7202 33.6969 24.0448Z" fill="#E3E4E5"/>
</g>
<path d="M16.1684 45.933L16.8244 49.2685C16.8454 49.3768 16.8967 49.477 16.9722 49.5571C17.0476 49.6372 17.1442 49.694 17.2506 49.7209C18.1941 49.9575 20.6949 50.3492 23.6436 49.624C23.7155 49.6029 23.7826 49.5677 23.8409 49.5205C23.8992 49.4732 23.9477 49.4148 23.9835 49.3486C24.0193 49.2823 24.0417 49.2097 24.0495 49.1347C24.0572 49.0597 24.0502 48.9839 24.0288 48.9116L22.849 45.0475C22.828 44.9715 22.792 44.9006 22.7432 44.8389C22.6943 44.7773 22.6336 44.7262 22.5647 44.6888C22.4957 44.6514 22.42 44.6284 22.342 44.6211C22.264 44.6139 22.1854 44.6226 22.1108 44.6467C21.0941 44.979 18.8886 45.1897 16.7255 45.2362C16.6408 45.2378 16.5575 45.2581 16.4814 45.2956C16.4053 45.3332 16.3384 45.3871 16.2852 45.4535C16.2321 45.52 16.1941 45.5974 16.1739 45.6802C16.1537 45.7631 16.1518 45.8494 16.1684 45.933Z" fill="white"/>
<path d="M20.1865 50.3117C19.1767 50.321 18.1694 50.2112 17.1851 49.9846C17.0292 49.9447 16.8877 49.8613 16.7769 49.744C16.6661 49.6267 16.5904 49.4802 16.5586 49.3214L15.9026 45.9886C15.8784 45.8662 15.8811 45.7399 15.9105 45.6187C15.94 45.4974 15.9954 45.3841 16.073 45.2868C16.1506 45.1894 16.2484 45.1104 16.3596 45.0552C16.4707 45 16.5926 44.97 16.7165 44.9673C19.0195 44.9169 21.103 44.6906 22.0248 44.3907C22.1341 44.355 22.2495 44.3419 22.364 44.3524C22.4785 44.3628 22.5897 44.3966 22.6909 44.4516C22.7921 44.5066 22.8811 44.5817 22.9526 44.6723C23.0241 44.7629 23.0767 44.8673 23.107 44.9789L24.2842 48.8328C24.3162 48.9467 24.3252 49.0659 24.3107 49.1834C24.2961 49.3008 24.2583 49.4142 24.1994 49.5167C24.1469 49.6091 24.0762 49.6897 23.9916 49.7537C23.9071 49.8178 23.8105 49.8638 23.7078 49.889C22.555 50.1712 21.3728 50.3131 20.1865 50.3117ZM16.4341 45.88L17.0901 49.2154C17.1014 49.273 17.1286 49.3262 17.1686 49.369C17.2085 49.4117 17.2596 49.4423 17.316 49.4572C17.8012 49.5787 20.3841 50.1462 23.5794 49.3589C23.6437 49.3408 23.6985 49.2981 23.7322 49.24C23.7543 49.2012 23.7687 49.1584 23.7744 49.1141C23.7802 49.0697 23.7771 49.0246 23.7655 48.9814L22.5871 45.125C22.577 45.0835 22.5585 45.0445 22.5327 45.0105C22.5069 44.9765 22.4745 44.9482 22.4373 44.9275C22.4002 44.9067 22.3592 44.8939 22.3169 44.8899C22.2747 44.8858 22.232 44.8906 22.1917 44.904C21.017 45.2918 18.5972 45.4663 16.728 45.5064C16.6834 45.5068 16.6394 45.5174 16.5994 45.5373C16.5594 45.5572 16.5244 45.586 16.497 45.6215C16.4681 45.6572 16.4475 45.6989 16.4366 45.7436C16.4257 45.7883 16.4248 45.8349 16.4341 45.88Z" fill="#15006D"/>
<g style="mix-blend-mode:multiply">
<path d="M21.7424 47.553C22.1544 47.553 22.4883 47.2167 22.4883 46.8019C22.4883 46.3871 22.1544 46.0508 21.7424 46.0508C21.3305 46.0508 20.9966 46.3871 20.9966 46.8019C20.9966 47.2167 21.3305 47.553 21.7424 47.553Z" fill="#E3E4E5"/>
</g>
<path d="M20.3982 50.0973L19.9566 47.9849L18.6164 47.4859L18.1606 45.0877L18.6921 44.9856L19.0901 47.0812L20.4239 47.5789L20.9271 49.9848L20.3982 50.0973Z" fill="#15006D"/>
<g style="mix-blend-mode:multiply">
<path d="M13.9437 55.3796C12.3788 56.9309 10.3274 57.364 8.2952 56.5224C5.96905 55.5554 3.23723 52.9905 4.87529 49.9744C4.44401 50.177 4.06916 50.4839 3.78411 50.8677C1.40661 54.1411 4.34511 56.9891 6.82531 58.0117C8.86133 58.8533 10.9128 58.4228 12.4738 56.8702C13.0784 56.2793 14.1196 55.2115 13.9437 55.3796Z" fill="#E3E4E5"/>
</g>
<g style="mix-blend-mode:multiply">
<g style="mix-blend-mode:multiply">
<path d="M24.3072 57.8939C20.4868 56.4718 20.103 53.8862 20.0336 53.5579C19.9105 54.0153 19.8293 54.483 19.791 54.9554C19.818 56.2598 20.3405 58.1641 22.8361 59.3871C24.8541 60.3774 26.3291 59.0135 27.1854 57.7672C26.4062 58.261 25.4973 58.336 24.3072 57.8939Z" fill="#E3E4E5"/>
</g>
</g>
<g style="mix-blend-mode:multiply">
<path d="M31.499 46.9376L31.5658 46.8768L31.3411 46.4256L30.9342 45.6099C30.9226 45.6254 27.5656 50.1825 18.8464 49.9743L18.0518 49.88C18.0518 49.88 20.3753 51.2891 24.8646 50.4566C26.8506 50.0894 28.0547 49.8192 29.8866 48.8354C30.4566 49.721 31.7994 53.9924 30.5978 57.0317C30.594 57.0317 33.8342 54.6181 31.499 46.9376Z" fill="#E3E4E5"/>
</g>
<g style="mix-blend-mode:multiply">
<path d="M7.08967 49.0811C7.08967 49.0811 8.06404 49.1496 8.54929 50.4113C8.54929 50.4113 7.31048 49.8244 6.57617 49.7068L7.08967 49.0811Z" fill="#E3E4E5"/>
</g>
<path d="M21.4688 47.1302C21.7801 47.1302 22.0324 46.8761 22.0324 46.5627C22.0324 46.2492 21.7801 45.9951 21.4688 45.9951C21.1576 45.9951 20.9053 46.2492 20.9053 46.5627C20.9053 46.8761 21.1576 47.1302 21.4688 47.1302Z" fill="#2DB7C4"/>
<path d="M21.4701 47.4016H21.4162C21.2236 47.3892 21.0411 47.31 20.9 47.1774C20.7588 47.0448 20.6677 46.867 20.6421 46.6743C20.6165 46.4817 20.6581 46.286 20.7597 46.1207C20.8613 45.9554 21.0166 45.8307 21.1993 45.7678C21.382 45.705 21.5806 45.7078 21.7614 45.7759C21.9422 45.844 22.094 45.9731 22.1909 46.1412C22.2878 46.3093 22.3238 46.5061 22.2928 46.698C22.2618 46.8898 22.1657 47.0649 22.0209 47.1935C21.8688 47.3285 21.6728 47.4026 21.4701 47.4016ZM21.4701 46.2665C21.3991 46.2663 21.3305 46.2925 21.2776 46.3402C21.247 46.3652 21.2218 46.3961 21.2033 46.4311C21.1849 46.4661 21.1737 46.5045 21.1703 46.544C21.167 46.5835 21.1715 46.6232 21.1838 46.6609C21.1961 46.6986 21.2157 46.7334 21.2416 46.7632C21.2675 46.793 21.2992 46.8173 21.3346 46.8345C21.37 46.8518 21.4085 46.8616 21.4478 46.8635C21.4872 46.8655 21.5264 46.8594 21.5634 46.8456C21.6003 46.8319 21.6341 46.8108 21.6627 46.7836C21.6917 46.7581 21.7154 46.727 21.7324 46.6922C21.7494 46.6573 21.7593 46.6194 21.7615 46.5807C21.7641 46.542 21.7591 46.5032 21.7468 46.4665C21.7344 46.4298 21.715 46.396 21.6895 46.3669C21.6641 46.3378 21.6332 46.3141 21.5987 46.2971C21.5641 46.28 21.5265 46.2701 21.4881 46.2678L21.4701 46.2665Z" fill="#15006D"/>
<g style="mix-blend-mode:multiply">
<path d="M30.9933 43.1445C30.9933 43.1445 30.5004 41.7534 29.8534 41.8155C29.8534 41.8155 26.644 41.7017 25.5644 37.7044C25.4849 37.3639 25.4287 37.0184 25.3962 36.6702C24.3089 38.6236 21.2882 40.5149 18.1135 41.1497C14.5434 41.8608 12.5048 41.279 11.3931 40.0741C11.8847 40.5162 11.7153 40.6584 11.8154 41.1497C11.9528 41.8194 14.1557 42.9726 18.3381 42.2382C20.188 41.9138 23.1406 40.6248 24.5297 39.6462C25.4013 40.6158 27.8096 43.5104 28.9932 46.2782C26.2435 48.1127 23.925 48.4941 23.925 48.4941L23.8082 48.1127C20.3832 49.6421 16.6474 48.3713 16.6474 48.3713L16.5191 47.7249C14.9709 46.4334 12.7885 46.0507 12.7885 46.0507C12.9349 46.3726 13.1066 46.6821 13.302 46.9764C15.2931 47.6409 16.8285 49.2685 16.8285 49.2685C17.9145 50.5716 22.8133 49.7856 22.8133 49.7856C23.9687 49.5516 24.0521 49.337 24.0521 49.337C25.6446 48.9436 27.1737 48.3251 28.594 47.4999C29.2969 47.1473 29.9341 46.6749 30.4773 46.1037C30.7956 45.7999 31.0973 45.4315 31.1461 45.2362C31.3233 44.6959 31.3489 44.1684 30.9933 43.1445Z" fill="#E3E4E5"/>
</g>
</svg>
