<svg width="31" height="45" viewBox="0 0 31 45" fill="none" xmlns="http://www.w3.org/2000/svg">
<path d="M18.6123 36.1348C17.0343 36.7015 16.5938 36.688 16.5938 36.688L16.8854 44.1333C18.6133 44.4539 20.608 43.8055 20.608 43.8055C27.8175 43.1903 25.8394 36.4419 25.8394 36.4419C25.2624 29.9759 21.8768 25.9534 21.8768 25.9534L16.8636 28.4051L18.6123 36.1348Z" fill="white"/>
<path d="M17.9318 44.4436C17.5671 44.4455 17.203 44.4143 16.8439 44.3505L16.6681 44.3174L16.3579 36.4585L16.5988 36.4668C16.5988 36.4668 17.0125 36.4595 18.3475 35.9932L16.604 28.2852L21.9346 25.6763L22.0474 25.8097C22.0815 25.851 25.4774 29.9532 26.0585 36.4016C26.1423 36.7015 26.8765 39.5245 25.3957 41.6878C24.465 43.0455 22.8694 43.8325 20.6514 44.0269C19.7685 44.291 18.8532 44.4312 17.9318 44.4436ZM17.1045 43.939C18.7146 44.1727 20.5242 43.5957 20.5428 43.5895L20.5676 43.5812H20.5935C22.6843 43.4023 24.1775 42.6795 25.0317 41.4324C26.4442 39.3642 25.6366 36.5319 25.6283 36.504L25.6201 36.4606C25.1144 30.7887 22.3958 26.9833 21.8178 26.2326L17.1242 28.5293L18.8821 36.2848L18.6949 36.352C17.6722 36.7181 17.1128 36.8473 16.8336 36.8928L17.1045 43.939Z" fill="#15006D"/>
<path d="M22.7059 25.5552C22.8558 27.7413 18.6565 30.161 14.8584 30.2479C10.0675 30.3575 9.13064 28.6874 8.97967 26.5014C8.82869 24.3154 11.7789 22.331 15.5698 22.0704C19.3607 21.8098 22.5549 23.3692 22.7059 25.5552Z" fill="#EDBF40"/>
<path d="M14.4335 30.4763C9.69538 30.4763 8.89811 28.5787 8.75644 26.5168C8.5972 24.2108 11.6518 22.1158 15.5544 21.8469C17.4271 21.7177 19.2181 22.0186 20.6007 22.6939C22.0236 23.3887 22.8508 24.399 22.9294 25.5396C22.9739 26.19 22.675 26.8839 22.0639 27.5571C20.58 29.1847 17.5512 30.4101 14.8626 30.4711C14.7168 30.4752 14.5731 30.4763 14.4335 30.4763ZM16.3982 22.2657C16.1283 22.2657 15.8564 22.274 15.5823 22.2937C11.9207 22.546 9.05736 24.427 9.20006 26.4858C9.31794 28.2065 9.83808 30.0285 14.4283 30.0285C14.5658 30.0285 14.7054 30.0285 14.8502 30.0285C17.4271 29.9696 20.3204 28.8052 21.7309 27.2593C22.2562 26.6823 22.5158 26.1001 22.4796 25.5748C22.4124 24.6007 21.674 23.7217 20.4011 23.1002C19.2915 22.5532 17.8935 22.2657 16.4013 22.2657H16.3982Z" fill="#15006D"/>
<path d="M24.4916 21.0465C24.2 26.7246 19.011 28.8993 12.8428 28.6439C9.45724 28.5032 3.81019 26.3389 4.108 20.6598C4.40581 14.9807 9.06119 10.7441 14.8272 11.043C20.3274 11.3242 24.7832 15.3685 24.4916 21.0465Z" fill="white"/>
<path d="M13.7983 28.8881C13.4818 28.8881 13.1602 28.8812 12.8335 28.8674C10.7467 28.7806 7.61142 27.914 5.64462 25.7559C4.37065 24.3578 3.77709 22.6392 3.87946 20.6486C4.0232 17.836 5.22376 15.2777 7.25984 13.4443C9.29592 11.6109 11.9907 10.6719 14.8334 10.8177C20.7513 11.1218 24.9993 15.5248 24.7149 21.055C24.5733 23.8181 23.3179 25.9069 20.983 27.2594C19.1434 28.3318 16.674 28.8881 13.7983 28.8881ZM14.2553 11.25C11.7394 11.25 9.37968 12.1362 7.55972 13.7752C5.61256 15.5331 4.46475 17.9776 4.32618 20.6704C4.23001 22.5317 4.78531 24.1469 5.98069 25.4529C7.85443 27.5097 10.8563 28.3359 12.8573 28.4197C16.0629 28.552 18.7949 28.0184 20.7638 26.8758C22.9591 25.6018 24.139 23.6371 24.2734 21.0343C24.4078 18.4119 23.4865 15.9767 21.6779 14.1785C19.9262 12.4361 17.4889 11.401 14.8158 11.2634C14.6245 11.2551 14.4394 11.25 14.2553 11.25Z" fill="#15006D"/>
<path d="M4.84131 21.8884C4.84131 21.8884 3.13612 22.4706 2.97998 24.5129C2.97998 24.5129 4.3708 24.1386 4.75341 24.0176C4.75341 24.0176 4.29945 24.758 4.39149 25.3784C4.39149 25.3784 5.13084 25.4756 5.92501 24.516" fill="white"/>
<path d="M4.44929 25.6049C4.42106 25.6067 4.39274 25.6067 4.3645 25.6049L4.19698 25.5832L4.17216 25.4167C4.11942 25.0559 4.22283 24.6701 4.33658 24.3827C3.79886 24.5347 3.08225 24.727 3.04089 24.7384L2.73584 24.8211L2.76376 24.4964C2.92611 22.3311 4.69747 21.7044 4.77296 21.6765L4.91773 22.1005L4.84534 21.8885L4.91773 22.1005C4.48074 22.2776 4.09721 22.5651 3.80466 22.9348C3.5121 23.3046 3.32055 23.744 3.24874 24.21C3.68305 24.0921 4.43171 23.8863 4.69644 23.8036L5.26931 23.6226L4.95909 24.1345C4.95909 24.1397 4.64266 24.6588 4.61785 25.1437C4.85465 25.1034 5.29206 24.9462 5.7667 24.3734L6.11208 24.6588C5.38409 25.5201 4.68713 25.6049 4.44929 25.6049Z" fill="#15006D"/>
<path d="M12.6549 27.8747C11.9933 27.8614 11.3517 27.6447 10.8174 27.2542L11.0986 26.9058C11.1545 26.9513 12.506 28.0039 13.994 26.9937L14.2453 27.3639C13.7801 27.6931 13.2249 27.8714 12.6549 27.8747Z" fill="#15006D"/>
<path d="M8.33406 22.8849C8.34044 22.6634 7.84581 22.4695 7.22928 22.4517C6.61275 22.434 6.10778 22.5991 6.1014 22.8206C6.09502 23.0421 6.58964 23.2361 7.20618 23.2538C7.82271 23.2716 8.32768 23.1064 8.33406 22.8849Z" fill="#FF8080"/>
<g style="mix-blend-mode:multiply">
<path d="M13.9244 21.9949C13.9006 22.4985 13.304 22.8883 12.5873 22.8666C11.8707 22.8449 11.3134 22.4178 11.3372 21.9142C11.3609 21.4106 11.9111 21.2938 12.6256 21.3103C13.3402 21.3269 13.9482 21.4871 13.9244 21.9949Z" fill="#E3E4E5"/>
</g>
<path d="M11.5123 22.7591C11.4645 22.6776 11.4392 22.5848 11.439 22.4903C11.4388 22.3959 11.4636 22.303 11.5111 22.2213C11.5585 22.1396 11.6268 22.0719 11.7089 22.0252C11.7911 21.9786 11.8842 21.9545 11.9786 21.9556L13.2195 21.9949C13.3134 21.9993 13.4043 22.0293 13.4825 22.0815C13.5607 22.1338 13.6231 22.2063 13.6631 22.2914C13.7031 22.3765 13.7191 22.4709 13.7094 22.5644C13.6998 22.6579 13.6648 22.747 13.6083 22.8222C13.49 22.9939 13.3305 23.1332 13.1444 23.2274C12.9583 23.3216 12.7516 23.3677 12.5431 23.3614C12.3347 23.3551 12.1311 23.2967 11.951 23.1915C11.7709 23.0863 11.6201 22.9376 11.5123 22.7591Z" fill="#15006D"/>
<path d="M12.5742 23.5884H12.5111C12.2688 23.5781 12.0329 23.5075 11.8249 23.3828C11.6169 23.2582 11.4433 23.0837 11.3198 22.8749C11.2508 22.7581 11.2144 22.6249 11.2144 22.4892C11.2144 22.3535 11.2508 22.2203 11.3198 22.1035C11.3866 21.9873 11.4838 21.8914 11.6009 21.8262C11.7181 21.7609 11.8507 21.7288 11.9847 21.7333L13.2256 21.7716C13.3577 21.7754 13.4862 21.8153 13.5972 21.8869C13.7082 21.9586 13.7975 22.0592 13.8554 22.178C13.9161 22.3015 13.942 22.4393 13.9304 22.5765C13.9187 22.7137 13.8699 22.8451 13.7892 22.9566C13.6514 23.1509 13.4693 23.3095 13.258 23.4194C13.0467 23.5292 12.8123 23.5872 12.5742 23.5884ZM11.9672 22.179C11.9149 22.1793 11.8636 22.1934 11.8186 22.2199C11.7735 22.2464 11.7363 22.2844 11.7107 22.33C11.6835 22.3771 11.6691 22.4306 11.6691 22.4851C11.6691 22.5395 11.6835 22.593 11.7107 22.6402C11.7954 22.786 11.9158 22.9079 12.0605 22.9945C12.2051 23.0812 12.3694 23.1297 12.538 23.1355C12.7131 23.1413 12.8869 23.1036 13.0438 23.0258C13.2008 22.9481 13.3361 22.8326 13.4376 22.6898C13.4709 22.6442 13.4911 22.5903 13.4961 22.534C13.501 22.4776 13.4904 22.4211 13.4655 22.3703C13.4433 22.3243 13.4089 22.2854 13.3661 22.2576C13.3232 22.2299 13.2735 22.2145 13.2225 22.2131L11.9816 22.1749L11.9672 22.179Z" fill="#15006D"/>
<path d="M11.6042 25.0454C11.4436 25.0474 11.2843 25.0168 11.1358 24.9555C10.778 24.8024 10.536 24.4726 10.4182 23.9762C10.4114 23.9476 10.4103 23.918 10.4149 23.889C10.4196 23.86 10.4299 23.8322 10.4454 23.8072C10.4608 23.7821 10.481 23.7604 10.5048 23.7432C10.5286 23.726 10.5555 23.7136 10.5841 23.7068C10.6127 23.7001 10.6424 23.699 10.6714 23.7036C10.7004 23.7083 10.7282 23.7186 10.7532 23.734C10.7782 23.7494 10.7999 23.7696 10.8172 23.7934C10.8344 23.8173 10.8467 23.8442 10.8535 23.8728C10.9373 24.2234 11.0903 24.4488 11.3095 24.5429C11.6384 24.6835 12.0561 24.5263 12.2474 24.4395L12.3126 23.2369C12.3143 23.2078 12.3217 23.1794 12.3345 23.1533C12.3472 23.1271 12.365 23.1038 12.3869 23.0845C12.4087 23.0653 12.4341 23.0506 12.4616 23.0412C12.4892 23.0319 12.5183 23.0281 12.5473 23.03C12.6058 23.0343 12.6604 23.0614 12.6991 23.1055C12.7378 23.1496 12.7575 23.2072 12.7541 23.2658L12.6766 24.7135L12.5732 24.7745C12.2761 24.9401 11.9441 25.0329 11.6042 25.0454Z" fill="#15006D"/>
<path d="M13.4147 25.1686C12.8521 25.1686 12.3506 24.7736 12.3258 24.755C12.2834 24.7166 12.2572 24.6635 12.2527 24.6064C12.2481 24.5494 12.2655 24.4928 12.3013 24.4482C12.3371 24.4036 12.3885 24.3743 12.4452 24.3664C12.5018 24.3584 12.5593 24.3724 12.606 24.4054C12.6164 24.4147 13.1489 24.8304 13.5977 24.6981C13.8397 24.6267 14.0289 24.3951 14.1592 24.0094C14.1686 23.9816 14.1835 23.9558 14.2028 23.9337C14.2222 23.9116 14.2457 23.8936 14.2721 23.8805C14.2985 23.8675 14.3271 23.8598 14.3564 23.8579C14.3858 23.856 14.4152 23.8598 14.443 23.8693C14.4709 23.8787 14.4966 23.8935 14.5187 23.9129C14.5408 23.9323 14.5589 23.9558 14.5719 23.9822C14.5849 24.0085 14.5926 24.0372 14.5945 24.0665C14.5965 24.0959 14.5926 24.1253 14.5832 24.1531C14.4032 24.6857 14.1127 25.0135 13.7218 25.1283C13.6218 25.1563 13.5184 25.1698 13.4147 25.1686Z" fill="#15006D"/>
<path d="M9.812 22.3662C9.98508 22.2348 10.1282 22.068 10.2318 21.877C10.4893 21.4065 10.5689 20.8502 10.5938 20.3259C10.6537 19.0489 10.1419 17.9962 9.44904 17.9745C8.75621 17.9527 8.14715 18.9713 8.08614 20.2494C8.05045 20.8073 8.14203 21.366 8.35396 21.8832C8.41878 22.0428 8.51917 22.1854 8.64748 22.3003C8.77579 22.4152 8.92863 22.4992 9.09435 22.5461C9.21983 22.5713 9.34934 22.5682 9.47348 22.5371C9.59762 22.506 9.71326 22.4476 9.812 22.3662Z" fill="#15006D"/>
<path d="M10.1912 20.4206C10.2143 19.9729 10.0661 19.6014 9.86017 19.5907C9.65427 19.5801 9.46866 19.9345 9.44558 20.3822C9.42251 20.8299 9.57072 21.2015 9.77661 21.2121C9.98251 21.2227 10.1681 20.8683 10.1912 20.4206Z" fill="white"/>
<path d="M12.9976 22.2428C12.9999 22.1629 12.8397 22.0935 12.6399 22.0879C12.4401 22.0823 12.2763 22.1426 12.2741 22.2225C12.2718 22.3024 12.432 22.3717 12.6318 22.3774C12.8316 22.383 12.9954 22.3227 12.9976 22.2428Z" fill="white"/>
<path d="M9.3882 16.4026C8.95906 16.3933 8.53303 16.6187 8.19075 17.0386C8.16027 17.0747 8.14355 17.1205 8.14355 17.1678C8.14355 17.2151 8.16027 17.2609 8.19075 17.2971C8.2193 17.3328 8.26018 17.3565 8.30534 17.3636C8.3505 17.3707 8.39668 17.3606 8.43479 17.3354C8.71062 17.1532 9.03495 17.0584 9.36545 17.0634C9.69492 17.0715 10.0141 17.1797 10.2806 17.3736C10.3192 17.4013 10.3669 17.4131 10.414 17.4067C10.4573 17.4001 10.4971 17.379 10.5267 17.3467C10.5597 17.3127 10.5796 17.268 10.5828 17.2207C10.5861 17.1734 10.5724 17.1264 10.5443 17.0882C10.2299 16.658 9.81837 16.413 9.3882 16.4026Z" fill="#15006D"/>
<path d="M19.44 23.3273C19.4464 23.1058 18.9518 22.9119 18.3352 22.8941C17.7187 22.8764 17.2137 23.0415 17.2074 23.263C17.201 23.4845 17.6956 23.6785 18.3121 23.6962C18.9287 23.714 19.4336 23.5488 19.44 23.3273Z" fill="#FF8080"/>
<path d="M15.5679 22.7342C15.4117 22.5875 15.2899 22.4081 15.2111 22.2089C15.0146 21.7177 15.0043 21.1562 15.0467 20.6299C15.1501 19.3549 15.7881 18.3549 16.4789 18.4004C17.1696 18.4459 17.6484 19.5141 17.5481 20.7891C17.513 21.3508 17.3522 21.8975 17.0776 22.3888C16.993 22.5414 16.8757 22.6733 16.7341 22.7752C16.5925 22.8771 16.4302 22.9465 16.2586 22.9782C16.1325 22.9923 16.0049 22.9776 15.8853 22.9353C15.7657 22.8931 15.6572 22.8243 15.5679 22.7342Z" fill="#15006D"/>
<path d="M16.1839 20.9944C16.2207 20.5471 16.084 20.1707 15.8786 20.1537C15.6731 20.1368 15.4766 20.4858 15.4398 20.9331C15.4029 21.3805 15.5396 21.7569 15.7451 21.7738C15.9506 21.7907 16.147 21.4418 16.1839 20.9944Z" fill="white"/>
<path d="M17.8467 17.5784C17.5623 17.1234 17.1673 16.8546 16.734 16.8132C16.3008 16.7719 15.854 16.9714 15.4745 17.3675C15.4416 17.4009 15.4217 17.4451 15.4184 17.4919C15.4152 17.5388 15.4289 17.5852 15.457 17.6229C15.4794 17.6535 15.5103 17.6769 15.5459 17.6901C15.5707 17.6984 15.5969 17.7014 15.6229 17.6989C15.6489 17.6964 15.6741 17.6885 15.6969 17.6756C15.9908 17.5124 16.3266 17.4404 16.6616 17.4688C16.9927 17.4991 17.3064 17.6305 17.5603 17.8452C17.5955 17.874 17.6401 17.8889 17.6856 17.8872C17.7311 17.8855 17.7744 17.8673 17.8074 17.8359C17.8439 17.8049 17.8679 17.7618 17.8752 17.7145C17.8824 17.6672 17.8723 17.6189 17.8467 17.5784Z" fill="#15006D"/>
<g style="mix-blend-mode:multiply">
<path d="M21.4411 13.6562C23.0863 15.3945 24.046 17.746 23.9053 20.4811C23.6137 26.1592 18.4248 28.34 12.2565 28.0784C10.3456 27.9988 7.71283 27.2739 5.83496 25.6359C7.7149 27.6772 10.722 28.5603 12.8429 28.6482C19.0121 28.9036 24.2 26.729 24.4916 21.0509C24.6478 18.0055 23.4452 15.4338 21.4411 13.6562Z" fill="#E3E4E5"/>
</g>
<path d="M22.4815 22.2441C22.9872 22.412 23.4405 22.7088 23.7966 23.1052C24.1527 23.5016 24.3995 23.9839 24.5124 24.5046C24.5124 24.5046 23.0472 24.3733 22.4267 24.3081C22.4267 24.3081 23.0854 25.0454 23.1082 25.7558C23.1082 25.7558 22.0307 25.8665 21.5229 25.213" fill="white"/>
<path d="M22.9281 25.9895C22.56 25.9895 21.7907 25.9172 21.3491 25.3536L21.7028 25.0785C21.9975 25.458 22.5455 25.5314 22.8568 25.5408C22.7327 24.9906 22.2684 24.4633 22.2622 24.457L21.8786 24.0258L22.4535 24.0858C22.8878 24.1313 23.7471 24.2099 24.2114 24.2523C24.0738 23.8344 23.8401 23.4545 23.529 23.1433C23.218 22.8321 22.8383 22.5981 22.4204 22.4603L22.5404 22.0291C23.0866 22.2054 23.5766 22.5225 23.9611 22.9486C24.3456 23.3747 24.611 23.8947 24.7305 24.456L24.7967 24.7549L24.4927 24.728C24.4813 24.728 23.59 24.6463 22.9075 24.5811C23.1019 24.8852 23.3211 25.3164 23.3314 25.7517L23.3376 25.9585L23.1308 25.9802C23.1184 25.9823 23.0429 25.9895 22.9281 25.9895Z" fill="#15006D"/>
<path d="M25.836 34.3097C25.8548 34.3842 25.8503 34.4628 25.8231 34.5347C25.7959 34.6066 25.7474 34.6684 25.684 34.7119C24.2663 35.6674 20.8983 36.2568 17.9512 36.3985C15.0041 36.5402 12.3352 36.3096 10.4842 35.8298C10.4022 35.8089 10.3295 35.7612 10.2776 35.6943C10.2258 35.6275 10.1977 35.5452 10.1978 35.4606V33.2756C10.1979 33.2184 10.2109 33.1619 10.2358 33.1104C10.2607 33.0588 10.2969 33.0135 10.3417 32.9779C10.3865 32.9422 10.4387 32.9171 10.4945 32.9044C10.5503 32.8917 10.6083 32.8917 10.6641 32.9044C12.5534 33.3356 15.1158 33.7441 17.8602 33.6127C20.6046 33.4814 23.0988 32.742 24.7461 31.8424C24.7972 31.8144 24.8541 31.7986 24.9124 31.7962C24.9706 31.7938 25.0286 31.8049 25.0819 31.8287C25.1351 31.8524 25.1822 31.8881 25.2193 31.933C25.2565 31.9779 25.2828 32.0307 25.2962 32.0875L25.836 34.3097Z" fill="#BEC2DC"/>
<path d="M16.2639 36.6662C14.0427 36.6662 11.9777 36.4522 10.4286 36.0458C10.2986 36.0122 10.1834 35.9364 10.1011 35.8303C10.0188 35.7242 9.97393 35.5938 9.97363 35.4595V33.2755C9.97388 33.1848 9.99452 33.0952 10.034 33.0135C10.0735 32.9318 10.1309 32.86 10.2019 32.8034C10.2728 32.7468 10.3556 32.7069 10.4441 32.6866C10.5326 32.6663 10.6245 32.6661 10.713 32.6861C13.2227 33.259 15.6228 33.4958 17.8481 33.3882C20.3195 33.2704 22.8571 32.6179 24.6367 31.6458C24.7181 31.6011 24.8087 31.5758 24.9014 31.5718C24.9942 31.5679 25.0866 31.5854 25.1715 31.623C25.2564 31.6607 25.3314 31.7174 25.3907 31.7888C25.4501 31.8602 25.4921 31.9443 25.5136 32.0346L26.0534 34.2672C26.0829 34.3862 26.0753 34.5114 26.0317 34.6259C25.9881 34.7405 25.9105 34.839 25.8094 34.9083C24.8167 35.5774 22.1643 36.4305 17.9618 36.6321C17.39 36.6528 16.8274 36.6662 16.2639 36.6662ZM10.5765 33.1132C10.5351 33.1137 10.4955 33.1305 10.4663 33.1599C10.4371 33.1893 10.4206 33.2289 10.4204 33.2704V35.4647C10.4206 35.4998 10.4326 35.5339 10.4543 35.5616C10.476 35.5893 10.5062 35.609 10.5403 35.6177C12.4358 36.1089 15.1326 36.3126 17.9391 36.1782C20.7114 36.0458 24.1435 35.4843 25.5591 34.5309C25.5842 34.5125 25.6032 34.487 25.6137 34.4577C25.6242 34.4284 25.6257 34.3966 25.6181 34.3665L25.0783 32.1381C25.0723 32.1152 25.0611 32.094 25.0457 32.0761C25.0303 32.0582 25.011 32.044 24.9894 32.0346C24.9677 32.025 24.9441 32.0205 24.9204 32.0215C24.8967 32.0226 24.8735 32.0292 24.8529 32.0409C23.0164 33.0439 20.4064 33.716 17.8698 33.8381C15.6041 33.9466 13.1627 33.7067 10.6137 33.1256C10.6022 33.12 10.59 33.1159 10.5775 33.1132H10.5765Z" fill="#15006D"/>
<g style="mix-blend-mode:multiply">
<g style="mix-blend-mode:multiply">
<path d="M20.1123 36.6673C22.2776 36.4357 24.4068 35.9817 25.628 35.3375L25.5132 34.8267C24.3944 35.4895 22.3252 35.9641 20.1723 36.2196C20.1537 36.3592 20.1361 36.5101 20.1123 36.6673Z" fill="#E3E4E5"/>
</g>
</g>
<g style="mix-blend-mode:multiply">
<path d="M21.3772 34.7936C21.5416 39.7778 17.3351 43.8221 12.3488 43.8221C9.95428 43.8221 7.65785 42.8708 5.96469 41.1777C4.27152 39.4845 3.32031 37.1881 3.32031 34.7936C3.32031 32.3991 4.27152 30.1027 5.96469 28.4095C7.65785 26.7163 9.95428 25.7651 12.3488 25.7651C17.334 25.7651 21.2325 30.4195 21.3772 34.7936Z" fill="#E3E4E5"/>
</g>
<path d="M11.2279 44.0196C16.2605 44.0196 20.3402 39.9399 20.3402 34.9074C20.3402 29.8748 16.2605 25.7952 11.2279 25.7952C6.1954 25.7952 2.11572 29.8748 2.11572 34.9074C2.11572 39.9399 6.1954 44.0196 11.2279 44.0196Z" fill="#4BE1D9"/>
<g style="mix-blend-mode:multiply">
<path d="M10.3123 30.2727C11.5042 29.8306 12.2241 28.8081 11.9202 27.9889C11.6164 27.1696 10.4038 26.8639 9.21188 27.306C8.01996 27.7481 7.30004 28.7706 7.6039 29.5898C7.90776 30.4091 9.12034 30.7148 10.3123 30.2727Z" fill="#4BE1D9"/>
</g>
<g style="mix-blend-mode:multiply">
<path d="M16.7999 30.7207C17.1791 30.3431 17.0282 29.5768 16.4628 29.009C15.8974 28.4413 15.1317 28.2871 14.7525 28.6647C14.3733 29.0423 14.5243 29.8086 15.0896 30.3764C15.655 30.9442 16.4207 31.0983 16.7999 30.7207Z" fill="#4BE1D9"/>
</g>
<g style="mix-blend-mode:multiply">
<path d="M9.21219 27.3049C8.1471 27.6999 7.45427 28.5592 7.54216 29.3223C7.71692 28.7019 8.32392 28.1021 9.16772 27.7888C10.359 27.3462 11.5719 27.6523 11.8759 28.4723C11.9073 28.5584 11.9281 28.648 11.938 28.7391C12.0126 28.4934 12.0064 28.2303 11.9204 27.9884C11.6164 27.1746 10.4034 26.8643 9.21219 27.3049Z" fill="#89DFE3"/>
</g>
<g style="mix-blend-mode:multiply">
<path d="M15.3008 30.5331C14.7352 29.9654 14.5842 29.1992 14.9637 28.8207C15.2667 28.5198 15.8148 28.557 16.308 28.8724C15.7641 28.4205 15.094 28.3213 14.7476 28.6656C14.3691 29.043 14.5201 29.8103 15.0847 30.378C15.1948 30.4887 15.3169 30.5869 15.4487 30.6707C15.4001 30.6283 15.3494 30.5869 15.3008 30.5331Z" fill="#89DFE3"/>
</g>
<g style="mix-blend-mode:multiply">
<path d="M16.7384 40.4671C17.6903 39.6244 17.9923 38.4109 17.4131 37.7567C16.8339 37.1024 15.5928 37.2552 14.6409 38.0979C13.6891 38.9406 13.387 40.1541 13.9662 40.8084C14.5455 41.4626 15.7866 41.3098 16.7384 40.4671Z" fill="#4BE1D9"/>
</g>
<g style="mix-blend-mode:multiply">
<path d="M8.87869 41.6805C9.21791 41.2748 9.01059 40.5426 8.41561 40.0451C7.82063 39.5476 7.06331 39.4732 6.72408 39.8789C6.38486 40.2846 6.59219 41.0168 7.18717 41.5143C7.78215 42.0118 8.53947 42.0862 8.87869 41.6805Z" fill="#4BE1D9"/>
</g>
<g style="mix-blend-mode:multiply">
<path d="M16.7394 40.4645C15.8884 41.2183 14.8067 41.4189 14.1729 40.9867C14.7995 41.1232 15.6205 40.8729 16.2917 40.2763C17.243 39.4335 17.545 38.2195 16.9659 37.566C16.9047 37.4973 16.8353 37.4365 16.7591 37.385C17.0108 37.4349 17.2399 37.5643 17.4126 37.7542C17.9927 38.4087 17.6908 39.6217 16.7394 40.4645Z" fill="#89DFE3"/>
</g>
<g style="mix-blend-mode:multiply">
<path d="M7.24151 41.2059C7.8361 41.7033 8.59407 41.7788 8.93324 41.3724C8.97719 41.3173 9.01209 41.2555 9.03665 41.1894C9.04412 41.3673 8.9868 41.5418 8.87533 41.6806C8.53616 42.0859 7.77922 42.0115 7.1836 41.5141C6.66656 41.085 6.44631 40.48 6.61176 40.0664C6.62003 40.4366 6.84339 40.874 7.24151 41.2059Z" fill="#89DFE3"/>
</g>
<g style="mix-blend-mode:multiply">
<path d="M10.3353 38.5835C12.1332 38.5835 13.5906 37.1261 13.5906 35.3282C13.5906 33.5304 12.1332 32.073 10.3353 32.073C8.5375 32.073 7.08008 33.5304 7.08008 35.3282C7.08008 37.1261 8.5375 38.5835 10.3353 38.5835Z" fill="#4BE1D9"/>
</g>
<g style="mix-blend-mode:multiply">
<path d="M7.92825 37.0116C7.65611 36.3997 7.5793 35.7188 7.7083 35.0617C7.8373 34.4046 8.16583 33.8032 8.64909 33.3396C9.13235 32.876 9.74683 32.5728 10.4088 32.4712C11.0707 32.3696 11.7478 32.4746 12.3479 32.7719C11.9897 32.4908 11.5764 32.288 11.1349 32.1766C10.6934 32.0651 10.2334 32.0476 9.78474 32.1251C9.33603 32.2026 8.90859 32.3735 8.53004 32.6265C8.15149 32.8796 7.83027 33.2093 7.58715 33.5943C7.34402 33.9794 7.18441 34.4111 7.11862 34.8617C7.05283 35.3123 7.08233 35.7716 7.20522 36.2101C7.32811 36.6485 7.54164 37.0563 7.83202 37.4071C8.1224 37.7578 8.48316 38.0437 8.89097 38.2463C8.47365 37.9199 8.14302 37.4959 7.92825 37.0116Z" fill="#89DFE3"/>
</g>
<path d="M11.9205 27.9883C12.0051 28.2327 12.0127 28.4973 11.9422 28.7462C11.8718 28.996 11.7527 29.2294 11.5916 29.4329C11.2611 29.8439 10.8351 30.168 10.3508 30.377C9.85474 30.5999 9.30836 30.687 8.7676 30.6293C8.48355 30.5968 8.21022 30.5018 7.96723 30.3511C7.70298 30.1959 7.50036 29.9542 7.39355 29.6669C7.28674 29.3797 7.28228 29.0643 7.38091 28.7742C7.46773 28.5013 7.61313 28.2507 7.80695 28.04C8.18028 27.6433 8.65247 27.3531 9.17502 27.1993C9.67682 27.0426 10.2093 27.011 10.7261 27.1072C10.9808 27.1566 11.2233 27.2557 11.4396 27.3989C11.6561 27.5419 11.8238 27.7475 11.9205 27.9883ZM11.9205 27.9883C11.8249 27.7486 11.6539 27.5464 11.4334 27.4123C11.2161 27.2793 10.9721 27.196 10.7189 27.1683C10.217 27.1181 9.71077 27.2016 9.25154 27.4102C8.80384 27.6052 8.41053 27.9066 8.10579 28.2882C7.96323 28.4672 7.85777 28.6728 7.79557 28.8931C7.73272 29.0954 7.7386 29.3129 7.8123 29.5115C7.886 29.7102 8.02337 29.8789 8.203 29.9913C8.39299 30.1182 8.60637 30.2061 8.83068 30.2498C9.31064 30.3406 9.80554 30.3126 10.2722 30.1681C10.7566 30.0271 11.1949 29.7598 11.542 29.3936C11.7158 29.2071 11.8464 28.9847 11.9246 28.7421C12.0049 28.497 12.0035 28.2325 11.9205 27.9883Z" fill="#15006D"/>
<path d="M16.4621 29.0101C16.6921 29.2373 16.8706 29.5113 16.9853 29.8136C17.0454 29.9701 17.0725 30.1373 17.0649 30.3048C17.0587 30.4863 16.9929 30.6607 16.8778 30.8011C16.7497 30.9433 16.5787 31.0395 16.3907 31.0751C16.2091 31.1092 16.0222 31.1043 15.8427 31.0607C15.497 30.9698 15.1817 30.7885 14.9294 30.5353C14.6772 30.2821 14.4969 29.9662 14.4074 29.6202C14.3649 29.4404 14.3607 29.2537 14.395 29.0722C14.4315 28.8841 14.5289 28.7133 14.6721 28.5861C14.8131 28.4715 14.9879 28.4064 15.1695 28.401C15.3374 28.3947 15.5048 28.4225 15.6617 28.4827C15.9629 28.5997 16.2358 28.7795 16.4621 29.0101ZM16.4621 29.0101C16.2375 28.7819 15.9546 28.6199 15.6441 28.5417C15.494 28.5066 15.3381 28.5045 15.1871 28.5355C15.0485 28.5629 14.923 28.6357 14.8303 28.7423C14.6659 28.9574 14.6824 29.251 14.7796 29.5106C14.8869 29.7751 15.0458 30.0156 15.2469 30.2182C15.4481 30.4208 15.6875 30.5813 15.9512 30.6905C16.2097 30.7939 16.5045 30.8063 16.7206 30.6429C16.8279 30.5508 16.9018 30.4257 16.9305 30.2872C16.9613 30.1362 16.9596 29.9804 16.9253 29.8301C16.8487 29.5196 16.6885 29.236 16.4621 29.0101Z" fill="#15006D"/>
<path d="M17.4136 37.7542C17.2377 37.5657 17.0056 37.4391 16.7518 37.3933C16.5011 37.3478 16.2434 37.3581 15.997 37.4233C15.5101 37.5572 15.0676 37.818 14.7147 38.1792C14.3672 38.5219 14.1093 38.9448 13.964 39.4108C13.8963 39.6293 13.873 39.8593 13.8957 40.087C13.9099 40.2984 13.9939 40.4991 14.1344 40.6576C14.275 40.8161 14.4642 40.9235 14.6723 40.9629C14.8956 41.0123 15.1265 41.0173 15.3517 40.9774C15.8316 40.8885 16.2824 40.6837 16.665 40.3807C17.0657 40.0742 17.3782 39.6671 17.5708 39.2008C17.665 38.9638 17.7063 38.7089 17.6918 38.4542C17.6773 38.1969 17.5797 37.9513 17.4136 37.7542ZM17.4136 37.7542C17.5804 37.952 17.6832 38.1957 17.7084 38.4532C17.7326 38.7117 17.7055 38.9725 17.6287 39.2205C17.4699 39.7234 17.1901 40.1797 16.8139 40.5493C16.4321 40.9364 15.9542 41.2152 15.4293 41.3569C15.1521 41.4282 14.8627 41.438 14.5813 41.3858C14.2788 41.3361 14.0028 41.1835 13.7997 40.9539C13.5966 40.7243 13.479 40.4316 13.4666 40.1253C13.4491 39.8402 13.4939 39.5547 13.5979 39.2887C13.8028 38.7848 14.1375 38.3442 14.5679 38.0117C14.98 37.6829 15.4664 37.4603 15.9846 37.3633C16.2401 37.3169 16.5024 37.3218 16.756 37.3778C17.0084 37.4334 17.2378 37.5647 17.4136 37.7542Z" fill="#15006D"/>
<path d="M8.87928 41.6804C8.97587 41.5572 9.02929 41.4057 9.03128 41.2492C9.03312 41.0948 8.99988 40.9421 8.93408 40.8025C8.80123 40.5294 8.59726 40.2972 8.34363 40.1303C8.10645 39.9684 7.83431 39.8649 7.54946 39.8284C7.27854 39.7974 7.02519 39.8646 6.89593 40.0217C6.76667 40.1789 6.74289 40.4354 6.82148 40.6991C6.90858 40.9715 7.0588 41.2195 7.25992 41.4229C7.46864 41.6432 7.73305 41.8029 8.02513 41.8851C8.17394 41.9249 8.32974 41.9309 8.48116 41.9027C8.63482 41.8747 8.77485 41.7965 8.87928 41.6804ZM8.87928 41.6804C8.77543 41.799 8.63807 41.8834 8.4853 41.9224C8.33135 41.9618 8.17128 41.9713 8.01376 41.9503C7.69066 41.9064 7.38265 41.7862 7.11515 41.5997C6.83165 41.4086 6.60484 41.1446 6.45852 40.8356C6.3822 40.6664 6.34441 40.4824 6.34787 40.2968C6.34852 40.0911 6.42131 39.8921 6.55358 39.7345C6.68585 39.5769 6.86921 39.4707 7.07172 39.4344C7.25361 39.3985 7.44124 39.4038 7.62081 39.4499C7.95086 39.5381 8.25074 39.7143 8.4884 39.9597C8.71923 40.1896 8.89218 40.471 8.99302 40.7808C9.04178 40.9322 9.06074 41.0916 9.04886 41.2502C9.03758 41.4076 8.9784 41.5577 8.87928 41.6804Z" fill="#15006D"/>
<path d="M13.3112 34.0045C13.5322 34.5028 13.6292 35.0472 13.5938 35.5911C13.5584 36.135 13.3917 36.6623 13.108 37.1277C12.8243 37.5932 12.4321 37.9829 11.9648 38.2636C11.4976 38.5443 10.9693 38.7076 10.4251 38.7395C9.97259 38.7654 9.5195 38.6996 9.09303 38.5461C8.66656 38.3926 8.27551 38.1545 7.94334 37.8461C7.60813 37.5359 7.33948 37.1608 7.15372 36.7436C6.96795 36.3264 6.86896 35.8758 6.86274 35.4191C6.85026 34.6421 7.10689 33.8846 7.58912 33.2752C8.07135 32.6657 8.7495 32.2418 9.50859 32.0753C10.2677 31.9088 11.061 32.0099 11.7541 32.3615C12.4471 32.7131 12.9973 33.2936 13.3112 34.0045ZM13.3112 34.0045C13.1349 33.6147 12.8836 33.2634 12.5718 32.9704C12.04 32.4798 11.3553 32.1876 10.6332 32.1431C9.91105 32.0985 9.19562 32.3044 8.60756 32.7259C8.01951 33.1474 7.59479 33.7588 7.40504 34.457C7.21528 35.1552 7.2721 35.8975 7.56591 36.5587C7.89799 37.3024 8.50522 37.8887 9.2602 38.1945C10.0152 38.5003 10.8593 38.5018 11.6153 38.1987C12.2033 37.962 12.7058 37.5527 13.0565 37.0248C13.4072 36.4968 13.5898 35.875 13.5801 35.2412C13.5719 34.8154 13.4806 34.3953 13.3112 34.0045Z" fill="#15006D"/>
<path d="M11.228 44.1603C9.39791 44.1603 7.60897 43.6176 6.08735 42.6009C4.56572 41.5841 3.37976 40.1391 2.67943 38.4483C1.97911 36.7576 1.79587 34.8971 2.15289 33.1023C2.50992 31.3074 3.39117 29.6587 4.6852 28.3646C5.97923 27.0706 7.62794 26.1894 9.42281 25.8323C11.2177 25.4753 13.0781 25.6586 14.7689 26.3589C16.4596 27.0592 17.9047 28.2452 18.9214 29.7668C19.9381 31.2884 20.4808 33.0774 20.4808 34.9074C20.4781 37.3606 19.5023 39.7125 17.7677 41.4471C16.033 43.1818 13.6811 44.1575 11.228 44.1603ZM11.228 26.1033C9.48643 26.1033 7.78401 26.6198 6.336 27.5873C4.88798 28.5549 3.75941 29.9301 3.093 31.5391C2.4266 33.1481 2.25229 34.9186 2.59212 36.6266C2.93195 38.3347 3.77066 39.9036 5.00217 41.1349C6.23369 42.3663 7.80271 43.2048 9.5108 43.5445C11.2189 43.8841 12.9893 43.7096 14.5982 43.043C16.2071 42.3764 17.5822 41.2477 18.5496 39.7995C19.517 38.3514 20.0333 36.6489 20.0331 34.9074C20.0306 32.573 19.1021 30.3349 17.4513 28.6843C15.8005 27.0338 13.5624 26.1055 11.228 26.1033Z" fill="#15006D"/>
<path d="M18.8953 36.8525L18.9015 36.8577C18.2132 36.6179 17.4755 36.556 16.7568 36.6777V41.755H22.9923V36.5102C20.4919 35.7026 18.8953 36.8525 18.8953 36.8525Z" fill="white"/>
<path d="M6.84559 40.0157C6.84559 41.9856 5.66468 43.5822 4.20871 43.5822C2.75274 43.5822 1.5708 41.9856 1.5708 40.0157C1.5708 38.0458 2.47044 36.0676 3.92641 36.0676C5.38238 36.0676 6.84559 38.0458 6.84559 40.0157Z" fill="#F5F5F7"/>
<path d="M4.2116 43.8096C2.63154 43.8096 1.34619 42.1075 1.34619 40.0156C1.34619 37.963 2.31201 35.8411 3.93137 35.8411C5.5197 35.8411 7.07907 37.9092 7.07907 40.0156C7.07907 42.122 5.78855 43.8096 4.2116 43.8096ZM3.9293 36.2961C2.61499 36.2961 1.80222 38.2267 1.80222 40.0187C1.80222 41.8593 2.88282 43.3567 4.2116 43.3567C5.54038 43.3567 6.62098 41.8593 6.62098 40.0187C6.62098 38.1781 5.25911 36.2961 3.92619 36.2961H3.9293Z" fill="#15006D"/>
<path d="M20.8922 28.8291C20.4703 29.6957 19.1467 30.587 17.4022 31.162C16.575 31.435 14.9287 31.7193 14.329 32.4349C13.5927 33.3128 13.6754 34.9529 14.5875 35.6902C15.301 36.2672 16.3134 36.3251 17.1913 36.3333C18.5728 36.3478 22.7566 34.7822 23.5136 31.7762" fill="white"/>
<path d="M17.2086 36.5566H17.189C16.2645 36.5473 15.2149 36.4853 14.4466 35.8638C13.9896 35.4936 13.6897 34.8907 13.6194 34.2093C13.549 33.4854 13.7486 32.7719 14.1529 32.29C14.6617 31.683 15.7754 31.3801 16.6709 31.137C16.9149 31.0709 17.1455 31.0078 17.3286 30.9478C19.0007 30.3987 20.2881 29.5487 20.6862 28.7297L21.0895 28.9252C20.6324 29.8641 19.2778 30.7793 17.4702 31.3738C17.2758 31.4369 17.0401 31.501 16.7908 31.5693C15.9998 31.7833 14.9171 32.0781 14.4983 32.5775C14.1695 32.9694 14.0082 33.563 14.0671 34.1658C14.1209 34.7284 14.3618 35.2206 14.7258 35.5153C15.3824 36.0458 16.3431 36.0995 17.191 36.1089H17.2076C17.8652 36.1089 19.224 35.7211 20.4721 34.9941C21.5403 34.3737 22.897 33.2983 23.2941 31.7203L23.7284 31.8299C23.2931 33.5588 21.8402 34.7149 20.6976 35.3809C19.3698 36.1554 17.9438 36.5566 17.2086 36.5566Z" fill="#15006D"/>
<path d="M20.768 43.9607L20.4464 43.6453C21.7224 42.3589 21.5435 39.9754 20.647 38.507C19.9045 37.291 18.3193 36.6292 16.7909 36.898L16.7134 36.4565C18.4196 36.1576 20.193 36.9042 21.0286 38.2733C22.3149 40.3735 21.9044 42.8139 20.768 43.9607Z" fill="#15006D"/>
<path d="M19.5736 40.6237C19.5736 42.5936 18.4361 44.1902 17.0287 44.1902C15.6214 44.1902 14.4839 42.5936 14.4839 40.6237C14.4839 38.6538 15.3515 36.6777 16.7588 36.6777C18.1662 36.6777 19.5736 38.6528 19.5736 40.6237Z" fill="#F5F5F7"/>
<path d="M17.0343 44.4147C15.508 44.4147 14.2661 42.7136 14.2661 40.6238C14.2661 38.5742 15.1968 36.4534 16.7624 36.4534C18.2969 36.4534 19.8025 38.5215 19.8025 40.6238C19.8025 42.726 18.5554 44.4147 17.0343 44.4147ZM16.7624 36.9011C15.4967 36.9011 14.7139 38.8338 14.7139 40.6238C14.7139 42.4675 15.7541 43.9669 17.0343 43.9669C18.3145 43.9669 19.3548 42.4675 19.3548 40.6238C19.3548 38.78 18.0415 36.9011 16.7572 36.9011H16.7624Z" fill="#15006D"/>
<path d="M19.0257 37.0344L18.7651 36.6714C18.8344 36.6218 20.4838 35.4636 23.0617 36.2971L22.9283 36.7231C21.6978 36.326 20.705 36.4315 20.0887 36.5897C19.7123 36.6783 19.3531 36.8285 19.0257 37.0344Z" fill="#15006D"/>
<path d="M17.4023 31.1609C17.4023 31.1609 19.5739 33.3624 18.6122 36.1348L17.4023 31.1609Z" fill="white"/>
<path d="M18.8243 36.2081L18.4013 36.0613C19.3041 33.4575 17.2638 31.3387 17.2432 31.318L17.5617 31.0078C17.6547 31.0978 19.819 33.3365 18.8243 36.2081Z" fill="#15006D"/>
<path d="M1.45388 30.7701C2.05778 29.6564 3.6399 28.9139 4.93559 29.614C6.23128 30.314 6.46395 31.9841 5.85902 33.0977C5.25409 34.2114 3.98942 34.7523 2.6989 34.0553C1.40838 33.3583 0.848949 31.8837 1.45388 30.7701Z" fill="white"/>
<path d="M3.85501 34.593C3.41049 34.5874 2.97453 34.47 2.58724 34.2518C1.93265 33.9058 1.42405 33.3363 1.15402 32.6469C1.02587 32.3287 0.968735 31.9864 0.986595 31.6438C1.00446 31.3012 1.09689 30.9667 1.25743 30.6636C1.912 29.4589 3.62545 28.6502 5.03799 29.4175C5.36446 29.5967 5.64822 29.8445 5.86975 30.1439C6.09128 30.4432 6.24532 30.787 6.32127 31.1516C6.47902 31.8461 6.3833 32.5741 6.05138 33.2043C5.74505 33.7929 5.22813 34.2445 4.60368 34.4689C4.36263 34.5511 4.10969 34.5931 3.85501 34.593ZM3.8364 29.5747C3.38835 29.5743 2.94855 29.6952 2.56367 29.9246C2.1788 30.154 1.8632 30.4833 1.65038 30.8776C1.52078 31.1243 1.44669 31.3963 1.43329 31.6746C1.4199 31.9529 1.46752 32.2307 1.57282 32.4887C1.80497 33.0778 2.2409 33.564 2.8013 33.8588C3.35556 34.1597 3.92947 34.2249 4.45581 34.045C4.97582 33.858 5.40583 33.4812 5.65946 32.9902C5.9405 32.4558 6.02119 31.8385 5.88696 31.2499C5.82416 30.9477 5.69685 30.6627 5.51374 30.4142C5.33063 30.1658 5.09604 29.9599 4.826 29.8104C4.52074 29.6511 4.1807 29.5701 3.8364 29.5747Z" fill="#15006D"/>
<g style="mix-blend-mode:multiply">
<path d="M1.45372 30.7701C0.874637 31.8362 1.35858 33.228 2.53225 33.9602C1.84666 33.197 1.9873 32.2136 2.44435 31.375C3.04928 30.2582 4.28396 29.4495 5.57448 30.1527L5.62619 30.1827C5.43047 29.9526 5.19468 29.76 4.93026 29.614C3.63974 28.9139 2.05761 29.6564 1.45372 30.7701Z" fill="#E3E4E5"/>
</g>
<path d="M7.31398 15.3439C5.67498 12.7194 5.82905 8.08059 5.82905 8.08059L6.05965 0.235107C12.4781 1.9558 13.113 8.3267 13.4015 13.1124L7.31398 15.3439Z" fill="white"/>
<path d="M9.32707 3.3094C8.46982 5.06215 7.00351 6.96173 5.61889 8.32877C4.41007 9.52312 2.04928 11.1859 1.06899 11.0525C-1.01777 10.7661 1.23134 5.45923 2.50324 3.23805C3.82582 0.925871 4.8816 -0.277786 6.87529 0.425381C12.0549 2.24948 13.0549 7.55322 13.3475 12.3379" fill="white"/>
<path d="M13.1242 12.3522C12.8305 7.55723 11.8502 2.4148 6.7967 0.636203C4.99535 0.000250782 4.03883 1.00433 2.69765 3.34857C1.43091 5.56251 -0.00954894 9.26448 0.578837 10.4599C0.625198 10.5626 0.698139 10.651 0.790123 10.7161C0.882108 10.7812 0.989801 10.8205 1.10208 10.8301C1.91382 10.9397 4.14948 9.46509 5.46171 8.1694C6.94043 6.71033 8.3478 4.80971 9.12645 3.21L9.52871 3.40751C8.72524 5.04548 7.28788 6.99573 5.77607 8.48789C4.742 9.50749 2.2137 11.435 1.0421 11.2737C0.856842 11.2532 0.679974 11.1854 0.528554 11.0767C0.377134 10.9681 0.25627 10.8222 0.177618 10.6532C-0.583458 9.10213 1.28511 4.91208 2.30884 3.12211C3.49388 1.05397 4.66031 -0.600544 6.94974 0.210167C9.36636 1.06224 11.0674 2.69193 12.149 5.1737C13.1655 7.51483 13.4427 10.221 13.5709 12.316L13.1242 12.3522Z" fill="#15006D"/>
<path d="M6.90523 6.944C6.90523 6.944 6.80182 11.4412 7.95274 13.8164C9.11788 13.0724 10.3842 12.5001 11.7126 12.1174C11.7126 12.1174 11.8005 6.95227 9.11917 3.7146C8.48551 4.85899 7.74418 5.94035 6.90523 6.944Z" fill="#FF8080"/>
<path d="M7.86504 14.1453L7.75129 13.9116C6.59003 11.5177 6.67689 7.125 6.68206 6.93887V6.85924L6.73377 6.79823C7.56212 5.80663 8.29475 4.73885 8.92186 3.60916L9.07904 3.31445L9.29206 3.57194C11.9951 6.83546 11.9403 11.9076 11.9362 12.1216V12.2871L11.7769 12.3326C10.4711 12.71 9.22593 13.272 8.07909 14.0016L7.86504 14.1453ZM7.12775 7.02676C7.12775 7.61205 7.12775 11.3161 8.05014 13.4876C9.12626 12.832 10.2812 12.3157 11.4874 11.951C11.4739 11.0803 11.2909 6.9337 9.15246 4.11586C8.56178 5.14211 7.88441 6.11596 7.12775 7.02676Z" fill="#15006D"/>
<path d="M7.10709 14.9395C5.46395 11.9852 5.82898 8.08057 5.82898 8.08057L7.10709 14.9395Z" fill="white"/>
<path d="M6.90634 15.0481C5.25183 12.0668 5.59101 8.2232 5.60549 8.05981L6.05117 8.10118C6.05117 8.13944 5.71303 11.9727 7.29826 14.8309L6.90634 15.0481Z" fill="#15006D"/>
<g style="mix-blend-mode:multiply">
<path d="M8.97874 13.2198C9.85122 12.7624 10.7671 12.3931 11.7128 12.1174C11.7153 11.7356 11.6977 11.3538 11.6601 10.9738C10.6539 10.9738 9.09663 11.8837 8.92704 11.9841C7.85781 12.2426 8.02636 7.23974 8.02636 7.23974C8.60027 6.5676 9.48544 5.47355 9.91251 4.85208C9.67921 4.45217 9.41397 4.07177 9.11937 3.7146C8.78879 4.31414 8.42777 4.89639 8.03774 5.45907C7.95811 5.57592 7.87332 5.69484 7.78646 5.81686C7.70063 5.93578 7.61067 6.0578 7.51864 6.17982L7.5114 6.18913C7.4204 6.30908 7.32699 6.42938 7.23116 6.55002L7.21048 6.57484C7.11328 6.69686 7.01332 6.81819 6.9106 6.93883C6.9106 6.93883 6.8072 11.436 7.95812 13.8113C8.2877 13.5963 8.62838 13.3989 8.97874 13.2198Z" fill="#E3E4E5"/>
</g>
<g style="mix-blend-mode:multiply">
<g style="mix-blend-mode:multiply">
<path d="M2.3244 10.1817C0.300725 9.90561 2.47848 4.76732 3.70902 2.61645C4.30981 1.56687 4.84649 0.755128 5.45866 0.254639C4.29844 0.441805 3.47428 1.54102 2.50329 3.23793C1.23139 5.46014 -1.01254 10.766 1.07214 11.0524C1.79599 11.1558 3.27471 10.2665 4.48457 9.31619C3.63353 9.86218 2.80524 10.2479 2.3244 10.1817Z" fill="#E3E4E5"/>
</g>
</g>
<g style="mix-blend-mode:multiply">
<g style="mix-blend-mode:multiply">
<path d="M25.8421 36.4482C25.8742 37.2754 26.5422 43.1831 18.6729 43.3454C19.223 42.6908 19.5343 41.7147 19.5736 40.6237C19.6129 39.5328 18.9594 38.3167 18.9697 38.325C18.98 38.3333 19.0493 37.0707 20.3429 37.7583C20.3429 37.7583 19.9541 36.1348 22.4307 36.3572C22.4307 36.3572 20.4939 35.8484 18.8952 36.8525C18.2047 36.6336 17.4737 36.5738 16.7568 36.6777C16.7275 36.6756 16.6982 36.6756 16.6689 36.6777C16.5501 36.6847 16.4327 36.7066 16.3194 36.7429H16.3338C15.8592 36.8949 15.1085 37.3633 14.7383 38.7934C14.7952 38.5732 15.0216 38.3333 15.1716 38.173C15.5364 37.7791 16.0406 37.5431 16.5769 37.5153C16.8623 37.5029 17.1745 37.5288 17.4145 37.6963C17.6659 37.8821 17.877 38.1171 18.0349 38.387C18.7805 39.6062 18.9583 41.2721 18.159 42.5171C17.795 43.0838 17.3565 43.514 16.6451 43.4323C15.9792 43.3557 15.3753 42.9535 14.9482 42.452C14.8646 42.3746 14.7947 42.2837 14.7414 42.1831C14.7414 42.1831 15.2419 43.8666 16.6027 44.1334H16.5903C16.7961 44.1865 17.0098 44.202 17.2211 44.1789C18.8632 44.3702 20.6159 43.8025 20.6159 43.8025C27.6786 43.2027 25.9135 36.7005 25.8421 36.4482Z" fill="#E3E4E5"/>
</g>
<g style="mix-blend-mode:multiply">
<path d="M25.8401 36.4398V36.4481C25.837 36.3147 25.8236 36.2981 25.8401 36.4398Z" fill="#E3E4E5"/>
</g>
</g>
<g style="mix-blend-mode:multiply">
<path d="M4.78676 42.9783C3.56449 42.9783 2.57385 41.634 2.57385 39.9847C2.57385 38.3353 3.32768 36.6757 4.54995 36.6757C5.09491 36.6757 5.63986 37.0045 6.07728 37.5153C5.51681 36.6612 4.72161 36.0676 3.92641 36.0676C2.47044 36.0676 1.5708 38.0448 1.5708 40.0147C1.5708 41.9846 2.75171 43.5822 4.21181 43.5822C5.08664 43.5822 5.86632 43.0052 6.34096 42.119C5.93871 42.6495 5.39169 42.9783 4.78676 42.9783Z" fill="#E3E4E5"/>
</g>
<path d="M22.0566 16.7688C24.2085 14.5496 25.0378 9.98319 25.0378 9.98319L26.47 2.26489C19.8333 2.59166 17.8665 8.6844 16.5698 13.2994L22.0566 16.7688Z" fill="white"/>
<path d="M22.6264 4.57918C23.0948 6.47463 24.1268 8.641 25.1909 10.2666C26.1215 11.6894 28.077 13.8134 29.0593 13.8858C31.1626 14.0482 30.0851 8.38559 29.3116 5.94518C28.5123 3.41275 27.7357 2.01365 25.6324 2.27941C20.1849 2.9681 18.0837 7.94094 16.7891 12.556" fill="white"/>
<path d="M29.1439 14.1196C29.1108 14.1196 29.0767 14.1196 29.0405 14.1196C27.8585 14.0286 25.7935 11.6099 25.0004 10.3969C23.8412 8.61417 22.8474 6.40747 22.4111 4.63197L22.8454 4.52857C23.2724 6.2565 24.2434 8.41046 25.3799 10.1498C26.3881 11.6936 28.2629 13.6077 29.0787 13.6656C29.1905 13.68 29.304 13.6642 29.4076 13.6201C29.5112 13.5759 29.6012 13.5049 29.6682 13.4143C30.4954 12.3699 29.875 8.45079 29.1004 6.01659C28.2846 3.44176 27.5628 2.25775 25.6622 2.50076C20.3512 3.17187 18.3068 7.99063 17.007 12.615L16.5737 12.4909C17.1414 10.4703 17.9842 7.88412 19.4691 5.81081C21.0523 3.60411 23.0584 2.3746 25.6012 2.053C28.0085 1.74899 28.8016 3.60411 29.5223 5.87906C30.1428 7.84379 31.0848 12.3399 30.0135 13.6904C29.9122 13.8249 29.7807 13.9338 29.6297 14.0084C29.4787 14.0829 29.3123 14.121 29.1439 14.1196Z" fill="#15006D"/>
<path d="M24.2259 8.64395C24.2259 8.64395 23.3738 13.0615 21.7503 15.14C20.7687 14.1667 19.6518 13.3403 18.4341 12.6861C18.4341 12.6861 19.4392 7.61918 22.7441 5.01953C23.1221 6.27189 23.6182 7.48549 24.2259 8.64395Z" fill="#FF8080"/>
<path d="M21.7658 15.4823L21.5838 15.2941C20.6178 14.3391 19.5203 13.5271 18.3245 12.8826L18.1797 12.804L18.2117 12.6417C18.2531 12.4349 19.2706 7.46307 22.6024 4.84378L22.864 4.63696L22.9561 4.95752C23.3305 6.19422 23.8208 7.39284 24.4203 8.53747L24.4575 8.60676L24.443 8.68534C24.4079 8.86838 23.562 13.1804 21.923 15.2765L21.7658 15.4823ZM18.6884 12.5693C19.7904 13.181 20.8102 13.9302 21.7234 14.7988C23.0874 12.8702 23.8722 9.25098 23.9901 8.67811C23.4433 7.62791 22.987 6.533 22.6262 5.40528C19.9386 7.71022 18.886 11.7224 18.6884 12.5693Z" fill="#15006D"/>
<path d="M22.3442 16.4203C24.5706 13.8796 25.038 9.98633 25.038 9.98633L22.3442 16.4203Z" fill="white"/>
<path d="M22.5148 16.565L22.1777 16.2703C24.3317 13.8123 24.8136 9.99456 24.8187 9.9563L25.2624 10.009C25.2417 10.1714 24.7588 14.0005 22.5148 16.565Z" fill="#15006D"/>
<g style="mix-blend-mode:multiply">
<path d="M20.8735 14.3406C20.1171 13.7097 19.3 13.1555 18.4341 12.6861C18.5123 12.3121 18.61 11.9425 18.7267 11.5786C19.7112 11.7854 21.041 13.0088 21.1847 13.1432C22.1753 13.622 23.0677 8.69668 23.0677 8.69668C22.6541 7.91803 22.0109 6.6606 21.7286 5.96467C22.0412 5.62289 22.3808 5.30683 22.7441 5.01953C22.9414 5.67675 23.172 6.32353 23.4348 6.95738C23.4886 7.08767 23.5455 7.2221 23.6055 7.35963C23.6644 7.49406 23.7264 7.63159 23.7906 7.77326L23.7957 7.78463C23.8588 7.9201 23.925 8.05763 23.9943 8.19826C23.9943 8.20757 24.0036 8.21791 24.0088 8.22721C24.0777 8.36509 24.1497 8.50297 24.2249 8.64084C24.2249 8.64084 23.3728 13.0584 21.7493 15.1369C21.4717 14.8561 21.1793 14.5903 20.8735 14.3406Z" fill="#E3E4E5"/>
</g>
<g style="mix-blend-mode:multiply">
<g style="mix-blend-mode:multiply">
<path d="M28.0199 12.7761C30.056 12.9333 29.0126 7.45168 28.2639 5.08883C27.8989 3.93687 27.5401 3.02689 27.0531 2.41162C28.1471 2.83973 28.721 4.08785 29.3115 5.95124C30.0849 8.39164 31.1624 14.0542 29.0591 13.8919C28.3353 13.836 27.0727 12.6592 26.0903 11.4742C26.8069 12.1877 27.536 12.7389 28.0199 12.7761Z" fill="#E3E4E5"/>
</g>
</g>
<path d="M10.8081 13.3635C10.9808 10.5085 14.6673 10.8559 15.6165 8.99976C15.6165 8.99976 15.995 10.0773 15.8233 11.0917C16.3366 10.8139 16.7877 10.4343 17.149 9.97592C17.149 9.97592 18.121 12.0441 16.4862 13.4452" fill="white"/>
<path d="M16.6286 13.6147L16.338 13.2745C17.46 12.3149 17.2522 11.0171 17.0681 10.4091C16.7363 10.7653 16.3477 11.0641 15.9182 11.2932L15.5263 11.4835L15.5997 11.0543C15.6706 10.5455 15.646 10.0279 15.5273 9.52806C15.0382 10.1009 14.2782 10.4411 13.5398 10.7689C12.299 11.3242 11.1232 11.8485 11.0312 13.3748L10.5845 13.3479C10.693 11.5507 12.1087 10.9178 13.3568 10.3605C14.2306 9.9696 15.0558 9.60044 15.4167 8.89521L15.6545 8.43091L15.8272 8.92313C16.0112 9.48447 16.0993 10.0728 16.0878 10.6635C16.4206 10.4318 16.718 10.1531 16.9709 9.83621L17.1953 9.55184L17.3494 9.87964C17.3597 9.90549 18.3783 12.1225 16.6286 13.6147Z" fill="#15006D"/>
<g style="mix-blend-mode:multiply">
<g style="mix-blend-mode:multiply">
<path d="M15.6166 8.99976C14.7191 10.7577 11.3697 10.5395 10.8651 12.9292C10.8372 13.0647 11.0295 13.226 11.0295 13.226C12.077 11.6066 13.1576 11.3854 14.6963 10.6067C15.7087 10.0959 15.6166 8.99976 15.6166 8.99976Z" fill="#E3E4E5"/>
</g>
</g>
</svg>
