<svg width="21" height="22" viewBox="0 0 21 22" fill="none" xmlns="http://www.w3.org/2000/svg">
<circle cx="10.5" cy="11" r="10.5" fill="white"/>
<path d="M8.4 16.25L3.15 11L4.6305 9.509L8.4 13.2785L16.3695 5.309L17.85 6.8L8.4 16.25ZM10.5 0.5C9.12112 0.5 7.75574 0.771591 6.48182 1.29926C5.2079 1.82694 4.05039 2.60036 3.07538 3.57538C1.10625 5.54451 0 8.21523 0 11C0 13.7848 1.10625 16.4555 3.07538 18.4246C4.05039 19.3996 5.2079 20.1731 6.48182 20.7007C7.75574 21.2284 9.12112 21.5 10.5 21.5C13.2848 21.5 15.9555 20.3938 17.9246 18.4246C19.8938 16.4555 21 13.7848 21 11C21 9.62112 20.7284 8.25574 20.2007 6.98182C19.6731 5.7079 18.8996 4.55039 17.9246 3.57538C16.9496 2.60036 15.7921 1.82694 14.5182 1.29926C13.2443 0.771591 11.8789 0.5 10.5 0.5Z" fill="#1BB233"/>
</svg>
