<svg width="58" height="90" viewBox="0 0 58 90" fill="none" xmlns="http://www.w3.org/2000/svg">
<g style="mix-blend-mode:multiply">
<path d="M28.7417 89.4043C41.2727 89.4043 51.431 87.9104 51.431 86.0676C51.431 84.2248 41.2727 82.7309 28.7417 82.7309C16.2108 82.7309 6.05246 84.2248 6.05246 86.0676C6.05246 87.9104 16.2108 89.4043 28.7417 89.4043Z" fill="#EEEFEF"/>
</g>
<path d="M41.6356 82.6836C41.8586 82.8761 42.0272 83.1236 42.1248 83.4016C42.2224 83.6795 42.2455 83.9782 42.1917 84.2679C42.138 84.5575 42.0093 84.828 41.8186 85.0525C41.6278 85.277 41.3815 85.4475 41.1043 85.5472C39.3668 86.1804 35.8118 86.899 28.6235 86.9099C22.2812 86.919 18.4714 86.0858 16.4337 85.4181C16.1321 85.3185 15.864 85.1373 15.6592 84.8946C15.4543 84.6518 15.3209 84.357 15.2735 84.0429C15.2262 83.7288 15.2669 83.4078 15.3911 83.1155C15.5153 82.8231 15.7182 82.571 15.9771 82.387C18.284 80.7496 23.0726 79.6198 28.6126 79.6198C34.4818 79.6198 39.5105 80.8842 41.6356 82.6836Z" fill="#E5FFFC"/>
<path d="M19.7868 85.8165C19.4296 85.6997 19.1119 85.486 18.869 85.1992C18.626 84.9125 18.4675 84.5639 18.4109 84.1924C18.3543 83.8209 18.4019 83.4409 18.5485 83.0949C18.6951 82.7488 18.9348 82.4502 19.241 82.2324C20.6838 81.2044 22.454 80.3475 25.2449 79.769C21.1768 80.1219 17.8037 81.0971 15.9807 82.3925C15.7218 82.5764 15.519 82.8286 15.3948 83.1209C15.2706 83.4133 15.2299 83.7343 15.2772 84.0484C15.3245 84.3625 15.458 84.6573 15.6628 84.9C15.8676 85.1428 16.1358 85.324 16.4374 85.4235C17.6709 85.8292 19.5576 86.295 22.2593 86.597C21.0422 86.3369 20.5546 86.0639 19.7868 85.8165Z" fill="white"/>
<path d="M28.5107 87.2356C22.2448 87.2356 18.435 86.4151 16.3373 85.7255C15.9787 85.6076 15.6598 85.3925 15.416 85.1041C15.1723 84.8158 15.0133 84.4655 14.9568 84.0922C14.9002 83.7189 14.9483 83.3372 15.0957 82.9896C15.243 82.642 15.4839 82.3421 15.7915 82.1232C18.2422 80.3784 23.1563 79.2941 28.6144 79.2941C34.3963 79.2941 39.5888 80.5276 41.8412 82.4361C42.1086 82.6602 42.3117 82.9512 42.4296 83.2795C42.5476 83.6079 42.5762 83.9616 42.5125 84.3046C42.4527 84.655 42.3006 84.983 42.072 85.2552C41.8434 85.5273 41.5464 85.7336 41.2117 85.8529C39.4978 86.4769 35.9209 87.2229 28.6217 87.2338L28.5107 87.2356ZM28.618 79.9436C23.3692 79.9436 18.4842 81.0079 16.1718 82.6526C15.9619 82.8013 15.7973 83.0052 15.6962 83.2417C15.5952 83.4782 15.5616 83.7381 15.5993 83.9925C15.637 84.2469 15.7444 84.4859 15.9097 84.6829C16.075 84.88 16.2917 85.0274 16.5356 85.1088C18.5879 85.7838 22.3267 86.5843 28.5052 86.5843H28.618C35.8245 86.5734 39.3213 85.8474 40.9897 85.2416C41.217 85.1608 41.4187 85.021 41.5741 84.8365C41.7294 84.652 41.8329 84.4295 41.8739 84.1918C41.9172 83.9608 41.8982 83.7224 41.8189 83.5012C41.7396 83.2799 41.6028 83.0838 41.4227 82.9328C39.2831 81.1171 34.249 79.9436 28.618 79.9436Z" fill="#15006D"/>
<g style="mix-blend-mode:multiply">
<path d="M20.4873 80.5403C25.7931 82.4102 31.5766 82.423 36.8907 80.5767C34.5673 79.98 31.7091 79.6288 28.618 79.6288C25.8811 79.606 23.1513 79.912 20.4873 80.5403Z" fill="#EEEFEF"/>
</g>
<path d="M44.614 16.5494L39.8415 10.1883L7.46398 34.4803L12.2366 40.8414L44.614 16.5494Z" fill="#FFFBEB"/>
<path d="M12.2347 41.1657C12.1843 41.1656 12.1346 41.1539 12.0895 41.1315C12.0443 41.1091 12.005 41.0766 11.9745 41.0365L7.20229 34.6687C7.17649 34.6347 7.15767 34.596 7.1469 34.5547C7.13614 34.5134 7.13364 34.4704 7.13956 34.4281C7.14547 34.3858 7.15969 34.3451 7.18138 34.3084C7.20308 34.2716 7.23183 34.2395 7.26597 34.2139L39.6506 9.92177C39.7197 9.87032 39.8063 9.84834 39.8916 9.86061C39.9768 9.87289 40.0537 9.91842 40.1055 9.98726L44.8777 16.355C44.9037 16.3892 44.9225 16.4282 44.9332 16.4697C44.9438 16.5113 44.946 16.5546 44.9395 16.597C44.9266 16.682 44.8817 16.7588 44.814 16.8117L12.4293 41.102C12.373 41.1436 12.3047 41.166 12.2347 41.1657ZM7.9173 34.5432L12.3002 40.3852L44.1572 16.4842L39.7744 10.6422L7.9173 34.5432Z" fill="#15006D"/>
<path d="M44.6136 16.5473C45.1361 16.1553 44.4909 14.4132 43.1727 12.6563C41.8545 10.8993 40.3624 9.79272 39.8399 10.1847C39.3175 10.5767 39.9626 12.3187 41.2808 14.0757C42.5991 15.8327 44.0912 16.9392 44.6136 16.5473Z" fill="#E8E3CD"/>
<path d="M44.3537 16.9536C43.444 16.9536 42.0668 15.6691 41.0206 14.2737C39.7762 12.6163 38.8156 10.5495 39.6452 9.92723C40.4748 9.30501 42.1923 10.806 43.4331 12.4634C44.6739 14.1209 45.6363 16.1877 44.8013 16.8099C44.6716 16.9051 44.5145 16.9556 44.3537 16.9536ZM40.1146 10.4276C40.0865 10.426 40.0586 10.433 40.0345 10.4476C39.8362 10.5968 40.1164 11.9868 41.5391 13.8825C42.9619 15.7783 44.2191 16.4296 44.4174 16.2895C44.6175 16.1404 44.3355 14.7504 42.9128 12.8528C41.6174 11.128 40.4621 10.4276 40.1146 10.4276Z" fill="#15006D"/>
<path d="M33.2374 15.1415C33.2374 15.1415 30.9304 18.0525 34.9203 23.8199L38.8483 20.8743C34.8584 15.1142 37.4037 12.0159 37.4037 12.0159L33.2374 15.1415Z" fill="#A07555"/>
<path d="M34.9203 24.1401H34.8693C34.826 24.1329 34.7846 24.1171 34.7474 24.0936C34.7102 24.0702 34.6781 24.0396 34.6528 24.0036C30.572 18.1144 32.8826 15.0651 32.9827 14.9378C32.9999 14.9157 33.0201 14.8961 33.0427 14.8795L37.2072 11.7539C37.2709 11.7068 37.3494 11.6845 37.4283 11.6912C37.5071 11.6979 37.5809 11.733 37.6357 11.7901C37.6905 11.8471 37.7227 11.9222 37.7262 12.0012C37.7297 12.0803 37.7043 12.1579 37.6548 12.2196C37.5584 12.3397 35.3296 15.2252 39.1103 20.6869C39.1577 20.7564 39.1766 20.8414 39.163 20.9244C39.1495 21.0073 39.1045 21.0819 39.0375 21.1327L35.1095 24.0782C35.0548 24.1188 34.9884 24.1405 34.9203 24.1401ZM33.4739 15.3708C33.2665 15.6782 31.6709 18.3745 34.9985 23.3559L38.4044 20.8088C35.941 17.1174 36.0829 14.5084 36.5268 13.0802L33.4739 15.3708Z" fill="#15006D"/>
<path d="M25.2176 21.1582C25.2176 21.1582 22.9107 24.0691 26.9005 29.8365L30.8285 26.891C26.8387 21.1327 29.384 18.0325 29.384 18.0325L25.2176 21.1582Z" fill="#8E6549"/>
<path d="M26.9005 30.1622H26.8496C26.8063 30.1549 26.7648 30.1391 26.7276 30.1157C26.6905 30.0923 26.6583 30.0617 26.6331 30.0257C22.5541 24.1401 24.8629 21.0836 24.9702 20.9562C24.9879 20.9346 25.0081 20.915 25.0302 20.898L29.1893 17.7723C29.2525 17.7225 29.3321 17.6981 29.4124 17.7037C29.4926 17.7094 29.568 17.7447 29.6236 17.8028C29.6793 17.861 29.7113 17.9378 29.7134 18.0183C29.7155 18.0987 29.6876 18.1771 29.635 18.2381C29.5386 18.3582 27.3099 21.2437 31.0905 26.7054C31.1379 26.7748 31.1568 26.8598 31.1433 26.9428C31.1297 27.0258 31.0848 27.1004 31.0178 27.1511L27.0916 30.0967C27.0365 30.1383 26.9696 30.1613 26.9005 30.1622ZM25.445 21.3874C25.2376 21.6949 23.6421 24.3912 26.9697 29.3726L30.3755 26.8255C27.9121 23.1431 28.054 20.5341 28.4979 19.1059L25.445 21.3874Z" fill="#15006D"/>
<path d="M28.7417 72.1531C41.1139 72.1531 51.1436 62.1235 51.1436 49.7513C51.1436 37.3791 41.1139 27.3495 28.7417 27.3495C16.3696 27.3495 6.33992 37.3791 6.33992 49.7513C6.33992 62.1235 16.3696 72.1531 28.7417 72.1531Z" fill="#471BB1"/>
<path d="M27.9339 29.1342C31.5951 29.1361 35.2002 30.0348 38.4338 31.7518C41.6674 33.4688 44.4311 35.9519 46.4834 38.9838C48.5356 42.0158 49.8138 45.5043 50.2063 49.1444C50.5988 52.7846 50.0935 56.4654 48.7347 59.8651C50.0995 57.166 50.9037 54.2185 51.0989 51.2003C51.294 48.182 50.876 45.1555 49.8701 42.3032C48.8642 39.4508 47.2912 36.8316 45.2459 34.6035C43.2006 32.3753 40.7254 30.5844 37.9694 29.3385C35.2134 28.0926 32.2336 27.4176 29.2098 27.3542C26.1859 27.2908 23.1805 27.8403 20.3747 28.9696C17.5688 30.0988 15.0207 31.7845 12.8838 33.9249C10.7469 36.0654 9.06553 38.6163 7.94095 41.424C9.81093 37.727 12.6696 34.621 16.1992 32.4513C19.7287 30.2817 23.7909 29.1334 27.9339 29.1342Z" fill="#6B52D1"/>
<path d="M28.7417 72.4788C24.2466 72.4791 19.8523 71.1465 16.1145 68.6494C12.3768 66.1523 9.46345 62.6028 7.74298 58.45C6.02251 54.2971 5.57217 49.7273 6.44891 45.3185C7.32565 40.9096 9.49009 36.8598 12.6685 33.6812C15.8469 30.5025 19.8966 28.3377 24.3053 27.4606C28.7141 26.5835 33.2839 27.0335 37.4369 28.7536C41.5899 30.4738 45.1396 33.3868 47.637 37.1244C50.1344 40.8619 51.4674 45.2561 51.4674 49.7513C51.4607 55.7766 49.0643 61.5532 44.8039 65.8139C40.5435 70.0747 34.7671 72.4715 28.7417 72.4788ZM28.7417 27.6751C24.3755 27.6751 20.1073 28.9699 16.4769 31.3956C12.8465 33.8214 10.0169 37.2692 8.34603 41.3031C6.67514 45.337 6.23795 49.7758 7.08977 54.0581C7.94158 58.3405 10.0441 62.2741 13.1315 65.3615C16.2189 68.4489 20.1525 70.5514 24.4349 71.4032C28.7172 72.255 33.156 71.8179 37.1899 70.147C41.2238 68.4761 44.6716 65.6465 47.0974 62.0161C49.5231 58.3857 50.8179 54.1175 50.8179 49.7513C50.8116 43.8982 48.4837 38.2867 44.345 34.148C40.2063 30.0093 34.5948 27.6814 28.7417 27.6751Z" fill="#15006D"/>
<path d="M28.7417 78.2243C22.6778 78.2243 16.7467 75.6372 12.0418 70.9468C8.2599 67.1315 5.58543 62.3604 4.30405 57.1433C4.24332 56.9143 4.23985 56.6739 4.29394 56.4433C4.34803 56.2126 4.45803 55.9988 4.61423 55.8206C4.77043 55.6425 4.96805 55.5055 5.18967 55.4218C5.41128 55.338 5.6501 55.3101 5.88507 55.3403C11.2995 56.1481 19.6067 57.0997 28.7417 57.0997C37.8768 57.0997 46.184 56.1481 51.5984 55.3403C51.8328 55.3113 52.0707 55.3401 52.2913 55.4245C52.5119 55.5088 52.7084 55.646 52.8636 55.824C53.0188 56.002 53.128 56.2154 53.1814 56.4454C53.2349 56.6755 53.2311 56.9151 53.1703 57.1433C51.8889 62.3589 49.2151 67.1286 45.4344 70.9432C40.7368 75.6372 34.8057 78.2243 28.7417 78.2243Z" fill="#E5FFFC"/>
<path d="M28.7417 78.5482C22.5905 78.5482 16.5793 75.9301 11.8217 71.1725C7.99995 67.3147 5.2962 62.4926 3.99839 57.2198C3.92711 56.9308 3.92782 56.6287 4.00046 56.34C4.0731 56.0514 4.21545 55.785 4.41503 55.5641C4.60406 55.3535 4.84262 55.1933 5.10914 55.098C5.37566 55.0027 5.66172 54.9753 5.94147 55.0183C11.3031 55.8189 19.6122 56.774 28.7508 56.774C37.8895 56.774 46.1985 55.8189 51.5602 55.0183C51.8397 54.9744 52.1258 55.0014 52.3921 55.0968C52.6585 55.1921 52.8967 55.3528 53.0848 55.5641C53.2847 55.7848 53.4274 56.0511 53.5004 56.3398C53.5733 56.6285 53.5743 56.9306 53.5033 57.2198C52.2045 62.4923 49.5009 67.3141 45.68 71.1725C40.9042 75.9301 34.8912 78.5482 28.7417 78.5482ZM5.68494 55.6497C5.53596 55.6499 5.38869 55.6815 5.25267 55.7423C5.11666 55.8031 4.99492 55.8918 4.89534 56.0026C4.76472 56.144 4.67125 56.3155 4.6233 56.5019C4.57535 56.6883 4.57443 56.8837 4.62062 57.0706C5.89077 62.2268 8.53463 66.9423 12.271 70.7158C16.9159 75.3497 22.7651 77.9023 28.7417 77.9023C34.7183 77.9023 40.5676 75.3552 45.2106 70.7158C48.9479 66.9427 51.5924 62.2271 52.8629 57.0706C52.9089 56.8851 52.9086 56.6912 52.8619 56.5059C52.8153 56.3206 52.7237 56.1496 52.5954 56.0081C52.4785 55.8765 52.3305 55.7763 52.1649 55.7166C51.9994 55.6568 51.8215 55.6395 51.6475 55.666C46.2622 56.4702 37.9186 57.4308 28.7417 57.4308C19.5649 57.4308 11.2194 56.4702 5.83595 55.666C5.78601 55.6574 5.73557 55.6519 5.68494 55.6497Z" fill="#15006D"/>
<path d="M28.7363 29.691L29.9516 29.1452L30.3955 28.5157L32.2477 29.4162C32.2477 29.4162 32.3987 30.8717 32.2895 31.0682C32.0894 31.4212 30.5975 31.4212 30.5975 31.4212L29.6223 30.6079L28.7363 29.691Z" fill="#FFD654"/>
<path d="M30.5884 31.7432C30.5124 31.7432 30.4389 31.7161 30.381 31.6668L29.4058 30.8554L29.3785 30.8299L28.5016 29.9202C28.4655 29.8825 28.4391 29.8368 28.4244 29.7867C28.4098 29.7367 28.4073 29.6839 28.4173 29.6327C28.4273 29.5816 28.4494 29.5336 28.4818 29.4927C28.5142 29.4519 28.5559 29.4194 28.6035 29.398L29.7369 28.8868L30.1299 28.3301C30.1744 28.2671 30.2399 28.2221 30.3146 28.2031C30.3893 28.1841 30.4683 28.1923 30.5374 28.2264L32.3805 29.1233C32.4301 29.1475 32.4728 29.1839 32.5047 29.2291C32.5365 29.2743 32.5563 29.3268 32.5624 29.3817C32.7243 30.9463 32.6079 31.1501 32.5624 31.2283C32.4296 31.4612 31.9784 31.7432 30.5884 31.7432ZM29.8352 30.3678L30.7048 31.0955C31.2506 31.0846 31.8292 30.9991 31.9893 30.9045C31.9998 30.4792 31.9809 30.0536 31.9329 29.6309L30.5011 28.9323L30.2172 29.3362C30.1838 29.3833 30.1386 29.421 30.0862 29.4454L29.2894 29.8092L29.8352 30.3678Z" fill="#15006D"/>
<path d="M34.7274 30.0949L33.8923 31.0118L34.7911 31.7396L35.9464 32.2908L37.3255 31.081L36.3576 30.0785L34.7274 30.0949Z" fill="#FFD654"/>
<path d="M35.9464 32.6165C35.8978 32.6167 35.8498 32.6055 35.8063 32.5838L34.651 32.038C34.6276 32.0275 34.6056 32.014 34.5855 31.9979L33.6868 31.2702C33.6524 31.2425 33.6241 31.2081 33.6037 31.1689C33.5834 31.1298 33.5714 31.0868 33.5685 31.0428C33.565 30.9986 33.5707 30.9541 33.5851 30.9122C33.5995 30.8702 33.6223 30.8317 33.6522 30.799L34.4873 29.8893C34.5172 29.856 34.5536 29.8293 34.5943 29.8109C34.635 29.7924 34.6791 29.7825 34.7238 29.7819L36.3612 29.7656C36.4054 29.765 36.4493 29.7736 36.49 29.7909C36.5307 29.8081 36.5674 29.8335 36.5978 29.8656L37.5657 30.8681C37.5962 30.8997 37.62 30.9372 37.6357 30.9783C37.6513 31.0194 37.6584 31.0632 37.6565 31.1071C37.6546 31.151 37.6438 31.1941 37.6248 31.2337C37.6057 31.2733 37.5788 31.3086 37.5456 31.3375L36.1647 32.5474C36.1031 32.5969 36.0253 32.6215 35.9464 32.6165ZM34.9658 31.463L35.8918 31.9051L36.8561 31.061L36.2211 30.4042L34.873 30.4187L34.3636 30.9755L34.9658 31.463Z" fill="#15006D"/>
<path d="M38.2952 32.5001L38.4662 33.6172L39.5797 34.3085L40.7277 34.0956L40.9096 33.4898L39.7853 32.3891L38.2952 32.5001Z" fill="#FFD654"/>
<path d="M39.5797 34.6342C39.5191 34.6345 39.4598 34.6174 39.4087 34.585L38.2952 33.8937C38.2553 33.8689 38.2213 33.8357 38.1956 33.7964C38.1698 33.7571 38.1529 33.7127 38.146 33.6663L37.9732 32.5492C37.9663 32.5047 37.9687 32.4593 37.9802 32.4158C37.9917 32.3722 38.0122 32.3316 38.0402 32.2964C38.0682 32.2612 38.1033 32.2321 38.1431 32.2111C38.1829 32.1901 38.2267 32.1776 38.2716 32.1744L39.7616 32.0652C39.8075 32.062 39.8535 32.0685 39.8968 32.0841C39.94 32.0998 39.9795 32.1243 40.0127 32.1562L41.1371 33.2569C41.1796 33.2986 41.21 33.3512 41.2247 33.4089C41.2395 33.4667 41.2381 33.5274 41.2207 33.5844L41.0388 34.1884C41.0215 34.2455 40.989 34.2968 40.9448 34.3369C40.9005 34.3769 40.8463 34.4042 40.7877 34.4158L39.6379 34.6287C39.6187 34.6324 39.5992 34.6342 39.5797 34.6342ZM38.7646 33.4188L39.6434 33.9646L40.473 33.81L40.5421 33.5826L39.6634 32.722L38.67 32.7966L38.7646 33.4188Z" fill="#15006D"/>
<path d="M34.2471 33.3497L35.4061 34.5614L35.0695 35.6803L33.5176 35.7713L32.8153 34.3904L33.0118 33.739L34.2471 33.3497Z" fill="#FFD654"/>
<path d="M33.5212 36.097C33.4606 36.0963 33.4014 36.079 33.3501 36.0469C33.2987 36.0148 33.2572 35.9692 33.2301 35.915L32.5278 34.5341C32.4905 34.4596 32.4833 34.3736 32.5078 34.294L32.7043 33.6408C32.7192 33.5902 32.7465 33.5441 32.7836 33.5066C32.8208 33.4691 32.8667 33.4415 32.9172 33.4261L34.1525 33.035C34.2105 33.017 34.2723 33.0154 34.3311 33.0305C34.3899 33.0456 34.4434 33.0768 34.4855 33.1205L35.6444 34.334C35.6838 34.3758 35.7116 34.4272 35.725 34.483C35.7384 34.5389 35.737 34.5973 35.7208 34.6524L35.3842 35.7695C35.365 35.8334 35.3265 35.8898 35.2741 35.9311C35.2218 35.9724 35.1579 35.9967 35.0913 36.0005L33.5394 36.0915L33.5212 36.097ZM33.1573 34.3595L33.7031 35.4347L34.8166 35.3692L35.0331 34.6415L34.1434 33.7118L33.2647 33.9901L33.1573 34.3595Z" fill="#15006D"/>
<path d="M28.4979 32.6511L27.9339 33.3443L28.6471 34.0174L29.575 34.2958L30.1954 33.4279L30.0371 32.7584L29.0619 32.4655L28.4979 32.6511Z" fill="#FFD654"/>
<path d="M29.575 34.6214C29.5429 34.6219 29.5109 34.617 29.4804 34.6069L28.5525 34.3285C28.5041 34.3143 28.4598 34.2887 28.4233 34.2539L27.7102 33.5808C27.6506 33.5246 27.6144 33.448 27.609 33.3663C27.6036 33.2847 27.6293 33.204 27.681 33.1405L28.2469 32.4455C28.286 32.3977 28.3376 32.3618 28.3961 32.3418L28.9619 32.1598C29.0252 32.1399 29.0932 32.1399 29.1565 32.1598L30.1317 32.4528C30.1863 32.4692 30.2355 32.4997 30.2745 32.5412C30.3134 32.5828 30.3408 32.6338 30.3537 32.6893L30.512 33.3588C30.5226 33.404 30.5234 33.4509 30.5143 33.4964C30.5052 33.542 30.4864 33.585 30.4592 33.6226L29.8388 34.4904C29.8083 34.5316 29.7685 34.5649 29.7227 34.5877C29.6768 34.6104 29.6262 34.622 29.575 34.6214ZM28.8127 33.7281L29.4458 33.9101L29.8461 33.3515L29.7642 33.0095L29.0674 32.7984L28.6908 32.9222L28.376 33.3079L28.8127 33.7281Z" fill="#15006D"/>
<path d="M37.2109 28.8995L38.7373 28.7231L39.7271 29.6564L39.0412 30.4151L37.2109 28.8995Z" fill="#FFD654"/>
<path d="M39.0412 30.7389C38.9654 30.7394 38.8919 30.713 38.8337 30.6643L37.0035 29.1488C36.9547 29.108 36.919 29.0537 36.9007 28.9928C36.8824 28.9319 36.8823 28.867 36.9005 28.806C36.9187 28.7451 36.9543 28.6908 37.003 28.6498C37.0517 28.6089 37.1113 28.5831 37.1745 28.5757L38.7009 28.3938C38.7479 28.388 38.7956 28.3927 38.8406 28.4075C38.8855 28.4223 38.9267 28.4468 38.9611 28.4793L39.949 29.4126C40.0109 29.471 40.0474 29.5513 40.0508 29.6363C40.0542 29.7213 40.0242 29.8043 39.9672 29.8675L39.2813 30.6261C39.2517 30.6611 39.215 30.6893 39.1735 30.7087C39.1321 30.7282 39.0869 30.7385 39.0412 30.7389ZM38.0059 29.1342L39.0084 29.9657L39.2722 29.6746L38.6245 29.0633L38.0059 29.1342Z" fill="#15006D"/>
<path d="M32.3077 27.6515L33.0827 26.8164L35.0658 27.2112L35.3442 28.2773L32.3077 27.6515Z" fill="#FFD654"/>
<path d="M35.3406 28.6012H35.2751L32.2476 27.9699C32.1901 27.9588 32.1366 27.9323 32.0928 27.8933C32.049 27.8544 32.0165 27.8043 31.9988 27.7484C31.9811 27.6925 31.9788 27.6328 31.9922 27.5758C32.0056 27.5187 32.0341 27.4663 32.0748 27.424L32.8499 26.5908C32.8875 26.5498 32.9351 26.5193 32.988 26.5021C33.0409 26.4849 33.0973 26.4816 33.1519 26.4925L35.135 26.8873C35.1949 26.8991 35.2502 26.9275 35.2946 26.9694C35.339 27.0112 35.3707 27.0648 35.386 27.1239L35.6626 28.19C35.6755 28.2379 35.6771 28.2881 35.6674 28.3367C35.6577 28.3854 35.6369 28.4311 35.6066 28.4704C35.5763 28.5096 35.5374 28.5414 35.4928 28.5631C35.4482 28.5849 35.3993 28.596 35.3497 28.5957L35.3406 28.6012ZM32.9354 27.4495L34.893 27.8534L34.7984 27.4895L33.1937 27.1712L32.9354 27.4495Z" fill="#15006D"/>
<path d="M25.7653 28.4538L26.5876 27.1348L27.4573 26.78L28.951 26.9892L28.82 27.928L25.7653 28.4538Z" fill="#FFD654"/>
<path d="M25.7653 28.7795C25.7071 28.78 25.6499 28.7648 25.5996 28.7355C25.5494 28.7062 25.5079 28.664 25.4796 28.6132C25.4513 28.5624 25.4373 28.5049 25.4389 28.4467C25.4404 28.3886 25.4577 28.332 25.4887 28.2828L26.3111 26.9619C26.3475 26.9046 26.4009 26.86 26.4639 26.8346L27.3335 26.4707C27.3873 26.4495 27.4456 26.4427 27.5027 26.4507L28.9964 26.6617C29.0386 26.6673 29.0791 26.6812 29.1159 26.7025C29.1526 26.7239 29.1848 26.7523 29.2105 26.7861C29.2362 26.8199 29.2549 26.8585 29.2657 26.8996C29.2764 26.9407 29.2789 26.9835 29.273 27.0256L29.1402 27.9644C29.131 28.0326 29.1003 28.096 29.0525 28.1454C29.0047 28.1949 28.9424 28.2277 28.8746 28.2391L25.8198 28.7649C25.8022 28.7716 25.7839 28.7765 25.7653 28.7795ZM26.8078 27.3949L26.4257 28.0099L28.5325 27.646L28.5853 27.2639L27.4937 27.1129L26.8078 27.3949Z" fill="#15006D"/>
<path d="M0.920032 29.9912C0.920032 33.433 2.2873 36.7339 4.72106 39.1677C7.15482 41.6014 10.4557 42.9687 13.8975 42.9687C14.0249 42.9687 14.1504 42.9687 14.2778 42.9687C15.1228 42.9417 15.9626 42.8252 16.7831 42.6212C17.62 42.4174 18.5497 42.4392 19.2701 41.9044C19.7686 41.5296 20.067 40.9474 20.2708 40.3579C20.4927 39.7175 20.4818 38.7205 21.1204 38.3038C21.4697 38.0801 21.9209 38.1474 22.3358 38.1692C22.704 38.1999 23.0746 38.1592 23.4274 38.0491C24.3753 37.7216 24.8501 36.4954 24.8101 35.5621C24.7792 34.8525 24.5863 34.2212 25.2849 33.7427C25.6652 33.488 26.1273 33.3934 26.5694 33.2733C27.0115 33.1532 27.47 32.9858 27.7611 32.6311C28.3196 31.9561 28.0358 30.7444 27.1807 30.4624C27.0661 30.426 26.9296 30.3914 26.8842 30.2804C26.8688 30.2348 26.8626 30.1866 26.866 30.1385C26.8865 26.6976 25.5393 23.3895 23.1207 20.942C20.7021 18.4944 17.4103 17.1078 13.9694 17.0873C12.2657 17.0772 10.5766 17.4027 8.99864 18.0453C7.42069 18.6879 5.98477 19.6351 4.77285 20.8326C2.32527 23.2512 0.93872 26.543 0.918213 29.9839L0.920032 29.9912Z" fill="#FF8080"/>
<path d="M2.61204 30.9027C2.61204 27.4608 3.97931 24.1599 6.41307 21.7262C8.84682 19.2924 12.1477 17.9252 15.5896 17.9252C17.2318 17.9398 18.8605 18.2238 20.4109 18.7657C18.8543 17.8638 17.1272 17.2954 15.3393 17.0964C13.5513 16.8975 11.7415 17.0724 10.0248 17.6101C8.30801 18.1478 6.72177 19.0365 5.36672 20.2198C4.01167 21.4031 2.91741 22.8551 2.15338 24.4838C1.38934 26.1125 0.972226 27.8822 0.928497 29.6807C0.884768 31.4791 1.21538 33.2671 1.89936 34.9309C2.58333 36.5948 3.60573 38.0984 4.90167 39.3461C6.19761 40.5939 7.73878 41.5586 9.42738 42.1791C5.55395 39.9322 2.61204 35.7022 2.61204 30.9027Z" fill="#FFB6B6"/>
<path d="M13.8976 43.2943C11.8405 43.2943 9.81144 42.8172 7.96989 41.9006C6.12834 40.9839 4.52445 39.6527 3.28426 38.0115C2.04406 36.3704 1.20136 34.4639 0.822378 32.4421C0.443391 30.4202 0.538446 28.338 1.10007 26.3591C1.66169 24.3802 2.67459 22.5585 4.05915 21.0371C5.44371 19.5158 7.16222 18.3362 9.07963 17.5912C10.997 16.8461 13.0611 16.5559 15.1096 16.7433C17.1581 16.9307 19.1353 17.5905 20.8857 18.6711C22.8271 19.8853 24.4258 21.5758 25.5298 23.582C26.6339 25.5881 27.2065 27.8432 27.1935 30.1331L27.248 30.1513L27.2826 30.1622C27.5307 30.2485 27.7535 30.3948 27.9313 30.5882C28.109 30.7815 28.2362 31.0158 28.3014 31.2702C28.3833 31.5369 28.3999 31.8194 28.3499 32.0939C28.2998 32.3684 28.1847 32.6268 28.014 32.8476C27.6501 33.2787 27.128 33.468 26.6567 33.5971L26.4548 33.6499C26.1071 33.7186 25.7732 33.8446 25.4669 34.0229C25.1954 34.1877 24.9718 34.4206 24.8182 34.6986C24.6647 34.9766 24.5866 35.29 24.5918 35.6075V35.6603C24.6354 36.63 24.6937 37.9581 23.5329 38.3584C23.1386 38.4823 22.7241 38.5292 22.3121 38.4967L22.1502 38.4858C21.8191 38.4621 21.5061 38.4421 21.2896 38.5786C20.9494 38.7969 20.8421 39.3063 20.7438 39.8121C20.7041 40.0338 20.6494 40.2527 20.5801 40.4671C20.309 41.253 19.9451 41.8079 19.4666 42.1663C18.8917 42.5975 18.2276 42.7121 17.5836 42.8049C17.3307 42.845 17.0924 42.8832 16.8558 42.9396C16.0141 43.146 15.1531 43.2637 14.2869 43.2907C14.1577 43.2925 14.0267 43.2943 13.8976 43.2943ZM13.8976 17.3393C10.5421 17.3393 7.32402 18.6723 4.95134 21.0449C2.57866 23.4176 1.2457 26.6357 1.2457 29.9912C1.2457 33.3466 2.57866 36.5647 4.95134 38.9374C7.32402 41.31 10.5421 42.643 13.8976 42.643H14.2614C15.0817 42.6173 15.8969 42.5057 16.6939 42.3101C16.9523 42.2464 17.2143 42.2045 17.469 42.1645C18.0603 42.0717 18.6188 41.9826 19.0645 41.6478C19.4284 41.3695 19.725 40.9201 19.9542 40.256C20.0113 40.0669 20.0587 39.875 20.0961 39.6811C20.2217 39.0807 20.3636 38.3984 20.9348 38.0327C21.3297 37.7799 21.7863 37.8108 22.1884 37.8381L22.343 37.849C22.6705 37.8774 23.0005 37.8422 23.3146 37.7453C23.9659 37.5215 23.9823 36.7173 23.9368 35.6894V35.6366C23.9004 34.7925 24.3243 34.0083 25.0994 33.4843C25.4654 33.2635 25.8666 33.1072 26.2856 33.0222L26.4803 32.9713C26.8441 32.8694 27.2662 32.7275 27.5064 32.4364C27.61 32.2975 27.679 32.136 27.7078 31.9651C27.7366 31.7943 27.7243 31.6191 27.672 31.4539C27.6355 31.3015 27.5619 31.1605 27.4578 31.0434C27.3537 30.9263 27.2223 30.8367 27.0752 30.7826L27.0443 30.7735C26.9443 30.7521 26.8506 30.7083 26.7702 30.6452C26.6898 30.5821 26.6249 30.5016 26.5803 30.4096C26.548 30.3237 26.5331 30.2321 26.5367 30.1403C26.5517 27.9595 26.0077 25.8111 24.9567 23.9002C23.9057 21.9892 22.3826 20.3794 20.5328 19.2242C18.5392 17.9915 16.2415 17.3388 13.8976 17.3393Z" fill="#15006D"/>
<path d="M48.8621 42.3337C52.0071 42.3337 54.5567 39.7842 54.5567 36.6391C54.5567 33.4941 52.0071 30.9445 48.8621 30.9445C45.717 30.9445 43.1675 33.4941 43.1675 36.6391C43.1675 39.7842 45.717 42.3337 48.8621 42.3337Z" fill="#FF4545"/>
<path d="M48.8621 42.6576C47.6713 42.6576 46.5073 42.3044 45.5172 41.6428C44.5271 40.9812 43.7555 40.0409 43.2999 38.9407C42.8443 37.8406 42.7252 36.63 42.9576 35.4621C43.1901 34.2943 43.7636 33.2216 44.6057 32.3797C45.4479 31.5378 46.5208 30.9646 47.6887 30.7325C48.8566 30.5004 50.0672 30.6199 51.1672 31.0758C52.2672 31.5318 53.2073 32.3037 53.8686 33.2939C54.5299 34.2842 54.8827 35.4483 54.8823 36.6391C54.8799 38.2349 54.2448 39.7646 53.1163 40.8928C51.9877 42.021 50.4578 42.6556 48.8621 42.6576ZM48.8621 31.2684C47.7998 31.2684 46.7615 31.5833 45.8782 32.1735C44.995 32.7636 44.3066 33.6024 43.9001 34.5838C43.4936 35.5652 43.3873 36.6451 43.5945 37.6869C43.8017 38.7287 44.3133 39.6857 45.0644 40.4368C45.8155 41.1879 46.7725 41.6994 47.8143 41.9067C48.8561 42.1139 49.936 42.0076 50.9174 41.6011C51.8988 41.1946 52.7376 40.5062 53.3277 39.623C53.9178 38.7397 54.2328 37.7014 54.2328 36.6391C54.2314 35.2151 53.6651 33.8499 52.6582 32.843C51.6513 31.8361 50.286 31.2698 48.8621 31.2684Z" fill="#15006D"/>
<g style="mix-blend-mode:multiply">
<path d="M47.8942 40.2869L47.9688 38.4949C47.9708 38.4415 47.9603 38.3884 47.9382 38.3397C47.9161 38.2911 47.8829 38.2483 47.8414 38.2147C45.6946 36.5045 42.6453 34.6524 42.0049 34.2667C41.9277 34.2207 41.8356 34.207 41.7484 34.2285C37.8677 35.1964 24.6463 39.1298 24.5845 39.4646C24.3643 40.6635 24.6063 42.1427 24.5845 43.9566C24.5845 44.1786 24.6846 44.8135 24.4699 44.7571C24.3274 44.719 24.1828 44.6893 24.0369 44.668C23.9465 44.6545 23.8651 44.6057 23.8106 44.5324C23.756 44.4591 23.7327 44.3672 23.7458 44.2768L24.0441 42.3901C24.0541 42.3446 24.0541 42.2974 24.0441 42.2518L23.1508 38.8933C23.1332 38.8254 23.0952 38.7645 23.0418 38.7189C22.9884 38.6734 22.9223 38.6453 22.8525 38.6386L18.6115 38.1983L17.2688 38.0782C17.1991 38.0722 17.1291 38.0878 17.0686 38.123C17.008 38.1581 16.9598 38.2111 16.9304 38.2747L16.29 39.6574C16.2632 39.7149 16.2209 39.7637 16.1679 39.7984C16.1148 39.8331 16.0531 39.8523 15.9898 39.8538C15.9264 39.8553 15.8639 39.8391 15.8092 39.807C15.7546 39.7748 15.71 39.7281 15.6805 39.672L14.5252 37.4687C14.4929 37.4061 14.4419 37.355 14.3794 37.3224C14.3169 37.2899 14.2458 37.2774 14.1759 37.2868L7.44427 38.2329C7.37482 38.2452 7.3109 38.2787 7.26135 38.3289C7.21181 38.3791 7.17909 38.4435 7.16772 38.5131L6.25804 42.2628C6.24895 42.3082 6.58189 44.2513 6.59099 44.295L3.84193 45.0264C3.84193 45.07 3.51444 48.8598 3.529 48.9016L4.41139 51.7435H4.45869L5.20099 53.9995C5.22861 54.0821 5.28672 54.1511 5.36347 54.1924C5.44023 54.2336 5.52983 54.244 5.61399 54.2214L7.92276 53.6138C7.96589 53.602 8.01093 53.5988 8.05528 53.6045C8.09963 53.6102 8.14242 53.6246 8.18116 53.647C8.2199 53.6693 8.25383 53.6991 8.28099 53.7346C8.30815 53.7701 8.328 53.8107 8.33939 53.8539C8.51111 54.4553 8.81965 55.0088 9.24087 55.471C9.66209 55.9333 10.1846 56.2919 10.7674 56.5186C11.3502 56.7454 11.9776 56.8342 12.6005 56.7781C13.2234 56.7221 13.8249 56.5226 14.3578 56.1954C14.4297 56.151 14.5155 56.1346 14.5987 56.1494C14.682 56.1641 14.7568 56.209 14.809 56.2755L14.92 56.4101L14.9364 56.432C15.312 56.9936 15.8221 57.4524 16.4202 57.7667C17.0183 58.081 17.6855 58.2408 18.3611 58.2315C19.0367 58.2223 19.6992 58.0444 20.2885 57.7139C20.8779 57.3834 21.3752 56.9108 21.7354 56.3392L21.7517 56.3155C21.8263 56.2246 21.8955 56.1336 21.9628 56.0335C21.993 55.99 22.0328 55.9541 22.0792 55.9286C22.1256 55.9031 22.1773 55.8887 22.2303 55.8866C22.2832 55.8845 22.3358 55.8947 22.3841 55.9164C22.4325 55.9381 22.4751 55.9707 22.5086 56.0117C22.8686 56.4552 23.3184 56.8175 23.8284 57.0748C24.3384 57.3321 24.897 57.4787 25.4676 57.5048C26.0383 57.5309 26.608 57.436 27.1393 57.2263C27.6707 57.0167 28.1517 56.697 28.5507 56.2882L28.5707 56.27C28.8072 56.0784 29.0236 55.8632 29.2166 55.6278C29.2653 55.5674 29.3331 55.5255 29.4089 55.5089C29.4847 55.4924 29.5638 55.5022 29.6332 55.5368L29.6532 55.5478C29.7252 55.5842 29.808 55.5932 29.8861 55.5732L47.1846 51.3578C47.2562 51.3399 47.3202 51.2995 47.367 51.2425C47.4139 51.1855 47.4411 51.1149 47.4448 51.0412L47.8742 40.6017C47.8814 40.5016 47.8942 40.3979 47.8942 40.2869Z" fill="#E3E4E5"/>
</g>
<path d="M37.7512 46.5838C33.6085 46.5838 31.3744 53.4773 31.3744 56.2955C31.3744 57.9868 32.0462 59.6087 33.2421 60.8046C34.438 62.0005 36.06 62.6724 37.7512 62.6724C39.4425 62.6724 41.0645 62.0005 42.2604 60.8046C43.4562 59.6087 44.1281 57.9868 44.1281 56.2955C44.1281 53.4773 41.8939 46.5838 37.7512 46.5838Z" fill="white"/>
<path d="M37.7512 62.9981C35.9743 62.9957 34.2709 62.2887 33.0145 61.0323C31.758 59.7758 31.0511 58.0724 31.0487 56.2955C31.0487 54.9274 31.5727 52.4476 32.7207 50.2334C34.4236 46.9495 36.3958 46.2599 37.7512 46.2599C39.1066 46.2599 41.077 46.9495 42.7818 50.2334C43.9298 52.4476 44.4538 54.9274 44.4538 56.2955C44.4513 58.0724 43.7444 59.7758 42.488 61.0323C41.2315 62.2887 39.5281 62.9957 37.7512 62.9981ZM37.7512 46.9094C33.9851 46.9094 31.6982 53.4282 31.6982 56.2955C31.7257 57.8825 32.3754 59.3951 33.5074 60.5077C34.6394 61.6202 36.1631 62.2436 37.7503 62.2436C39.3375 62.2436 40.8612 61.6202 41.9932 60.5077C43.1252 59.3951 43.7749 57.8825 43.8024 56.2955C43.8024 53.4318 41.5264 46.9094 37.7512 46.9094Z" fill="#15006D"/>
<path d="M47.09 38.997L46.5551 51.9763L29.9989 56.25L30.199 44.1494C30.199 44.1494 45.6873 39.5264 47.09 38.997Z" fill="#FFFBEB"/>
<path d="M30.1899 44.1422L25.2031 40.0377C24.9356 39.8176 37.8349 35.9368 41.5337 35.0326C41.5337 35.0326 44.6794 37.0467 47.09 38.997L30.1899 44.1422Z" fill="#B28769"/>
<path d="M30.1899 44.4678C30.1144 44.467 30.0413 44.4407 29.9825 44.3932L24.9957 40.2888C24.9487 40.2481 24.9134 40.1957 24.8936 40.1368C24.8737 40.0779 24.87 40.0148 24.8829 39.954C24.9356 39.7193 24.9757 39.5483 31.9293 37.4378C35.8282 36.2534 39.7525 35.1345 41.4554 34.7088C41.4983 34.6987 41.5427 34.6972 41.5861 34.7044C41.6295 34.7116 41.671 34.7273 41.7083 34.7506C41.7393 34.7706 44.8977 36.7974 47.2938 38.7368C47.3397 38.7738 47.3746 38.8225 47.3948 38.8779C47.4151 38.9332 47.4198 38.993 47.4086 39.0508C47.3974 39.1087 47.3706 39.1623 47.3311 39.2061C47.2916 39.2498 47.241 39.2819 47.1846 39.299L30.2846 44.446C30.2542 44.4577 30.2224 44.4651 30.1899 44.4678ZM25.7889 40.1014L30.2627 43.7892L46.4041 38.8769C44.3828 37.2959 42.0213 35.7476 41.4755 35.3929C37.7858 36.2989 27.9048 39.2827 25.7889 40.0977V40.1014Z" fill="#15006D"/>
<path d="M25.2031 40.0377C25.2031 40.0377 24.9484 49.804 25.2031 52.6422C25.2031 52.6422 27.3154 54.9346 29.9898 56.2428L30.1899 44.1422L25.2031 40.0377Z" fill="#E5DFCA"/>
<path d="M47.0081 40.9601C47.0081 42.1118 46.5606 42.6849 46.2968 42.8886C46.0185 43.0914 45.8243 43.3892 45.751 43.7255C45.5799 44.2986 45.4599 44.8881 45.2688 45.4576C45.116 45.9124 44.7631 46.4801 44.2009 46.3072C43.9773 46.2278 43.7857 46.0777 43.6551 45.8797C43.1602 45.1774 43.0128 44.2677 42.4179 43.6218C42.1486 43.3289 41.9067 42.21 41.53 42.3337C41.2735 42.4156 41.1789 42.9287 41.1189 43.1433C41.0006 43.5673 40.8951 44.0021 40.8005 44.4315C40.7495 44.6571 40.7277 44.8863 40.6804 45.1119C40.6436 45.3463 40.5547 45.5695 40.4202 45.765C40.2619 45.9652 40.0291 46.1289 39.8526 46.3109C39.5895 46.5741 39.3648 46.8729 39.1849 47.1987C39.0675 47.4877 38.9251 47.766 38.7592 48.0302C38.5117 48.354 38.1078 48.5068 37.7676 48.2121C37.3291 47.8391 37.1799 47.2369 36.9798 46.722C36.7087 46.0234 35.8736 43.9384 35.095 44.6552C34.9841 44.7818 34.906 44.9336 34.8675 45.0973C34.702 45.5922 34.6529 46.1289 34.4218 46.602C34.118 47.2242 33.6558 47.2005 33.0809 47.4207C32.2822 47.7263 32.184 48.6942 31.9129 49.3801C31.808 49.7002 31.6017 49.9774 31.3252 50.1697C30.2664 50.812 29.8697 49.1072 29.7351 48.4013C29.696 48.1475 29.6705 47.8919 29.6587 47.6354C29.6542 47.446 29.6089 47.2598 29.5259 47.0895C29.3021 46.6875 28.8655 46.8403 28.5252 46.6402C28.2829 46.4601 28.0916 46.2199 27.9703 45.9433C27.7647 45.5467 27.6792 45.1046 27.3954 44.7535C26.9897 44.2495 26.0746 44.0457 25.5142 44.4133C25.3104 44.5461 25.1212 44.7098 25.1267 44.3478C25.1467 42.9978 25.174 41.6496 25.1958 40.2997V40.0268L30.1827 44.1313L47.0827 38.9861L47.0081 40.9601Z" fill="#A07555"/>
<path d="M30.1899 44.4678C30.1144 44.467 30.0413 44.4407 29.9825 44.3932L24.9957 40.2888C24.9487 40.2481 24.9134 40.1957 24.8936 40.1368C24.8737 40.0779 24.87 40.0148 24.8829 39.954C24.9356 39.7193 24.9757 39.5483 31.9293 37.4378C35.8282 36.2534 39.7525 35.1345 41.4554 34.7088C41.4983 34.6987 41.5427 34.6972 41.5861 34.7044C41.6295 34.7116 41.671 34.7273 41.7083 34.7506C41.7393 34.7706 44.8977 36.7974 47.2938 38.7368C47.3397 38.7738 47.3746 38.8225 47.3948 38.8779C47.4151 38.9332 47.4198 38.993 47.4086 39.0508C47.3974 39.1087 47.3706 39.1623 47.3311 39.2061C47.2916 39.2498 47.241 39.2819 47.1846 39.299L30.2846 44.446C30.2542 44.4577 30.2224 44.4651 30.1899 44.4678ZM25.7889 40.1014L30.2627 43.7892L46.4041 38.8769C44.3828 37.2959 42.0213 35.7476 41.4755 35.3929C37.7858 36.2989 27.9048 39.2827 25.7889 40.0977V40.1014Z" fill="#15006D"/>
<path d="M29.9898 56.5666C29.9467 56.5669 29.9039 56.5585 29.8641 56.542C29.8242 56.5255 29.788 56.5012 29.7577 56.4705C29.7274 56.4398 29.7034 56.4034 29.6874 56.3633C29.6713 56.3233 29.6634 56.2805 29.6642 56.2373L29.8643 44.1367C29.8657 44.0677 29.889 44.0008 29.9308 43.9459C29.9727 43.8909 30.0309 43.8507 30.0972 43.8311C30.2463 43.7892 45.6 39.2117 46.9845 38.695C47.0346 38.6763 47.0887 38.6704 47.1417 38.6777C47.1947 38.685 47.2451 38.7053 47.2883 38.7369C47.3322 38.7679 47.3675 38.8096 47.391 38.8579C47.4145 38.9062 47.4255 38.9597 47.423 39.0134L46.8808 51.9764C46.8776 52.0459 46.8521 52.1125 46.8083 52.1666C46.7644 52.2206 46.7044 52.2591 46.637 52.2766L30.0808 56.5502C30.0512 56.559 30.0207 56.5645 29.9898 56.5666ZM30.5102 44.3769L30.3282 55.8116L46.2477 51.7071L46.7534 39.4482C44.0317 40.3524 32.3659 43.8329 30.5102 44.386V44.3769Z" fill="#15006D"/>
<path d="M29.9898 56.5666C29.9406 56.5668 29.892 56.5556 29.8479 56.5339C27.1534 55.2148 25.0521 52.9588 24.9702 52.8642C24.9213 52.811 24.8913 52.7433 24.8847 52.6714C24.6318 49.8459 24.8738 40.4289 24.8847 40.0286C24.886 39.9687 24.9036 39.9102 24.9357 39.8596C24.9677 39.8089 25.013 39.7679 25.0666 39.7411C25.1219 39.7159 25.1831 39.7067 25.2433 39.7148C25.3035 39.7228 25.3602 39.7477 25.4068 39.7866L30.3955 43.8911C30.4333 43.9222 30.4636 43.9614 30.4841 44.0058C30.5046 44.0502 30.5147 44.0987 30.5138 44.1476L30.3137 56.2482C30.3125 56.3029 30.2975 56.3564 30.2701 56.4038C30.2428 56.4512 30.2039 56.4909 30.1572 56.5193C30.107 56.5506 30.049 56.567 29.9898 56.5666ZM25.516 52.5022C25.8799 52.8842 27.5719 54.5726 29.6714 55.7133L29.8534 44.2932L25.516 40.7127C25.4614 42.9268 25.3195 50.0315 25.516 52.5022Z" fill="#15006D"/>
<path d="M7.024 38.8769C7.024 38.917 6.25441 42.5921 6.25441 42.5921L15.8243 41.3967L13.9903 37.9036L7.024 38.8769Z" fill="#4BE1D9"/>
<path d="M6.25441 42.5957L7.45701 48.7015L16.2645 47.4534L15.8243 41.4004L6.25441 42.5957Z" fill="#4BE1D9"/>
<path d="M6.58735 44.2877L6.25441 42.5957L7.02218 38.8806L8.51951 38.6714L7.96643 42.381L8.31938 43.822L6.58735 44.2877Z" fill="#C2FFF9"/>
<path d="M6.25441 42.9196C6.20592 42.9201 6.15793 42.9098 6.11401 42.8892C6.07009 42.8687 6.03139 42.8384 6.00078 42.8008C5.97017 42.7632 5.94845 42.7192 5.93723 42.672C5.92602 42.6248 5.9256 42.5758 5.93602 42.5284C6.23439 41.0929 6.68559 38.9206 6.70379 38.8242C6.71258 38.7553 6.74458 38.6914 6.79452 38.6431C6.84446 38.5948 6.90935 38.565 6.97851 38.5585L13.9449 37.5815C14.0112 37.5723 14.0788 37.5838 14.1383 37.6144C14.1979 37.645 14.2466 37.6933 14.2778 37.7526L16.1117 41.2421C16.1363 41.2885 16.1492 41.3403 16.1493 41.3928C16.1495 41.4454 16.1368 41.4972 16.1125 41.5437C16.0881 41.5903 16.0528 41.6302 16.0095 41.6601C15.9663 41.6899 15.9165 41.7088 15.8643 41.7151L6.29443 42.9105L6.25441 42.9196ZM7.29508 39.1698C7.22776 39.5064 7.0622 40.3033 6.66558 42.2155L15.3276 41.1348L13.8175 38.2565L7.29508 39.1698Z" fill="#15006D"/>
<path d="M7.45518 49.0272C7.38066 49.0261 7.30876 48.9995 7.25148 48.9518C7.19419 48.9042 7.155 48.8383 7.14043 48.7652L5.93784 42.6576C5.92954 42.6138 5.93026 42.5688 5.93996 42.5253C5.94966 42.4818 5.96813 42.4408 5.99424 42.4047C6.02032 42.3683 6.05368 42.3377 6.0922 42.3148C6.13072 42.292 6.17356 42.2773 6.21802 42.2719L15.7879 41.0766C15.8761 41.0673 15.9645 41.0935 16.0335 41.1493C16.0676 41.1773 16.0956 41.2118 16.1159 41.2509C16.1363 41.29 16.1484 41.3328 16.1517 41.3767L16.5884 47.4279C16.5947 47.5102 16.5695 47.5917 16.5177 47.656C16.466 47.7202 16.3917 47.7623 16.31 47.7736L7.50431 49.0235L7.45518 49.0272ZM6.64011 42.8795L7.71535 48.3376L15.917 47.1751L15.5241 41.7643L6.64011 42.8795Z" fill="#15006D"/>
<path d="M16.6011 38.695C16.5884 38.7332 15.0765 41.9935 15.0765 41.9935L24.2625 42.9596L23.3109 39.299L16.6011 38.695Z" fill="#4BE1D9"/>
<path d="M15.082 42.0008L14.8746 47.9574L23.3601 48.7088L24.2661 42.9669L15.082 42.0008Z" fill="#4BE1D9"/>
<path d="M14.9491 45.8087L15.082 42.0008L16.6011 38.695L18.1822 38.8387L17.0196 42.1973L16.7885 45.2593C16.1392 45.2863 15.5069 45.4752 14.9491 45.8087Z" fill="#C2FFF9"/>
<path d="M24.2679 43.2925H24.2425L15.0565 42.3246C15.0035 42.322 14.952 42.3063 14.9065 42.279C14.8611 42.2517 14.8231 42.2136 14.7959 42.168C14.7687 42.1225 14.7532 42.0709 14.7507 42.0179C14.7483 41.965 14.7589 41.9122 14.7818 41.8643C15.3712 40.5908 16.2645 38.6641 16.3028 38.5767C16.3266 38.5115 16.3722 38.4564 16.4318 38.4206C16.4914 38.3848 16.5614 38.3706 16.6302 38.3802L23.34 38.9843C23.4068 38.9901 23.4702 39.0165 23.5214 39.0598C23.5725 39.1031 23.609 39.1613 23.6257 39.2262L24.5809 42.8795C24.5937 42.9275 24.5953 42.9778 24.5856 43.0265C24.5759 43.0752 24.5551 43.1211 24.5249 43.1604C24.4946 43.1998 24.4557 43.2318 24.4112 43.2537C24.3666 43.2757 24.3176 43.2871 24.2679 43.2871V43.2925ZM15.5677 41.7242L23.8349 42.5957L23.0599 39.6047L16.8067 39.0425C16.6684 39.35 16.341 40.0559 15.5677 41.7242Z" fill="#15006D"/>
<path d="M23.3601 49.0344H23.3328L14.8454 48.283C14.7628 48.2756 14.6861 48.2368 14.6313 48.1745C14.5764 48.1122 14.5476 48.0312 14.5507 47.9483L14.7563 41.9917C14.758 41.9467 14.769 41.9025 14.7886 41.8619C14.8081 41.8214 14.8359 41.7853 14.87 41.7559C14.9042 41.7265 14.944 41.7045 14.987 41.6912C15.0301 41.678 15.0754 41.6737 15.1202 41.6788L24.3043 42.6467C24.348 42.6512 24.3903 42.6645 24.4288 42.6858C24.4672 42.707 24.501 42.7358 24.5281 42.7704C24.5552 42.8054 24.5748 42.8455 24.5857 42.8884C24.5967 42.9313 24.5987 42.9759 24.5918 43.0196L23.6821 48.7615C23.6692 48.8377 23.6298 48.9069 23.5709 48.9568C23.512 49.0067 23.4373 49.0342 23.3601 49.0344ZM15.2111 47.6608L23.0872 48.3576L23.8931 43.2543L15.3949 42.3592L15.2111 47.6608Z" fill="#15006D"/>
<path d="M3.84193 45.0264C3.84193 45.07 3.529 48.9016 3.529 48.9016L13.1098 46.4782L10.8028 43.1524L3.84193 45.0264Z" fill="#4BE1D9"/>
<path d="M3.529 48.9016L5.52302 54.9619L14.3233 52.5786L13.1098 46.4782L3.529 48.9016Z" fill="#4BE1D9"/>
<path d="M5.19371 44.6625L3.84193 45.0264L3.529 48.9016L4.63153 52.3912L6.56006 52.695L5.13004 48.4977L5.19371 44.6625Z" fill="#C2FFF9"/>
<path d="M3.529 49.2273C3.45195 49.2269 3.37741 49.1999 3.31795 49.1509C3.27872 49.1173 3.24803 49.0749 3.22841 49.0271C3.2088 48.9794 3.20083 48.9276 3.20515 48.8762C3.32705 47.377 3.5108 45.1119 3.51626 45.0118C3.51663 44.9423 3.54058 44.8749 3.58421 44.8207C3.62783 44.7665 3.68854 44.7287 3.75642 44.7135L10.7191 42.8395C10.7836 42.8219 10.852 42.8247 10.9149 42.8475C10.9778 42.8703 11.032 42.912 11.0703 42.9669L13.3772 46.2927C13.4072 46.3356 13.4264 46.3852 13.4331 46.4372C13.4397 46.4891 13.4337 46.5419 13.4154 46.591C13.3966 46.6402 13.3663 46.6842 13.3271 46.7193C13.2878 46.7544 13.2408 46.7797 13.1898 46.793L3.60905 49.2164C3.58295 49.2235 3.55604 49.2271 3.529 49.2273ZM4.14758 45.2811C4.12029 45.6286 4.05297 46.4601 3.88923 48.4759L12.5767 46.2781L10.6664 43.5272L4.14758 45.2811Z" fill="#15006D"/>
<path d="M5.52302 55.2858C5.45454 55.2855 5.38787 55.2638 5.33239 55.2236C5.27691 55.1835 5.23541 55.1269 5.21373 55.062L3.21243 49.0035C3.19824 48.9612 3.19301 48.9163 3.19709 48.8719C3.20116 48.8274 3.21444 48.7842 3.23608 48.7452C3.25776 48.7062 3.28718 48.672 3.32253 48.6448C3.35788 48.6176 3.39842 48.5979 3.44167 48.5869L13.0315 46.1544C13.0742 46.1436 13.1186 46.1416 13.1621 46.1485C13.2055 46.1554 13.2472 46.171 13.2844 46.1944C13.3591 46.2434 13.4115 46.3199 13.43 46.4073L14.6417 52.5222C14.6541 52.5996 14.6383 52.6788 14.5973 52.7456C14.5562 52.8124 14.4926 52.8622 14.4179 52.886L5.60853 55.2749C5.58056 55.2819 5.55185 55.2855 5.52302 55.2858ZM3.94563 49.1327L5.73588 54.5671L13.9449 52.3402L12.8532 46.8821L3.94563 49.1327Z" fill="#15006D"/>
<g style="mix-blend-mode:multiply">
<path d="M20.9294 46.5183C20.9294 46.5183 19.6413 43.691 15.8552 44.335C12.0345 44.9864 11.9417 48.1229 11.9417 48.1229C7.22413 48.525 7.21139 52.9115 7.21139 52.9115C7.21139 52.9115 15.2966 53.4882 20.9294 46.5183Z" fill="#E3E4E5"/>
</g>
<path d="M16.9814 53.3773C19.2211 53.3773 21.0367 51.5616 21.0367 49.3219C21.0367 47.0822 19.2211 45.2665 16.9814 45.2665C14.7417 45.2665 12.926 47.0822 12.926 49.3219C12.926 51.5616 14.7417 53.3773 16.9814 53.3773Z" fill="#FF8080"/>
<path d="M16.9814 53.7029C16.1149 53.7029 15.2679 53.446 14.5474 52.9646C13.8269 52.4832 13.2654 51.799 12.9338 50.9985C12.6022 50.1979 12.5155 49.317 12.6845 48.4672C12.8536 47.6174 13.2708 46.8367 13.8835 46.224C14.4962 45.6114 15.2768 45.1941 16.1267 45.0251C16.9765 44.856 17.8574 44.9428 18.6579 45.2744C19.4584 45.6059 20.1427 46.1675 20.6241 46.8879C21.1055 47.6084 21.3624 48.4554 21.3624 49.3219C21.3614 50.4835 20.8996 51.5973 20.0782 52.4187C19.2568 53.2401 18.143 53.702 16.9814 53.7029ZM16.9814 45.5922C16.2432 45.5918 15.5215 45.8104 14.9076 46.2203C14.2936 46.6302 13.8151 47.213 13.5324 47.8949C13.2498 48.5768 13.1757 49.3272 13.3196 50.0513C13.4636 50.7753 13.819 51.4403 14.341 51.9623C14.8629 52.4843 15.528 52.8397 16.252 52.9836C16.976 53.1275 17.7265 53.0535 18.4084 52.7708C19.0903 52.4882 19.6731 52.0096 20.0829 51.3957C20.4928 50.7818 20.7114 50.0601 20.7111 49.3219C20.7101 48.333 20.3168 47.3849 19.6176 46.6857C18.9184 45.9864 17.9703 45.5932 16.9814 45.5922Z" fill="#15006D"/>
<path d="M23.6366 53.3773C25.8763 53.3773 27.692 51.5616 27.692 49.3219C27.692 47.0822 25.8763 45.2665 23.6366 45.2665C21.3969 45.2665 19.5812 47.0822 19.5812 49.3219C19.5812 51.5616 21.3969 53.3773 23.6366 53.3773Z" fill="#FF8080"/>
<path d="M23.6366 53.7029C22.77 53.7033 21.9228 53.4466 21.2021 52.9655C20.4814 52.4843 19.9196 51.8002 19.5878 50.9997C19.2559 50.1992 19.1689 49.3183 19.3377 48.4683C19.5066 47.6184 19.9237 46.8376 20.5363 46.2247C21.1489 45.6118 21.9295 45.1944 22.7794 45.0252C23.6293 44.856 24.5103 44.9427 25.3109 45.2742C26.1115 45.6057 26.7959 46.1672 27.2773 46.8877C27.7588 47.6082 28.0158 48.4553 28.0158 49.3219C28.0148 50.4832 27.5532 51.5967 26.7322 52.4181C25.9112 53.2394 24.7979 53.7015 23.6366 53.7029ZM23.6366 45.5922C22.8984 45.5918 22.1767 45.8104 21.5628 46.2203C20.9489 46.6302 20.4703 47.213 20.1877 47.8949C19.905 48.5768 19.831 49.3272 19.9749 50.0513C20.1188 50.7753 20.4742 51.4403 20.9962 51.9623C21.5182 52.4843 22.1832 52.8397 22.9072 52.9836C23.6313 53.1275 24.3817 53.0535 25.0636 52.7708C25.7455 52.4882 26.3283 52.0096 26.7382 51.3957C27.1481 50.7818 27.3667 50.0601 27.3663 49.3219C27.3653 48.333 26.9721 47.3849 26.2728 46.6857C25.5736 45.9864 24.6255 45.5932 23.6366 45.5922Z" fill="#15006D"/>
<path d="M12.4584 57.4326C14.6981 57.4326 16.5138 55.617 16.5138 53.3773C16.5138 51.1375 14.6981 49.3219 12.4584 49.3219C10.2187 49.3219 8.40307 51.1375 8.40307 53.3773C8.40307 55.617 10.2187 57.4326 12.4584 57.4326Z" fill="#FF8080"/>
<path d="M12.4584 57.7583C11.592 57.7583 10.7449 57.5014 10.0245 57.02C9.30401 56.5386 8.74248 55.8543 8.41089 55.0538C8.0793 54.2533 7.99255 53.3724 8.16159 52.5226C8.33063 51.6727 8.74788 50.8921 9.36058 50.2794C9.97328 49.6667 10.7539 49.2495 11.6037 49.0804C12.4536 48.9114 13.3345 48.9981 14.135 49.3297C14.9355 49.6613 15.6197 50.2228 16.1011 50.9433C16.5825 51.6638 16.8395 52.5108 16.8395 53.3773C16.8385 54.5389 16.3766 55.6527 15.5552 56.4741C14.7338 57.2955 13.6201 57.7573 12.4584 57.7583ZM12.4584 49.6476C11.7203 49.6476 10.9988 49.8665 10.3851 50.2766C9.77144 50.6867 9.29317 51.2696 9.01079 51.9515C8.72842 52.6335 8.65463 53.3839 8.79875 54.1077C8.94288 54.8316 9.29846 55.4965 9.8205 56.0183C10.3425 56.5401 11.0076 56.8954 11.7316 57.0391C12.4555 57.1829 13.2059 57.1087 13.8877 56.826C14.5695 56.5433 15.1522 56.0648 15.562 55.4509C15.9718 54.837 16.1903 54.1154 16.1899 53.3773C16.189 52.3881 15.7955 51.4397 15.0958 50.7404C14.3962 50.0411 13.4476 49.6481 12.4584 49.6476Z" fill="#15006D"/>
<g style="mix-blend-mode:multiply">
<path d="M25.9981 49.009C25.1765 49.009 24.371 49.2369 23.6712 49.6673C22.9713 50.0977 22.4045 50.7137 22.0337 51.4469C21.4446 50.6851 20.6239 50.1352 19.6952 49.88C18.7665 49.6249 17.7801 49.6783 16.8844 50.0322C15.9887 50.3861 15.2322 51.0214 14.7287 51.8424C14.2252 52.6635 14.0021 53.6258 14.0928 54.5846C14.1835 55.5434 14.5832 56.4468 15.2317 57.1588C15.8802 57.8709 16.7425 58.353 17.6887 58.5326C18.6348 58.7123 19.6138 58.5797 20.4781 58.1549C21.3425 57.7301 22.0455 57.0361 22.4813 56.1773C22.9427 56.7749 23.5488 57.2451 24.2424 57.5436C24.9359 57.8421 25.6941 57.959 26.4453 57.8832C27.1966 57.8075 27.9161 57.5416 28.5361 57.1107C29.1561 56.6798 29.6561 56.098 29.989 55.4203C30.3218 54.7425 30.4765 53.9912 30.4385 53.2371C30.4004 52.483 30.1709 51.751 29.7716 51.1102C29.3723 50.4694 28.8163 49.9409 28.1561 49.5745C27.4958 49.2082 26.7532 49.016 25.9981 49.0163V49.009Z" fill="#E3E4E5"/>
</g>
<path d="M25.8781 58.1476C28.1178 58.1476 29.9334 56.332 29.9334 54.0923C29.9334 51.8526 28.1178 50.0369 25.8781 50.0369C23.6383 50.0369 21.8227 51.8526 21.8227 54.0923C21.8227 56.332 23.6383 58.1476 25.8781 58.1476Z" fill="#FF8080"/>
<path d="M25.8799 58.4715C25.0133 58.4715 24.1662 58.2145 23.4457 57.733C22.7252 57.2515 22.1637 56.5672 21.8322 55.7666C21.5006 54.9659 21.414 54.085 21.5832 53.2351C21.7524 52.3852 22.1698 51.6046 22.7827 50.9919C23.3955 50.3793 24.1763 49.9622 25.0263 49.7934C25.8763 49.6245 26.7572 49.7116 27.5577 50.0434C28.3582 50.3753 29.0423 50.9371 29.5235 51.6578C30.0046 52.3785 30.2613 53.2257 30.2609 54.0923C30.2595 55.2536 29.7974 56.3669 28.976 57.1879C28.1547 58.0089 27.0412 58.4705 25.8799 58.4715ZM25.8799 50.3607C25.1419 50.3607 24.4204 50.5796 23.8068 50.9896C23.1931 51.3996 22.7148 51.9824 22.4324 52.6643C22.15 53.3461 22.0761 54.0964 22.2201 54.8202C22.364 55.5441 22.7194 56.209 23.2413 56.7308C23.7632 57.2527 24.4281 57.6081 25.1519 57.7521C25.8757 57.8961 26.626 57.8222 27.3079 57.5397C27.9897 57.2573 28.5725 56.779 28.9825 56.1654C29.3925 55.5517 29.6114 54.8303 29.6114 54.0923C29.6109 53.1028 29.2176 52.1539 28.5179 51.4542C27.8182 50.7545 26.8694 50.3612 25.8799 50.3607Z" fill="#15006D"/>
<path d="M18.526 58.8699C20.7657 58.8699 22.5814 57.0543 22.5814 54.8146C22.5814 52.5748 20.7657 50.7592 18.526 50.7592C16.2863 50.7592 14.4707 52.5748 14.4707 54.8146C14.4707 57.0543 16.2863 58.8699 18.526 58.8699Z" fill="#FF8080"/>
<path d="M18.526 59.1956C17.6594 59.1959 16.8122 58.9393 16.0915 58.4581C15.3709 57.977 14.809 57.2929 14.4772 56.4924C14.1453 55.6919 14.0583 54.8109 14.2271 53.961C14.396 53.111 14.8131 52.3302 15.4257 51.7174C16.0383 51.1045 16.8189 50.687 17.6688 50.5178C18.5187 50.3487 19.3997 50.4353 20.2003 50.7668C21.001 51.0984 21.6853 51.6599 22.1668 52.3804C22.6482 53.1009 22.9052 53.948 22.9052 54.8146C22.9043 55.9759 22.4426 57.0894 21.6216 57.9107C20.8006 58.7321 19.6873 59.1941 18.526 59.1956ZM18.526 51.0849C17.7878 51.0845 17.0661 51.3031 16.4522 51.713C15.8383 52.1229 15.3597 52.7056 15.0771 53.3875C14.7944 54.0695 14.7204 54.8199 14.8643 55.5439C15.0082 56.2679 15.3636 56.933 15.8856 57.455C16.4076 57.9769 17.0726 58.3324 17.7967 58.4763C18.5207 58.6202 19.2711 58.5462 19.953 58.2635C20.6349 57.9808 21.2177 57.5023 21.6276 56.8884C22.0375 56.2744 22.2561 55.5527 22.2557 54.8146C22.2543 53.8258 21.8609 52.878 21.1617 52.1789C20.4626 51.4797 19.5147 51.0863 18.526 51.0849Z" fill="#15006D"/>
<path d="M14.336 47.2296C14.1541 47.5207 13.9594 47.9374 14.0158 48.294C14.0217 48.3397 14.0372 48.3837 14.0611 48.4232C14.0851 48.4626 14.117 48.4966 14.1549 48.523C14.1927 48.5494 14.2357 48.5676 14.281 48.5764C14.3263 48.5852 14.3729 48.5844 14.4179 48.5741C14.5834 48.5305 16.1772 46.7057 16.1681 46.5055C16.1627 46.4591 16.1418 46.416 16.1088 46.3829C16.0758 46.3499 16.0326 46.329 15.9862 46.3236C15.3276 46.2253 14.7017 46.6602 14.336 47.2296Z" fill="#FFE3E3"/>
<path d="M21.346 47.2296C21.1641 47.5207 20.9694 47.9374 21.0276 48.294C21.0337 48.3391 21.049 48.3826 21.0726 48.4216C21.0962 48.4606 21.1276 48.4943 21.1648 48.5206C21.202 48.5469 21.2443 48.5652 21.2889 48.5745C21.3336 48.5837 21.3797 48.5836 21.4243 48.5741C21.5898 48.5305 23.1836 46.7057 23.1745 46.5055C23.1686 46.4575 23.1461 46.4129 23.1109 46.3797C23.0757 46.3465 23.03 46.3266 22.9816 46.3236C22.343 46.2253 21.7135 46.6602 21.346 47.2296Z" fill="#FFE3E3"/>
<path d="M23.8113 51.7944C23.5875 52.0382 23.3382 52.4021 23.3346 52.7478C23.3328 52.7915 23.3401 52.8351 23.356 52.8759C23.3719 52.9166 23.3961 52.9537 23.427 52.9846C23.458 53.0156 23.495 53.0397 23.5358 53.0557C23.5765 53.0716 23.6202 53.0789 23.6639 53.0771C23.8276 53.0643 25.6343 51.5979 25.6652 51.4087C25.6697 51.3615 25.6571 51.3143 25.6297 51.2755C25.6023 51.2368 25.562 51.2092 25.516 51.1977C24.9174 50.9975 24.2515 51.305 23.8113 51.7944Z" fill="#FFE3E3"/>
<path d="M10.0096 51.2068C9.77487 51.4597 9.51652 51.8399 9.51289 52.2001C9.51109 52.2458 9.51876 52.2913 9.53541 52.3338C9.55205 52.3763 9.57732 52.415 9.60961 52.4473C9.64191 52.4796 9.68054 52.5048 9.72307 52.5215C9.7656 52.5381 9.81111 52.5458 9.85674 52.544C10.0259 52.5294 11.9072 51.003 11.9326 50.8047C11.9375 50.7555 11.9243 50.7063 11.8955 50.6661C11.8667 50.6259 11.8243 50.5976 11.7762 50.5864C11.1612 50.3862 10.4681 50.7028 10.0096 51.2068Z" fill="#FFE3E3"/>
<path d="M17.2197 52.1583C16.945 52.3402 16.6211 52.6441 16.5393 52.9788C16.5274 53.021 16.5243 53.0652 16.5303 53.1087C16.5364 53.1521 16.5513 53.1939 16.5742 53.2313C16.597 53.2687 16.6274 53.301 16.6634 53.3261C16.6993 53.3512 16.7401 53.3686 16.7831 53.3773C16.9468 53.4009 19.0373 52.3821 19.1027 52.2038C19.1184 52.1586 19.117 52.1094 19.0989 52.0652C19.0808 52.021 19.0473 51.9849 19.0045 51.9636C18.4751 51.6434 17.7564 51.7944 17.2197 52.1583Z" fill="#FFE3E3"/>
<path d="M54.6616 53.4015C56.3632 49.4257 55.2093 45.1184 52.0842 43.7809C48.9591 42.4434 45.0463 44.5823 43.3447 48.5581C41.6431 52.534 42.7971 56.8413 45.9222 58.1788C49.0472 59.5163 52.96 57.3774 54.6616 53.4015Z" fill="#E8AC15"/>
<path d="M47.8778 58.9045C47.1618 58.9066 46.4529 58.7623 45.7946 58.4806C44.1899 57.7947 43.0237 56.361 42.5107 54.4452C42.0049 52.5585 42.1959 50.4226 43.0565 48.4413C44.8267 44.3059 48.9385 42.0863 52.2224 43.4926C55.5064 44.899 56.7399 49.4056 54.9715 53.541C53.5524 56.8249 50.6578 58.9045 47.8778 58.9045ZM50.1211 43.711C47.5994 43.711 44.9486 45.6431 43.6441 48.6887C42.8509 50.5445 42.6708 52.5294 43.1384 54.2778C43.5987 55.9953 44.6339 57.2761 46.0493 57.8838C49.004 59.1574 52.7337 57.0833 54.362 53.2772C55.9903 49.4711 54.9078 45.3484 51.9568 44.0839C51.3767 43.836 50.752 43.7091 50.1211 43.711Z" fill="#15006D"/>
<path d="M53.3675 52.889C55.0691 48.9131 54.172 44.7157 51.3638 43.5139C48.5556 42.312 44.8996 44.5608 43.198 48.5366C41.4964 52.5125 42.3935 56.7099 45.2018 57.9117C48.01 59.1136 51.6659 56.8648 53.3675 52.889Z" fill="#FFD654"/>
<path d="M46.8135 58.5643C46.2159 58.5663 45.6241 58.4468 45.0742 58.2131C42.1068 56.9396 41.1316 52.544 42.9018 48.4104C44.6721 44.2768 48.5255 41.9462 51.4929 43.2161C54.4603 44.486 55.4373 48.8853 53.6761 53.0188C52.8265 55.0038 51.4783 56.6376 49.8791 57.6218C48.9647 58.2148 47.9031 58.5412 46.8135 58.5643ZM49.7572 43.5163C47.4157 43.5163 44.8358 45.5413 43.4986 48.6669C41.8612 52.4712 42.6926 56.4902 45.3307 57.6146C46.5897 58.1604 48.0797 57.9584 49.5298 57.0687C51.0162 56.1591 52.2734 54.6272 53.0703 52.7641C54.6986 48.9598 53.8762 44.9409 51.2382 43.8165C50.77 43.6169 50.2661 43.5147 49.7572 43.5163Z" fill="#15006D"/>
<path d="M47.3515 50.0725C47.6647 49.9215 47.7675 49.4858 47.5812 49.0993C47.3948 48.7128 46.9899 48.5219 46.6768 48.6729C46.3636 48.8239 46.2608 49.2596 46.4471 49.6461C46.6334 50.0325 47.0384 50.2235 47.3515 50.0725Z" fill="#15006D"/>
<path d="M48.0103 52.1801C48.1791 51.7856 48.0568 51.355 47.7372 51.2182C47.4176 51.0814 47.0217 51.2903 46.8528 51.6847C46.684 52.0792 46.8063 52.5098 47.1259 52.6466C47.4455 52.7834 47.8415 52.5745 48.0103 52.1801Z" fill="#15006D"/>
<path d="M50.1597 50.7129C50.5051 50.4585 50.6181 50.0253 50.4119 49.7454C50.2057 49.4654 49.7586 49.4447 49.4131 49.6992C49.0676 49.9536 48.9547 50.3868 49.1608 50.6667C49.367 50.9467 49.8142 50.9673 50.1597 50.7129Z" fill="#15006D"/>
<g style="mix-blend-mode:multiply">
<g style="mix-blend-mode:multiply">
<path d="M47.3722 52.3644C48.3997 48.0282 46.7501 43.9247 43.6879 43.1992C40.6256 42.4736 37.3102 45.4006 36.2828 49.7369C35.2553 54.0731 36.9049 58.1765 39.9672 58.9021C43.0294 59.6277 46.3448 56.7007 47.3722 52.3644Z" fill="#E3E4E5"/>
</g>
</g>
<path d="M46.6263 52.76C47.6537 48.4238 45.7236 44.2538 42.3152 43.4463C38.9068 42.6387 35.3109 45.4992 34.2834 49.8355C33.256 54.1717 35.1861 58.3416 38.5945 59.1492C42.0029 59.9568 45.5988 57.0963 46.6263 52.76Z" fill="#E8AC15"/>
<path d="M39.7707 59.6177C39.3492 59.618 38.9292 59.5691 38.519 59.4721C36.7724 59.0573 35.3369 57.811 34.48 55.9589C33.6231 54.1068 33.4539 51.9345 33.9669 49.7731C35.0349 45.2702 38.8137 42.2955 42.3906 43.1433C44.139 43.5563 45.5727 44.8044 46.4296 46.6565C47.2756 48.4759 47.4575 50.681 46.9426 52.8424C46.4278 55.0038 45.2797 56.8886 43.7096 58.1367C42.487 59.1064 41.1243 59.6177 39.7707 59.6177ZM41.148 43.64C38.2716 43.64 35.4734 46.229 34.5983 49.9168C34.118 51.9436 34.2853 53.9922 35.0695 55.686C35.8409 57.3526 37.1181 58.4733 38.6682 58.839C40.2183 59.2047 41.863 58.7789 43.3003 57.6364C44.7376 56.4938 45.8292 54.7254 46.3095 52.6914C46.7898 50.6573 46.6224 48.616 45.8383 46.9222C45.0669 45.2556 43.7879 44.1349 42.2396 43.7674C41.8821 43.6806 41.5158 43.6354 41.148 43.6327V43.64Z" fill="#15006D"/>
<path d="M45.2217 52.466C46.2492 48.1297 44.5996 44.0263 41.5374 43.3007C38.4751 42.5752 35.1597 45.5022 34.1323 49.8384C33.1049 54.1747 34.7544 58.2781 37.8167 59.0037C40.8789 59.7293 44.1943 56.8023 45.2217 52.466Z" fill="#FFD654"/>
<path d="M38.7537 59.4357C38.4124 59.4361 38.0723 59.3964 37.7403 59.3175C36.1538 58.9409 34.8748 57.7255 34.138 55.8934C33.4102 54.0995 33.3029 51.9218 33.8141 49.7604C34.3254 47.599 35.4079 45.7032 36.8561 44.4242C38.3352 43.1179 40.0254 42.6048 41.6119 42.9796C43.1984 43.3544 44.4774 44.5715 45.2142 46.4036C45.942 48.1975 46.0512 50.3753 45.5381 52.5385C44.5811 56.5757 41.6738 59.4357 38.7537 59.4357ZM40.5858 43.5108C39.4723 43.5108 38.328 43.9912 37.2855 44.9118C35.9373 46.1016 34.9294 47.8773 34.4473 49.9096C33.9651 51.9418 34.067 53.9776 34.742 55.6533C35.397 57.2907 36.5159 58.3605 37.8913 58.6862C38.178 58.7543 38.4717 58.7885 38.7664 58.788C41.3845 58.788 44.0207 56.1281 44.905 52.3893C45.3871 50.3571 45.2834 48.3176 44.612 46.6492C43.9571 45.0118 42.8382 43.9402 41.4627 43.6145C41.1753 43.5472 40.881 43.513 40.5858 43.5127V43.5108Z" fill="#15006D"/>
<path d="M38.6146 50.6656C38.9056 50.4574 38.9329 49.9972 38.6756 49.6376C38.4184 49.2781 37.974 49.1553 37.6831 49.3634C37.3922 49.5716 37.3648 50.0318 37.6221 50.3913C37.8793 50.7509 38.3237 50.8737 38.6146 50.6656Z" fill="#15006D"/>
<path d="M39.6584 52.6907C39.7603 52.2605 39.5608 51.8449 39.2127 51.7625C38.8646 51.68 38.4998 51.9619 38.3979 52.3921C38.296 52.8223 38.4955 53.2379 38.8436 53.3204C39.1916 53.4028 39.5564 53.1209 39.6584 52.6907Z" fill="#15006D"/>
<path d="M41.5816 50.8115C41.8875 50.4922 41.9261 50.0328 41.6678 49.7853C41.4096 49.5378 40.9522 49.596 40.6463 49.9152C40.3404 50.2344 40.3018 50.6938 40.5601 50.9413C40.8183 51.1888 41.2757 51.1307 41.5816 50.8115Z" fill="#15006D"/>
<path d="M22.7269 28.5557L15.8497 24.4912L26.8787 1.07056L34.0743 4.45821L22.7269 28.5557Z" fill="#FFFBEB"/>
<path d="M22.7269 28.8795C22.6686 28.88 22.6113 28.8643 22.5614 28.8341L15.6914 24.7714C15.6218 24.7302 15.57 24.6644 15.5464 24.5869C15.5229 24.5095 15.5292 24.426 15.5641 24.353L26.5858 0.932301C26.6036 0.893506 26.6289 0.858636 26.6603 0.829718C26.6917 0.800799 26.7285 0.77841 26.7686 0.763851C26.8088 0.749292 26.8514 0.742854 26.894 0.744912C26.9367 0.746969 26.9784 0.757481 27.017 0.775836L34.2126 4.16531C34.2511 4.18303 34.2858 4.20824 34.3145 4.23947C34.3433 4.27071 34.3655 4.30734 34.3799 4.34725C34.4092 4.42791 34.4053 4.51691 34.369 4.59468L23.0217 28.6885C23.0023 28.7292 22.9747 28.7655 22.9406 28.795C22.9064 28.8244 22.8665 28.8464 22.8233 28.8595C22.7925 28.8715 22.76 28.8783 22.7269 28.8795ZM16.27 24.3621L22.585 28.0936L33.6413 4.62379L27.0352 1.50358L16.27 24.3621Z" fill="#15006D"/>
<path d="M34.0761 4.45912C34.3544 3.86825 32.9691 2.63055 30.9819 1.69462C28.9948 0.758703 27.1583 0.478982 26.88 1.06985C26.6017 1.66072 27.987 2.89842 29.9742 3.83434C31.9613 4.77027 33.7978 5.04999 34.0761 4.45912Z" fill="#E8E3CD"/>
<path d="M33.241 5.09319C32.3186 5.09319 31.0087 4.68201 29.8352 4.12892C27.9594 3.24653 26.1437 1.86928 26.5858 0.932304C27.0279 -0.00466835 29.2457 0.517489 31.1196 1.39806C32.0123 1.80279 32.845 2.32869 33.594 2.96089C34.3217 3.60677 34.5764 4.15622 34.369 4.59832C34.2035 4.94764 33.7905 5.09319 33.241 5.09319ZM27.6683 1.09059C27.379 1.09059 27.208 1.13971 27.1734 1.21249C27.0679 1.43809 27.9649 2.53334 30.1117 3.54491C32.2586 4.55648 33.674 4.5492 33.7796 4.3236C33.8032 4.27629 33.7632 3.99065 33.161 3.45212C32.4588 2.8629 31.6789 2.37314 30.8431 1.99663C29.3913 1.30527 28.2723 1.08695 27.6683 1.08695V1.09059Z" fill="#15006D"/>
<path d="M23.3637 8.53724C23.3637 8.53724 22.6905 12.1978 28.9128 15.4199L31.0032 10.9788C24.7883 7.76583 25.5815 3.8269 25.5815 3.8269L23.3637 8.53724Z" fill="#A07555"/>
<path d="M28.9128 15.7456C28.8608 15.7456 28.8096 15.7332 28.7636 15.7092C22.3958 12.4143 23.0144 8.63731 23.0435 8.47902C23.0484 8.45132 23.0569 8.4244 23.069 8.39897L25.2868 3.68682C25.3212 3.61538 25.3804 3.55885 25.4533 3.52773C25.5262 3.49661 25.608 3.49302 25.6834 3.51762C25.759 3.54235 25.8228 3.59404 25.8627 3.66283C25.9027 3.73161 25.9159 3.81268 25.8999 3.89059C25.8708 4.0416 25.2522 7.63302 31.1542 10.6895C31.2287 10.7285 31.2853 10.7947 31.3121 10.8744C31.3389 10.9541 31.3338 11.0411 31.2979 11.1171L29.2057 15.5582C29.1883 15.5972 29.1633 15.6323 29.132 15.6614C29.1007 15.6904 29.0639 15.7129 29.0237 15.7274C28.9882 15.7405 28.9506 15.7466 28.9128 15.7456ZM23.6784 8.63003C23.6402 8.9939 23.4965 12.1268 28.7636 14.9742L30.5829 11.1207C26.6822 9.01937 25.587 6.64692 25.3068 5.17688L23.6784 8.63003Z" fill="#15006D"/>
<path d="M19.0918 17.6086C19.0918 17.6086 18.4187 21.2691 24.6409 24.4912L26.7332 20.0483C20.5109 16.8262 21.3096 12.8964 21.3096 12.8964L19.0918 17.6086Z" fill="#A07555"/>
<path d="M24.6409 24.8151C24.5889 24.8158 24.5376 24.8032 24.4917 24.7787C18.1239 21.4838 18.7425 17.7086 18.7716 17.5485C18.7773 17.5211 18.7859 17.4942 18.7971 17.4685L21.0167 12.7582C21.0497 12.685 21.1086 12.6267 21.182 12.5945C21.2555 12.5623 21.3383 12.5585 21.4144 12.5839C21.4905 12.6092 21.5545 12.662 21.594 12.7318C21.6334 12.8016 21.6456 12.8836 21.628 12.9619C21.5989 13.1111 20.9803 16.7044 26.8823 19.7609C26.9567 19.7995 27.0133 19.8654 27.0401 19.9448C27.0669 20.0242 27.0619 20.1108 27.0261 20.1866L24.9356 24.6295C24.9166 24.6689 24.8899 24.7042 24.8571 24.7332C24.8243 24.7623 24.786 24.7845 24.7446 24.7987C24.7111 24.8096 24.6761 24.8151 24.6409 24.8151ZM19.4066 17.7014C19.3684 18.0652 19.2246 21.1982 24.5008 24.0437L26.3202 20.1921C22.4194 18.0889 21.3242 15.7183 21.044 14.2464L19.4066 17.7014Z" fill="#15006D"/>
<path d="M24.5772 28.6758C24.1933 27.2767 23.0071 26.8346 21.7263 26.5671C20.1653 26.2414 19.8851 25.3572 19.0536 24.2474C17.9202 22.7392 15.9916 22.4153 14.3415 22.6955L13.5282 27.0765L21.2259 31.8196L24.5772 28.6758Z" fill="#FF8080"/>
<path d="M24.2643 28.7631C23.9423 27.5896 22.9907 27.1639 21.659 26.8855C20.2726 26.5962 19.785 25.8794 19.221 25.0498C19.0882 24.8533 18.9499 24.6532 18.7935 24.4421C17.8838 23.2359 16.2463 22.701 14.3961 23.0157L14.2869 22.3753C16.3792 22.0114 18.2567 22.6464 19.3138 24.0528C19.4794 24.2747 19.6213 24.4821 19.7577 24.6841C20.3035 25.4846 20.6674 26.014 21.7918 26.2506C23.0799 26.518 24.4571 27.0074 24.8847 28.5903L24.2643 28.7631Z" fill="#15006D"/>
<path d="M52.1606 36.0333C51.4328 35.8513 50.8998 35.4875 50.5905 34.9726C50.3119 34.4688 50.229 33.8799 50.3576 33.3188L50.9853 33.4862L50.6723 33.4025L50.9871 33.4843C50.9017 33.8792 50.9604 34.2916 51.1527 34.6469C51.371 35.0108 51.7621 35.2655 52.317 35.402L52.1606 36.0333Z" fill="#15006D"/>
<path d="M4.04752 27.9953L3.96201 26.6963L3.53991 26.0759L4.9954 24.6986C5.51472 24.8406 6.02405 25.0169 6.52003 25.2263C6.71288 25.3209 6.26168 26.8946 6.26168 26.8946L5.18644 27.5077L4.04752 27.9953Z" fill="#FFD654"/>
<path d="M4.04752 28.3246C3.98719 28.3253 3.92791 28.3089 3.8765 28.2773C3.83217 28.2499 3.79502 28.2124 3.76813 28.1678C3.74123 28.1232 3.72537 28.0728 3.72185 28.0208L3.64362 26.8109L3.27975 26.2651C3.23623 26.2014 3.2169 26.1242 3.22523 26.0475C3.23357 25.9708 3.26903 25.8995 3.32523 25.8467L4.78072 24.4694C4.8216 24.4309 4.87172 24.4037 4.92623 24.3903C4.98074 24.3769 5.03779 24.3778 5.09183 24.393C5.63084 24.5381 6.15912 24.7205 6.67286 24.9388C6.86753 25.0334 7.10951 25.1535 6.58371 26.9874C6.56021 27.0688 6.50609 27.1379 6.4327 27.1802L5.35564 27.7934L5.32289 27.8097L4.18761 28.2973C4.14372 28.3174 4.09571 28.3267 4.04752 28.3246ZM3.96383 26.1268L4.22945 26.5053C4.26174 26.5534 4.28058 26.6093 4.28403 26.6672L4.33862 27.5077L5.03543 27.2075L5.97968 26.6617C6.09442 26.2667 6.17836 25.8635 6.23075 25.4555C5.85189 25.3052 5.4657 25.174 5.07364 25.0625L3.96383 26.1268Z" fill="#15006D"/>
<path d="M6.22166 22.4845L6.75109 23.5197L7.68624 22.9702L8.55226 22.137L7.94277 20.5268L6.74381 21.0454L6.22166 22.4845Z" fill="#FFD654"/>
<path d="M6.75109 23.8435C6.72091 23.8438 6.69086 23.8395 6.66194 23.8308C6.61908 23.8188 6.57917 23.7981 6.54472 23.7699C6.51028 23.7417 6.48205 23.7067 6.46181 23.6671L5.93238 22.6318C5.91182 22.5923 5.89974 22.5489 5.89692 22.5044C5.8941 22.4599 5.9006 22.4153 5.916 22.3735L6.43816 20.9344C6.45481 20.8934 6.47949 20.8563 6.51074 20.825C6.54198 20.7938 6.57917 20.7691 6.6201 20.7524L7.81906 20.2339C7.85954 20.2163 7.9032 20.2073 7.94732 20.2073C7.99145 20.2073 8.03511 20.2163 8.07559 20.2339C8.11647 20.2507 8.15361 20.2754 8.18484 20.3066C8.21608 20.3378 8.24079 20.375 8.25753 20.4159L8.86519 22.0278C8.88746 22.0874 8.89192 22.1521 8.87803 22.2141C8.86414 22.2761 8.83249 22.3328 8.78696 22.3771L7.92094 23.2086C7.90304 23.2269 7.88286 23.2428 7.8609 23.2559L6.92575 23.8017C6.8725 23.8315 6.81206 23.8459 6.75109 23.8435ZM6.56916 22.4626L6.87845 23.0649L7.4843 22.701L8.16656 22.0442L7.75356 20.9526L6.99671 21.2819L6.56916 22.4626Z" fill="#15006D"/>
<path d="M10.0842 20.4996L11.1922 20.7324L12.2292 19.9319L12.433 18.7821L11.9308 18.4L10.5044 19.0659L10.0842 20.4996Z" fill="#FFD654"/>
<path d="M11.1922 21.0581C11.1698 21.0599 11.1472 21.0599 11.1248 21.0581L10.0187 20.8252C9.97469 20.8162 9.93306 20.7982 9.89642 20.7722C9.85978 20.7463 9.82894 20.713 9.80584 20.6745C9.78274 20.6361 9.7679 20.5932 9.76226 20.5486C9.75662 20.5041 9.76029 20.4589 9.77305 20.4159L10.1933 18.9822C10.2062 18.938 10.2282 18.897 10.258 18.8619C10.2878 18.8268 10.3247 18.7983 10.3662 18.7784L11.7925 18.1125C11.8463 18.0873 11.906 18.0774 11.965 18.0838C12.0241 18.0902 12.0802 18.1128 12.1273 18.1489L12.6295 18.531C12.6774 18.5671 12.7143 18.6158 12.7362 18.6717C12.758 18.7276 12.7639 18.7885 12.7532 18.8476L12.5494 19.9974C12.5352 20.077 12.4917 20.1484 12.4275 20.1975L11.3905 20.9962C11.3331 21.0383 11.2633 21.0601 11.1922 21.0581ZM10.4953 20.2539L11.1121 20.3831L11.9308 19.7518L12.0782 18.9203L11.8963 18.7766L10.7792 19.2988L10.4953 20.2539Z" fill="#15006D"/>
<path d="M9.46376 23.9327L11.0066 23.2741L11.9363 23.9818L11.476 25.4664L9.93679 25.6393L9.39644 25.2263L9.46376 23.9327Z" fill="#FFD654"/>
<path d="M9.9368 25.9595C9.86564 25.9595 9.79651 25.9358 9.74031 25.8921L9.1945 25.481C9.15246 25.4486 9.11891 25.4066 9.09673 25.3584C9.07455 25.3102 9.06439 25.2574 9.06714 25.2044L9.13628 23.9109C9.13905 23.8501 9.15898 23.7914 9.19376 23.7415C9.22853 23.6915 9.27673 23.6525 9.33277 23.6289L10.8756 22.9702C10.9282 22.9473 10.986 22.9389 11.043 22.9459C11.1 22.953 11.154 22.9752 11.1994 23.0103L12.1291 23.718C12.1819 23.7585 12.2211 23.8143 12.2412 23.8777C12.2614 23.9411 12.2616 24.0092 12.2419 24.0728L11.7835 25.5574C11.7655 25.6192 11.7297 25.6743 11.6805 25.7157C11.6312 25.7572 11.5709 25.7831 11.5069 25.7903L9.96773 25.9722L9.9368 25.9595ZM9.72939 25.068L10.0314 25.2972L11.2285 25.1626L11.5579 24.0964L10.9611 23.6471L9.77851 24.1528L9.72939 25.068Z" fill="#15006D"/>
<path d="M3.24882 31.0755L4.00749 29.5509C4.00749 29.5509 4.84258 29.9147 4.98449 30.0476C5.1264 30.1804 5.79774 30.6661 5.79774 30.6661L5.12276 31.9524L3.91288 32.3363L2.88494 31.5522L3.24882 31.0755Z" fill="#FFD654"/>
<path d="M3.91288 32.6602C3.84194 32.6607 3.77282 32.6377 3.71639 32.5947L2.68845 31.8105C2.65444 31.7848 2.62586 31.7526 2.60433 31.7158C2.58281 31.6789 2.56877 31.6382 2.56302 31.596C2.55727 31.5537 2.55993 31.5107 2.57084 31.4695C2.58175 31.4283 2.6007 31.3896 2.62659 31.3557L2.97227 30.9027L3.71639 29.4053C3.75402 29.3313 3.81836 29.2744 3.89638 29.246C3.9744 29.2176 4.06029 29.22 4.13666 29.2525C4.46779 29.3962 5.04635 29.6582 5.21009 29.8111C5.2956 29.8947 5.71587 30.2077 5.98696 30.4023C6.05046 30.4481 6.09534 30.5153 6.11338 30.5914C6.13142 30.6676 6.12142 30.7478 6.0852 30.8172L5.41022 32.1035C5.37213 32.178 5.30708 32.2353 5.22828 32.2636L4.01841 32.6456C3.98435 32.6566 3.94864 32.6615 3.91288 32.6602ZM3.33978 31.4903L3.97474 31.9743L4.89716 31.6832L5.37929 30.7644C5.16097 30.6025 4.86259 30.3787 4.76071 30.2823C4.56811 30.1657 4.36748 30.0629 4.16032 29.9748L3.53991 31.2211C3.53072 31.2391 3.51975 31.2562 3.50716 31.272L3.33978 31.4903Z" fill="#15006D"/>
<path d="M7.59164 29.0396L8.04284 29.811L8.92341 29.3799L9.51106 28.6084L8.91431 27.7224L8.23387 27.6351L7.61711 28.4447L7.59164 29.0396Z" fill="#FFD654"/>
<path d="M8.05012 30.144C7.99304 30.1441 7.93695 30.1292 7.88746 30.1007C7.83797 30.0723 7.79681 30.0314 7.76811 29.9821L7.31691 29.2106C7.28477 29.1556 7.26958 29.0923 7.27325 29.0287L7.2969 28.4356C7.29999 28.3695 7.3235 28.3059 7.36422 28.2537L7.98098 27.444C8.01536 27.3984 8.0613 27.3626 8.11406 27.3406C8.16681 27.3185 8.2245 27.3109 8.28117 27.3185L8.96162 27.4058C9.00756 27.4117 9.05175 27.4271 9.09126 27.4513C9.13078 27.4754 9.16472 27.5077 9.19086 27.5459L9.78579 28.4338C9.82374 28.4898 9.84311 28.5562 9.84115 28.6238C9.8392 28.6914 9.816 28.7567 9.77487 28.8104L9.18722 29.5818C9.1563 29.622 9.11643 29.6544 9.07078 29.6764L8.19203 30.1076C8.14834 30.131 8.09966 30.1435 8.05012 30.144ZM7.9264 28.9632L8.17747 29.3926L8.72328 29.1288L9.12354 28.6048L8.73965 28.0335L8.39216 27.988L7.95005 28.5684L7.9264 28.9632Z" fill="#15006D"/>
<path d="M5.79774 19.8446L6.16889 18.3545L7.38969 17.7559L8.14108 18.8275L5.79774 19.8446Z" fill="#FFD654"/>
<path d="M5.79775 20.1703C5.74917 20.1697 5.70132 20.1584 5.65766 20.1371C5.614 20.1158 5.57563 20.085 5.54532 20.0471C5.51502 20.0091 5.49354 19.9649 5.48245 19.9176C5.47135 19.8703 5.47092 19.8211 5.48118 19.7736L5.84505 18.2818C5.8561 18.2359 5.87717 18.193 5.90673 18.1562C5.9363 18.1194 5.97364 18.0896 6.01607 18.0689L7.23868 17.4703C7.30804 17.4365 7.38721 17.4285 7.46194 17.4478C7.53666 17.4672 7.60201 17.5126 7.64622 17.5758L8.41399 18.6402C8.44207 18.6794 8.46092 18.7245 8.46911 18.7721C8.4773 18.8197 8.47463 18.8685 8.46129 18.9149C8.44895 18.9613 8.42614 19.0043 8.39461 19.0406C8.36307 19.0769 8.32364 19.1054 8.27936 19.1241L5.92692 20.1375C5.8866 20.1573 5.84261 20.1684 5.79775 20.1703ZM6.44726 18.5783L6.26532 19.2842L7.64622 18.682L7.28235 18.1635L6.44726 18.5783Z" fill="#15006D"/>
<path d="M3.0032 24.1546L2.37006 22.8993L3.43621 21.1818L4.65518 21.5329L3.0032 24.1546Z" fill="#FFD654"/>
<path d="M3.0032 24.4803H2.98865C2.93086 24.477 2.875 24.4584 2.82674 24.4264C2.77848 24.3945 2.73955 24.3503 2.71392 24.2984L2.07897 23.0485C2.05391 22.9986 2.04208 22.9431 2.04463 22.8874C2.04718 22.8316 2.06402 22.7775 2.09352 22.7301L3.15967 21.0108C3.19687 20.9511 3.25251 20.9051 3.31816 20.8798C3.38381 20.8546 3.4559 20.8514 3.52354 20.8707L4.74251 21.2218C4.79017 21.2353 4.8342 21.2593 4.87135 21.292C4.90851 21.3248 4.93784 21.3655 4.9572 21.411C4.97509 21.4582 4.98177 21.5089 4.97672 21.5591C4.97167 21.6093 4.95502 21.6577 4.92809 21.7003L3.27975 24.322C3.25107 24.3699 3.21058 24.4096 3.16216 24.4373C3.11373 24.465 3.059 24.4798 3.0032 24.4803ZM2.74121 22.9157L3.03413 23.496L4.1494 21.7258L3.58176 21.5621L2.74121 22.9157Z" fill="#15006D"/>
<path d="M0.92367 30.2804L0.317822 28.9614L0.434262 28.0299L1.3494 26.8291L2.0917 28.0299L0.92367 30.2804Z" fill="#FFD654"/>
<path d="M0.92367 30.6043C0.863548 30.6038 0.804758 30.5865 0.753955 30.5544C0.703152 30.5222 0.662364 30.4765 0.636211 30.4224L0.0303627 29.1051C0.00396934 29.0484 -0.00550561 28.9852 0.00307222 28.9232L0.119511 27.9917C0.126771 27.9349 0.14872 27.8809 0.183189 27.8352L1.09287 26.6344C1.12475 26.5923 1.16645 26.5587 1.21432 26.5364C1.2622 26.5141 1.3148 26.5038 1.36754 26.5065C1.42028 26.5092 1.47157 26.5248 1.51692 26.5518C1.56228 26.5789 1.60033 26.6166 1.62776 26.6617L2.37006 27.8607C2.39949 27.9089 2.41595 27.9638 2.41787 28.0203C2.41978 28.0767 2.40707 28.1326 2.38098 28.1827L1.21477 30.4314C1.18675 30.4842 1.14478 30.5282 1.09344 30.5587C1.0421 30.5891 0.983373 30.6049 0.92367 30.6043ZM0.652585 28.9105L0.941864 29.54L1.71691 28.0444L1.31847 27.4022L0.743553 28.1572L0.652585 28.9105Z" fill="#15006D"/>
<path d="M15.0196 60.1543L8.85106 56.5929L5.28966 62.7615L11.4582 66.3229L15.0196 60.1543Z" fill="#44D8CD"/>
<path d="M11.456 66.6477C11.3991 66.6476 11.3432 66.6326 11.294 66.604L5.1264 63.0417C5.08924 63.0206 5.05662 62.9923 5.03045 62.9585C5.00427 62.9247 4.98505 62.886 4.97388 62.8448C4.96272 62.8035 4.95984 62.7604 4.96541 62.718C4.97097 62.6757 4.98488 62.6348 5.00632 62.5978L8.56863 56.4302C8.61167 56.3559 8.68229 56.3016 8.76513 56.2792C8.80645 56.2677 8.84967 56.2646 8.89219 56.2703C8.9347 56.2759 8.97565 56.2901 9.01256 56.3119L15.1802 59.8724C15.2549 59.9154 15.3095 59.9863 15.332 60.0695C15.3545 60.1528 15.3431 60.2415 15.3003 60.3163L11.738 66.484C11.7099 66.534 11.669 66.5756 11.6194 66.6044C11.5698 66.6332 11.5133 66.6482 11.456 66.6477ZM5.73225 62.6451L11.3377 65.8818L14.5744 60.2727L8.96889 57.036L5.73225 62.6451Z" fill="#15006D"/>
<path d="M15.0401 60.1599L8.87247 56.5975L12.151 56.6576L17.8765 59.9634L15.0401 60.1599Z" fill="#32A59A"/>
<path d="M15.0401 60.4855C14.9833 60.4849 14.9276 60.4698 14.8782 60.4419L8.71055 56.8886C8.64757 56.8531 8.59829 56.7976 8.57054 56.7308C8.54279 56.6641 8.53817 56.59 8.55742 56.5203C8.57668 56.4506 8.61869 56.3894 8.67677 56.3463C8.73485 56.3033 8.80566 56.2809 8.87793 56.2828L12.1528 56.341C12.2077 56.3426 12.2614 56.3576 12.3092 56.3847L18.0348 59.6905C18.0947 59.7255 18.1419 59.7788 18.1694 59.8426C18.1969 59.9064 18.2033 59.9773 18.1876 60.0449C18.172 60.1126 18.1351 60.1735 18.0824 60.2187C18.0297 60.2639 17.9639 60.2911 17.8947 60.2963L15.0601 60.4928L15.0401 60.4855ZM10.1278 56.9469L15.1202 59.8287L16.7958 59.7123L12.0655 56.9832L10.1278 56.9469Z" fill="#15006D"/>
<path d="M14.3142 66.131L11.4669 66.3184L15.0292 60.1508L17.8765 59.9634L14.3142 66.131Z" fill="#32A59A"/>
<path d="M11.4669 66.6441C11.4098 66.6442 11.3537 66.6292 11.3042 66.6007C11.2548 66.5722 11.2138 66.5311 11.1853 66.4816C11.1569 66.4321 11.142 66.3759 11.1423 66.3188C11.1425 66.2617 11.1578 66.2057 11.1867 66.1565L14.7472 59.9816C14.7739 59.9353 14.8117 59.8963 14.857 59.8681C14.9024 59.8398 14.954 59.8232 15.0074 59.8196L17.8547 59.6377C17.9132 59.6333 17.9718 59.645 18.0241 59.6716C18.0764 59.6983 18.1204 59.7388 18.1512 59.7887C18.1815 59.8393 18.1975 59.8971 18.1975 59.9561C18.1975 60.015 18.1815 60.0729 18.1512 60.1235L14.5998 66.2929C14.5731 66.3392 14.5353 66.3782 14.49 66.4064C14.4446 66.4346 14.393 66.4513 14.3397 66.4548L11.4924 66.6368L11.4669 66.6441ZM15.2239 60.4582L12.0527 65.9545L14.1195 65.8181L17.2907 60.3272L15.2239 60.4582Z" fill="#15006D"/>
<path d="M25.2082 63.5741L22.8857 56.8406L16.1521 59.1631L18.4746 65.8966L25.2082 63.5741Z" fill="#FFFBEB"/>
<path d="M18.4751 66.2238C18.4077 66.224 18.3419 66.203 18.2871 66.1638C18.2323 66.1246 18.1911 66.0693 18.1694 66.0055L15.8461 59.2738C15.8317 59.2334 15.8256 59.1905 15.8281 59.1477C15.8306 59.1049 15.8416 59.063 15.8606 59.0246C15.8977 58.9484 15.963 58.8897 16.0426 58.8608L22.7742 56.5375C22.856 56.5096 22.9455 56.5152 23.0232 56.553C23.1009 56.5909 23.1605 56.6579 23.189 56.7395L25.5105 63.4711C25.5249 63.5115 25.5311 63.5544 25.5286 63.5972C25.5261 63.64 25.515 63.6819 25.496 63.7203C25.4589 63.7968 25.3937 63.8561 25.3141 63.8859L18.5824 66.2074C18.5479 66.2192 18.5115 66.2247 18.4751 66.2238ZM16.5666 59.3666L18.677 65.4851L24.7883 63.3747L22.6851 57.2525L16.5666 59.3666Z" fill="#15006D"/>
<path d="M25.2213 63.5948L22.8998 56.8632L25.3359 59.0555L27.4918 65.305L25.2213 63.5948Z" fill="#D8D1B4"/>
<path d="M27.4918 65.6307C27.4215 65.6309 27.353 65.6079 27.2972 65.5652L25.0266 63.855C24.9752 63.8163 24.9365 63.763 24.9156 63.7022L22.5923 56.9705C22.568 56.9024 22.5671 56.828 22.59 56.7594C22.6128 56.6907 22.658 56.6317 22.7183 56.5917C22.7786 56.5517 22.8505 56.5331 22.9227 56.5387C22.9948 56.5444 23.063 56.5741 23.1163 56.623L25.5542 58.8153C25.5945 58.853 25.6251 58.8998 25.6434 58.9518L27.7993 65.2013C27.821 65.2665 27.8214 65.3368 27.8005 65.4022C27.7795 65.4677 27.7383 65.5247 27.6829 65.5652C27.6279 65.607 27.5609 65.63 27.4918 65.6307ZM25.4905 63.3965L26.8332 64.4062L25.0502 59.2411L23.6111 57.9457L25.4905 63.3965Z" fill="#15006D"/>
<path d="M20.7584 67.6283L18.486 65.9036L25.2194 63.5821L27.4918 65.305L20.7584 67.6283Z" fill="#D8D1B4"/>
<path d="M20.7584 67.954C20.6873 67.9533 20.6184 67.9297 20.5619 67.8867L18.2895 66.1674C18.2423 66.1323 18.2058 66.0848 18.184 66.0302C18.1621 65.9756 18.1558 65.916 18.1658 65.8581C18.1748 65.7998 18.1996 65.7452 18.2374 65.7C18.2753 65.6548 18.3247 65.6207 18.3805 65.6016L25.1121 63.2801C25.1624 63.2623 25.2164 63.2573 25.2691 63.2656C25.3218 63.2738 25.3716 63.2951 25.4141 63.3274L27.6865 65.0521C27.7331 65.0879 27.7692 65.1356 27.7909 65.1901C27.8125 65.2447 27.8191 65.3042 27.8098 65.3621C27.8004 65.4201 27.7756 65.4745 27.7379 65.5196C27.7002 65.5646 27.651 65.5986 27.5955 65.6179L20.8639 67.9413C20.8296 67.951 20.794 67.9553 20.7584 67.954ZM19.1664 66.0127L20.8166 67.2645L26.8205 65.1958L25.1703 63.9459L19.1664 66.0127Z" fill="#15006D"/>
<path d="M29.9374 65.7475L36.1059 62.1861L32.5445 56.0175L26.376 59.5789L29.9374 65.7475Z" fill="#44D8CD"/>
<path d="M29.9389 66.0728C29.8816 66.0729 29.8253 66.0577 29.7758 66.029C29.7262 66.0002 29.6852 65.9588 29.6569 65.909L26.0946 59.7414C26.0517 59.6666 26.0403 59.5778 26.0629 59.4946C26.0854 59.4114 26.1399 59.3405 26.2146 59.2975L32.3823 55.737C32.4192 55.7155 32.4599 55.7014 32.5022 55.6957C32.5446 55.69 32.5876 55.6928 32.6288 55.7038C32.6701 55.7147 32.7088 55.7338 32.7426 55.7598C32.7765 55.7858 32.8049 55.8182 32.8262 55.8552L36.3885 62.0229C36.4097 62.0601 36.4233 62.1011 36.4286 62.1435C36.4339 62.186 36.4308 62.229 36.4194 62.2703C36.4088 62.3115 36.3899 62.3502 36.364 62.3839C36.338 62.4177 36.3055 62.4459 36.2684 62.4668L30.1008 66.0291C30.0515 66.0575 29.9957 66.0725 29.9389 66.0728ZM26.8205 59.705L30.0644 65.3032L35.6699 62.0665L32.4296 56.4611L26.8205 59.705Z" fill="#15006D"/>
<path d="M29.9207 65.7635L36.0901 62.203L34.4 65.0121L28.6744 68.3179L29.9207 65.7635Z" fill="#32A59A"/>
<path d="M28.6744 68.6435C28.5922 68.643 28.513 68.6119 28.4525 68.5562C28.4018 68.5086 28.3676 68.4461 28.3548 68.3777C28.3421 68.3093 28.3514 68.2387 28.3815 68.176L29.6296 65.6289C29.6575 65.5707 29.7026 65.5224 29.7588 65.4906L35.9264 61.9283C35.9889 61.8923 36.0615 61.878 36.133 61.8877C36.2044 61.8974 36.2707 61.9306 36.3212 61.982C36.3718 62.0334 36.4039 62.1002 36.4124 62.1718C36.421 62.2434 36.4055 62.3158 36.3685 62.3777L34.6783 65.1868C34.6496 65.234 34.6096 65.2734 34.5619 65.3014L28.8363 68.6072C28.7865 68.6334 28.7307 68.6459 28.6744 68.6435ZM30.1699 65.9964L29.4331 67.5046L34.1634 64.7756L35.1604 63.1163L30.1699 65.9964Z" fill="#15006D"/>
<path d="M25.1139 62.1502L26.3729 59.5904L29.9352 65.758L28.6744 68.3179L25.1139 62.1502Z" fill="#32A59A"/>
<path d="M28.6744 68.6435C28.6171 68.6436 28.5608 68.6285 28.5113 68.5998C28.4618 68.571 28.4207 68.5296 28.3924 68.4798L24.8319 62.3122C24.8052 62.266 24.7903 62.214 24.7884 62.1607C24.7865 62.1074 24.7977 62.0545 24.821 62.0065L26.0818 59.4467C26.108 59.3937 26.1481 59.3489 26.1978 59.3168C26.2474 59.2848 26.3048 59.2668 26.3638 59.2647C26.4226 59.2618 26.4811 59.2754 26.5326 59.304C26.584 59.3326 26.6264 59.3751 26.6549 59.4266L30.2154 65.5961C30.2421 65.6423 30.2571 65.6943 30.259 65.7476C30.2609 65.8009 30.2497 65.8538 30.2263 65.9018L28.9728 68.4616C28.9472 68.5147 28.9075 68.5597 28.8581 68.5917C28.8087 68.6238 28.7515 68.6417 28.6926 68.6435H28.6744ZM25.4814 62.1375L28.6526 67.6229L29.5623 65.7653L26.3929 60.2745L25.4814 62.1375Z" fill="#15006D"/>
<path d="M39.552 66.3378L38.3973 59.3092L31.3687 60.464L32.5234 67.4926L39.552 66.3378Z" fill="#FFFBEB"/>
<path d="M32.5224 67.8157C32.4452 67.8158 32.3706 67.7884 32.3119 67.7384C32.2532 67.6883 32.2143 67.619 32.2022 67.5428L31.0469 60.5146C31.0332 60.4297 31.0536 60.3429 31.1037 60.273C31.1538 60.2032 31.2295 60.1559 31.3143 60.1417L38.3425 58.9864C38.4277 58.9722 38.515 58.9923 38.5853 59.0425C38.6556 59.0926 38.703 59.1687 38.7173 59.2538L39.8708 66.2838C39.8845 66.3687 39.864 66.4556 39.8139 66.5254C39.7638 66.5953 39.6881 66.6425 39.6033 66.6568L32.5751 67.8048L32.5224 67.8157ZM31.74 60.7293L32.7935 67.1171L39.1812 66.0673L38.1315 59.6814L31.74 60.7293Z" fill="#15006D"/>
<path d="M39.5597 66.3566L38.4044 59.3284L40.4366 61.901L41.51 68.4252L39.5597 66.3566Z" fill="#D8D1B4"/>
<path d="M41.51 68.7509C41.4657 68.7509 41.4219 68.7418 41.3813 68.7243C41.3406 68.7068 41.3039 68.6812 41.2735 68.649L39.3232 66.5804C39.2794 66.5326 39.2503 66.4732 39.2395 66.4094L38.0842 59.3812C38.0725 59.31 38.0848 59.2369 38.1192 59.1735C38.1536 59.11 38.208 59.0598 38.274 59.0307C38.34 59.0015 38.4138 58.9951 38.4838 59.0125C38.5538 59.0298 38.6161 59.0699 38.6609 59.1264L40.6931 61.7008C40.7265 61.744 40.749 61.7945 40.7586 61.8482L41.8302 68.3724C41.8412 68.4417 41.8295 68.5127 41.7967 68.5747C41.7638 68.6368 41.7118 68.6864 41.6483 68.7163C41.6055 68.7383 41.5582 68.7501 41.51 68.7509ZM39.8726 66.2038L41.0224 67.4264L40.1382 62.0356L38.9374 60.5164L39.8726 66.2038Z" fill="#15006D"/>
<path d="M34.48 69.5805L32.5315 67.4973L39.5597 66.342L41.51 68.4252L34.48 69.5805Z" fill="#D8D1B4"/>
<path d="M34.48 69.9043C34.4369 69.9041 34.3943 69.8953 34.3546 69.8784C34.315 69.8615 34.279 69.837 34.249 69.8061L32.2986 67.7229C32.2582 67.6799 32.2303 67.6266 32.2181 67.5689C32.2059 67.5111 32.2099 67.4511 32.2295 67.3954C32.2486 67.3398 32.2823 67.2903 32.3271 67.2522C32.3719 67.2141 32.4262 67.1888 32.4842 67.1789L39.5124 66.0255C39.5649 66.0171 39.6188 66.0217 39.6692 66.0388C39.7196 66.0559 39.765 66.0851 39.8016 66.1237L41.752 68.2069C41.7934 68.2494 41.8224 68.3026 41.8356 68.3605C41.8489 68.4184 41.8459 68.4788 41.8272 68.5352C41.8084 68.5915 41.7745 68.6416 41.7291 68.68C41.6838 68.7183 41.6288 68.7435 41.5701 68.7527L34.5401 69.908L34.48 69.9043ZM33.1846 67.7211L34.6001 69.233L40.8569 68.2051L39.4414 66.6932L33.1846 67.7211Z" fill="#15006D"/>
<path d="M39.7398 72.3241C37.331 71.9602 35.7099 74.9476 33.3484 74.2544C32.9657 74.1138 32.5703 74.0108 32.1676 73.947C31.418 73.8815 30.7558 74.3236 30.0007 74.329C28.6326 74.3381 27.681 73.5394 26.6804 72.7171C26.0091 72.1713 25.2249 71.6418 24.3643 71.6382C23.5038 71.6346 23.0071 72.184 22.3503 72.6516C21.6935 73.1192 21.2205 72.8335 20.5564 72.6698C19.9105 72.5349 19.239 72.5984 18.6297 72.8517C17.8504 73.1694 17.0443 73.4166 16.2209 73.5904C15.6078 73.1756 20.9148 77.5348 28.7417 77.5348C33.5103 77.5348 38.2024 75.9119 42.2159 72.9136L42.0922 73.0064C41.3154 72.7571 40.5512 72.4478 39.7398 72.3241Z" fill="white"/>
<path d="M48.3184 61.6699L44.9645 55.3861L38.6807 58.74L42.0346 65.0238L48.3184 61.6699Z" fill="#FFFBEB"/>
<path d="M42.0395 65.3523C41.9805 65.3519 41.9226 65.3357 41.8721 65.3052C41.8215 65.2748 41.78 65.2314 41.752 65.1795L38.3989 58.8899C38.3583 58.8139 38.3494 58.7249 38.3743 58.6424C38.3992 58.5598 38.4558 58.4905 38.5317 58.4497L44.8158 55.0966C44.8918 55.0559 44.9809 55.0471 45.0634 55.072C45.1459 55.0969 45.2152 55.1535 45.2561 55.2294L48.6092 61.5135C48.6295 61.5509 48.6422 61.592 48.6465 61.6344C48.6509 61.6768 48.6467 61.7197 48.6344 61.7604C48.622 61.8012 48.6017 61.8392 48.5746 61.872C48.5474 61.9049 48.5141 61.9321 48.4764 61.9519L42.1923 65.3068C42.146 65.3346 42.0934 65.3502 42.0395 65.3523ZM39.1285 58.8772L42.1759 64.5882L47.8869 61.5389L44.8376 55.8298L39.1285 58.8772Z" fill="#15006D"/>
<path d="M48.3381 61.6899L44.985 55.4077L47.7359 57.1888L50.8488 63.0217L48.3381 61.6899Z" fill="#D8D1B4"/>
<path d="M50.8488 63.3456C50.7962 63.3461 50.7444 63.3336 50.6978 63.3092L48.1853 61.9829C48.1283 61.9526 48.082 61.9056 48.0525 61.8482L44.6976 55.5605C44.664 55.4967 44.6523 55.4236 44.6645 55.3526C44.6767 55.2815 44.712 55.2165 44.7649 55.1675C44.8179 55.1187 44.8857 55.089 44.9576 55.083C45.0294 55.0771 45.1012 55.0953 45.1615 55.1348L47.9124 56.9159C47.9587 56.9462 47.9968 56.9874 48.0233 57.036L51.1363 62.8689C51.1689 62.9303 51.181 63.0004 51.1708 63.0692C51.1607 63.1379 51.1288 63.2016 51.0799 63.251C51.0183 63.3116 50.9353 63.3456 50.8488 63.3456ZM48.5783 61.4498L50.061 62.2358L47.4885 57.4163L45.8638 56.3628L48.5783 61.4498Z" fill="#15006D"/>
<path d="M44.5666 66.3748L42.0504 65.0303L48.3326 61.6772L50.8488 63.0217L44.5666 66.3748Z" fill="#D8D1B4"/>
<path d="M44.5666 66.7005C44.5132 66.7006 44.4607 66.6875 44.4137 66.6623L41.8903 65.3177C41.8381 65.2903 41.7944 65.2491 41.7639 65.1986C41.7334 65.1481 41.7173 65.0902 41.7173 65.0312C41.7173 64.9722 41.7334 64.9144 41.7639 64.8639C41.7944 64.8134 41.8381 64.7721 41.8903 64.7446L48.1725 61.3897C48.2199 61.3647 48.2727 61.3517 48.3263 61.3517C48.3799 61.3517 48.4326 61.3647 48.48 61.3897L50.9944 62.7343C51.0466 62.7617 51.0903 62.803 51.1207 62.8535C51.1512 62.904 51.1673 62.9618 51.1673 63.0208C51.1673 63.0798 51.1512 63.1377 51.1207 63.1882C51.0903 63.2387 51.0466 63.2799 50.9944 63.3074L44.7121 66.6623C44.6673 66.6863 44.6174 66.6994 44.5666 66.7005ZM42.7472 65.0303L44.5666 66.0073L50.1593 63.0217L48.3399 62.0447L42.7472 65.0303Z" fill="#15006D"/>
<path d="M40.8387 67.5137C39.1485 67.8776 37.6202 68.8582 36.1684 69.697C34.8039 70.4866 33.2283 71.1379 31.6836 70.8213C30.33 70.5448 29.2439 69.5805 28.1504 68.7363C27.057 67.8921 25.758 67.0989 24.388 67.2808C23.22 67.43 22.2575 68.2487 21.4224 69.082C20.8421 69.6606 20.2089 70.3028 19.392 70.3792C18.0093 70.5102 17.0996 69.0456 16.0135 68.1814C15.0879 67.4499 13.911 67.1131 12.7386 67.2445C12.0964 67.319 11.476 67.5337 10.8337 67.6083C10.5407 67.6365 10.2454 67.6329 9.95317 67.5974C10.7921 68.7194 11.718 69.7736 12.7222 70.7504C13.8045 71.8046 14.9783 72.7606 16.23 73.6068C17.0534 73.433 17.8595 73.1858 18.6388 72.8681C19.2481 72.6147 19.9196 72.5513 20.5655 72.6862C21.2296 72.8481 21.7172 73.121 22.3594 72.668C23.0016 72.215 23.5001 71.6528 24.3734 71.6546C25.2467 71.6564 26.0109 72.1804 26.6895 72.7335C27.6901 73.5558 28.6417 74.3545 30.0098 74.3454C30.7649 74.3454 31.4271 73.8979 32.1767 73.9634C32.5793 74.0272 32.9748 74.1302 33.3575 74.2708C35.7226 74.964 37.34 71.9712 39.7489 72.3405C40.5603 72.4642 41.3245 72.7735 42.1013 73.0246C43.0444 72.3286 43.9392 71.5694 44.7794 70.7522C45.7584 69.801 46.6623 68.7755 47.483 67.6847C47.1082 67.7965 46.7239 67.8732 46.335 67.914C44.4374 68.085 42.7472 67.1044 40.8387 67.5137Z" fill="#C5EFE8"/>
<path d="M34.067 74.6857C33.7917 74.6851 33.5178 74.6453 33.2538 74.5674C33.1501 74.5365 33.0463 74.5019 32.9445 74.4692C32.6837 74.3742 32.4135 74.3077 32.1385 74.2708C31.7845 74.2669 31.4329 74.3286 31.1014 74.4528C30.7463 74.5743 30.3757 74.6447 30.0007 74.662H29.9753C28.5198 74.662 27.5046 73.8233 26.5185 73.0118L26.473 72.9755C25.8708 72.4806 25.1503 71.973 24.3607 71.9712C23.7858 71.9712 23.4165 72.2586 22.9489 72.6207C22.8179 72.7226 22.6833 72.8263 22.5413 72.9263C21.8827 73.3884 21.3351 73.232 20.8039 73.081C20.702 73.0519 20.5946 73.0209 20.4836 72.9936C19.9011 72.8737 19.2959 72.9333 18.748 73.1647C17.9497 73.491 17.1233 73.7438 16.2791 73.9197C16.1966 73.9343 16.1117 73.916 16.0426 73.8688C14.7738 73.0094 13.5836 72.0396 12.4857 70.9705C11.4714 69.9806 10.5358 68.913 9.68754 67.7775C9.64887 67.727 9.62593 67.6662 9.62159 67.6028C9.61725 67.5393 9.63171 67.4759 9.66314 67.4206C9.69458 67.3653 9.74161 67.3205 9.79837 67.2918C9.85513 67.263 9.91909 67.2516 9.98228 67.259C10.251 67.292 10.5225 67.295 10.7919 67.2681C11.1099 67.2256 11.4251 67.1649 11.7361 67.0862C12.0509 67.0079 12.3698 66.9472 12.6913 66.9042C13.316 66.8321 13.9488 66.8839 14.5535 67.0565C15.1582 67.2292 15.7229 67.5193 16.2154 67.9103C16.5261 68.1669 16.8225 68.4402 17.1033 68.7291C17.831 69.4441 18.5078 70.1191 19.3611 70.039C20.0506 69.9753 20.6183 69.4077 21.1677 68.8601L21.1932 68.8346C22.0847 67.9467 23.0835 67.1026 24.348 66.9424C25.8908 66.7478 27.2953 67.6538 28.3506 68.4671L28.7563 68.7836C29.6823 69.5114 30.6393 70.2646 31.751 70.492C32.9481 70.7358 34.2981 70.392 36.0083 69.4004L36.5322 69.0948C37.8604 68.3161 39.234 67.5119 40.7714 67.1826C41.863 66.9461 42.8927 67.1426 43.8807 67.3336C44.6994 67.4901 45.4744 67.6411 46.2949 67.5592C46.6648 67.5213 47.0302 67.4488 47.3866 67.3427C47.4528 67.3218 47.5241 67.323 47.5897 67.3459C47.6553 67.3689 47.7116 67.4124 47.7504 67.4701C47.7903 67.5255 47.8117 67.592 47.8117 67.6602C47.8117 67.7284 47.7903 67.7949 47.7504 67.8503C46.9181 68.9537 46.0027 69.9919 45.0123 70.956C44.1562 71.7854 43.245 72.5562 42.2851 73.2629C42.2431 73.2927 42.1949 73.3124 42.1441 73.3206C42.0933 73.3288 42.0414 73.3252 41.9922 73.3102L41.4282 73.1283C40.8643 72.9162 40.2829 72.7543 39.6907 72.6443C38.6463 72.486 37.753 73.0355 36.807 73.6195C35.9537 74.1453 35.0749 74.6857 34.067 74.6857ZM32.0111 73.6159C32.0712 73.6159 32.133 73.6159 32.1931 73.6159C32.5178 73.6555 32.837 73.7318 33.1446 73.8433C33.241 73.876 33.3393 73.907 33.4375 73.9361C34.5291 74.2545 35.4661 73.6723 36.4649 73.0573C37.4638 72.4424 38.5081 71.7983 39.7871 71.9948C40.417 72.1108 41.0356 72.2819 41.6356 72.5061L42.0304 72.6389C42.9129 71.9797 43.7516 71.2638 44.5411 70.4957C45.2925 69.7657 45.999 68.9911 46.657 68.176L46.355 68.2142C45.4453 68.3033 44.5829 68.1378 43.7533 67.9777C42.7872 67.7957 41.8757 67.6138 40.9042 67.8248C39.4687 68.1341 38.1406 68.9165 36.8579 69.6624C36.676 69.7661 36.505 69.8698 36.3285 69.9699C35.1623 70.643 33.4048 71.4963 31.6163 71.1306C30.3537 70.8741 29.3348 70.0718 28.3506 69.2967L27.9485 68.9838C26.9951 68.256 25.7325 67.4228 24.428 67.5901C23.3564 67.7248 22.4595 68.4907 21.6517 69.2967L21.6262 69.3222C21.024 69.9226 20.3527 70.5957 19.4211 70.6885C18.264 70.7995 17.4398 69.9826 16.6448 69.193C16.3798 68.9211 16.1011 68.6631 15.8097 68.4198C14.95 67.739 13.8554 67.4269 12.7659 67.5519C12.4672 67.5926 12.1708 67.6491 11.8781 67.7211C11.5412 67.8021 11.1997 67.8629 10.8556 67.9031C10.7792 67.9103 10.7009 67.9158 10.6209 67.9194C11.3361 68.8253 12.1098 69.6834 12.9369 70.4884C13.9744 71.498 15.0969 72.4165 16.2918 73.2338C17.0461 73.0616 17.7853 72.8291 18.5024 72.5388C19.175 72.257 19.9179 72.1878 20.631 72.3405C20.7511 72.3696 20.8657 72.4024 20.9767 72.4333C21.4643 72.5716 21.7572 72.6552 22.1611 72.3714C22.2957 72.2786 22.4213 72.1804 22.545 72.084C23.0435 71.6983 23.5584 71.2998 24.3552 71.2998C25.3486 71.2998 26.1873 71.8838 26.8787 72.4515L26.9242 72.4879C27.8684 73.2647 28.7599 73.9979 29.988 73.9907C30.303 73.973 30.614 73.9118 30.9122 73.8087C31.2677 73.6908 31.6386 73.6259 32.0129 73.6159H32.0111Z" fill="#15006D"/>
<g style="mix-blend-mode:multiply">
<path d="M25.2611 70.4735C26.2072 70.0639 26.4877 68.6083 25.8877 67.2224C25.2877 65.8365 24.0343 65.045 23.0882 65.4546C22.1422 65.8642 21.8616 67.3198 22.4616 68.7057C23.0617 70.0916 24.315 70.8831 25.2611 70.4735Z" fill="#E3E4E5"/>
</g>
<g style="mix-blend-mode:multiply">
<path d="M43.644 66.0462C44.3854 65.6182 44.4782 64.3908 43.8512 63.3048C43.2242 62.2188 42.1149 61.6854 41.3735 62.1135C40.6321 62.5415 40.5393 63.7689 41.1663 64.8549C41.7933 65.9409 42.9026 66.4743 43.644 66.0462Z" fill="#E3E4E5"/>
</g>
<g style="mix-blend-mode:multiply">
<path d="M37.4503 71.4116C38.3206 70.5413 38.5447 69.3542 37.9507 68.7602C37.3567 68.1662 36.1696 68.3903 35.2993 69.2606C34.4289 70.131 34.2048 71.3181 34.7988 71.9121C35.3928 72.5061 36.5799 72.282 37.4503 71.4116Z" fill="#E3E4E5"/>
</g>
<g style="mix-blend-mode:multiply">
<path d="M19.6154 65.2155C20.3705 63.9076 20.2589 62.4295 19.3661 61.914C18.4732 61.3985 17.1373 62.0409 16.3822 63.3488C15.6271 64.6567 15.7387 66.1348 16.6316 66.6503C17.5244 67.1657 18.8603 66.5234 19.6154 65.2155Z" fill="#E3E4E5"/>
</g>
<g style="mix-blend-mode:multiply">
<path d="M31.5272 68.4889C32.4807 68.4889 33.2538 67.3558 33.2538 65.9582C33.2538 64.5605 32.4807 63.4274 31.5272 63.4274C30.5736 63.4274 29.8006 64.5605 29.8006 65.9582C29.8006 67.3558 30.5736 68.4889 31.5272 68.4889Z" fill="#E3E4E5"/>
</g>
<path d="M24.6868 70.0669C25.6329 69.6573 25.9134 68.2017 25.3134 66.8158C24.7133 65.4299 23.46 64.6384 22.5139 65.048C21.5678 65.4576 21.2873 66.9132 21.8873 68.2991C22.4874 69.685 23.7407 70.4765 24.6868 70.0669Z" fill="#C62261"/>
<path d="M24.1715 70.4956C23.1981 70.4956 22.1374 69.686 21.5935 68.427C21.2828 67.744 21.1827 66.9839 21.306 66.2438C21.4443 65.5161 21.83 64.9903 22.3976 64.7483C22.9653 64.5063 23.6075 64.59 24.2297 64.9812C24.8526 65.3983 25.3376 65.991 25.6233 66.6841C26.2947 68.2324 25.9381 69.8825 24.8283 70.3628C24.6209 70.4519 24.3972 70.4971 24.1715 70.4956ZM23.049 65.2577C22.9107 65.2569 22.7738 65.2847 22.6469 65.3396C22.283 65.4942 22.041 65.8563 21.9428 66.3621C21.8454 66.9735 21.9308 67.6001 22.1884 68.1632C22.7087 69.3604 23.7949 70.0936 24.5536 69.7606C25.3213 69.4295 25.5306 68.1359 25.0102 66.937C24.7772 66.3638 24.3788 65.8729 23.8658 65.527C23.624 65.3627 23.3411 65.2694 23.049 65.2577Z" fill="#15006D"/>
<path d="M43.0713 65.6396C43.8127 65.2115 43.9054 63.9842 43.2784 62.8982C42.6514 61.8122 41.5421 61.2788 40.8007 61.7069C40.0593 62.1349 39.9666 63.3623 40.5936 64.4483C41.2206 65.5343 42.3299 66.0676 43.0713 65.6396Z" fill="#C62261"/>
<path d="M42.4943 66.1146C41.7156 66.1146 40.8569 65.5561 40.3111 64.6118C39.9849 64.0684 39.8278 63.4401 39.8599 62.807C39.9072 62.1793 40.1819 61.6881 40.6367 61.4261C41.0916 61.1641 41.6538 61.1696 42.2214 61.4425C42.7855 61.7317 43.2509 62.1819 43.5586 62.7361C44.2864 63.9969 44.1426 65.396 43.233 65.9218C43.0079 66.0497 42.7532 66.1163 42.4943 66.1146ZM41.3736 61.8846C41.2301 61.8821 41.0886 61.9186 40.9642 61.9901C40.7004 62.1411 40.5403 62.4486 40.5094 62.8561C40.4869 63.3583 40.6135 63.8558 40.8733 64.2862C41.4009 65.1958 42.3287 65.6889 42.9073 65.3578C43.4859 65.0266 43.5222 63.9751 42.9946 63.0617C42.7539 62.6197 42.3864 62.2598 41.9394 62.0283C41.7637 61.9393 41.5705 61.8902 41.3736 61.8846Z" fill="#15006D"/>
<path d="M36.8795 71.0047C37.7499 70.1344 37.9739 68.9473 37.3799 68.3533C36.786 67.7593 35.5989 67.9834 34.7285 68.8537C33.8581 69.7241 33.6341 70.9112 34.2281 71.5052C34.822 72.0992 36.0091 71.8751 36.8795 71.0047Z" fill="#C62261"/>
<path d="M35.1022 72.1713C34.8989 72.1776 34.6964 72.143 34.5067 72.0695C34.317 71.9961 34.144 71.8853 33.9979 71.7437C33.634 71.3799 33.4939 70.834 33.6085 70.23C33.7499 69.6245 34.058 69.0706 34.4978 68.6311C34.9377 68.1916 35.4918 67.8839 36.0974 67.743C36.7069 67.6265 37.2436 67.7648 37.6093 68.1305C38.3371 68.8582 38.1224 70.23 37.109 71.2434C36.6757 71.6917 36.1192 72.0014 35.5098 72.1331C35.3753 72.158 35.2389 72.1708 35.1022 72.1713ZM36.5031 68.3506C35.9146 68.3887 35.3626 68.6488 34.9585 69.0784C34.6001 69.4225 34.3529 69.8661 34.2489 70.3519C34.2052 70.5125 34.2015 70.6813 34.2379 70.8436C34.2744 71.006 34.35 71.157 34.4582 71.2834C34.5841 71.3924 34.7351 71.4686 34.8976 71.5051C35.0602 71.5416 35.2292 71.5373 35.3897 71.4927C35.8708 71.3857 36.3094 71.1388 36.6505 70.7831C37.3783 70.0554 37.6093 69.0493 37.1508 68.5908C37.0641 68.5099 36.9622 68.4471 36.851 68.4058C36.7399 68.3646 36.6216 68.3459 36.5031 68.3506Z" fill="#15006D"/>
<path d="M19.043 64.8103C19.7981 63.5024 19.6865 62.0243 18.7936 61.5088C17.9008 60.9933 16.5649 61.6357 15.8098 62.9436C15.0547 64.2515 15.1663 65.7296 16.0591 66.2451C16.952 66.7606 18.2879 66.1182 19.043 64.8103Z" fill="#C62261"/>
<path d="M16.7467 66.7496C16.4491 66.7533 16.1559 66.6779 15.897 66.5312C14.8509 65.9272 14.6853 64.2479 15.5332 62.787C15.8949 62.1308 16.4441 61.5974 17.1105 61.2551C17.7728 60.9349 18.4296 60.9276 18.9572 61.2333C19.4848 61.5389 19.805 62.1102 19.8669 62.8434C19.89 63.591 19.704 64.3302 19.3299 64.9779C18.9557 65.6255 18.4083 66.1559 17.7491 66.5094C17.4375 66.6644 17.0947 66.7465 16.7467 66.7496ZM18.1057 61.6554C17.8573 61.6611 17.6134 61.7233 17.3925 61.8373C16.8428 62.1241 16.3901 62.5673 16.0917 63.1108C15.4386 64.2425 15.4986 65.5506 16.2227 65.9691C16.5593 66.1619 16.9996 66.151 17.4617 65.9236C18.0036 65.6278 18.4536 65.1884 18.7623 64.6538C19.071 64.1191 19.2266 63.5097 19.2119 62.8925C19.1737 62.3795 18.9681 61.9828 18.6315 61.8009C18.4723 61.7066 18.2908 61.6563 18.1057 61.6554Z" fill="#15006D"/>
<path d="M30.9559 68.0814C31.9095 68.0814 32.6825 66.9483 32.6825 65.5506C32.6825 64.1529 31.9095 63.0199 30.9559 63.0199C30.0023 63.0199 29.2293 64.1529 29.2293 65.5506C29.2293 66.9483 30.0023 68.0814 30.9559 68.0814Z" fill="#C62261"/>
<path d="M30.9559 68.407C29.8042 68.407 28.9037 67.1517 28.9037 65.5506C28.9037 63.9496 29.8042 62.696 30.9559 62.696C32.1076 62.696 33.0081 63.9496 33.0081 65.5506C33.0081 67.1517 32.1057 68.407 30.9559 68.407ZM30.9559 63.3456C30.1954 63.3456 29.5532 64.3553 29.5532 65.5506C29.5532 66.7459 30.1954 67.7575 30.9559 67.7575C31.7164 67.7575 32.3568 66.7459 32.3568 65.5506C32.3568 64.3553 31.7146 63.3456 30.9559 63.3456Z" fill="#15006D"/>
<path d="M53.154 52.3402C48.4782 53.1226 39.1903 54.4107 28.7417 54.4107C18.2931 54.4107 9.00528 53.1226 4.32952 52.3402C2.65025 52.06 1.13654 53.4155 1.31847 55.0693C2.9559 68.8619 14.5998 80.9333 28.7345 80.9333C42.8691 80.9333 54.5258 68.8619 56.1577 55.0693C56.3542 53.4155 54.8314 52.06 53.154 52.3402ZM52.197 57.8493C50.9517 62.7452 48.3822 67.2037 44.7703 70.7358C40.2547 75.1223 34.5619 77.5366 28.7417 77.5366C22.9216 77.5366 17.2288 75.1223 12.7131 70.7358C9.10128 67.2037 6.53181 62.7452 5.2865 57.8493C5.23052 57.6318 5.22912 57.404 5.28243 57.1859C5.33574 56.9678 5.4421 56.7662 5.59207 56.5992C5.74204 56.4321 5.93097 56.3047 6.14206 56.2282C6.35315 56.1517 6.57986 56.1286 6.80203 56.1609C14.0677 57.2218 21.3991 57.7689 28.7417 57.7983C36.0844 57.7688 43.4158 57.2217 50.6814 56.1609C50.9036 56.1286 51.1303 56.1517 51.3414 56.2282C51.5525 56.3047 51.7414 56.4321 51.8914 56.5992C52.0414 56.7662 52.1477 56.9678 52.201 57.1859C52.2544 57.404 52.253 57.6318 52.197 57.8493Z" fill="#E5FFFC"/>
<path d="M28.7417 81.2681C21.9482 81.2681 15.3276 78.4699 10.1206 73.4066C5.07601 68.5305 1.85725 62.0711 1.0019 55.1075C0.952132 54.6822 1.00274 54.2511 1.14966 53.8489C1.29658 53.4467 1.53572 53.0845 1.84791 52.7914C2.18226 52.4761 2.58501 52.2424 3.02466 52.1086C3.46432 51.9748 3.92896 51.9445 4.38228 52.02C8.99619 52.7914 18.2931 54.0868 28.7417 54.0868C39.1903 54.0868 48.4873 52.7914 53.0994 52.02C53.5528 51.9443 54.0177 51.9747 54.4574 52.1089C54.8971 52.243 55.2998 52.4773 55.6337 52.7932C55.9464 53.0856 56.1858 53.4474 56.3328 53.8494C56.4798 54.2515 56.5301 54.6824 56.4797 55.1075C55.6257 62.0712 52.4075 68.5308 47.3629 73.4066C42.1486 78.4699 35.5352 81.2681 28.7417 81.2681ZM3.89287 52.6295C3.29958 52.6286 2.72852 52.8552 2.29729 53.2626C2.05783 53.4857 1.87425 53.7621 1.76141 54.0693C1.64857 54.3765 1.60965 54.706 1.64778 55.0311C2.48444 61.847 5.63526 68.1691 10.5736 72.9409C15.6678 77.8859 22.1174 80.6095 28.7417 80.6095C35.366 80.6095 41.8175 77.8805 46.9099 72.9409C51.8469 68.1682 54.9975 61.8465 55.8357 55.0311C55.873 54.7061 55.8336 54.3768 55.7208 54.0698C55.608 53.7627 55.4249 53.4863 55.1862 53.2626C54.9251 53.0163 54.6105 52.8337 54.2671 52.7292C53.9237 52.6247 53.5608 52.6012 53.2067 52.6604C48.5746 53.4355 39.2358 54.7363 28.7417 54.7363C18.2476 54.7363 8.90886 53.4318 4.27494 52.6604C4.14859 52.6401 4.02084 52.6298 3.89287 52.6295ZM28.7417 77.8623C22.8361 77.8623 17.0632 75.4134 12.4857 70.9705C8.8328 67.3938 6.23343 62.8818 4.97175 57.9275C4.90376 57.6586 4.90307 57.3771 4.96973 57.1078C5.0364 56.8386 5.16837 56.5899 5.35398 56.3838C5.53959 56.1777 5.77313 56.0205 6.03394 55.9261C6.29475 55.8317 6.5748 55.803 6.84934 55.8425C14.0992 56.9022 21.4149 57.4494 28.7417 57.4799C36.0686 57.4494 43.3842 56.9022 50.6341 55.8425C50.9087 55.803 51.1887 55.8317 51.4495 55.9261C51.7103 56.0205 51.9439 56.1777 52.1295 56.3838C52.3151 56.5899 52.4471 56.8386 52.5137 57.1078C52.5804 57.3771 52.5797 57.6586 52.5117 57.9275C51.2501 62.8822 48.65 67.3944 44.9959 70.9705C40.4202 75.4134 34.6474 77.8623 28.7417 77.8623ZM6.59463 56.4756C6.4371 56.4765 6.28185 56.5133 6.14066 56.5832C5.99947 56.6531 5.87606 56.7542 5.77978 56.8789C5.6835 57.0035 5.6169 57.1485 5.58502 57.3028C5.55314 57.4571 5.55683 57.6166 5.5958 57.7692C6.82803 62.6067 9.36633 67.0124 12.9333 70.5047C17.3889 74.8312 22.9998 77.2127 28.7363 77.2127C34.4727 77.2127 40.0836 74.8312 44.5375 70.5047C48.1055 67.013 50.6445 62.6071 51.8768 57.7692C51.9172 57.6043 51.9166 57.432 51.8749 57.2674C51.8332 57.1029 51.7518 56.951 51.6377 56.8253C51.5236 56.6995 51.3804 56.6037 51.2207 56.5462C51.0609 56.4888 50.8895 56.4714 50.7215 56.4957C43.4407 57.5578 36.0941 58.105 28.7363 58.1331C21.3779 58.1049 14.0307 57.5577 6.74927 56.4957C6.69826 56.4853 6.64658 56.4787 6.59463 56.4756Z" fill="#15006D"/>
<path opacity="0.5" d="M52.197 57.8493C50.9517 62.7452 48.3822 67.2037 44.7703 70.7358C40.2547 75.1223 34.5619 77.5366 28.7417 77.5366C22.9216 77.5366 17.2288 75.1223 12.7131 70.7358C9.10128 67.2037 6.53181 62.7452 5.2865 57.8493C5.23052 57.6318 5.22912 57.404 5.28243 57.1859C5.33574 56.9678 5.4421 56.7662 5.59207 56.5992C5.74204 56.4321 5.93097 56.3047 6.14206 56.2282C6.35315 56.1517 6.57985 56.1286 6.80203 56.1609C14.0677 57.2218 21.3991 57.7689 28.7417 57.7983C36.0844 57.7688 43.4158 57.2217 50.6814 56.1609C50.9036 56.1286 51.1303 56.1517 51.3414 56.2282C51.5525 56.3047 51.7414 56.4321 51.8914 56.5992C52.0414 56.7662 52.1477 56.9678 52.2011 57.1859C52.2544 57.404 52.253 57.6318 52.197 57.8493Z" fill="white"/>
<path d="M28.7417 77.8623C22.8361 77.8623 17.0632 75.4134 12.4857 70.9705C8.8328 67.3938 6.23343 62.8818 4.97175 57.9275C4.90376 57.6586 4.90307 57.3771 4.96973 57.1078C5.0364 56.8386 5.16837 56.5899 5.35398 56.3838C5.53959 56.1777 5.77313 56.0205 6.03394 55.9261C6.29475 55.8317 6.5748 55.803 6.84934 55.8425C14.0992 56.9022 21.4149 57.4494 28.7417 57.4799C36.0686 57.4494 43.3842 56.9022 50.6341 55.8425C50.9087 55.803 51.1887 55.8317 51.4495 55.9261C51.7103 56.0205 51.9439 56.1777 52.1295 56.3838C52.3151 56.5899 52.4471 56.8386 52.5137 57.1078C52.5804 57.3771 52.5797 57.6586 52.5117 57.9275C51.2501 62.8822 48.65 67.3945 44.9959 70.9705C40.4202 75.4134 34.6474 77.8623 28.7417 77.8623ZM6.59463 56.4756C6.4371 56.4766 6.28185 56.5133 6.14066 56.5832C5.99947 56.6531 5.87606 56.7542 5.77978 56.8789C5.6835 57.0036 5.6169 57.1485 5.58502 57.3028C5.55314 57.4571 5.55683 57.6166 5.5958 57.7692C6.82803 62.6067 9.36633 67.0124 12.9333 70.5048C17.3889 74.8312 22.9998 77.2127 28.7363 77.2127C34.4727 77.2127 40.0836 74.8312 44.5374 70.5048C48.1055 67.013 50.6445 62.6071 51.8768 57.7692C51.9172 57.6043 51.9166 57.432 51.8749 57.2674C51.8332 57.1029 51.7518 56.951 51.6377 56.8253C51.5236 56.6995 51.3804 56.6037 51.2207 56.5463C51.0609 56.4888 50.8895 56.4714 50.7215 56.4957C43.4407 57.5578 36.0941 58.105 28.7363 58.1331C21.3779 58.1049 14.0307 57.5577 6.74927 56.4957C6.69826 56.4854 6.64658 56.4787 6.59463 56.4756Z" fill="#15006D"/>
</svg>
