<svg width="119" height="32" viewBox="0 0 119 32" fill="none" xmlns="http://www.w3.org/2000/svg">
<path d="M44.1292 21.1564C46.267 16.1613 44.8172 10.7499 40.891 9.06952C36.9648 7.38919 32.049 10.0763 29.9112 15.0714C27.7734 20.0664 29.2232 25.4779 33.1494 27.1582C37.0756 28.8386 41.9914 26.1514 44.1292 21.1564Z" fill="#E8AC15"/>
<path d="M35.6064 28.07C34.7068 28.0726 33.8162 27.8914 32.9892 27.5374C30.9731 26.6757 29.508 24.8745 28.8634 22.4676C28.228 20.0973 28.468 17.4138 29.5491 14.9246C31.7732 9.72913 36.9389 6.94051 41.0647 8.7074C45.1905 10.4743 46.7402 16.1361 44.5185 21.3316C42.7356 25.4574 39.099 28.07 35.6064 28.07ZM38.4247 8.98169C35.2566 8.98169 31.9263 11.4092 30.2874 15.2355C29.2908 17.567 29.0645 20.0607 29.652 22.2573C30.2303 24.4151 31.5309 26.0242 33.3092 26.7877C37.0212 28.3877 41.707 25.7819 43.7528 21.0002C45.7985 16.2184 44.4385 11.0389 40.731 9.45027C40.0021 9.13876 39.2173 8.97931 38.4247 8.98169Z" fill="#15006D"/>
<path d="M42.5034 20.5124C44.6411 15.5173 43.5141 10.244 39.986 8.73403C36.4579 7.22407 31.8647 10.0493 29.7269 15.0443C27.5892 20.0394 28.7162 25.3128 32.2443 26.8227C35.7725 28.3327 40.3656 25.5075 42.5034 20.5124Z" fill="#FFD654"/>
<path d="M34.2692 27.6425C33.5184 27.6451 32.775 27.495 32.084 27.2014C28.356 25.6014 27.1308 20.079 29.3548 14.8858C31.5789 9.69255 36.4201 6.76451 40.1481 8.35996C43.8762 9.95542 45.1036 15.4824 42.891 20.6756C41.8236 23.1693 40.1298 25.2219 38.1207 26.4585C36.9719 27.2036 35.6381 27.6136 34.2692 27.6425ZM37.9675 8.73711C35.0258 8.73711 31.7846 11.2811 30.1045 15.2081C28.0474 19.9876 29.092 25.0368 32.4063 26.4494C33.988 27.1351 35.8601 26.8814 37.6818 25.7637C39.5493 24.6208 41.1287 22.6962 42.1299 20.3556C44.1756 15.5761 43.1425 10.5268 39.8281 9.11426C39.24 8.86346 38.6069 8.73513 37.9675 8.73711Z" fill="#15006D"/>
<path d="M35.389 17.0162C35.7824 16.8265 35.9116 16.2791 35.6775 15.7936C35.4434 15.308 34.9347 15.0682 34.5412 15.2579C34.1478 15.4476 34.0186 15.995 34.2527 16.4805C34.4868 16.9661 34.9955 17.2059 35.389 17.0162Z" fill="#15006D"/>
<path d="M35.7728 19.6218C35.9849 19.1262 35.8313 18.5852 35.4297 18.4133C35.0282 18.2415 34.5307 18.5039 34.3186 18.9995C34.1065 19.495 34.2601 20.0361 34.6617 20.2079C35.0632 20.3798 35.5607 20.1174 35.7728 19.6218Z" fill="#15006D"/>
<path d="M38.4732 17.7785C38.9072 17.4589 39.0491 16.9146 38.7901 16.5629C38.531 16.2112 37.9692 16.1853 37.5352 16.5049C37.1012 16.8246 36.9593 17.3688 37.2183 17.7205C37.4773 18.0722 38.0391 18.0982 38.4732 17.7785Z" fill="#15006D"/>
<g style="mix-blend-mode:multiply">
<g style="mix-blend-mode:multiply">
<path d="M34.9712 19.8534C36.262 14.4056 34.1896 9.25023 30.3423 8.33865C26.4951 7.42707 22.3298 11.1044 21.039 16.5523C19.7482 22.0001 21.8206 27.1554 25.6679 28.067C29.5151 28.9786 33.6804 25.3012 34.9712 19.8534Z" fill="#E3E4E5"/>
</g>
</g>
<path d="M34.034 20.3504C35.3248 14.9026 32.8999 9.6637 28.6178 8.64909C24.3357 7.63447 19.8179 11.2283 18.5271 16.6761C17.2363 22.124 19.6612 27.3628 23.9433 28.3774C28.2254 29.3921 32.7432 25.7982 34.034 20.3504Z" fill="#E8AC15"/>
<path d="M25.4211 28.966C24.8915 28.9664 24.3638 28.905 23.8485 28.7831C21.6541 28.262 19.8507 26.6962 18.7741 24.3693C17.6975 22.0425 17.4849 19.3133 18.1295 16.5978C19.4713 10.9406 24.2188 7.20337 28.7125 8.26853C30.9091 8.78739 32.7103 10.3554 33.7869 12.6823C34.8498 14.9681 35.0783 17.7384 34.4315 20.4539C33.7846 23.1693 32.3423 25.5374 30.3697 27.1054C28.8337 28.3237 27.1217 28.966 25.4211 28.966ZM27.1514 8.89253C23.5376 8.89253 20.0221 12.1452 18.9227 16.7784C18.3192 19.3247 18.5295 21.8984 19.5147 24.0265C20.4838 26.1202 22.0884 27.5282 24.0359 27.9877C25.9833 28.4471 28.0497 27.9122 29.8554 26.4768C31.6612 25.0413 33.0326 22.8196 33.636 20.2641C34.2395 17.7087 34.0292 15.1441 33.044 13.016C32.0749 10.9223 30.468 9.51426 28.5228 9.05254C28.0737 8.94349 27.6135 8.88673 27.1514 8.88339V8.89253Z" fill="#15006D"/>
<path d="M32.2694 19.981C33.5603 14.5332 31.4878 9.37785 27.6406 8.46627C23.7933 7.55469 19.6281 11.232 18.3372 16.6799C17.0464 22.1277 19.1188 27.2831 22.9661 28.1946C26.8134 29.1062 30.9786 25.4289 32.2694 19.981Z" fill="#FFD654"/>
<path d="M24.1433 28.7374C23.7146 28.7378 23.2873 28.688 22.8702 28.5889C20.877 28.1157 19.2701 26.5888 18.3444 24.2871C17.4301 22.0333 17.2952 19.2973 17.9375 16.5818C18.5798 13.8663 19.9398 11.4846 21.7593 9.87771C23.6176 8.23654 25.7411 7.59196 27.7342 8.06282C29.7274 8.53369 31.3343 10.0629 32.26 12.3646C33.1743 14.6184 33.3115 17.3544 32.6669 20.0721C31.4646 25.1442 27.8119 28.7374 24.1433 28.7374ZM26.4451 8.73026C25.0462 8.73026 23.6085 9.3337 22.2987 10.4903C20.605 11.9852 19.3387 14.2161 18.733 16.7692C18.1272 19.3224 18.2552 21.8802 19.1032 23.9853C19.9261 26.0425 21.3319 27.3865 23.0599 27.7957C23.4201 27.8813 23.7891 27.9243 24.1593 27.9237C27.4485 27.9237 30.7606 24.5819 31.8714 19.8847C32.4772 17.3315 32.3469 14.7692 31.5034 12.6732C30.6806 10.616 29.2748 9.2697 27.5468 8.86055C27.1857 8.77591 26.816 8.73297 26.4451 8.73255V8.73026Z" fill="#15006D"/>
<path d="M23.9686 17.7191C24.3341 17.4576 24.3684 16.8794 24.0452 16.4276C23.7221 15.9759 23.1638 15.8216 22.7983 16.0831C22.4327 16.3446 22.3984 16.9228 22.7216 17.3745C23.0448 17.8263 23.6031 17.9805 23.9686 17.7191Z" fill="#15006D"/>
<path d="M25.2799 20.2634C25.408 19.7229 25.1573 19.2007 24.72 19.0971C24.2827 18.9935 23.8244 19.3476 23.6963 19.8881C23.5682 20.4286 23.8189 20.9508 24.2562 21.0544C24.6935 21.158 25.1518 20.8038 25.2799 20.2634Z" fill="#15006D"/>
<path d="M27.6961 17.9023C28.0804 17.5013 28.1289 16.9241 27.8045 16.6132C27.48 16.3022 26.9054 16.3753 26.5211 16.7763C26.1368 17.1773 26.0883 17.7545 26.4128 18.0655C26.7372 18.3764 27.3118 18.3034 27.6961 17.9023Z" fill="#15006D"/>
<path d="M22.4563 5.3233L21.9181 18.3818L5.26097 22.6815L5.46232 10.5071C5.46232 10.5071 21.045 5.85596 22.4563 5.3233Z" fill="#FFFBEB"/>
<path d="M5.45317 10.4998L0.435895 6.37031C0.166818 6.14883 13.1447 2.24447 16.8661 1.33473C16.8661 1.33473 20.0309 3.36105 22.4563 5.32329L5.45317 10.4998Z" fill="#B28769"/>
<path d="M5.45317 10.8275C5.37716 10.8266 5.30366 10.8001 5.24449 10.7524L0.227218 6.62291C0.17992 6.58205 0.144444 6.52925 0.124484 6.47001C0.104524 6.41078 0.100811 6.34727 0.11373 6.28611C0.166814 6.04998 0.207083 5.87792 7.20308 3.75459C11.1257 2.56297 15.074 1.43724 16.7873 1.00891C16.8304 0.998768 16.8751 0.997268 16.9188 1.00449C16.9624 1.01172 17.0043 1.02753 17.0418 1.05101C17.0729 1.07115 20.2506 3.11027 22.6613 5.06154C22.7074 5.0987 22.7426 5.14776 22.7629 5.20343C22.7833 5.25909 22.7881 5.31925 22.7768 5.37744C22.7655 5.43562 22.7385 5.48962 22.6988 5.53362C22.6591 5.57762 22.6082 5.60996 22.5514 5.62715L5.54835 10.8055C5.51783 10.8173 5.48578 10.8247 5.45317 10.8275ZM1.0253 6.43438L5.52638 10.1447L21.7662 5.20248C19.7325 3.61182 17.3566 2.0541 16.8075 1.69716C13.0953 2.60873 3.15411 5.61067 1.0253 6.43072V6.43438Z" fill="#15006D"/>
<path d="M0.43589 6.37032C0.43589 6.37032 0.179626 16.1962 0.43589 19.0517C0.43589 19.0517 2.56105 21.3581 5.25182 22.6742L5.45317 10.4998L0.43589 6.37032Z" fill="#E5DFCA"/>
<path d="M22.3739 7.29835C22.3739 8.45703 21.9236 9.03362 21.6582 9.23863C21.3782 9.44263 21.1829 9.74222 21.109 10.0806C20.937 10.6572 20.8162 11.2503 20.624 11.8232C20.4702 12.2808 20.1151 12.8519 19.5495 12.6781C19.3246 12.5982 19.1318 12.4472 19.0004 12.2479C18.5025 11.5413 18.3542 10.6261 17.7557 9.97631C17.4847 9.6816 17.2413 8.55587 16.8624 8.68034C16.6043 8.76271 16.5091 9.2789 16.4487 9.4949C16.3297 9.92139 16.2236 10.3589 16.1284 10.7909C16.0771 11.0178 16.0552 11.2485 16.0076 11.4754C15.9705 11.7113 15.8811 11.9358 15.7458 12.1326C15.5866 12.3339 15.3523 12.4987 15.1747 12.6817C14.91 12.9465 14.6839 13.2472 14.5029 13.575C14.3849 13.8658 14.2415 14.1457 14.0746 14.4115C13.8257 14.7373 13.4193 14.8911 13.077 14.5945C12.6359 14.2193 12.4858 13.6134 12.2844 13.0954C12.0117 12.3925 11.1715 10.2948 10.3881 11.016C10.2766 11.1433 10.198 11.2961 10.1593 11.4608C9.99269 11.9587 9.94327 12.4987 9.7108 12.9746C9.40512 13.6006 8.94018 13.5768 8.36176 13.7983C7.55819 14.1058 7.45935 15.0796 7.18661 15.7697C7.08107 16.0917 6.87352 16.3706 6.59537 16.5641C5.53005 17.2103 5.13101 15.4951 4.99555 14.7849C4.95617 14.5296 4.93051 14.2724 4.91868 14.0143C4.91419 13.8238 4.86861 13.6364 4.78505 13.4652C4.5599 13.0606 4.12059 13.2144 3.7783 13.013C3.53444 12.8318 3.34203 12.5902 3.22001 12.312C3.01317 11.9129 2.92714 11.4681 2.64159 11.1148C2.2334 10.6078 1.31268 10.4028 0.7489 10.7726C0.543889 10.9062 0.353521 11.0709 0.359012 10.7067C0.379147 9.34846 0.406605 7.99209 0.42857 6.6339V6.35933L5.44584 10.4888L22.4489 5.31231L22.3739 7.29835Z" fill="#A07555"/>
<path d="M5.45317 10.8275C5.37716 10.8266 5.30366 10.8001 5.24449 10.7524L0.227218 6.62291C0.17992 6.58205 0.144444 6.52925 0.124484 6.47001C0.104524 6.41078 0.100811 6.34727 0.11373 6.28611C0.166814 6.04998 0.207083 5.87792 7.20308 3.75459C11.1257 2.56297 15.074 1.43724 16.7873 1.00891C16.8304 0.998768 16.8751 0.997268 16.9188 1.00449C16.9624 1.01172 17.0043 1.02753 17.0418 1.05101C17.0729 1.07115 20.2506 3.11027 22.6613 5.06154C22.7074 5.0987 22.7426 5.14776 22.7629 5.20343C22.7833 5.25909 22.7881 5.31925 22.7768 5.37744C22.7655 5.43562 22.7385 5.48962 22.6988 5.53362C22.6591 5.57762 22.6082 5.60996 22.5514 5.62715L5.54835 10.8055C5.51783 10.8173 5.48578 10.8247 5.45317 10.8275ZM1.0253 6.43438L5.52638 10.1447L21.7662 5.20248C19.7325 3.61182 17.3566 2.0541 16.8075 1.69716C13.0953 2.60873 3.15411 5.61067 1.0253 6.43072V6.43438Z" fill="#15006D"/>
<path d="M5.25181 23C5.20841 23.0002 5.16539 22.9918 5.12528 22.9752C5.08518 22.9586 5.04879 22.9342 5.01827 22.9033C4.98775 22.8724 4.9637 22.8358 4.94754 22.7955C4.93138 22.7552 4.92343 22.7121 4.92416 22.6687L5.12551 10.4943C5.12691 10.4249 5.15036 10.3576 5.19248 10.3023C5.23459 10.2471 5.29319 10.2066 5.35981 10.1868C5.50991 10.1447 20.9571 5.53929 22.3501 5.01944C22.4006 5.00065 22.4549 4.99466 22.5082 5.00201C22.5616 5.00936 22.6123 5.02981 22.6558 5.06154C22.6999 5.09282 22.7354 5.1347 22.7591 5.18333C22.7828 5.23195 22.7938 5.28575 22.7912 5.33977L22.2458 18.3818C22.2425 18.4517 22.2169 18.5188 22.1728 18.5731C22.1287 18.6275 22.0683 18.6663 22.0005 18.6838L5.34334 22.9835C5.31353 22.9924 5.28284 22.9979 5.25181 23ZM5.77532 10.7359L5.59228 22.2404L21.6088 18.1109L22.1176 5.77725C19.3793 6.68698 7.64239 10.1886 5.77532 10.7451V10.7359Z" fill="#15006D"/>
<path d="M5.25182 23C5.20232 23.0002 5.15345 22.9889 5.10904 22.967C2.39814 21.64 0.283964 19.3702 0.201593 19.275C0.152415 19.2215 0.122186 19.1534 0.115562 19.081C-0.138871 16.2383 0.104579 6.76386 0.115562 6.36116C0.116856 6.30086 0.134588 6.24205 0.166845 6.19109C0.199102 6.14012 0.244661 6.09893 0.298607 6.07195C0.354171 6.04652 0.415793 6.03732 0.47636 6.04542C0.536927 6.05352 0.593968 6.07858 0.640901 6.11771L5.66001 10.2472C5.69805 10.2785 5.72852 10.3179 5.74912 10.3626C5.76973 10.4073 5.77994 10.4561 5.77899 10.5053L5.57764 22.6797C5.57642 22.7347 5.56136 22.7885 5.53384 22.8362C5.50633 22.8839 5.46725 22.9238 5.42022 22.9524C5.36971 22.9839 5.31132 23.0004 5.25182 23ZM0.75073 18.9108C1.11682 19.2952 2.81914 20.9938 4.93149 22.1415L5.11453 10.6517L0.75073 7.04941C0.695816 9.27707 0.553041 16.425 0.75073 18.9108Z" fill="#15006D"/>
<path d="M53.8946 9.06791L42.9188 2.731L36.5819 13.7069L47.5577 20.0438L53.8946 9.06791Z" fill="#44D8CD"/>
<path d="M47.5538 20.6218C47.4526 20.6216 47.3532 20.5948 47.2656 20.5441L36.2914 14.2055C36.2252 14.1679 36.1672 14.1176 36.1206 14.0574C36.0741 13.9973 36.0399 13.9285 36.02 13.8551C36.0001 13.7817 35.995 13.705 36.0049 13.6296C36.0148 13.5542 36.0396 13.4814 36.0777 13.4156L42.4162 2.44136C42.4928 2.30922 42.6185 2.21265 42.7659 2.17266C42.8394 2.15222 42.9163 2.14684 42.9919 2.15685C43.0676 2.16686 43.1405 2.19206 43.2061 2.23093L54.1804 8.56623C54.3133 8.6428 54.4104 8.76895 54.4505 8.91701C54.4905 9.06508 54.4702 9.22299 54.3941 9.35612L48.0555 20.3304C48.0057 20.4195 47.9328 20.4935 47.8445 20.5447C47.7562 20.596 47.6558 20.6226 47.5538 20.6218ZM37.3694 13.4998L47.3433 19.2589L53.1024 9.27843L43.1284 3.51936L37.3694 13.4998Z" fill="#15006D"/>
<path d="M53.9311 9.07772L42.9569 2.73917L48.7904 2.84601L58.978 8.72809L53.9311 9.07772Z" fill="#32A59A"/>
<path d="M53.9311 9.65717C53.8301 9.656 53.731 9.62927 53.643 9.57948L42.6687 3.25713C42.5567 3.19397 42.469 3.09513 42.4196 2.97635C42.3703 2.85758 42.362 2.7257 42.3963 2.60172C42.4305 2.47774 42.5053 2.36877 42.6086 2.29219C42.712 2.21561 42.838 2.17582 42.9666 2.17913L48.7936 2.28272C48.8914 2.2855 48.987 2.31218 49.072 2.36042L59.2597 8.24249C59.3663 8.30489 59.4502 8.39975 59.4991 8.51322C59.5481 8.62668 59.5594 8.75281 59.5316 8.8732C59.5038 8.99359 59.4382 9.10193 59.3444 9.1824C59.2506 9.26287 59.1336 9.31126 59.0104 9.3205L53.9667 9.67012L53.9311 9.65717ZM45.1906 3.36073L54.0736 8.48853L57.0551 8.28134L48.6382 3.42546L45.1906 3.36073Z" fill="#15006D"/>
<path d="M52.6395 19.7024L47.5732 20.0358L53.9117 9.06152L58.978 8.72809L52.6395 19.7024Z" fill="#32A59A"/>
<path d="M47.5732 20.6153C47.4716 20.6155 47.3717 20.5889 47.2838 20.5381C47.1958 20.4873 47.1228 20.4142 47.0722 20.3261C47.0215 20.238 46.9951 20.1382 46.9955 20.0366C46.996 19.935 47.0233 19.8353 47.0746 19.7477L53.4099 8.76045C53.4575 8.67813 53.5247 8.60879 53.6054 8.55854C53.6861 8.50829 53.778 8.47869 53.8729 8.47233L58.9391 8.14861C59.0433 8.14074 59.1476 8.16164 59.2406 8.20903C59.3337 8.25642 59.4119 8.32846 59.4668 8.41731C59.5207 8.50729 59.5492 8.61022 59.5492 8.71513C59.5492 8.82003 59.5207 8.92297 59.4668 9.01296L53.1477 19.9905C53.1001 20.0728 53.033 20.1421 52.9523 20.1924C52.8715 20.2426 52.7797 20.2722 52.6848 20.2786L47.6185 20.6023L47.5732 20.6153ZM54.2581 9.60861L48.6156 19.3883L52.2931 19.1455L57.9356 9.37553L54.2581 9.60861Z" fill="#15006D"/>
<path d="M72.0235 15.1529L67.891 3.17169L55.9098 7.30416L60.0423 19.2853L72.0235 15.1529Z" fill="#FFFBEB"/>
<path d="M60.0431 19.8675C59.9232 19.8678 59.8062 19.8304 59.7086 19.7607C59.6111 19.691 59.5378 19.5925 59.4992 19.479L55.3652 7.50116C55.3396 7.42927 55.3287 7.35297 55.3332 7.27678C55.3376 7.2006 55.3573 7.12608 55.3911 7.05766C55.4571 6.92214 55.5732 6.81764 55.7149 6.76631L67.6927 2.63234C67.8382 2.58273 67.9975 2.59266 68.1358 2.65997C68.274 2.72728 68.3801 2.84651 68.4308 2.99167L72.5615 14.9695C72.5871 15.0414 72.598 15.1177 72.5936 15.1939C72.5891 15.2701 72.5694 15.3446 72.5356 15.413C72.4695 15.5491 72.3536 15.6546 72.2119 15.7076L60.2341 19.8383C60.1726 19.8592 60.108 19.8691 60.0431 19.8675ZM56.6472 7.66626L60.4024 18.5531L71.2763 14.7979L67.5341 3.90458L56.6472 7.66626Z" fill="#15006D"/>
<path d="M72.0468 15.1896L67.9161 3.2118L72.2507 7.11269L76.0869 18.2326L72.0468 15.1896Z" fill="#D8D1B4"/>
<path d="M76.0869 18.8121C75.9617 18.8126 75.8399 18.7716 75.7405 18.6956L71.7004 15.6526C71.6089 15.5837 71.5401 15.489 71.5029 15.3806L67.369 3.40281C67.3257 3.28156 67.3242 3.14931 67.3648 3.02714C67.4055 2.90497 67.4858 2.79992 67.5931 2.72876C67.7004 2.65761 67.8285 2.62444 67.9568 2.63454C68.0852 2.64464 68.2064 2.69743 68.3013 2.78449L72.6392 6.68538C72.7109 6.75234 72.7653 6.83564 72.7978 6.92817L76.634 18.0481C76.6725 18.1641 76.6733 18.2893 76.636 18.4057C76.5988 18.522 76.5255 18.6236 76.4268 18.6956C76.329 18.7701 76.2098 18.8109 76.0869 18.8121ZM72.5259 14.8368L74.915 16.6334L71.7425 7.44289L69.1818 5.13797L72.5259 14.8368Z" fill="#15006D"/>
<path d="M64.1058 22.3666L60.0625 19.2977L72.0435 15.167L76.0869 18.2327L64.1058 22.3666Z" fill="#D8D1B4"/>
<path d="M64.1058 22.9461C63.9794 22.9449 63.8568 22.9029 63.7562 22.8263L59.7129 19.7671C59.6289 19.7047 59.5639 19.6202 59.5251 19.523C59.4862 19.4259 59.475 19.3199 59.4927 19.2168C59.5088 19.1131 59.5529 19.0159 59.6202 18.9354C59.6875 18.855 59.7755 18.7944 59.8747 18.7603L71.8526 14.6296C71.9421 14.598 72.0381 14.5892 72.1319 14.6039C72.2257 14.6185 72.3144 14.6563 72.3899 14.7138L76.4333 17.7827C76.5162 17.8463 76.5803 17.9312 76.6189 18.0283C76.6575 18.1254 76.6692 18.2312 76.6526 18.3343C76.636 18.4375 76.5918 18.5343 76.5247 18.6144C76.4576 18.6945 76.3701 18.755 76.2714 18.7895L64.2936 22.9234C64.2326 22.9408 64.1692 22.9485 64.1058 22.9461ZM61.2732 19.4919L64.2094 21.7192L74.8923 18.0384L71.9561 15.8144L61.2732 19.4919Z" fill="#15006D"/>
<path d="M80.4383 19.0199L91.4142 12.683L85.0773 1.70715L74.1014 8.04407L80.4383 19.0199Z" fill="#44D8CD"/>
<path d="M80.441 19.5988C80.339 19.5989 80.2389 19.572 80.1507 19.5209C80.0626 19.4697 79.9896 19.396 79.9392 19.3074L73.6007 8.33314C73.5245 8.20001 73.5042 8.04211 73.5442 7.89405C73.5843 7.74598 73.6814 7.61983 73.8143 7.54325L84.7886 1.20796C84.8542 1.16968 84.9268 1.14474 85.0021 1.1346C85.0773 1.12446 85.1539 1.1293 85.2273 1.14886C85.3007 1.16841 85.3695 1.20229 85.4298 1.24855C85.4901 1.2948 85.5406 1.35253 85.5785 1.41838L91.917 12.3927C91.9547 12.4588 91.9789 12.5318 91.9883 12.6073C91.9978 12.6829 91.9923 12.7595 91.9721 12.8329C91.9531 12.9063 91.9195 12.975 91.8733 13.0351C91.8272 13.0952 91.7694 13.1453 91.7034 13.1825L80.7291 19.5211C80.6414 19.5715 80.5421 19.5983 80.441 19.5988ZM74.8923 8.2684L80.6643 18.2294L90.6383 12.4703L84.8728 2.49638L74.8923 8.2684Z" fill="#15006D"/>
<path d="M80.4086 19.0484L91.3861 12.7131L88.3787 17.7115L78.1911 23.5935L80.4086 19.0484Z" fill="#32A59A"/>
<path d="M78.1911 24.173C78.0447 24.1721 77.9039 24.1167 77.7962 24.0176C77.706 23.9329 77.6452 23.8216 77.6225 23.7C77.5998 23.5783 77.6164 23.4526 77.6699 23.341L79.8907 18.8089C79.9404 18.7054 80.0206 18.6195 80.1205 18.5628L91.0948 12.2243C91.2059 12.1602 91.3352 12.1348 91.4624 12.1521C91.5895 12.1694 91.7073 12.2285 91.7973 12.3199C91.8873 12.4114 91.9444 12.5301 91.9596 12.6576C91.9748 12.785 91.9473 12.9138 91.8814 13.0239L88.874 18.0222C88.8229 18.1063 88.7517 18.1763 88.6668 18.2262L78.4792 24.1083C78.3906 24.1549 78.2912 24.1773 78.1911 24.173ZM80.8521 19.4628L79.541 22.1465L87.9579 17.2906L89.7319 14.3382L80.8521 19.4628Z" fill="#15006D"/>
<path d="M71.8558 12.6193L74.096 8.06445L80.4345 19.0387L78.1911 23.5935L71.8558 12.6193Z" fill="#32A59A"/>
<path d="M78.1911 24.173C78.0892 24.1732 77.989 24.1463 77.9009 24.0951C77.8127 24.0439 77.7397 23.9703 77.6893 23.8817L71.354 12.9074C71.3065 12.8252 71.2799 12.7327 71.2765 12.6379C71.2731 12.543 71.2931 12.4488 71.3346 12.3635L73.578 7.80871C73.6247 7.7145 73.6959 7.63468 73.7843 7.57769C73.8726 7.5207 73.9747 7.48866 74.0798 7.48498C74.1844 7.47975 74.2884 7.50398 74.38 7.55491C74.4716 7.60584 74.547 7.68144 74.5977 7.7731L80.933 18.7506C80.9806 18.8327 81.0072 18.9253 81.0106 19.0201C81.014 19.1149 80.994 19.2092 80.9525 19.2945L78.722 23.8493C78.6765 23.9437 78.6059 24.0238 78.518 24.0808C78.4301 24.1379 78.3282 24.1698 78.2235 24.173H78.1911ZM72.5097 12.5966L78.1522 22.3569L79.7709 19.0517L74.1316 9.28165L72.5097 12.5966Z" fill="#15006D"/>
<path d="M97.546 20.0704L95.4913 7.56422L82.9851 9.61891L85.0398 22.1251L97.546 20.0704Z" fill="#FFFBEB"/>
<path d="M85.0379 22.7001C84.9006 22.7002 84.7679 22.6514 84.6634 22.5624C84.559 22.4734 84.4897 22.35 84.4681 22.2145L82.4125 9.70897C82.3881 9.55794 82.4245 9.40341 82.5136 9.27908C82.6028 9.15476 82.7375 9.07074 82.8883 9.04534L95.3938 6.98968C95.5454 6.9644 95.7007 7.00033 95.8258 7.08956C95.9508 7.1788 96.0353 7.31404 96.0607 7.46556L98.1131 19.9743C98.1375 20.1253 98.1011 20.2799 98.012 20.4042C97.9228 20.5285 97.7881 20.6125 97.6373 20.6379L85.1318 22.6806L85.0379 22.7001ZM83.6459 10.091L85.5202 21.457L96.8862 19.5891L95.0183 8.22632L83.6459 10.091Z" fill="#15006D"/>
<path d="M97.5596 20.1038L95.5039 7.59829L99.1199 12.1758L101.03 23.7845L97.5596 20.1038Z" fill="#D8D1B4"/>
<path d="M101.03 24.364C100.951 24.364 100.873 24.3479 100.801 24.3167C100.728 24.2855 100.663 24.24 100.609 24.1827L97.1387 20.502C97.0608 20.417 97.0091 20.3113 96.9898 20.1977L94.9342 7.69216C94.9134 7.56549 94.9354 7.43551 94.9965 7.32264C95.0576 7.20977 95.1545 7.12039 95.2719 7.06853C95.3893 7.01668 95.5207 7.00528 95.6453 7.03612C95.7699 7.06696 95.8807 7.1383 95.9604 7.23894L99.5764 11.8197C99.6358 11.8964 99.6758 11.9864 99.6929 12.0819L101.6 23.6906C101.619 23.8139 101.598 23.9402 101.54 24.0506C101.482 24.1609 101.389 24.2493 101.276 24.3025C101.2 24.3415 101.116 24.3626 101.03 24.364ZM98.1164 19.8319L100.162 22.0073L98.589 12.4153L96.4524 9.71221L98.1164 19.8319Z" fill="#15006D"/>
<path d="M88.5212 25.8402L85.0541 22.1335L97.5596 20.0779L101.03 23.7845L88.5212 25.8402Z" fill="#D8D1B4"/>
<path d="M88.5212 26.4164C88.4445 26.4159 88.3686 26.4002 88.2981 26.3702C88.2275 26.3402 88.1636 26.2965 88.11 26.2416L84.6397 22.5349C84.5678 22.4584 84.5182 22.3636 84.4965 22.2608C84.4748 22.1581 84.4818 22.0513 84.5167 21.9522C84.5507 21.8533 84.6107 21.7652 84.6904 21.6975C84.7702 21.6297 84.8667 21.5846 84.9699 21.567L97.4754 19.5146C97.5689 19.4997 97.6647 19.5078 97.7544 19.5383C97.8441 19.5688 97.925 19.6206 97.9901 19.6894L101.46 23.3961C101.534 23.4718 101.586 23.5663 101.609 23.6694C101.633 23.7724 101.628 23.8799 101.594 23.9802C101.561 24.0804 101.5 24.1696 101.42 24.2378C101.339 24.3061 101.241 24.3509 101.137 24.3672L88.628 26.4229L88.5212 26.4164ZM86.2162 22.5317L88.7348 25.2219L99.8677 23.3928L97.3491 20.7027L86.2162 22.5317Z" fill="#15006D"/>
<path d="M113.144 11.7647L107.177 0.583687L95.9957 6.55126L101.963 17.7322L113.144 11.7647Z" fill="#FFFBEB"/>
<path d="M101.972 18.3168C101.867 18.3161 101.764 18.2872 101.674 18.2331C101.584 18.179 101.51 18.1017 101.46 18.0093L95.4942 6.81812C95.4219 6.68284 95.4061 6.52442 95.4504 6.37757C95.4947 6.23072 95.5955 6.10741 95.7305 6.0347L106.912 0.0684468C107.047 -0.0038704 107.206 -0.0196071 107.353 0.0246914C107.499 0.0689898 107.623 0.169713 107.695 0.30477L113.662 11.4862C113.698 11.5529 113.72 11.626 113.728 11.7015C113.736 11.7769 113.728 11.8531 113.706 11.9257C113.684 11.9982 113.648 12.0657 113.6 12.1242C113.552 12.1827 113.492 12.231 113.425 12.2664L102.244 18.2359C102.161 18.2852 102.068 18.3131 101.972 18.3168ZM96.7923 6.79545L102.215 16.9572L112.376 11.5316L106.951 1.37306L96.7923 6.79545Z" fill="#15006D"/>
<path d="M113.179 11.8002L107.213 0.622002L112.108 3.79127L117.647 14.1699L113.179 11.8002Z" fill="#D8D1B4"/>
<path d="M117.647 14.7461C117.553 14.7471 117.461 14.7248 117.378 14.6814L112.907 12.3214C112.806 12.2675 112.724 12.1839 112.671 12.0819L106.702 0.89394C106.642 0.780454 106.621 0.650406 106.643 0.52398C106.664 0.397553 106.727 0.281812 106.821 0.194693C106.916 0.107821 107.036 0.0549141 107.164 0.0443592C107.292 0.0338044 107.42 0.0661973 107.527 0.136415L112.422 3.30569C112.504 3.35949 112.572 3.4329 112.619 3.51935L118.158 13.898C118.216 14.0072 118.238 14.1321 118.22 14.2544C118.202 14.3767 118.145 14.49 118.058 14.5778C117.948 14.6857 117.801 14.7462 117.647 14.7461ZM113.607 11.3729L116.245 12.7714L111.667 4.19593L108.777 2.32156L113.607 11.3729Z" fill="#15006D"/>
<path d="M106.468 20.1362L101.991 17.7438L113.17 11.7776L117.647 14.1699L106.468 20.1362Z" fill="#D8D1B4"/>
<path d="M106.468 20.7156C106.374 20.7158 106.28 20.6925 106.197 20.6476L101.706 18.2553C101.614 18.2064 101.536 18.1331 101.482 18.0432C101.427 17.9534 101.399 17.8504 101.399 17.7454C101.399 17.6405 101.427 17.5375 101.482 17.4477C101.536 17.3578 101.614 17.2845 101.706 17.2356L112.885 11.2661C112.969 11.2216 113.063 11.1983 113.158 11.1983C113.254 11.1983 113.347 11.2216 113.432 11.2661L117.906 13.6584C117.999 13.7073 118.076 13.7806 118.131 13.8705C118.185 13.9604 118.213 14.0633 118.213 14.1683C118.213 14.2732 118.185 14.3762 118.131 14.4661C118.076 14.5559 117.999 14.6292 117.906 14.6781L106.727 20.6476C106.648 20.6904 106.559 20.7137 106.468 20.7156ZM103.231 17.7438L106.468 19.4822L116.42 14.1699L113.183 12.4315L103.231 17.7438Z" fill="#15006D"/>
<g style="mix-blend-mode:multiply">
<path d="M72.1177 27.4291C73.801 26.7003 74.3002 24.1104 73.2325 21.6444C72.1649 19.1784 69.9348 17.7701 68.2514 18.4989C66.568 19.2277 66.0689 21.8176 67.1365 24.2836C68.2042 26.7496 70.4343 28.1579 72.1177 27.4291Z" fill="#E3E4E5"/>
</g>
<g style="mix-blend-mode:multiply">
<path d="M104.827 19.5515C106.146 18.7899 106.311 16.6059 105.196 14.6736C104.08 12.7413 102.106 11.7922 100.787 12.5538C99.4677 13.3155 99.3027 15.4994 100.418 17.4317C101.534 19.3641 103.508 20.3131 104.827 19.5515Z" fill="#E3E4E5"/>
</g>
<g style="mix-blend-mode:multiply">
<path d="M93.8062 29.0984C95.3549 27.5497 95.7536 25.4375 94.6967 24.3806C93.6398 23.3237 91.5276 23.7223 89.9789 25.271C88.4302 26.8197 88.0315 28.9319 89.0884 29.9888C90.1453 31.0457 92.2575 30.647 93.8062 29.0984Z" fill="#E3E4E5"/>
</g>
<g style="mix-blend-mode:multiply">
<path d="M62.0721 18.0733C63.4156 15.7462 63.217 13.1161 61.6284 12.1989C60.0398 11.2817 57.6628 12.4247 56.3192 14.7519C54.9756 17.0791 55.1742 19.7092 56.7628 20.6263C58.3514 21.5435 60.7285 20.4005 62.0721 18.0733Z" fill="#E3E4E5"/>
</g>
<g style="mix-blend-mode:multiply">
<path d="M83.2671 23.8979C84.9638 23.8979 86.3392 21.8818 86.3392 19.3948C86.3392 16.9079 84.9638 14.8918 83.2671 14.8918C81.5704 14.8918 80.1949 16.9079 80.1949 19.3948C80.1949 21.8818 81.5704 23.8979 83.2671 23.8979Z" fill="#E3E4E5"/>
</g>
<path d="M71.0958 26.7056C72.7791 25.9768 73.2783 23.3869 72.2106 20.9209C71.143 18.4549 68.9129 17.0466 67.2295 17.7754C65.5461 18.5042 65.047 21.0941 66.1146 23.5601C67.1823 26.0261 69.4124 27.4344 71.0958 26.7056Z" fill="#C62261"/>
<path d="M70.1789 27.4685C68.447 27.4685 66.5597 26.028 65.5917 23.7878C65.039 22.5725 64.8609 21.22 65.0802 19.9031C65.3263 18.6082 66.0126 17.6726 67.0226 17.2421C68.0326 16.8115 69.1754 16.9604 70.2825 17.6564C71.3908 18.3987 72.2539 19.4532 72.7622 20.6865C73.9568 23.4414 73.3223 26.3776 71.3475 27.2322C70.9785 27.3907 70.5806 27.4712 70.1789 27.4685ZM68.1815 18.1485C67.9355 18.147 67.6919 18.1966 67.4661 18.2942C66.8186 18.5693 66.3881 19.2135 66.2133 20.1135C66.04 21.2015 66.192 22.3165 66.6503 23.3184C67.5762 25.4485 69.5088 26.7531 70.8587 26.1607C72.2248 25.5715 72.5971 23.2698 71.6713 21.1365C71.2566 20.1166 70.5478 19.2432 69.635 18.6276C69.2048 18.3352 68.7013 18.1693 68.1815 18.1485Z" fill="#15006D"/>
<path d="M103.808 18.828C105.127 18.0664 105.292 15.8825 104.176 13.9501C103.061 12.0178 101.087 11.0687 99.7678 11.8304C98.4486 12.592 98.2836 14.7759 99.3992 16.7083C100.515 18.6406 102.489 19.5896 103.808 18.828Z" fill="#C62261"/>
<path d="M102.781 19.6732C101.396 19.6732 99.8677 18.6794 98.8966 16.9993C98.3161 16.0322 98.0366 14.9143 98.0937 13.7879C98.1779 12.6711 98.6667 11.797 99.476 11.3308C100.285 10.8647 101.286 10.8744 102.296 11.36C103.299 11.8745 104.128 12.6756 104.675 13.6617C105.97 15.9051 105.714 18.3945 104.096 19.3301C103.695 19.5578 103.242 19.6761 102.781 19.6732ZM100.787 12.1466C100.532 12.1422 100.28 12.2071 100.059 12.3344C99.5893 12.6031 99.3045 13.1502 99.2494 13.8753C99.2095 14.7688 99.4347 15.6541 99.8969 16.4198C100.836 18.0384 102.487 18.9157 103.516 18.3265C104.546 17.7374 104.61 15.8662 103.672 14.2411C103.243 13.4545 102.589 12.8142 101.794 12.4024C101.481 12.2439 101.137 12.1566 100.787 12.1466Z" fill="#15006D"/>
<path d="M92.7906 28.3744C94.3393 26.8257 94.738 24.7134 93.6811 23.6566C92.6242 22.5997 90.512 22.9983 88.9633 24.547C87.4146 26.0957 87.016 28.2079 88.0728 29.2648C89.1297 30.3217 91.242 29.923 92.7906 28.3744Z" fill="#C62261"/>
<path d="M89.6283 30.45C89.2665 30.4613 88.9061 30.3997 88.5686 30.269C88.2311 30.1383 87.9232 29.9412 87.6633 29.6893C87.0158 29.0418 86.7666 28.0707 86.9705 26.9959C87.2221 25.9184 87.7702 24.9329 88.5529 24.1509C89.3355 23.3688 90.3214 22.8214 91.3991 22.5706C92.4835 22.3634 93.4385 22.6094 94.0892 23.2601C95.3841 24.555 95.0021 26.9959 93.199 28.799C92.4281 29.5967 91.4377 30.1477 90.3534 30.3821C90.1142 30.4264 89.8716 30.4491 89.6283 30.45ZM92.121 23.6518C91.0738 23.7196 90.0915 24.1824 89.3725 24.9467C88.7348 25.559 88.2951 26.3483 88.11 27.2128C88.0323 27.4985 88.0255 27.7989 88.0904 28.0877C88.1553 28.3766 88.2898 28.6453 88.4823 28.8703C88.7064 29.0642 88.9751 29.1997 89.2643 29.2647C89.5535 29.3296 89.8542 29.322 90.1398 29.2425C90.9957 29.0522 91.7763 28.6129 92.3832 27.98C93.6781 26.6851 94.0892 24.8949 93.2734 24.0791C93.1191 23.9353 92.9378 23.8234 92.74 23.7501C92.5422 23.6767 92.3318 23.6433 92.121 23.6518Z" fill="#15006D"/>
<path d="M61.0535 17.3524C62.3971 15.0252 62.1985 12.3952 60.6099 11.478C59.0213 10.5608 56.6443 11.7038 55.3007 14.031C53.9571 16.3582 54.1557 18.9882 55.7443 19.9054C57.3329 20.8226 59.71 19.6796 61.0535 17.3524Z" fill="#C62261"/>
<path d="M56.9677 20.803C56.4382 20.8096 55.9165 20.6756 55.4559 20.4145C53.5945 19.3398 53.2999 16.3518 54.8084 13.7523C55.452 12.5847 56.4292 11.6357 57.6151 11.0265C58.7935 10.4568 59.9621 10.4438 60.9009 10.9877C61.8397 11.5315 62.4095 12.548 62.5196 13.8526C62.5607 15.1829 62.2298 16.4982 61.5641 17.6506C60.8983 18.803 59.9243 19.7468 58.7514 20.3757C58.1969 20.6514 57.5869 20.7975 56.9677 20.803ZM59.3859 11.7387C58.9438 11.7489 58.5098 11.8596 58.1169 12.0624C57.1386 12.5728 56.3333 13.3613 55.8023 14.3285C54.6401 16.3421 54.7469 18.6697 56.0353 19.4142C56.6342 19.7574 57.4176 19.738 58.2399 19.3333C59.2041 18.8069 60.0048 18.0252 60.5542 17.0739C61.1035 16.1225 61.3803 15.0383 61.3541 13.9401C61.2862 13.0271 60.9204 12.3214 60.3215 11.9977C60.0381 11.8299 59.7152 11.7405 59.3859 11.7387Z" fill="#15006D"/>
<path d="M82.2506 23.1727C83.9473 23.1727 85.3227 21.1566 85.3227 18.6697C85.3227 16.1827 83.9473 14.1667 82.2506 14.1667C80.5539 14.1667 79.1784 16.1827 79.1784 18.6697C79.1784 21.1566 80.5539 23.1727 82.2506 23.1727Z" fill="#C62261"/>
<path d="M82.2506 23.7522C80.2014 23.7522 78.599 21.5185 78.599 18.6697C78.599 15.8209 80.2014 13.5904 82.2506 13.5904C84.2998 13.5904 85.9022 15.8209 85.9022 18.6697C85.9022 21.5185 84.2965 23.7522 82.2506 23.7522ZM82.2506 14.7461C80.8974 14.7461 79.7547 16.5428 79.7547 18.6697C79.7547 20.7966 80.8974 22.5965 82.2506 22.5965C83.6038 22.5965 84.7433 20.7966 84.7433 18.6697C84.7433 16.5428 83.6005 14.7461 82.2506 14.7461Z" fill="#15006D"/>
</svg>
