<svg width="77" height="86" viewBox="0 0 77 86" fill="none" xmlns="http://www.w3.org/2000/svg">
<g style="mix-blend-mode:multiply">
<path d="M30.9051 85.1772C47.9735 85.1772 61.8102 82.4095 61.8102 78.9953C61.8102 75.5812 47.9735 72.8135 30.9051 72.8135C13.8367 72.8135 0 75.5812 0 78.9953C0 82.4095 13.8367 85.1772 30.9051 85.1772Z" fill="#EEEFEF"/>
</g>
<path d="M63.6259 4.47751L55.5381 1.19995L38.8588 42.3585L46.9466 45.6361L63.6259 4.47751Z" fill="#FCDEC8"/>
<path d="M46.9423 46.0265C46.8929 46.0266 46.844 46.0172 46.7981 45.9989L38.7055 42.7203C38.6583 42.7012 38.6154 42.673 38.5792 42.6372C38.543 42.6015 38.5142 42.5589 38.4945 42.512C38.4748 42.4651 38.4645 42.4148 38.4644 42.3639C38.4642 42.313 38.4741 42.2626 38.4934 42.2155L55.1792 1.05684C55.198 1.00881 55.2266 0.965194 55.2631 0.928705C55.2996 0.892217 55.3432 0.863644 55.3912 0.84477C55.4863 0.805649 55.593 0.805649 55.6881 0.84477L63.7744 4.12338C63.8693 4.1624 63.9448 4.2374 63.9846 4.33198C64.0243 4.42657 64.025 4.53304 63.9865 4.62811L47.3028 45.7847C47.2737 45.8563 47.2238 45.9176 47.1596 45.9607C47.0953 46.0038 47.0197 46.0267 46.9423 46.0265ZM39.3608 42.1477L46.7303 45.1336L63.1191 4.69386L55.7518 1.7079L39.3608 42.1477Z" fill="#15006D"/>
<path d="M63.6236 4.47966C63.8928 3.81534 62.301 2.54328 60.0681 1.63843C57.8353 0.733577 55.807 0.538586 55.5377 1.20291C55.2685 1.86723 56.8604 3.13929 59.0932 4.04414C61.3261 4.94899 63.3544 5.14398 63.6236 4.47966Z" fill="#E0B594"/>
<path d="M62.5618 5.26223C62.4048 5.26223 62.2373 5.25375 62.0592 5.23678C60.9885 5.10466 59.9414 4.82416 58.9481 4.40334C56.8274 3.54446 54.7427 2.13207 55.1796 1.05687C55.3917 0.547897 56.0279 0.344309 57.1052 0.446103C58.1749 0.579546 59.2211 0.860005 60.2142 1.27954C62.3349 2.13843 64.4195 3.55294 63.9848 4.62602C63.813 5.05016 63.3358 5.26223 62.5618 5.26223ZM56.609 1.19683C56.083 1.19683 55.9091 1.31771 55.8985 1.34952C55.8179 1.54463 56.7044 2.658 59.2386 3.6823C60.163 4.07461 61.1371 4.33724 62.1334 4.46272C62.9817 4.54543 63.251 4.37153 63.2658 4.33336C63.3443 4.13613 62.46 3.02488 59.9236 2.00058C58.9999 1.60856 58.0265 1.34595 57.031 1.22016C56.8698 1.2032 56.732 1.19683 56.609 1.19683Z" fill="#15006D"/>
<path d="M76.105 19.8679L69.7969 13.8376L39.1094 45.9391L45.4174 51.9693L76.105 19.8679Z" fill="#FCDEC8"/>
<path d="M45.4144 52.3589C45.3147 52.3589 45.2189 52.3201 45.1472 52.2507L38.8402 46.2216C38.7659 46.1504 38.7225 46.0529 38.7194 45.9501C38.7181 45.8989 38.727 45.848 38.7455 45.8003C38.7641 45.7526 38.792 45.7091 38.8275 45.6723L69.5163 13.5711C69.5513 13.5343 69.5933 13.5047 69.6398 13.484C69.6863 13.4634 69.7364 13.4522 69.7872 13.451C69.8381 13.4498 69.8886 13.4587 69.936 13.4772C69.9834 13.4956 70.0267 13.5232 70.0634 13.5584L76.3704 19.5876C76.4452 19.6592 76.4887 19.7576 76.4913 19.8612C76.4924 19.912 76.4834 19.9625 76.4649 20.0099C76.4463 20.0572 76.4185 20.1003 76.3831 20.1368L45.7029 52.238C45.666 52.2774 45.6213 52.3085 45.5716 52.3293C45.5219 52.3502 45.4683 52.3602 45.4144 52.3589ZM39.6567 45.9268L45.4017 51.4194L75.5539 19.8802L69.8089 14.3876L39.6567 45.9268Z" fill="#15006D"/>
<path d="M76.1033 19.8682C76.5986 19.3501 75.5884 17.5804 73.8469 15.9156C72.1054 14.2508 70.2921 13.3213 69.7967 13.8394C69.3014 14.3576 70.3117 16.1272 72.0532 17.792C73.7947 19.4568 75.608 20.3863 76.1033 19.8682Z" fill="#E0B594"/>
<path d="M75.7026 20.3979C74.6868 20.3979 73.0835 19.3163 71.7857 18.0651C70.9947 17.3308 70.3089 16.4909 69.7477 15.569C69.2154 14.6338 69.1369 13.9594 69.5165 13.5628C70.316 12.7146 72.4601 14.0464 74.1142 15.6263C74.9052 16.36 75.5903 17.2001 76.1501 18.1224C76.6845 19.0576 76.763 19.732 76.3834 20.1286C76.2951 20.2187 76.1889 20.2892 76.0716 20.3356C75.9544 20.382 75.8286 20.4033 75.7026 20.3979ZM70.1994 14.0761C70.1558 14.0706 70.1118 14.0819 70.0764 14.1079C70.0488 14.1376 69.9937 14.4451 70.4221 15.1937C70.9462 16.0485 71.5848 16.8277 72.3201 17.5095C74.2987 19.4012 75.6772 19.7511 75.8235 19.5984C75.8511 19.5687 75.9041 19.2612 75.4778 18.5126C74.9539 17.657 74.3153 16.8771 73.5798 16.1946C71.8641 14.5575 70.6023 14.0761 70.1994 14.0761Z" fill="#15006D"/>
<path d="M63.538 20.3854C63.538 20.3854 61.5636 23.9609 66.9163 29.479L70.6402 25.5854C65.2875 20.0715 67.4867 16.2543 67.4867 16.2543L63.538 20.3854Z" fill="#A07555"/>
<path d="M66.9107 29.8666C66.8588 29.8665 66.8075 29.856 66.7597 29.8356C66.712 29.8152 66.6689 29.7853 66.6329 29.7479C61.1445 24.0898 63.1062 20.3531 63.1931 20.2047C63.2093 20.1753 63.2292 20.1482 63.2525 20.1241L67.2076 15.9866C67.2736 15.9195 67.3616 15.8787 67.4554 15.8717C67.5492 15.8647 67.6424 15.892 67.7176 15.9485C67.7927 16.005 67.8448 16.0869 67.8642 16.1789C67.8835 16.271 67.8687 16.3669 67.8226 16.4489C67.742 16.5931 65.861 20.1008 70.9189 25.3135C70.9881 25.3861 71.0267 25.4825 71.0267 25.5828C71.0267 25.6831 70.9881 25.7796 70.9189 25.8521L67.1991 29.7458C67.1255 29.8216 67.0249 29.865 66.9192 29.8666H66.9107ZM63.8611 20.6098C63.7784 20.7921 63.4582 21.598 63.6151 22.8853C63.7763 24.2086 64.4868 26.3123 66.9192 28.9166L70.1003 25.5828C66.8514 22.1091 66.4866 19.2992 66.6859 17.6535L63.8611 20.6098Z" fill="#15006D"/>
<path d="M55.9388 28.3355C55.9388 28.3355 53.9645 31.911 59.3171 37.4291L63.039 33.5355C57.6863 28.0216 59.8876 24.2043 59.8876 24.2043L55.9388 28.3355Z" fill="#A07555"/>
<path d="M59.3157 37.8173C59.2638 37.8173 59.2124 37.8068 59.1646 37.7864C59.1169 37.766 59.0737 37.7361 59.0379 37.6986C53.5474 32.0405 55.5111 28.3059 55.5981 28.1554C55.6135 28.1255 55.6335 28.0983 55.6575 28.0748L59.6041 23.9458C59.6697 23.878 59.7577 23.8364 59.8518 23.8288C59.9458 23.8212 60.0394 23.8481 60.115 23.9045C60.1907 23.9609 60.2431 24.0429 60.2627 24.1352C60.2822 24.2275 60.2675 24.3237 60.2212 24.406C60.1385 24.5523 58.2575 28.0578 63.3175 33.2726C63.3865 33.3449 63.4251 33.441 63.4251 33.5409C63.4251 33.6409 63.3865 33.737 63.3175 33.8092L59.5935 37.7028C59.5579 37.7408 59.5149 37.7712 59.4671 37.792C59.4193 37.8128 59.3678 37.8236 59.3157 37.8237V37.8173ZM56.2597 28.5604C56.177 28.7428 55.8547 29.5508 56.0116 30.8381C56.1749 32.1593 56.8832 34.263 59.3157 36.8672L62.4967 33.5356C59.2436 30.0598 58.8788 27.2498 59.0782 25.6063L56.2597 28.5604Z" fill="#15006D"/>
<path d="M52.1359 9.5952C52.1359 9.5952 51.6206 13.6479 58.6316 16.8056L60.6548 11.8135C53.6437 8.65997 54.2821 4.30615 54.2821 4.30615L52.1359 9.5952Z" fill="#A07555"/>
<path d="M58.6404 17.189C58.5857 17.1884 58.5316 17.1768 58.4814 17.1551C51.2922 13.9189 51.7375 9.73259 51.7609 9.54597C51.7651 9.51317 51.7736 9.48108 51.7863 9.45054L53.9325 4.14877C53.969 4.06231 54.0357 3.99204 54.1201 3.95097C54.2045 3.90991 54.301 3.90083 54.3915 3.92542C54.4821 3.95001 54.5607 4.0066 54.6128 4.08471C54.6649 4.16282 54.6869 4.25715 54.6747 4.35023C54.6514 4.51565 54.1975 8.46865 60.8248 11.4482C60.9167 11.4892 60.989 11.5645 61.0262 11.658C61.0634 11.7514 61.0627 11.8558 61.0241 11.9487L59.001 16.9409C58.9815 16.9886 58.9528 17.0319 58.9164 17.0684C58.8799 17.1048 58.8366 17.1335 58.7889 17.1529C58.742 17.1738 58.6917 17.1861 58.6404 17.189ZM52.5179 9.68593C52.501 10.1101 52.5476 13.5032 58.4241 16.2792L60.1567 12.006C55.8517 9.97647 54.4754 7.49948 54.0533 5.89623L52.5179 9.68593Z" fill="#15006D"/>
<g style="mix-blend-mode:multiply">
<path d="M46.4398 23.6592C46.4398 23.6592 51.3641 28.2039 51.8348 32.5662L55.4401 28.8634C54.2821 30.772 52.2866 33.529 53.8389 35.3676L57.6159 38.8477L56.388 40.4997L49.4363 34.8586L45.6572 25.5805L46.4398 23.6592Z" fill="#E3E4E5"/>
</g>
<path d="M51.3639 39.5947C51.3639 43.5642 50.1868 47.4446 47.9814 50.7452C45.7761 54.0457 42.6415 56.6182 38.9741 58.1373C35.3068 59.6564 31.2713 60.0538 27.378 59.2794C23.4847 58.505 19.9085 56.5935 17.1016 53.7866C14.2947 50.9797 12.3832 47.4035 11.6088 43.5102C10.8344 39.6169 11.2318 35.5815 12.7509 31.9141C14.27 28.2467 16.8425 25.1121 20.143 22.9068C23.4436 20.7014 27.324 19.5243 31.2935 19.5243C36.6165 19.5243 41.7215 21.6388 45.4854 25.4028C49.2494 29.1667 51.3639 34.2717 51.3639 39.5947Z" fill="#5B41C4"/>
<path d="M16.9342 27.818C20.5776 24.0856 25.8094 22.0921 31.4377 22.0921C42.1452 22.0921 50.7489 30.1508 51.33 40.7098C51.3512 40.3387 51.3639 39.9654 51.3639 39.588C51.3639 34.265 49.2494 29.16 45.4854 25.3961C41.7215 21.6321 36.6165 19.5176 31.2935 19.5176C25.9705 19.5176 20.8656 21.6321 17.1016 25.3961C13.3377 29.16 11.2231 34.265 11.2231 39.588C11.2231 39.9654 11.2359 40.3408 11.2571 40.7119C11.5226 35.8676 13.5403 31.285 16.9342 27.818Z" fill="#6B52D1"/>
<path d="M24.3838 23.3307L25.5565 22.3085L25.8407 21.4602L28.2053 21.8441C28.2053 21.8441 28.6146 23.5067 28.8076 23.6763C29.0006 23.846 27.0347 24.6413 27.0347 24.6413L25.6711 24.0623L24.3838 23.3307Z" fill="#F6BB34"/>
<path d="M27.0408 25.0252C26.9883 25.0251 26.9363 25.0143 26.8881 24.9934L25.5245 24.4144L25.4863 24.3953L24.1927 23.6594C24.1386 23.6293 24.0927 23.5866 24.0587 23.5349C24.0247 23.4832 24.0038 23.4241 23.9976 23.3625C23.9913 23.3006 24 23.238 24.0229 23.1801C24.0458 23.1222 24.0822 23.0706 24.1291 23.0296L25.2233 22.0774L25.4736 21.3245C25.5025 21.2384 25.5609 21.1652 25.6385 21.1179C25.7161 21.0705 25.8079 21.0521 25.8977 21.0658L28.2602 21.4497C28.3352 21.4613 28.405 21.495 28.4608 21.5463C28.5167 21.5976 28.5561 21.6644 28.5741 21.7381C28.7016 22.3039 28.8724 22.859 29.0851 23.3986C29.1307 23.4466 29.1644 23.5046 29.1836 23.5679C29.2027 23.6312 29.2068 23.6982 29.1954 23.7634C29.1636 23.9585 29.1212 24.2002 27.1723 24.9891C27.1307 25.0082 27.0863 25.0203 27.0408 25.0252ZM25.8489 23.7082L27.0429 24.2172C27.4858 24.0378 27.919 23.8353 28.3408 23.6107C28.1551 23.1439 28.0041 22.664 27.8891 22.175L26.1034 21.8865L25.9232 22.4252C25.9016 22.4908 25.8627 22.5494 25.8108 22.5949L25.0494 23.2565L25.8489 23.7082Z" fill="#15006D"/>
<path d="M30.901 21.6086L30.2754 22.915L31.5266 23.4261L33.0026 23.653L34.1393 21.8355L32.7184 21.0403L30.901 21.6086Z" fill="#F6BB34"/>
<path d="M33.0027 24.0412H32.9433L31.4588 23.8122C31.4284 23.8074 31.3986 23.7996 31.3698 23.7889L30.1207 23.2778C30.0712 23.2584 30.0263 23.2291 29.9886 23.1917C29.9509 23.1544 29.9212 23.1097 29.9014 23.0605C29.8815 23.0113 29.8719 22.9585 29.8732 22.9054C29.8744 22.8524 29.8865 22.8001 29.9086 22.7518L30.5448 21.4455C30.5667 21.3958 30.5988 21.3512 30.6389 21.3147C30.6791 21.2782 30.7265 21.2505 30.7781 21.2334L32.5976 20.6651C32.6477 20.6496 32.7004 20.6445 32.7525 20.6499C32.8047 20.6554 32.8551 20.6714 32.9009 20.6969L34.3218 21.4921C34.3674 21.518 34.4074 21.5527 34.4394 21.5942C34.4715 21.6357 34.4949 21.6832 34.5084 21.7339C34.5209 21.785 34.5232 21.8381 34.5152 21.8902C34.5072 21.9422 34.4891 21.9922 34.4618 22.0372L33.3251 23.8546C33.2911 23.9101 33.2439 23.9563 33.1876 23.9889C33.1313 24.0215 33.0677 24.0395 33.0027 24.0412ZM31.6306 23.0487L32.8097 23.2311L33.5944 21.9757L32.674 21.4603L31.1768 21.9269L30.8035 22.7116L31.6306 23.0487Z" fill="#15006D"/>
<path d="M36.0205 22.5631L36.5867 23.757L38.0649 24.1536L39.2758 23.5301V22.7921L37.6471 21.9396L36.0205 22.5631Z" fill="#F6BB34"/>
<path d="M38.0693 24.5417C38.035 24.5415 38.0008 24.5373 37.9675 24.5289L36.483 24.1324C36.4284 24.1173 36.3778 24.0905 36.3345 24.0539C36.2913 24.0173 36.2566 23.9717 36.2328 23.9203L35.6644 22.7263C35.6429 22.6775 35.6318 22.6248 35.6318 22.5715C35.6318 22.5182 35.6429 22.4655 35.6644 22.4167C35.6835 22.3688 35.7122 22.3253 35.7486 22.2888C35.7851 22.2524 35.8286 22.2237 35.8765 22.2046L37.5052 21.579C37.5566 21.5595 37.6115 21.5511 37.6663 21.5544C37.7212 21.5577 37.7747 21.5726 37.8233 21.5981L39.452 22.4464C39.5155 22.4787 39.5688 22.5278 39.6063 22.5884C39.6437 22.649 39.6637 22.7187 39.6641 22.7899V23.528C39.6639 23.5992 39.644 23.669 39.6066 23.7297C39.5691 23.7903 39.5156 23.8394 39.452 23.8715L38.2432 24.5077C38.1885 24.5317 38.1291 24.5432 38.0693 24.5417ZM36.8648 23.4283L38.0248 23.74L38.8922 23.2926V23.0232L37.6197 22.3616L36.5467 22.773L36.8648 23.4283Z" fill="#15006D"/>
<path d="M31.7554 25.6357L33.4605 26.6007V27.9643L31.7554 28.5899L30.5063 27.2814V26.4861L31.7554 25.6357Z" fill="#F6BB34"/>
<path d="M31.7557 28.9761C31.7034 28.9764 31.6516 28.966 31.6035 28.9456C31.5553 28.9252 31.5119 28.8952 31.4758 28.8573L30.2224 27.551C30.1529 27.4786 30.1141 27.382 30.1143 27.2817V26.4864C30.1143 26.4232 30.1298 26.3611 30.1594 26.3053C30.189 26.2494 30.2317 26.2017 30.2839 26.1662L31.533 25.3179C31.5926 25.2764 31.6627 25.2528 31.7352 25.2498C31.8077 25.2468 31.8795 25.2645 31.9423 25.3009L33.6389 26.2658C33.6986 26.2996 33.7484 26.3486 33.783 26.4078C33.8177 26.467 33.836 26.5344 33.8361 26.603V27.9666C33.8359 28.0461 33.8114 28.1236 33.7659 28.1888C33.7204 28.254 33.6561 28.3038 33.5816 28.3314L31.885 28.9549C31.8436 28.9698 31.7997 28.9769 31.7557 28.9761ZM30.8947 27.1268L31.8617 28.1384L33.0726 27.6931V26.8278L31.7748 26.0919L30.8947 26.6921V27.1268Z" fill="#15006D"/>
<path d="M36.5121 25.7803C36.8535 25.7549 38.1408 26.9467 38.1408 26.9467L37.3264 27.8565L36.5121 27.5723L35.7168 25.7803H36.5121Z" fill="#F6BB34"/>
<path d="M37.3265 28.2445C37.2831 28.2441 37.24 28.2362 37.1993 28.2212L36.3849 27.9391C36.3345 27.9213 36.2884 27.8933 36.2493 27.8568C36.2103 27.8203 36.1792 27.7761 36.158 27.727L35.3627 25.935C35.3366 25.876 35.3257 25.8114 35.3308 25.7471C35.336 25.6828 35.3571 25.6208 35.3923 25.5666C35.4274 25.5125 35.4755 25.468 35.5322 25.4372C35.5889 25.4064 35.6524 25.3901 35.7169 25.39H36.4994C36.6394 25.39 37.0445 25.39 38.4081 26.6624C38.4826 26.7316 38.5269 26.8272 38.5317 26.9287C38.5365 27.0302 38.5012 27.1295 38.4335 27.2053L37.6149 28.113C37.5787 28.1539 37.5344 28.1867 37.4847 28.2094C37.435 28.232 37.3811 28.244 37.3265 28.2445ZM36.7963 27.2647L37.2078 27.4089L37.5916 26.9848C37.2612 26.6721 36.8945 26.4002 36.4994 26.1747H36.3107L36.7963 27.2647Z" fill="#15006D"/>
<path d="M20.2278 25.1439L22.1789 24.7706C22.1789 24.7706 22.4355 25.8013 22.4122 26.0282C22.3888 26.2551 22.4122 27.22 22.4122 27.22L20.7389 27.5042L19.5259 26.6559V25.1439H20.2278Z" fill="#F6BB34"/>
<path d="M20.7393 27.9009C20.6632 27.8993 20.5893 27.8749 20.5272 27.8309L19.3142 26.9826C19.2637 26.9467 19.2226 26.8994 19.1942 26.8444C19.1658 26.7894 19.1509 26.7285 19.1509 26.6666V25.1439C19.1506 25.0931 19.1604 25.0427 19.1797 24.9956C19.1989 24.9485 19.2273 24.9057 19.2632 24.8696C19.299 24.8336 19.3417 24.805 19.3887 24.7854C19.4356 24.7659 19.486 24.7558 19.5369 24.7558H20.2006L22.1093 24.389C22.2069 24.3703 22.3079 24.3899 22.3916 24.4435C22.4752 24.4972 22.5351 24.5809 22.5589 24.6774C22.6607 25.0867 22.8282 25.8141 22.7985 26.0707C22.7837 26.2085 22.7985 26.8214 22.7985 27.2116C22.8013 27.3049 22.7702 27.3961 22.7109 27.4683C22.6517 27.5404 22.5682 27.5886 22.4762 27.604L20.8029 27.8881L20.7393 27.9009ZM19.9143 26.4609L20.8305 27.0971L22.016 26.8978C22.016 26.5818 22.016 26.1492 22.016 25.988C21.9868 25.73 21.9407 25.4743 21.8781 25.2224L20.2897 25.5278C20.2657 25.5298 20.2416 25.5298 20.2176 25.5278H19.9143V26.4609Z" fill="#15006D"/>
<path d="M25.1134 26.7194L24.7168 27.6865L25.739 28.1976H26.8714L27.2722 27.0163L26.8714 26.3229H25.6817L25.1134 26.7194Z" fill="#F6BB34"/>
<path d="M26.8715 28.5836H25.7391C25.6753 28.5838 25.6125 28.5677 25.5567 28.5369L24.5345 28.0258C24.4468 27.9823 24.379 27.907 24.3447 27.8152C24.3104 27.7235 24.3123 27.6221 24.35 27.5317L24.7466 26.5668C24.7751 26.4981 24.8221 26.4387 24.8823 26.395L25.4507 25.9985C25.5129 25.9546 25.5867 25.9303 25.6627 25.9285H26.8525C26.9203 25.9287 26.9868 25.9467 27.0456 25.9805C27.1043 26.0144 27.1533 26.0629 27.1875 26.1215L27.5883 26.8149C27.6164 26.8629 27.6337 26.9163 27.6392 26.9716C27.6447 27.0268 27.6382 27.0826 27.6201 27.1352L27.2384 28.3249C27.2119 28.4009 27.1622 28.4667 27.0965 28.5131C27.0307 28.5594 26.952 28.5841 26.8715 28.5836ZM25.8303 27.8095H26.5937L26.8482 27.0588L26.6361 26.711H25.7879L25.4125 26.9719L25.2004 27.4999L25.8303 27.8095Z" fill="#15006D"/>
<g style="mix-blend-mode:multiply">
<path d="M50.0087 32.331C50.0087 32.331 35.3122 36.5364 28.632 38.0803L27.8898 34.6065C27.8898 34.6065 15.2864 33.8134 12.8221 31.7521C12.8221 31.7521 11.1786 34.8335 11.2698 38.3581C11.361 41.8827 26.3819 49.5978 39.6406 44.7987C52.8993 39.9995 51.2557 37.4228 51.2557 37.4228C51.2557 37.4228 50.9588 34.4623 50.0087 32.331Z" fill="#CED0D1"/>
</g>
<path d="M31.2929 60.0528C27.2466 60.0528 23.2912 58.8529 19.9268 56.6049C16.5625 54.3569 13.9402 51.1618 12.3918 47.4235C10.8433 43.6852 10.4382 39.5716 11.2276 35.6031C12.017 31.6345 13.9655 27.9892 16.8266 25.128C19.6878 22.2669 23.3331 20.3184 27.3017 19.529C31.2703 18.7396 35.3838 19.1447 39.1221 20.6932C42.8604 22.2416 46.0555 24.8638 48.3035 28.2282C50.5515 31.5926 51.7514 35.548 51.7514 39.5943C51.7452 45.0184 49.5878 50.2185 45.7525 54.0538C41.9171 57.8892 36.717 60.0466 31.2929 60.0528ZM31.2929 19.9121C27.4002 19.9121 23.5948 21.0664 20.3581 23.2291C17.1213 25.3918 14.5986 28.4658 13.1089 32.0623C11.6192 35.6587 11.2294 39.6162 11.9889 43.4342C12.7483 47.2522 14.6229 50.7592 17.3755 53.5118C20.1281 56.2644 23.6351 58.139 27.4531 58.8984C31.2711 59.6579 35.2286 59.2681 38.825 57.7784C42.4215 56.2887 45.4955 53.766 47.6582 50.5292C49.8209 47.2925 50.9752 43.4871 50.9752 39.5943C50.995 37.0041 50.4994 34.4358 49.5173 32.0389C48.5351 29.642 47.0861 27.4644 45.2545 25.6328C43.4229 23.8012 41.2452 22.3522 38.8484 21.37C36.4515 20.3879 33.8832 19.8923 31.2929 19.9121Z" fill="#15006D"/>
<path d="M33.3511 19.6641L34.9989 18.9536L36.4176 19.6641L35.9065 20.7435L33.3511 19.6641Z" fill="#F6BB34"/>
<path d="M35.9058 21.1296C35.8541 21.13 35.8029 21.1199 35.7552 21.0999L33.1913 20.0226C33.1211 19.9929 33.0612 19.9431 33.0191 19.8796C32.977 19.816 32.9546 19.7415 32.9546 19.6653C32.9546 19.589 32.977 19.5145 33.0191 19.4509C33.0612 19.3874 33.1211 19.3377 33.1913 19.3079L34.8369 18.5975C34.8892 18.5751 34.9457 18.5644 35.0025 18.5662C35.0593 18.5681 35.115 18.5824 35.1657 18.6081L36.5844 19.3185C36.675 19.3642 36.7442 19.4432 36.7775 19.539C36.8107 19.6348 36.8054 19.7398 36.7626 19.8317L36.2578 20.9027C36.227 20.9702 36.1774 21.0275 36.115 21.0677C36.0526 21.1079 35.98 21.1294 35.9058 21.1296ZM34.3386 19.66L35.7149 20.241L35.9037 19.8423L34.9854 19.3821L34.3386 19.66Z" fill="#15006D"/>
<path d="M27.6909 19.8481L28.2741 18.6542L30.6239 18.4272L31.294 19.5237L27.6909 19.8481Z" fill="#F6BB34"/>
<path d="M27.6899 20.2367C27.6268 20.2367 27.5646 20.2212 27.5088 20.1916C27.453 20.162 27.4053 20.1193 27.3697 20.0671C27.3302 20.0107 27.3066 19.9447 27.3014 19.876C27.2962 19.8074 27.3095 19.7386 27.34 19.6769L27.9253 18.4829C27.9548 18.4239 27.999 18.3734 28.0535 18.3362C28.1081 18.2991 28.1713 18.2766 28.2371 18.2708L30.5868 18.0439C30.6593 18.0364 30.7324 18.0496 30.7977 18.0818C30.863 18.1141 30.9178 18.1642 30.9558 18.2263L31.6238 19.3248C31.6585 19.3812 31.678 19.4455 31.6806 19.5116C31.6832 19.5777 31.6688 19.6434 31.6387 19.7023C31.6089 19.7611 31.5646 19.8114 31.5101 19.8485C31.4556 19.8856 31.3926 19.9083 31.3269 19.9144L27.7217 20.2367H27.6899ZM28.5255 19.0195L28.3389 19.4012L30.6462 19.2061L30.4341 18.8477L28.5255 19.0195Z" fill="#15006D"/>
<path d="M20.4561 22.6992L21.1919 21.0408L22.1399 20.4894H23.9022V21.5943L20.4561 22.6992Z" fill="#F6BB34"/>
<path d="M20.467 23.0867C20.4125 23.087 20.3585 23.0756 20.3088 23.0533C20.259 23.031 20.2146 22.9983 20.1786 22.9574C20.1271 22.901 20.0934 22.8307 20.0817 22.7552C20.07 22.6798 20.0809 22.6026 20.1128 22.5332L20.8487 20.8748C20.8814 20.8001 20.9372 20.7377 21.0078 20.6967L21.9557 20.1453C22.0147 20.1101 22.0822 20.0918 22.1508 20.0923H23.9131C24.0146 20.0967 24.1103 20.1407 24.1796 20.2148C24.249 20.289 24.2866 20.3874 24.2843 20.4889V21.5938C24.2838 21.6758 24.2576 21.7556 24.2092 21.8218C24.1609 21.888 24.0929 21.9374 24.0149 21.9628L20.5688 23.0676C20.5359 23.0786 20.5016 23.085 20.467 23.0867ZM21.5083 21.3117L21.1732 22.0646L23.525 21.3117V20.877H22.2526L21.5083 21.3117Z" fill="#15006D"/>
<path d="M48.0046 19.791C48.0046 19.791 47.4892 23.8416 54.5003 27.0014L56.5192 22.0029C49.5081 18.8494 50.1571 14.4956 50.1571 14.4956L48.0046 19.791Z" fill="#A07555"/>
<path d="M54.5008 27.3835C54.4459 27.3842 54.3916 27.3726 54.3418 27.3496C47.1504 24.1155 47.5979 19.9271 47.6191 19.7405C47.6233 19.7077 47.6319 19.6756 47.6446 19.645L49.7907 14.3433C49.8245 14.2514 49.8918 14.1757 49.9791 14.1314C50.0663 14.087 50.1671 14.0773 50.2613 14.1041C50.3554 14.1309 50.4359 14.1923 50.4867 14.276C50.5375 14.3597 50.5548 14.4595 50.5351 14.5553C50.5118 14.7208 50.0579 18.6738 56.6851 21.6533C56.7763 21.6952 56.8479 21.7705 56.885 21.8637C56.9222 21.9569 56.922 22.0608 56.8845 22.1538L54.8613 27.146C54.8215 27.242 54.7453 27.3182 54.6493 27.3581C54.602 27.3764 54.5515 27.385 54.5008 27.3835ZM48.3868 19.8804C48.3677 20.3046 48.4144 23.6977 54.293 26.4737L56.0256 22.2005C51.7185 20.171 50.3442 17.694 49.9222 16.0907L48.3868 19.8804Z" fill="#15006D"/>
<path d="M30.0103 39.5944C29.7983 39.2678 46.1277 35.2469 50.314 34.212C50.314 34.212 55.8448 38.6528 58.5848 40.8817C58.5848 40.8817 42.0751 46.7433 39.4242 46.7666C39.4263 46.7751 31.5966 41.942 30.0103 39.5944Z" fill="#AD8366"/>
<path d="M58.5867 40.8817L57.9802 52.9697L39.1992 57.8474L39.4261 46.7752C39.4261 46.7752 56.9962 41.4882 58.5867 40.8817Z" fill="#FFD654"/>
<path d="M30.0102 39.5944C30.0102 39.5944 28.9732 49.9434 30.0102 51.8796C30.0102 51.8796 36.6904 57.6204 39.1908 57.8473L39.4262 46.7751C39.4262 46.7751 33.3673 43.155 30.0102 39.5944Z" fill="#F9C73D"/>
<path d="M58.428 43.8783C57.902 43.7807 57.4864 43.3862 56.9583 43.2951C56.7047 43.2566 56.446 43.2687 56.1971 43.3306C55.9481 43.3924 55.7139 43.5029 55.5078 43.6556C55.037 44.0055 54.7528 44.5399 54.3986 45.0086C53.5991 46.0689 52.4688 46.052 51.3024 45.6724C50.03 45.261 48.7385 45.2122 47.7311 46.228C47.3558 46.6076 47.0652 47.1038 46.5796 47.3308C45.7779 47.7104 44.883 47.229 44.0538 47.4177C43.2246 47.6065 42.6011 48.2321 41.9183 48.6583C41.1718 49.1228 40.2917 49.3857 39.4158 49.1885C38.4 49.25 37.4584 48.8237 36.6907 48.1812C35.923 47.5386 35.4862 46.1008 34.5912 45.666C34.1501 45.4539 33.6539 45.3967 33.1767 45.2843C32.8388 45.2195 32.5185 45.0838 32.237 44.886C31.9555 44.6882 31.7192 44.4329 31.5438 44.137C30.8969 43.0003 30.986 42.0778 29.7666 41.2995L30.0084 39.6029C30.0084 39.6029 35.7894 45.0892 39.4264 46.7751C39.4264 46.7751 57.8278 41.1404 58.587 40.8902L58.428 43.8783Z" fill="#A07555"/>
<path d="M39.222 47.0951C38.8996 46.8979 31.3011 42.2005 29.6979 39.8105C29.6633 39.7562 29.6415 39.6948 29.6341 39.6309C29.6268 39.5669 29.6341 39.5022 29.6555 39.4415C29.7615 39.1679 29.8272 39.0025 38.2019 36.85C42.5854 35.7218 47.497 34.5172 49.8658 33.9255L50.239 33.8343C50.2968 33.8197 50.3572 33.8188 50.4154 33.8317C50.4736 33.8446 50.5279 33.8709 50.5741 33.9086C50.6293 33.9531 56.1389 38.3769 58.8449 40.5824L58.3529 41.1826C55.9035 39.1849 51.1425 35.3591 50.2412 34.6338L50.0545 34.6784C36.4693 38.0333 31.8568 39.3015 30.6225 39.732C32.6117 42.0924 39.5676 46.391 39.6419 46.4356L39.222 47.0951Z" fill="#15006D"/>
<path d="M39.1987 58.2268C39.1113 58.2263 39.0264 58.1973 38.957 58.144C38.9101 58.1065 38.8725 58.0587 38.8471 58.0042C38.8217 57.9498 38.8092 57.8902 38.8107 57.8302L39.0376 46.7495C39.0388 46.6675 39.0662 46.5881 39.1158 46.5229C39.1654 46.4576 39.2346 46.4099 39.3133 46.3868C39.4893 46.3338 56.8897 41.1063 58.4484 40.5125C58.5087 40.4889 58.5739 40.4809 58.6381 40.4891C58.7023 40.4973 58.7634 40.5216 58.8157 40.5596C58.8681 40.5976 58.9101 40.6481 58.9378 40.7066C58.9655 40.7651 58.9781 40.8296 58.9743 40.8942L58.3678 52.9822C58.3637 53.0648 58.3332 53.1439 58.281 53.208C58.2287 53.2721 58.1574 53.3178 58.0773 53.3385L39.2963 58.2162C39.2643 58.2237 39.2316 58.2273 39.1987 58.2268ZM39.8074 47.0485L39.5953 57.3339L57.6065 52.6493L58.1706 41.4286C55.0341 42.4741 41.9387 46.4144 39.8074 47.057V47.0485Z" fill="#15006D"/>
<path d="M39.1994 58.227H39.1634C36.5698 57.9916 30.0443 52.4056 29.7665 52.166C29.7301 52.1352 29.6999 52.0978 29.6775 52.0557C28.6171 50.075 29.5269 40.6209 29.635 39.5435C29.6427 39.4696 29.6713 39.3995 29.7176 39.3414C29.7639 39.2833 29.8259 39.2397 29.8963 39.2158C29.9666 39.1919 30.0423 39.1887 30.1144 39.2066C30.1866 39.2245 30.252 39.2626 30.3031 39.3166C33.5732 42.7946 39.5642 46.3849 39.6342 46.421C39.6935 46.4557 39.7425 46.5057 39.7761 46.5657C39.8096 46.6258 39.8265 46.6937 39.825 46.7624L39.596 57.8431C39.5949 57.896 39.583 57.948 39.5611 57.9962C39.5393 58.0443 39.5078 58.0875 39.4688 58.1231C39.3953 58.1905 39.2991 58.2276 39.1994 58.227ZM30.3306 51.6273C32.0908 53.133 36.6588 56.7637 38.8135 57.3723L39.0255 46.9809C38.0118 46.3637 33.4035 43.4902 30.32 40.4618C30.038 43.7065 29.6372 50.1407 30.3306 51.6358V51.6273Z" fill="#15006D"/>
<path d="M7.1066 35.3232C7.1066 35.3719 6.17773 39.7979 6.17773 39.7979L17.7101 38.3579L15.4961 34.144L7.1066 35.3232Z" fill="#4BE1D9"/>
<path d="M6.17432 39.7981L7.62488 47.1591L18.239 45.6555L17.7088 38.3582L6.17432 39.7981Z" fill="#4BE1D9"/>
<path d="M6.57725 41.838L6.17432 39.7979L7.10319 35.3232L8.90579 35.0687L8.23777 39.5413L8.66403 41.276L6.57725 41.838Z" fill="#C2FFF9"/>
<path d="M6.17424 40.1863C6.11666 40.1862 6.05982 40.1733 6.00783 40.1485C5.95584 40.1238 5.91002 40.0878 5.87368 40.0431C5.83733 39.9984 5.81139 39.9462 5.79772 39.8903C5.78405 39.8344 5.78299 39.7761 5.79464 39.7197C6.15516 37.9892 6.69806 35.3744 6.71926 35.2662C6.72948 35.1834 6.76762 35.1066 6.82737 35.0484C6.88713 34.9901 6.96494 34.954 7.04797 34.946L15.4439 33.769C15.5238 33.7588 15.6049 33.7737 15.676 33.8117C15.7471 33.8497 15.8045 33.9089 15.8404 33.9811L18.0523 38.1949C18.0815 38.2505 18.0967 38.3124 18.0967 38.3752C18.0967 38.438 18.0815 38.4998 18.0523 38.5554C18.0237 38.6122 17.9817 38.6611 17.93 38.6981C17.8783 38.735 17.8184 38.7588 17.7554 38.7675L6.22302 40.2075L6.17424 40.1863ZM7.42758 35.6691C7.34487 36.0721 7.14765 37.0328 6.66625 39.3465L17.1044 38.0443L15.2806 34.5664L7.42758 35.6691Z" fill="#15006D"/>
<path d="M7.62453 47.5473C7.53434 47.5475 7.44691 47.5163 7.37725 47.459C7.30759 47.4017 7.26005 47.3219 7.2428 47.2334L5.79436 39.8746C5.78372 39.8223 5.78406 39.7683 5.79533 39.7161C5.80661 39.664 5.82859 39.6147 5.85988 39.5714C5.89117 39.5282 5.9311 39.4919 5.97713 39.4649C6.02316 39.4378 6.0743 39.4206 6.12731 39.4144L17.6597 37.9744C17.712 37.9679 17.7651 37.9721 17.8158 37.9867C17.8665 38.0012 17.9136 38.0259 17.9545 38.0592C17.9946 38.093 18.0276 38.1344 18.0517 38.181C18.0757 38.2276 18.0902 38.2784 18.0945 38.3307L18.6246 45.6259C18.6321 45.7243 18.6018 45.8217 18.5399 45.8985C18.4781 45.9754 18.3893 46.0257 18.2917 46.0395L7.68815 47.5431L7.62453 47.5473ZM6.63628 40.1248L7.93415 46.7139L17.8251 45.3121L17.3501 38.7951L6.63628 40.1248Z" fill="#15006D"/>
<path d="M18.6521 35.1113C18.6352 35.1559 16.8135 39.0855 16.8135 39.0855L27.8899 40.2477L26.7448 35.8366L18.6521 35.1113Z" fill="#4BE1D9"/>
<path d="M16.8127 39.0833L16.5625 46.2618L26.7886 47.1674L27.8828 40.2475L16.8127 39.0833Z" fill="#4BE1D9"/>
<path d="M16.6855 42.731L16.8128 39.0834L18.6514 35.1113L20.5601 35.2831L19.1604 39.3315L18.9293 42.3854C18.9293 42.3854 17.6335 42.1902 16.6855 42.731Z" fill="#C2FFF9"/>
<path d="M27.8892 40.6359H27.849L16.781 39.4695C16.7197 39.4643 16.6606 39.4445 16.6085 39.4119C16.5564 39.3792 16.5129 39.3345 16.4816 39.2816C16.4503 39.2287 16.432 39.1691 16.4284 39.1077C16.4248 39.0463 16.4359 38.985 16.4608 38.9288C17.1712 37.3934 18.2485 35.0712 18.293 34.9673C18.3221 34.8894 18.3767 34.8237 18.448 34.7809C18.5193 34.7382 18.603 34.7209 18.6854 34.7319L26.7716 35.4593C26.8513 35.4663 26.9269 35.4978 26.988 35.5494C27.0492 35.601 27.0928 35.6703 27.1131 35.7477L28.2583 40.1588C28.2728 40.2163 28.274 40.2763 28.2618 40.3343C28.2496 40.3924 28.2244 40.4469 28.188 40.4937C28.1516 40.5405 28.105 40.5784 28.0518 40.6045C27.9985 40.6306 27.9401 40.6443 27.8808 40.6444L27.8892 40.6359ZM17.3917 38.7549L27.3591 39.8046L26.4238 36.1994L18.8826 35.5208L17.3917 38.7549Z" fill="#15006D"/>
<path d="M26.7902 47.5554H26.7541L16.5281 46.6477C16.4293 46.6386 16.3378 46.592 16.2723 46.5174C16.2068 46.4429 16.1724 46.3461 16.176 46.2469L16.4242 39.0683C16.4264 39.0154 16.4394 38.9634 16.4624 38.9157C16.4853 38.8679 16.5178 38.8253 16.5578 38.7905C16.5975 38.755 16.6444 38.7284 16.6952 38.7123C16.746 38.6962 16.7996 38.6911 16.8526 38.6972L27.9227 39.8615C27.9748 39.8677 28.0251 39.8843 28.0707 39.9104C28.1162 39.9364 28.1561 39.9713 28.188 40.013C28.2198 40.0548 28.2429 40.1025 28.256 40.1533C28.2691 40.2041 28.2718 40.257 28.2641 40.3089L27.1719 47.2267C27.1578 47.3179 27.1116 47.4012 27.0416 47.4614C26.9717 47.5217 26.8825 47.555 26.7902 47.5554ZM16.9628 45.9076L26.4615 46.7559L27.4349 40.6058L17.1855 39.5264L16.9628 45.9076Z" fill="#15006D"/>
<path d="M3.26599 42.7286C3.26599 42.7816 2.89062 47.3942 2.89062 47.3942L14.4379 44.4718L11.6576 40.4722L3.26599 42.7286Z" fill="#4BE1D9"/>
<path d="M2.89062 47.4009L5.29339 54.7024L15.899 51.831L14.4379 44.4785L2.89062 47.4009Z" fill="#4BE1D9"/>
<path d="M4.89469 42.292L3.26599 42.731L2.89062 47.4008L3.89372 50.5712L6.17348 50.8851L4.82047 46.9109L4.89469 42.292Z" fill="#C2FFF9"/>
<path d="M2.89001 47.7891C2.79801 47.7895 2.70902 47.7563 2.63977 47.6958C2.59277 47.656 2.5558 47.6057 2.53185 47.549C2.50791 47.4922 2.49765 47.4306 2.50192 47.3692C2.65037 45.5624 2.87304 42.8309 2.87941 42.7036C2.87939 42.6205 2.90777 42.5399 2.95983 42.4751C3.0119 42.4103 3.08453 42.3652 3.1657 42.3474L11.5595 40.0973C11.6373 40.0757 11.7198 40.0788 11.7958 40.1062C11.8718 40.1335 11.9374 40.1838 11.9836 40.25L14.7639 44.256C14.7994 44.3078 14.8221 44.3674 14.8298 44.4298C14.8376 44.4921 14.8302 44.5555 14.8084 44.6144C14.7852 44.6744 14.7475 44.7277 14.6987 44.7696C14.6498 44.8114 14.5913 44.8404 14.5285 44.854L2.98544 47.7764C2.95432 47.7848 2.92224 47.789 2.89001 47.7891ZM3.63226 43.0324C3.60045 43.4565 3.51986 44.4532 3.32051 46.892L13.7989 44.2306L11.4937 40.918L3.63226 43.0324Z" fill="#15006D"/>
<path d="M5.29338 55.0903C5.21299 55.0905 5.13449 55.0659 5.06849 55.02C5.00249 54.9742 4.95218 54.9091 4.92438 54.8337L2.52161 47.5215C2.50493 47.4711 2.49876 47.4178 2.5035 47.3649C2.50825 47.312 2.52379 47.2606 2.54918 47.214C2.57519 47.1672 2.61039 47.1262 2.65267 47.0934C2.69495 47.0606 2.74342 47.0367 2.79518 47.0231L14.3424 44.1008C14.3935 44.0883 14.4465 44.0862 14.4983 44.0947C14.5501 44.1032 14.5997 44.1221 14.644 44.1502C14.6884 44.1784 14.7266 44.2151 14.7564 44.2584C14.7862 44.3016 14.807 44.3504 14.8175 44.4019L16.2786 51.7544C16.2982 51.8506 16.2804 51.9507 16.2288 52.0342C16.1771 52.1177 16.0956 52.1784 16.0008 52.204L5.39729 55.0754C5.3634 55.0847 5.3285 55.0896 5.29338 55.0903ZM3.38474 47.6678L5.54362 54.225L15.4431 51.5445L14.1325 44.9469L3.38474 47.6678Z" fill="#15006D"/>
<g style="mix-blend-mode:multiply">
<path d="M23.2902 43.5411C23.2902 43.5411 21.8057 40.2943 17.4625 41.0344C13.0769 41.7809 12.9687 45.384 12.9687 45.384C7.55034 45.8484 7.53125 50.8851 7.53125 50.8851C7.53125 50.8851 16.8221 51.551 23.2902 43.5411Z" fill="#E3E4E5"/>
</g>
<path d="M18.7552 51.424C21.3272 51.424 23.4123 49.339 23.4123 46.7669C23.4123 44.1949 21.3272 42.1099 18.7552 42.1099C16.1832 42.1099 14.0981 44.1949 14.0981 46.7669C14.0981 49.339 16.1832 51.424 18.7552 51.424Z" fill="#FF8080"/>
<path d="M18.7554 51.8116C17.7573 51.8112 16.7818 51.5148 15.9522 50.9598C15.1226 50.4048 14.4763 49.6162 14.095 48.6937C13.7137 47.7713 13.6146 46.7566 13.8102 45.7778C14.0058 44.799 14.4873 43.9003 15.1939 43.1953C15.9004 42.4902 16.8001 42.0106 17.7793 41.8171C18.7585 41.6235 19.773 41.7248 20.6946 42.108C21.6162 42.4912 22.4035 43.1392 22.9567 43.9699C23.51 44.8007 23.8044 45.7769 23.8027 46.775C23.7994 48.1116 23.2662 49.3923 22.32 50.3365C21.3739 51.2806 20.0921 51.8111 18.7554 51.8116ZM18.7554 42.4954C17.9111 42.4954 17.0856 42.7457 16.3834 43.2146C15.6812 43.6835 15.1338 44.3501 14.8103 45.13C14.4868 45.91 14.4017 46.7683 14.5658 47.5966C14.7299 48.4249 15.1359 49.1859 15.7323 49.7836C16.3288 50.3813 17.089 50.7887 17.917 50.9545C18.745 51.1202 19.6035 51.0369 20.3841 50.7149C21.1646 50.3929 21.8323 49.8468 22.3026 49.1455C22.7729 48.4443 23.0249 47.6193 23.0265 46.775C23.0271 46.2135 22.9171 45.6575 22.7027 45.1385C22.4884 44.6196 22.1739 44.148 21.7773 43.7506C21.3807 43.3532 20.9097 43.0378 20.3912 42.8224C19.8727 42.6071 19.3169 42.4959 18.7554 42.4954Z" fill="#15006D"/>
<path d="M26.3983 51.424C28.9703 51.424 31.0554 49.339 31.0554 46.7669C31.0554 44.1949 28.9703 42.1099 26.3983 42.1099C23.8263 42.1099 21.7412 44.1949 21.7412 46.7669C21.7412 49.339 23.8263 51.424 26.3983 51.424Z" fill="#FF8080"/>
<path d="M26.4045 51.8116C25.4061 51.8129 24.4297 51.5179 23.599 50.9639C22.7683 50.4099 22.1207 49.6219 21.7381 48.6996C21.3555 47.7774 21.2552 46.7623 21.4498 45.783C21.6445 44.8037 22.1253 43.9041 22.8315 43.1983C23.5376 42.4924 24.4374 42.0119 25.4168 41.8177C26.3962 41.6235 27.4112 41.7242 28.3333 42.1072C29.2554 42.4902 30.0431 43.1381 30.5968 43.969C31.1504 44.8 31.445 45.7765 31.4433 46.775C31.44 48.1101 30.908 49.3896 29.9637 50.3335C29.0194 51.2774 27.7397 51.8088 26.4045 51.8116ZM26.4045 42.4954C25.5599 42.4941 24.7338 42.7433 24.0308 43.2115C23.3278 43.6797 22.7793 44.3458 22.4548 45.1256C22.1304 45.9055 22.0444 46.764 22.2078 47.5927C22.3712 48.4214 22.7766 49.1831 23.3728 49.7813C23.969 50.3796 24.7293 50.7877 25.5574 50.954C26.3855 51.1203 27.2444 51.0373 28.0253 50.7155C28.8063 50.3937 29.4743 49.8476 29.9449 49.1462C30.4155 48.4448 30.6676 47.6196 30.6693 46.775C30.6704 45.6422 30.2219 44.5552 29.4223 43.7528C28.6227 42.9504 27.5373 42.4982 26.4045 42.4954Z" fill="#15006D"/>
<path d="M13.5614 56.0807C16.1334 56.0807 18.2184 53.9957 18.2184 51.4237C18.2184 48.8516 16.1334 46.7666 13.5614 46.7666C10.9893 46.7666 8.9043 48.8516 8.9043 51.4237C8.9043 53.9957 10.9893 56.0807 13.5614 56.0807Z" fill="#FF8080"/>
<path d="M13.5613 56.4689C12.5634 56.4689 11.588 56.173 10.7583 55.6186C9.92866 55.0642 9.28201 54.2763 8.90016 53.3544C8.5183 52.4325 8.41839 51.4181 8.61306 50.4394C8.80773 49.4608 9.28823 48.5618 9.99381 47.8562C10.6994 47.1507 11.5984 46.6702 12.577 46.4755C13.5557 46.2808 14.5701 46.3807 15.492 46.7626C16.4139 47.1444 17.2018 47.7911 17.7562 48.6208C18.3106 49.4504 18.6064 50.4259 18.6064 51.4237C18.6053 52.7614 18.0734 54.044 17.1275 54.9899C16.1816 55.9358 14.899 56.4677 13.5613 56.4689ZM13.5613 47.1547C12.717 47.1547 11.8916 47.4051 11.1896 47.8742C10.4875 48.3433 9.94036 49.01 9.61725 49.79C9.29414 50.5701 9.2096 51.4284 9.37432 52.2565C9.53904 53.0846 9.94562 53.8453 10.5427 54.4423C11.1397 55.0394 11.9003 55.4459 12.7284 55.6107C13.5565 55.7754 14.4149 55.6908 15.1949 55.3677C15.975 55.0446 16.6417 54.4975 17.1108 53.7954C17.5799 53.0934 17.8303 52.268 17.8303 51.4237C17.8291 50.2918 17.379 49.2067 16.5787 48.4063C15.7783 47.606 14.6931 47.1558 13.5613 47.1547Z" fill="#15006D"/>
<g style="mix-blend-mode:multiply">
<path d="M28.9728 46.7304C28.0294 46.7309 27.1046 46.9931 26.3012 47.4876C25.4978 47.9822 24.8472 48.6898 24.4218 49.5318C23.7457 48.6559 22.8033 48.0234 21.7366 47.7295C20.6699 47.4357 19.5365 47.4964 18.5073 47.9025C17.4781 48.3086 16.6087 49.0382 16.03 49.9813C15.4514 50.9244 15.1949 52.03 15.2991 53.1315C15.4033 54.2331 15.8626 55.271 16.6078 56.0888C17.3531 56.9067 18.3439 57.4602 19.431 57.6662C20.5181 57.8721 21.6427 57.7191 22.6354 57.2304C23.6281 56.7418 24.4352 55.9437 24.935 54.9566C25.4653 55.6439 26.162 56.1846 26.9594 56.5278C27.7568 56.8709 28.6285 57.0051 29.4922 56.9177C30.3559 56.8303 31.183 56.5242 31.8955 56.0283C32.608 55.5323 33.1822 54.8629 33.5641 54.0833C33.946 53.3038 34.1228 52.4397 34.0779 51.5728C34.0329 50.7058 33.7678 49.8647 33.3074 49.1287C32.847 48.3928 32.2066 47.7863 31.4467 47.3667C30.6868 46.947 29.8324 46.728 28.9643 46.7304H28.9728Z" fill="#E3E4E5"/>
</g>
<path d="M28.974 56.9017C31.546 56.9017 33.631 54.8166 33.631 52.2446C33.631 49.6726 31.546 47.5875 28.974 47.5875C26.4019 47.5875 24.3169 49.6726 24.3169 52.2446C24.3169 54.8166 26.4019 56.9017 28.974 56.9017Z" fill="#FF8080"/>
<path d="M28.9742 57.2898C27.9764 57.2894 27.0012 56.9931 26.1718 56.4385C25.3424 55.8839 24.6961 55.0958 24.3146 54.1739C23.9331 53.2519 23.8334 52.2376 24.0284 51.2591C24.2233 50.2805 24.7039 49.3818 25.4096 48.6764C26.1153 47.971 27.0142 47.4907 27.9928 47.2963C28.9714 47.1018 29.9857 47.2018 30.9075 47.5837C31.8293 47.9656 32.6171 48.6123 33.1714 49.4419C33.7256 50.2715 34.0215 51.2469 34.0215 52.2446C34.0204 53.5827 33.4882 54.8656 32.5418 55.8116C31.5954 56.7576 30.3123 57.2892 28.9742 57.2898ZM28.9742 47.9756C28.13 47.9761 27.3048 48.2268 26.6031 48.6961C25.9013 49.1655 25.3545 49.8323 25.0317 50.6124C24.7089 51.3925 24.6247 52.2508 24.7896 53.0788C24.9546 53.9067 25.3613 54.6672 25.9584 55.264C26.5556 55.8608 27.3162 56.2672 28.1443 56.4317C28.9723 56.5963 29.8305 56.5116 30.6105 56.1885C31.3904 55.8653 32.057 55.3181 32.526 54.6161C32.995 53.9141 33.2453 53.0889 33.2453 52.2446C33.2442 51.1124 32.7938 50.0269 31.993 49.2265C31.1921 48.4261 30.1064 47.9762 28.9742 47.9756Z" fill="#15006D"/>
<path d="M20.5287 57.7329C23.1007 57.7329 25.1857 55.6478 25.1857 53.0758C25.1857 50.5037 23.1007 48.4187 20.5287 48.4187C17.9566 48.4187 15.8716 50.5037 15.8716 53.0758C15.8716 55.6478 17.9566 57.7329 20.5287 57.7329Z" fill="#FF8080"/>
<path d="M20.5287 58.1212C19.5304 58.1212 18.5545 57.8251 17.7244 57.2704C16.8943 56.7157 16.2474 55.9273 15.8654 55.0049C15.4835 54.0825 15.3837 53.0676 15.5786 52.0884C15.7735 51.1093 16.2544 50.21 16.9605 49.5042C17.6666 48.7984 18.5661 48.3178 19.5454 48.1233C20.5246 47.9288 21.5395 48.0291 22.4617 48.4114C23.3839 48.7938 24.1721 49.441 24.7264 50.2713C25.2808 51.1016 25.5764 52.0777 25.576 53.076C25.5738 54.4138 25.0412 55.696 24.0951 56.6418C23.149 57.5875 21.8665 58.1195 20.5287 58.1212ZM20.5287 48.8049C19.684 48.8049 18.8582 49.0554 18.1558 49.5247C17.4535 49.994 16.906 50.6611 16.5827 51.4415C16.2595 52.222 16.1749 53.0808 16.3397 53.9093C16.5045 54.7378 16.9113 55.4988 17.5086 56.0961C18.1059 56.6935 18.867 57.1003 19.6955 57.2651C20.524 57.4299 21.3828 57.3453 22.1632 57.022C22.9437 56.6987 23.6107 56.1513 24.08 55.4489C24.5493 54.7465 24.7998 53.9208 24.7998 53.076C24.7993 51.9434 24.3491 50.8574 23.5482 50.0565C22.7474 49.2556 21.6613 48.8055 20.5287 48.8049Z" fill="#15006D"/>
<path d="M31.0557 53.4643C31.0557 53.4643 6.56792 53.0402 3.03906 51.3267L7.19989 75.8463C7.30108 76.5253 7.59908 77.1598 8.05703 77.6713C8.51497 78.1827 9.11279 78.5488 9.77655 78.7241C13.2142 79.6466 20.5158 81.1523 31.0557 81.1523C41.5956 81.1523 48.8972 79.6381 52.337 78.7241C53.0007 78.5485 53.5983 78.1824 54.0563 77.671C54.5142 77.1596 54.8122 76.5252 54.9137 75.8463L59.0639 51.3267C55.0091 53.1377 31.0557 53.4643 31.0557 53.4643Z" fill="white"/>
<path d="M31.0548 81.54C20.4513 81.54 13.1136 80.0109 9.67595 79.099C8.93922 78.9044 8.27566 78.4982 7.76724 77.9306C7.25882 77.363 6.92781 76.6589 6.81511 75.9052L2.65216 51.3898C2.64057 51.3195 2.64848 51.2473 2.67502 51.1811C2.70157 51.115 2.74574 51.0573 2.80273 51.0145C2.85956 50.9719 2.92705 50.9457 2.99777 50.939C3.06849 50.9323 3.1397 50.9452 3.20355 50.9763C6.59668 52.622 30.5607 53.0673 31.0527 53.0758C31.5447 53.0843 54.987 52.7259 58.9103 50.9721C58.9749 50.9431 59.0461 50.9323 59.1164 50.9408C59.1866 50.9494 59.2532 50.977 59.3089 51.0207C59.3646 51.0644 59.4073 51.1224 59.4323 51.1886C59.4574 51.2548 59.4639 51.3266 59.4511 51.3962L55.2945 75.9116C55.1799 76.6628 54.8483 77.3641 54.3404 77.9292C53.8325 78.4944 53.1705 78.8988 52.4358 79.0927C48.9981 80.0109 41.6499 81.54 31.0548 81.54ZM3.53226 51.92L7.58281 75.7822C7.67212 76.3875 7.93686 76.9533 8.3443 77.4098C8.75173 77.8662 9.284 78.1932 9.87529 78.3504C13.2684 79.2517 20.5488 80.7638 31.0548 80.7638C41.5608 80.7638 48.8369 79.2517 52.2364 78.3504C52.8268 78.1937 53.3585 77.8676 53.7658 77.4124C54.1732 76.9572 54.4384 76.3927 54.5289 75.7886L58.5795 51.9137C53.1377 53.5381 31.9985 53.8393 31.0612 53.852H31.0484C30.0941 53.835 8.69406 53.4448 3.53226 51.92Z" fill="#15006D"/>
<path d="M15.9214 44.5633C15.7093 44.8814 15.5078 45.3416 15.5693 45.7339C15.5761 45.7843 15.5932 45.8327 15.6196 45.8762C15.646 45.9196 15.6812 45.957 15.7229 45.9862C15.7646 46.0153 15.8118 46.0354 15.8617 46.0453C15.9116 46.0552 15.9629 46.0546 16.0126 46.0435C16.1949 45.9948 17.9509 43.9843 17.9403 43.7638C17.9403 43.7075 17.9179 43.6536 17.8782 43.6138C17.8384 43.574 17.7845 43.5517 17.7282 43.5517C17.022 43.4542 16.3264 43.9334 15.9214 44.5633Z" fill="#FFE3E3"/>
<path d="M23.6481 44.5633C23.4361 44.8814 23.224 45.3416 23.2961 45.7339C23.3023 45.7839 23.3189 45.8321 23.3447 45.8753C23.3706 45.9185 23.4052 45.9559 23.4463 45.985C23.4874 46.0142 23.5341 46.0344 23.5835 46.0445C23.6328 46.0546 23.6837 46.0542 23.733 46.0435C23.9154 45.9948 25.6734 43.9843 25.6628 43.7638C25.6598 43.7085 25.6364 43.6563 25.5973 43.6172C25.5582 43.5781 25.506 43.5548 25.4507 43.5517C24.753 43.4542 24.0596 43.9334 23.6481 44.5633Z" fill="#FFE3E3"/>
<path d="M26.6002 49.5954C26.3415 49.8754 26.0573 50.2931 26.053 50.6897C26.051 50.7399 26.0593 50.7901 26.0775 50.8369C26.0957 50.8838 26.1234 50.9264 26.1588 50.962C26.1943 50.9976 26.2367 51.0256 26.2835 51.044C26.3302 51.0625 26.3803 51.0711 26.4305 51.0693C26.6193 51.0524 28.6933 49.3728 28.7209 49.1607C28.7265 49.1064 28.7121 49.0519 28.6805 49.0075C28.6489 48.963 28.6022 48.9315 28.5491 48.9189C27.8705 48.6835 27.1049 49.0441 26.6002 49.5954Z" fill="#FFE3E3"/>
<path d="M11.1529 48.9467C10.8963 49.2267 10.61 49.6445 10.6058 50.041C10.6037 50.0914 10.6121 50.1417 10.6304 50.1887C10.6487 50.2357 10.6766 50.2784 10.7123 50.3141C10.748 50.3498 10.7907 50.3777 10.8377 50.396C10.8847 50.4143 10.935 50.4227 10.9854 50.4206C11.172 50.4037 13.2461 48.7241 13.2736 48.512C13.2792 48.4577 13.2649 48.4033 13.2333 48.3588C13.2017 48.3143 13.155 48.2828 13.1019 48.2702C12.4254 48.0476 11.6598 48.3954 11.1529 48.9467Z" fill="#FFE3E3"/>
<path d="M19.0296 50.0262C18.7158 50.2382 18.3425 50.5818 18.2492 50.9677C18.2357 51.0163 18.2324 51.0671 18.2395 51.1169C18.2466 51.1668 18.2639 51.2147 18.2904 51.2575C18.3169 51.3003 18.352 51.3372 18.3934 51.3658C18.4349 51.3944 18.4818 51.4141 18.5313 51.4237C18.7179 51.4513 21.1206 50.2806 21.1949 50.0749C21.213 50.0232 21.2116 49.9666 21.1909 49.9158C21.1702 49.865 21.1316 49.8236 21.0825 49.7992C20.4675 49.4324 19.6468 49.6041 19.0296 50.0262Z" fill="#FFE3E3"/>
<g style="mix-blend-mode:multiply">
<path d="M59.2957 51.7676C50.1177 52.9729 40.871 53.58 31.6141 53.585C26.9868 53.585 22.3629 53.4387 17.7426 53.146C15.4324 53.0047 13.1265 52.8187 10.8248 52.5883C9.67401 52.478 8.52388 52.3571 7.37446 52.2257C6.37348 52.1133 4.91656 51.6382 3.93467 51.8015C3.47235 51.88 3.45327 51.9754 3.39389 52.4377C3.37692 52.5841 3.48508 54.2361 3.50629 54.2382C20.1831 56.0353 36.9901 56.2923 53.714 55.0059C53.1913 59.9909 52.4126 64.9458 51.3813 69.8509C50.8638 72.3066 50.2509 74.8239 48.777 76.8492C47.4003 78.7315 45.3878 80.0508 43.1126 80.5626C46.0477 80.2537 48.9588 79.7493 51.8266 79.0526C52.5943 78.866 53.3896 78.6497 53.9855 78.1301C54.8698 77.3582 55.1201 76.1069 55.3173 74.949L59.2957 51.7676Z" fill="#E3E4E5"/>
</g>
<path d="M1.7798 51.3092C1.78011 51.1972 1.80584 51.0867 1.85504 50.9861C1.90425 50.8855 1.97564 50.7974 2.06385 50.7284C2.15205 50.6594 2.25477 50.6113 2.36426 50.5877C2.47375 50.5642 2.58716 50.5658 2.69594 50.5924C8.5491 52.0196 31.2937 52.3865 31.2937 52.3865C31.2937 52.3865 53.7626 52.1023 59.8914 50.5924C60.0007 50.5656 60.1147 50.5642 60.2247 50.5881C60.3346 50.612 60.4377 50.6606 60.5261 50.7303C60.6144 50.8001 60.6856 50.889 60.7344 50.9904C60.7832 51.0918 60.8082 51.203 60.8076 51.3156V51.6273C60.8084 51.7878 60.7569 51.9442 60.6608 52.0728C60.5648 52.2014 60.4294 52.2951 60.2753 52.3399C54.7721 53.9537 31.2937 54.2485 31.2937 54.2485C31.2937 54.2485 7.44633 53.8625 2.30573 52.3399C2.15296 52.2937 2.01921 52.1993 1.92443 52.0709C1.82964 51.9425 1.77891 51.7869 1.7798 51.6273V51.3092Z" fill="#BEC2DC"/>
<path d="M31.2973 54.6217C30.3112 54.6047 7.33334 54.2166 2.19486 52.7131C1.96255 52.6422 1.75909 52.4987 1.6144 52.3037C1.46972 52.1086 1.39146 51.8723 1.39111 51.6294V51.3155C1.39084 51.1444 1.42942 50.9754 1.50397 50.8213C1.57851 50.6673 1.68706 50.5322 1.82144 50.4262C1.95581 50.3202 2.1125 50.2461 2.27968 50.2095C2.44686 50.1729 2.62017 50.1747 2.78654 50.2149C8.53154 51.6167 31.0725 51.9963 31.2995 51.9984C31.5264 52.0005 53.779 51.7036 59.7975 50.2106C59.964 50.1701 60.1376 50.168 60.305 50.2044C60.4725 50.2409 60.6295 50.3149 60.7641 50.4209C60.8987 50.5269 61.0075 50.6622 61.0822 50.8164C61.1568 50.9707 61.1954 51.1399 61.1951 51.3113V51.623C61.1944 51.867 61.1153 52.1043 60.9694 52.2998C60.8236 52.4953 60.6186 52.6387 60.385 52.7088C54.8923 54.31 32.258 54.609 31.2973 54.6217ZM2.51721 50.9529C2.4708 50.9532 2.4249 50.9626 2.38216 50.9807C2.33941 50.9988 2.30067 51.0251 2.26815 51.0582C2.23562 51.0913 2.20997 51.1306 2.19266 51.1736C2.17536 51.2167 2.16673 51.2627 2.16729 51.3092V51.623C2.16652 51.6985 2.19001 51.7722 2.2343 51.8333C2.27859 51.8944 2.34134 51.9396 2.4133 51.9623C7.44574 53.4468 31.0619 53.8413 31.2995 53.8455C31.537 53.8498 54.7757 53.5359 60.1665 51.9581C60.2398 51.9361 60.3041 51.8909 60.3496 51.8294C60.3951 51.7678 60.4194 51.6932 60.4189 51.6167V51.3049C60.4188 51.2502 60.4064 51.1962 60.3825 51.147C60.3587 51.0978 60.324 51.0546 60.2811 51.0207C60.2395 50.9885 60.1913 50.9661 60.1399 50.955C60.0885 50.944 60.0352 50.9447 59.9842 50.9571C53.8808 52.4713 32.2177 52.7576 31.2973 52.7682C30.377 52.7788 8.43187 52.3844 2.60416 50.9635C2.57579 50.956 2.54654 50.9525 2.51721 50.9529Z" fill="#15006D"/>
<path d="M19.229 63.6436C19.1717 63.6043 19.1077 63.5756 19.0403 63.5588C18.9267 63.5301 18.8096 63.5172 18.6925 63.5206C18.5701 63.5175 18.4479 63.5325 18.3299 63.5651C18.2917 63.5753 18.256 63.5929 18.2247 63.6169C18.1934 63.6409 18.1671 63.6709 18.1475 63.7051C18.1141 63.7644 18.0911 63.8289 18.0796 63.896C18.0696 63.984 18.0654 64.0725 18.0669 64.1611V65.8301H15.8741V64.1653C15.879 64.0327 15.8662 63.9 15.8359 63.7708C15.7765 63.6033 15.5729 63.5164 15.2315 63.5164C14.8901 63.5164 14.7268 63.5779 14.6631 63.7009C14.6302 63.7605 14.6066 63.8249 14.5932 63.8917C14.5887 63.98 14.5887 64.0685 14.5932 64.1568V68.534C14.5875 68.6663 14.6025 68.7986 14.6377 68.9263C14.6928 69.0959 14.8943 69.1829 15.2336 69.1829C15.5729 69.1829 15.7383 69.1214 15.802 68.9984C15.8368 68.9396 15.8605 68.8749 15.872 68.8075C15.882 68.7188 15.8862 68.6296 15.8847 68.5403V66.8798H18.0669V68.534C18.0612 68.6663 18.0763 68.7986 18.1114 68.9263C18.1666 69.0959 18.368 69.1829 18.7095 69.1829C19.0509 69.1829 19.2142 69.1214 19.2778 68.9984C19.3115 68.9385 19.3345 68.8732 19.3457 68.8054C19.3558 68.7174 19.36 68.6289 19.3584 68.5403V64.1653C19.3634 64.0327 19.3505 63.9 19.3202 63.7708C19.3009 63.7215 19.2696 63.6778 19.229 63.6436Z" fill="#471BB1"/>
<path d="M36.3457 63.6436C36.2884 63.6043 36.2244 63.5756 36.157 63.5588C36.0434 63.5301 35.9263 63.5172 35.8092 63.5206C35.6868 63.5175 35.5646 63.5325 35.4466 63.5651C35.4084 63.5753 35.3727 63.5929 35.3414 63.6169C35.3101 63.6409 35.2838 63.6709 35.2642 63.7051C35.2308 63.7644 35.2078 63.8289 35.1963 63.896C35.1863 63.984 35.1821 64.0725 35.1836 64.1611V65.8301H32.9908V64.1653C32.9957 64.0327 32.9829 63.9 32.9526 63.7708C32.8932 63.6033 32.6896 63.5164 32.3482 63.5164C32.0068 63.5164 31.8435 63.5779 31.7798 63.7009C31.7469 63.7605 31.7233 63.8249 31.7099 63.8917C31.7054 63.98 31.7054 64.0685 31.7099 64.1568V68.534C31.7042 68.6663 31.7192 68.7986 31.7544 68.9263C31.8095 69.0959 32.011 69.1829 32.3503 69.1829C32.6896 69.1829 32.855 69.1214 32.9187 68.9984C32.9535 68.9396 32.9772 68.8749 32.9887 68.8075C32.9987 68.7188 33.0029 68.6296 33.0014 68.5403V66.8798H35.1836V68.534C35.1779 68.6663 35.193 68.7986 35.2281 68.9263C35.2833 69.0959 35.4847 69.1829 35.8262 69.1829C36.1676 69.1829 36.3309 69.1214 36.3945 68.9984C36.4282 68.9385 36.4512 68.8732 36.4624 68.8054C36.4725 68.7174 36.4767 68.6289 36.4751 68.5403V64.1653C36.4801 64.0327 36.4672 63.9 36.4369 63.7708C36.4176 63.7215 36.3863 63.6778 36.3457 63.6436Z" fill="#471BB1"/>
<path d="M23.8462 65.5222C23.8277 65.4881 23.8023 65.4583 23.7716 65.4346C23.741 65.4108 23.7057 65.3937 23.6681 65.3844C23.524 65.348 23.3755 65.3323 23.227 65.3377C22.8707 65.3377 22.6841 65.4671 22.6565 65.7322L22.6417 65.8721L22.5611 65.7576C22.5214 65.702 22.4759 65.6509 22.4253 65.6049C22.3385 65.5333 22.2403 65.4767 22.1348 65.4374C21.9863 65.3758 21.8269 65.3448 21.6661 65.3462C21.4271 65.3537 21.1923 65.4112 20.9768 65.5149C20.7613 65.6186 20.5699 65.7663 20.4149 65.9485C20.0489 66.3263 19.8442 66.8317 19.8442 67.3577C19.8442 67.8837 20.0489 68.3891 20.4149 68.7669C20.5662 68.9478 20.7535 69.0951 20.9649 69.1995C21.1764 69.304 21.4072 69.3632 21.6428 69.3734C22.0669 69.3734 22.3893 69.2398 22.5738 68.9768L22.6523 68.8644L22.6692 69.0023C22.6721 69.056 22.6869 69.1085 22.7126 69.1558C22.7383 69.2031 22.7742 69.2441 22.8177 69.2759C22.9863 69.3575 23.1741 69.3913 23.3606 69.3734C23.6257 69.3734 23.7847 69.3119 23.8547 69.1953C23.8852 69.1353 23.9059 69.0709 23.9162 69.0044C23.9218 68.9161 23.9218 68.8276 23.9162 68.7393V65.9824C23.9218 65.8941 23.9218 65.8056 23.9162 65.7173C23.9037 65.6489 23.8801 65.583 23.8462 65.5222ZM22.3935 67.8677C22.3283 67.9421 22.2477 68.0013 22.1572 68.0412C22.0667 68.0812 21.9686 68.1008 21.8697 68.0989C21.7703 68.1 21.6717 68.0806 21.5801 68.0419C21.4886 68.0033 21.4059 67.9461 21.3374 67.8741C21.2701 67.808 21.2167 67.7291 21.1802 67.642C21.1438 67.555 21.1252 67.4616 21.1253 67.3672C21.1296 67.1751 21.2052 66.9914 21.3374 66.8519C21.4047 66.7739 21.4885 66.7119 21.5828 66.6704C21.6771 66.6289 21.7795 66.6091 21.8824 66.6122C21.9842 66.6086 22.0855 66.6284 22.1785 66.6699C22.2715 66.7114 22.3537 66.7737 22.419 66.8519C22.5442 66.9929 22.6142 67.1744 22.6162 67.363C22.6105 67.5538 22.5306 67.7348 22.3935 67.8677Z" fill="#471BB1"/>
<path d="M40.9644 65.5222C40.9459 65.4881 40.9205 65.4583 40.8898 65.4346C40.8591 65.4108 40.8239 65.3937 40.7862 65.3844C40.6422 65.348 40.4936 65.3323 40.3451 65.3377C39.9889 65.3377 39.8022 65.4671 39.7747 65.7322L39.7598 65.8721L39.6792 65.7576C39.6395 65.702 39.594 65.6509 39.5435 65.6049C39.4566 65.5333 39.3584 65.4767 39.253 65.4374C39.1044 65.3758 38.9451 65.3448 38.7843 65.3462C38.5453 65.3537 38.3104 65.4112 38.0949 65.5149C37.8794 65.6186 37.6881 65.7663 37.5331 65.9485C37.1671 66.3263 36.9624 66.8317 36.9624 67.3577C36.9624 67.8837 37.1671 68.3891 37.5331 68.7669C37.6844 68.9478 37.8717 69.0951 38.0831 69.1995C38.2945 69.304 38.5254 69.3632 38.761 69.3734C39.1851 69.3734 39.5075 69.2398 39.692 68.9768L39.7704 68.8644L39.7874 69.0023C39.7903 69.056 39.8051 69.1085 39.8308 69.1558C39.8564 69.2031 39.8923 69.2441 39.9358 69.2759C40.1044 69.3575 40.2923 69.3913 40.4787 69.3734C40.7438 69.3734 40.9029 69.3119 40.9729 69.1953C41.0033 69.1353 41.0241 69.0709 41.0344 69.0044C41.0399 68.9161 41.0399 68.8276 41.0344 68.7393V65.9824C41.04 65.8941 41.04 65.8056 41.0344 65.7173C41.0219 65.6489 40.9982 65.583 40.9644 65.5222ZM39.5117 67.8677C39.4465 67.9421 39.3658 68.0013 39.2754 68.0412C39.1849 68.0812 39.0868 68.1008 38.9879 68.0989C38.8885 68.1 38.7899 68.0806 38.6983 68.0419C38.6067 68.0033 38.5241 67.9461 38.4556 67.8741C38.3883 67.808 38.3348 67.7291 38.2984 67.642C38.262 67.555 38.2433 67.4616 38.2435 67.3672C38.2478 67.1751 38.3234 66.9914 38.4556 66.8519C38.5228 66.7739 38.6067 66.7119 38.701 66.6704C38.7953 66.6289 38.8976 66.6091 39.0006 66.6122C39.1024 66.6086 39.2036 66.6284 39.2966 66.6699C39.3896 66.7114 39.4719 66.7737 39.5371 66.8519C39.6623 66.9929 39.7324 67.1744 39.7344 67.363C39.7286 67.5538 39.6487 67.7348 39.5117 67.8677Z" fill="#471BB1"/>
<path d="M26.4346 68.4341C26.3998 68.4071 26.3602 68.387 26.318 68.3747C26.2478 68.3638 26.1768 68.3602 26.1059 68.3641C26.0585 68.3706 26.0102 68.3649 25.9657 68.3474C25.9211 68.33 25.8818 68.3014 25.8514 68.2644C25.7997 68.142 25.7807 68.0083 25.7963 67.8763V64.2266C25.7963 64.1078 25.7963 64.0145 25.7963 63.9572C25.7853 63.8884 25.7615 63.8222 25.7263 63.7621C25.6584 63.6413 25.4718 63.5776 25.1749 63.5776C24.878 63.5776 24.6702 63.6391 24.6065 63.7621C24.5761 63.8221 24.5553 63.8865 24.545 63.953C24.5351 64.041 24.5308 64.1295 24.5323 64.2181V67.9823C24.504 68.3951 24.5768 68.8086 24.7444 69.1869C24.8568 69.3863 25.1092 69.5114 25.4951 69.5623C26.1165 69.6386 26.3434 69.5835 26.4346 69.5241C26.5258 69.4647 26.5703 69.3481 26.5703 68.96C26.5682 68.5952 26.4961 68.4722 26.4346 68.4341Z" fill="#471BB1"/>
<path d="M43.5523 68.4341C43.5174 68.4071 43.4779 68.387 43.4356 68.3747C43.3655 68.3638 43.2944 68.3602 43.2236 68.3641C43.1762 68.3706 43.1279 68.3649 43.0833 68.3474C43.0388 68.33 42.9994 68.3014 42.9691 68.2644C42.9173 68.142 42.8983 68.0083 42.9139 67.8763V64.2266C42.9139 64.1078 42.9139 64.0145 42.9139 63.9572C42.903 63.8884 42.8792 63.8222 42.844 63.7621C42.7761 63.6413 42.5895 63.5776 42.2926 63.5776C41.9957 63.5776 41.7878 63.6391 41.7242 63.7621C41.6938 63.8221 41.673 63.8865 41.6627 63.953C41.6527 64.041 41.6485 64.1295 41.65 64.2181V67.9823C41.6217 68.3951 41.6945 68.8086 41.8621 69.1869C41.9745 69.3863 42.2268 69.5114 42.6128 69.5623C43.2342 69.6386 43.4611 69.5835 43.5523 69.5241C43.6435 69.4647 43.688 69.3481 43.688 68.96C43.6859 68.5952 43.6138 68.4722 43.5523 68.4341Z" fill="#471BB1"/>
<path d="M28.901 65.4375C28.3464 65.4365 27.8135 65.6527 27.4165 66.0398C27.2079 66.2335 27.0431 66.4695 26.9334 66.7322C26.8237 66.9948 26.7714 67.2779 26.7803 67.5625C26.7756 67.9539 26.8895 68.3376 27.1068 68.6631C27.3073 68.9743 27.584 69.2291 27.9106 69.4032C28.2127 69.5642 28.5494 69.6496 28.8917 69.6522C29.2341 69.6548 29.5719 69.5745 29.8765 69.4181C30.2045 69.2507 30.482 68.9989 30.6802 68.6885C30.9409 68.2781 31.0526 67.7905 30.9966 67.3076C30.9406 66.8246 30.7203 66.3755 30.3727 66.0355C29.9795 65.6509 29.451 65.4362 28.901 65.4375ZM29.4375 68.1626C29.2822 68.2924 29.0883 68.367 28.8861 68.3747C28.6857 68.3675 28.4936 68.2928 28.3411 68.1626C28.2494 68.0892 28.1767 67.9948 28.1291 67.8874C28.0815 67.78 28.0604 67.6627 28.0675 67.5455C28.0603 67.4287 28.0804 67.3119 28.1265 67.2044C28.1725 67.0968 28.2431 67.0016 28.3326 66.9262C28.489 66.7914 28.6881 66.7162 28.8946 66.7142C29.0987 66.7158 29.2961 66.7869 29.4545 66.9156C29.5385 66.9962 29.605 67.0931 29.65 67.2005C29.6949 67.3078 29.7173 67.4233 29.7157 67.5396C29.7141 67.656 29.6886 67.7708 29.6407 67.8769C29.5929 67.983 29.5237 68.0781 29.4375 68.1563V68.1626Z" fill="#471BB1"/>
<path d="M46.0181 65.4375C45.4636 65.4365 44.9307 65.6527 44.5337 66.0398C44.325 66.2335 44.1603 66.4695 44.0506 66.7322C43.9408 66.9948 43.8886 67.2779 43.8974 67.5625C43.8928 67.9539 44.0066 68.3376 44.224 68.6631C44.4245 68.9743 44.7012 69.2291 45.0278 69.4032C45.3299 69.5642 45.6666 69.6496 46.0089 69.6522C46.3512 69.6548 46.6891 69.5745 46.9937 69.4181C47.3217 69.2507 47.5992 68.9989 47.7974 68.6885C48.0581 68.2781 48.1697 67.7905 48.1138 67.3076C48.0578 66.8246 47.8375 66.3755 47.4899 66.0355C47.0967 65.6509 46.5682 65.4362 46.0181 65.4375ZM46.5547 68.1626C46.3994 68.2924 46.2055 68.367 46.0033 68.3747C45.8029 68.3675 45.6108 68.2928 45.4583 68.1626C45.3666 68.0892 45.2939 67.9948 45.2463 67.8874C45.1987 67.78 45.1776 67.6627 45.1847 67.5455C45.1774 67.4287 45.1976 67.3119 45.2437 67.2044C45.2897 67.0968 45.3603 67.0016 45.4498 66.9262C45.6062 66.7914 45.8053 66.7162 46.0118 66.7142C46.2159 66.7158 46.4133 66.7869 46.5717 66.9156C46.6557 66.9962 46.7222 67.0931 46.7672 67.2005C46.8121 67.3078 46.8345 67.4233 46.8329 67.5396C46.8313 67.656 46.8058 67.7708 46.7579 67.8769C46.71 67.983 46.6409 68.0781 46.5547 68.1563V68.1626Z" fill="#471BB1"/>
</svg>
