<svg width="154" height="170" viewBox="0 0 154 170" fill="none" xmlns="http://www.w3.org/2000/svg">
<path d="M34.6589 124.344C35.7036 125.905 35.1812 127.544 34.2255 128.474C33.6809 128.994 32.8918 129.371 32.0583 129.371C31.447 129.371 30.8135 129.171 30.2134 128.74C21.1445 122.129 14.6095 112.529 11.7533 101.711C11.4976 100.759 11.7533 99.7513 12.4201 99.0315C13.0869 98.2786 14.0983 97.9021 15.1096 98.0793C17.3102 98.4004 19.9108 98.7769 22.7893 99.1201C24.2341 99.2973 25.4233 100.36 25.7678 101.8L34.6589 124.344ZM119.58 85.9105C108.855 87.7042 87.283 90.7049 63.0437 90.7049C38.8044 90.7049 17.1879 87.7042 6.50753 85.9105C6.18523 85.8551 5.87403 85.8219 5.58507 85.8219C4.14027 85.8219 2.72881 86.3644 1.65077 87.3831C0.439361 88.5347 -0.138558 90.1291 0.0281499 91.7347C2.91775 116.283 19.9108 138.583 42.2719 147.209C42.6164 147.353 42.8498 147.607 42.9054 147.984C42.961 148.36 42.8498 148.704 42.5608 148.936C39.2378 151.881 37.104 155.624 36.2037 160.097C35.9703 161.249 36.2593 162.434 37.015 163.353C37.7708 164.25 38.8377 164.77 40.0158 164.77H86.0382C87.1941 164.77 88.2943 164.25 89.039 163.353C89.7947 162.434 90.0837 161.249 89.8503 160.097C88.9501 155.657 86.8162 151.904 83.4932 148.936C83.2042 148.704 83.0931 148.327 83.1486 147.984C83.2042 147.641 83.4376 147.353 83.7821 147.209C106.143 138.583 123.136 116.283 126.026 91.7347C126.226 90.1181 125.648 88.5347 124.437 87.3831C123.125 86.1762 121.336 85.6226 119.58 85.9105Z" fill="#471BB2"/>
<path d="M124.481 22.2432L120.636 17.6037C118.524 15.0349 114.712 14.6916 112.167 16.7954L95.2961 30.7027L104.687 12.4992C106.221 9.55389 105.032 5.92206 102.087 4.39403L96.7075 1.62586C93.7623 0.0978342 90.117 1.28261 88.5944 4.21686L76.258 28.1338C71.9236 27.0708 67.4225 26.484 62.7325 26.484C33.6142 26.484 9.71943 48.8397 7.31883 77.3186L7.86342 77.374C18.2882 79.1013 39.2934 82.0134 62.8992 82.0466C63.7327 82.0466 64.544 82.0466 65.3887 82.0134C66 82.0134 66.5779 82.0134 67.178 81.9802C67.8671 81.9802 68.5339 81.947 69.2007 81.947C70.0121 81.9138 70.8234 81.9137 71.6236 81.8916L72.1459 81.8584C91.9619 81.2494 109.044 78.8577 118.113 77.3297H118.202C117.224 65.4155 112.456 54.5975 105.11 45.994L123.659 30.6805C126.248 28.5878 126.593 24.812 124.481 22.2432Z" fill="#471BB2"/>
<circle cx="116.45" cy="132.008" r="37.036" fill="#FF1564"/>
<path d="M124.142 127.354C125.095 127.873 126.021 128.283 126.811 128.829C130.026 131.124 131.034 134.43 130.598 138.173C129.944 143.883 126.757 146.943 121.09 147.735C118.175 148.145 115.424 147.762 112.754 146.56C112.454 146.423 112.155 146.341 111.664 146.15C111.664 146.642 111.664 146.997 111.664 147.352C111.664 149.757 111.637 152.188 111.664 154.592C111.664 155.275 111.528 155.576 110.765 155.576C108.913 155.521 107.033 155.548 105.153 155.576C104.472 155.576 104.281 155.357 104.281 154.674C104.308 143.063 104.227 131.479 104.336 119.868C104.39 115.961 106.27 112.82 109.703 110.934C114.497 108.312 119.51 108.312 124.332 110.852C129.563 113.585 131.143 122.272 125.286 126.48C124.932 126.753 124.55 127.026 124.142 127.354ZM115.07 125.004C115.805 125.004 116.404 125.032 117.031 125.004C119.374 124.922 120.927 123.611 121.308 121.289C121.39 120.797 121.39 120.278 121.39 119.759C121.363 117.491 120.464 116.071 118.693 115.388C116.759 114.623 114.443 115.142 113.054 116.617C111.964 117.792 111.664 119.267 111.664 120.77C111.637 126.971 111.637 133.2 111.637 139.429C111.637 140.058 111.828 140.44 112.427 140.686C114.416 141.56 116.486 141.834 118.611 141.588C119.973 141.424 121.254 140.85 122.071 139.648C123.515 137.517 123.379 135.249 122.343 133.037C121.363 131.069 119.537 130.523 117.467 130.496C116.677 130.496 115.86 130.496 115.042 130.496C115.07 128.611 115.07 126.862 115.07 125.004Z" fill="white"/>
</svg>
