<svg width="28" height="37" viewBox="0 0 28 37" fill="none" xmlns="http://www.w3.org/2000/svg">
<path d="M25.9999 19.2382C23.6704 19.6265 18.9745 20.2735 13.7056 20.2735C8.43658 20.2735 3.74072 19.6265 1.41128 19.2382C1.33733 19.2197 1.28186 19.2197 1.20791 19.2197C0.893621 19.2197 0.579331 19.3307 0.35748 19.5525C0.0986525 19.8113 -0.0307611 20.1441 0.00621423 20.4954C0.634794 25.8383 4.33232 30.7006 9.19458 32.5863C9.26853 32.6233 9.32399 32.6787 9.34248 32.7527C9.36097 32.8266 9.32399 32.9006 9.26853 32.9561C8.54751 33.6031 8.08532 34.4166 7.88195 35.3779C7.82649 35.6368 7.90044 35.8956 8.04834 36.0805C8.21473 36.2838 8.45507 36.3948 8.69541 36.3948H18.7157C18.9745 36.3948 19.2149 36.2838 19.3628 36.0805C19.5292 35.8771 19.5846 35.6183 19.5292 35.3779C19.3258 34.4166 18.8636 33.5846 18.1426 32.9561C18.0871 32.9006 18.0502 32.8266 18.0686 32.7527C18.0871 32.6787 18.1426 32.6048 18.2166 32.5863C23.0788 30.7006 26.7763 25.8568 27.4049 20.4954C27.4419 20.1441 27.3125 19.7928 27.0536 19.5525C26.7948 19.2937 26.3881 19.1828 25.9999 19.2382ZM7.53069 27.6131C7.75254 27.9459 7.64161 28.3157 7.43825 28.519C7.32732 28.6299 7.14245 28.7224 6.95757 28.7224C6.82816 28.7224 6.68026 28.6854 6.55084 28.593C4.59115 27.1509 3.1676 25.0618 2.53902 22.6954C2.48356 22.492 2.53902 22.2702 2.68692 22.1038C2.83483 21.9374 3.05668 21.8635 3.27853 21.9004C3.75921 21.9744 4.31384 22.0483 4.9609 22.1223C5.27519 22.1593 5.53402 22.3996 5.60797 22.6954L7.53069 27.6131Z" fill="#471BB1"/>
<path d="M27.0722 5.37252L26.2402 4.3557C25.778 3.80107 24.9461 3.72712 24.3915 4.18931L20.7309 7.22128L22.7646 3.24644C23.0973 2.59937 22.8385 1.8044 22.1914 1.49011L21.0267 0.88002C20.3796 0.547242 19.5847 0.806069 19.2704 1.45314L16.5897 6.64817C15.6468 6.40783 14.667 6.27841 13.6501 6.27841C7.30888 6.2969 2.11385 11.1592 1.59619 17.371C1.63317 17.371 1.67014 17.371 1.70712 17.3895C3.9811 17.7777 8.54755 18.4063 13.6871 18.4063C13.872 18.4063 14.0384 18.4063 14.2233 18.4063C14.3527 18.4063 14.4821 18.4063 14.6115 18.4063C14.7594 18.4063 14.9073 18.4063 15.0552 18.4063C15.2401 18.4063 15.4065 18.4063 15.5913 18.3878C15.6283 18.3878 15.6653 18.3878 15.7023 18.3878C20.0099 18.2584 23.7259 17.7408 25.7041 17.408H25.7226C25.5007 14.8197 24.4654 12.4533 22.8755 10.586L26.9058 7.22128C27.4604 6.75909 27.5344 5.92715 27.0722 5.37252Z" fill="#471BB1"/>
</svg>
