<svg width="67" height="71" viewBox="0 0 67 71" fill="none" xmlns="http://www.w3.org/2000/svg">
<path opacity="0.25" d="M33 66C51.2254 66 66 51.2254 66 33C66 14.7746 51.2254 0 33 0C14.7746 0 0 14.7746 0 33C0 51.2254 14.7746 66 33 66Z" fill="url(#paint0_radial)"/>
<path d="M25.5898 40.0504L38.5642 66.544C39.075 67.5656 38.6323 68.8256 37.6107 69.3023L36.521 69.8472C35.4994 70.358 34.2394 69.9153 33.7627 68.8937L20.7883 42.4C20.2775 41.3784 20.7202 40.1185 21.7418 39.6417L22.8315 39.0969C23.8531 38.5861 25.079 39.0287 25.5898 40.0504Z" fill="white"/>
<path d="M35.6016 70.6637C35.2951 70.6637 35.0226 70.6297 34.7502 70.5275C34.0691 70.2891 33.5243 69.8124 33.2178 69.1654L20.2434 42.6717C19.5964 41.3436 20.1413 39.7431 21.4693 39.1302L22.5591 38.5853C23.2061 38.2788 23.9212 38.2448 24.6023 38.4491C25.2833 38.6875 25.8282 39.1642 26.1347 39.8112L39.1091 66.3049C39.4156 66.9519 39.4496 67.667 39.2453 68.3481C39.0069 69.0291 38.5302 69.574 37.8831 69.8805L36.7934 70.4253C36.4188 70.5616 36.0102 70.6637 35.6016 70.6637ZM23.7169 39.4707C23.4785 39.4707 23.2742 39.5048 23.0699 39.6069L21.9801 40.1518C21.231 40.5264 20.9245 41.4118 21.2991 42.1269L34.2735 68.6205C34.4437 68.961 34.7502 69.2335 35.1248 69.3697C35.4994 69.5059 35.908 69.4718 36.2486 69.3016L37.3383 68.7567C37.6788 68.5864 37.9513 68.28 38.0875 67.9054C38.2237 67.5308 38.1896 67.1222 38.0194 66.7816L25.045 40.288C24.8747 39.9475 24.5682 39.675 24.1936 39.5388C24.0574 39.5048 23.8871 39.4707 23.7169 39.4707Z" fill="#15006D"/>
<path opacity="0.2" d="M24.534 40.5612L37.5084 67.0549C38.0192 68.0765 37.5765 69.3364 36.5549 69.8132L36.3846 69.8813C36.1462 69.9835 35.9079 70.0516 35.6695 70.0856C36.2484 69.4727 36.4187 68.5532 36.01 67.77L27.1221 49.6195C26.8496 49.0405 26.2367 48.7341 25.5897 48.8362C25.0107 48.9384 24.4318 48.9724 23.8529 49.0065L20.6519 42.4342C20.2773 41.6509 20.4135 40.7315 20.9924 40.1185C21.0265 40.0845 21.0605 40.0164 21.1286 39.9823C21.1627 39.9823 21.1627 39.9483 21.1968 39.9483C21.2308 39.9142 21.2989 39.8802 21.333 39.8461C21.367 39.8461 21.367 39.812 21.4011 39.812L21.4351 39.778C21.4692 39.778 21.5032 39.7439 21.5032 39.7439C21.5373 39.7439 21.5713 39.7099 21.5713 39.7099L21.7416 39.6418C22.7973 39.131 24.0232 39.5396 24.534 40.5612Z" fill="#15006D"/>
<path opacity="0.3" d="M21.1289 40.0835C21.163 40.0494 21.197 39.9813 21.2651 39.9473C21.197 39.9813 21.163 40.0494 21.1289 40.0835Z" fill="#15006D"/>
<path d="M32.094 23.1239C32.9113 24.7926 33.4221 26.5633 33.6264 28.3001C34.3756 34.8383 31.0383 41.4107 24.7725 44.4755C18.5407 47.5403 11.2533 46.1441 6.55387 41.5128C5.29389 40.2869 4.23823 38.8226 3.3869 37.1199C2.87609 36.0983 2.5015 35.0427 2.22908 33.987C0.42424 26.8358 3.79554 19.1397 10.7084 15.7684C17.6213 12.3971 25.7941 14.4743 30.3232 20.2975C31.0043 21.1829 31.6173 22.1023 32.094 23.1239Z" fill="#4BE1D9"/>
<path opacity="0.2" d="M30.834 22.273C31.6513 23.9416 32.1621 25.7124 32.3664 27.4491C33.1156 33.9874 29.7783 40.5597 23.5125 43.6245C20.3455 45.191 16.9061 45.5656 13.671 44.9867C15.3397 44.7823 17.0083 44.2715 18.6428 43.4883C21.7077 41.9899 24.0574 39.6743 25.5898 36.8819C24.5001 37.597 23.3082 38.2441 22.0823 38.857C17.5531 41.0705 12.99 42.1943 9.0057 42.2624C8.86949 42.2624 8.76733 42.2624 8.63111 42.2624C8.15436 42.2624 7.67762 42.2624 7.23492 42.2283C7.16681 42.2283 7.06465 42.2283 6.96249 42.1943C6.72412 41.9559 6.5198 41.7175 6.28142 41.4791C5.29387 40.3894 4.47659 39.1635 3.79551 37.8014C3.28471 36.7798 2.91012 35.7241 2.6377 34.6684H2.67175C3.76146 34.7706 4.91928 34.8047 6.11115 34.7365C9.89109 34.5322 14.1818 33.4085 18.4385 31.3652C21.4693 29.9009 24.1255 28.0961 26.2708 26.121C26.5773 25.8486 26.8497 25.5762 27.1562 25.3037C28.4503 24.0437 29.574 22.7157 30.4254 21.3535C30.5275 21.6941 30.6978 22.0005 30.834 22.273Z" fill="#15006D"/>
<path opacity="0.2" d="M32.0939 23.1244C32.162 23.2266 32.1961 23.3628 32.2642 23.4649C31.7874 22.5796 31.2766 21.7282 30.6637 20.979C30.6637 20.979 30.6637 20.979 30.6637 21.0131C29.7442 22.4774 28.5523 23.9757 27.1221 25.3719C26.8497 24.2822 26.4751 23.1925 25.9643 22.1369C24.0913 18.3229 20.8903 15.5645 17.1785 14.2024C23.274 13.964 29.2334 17.3013 32.0939 23.1244Z" fill="#15006D"/>
<path opacity="0.6" d="M23.1039 15.1221C19.6304 14.3049 15.8505 14.6113 12.4111 16.314C4.47662 20.1961 1.20748 29.7311 5.08958 37.6656C5.15769 37.8018 5.22579 37.938 5.2939 38.0742C4.8512 38.0742 4.37446 38.1083 3.93176 38.1423C3.76149 37.8358 3.59122 37.5294 3.42096 37.1888C-0.461143 29.2543 2.84205 19.6853 10.7425 15.8032C14.7608 13.8622 19.1877 13.7259 23.1039 15.1221Z" fill="white"/>
<path d="M17.7914 46.7228C11.6618 46.7228 5.77055 43.3175 2.91005 37.4603C-1.10826 29.2534 2.29709 19.3438 10.504 15.3255C14.4882 13.3844 18.9493 13.112 23.1378 14.5423C27.3264 15.9725 30.6977 18.9692 32.6388 22.9194C36.6571 31.1263 33.2517 41.0359 25.0448 45.0542C22.6951 46.178 20.2433 46.7228 17.7914 46.7228ZM17.7574 14.7806C15.4417 14.7806 13.1602 15.2914 11.0148 16.3471C7.33701 18.1519 4.54462 21.2849 3.21653 25.167C1.88845 29.0491 2.16088 33.2376 3.96571 36.9154C7.67754 44.5434 16.906 47.7104 24.534 43.9645C32.162 40.2527 35.329 31.0242 31.5831 23.3962C29.7783 19.7184 26.6454 16.926 22.7633 15.5979C21.1287 15.0531 19.426 14.7806 17.7574 14.7806Z" fill="#15006D"/>
<path d="M33.4903 23.0223C33.6265 23.2947 33.7287 23.5331 33.8649 23.8055C34.1033 24.3504 34.0692 24.9293 33.7968 25.4401C32.0941 28.6071 29.0293 31.8081 25.011 34.4643C23.7851 35.2816 22.4229 36.0307 21.0267 36.7459C16.4976 38.9593 11.9344 40.0831 7.95017 40.1512C7.81396 40.1512 7.7118 40.1512 7.57558 40.1512C6.41776 40.1512 5.32805 40.0831 4.30645 39.9128C3.72754 39.8107 3.25079 39.4701 2.97836 38.9593C2.84214 38.721 2.70593 38.4485 2.56972 38.1761C1.78649 36.5756 1.27568 34.941 1.03731 33.2724C0.969201 32.8978 1.30974 32.5573 1.68432 32.5913C2.77404 32.6935 3.93186 32.7275 5.12373 32.6594C8.90367 32.4551 13.1944 31.3314 17.4511 29.2881C20.4819 27.8238 23.138 26.019 25.2834 24.0439C27.1223 22.4093 28.6207 20.6385 29.7104 18.8678C29.9147 18.5272 30.3914 18.4932 30.6639 18.7656C31.7195 20.0256 32.7071 21.4558 33.4903 23.0223Z" fill="#FF1564"/>
<path d="M33.4903 23.0223C33.6265 23.2947 33.7287 23.5331 33.8649 23.8055C34.1033 24.3504 34.0692 24.9293 33.7968 25.4401C32.0941 28.6071 29.0293 31.8081 25.011 34.4643C23.7851 35.2816 22.4229 36.0307 21.0267 36.7459C16.4976 38.9593 11.9344 40.0831 7.95017 40.1512C7.81396 40.1512 7.7118 40.1512 7.57558 40.1512C6.41776 40.1512 5.32805 40.0831 4.30645 39.9128C3.72754 39.8107 3.25079 39.4701 2.97836 38.9593C2.84214 38.721 2.70593 38.4485 2.56972 38.1761C1.78649 36.5756 1.27568 34.941 1.03731 33.2724C0.969201 32.8978 1.30974 32.5573 1.68432 32.5913C2.77404 32.6935 3.93186 32.7275 5.12373 32.6594C8.90367 32.4551 13.1944 31.3314 17.4511 29.2881C20.4819 27.8238 23.138 26.019 25.2834 24.0439C27.1223 22.4093 28.6207 20.6385 29.7104 18.8678C29.9147 18.5272 30.3914 18.4932 30.6639 18.7656C31.7195 20.0256 32.7071 21.4558 33.4903 23.0223Z" fill="#3DD3C8"/>
<path opacity="0.6" d="M7.71181 40.0837C6.55399 40.0837 5.46428 40.0156 4.44268 39.8453C3.86377 39.7432 3.38702 39.4026 3.11459 38.8918C2.97837 38.6535 2.84216 38.381 2.70595 38.1086C1.92272 36.5081 1.41191 34.8735 1.17354 33.2049C1.10543 32.8303 1.44597 32.4898 1.82056 32.5238C2.91027 32.626 4.06809 32.6601 5.25996 32.5919L5.46428 32.8644L2.94432 33.6817C2.74 33.7498 2.60379 33.9881 2.63784 34.1925C2.80811 35.0097 3.31891 36.9508 4.27241 38.4151C5.22591 39.8453 6.96264 40.0497 7.71181 40.0837Z" fill="white"/>
<path d="M7.47334 40.7647C6.31552 40.7647 5.19175 40.6626 4.1361 40.4923C3.38692 40.3561 2.7399 39.9134 2.36531 39.2323C2.2291 38.9599 2.09288 38.6875 1.95667 38.415C1.17344 36.8486 0.628583 35.1459 0.356155 33.3751C0.288048 33.0005 0.424262 32.6259 0.662637 32.3535C0.901011 32.0811 1.2756 31.9449 1.65019 32.013C6.21336 32.5238 11.8322 31.3319 17.0764 28.7779C22.3207 26.1898 26.7136 22.478 29.0973 18.5959C29.3016 18.2894 29.6081 18.0851 29.9827 18.051C30.3573 18.017 30.6978 18.1532 30.9703 18.4256C32.1962 19.7197 33.2178 21.184 34.001 22.7845C34.1372 23.0569 34.2735 23.3293 34.3756 23.6018C34.6821 24.3169 34.648 25.1001 34.2735 25.7471C31.8897 30.1741 27.1222 34.3967 21.231 37.2913C16.5997 39.5729 11.7641 40.7647 7.47334 40.7647ZM1.54803 33.1708C1.54803 33.1708 1.51397 33.1708 1.54803 33.1708C1.7864 34.8394 2.29721 36.4059 3.04638 37.9042C3.1826 38.1426 3.28476 38.415 3.42097 38.6534C3.62529 38.9939 3.96583 39.2664 4.34042 39.3004C9.07385 40.1177 15.0673 38.9599 20.7202 36.2016C26.4071 33.4092 30.9703 29.3909 33.2519 25.1682C33.4562 24.8277 33.4562 24.385 33.2859 24.0445C33.1837 23.772 33.0475 23.5337 32.9454 23.2612C32.1962 21.7629 31.2767 20.4007 30.1189 19.1748C27.599 23.2612 23.0358 27.1433 17.6213 29.7995C12.1727 32.4897 6.31552 33.7157 1.54803 33.1708Z" fill="#15006D"/>
<path opacity="0.2" d="M33.4901 23.023C33.6263 23.2954 33.7284 23.5338 33.8647 23.8062C34.103 24.3511 34.069 24.93 33.7965 25.4408C32.0939 28.6078 29.0291 31.8088 25.0107 34.465C27.2242 31.8769 26.2026 27.2116 25.5556 25.1343C25.7599 24.964 25.9302 24.7938 26.1005 24.6575C27.9393 23.023 29.4377 21.2522 30.5274 19.4814C30.6296 19.3111 30.7658 19.243 30.9361 19.209C31.9236 20.3328 32.7749 21.6268 33.4901 23.023Z" fill="#15006D"/>
<path opacity="0.25" d="M17.0422 31.3659C15.4758 32.1151 13.9434 32.6259 12.9899 32.8983C12.445 33.0686 12.1385 33.6135 12.3088 34.1583L13.0239 36.474C13.1942 37.0188 13.739 37.2912 14.2839 37.155C15.3055 36.8486 17.0082 36.2696 18.9152 35.4524C19.426 35.214 19.6643 34.6351 19.426 34.1243L18.4044 31.8767C18.166 31.3319 17.553 31.1276 17.0422 31.3659Z" fill="white"/>
<path opacity="0.25" d="M19.256 31.1267L20.55 33.7828C20.6862 34.0553 21.0267 34.1574 21.2992 34.0212L22.5251 33.3401C22.7975 33.2039 22.8656 32.8634 22.7294 32.625L21.2311 30.071C21.0948 29.8326 20.7543 29.7305 20.5159 29.8667L19.5284 30.4456C19.2219 30.5477 19.1538 30.8542 19.256 31.1267Z" fill="white"/>
<path opacity="0.25" d="M15.0523 26.5168C17.8185 24.0519 18.8031 20.6422 17.2516 18.901C15.7 17.1599 12.1998 17.7467 9.43365 20.2116C6.66747 22.6766 5.68282 26.0863 7.23437 27.8274C8.78591 29.5686 12.2861 28.9818 15.0523 26.5168Z" fill="white"/>
<path d="M43.8765 33.2384L31.6853 64.8741C31.2086 66.1001 29.8464 66.713 28.6205 66.2363L27.3265 65.7255C26.1005 65.2487 25.4876 63.8866 25.9643 62.6606L38.1555 31.0249C38.6322 29.799 39.9944 29.186 41.2203 29.6628L42.5143 30.1736C43.7402 30.6503 44.3532 32.0125 43.8765 33.2384Z" fill="white"/>
<path d="M29.472 66.9855C29.1315 66.9855 28.7569 66.9174 28.4164 66.7812L27.1224 66.2704C25.5899 65.6915 24.8408 63.9548 25.4197 62.4224L37.6108 30.7867C38.1897 29.2543 39.9265 28.5051 41.4589 29.084L42.7529 29.5948C44.2853 30.1737 45.0345 31.9104 44.4556 33.4428L32.2644 65.0785C31.7877 66.2704 30.6639 66.9855 29.472 66.9855ZM28.825 65.6915C29.7445 66.032 30.8001 65.5893 31.1407 64.6699L43.3318 33.0342C43.6724 32.1147 43.2297 31.0591 42.3102 30.7186L41.0162 30.2078C40.0967 29.8672 39.0411 30.3099 38.7006 31.2294L26.5094 62.8651C26.1689 63.7845 26.6116 64.8402 27.531 65.1807L28.825 65.6915Z" fill="#15006D"/>
<path opacity="0.2" d="M42.6166 32.7622L30.4254 64.3979C29.9487 65.6238 28.5865 66.2368 27.3606 65.76L27.1563 65.6919C26.8839 65.5898 26.6455 65.4195 26.4412 65.2492C27.3947 65.2492 28.3141 64.6703 28.6887 63.7168L37.0318 42.0588C37.3042 41.3777 37.0659 40.5945 36.4869 40.1518C35.9421 39.7431 35.4653 39.3004 34.9886 38.8237L38.0194 30.9914C38.3939 30.0379 39.2793 29.459 40.2669 29.459C40.335 29.459 40.4031 29.459 40.4712 29.459C40.5053 29.459 40.5393 29.459 40.5393 29.459C40.6074 29.459 40.6755 29.493 40.7436 29.493C40.7777 29.493 40.8117 29.493 40.8117 29.5271C40.8458 29.5271 40.8458 29.5271 40.8799 29.5271C40.9139 29.5271 40.948 29.5611 40.982 29.5611C41.0161 29.5611 41.0501 29.5952 41.0842 29.5952L41.2885 29.6633C42.4804 30.1741 43.0933 31.5362 42.6166 32.7622Z" fill="#15006D"/>
<path d="M63.2188 25.5087C62.4356 27.5179 61.38 29.2887 60.0519 30.8211C55.1482 36.5761 46.9753 38.8918 39.5176 36.0313C32.0599 33.1708 27.5648 25.9514 27.7691 18.3916C27.8372 16.3824 28.2118 14.3051 28.9951 12.33C29.4718 11.1041 30.0507 9.94628 30.7318 8.89062C35.3631 1.80749 44.4554 -1.35949 52.6963 1.80749C60.9373 4.97447 65.5685 13.4197 64.2064 21.7969C64.0021 23.0569 63.6615 24.2828 63.2188 25.5087Z" fill="#4BE1D9"/>
<path opacity="0.2" d="M62.9464 23.7721C62.1632 25.7813 61.1075 27.552 59.7794 29.0845C54.8757 34.8395 46.7029 37.1551 39.2452 34.2946C35.4652 32.8303 32.4345 30.2423 30.3913 27.0753C31.8896 28.3012 33.5923 29.3569 35.5333 30.072C39.1771 31.4682 42.9911 31.6385 46.4986 30.7531C45.0343 30.3785 43.57 29.9017 42.1057 29.3228C36.7252 27.2456 32.1961 24.2829 29.0291 20.9797C28.927 20.8776 28.8248 20.7754 28.7567 20.6732C28.3821 20.2646 28.0416 19.856 27.701 19.4814C27.6329 19.4133 27.5648 19.3452 27.5308 19.243C27.5308 18.8684 27.5648 18.4938 27.5989 18.1192C27.7351 16.4506 28.1437 14.782 28.7567 13.1474C29.2334 11.9215 29.8123 10.7637 30.4934 9.70801C30.4934 9.70801 30.4934 9.70801 30.5275 9.74206C31.2766 10.7296 32.162 11.7512 33.1496 12.7047C36.2825 15.7355 40.5733 18.4938 45.6132 20.4349C49.2228 21.8311 52.7985 22.6483 56.1357 22.9548C56.6125 22.9889 57.0552 23.0229 57.4979 23.057C59.5751 23.1591 61.5843 23.057 63.3891 22.7505C63.1848 23.091 63.0826 23.4316 62.9464 23.7721Z" fill="#15006D"/>
<path opacity="0.2" d="M63.219 25.5085C63.1509 25.6447 63.1169 25.7809 63.0488 25.9171C63.4233 24.8274 63.7298 23.7377 63.9001 22.614H63.866C61.925 22.9885 59.7456 23.1588 57.4299 23.0226C58.1451 21.9329 58.758 20.7751 59.2348 19.5151C61.0055 14.9519 60.8012 10.1163 59.0645 5.92773C64.0363 10.8995 65.9093 18.5275 63.219 25.5085Z" fill="#15006D"/>
<path opacity="0.6" d="M62.9464 11.6827C60.9373 8.1071 57.7022 5.21255 53.5817 3.61204C44.1148 -0.0316877 33.5242 4.6677 29.8805 14.1346C29.8124 14.3048 29.7442 14.4411 29.7102 14.6113C29.3356 14.2367 28.961 13.8621 28.5864 13.5216C28.7226 13.147 28.8248 12.7384 28.9951 12.3638C32.6047 2.89691 43.2294 -1.83652 52.6963 1.8072C57.4638 3.64609 61.0394 7.28982 62.9464 11.6827Z" fill="white"/>
<path d="M46.0561 37.8701C43.8086 37.8701 41.4929 37.4615 39.2794 36.6101C34.546 34.8053 30.8342 31.2637 28.791 26.6324C26.7478 22.0012 26.6115 16.8591 28.4164 12.1597C32.1963 2.38635 43.1615 -2.48331 52.9009 1.26258C62.6402 5.00847 67.5098 15.9737 63.7639 25.713C60.8694 33.2388 53.6841 37.8701 46.0561 37.8701ZM46.0901 1.16042C43.6383 1.16042 41.1864 1.67122 38.9049 2.69283C34.5801 4.59982 31.2428 8.10734 29.5401 12.5343C27.8375 16.9612 27.9737 21.7968 29.8807 26.1216C31.7877 30.4464 35.2952 33.7837 39.7221 35.4864C41.7994 36.3036 43.9788 36.6782 46.0901 36.6782C53.2073 36.6782 59.9499 32.3534 62.6742 25.3044C66.1817 16.178 61.6185 5.89386 52.4922 2.35229C50.4149 1.56906 48.2355 1.16042 46.0901 1.16042Z" fill="#15006D"/>
<path d="M64.377 26.5986C64.2408 26.9051 64.1386 27.2116 64.0024 27.5181C63.73 28.1311 63.2192 28.5737 62.5722 28.744C58.5539 29.7997 53.4799 29.6975 48.0994 28.3694C46.4308 27.9608 44.7622 27.45 43.0936 26.803C37.6791 24.7257 33.1499 21.763 29.983 18.4599C29.8808 18.3577 29.7786 18.2555 29.7105 18.1534C28.7911 17.1999 28.0079 16.1783 27.3608 15.1907C26.9863 14.6459 26.9182 13.9307 27.1225 13.3178C27.2246 13.0113 27.3268 12.6708 27.463 12.3643C28.1781 10.4573 29.1997 8.75461 30.3916 7.2222C30.664 6.88166 31.2089 6.88166 31.4813 7.2222C32.2305 8.20975 33.1159 9.23135 34.1034 10.1849C37.2364 13.2156 41.5271 15.9739 46.567 17.915C50.1767 19.3112 53.7523 20.1285 57.0896 20.435C59.916 20.7074 62.5722 20.5712 64.8878 20.1285C65.3305 20.0263 65.7392 20.4009 65.7051 20.8436C65.5008 22.7506 65.0921 24.6916 64.377 26.5986Z" fill="#FF1564"/>
<path d="M64.377 26.5986C64.2408 26.9051 64.1386 27.2116 64.0024 27.5181C63.73 28.1311 63.2192 28.5737 62.5722 28.744C58.5539 29.7997 53.4799 29.6975 48.0994 28.3694C46.4308 27.9608 44.7622 27.45 43.0936 26.803C37.6791 24.7257 33.1499 21.763 29.983 18.4599C29.8808 18.3577 29.7786 18.2555 29.7105 18.1534C28.7911 17.1999 28.0079 16.1783 27.3608 15.1907C26.9863 14.6459 26.9182 13.9307 27.1225 13.3178C27.2246 13.0113 27.3268 12.6708 27.463 12.3643C28.1781 10.4573 29.1997 8.75461 30.3916 7.2222C30.664 6.88166 31.2089 6.88166 31.4813 7.2222C32.2305 8.20975 33.1159 9.23135 34.1034 10.1849C37.2364 13.2156 41.5271 15.9739 46.567 17.915C50.1767 19.3112 53.7523 20.1285 57.0896 20.435C59.916 20.7074 62.5722 20.5712 64.8878 20.1285C65.3305 20.0263 65.7392 20.4009 65.7051 20.8436C65.5008 22.7506 65.0921 24.6916 64.377 26.5986Z" fill="#3DD3C8"/>
<path opacity="0.6" d="M29.9146 18.2208C28.9952 17.2673 28.212 16.2457 27.5649 15.2581C27.1904 14.7132 27.1223 13.9981 27.3266 13.3852C27.4287 13.0787 27.5309 12.7381 27.6671 12.4317C28.3822 10.5247 29.4038 8.82199 30.5957 7.28958C30.8681 6.94905 31.413 6.94905 31.6854 7.28958C32.4346 8.27713 33.32 9.29874 34.3075 10.2522L34.2394 10.6268L31.5833 9.12847C31.3449 8.99226 31.0725 9.06036 30.9022 9.29874C30.3573 10.082 29.1314 12.023 28.6547 13.9641C28.1439 15.9392 29.3017 17.5737 29.9146 18.2208Z" fill="white"/>
<path d="M56.4763 30.0373C52.1855 30.0373 47.4862 29.1179 42.8549 27.3471C35.8399 24.6569 29.9826 20.3321 26.8157 15.4965C26.3389 14.7813 26.2368 13.93 26.5092 13.1127C26.6114 12.7722 26.7476 12.4657 26.8497 12.1252C27.5989 10.2182 28.5865 8.44738 29.8464 6.84687C30.0848 6.54038 30.4594 6.37012 30.868 6.37012C31.2767 6.37012 31.6172 6.57444 31.8556 6.88092C35.0226 11.1376 40.403 14.9516 46.6689 17.3694C52.9347 19.7872 59.507 20.5704 64.6832 19.5488C65.0578 19.4807 65.4664 19.5829 65.7729 19.8553C66.0794 20.1277 66.2156 20.5023 66.2156 20.911C66.0794 22.9542 65.6367 24.9293 64.8875 26.8363C64.7513 27.1428 64.6151 27.4833 64.4789 27.7898C64.1383 28.573 63.4572 29.1519 62.64 29.3562C60.8011 29.7989 58.6898 30.0373 56.4763 30.0373ZM30.868 7.52794C30.834 7.52794 30.7999 7.52794 30.7999 7.56199C29.6081 9.06034 28.6546 10.729 27.9735 12.5338C27.8713 12.8403 27.7351 13.1468 27.633 13.4532C27.4627 13.93 27.5308 14.4067 27.8032 14.8154C30.834 19.4467 36.4869 23.6012 43.2635 26.2233C50.0742 28.8454 57.0211 29.5265 62.4016 28.1303C62.8783 27.9941 63.2529 27.6876 63.4573 27.2449C63.5935 26.9384 63.7297 26.632 63.8318 26.3595C64.5129 24.5547 64.9556 22.6817 65.0578 20.7748C65.0578 20.7407 65.0237 20.7066 65.0237 20.6726C64.9897 20.6385 64.9556 20.6385 64.9556 20.6385C59.5411 21.7282 52.7644 20.911 46.2943 18.4251C39.8241 15.9392 34.2393 11.9549 30.9361 7.56199C30.9361 7.56199 30.9021 7.52794 30.868 7.52794Z" fill="#15006D"/>
<path opacity="0.2" d="M64.3767 26.5983C64.2405 26.9048 64.1383 27.2113 64.0021 27.5178C63.7297 28.1307 63.2189 28.5734 62.5719 28.7437C58.5535 29.7993 53.4796 29.6972 48.0991 28.3691C52.0153 28.2329 55.1482 23.6697 56.3741 21.5584C56.6466 21.5925 56.953 21.6265 57.2255 21.6606C60.0519 21.933 62.7081 21.7968 65.0237 21.3541C65.228 21.32 65.4324 21.3541 65.5686 21.4903C65.4324 23.193 65.0237 24.8956 64.3767 26.5983Z" fill="#15006D"/>
<path opacity="0.25" d="M44.5236 19.2774C42.6507 18.5282 41.0502 17.6429 40.0626 17.0639C39.5178 16.7234 38.8026 16.9277 38.4621 17.4726L37.0659 19.8904C36.7594 20.4352 36.9297 21.1504 37.4745 21.4568C38.5302 22.0698 40.335 23.0574 42.5485 24.0109C43.1274 24.2492 43.8085 23.9768 44.0809 23.3979L45.1706 20.7758C45.409 20.1969 45.1366 19.5158 44.5236 19.2774Z" fill="white"/>
<path opacity="0.25" d="M46.4646 20.9463L45.2387 24.1133C45.1025 24.4538 45.2727 24.7943 45.6133 24.8965L47.1457 25.3732C47.4862 25.4754 47.8267 25.3051 47.8948 24.9646L48.8824 21.6955C48.9846 21.389 48.7802 21.0484 48.4738 20.9463L47.2138 20.5717C46.9073 20.4695 46.5668 20.6398 46.4646 20.9463Z" fill="white"/>
<path opacity="0.25" d="M55.1492 9.7124C55.4037 7.03507 52.1799 4.53858 47.9486 4.13635C43.7173 3.73411 40.0808 5.57845 39.8263 8.25578C39.5718 10.9331 42.7956 13.4296 47.0269 13.8318C51.2582 14.2341 54.8947 12.3897 55.1492 9.7124Z" fill="white"/>
<defs>
<radialGradient id="paint0_radial" cx="0" cy="0" r="1" gradientUnits="userSpaceOnUse" gradientTransform="translate(32.9898 33.0342) rotate(-154.97) scale(33)">
<stop offset="0.348958" stop-color="white" stop-opacity="0"/>
<stop offset="0.791667" stop-color="#FFD654"/>
</radialGradient>
</defs>
</svg>
