<svg width="18" height="18" viewBox="0 0 18 18" fill="none" xmlns="http://www.w3.org/2000/svg">
<path d="M8.54673 7.54673C8.81195 7.54673 9.0663 7.65209 9.25384 7.83963C9.44138 8.02716 9.54673 8.28152 9.54673 8.54673C9.54673 8.81195 9.44138 9.0663 9.25384 9.25384C9.0663 9.44138 8.81195 9.54673 8.54673 9.54673C8.28152 9.54673 8.02716 9.44138 7.83963 9.25384C7.65209 9.0663 7.54673 8.81195 7.54673 8.54673C7.54673 8.28152 7.65209 8.02716 7.83963 7.83963C8.02716 7.65209 8.28152 7.54673 8.54673 7.54673ZM0.766732 0.766732C2.19673 -0.663268 5.29673 -0.0232675 8.54673 2.10673C11.7967 -0.0232675 14.8967 -0.663268 16.3267 0.766732C17.7567 2.19673 17.1167 5.29673 14.9867 8.54673C17.1167 11.7967 17.7567 14.8967 16.3267 16.3267C14.8967 17.7567 11.7967 17.1167 8.54673 14.9867C5.29673 17.1167 2.19673 17.7567 0.766732 16.3267C-0.663268 14.8967 -0.0232675 11.7967 2.10673 8.54673C-0.0232675 5.29673 -0.663268 2.19673 0.766732 0.766732ZM12.0867 5.00673C12.6967 5.62673 13.2567 6.25673 13.7767 6.88673C15.1567 4.75673 15.6567 2.92673 14.9067 2.18673C14.1667 1.43673 12.3367 1.93673 10.2067 3.31673C10.8367 3.83673 11.4667 4.39673 12.0867 5.00673ZM5.00673 12.0867C4.39673 11.4667 3.83673 10.8367 3.31673 10.2067C1.93673 12.3367 1.43673 14.1667 2.18673 14.9067C2.92673 15.6567 4.75673 15.1567 6.88673 13.7767C6.25673 13.2567 5.62673 12.6967 5.00673 12.0867ZM2.18673 2.18673C1.43673 2.92673 1.93673 4.75673 3.31673 6.88673C3.83673 6.25673 4.39673 5.62673 5.00673 5.00673C5.62673 4.39673 6.25673 3.83673 6.88673 3.31673C4.75673 1.93673 2.92673 1.43673 2.18673 2.18673ZM6.42673 10.6667C7.12673 11.3667 7.84673 12.0067 8.54673 12.5767C9.24673 12.0067 9.96673 11.3667 10.6667 10.6667C11.3667 9.96673 12.0067 9.24673 12.5767 8.54673C12.0067 7.84673 11.3667 7.12673 10.6667 6.42673C9.96673 5.72673 9.24673 5.08673 8.54673 4.51673C7.84673 5.08673 7.12673 5.72673 6.42673 6.42673C5.72673 7.12673 5.08673 7.84673 4.51673 8.54673C5.08673 9.24673 5.72673 9.96673 6.42673 10.6667ZM14.9067 14.9067C15.6567 14.1667 15.1567 12.3367 13.7767 10.2067C13.2567 10.8367 12.6967 11.4667 12.0867 12.0867C11.4667 12.6967 10.8367 13.2567 10.2067 13.7767C12.3367 15.1567 14.1667 15.6567 14.9067 14.9067Z" fill="black"/>
</svg>
