<svg width="17" height="14" viewBox="0 0 17 14" fill="none" xmlns="http://www.w3.org/2000/svg">
<path d="M7.76673 13.8455H7.72105H7.4652C7.28246 13.8455 7.09514 13.8174 6.91239 13.794C6.41582 13.7326 5.92311 13.6419 5.43671 13.5224C4.77073 13.3643 4.12181 13.1384 3.4996 12.8482C2.98783 12.6077 2.50743 12.3025 2.06961 11.9398C1.72072 11.6448 1.42265 11.2918 1.18786 10.8956C1.03451 10.6351 0.904534 10.3609 0.79952 10.0763C0.630164 9.65306 0.49568 9.21608 0.397478 8.7699C0.342654 8.52174 0.296967 8.26889 0.255849 8.01605C0.20385 7.7066 0.174831 7.39355 0.169044 7.07959C0.169044 7.01404 0.169044 6.94849 0.169044 6.87826C0.169044 6.80802 0.169044 6.67224 0.169044 6.56923C0.173771 6.27183 0.193595 5.97488 0.228437 5.67959C0.287533 5.26512 0.38545 4.85744 0.520832 4.4622C0.671962 4.02442 0.872842 3.60638 1.11933 3.21672C1.2967 2.92966 1.50346 2.66282 1.7361 2.42073C2.04098 2.12035 2.37818 1.85645 2.7412 1.63411C3.25012 1.30991 3.79254 1.04452 4.35851 0.842805C4.87309 0.656425 5.4018 0.513912 5.93927 0.416718C6.19968 0.365213 6.46466 0.323072 6.72508 0.285614C7.02776 0.238174 7.33283 0.208471 7.63881 0.196651C7.94948 0.196651 8.25558 0.15451 8.55254 0.15451H8.80839C9.10078 0.15451 9.37033 0.15451 9.63532 0.201333C10.1076 0.23765 10.5774 0.301746 11.0425 0.393306C11.7996 0.535907 12.5394 0.76197 13.2491 1.06755C13.8105 1.30836 14.3388 1.62316 14.8208 2.00401C15.2626 2.35935 15.6413 2.7902 15.9401 3.27759C16.2036 3.71737 16.4124 4.18927 16.5614 4.68227C16.6691 5.02199 16.7441 5.37171 16.7853 5.72642V5.85752C16.7853 6.00735 16.8264 6.22274 16.8264 6.27424V7.2107C16.8264 7.27157 16.7487 7.99732 16.7076 8.25953C16.6476 8.67241 16.5606 9.08069 16.4472 9.4816C16.3513 9.7719 16.237 10.0622 16.1411 10.3104C16.0228 10.6005 15.8693 10.8742 15.6842 11.1251C15.4235 11.4724 15.1158 11.7798 14.7705 12.0381C14.2801 12.4187 13.7443 12.7334 13.176 12.9746C12.7056 13.1683 12.2215 13.3248 11.7278 13.4428L11.1795 13.5645L10.8552 13.6348L10.581 13.6769L9.89573 13.7706C9.74497 13.7706 9.58963 13.7987 9.43886 13.808L9.11449 13.8314L7.76673 13.8455Z" fill="#FBECDB"/>
<path d="M8.53883 0.30903H8.80382C9.0688 0.30903 9.34292 0.30903 9.6079 0.351171C10.0677 0.388809 10.5252 0.451326 10.9785 0.538462C11.721 0.679927 12.4468 0.901216 13.144 1.19866C13.6917 1.4306 14.2077 1.73436 14.6791 2.10234C15.1291 2.44773 15.5119 2.87654 15.8076 3.36656C16.2454 4.07634 16.5276 4.87514 16.6345 5.70769V5.84348C16.6345 5.95585 16.6756 6.18997 16.6756 6.23679V7.17324C16.6756 7.24348 16.598 7.95518 16.5568 8.20803C16.4881 8.62402 16.3888 9.0341 16.2599 9.43478C16.1731 9.71104 16.0634 9.99197 15.9583 10.2495C15.8487 10.5271 15.706 10.7898 15.5335 11.0314C15.2878 11.3683 14.9954 11.6664 14.6654 11.9164C14.1848 12.2842 13.6596 12.5864 13.1029 12.8154C12.6417 13.0084 12.1667 13.1649 11.6821 13.2836L11.1293 13.4054L10.878 13.4569H10.8323H10.7958L10.5399 13.4943C10.316 13.5271 10.083 13.5599 9.86832 13.5833C9.71755 13.5833 9.56678 13.6114 9.41145 13.6207H9.20129H8.96372H7.95861H7.73932L7.4789 13.5973L6.93523 13.5505C6.44367 13.4879 5.95567 13.3989 5.47326 13.2836C4.8185 13.1265 4.18039 12.9038 3.56813 12.6187C3.06752 12.3854 2.59778 12.0881 2.17012 11.7338C1.84179 11.4738 1.55375 11.1644 1.31578 10.8161C1.16779 10.5612 1.04241 10.2932 0.941145 10.0154C0.772782 9.60233 0.641276 9.1745 0.54824 8.73712C0.497984 8.51237 0.452298 8.2689 0.406611 7.98796C0.355551 7.69412 0.326531 7.39671 0.319807 7.09833C0.319807 7.03278 0.319807 6.96254 0.319807 6.89699C0.319807 6.83144 0.319807 6.69097 0.319807 6.59732C0.319807 6.31171 0.351787 6.00268 0.392905 5.70301C0.450058 5.29822 0.54491 4.89997 0.676162 4.51371C0.818401 4.08748 1.01014 3.68032 1.24725 3.301C1.41248 3.02249 1.60705 2.76341 1.82747 2.52843C2.12299 2.23756 2.44941 1.98155 2.80059 1.76522C3.30696 1.446 3.84632 1.18532 4.40876 0.98796C4.90742 0.806796 5.41915 0.665897 5.93926 0.566555L6.72964 0.435452C7.03117 0.388629 7.33728 0.3699 7.64338 0.351171C7.94948 0.332441 8.25558 0.30903 8.55711 0.30903H8.53883ZM8.55711 0C8.2236 0 7.91293 0 7.60226 0.0374582C7.29159 0.0749164 6.99006 0.0842809 6.68852 0.131104C6.38699 0.177926 6.15856 0.210702 5.89358 0.262207C5.35499 0.363248 4.82493 0.507276 4.30825 0.692977C3.72479 0.89874 3.16549 1.17042 2.64069 1.50301C2.27522 1.73106 1.93645 2.00127 1.63101 2.30836C1.3894 2.55858 1.17494 2.83488 0.9914 3.13244C0.735301 3.53091 0.528147 3.96024 0.37463 4.4107C0.238798 4.81572 0.139396 5.23261 0.0776673 5.65619C0.0365493 5.96522 0.013706 6.27425 0 6.59264C0 6.76589 0 6.93913 0 7.11237C0.00626784 7.4263 0.0352826 7.73931 0.0868046 8.04883C0.127923 8.30167 0.178178 8.55451 0.233002 8.81204C0.331762 9.26472 0.467786 9.708 0.639613 10.1371C0.74854 10.4314 0.883097 10.7151 1.04166 10.9846C1.28912 11.381 1.5977 11.7337 1.95539 12.0288C2.40259 12.4023 2.89375 12.7169 3.41736 12.9652C4.04786 13.262 4.70606 13.4926 5.38189 13.6535C5.87509 13.7698 6.37371 13.8604 6.87584 13.9251C7.14539 13.9579 7.41951 13.9719 7.68906 13.9953H9.21957C9.44343 13.9953 9.67643 13.9719 9.89116 13.9438C10.2064 13.9064 10.5171 13.8595 10.8277 13.8174L10.9008 13.794C11.175 13.7331 11.4491 13.6769 11.7232 13.6114C12.245 13.49 12.7556 13.3223 13.2491 13.1104C13.8277 12.8699 14.3742 12.5552 14.8756 12.1739C15.2208 11.9064 15.5283 11.5913 15.7893 11.2375C15.9748 10.9752 16.1283 10.6905 16.2462 10.39C16.3604 10.1137 16.4655 9.83278 16.5568 9.54716C16.691 9.1346 16.7933 8.7119 16.8629 8.28294C16.9086 8.01137 16.9909 7.24816 16.9909 7.20602V6.26957C16.9909 6.19465 16.9406 5.80134 16.9269 5.70769C16.8839 5.34175 16.8058 4.98104 16.6939 4.63077C16.5414 4.13675 16.328 3.6647 16.0589 3.22609C15.7512 2.70688 15.3551 2.24853 14.8893 1.87291C14.3958 1.49206 13.8569 1.17737 13.2857 0.936455C12.5691 0.62368 11.8216 0.391334 11.0562 0.243478C10.5865 0.15162 10.1121 0.0875226 9.63531 0.051505C9.35662 0.051505 9.07794 0.0140468 8.79925 0.00468227L8.55711 0Z" fill="#15006D"/>
<path d="M8.42005 4.52776C8.42005 4.52776 6.63827 0.98328 6.12201 0.468229L6.24993 0.337126C6.88186 0.235119 7.52 0.178792 8.15963 0.168564C8.1089 1.62684 8.19611 3.08672 8.42005 4.52776Z" fill="#4BE1D9"/>
<path d="M8.42005 4.52776C8.42005 4.52776 9.215 1.67625 11.1064 0.543144C11.1064 0.543144 11.5267 0.407358 12.774 0.870903C14.0212 1.33445 13.8156 1.54515 13.8156 1.54515C13.2144 1.45629 12.6014 1.50149 12.0188 1.67765C11.4361 1.85381 10.8974 2.15679 10.4394 2.56589C9.00941 3.94716 8.42005 4.52776 8.42005 4.52776Z" fill="#8CDB26"/>
<path d="M8.42005 4.52776C8.42005 4.52776 11.1613 3.27759 12.5821 3.0903C14.003 2.90301 15.0035 2.89833 15.8807 3.35251C15.8807 3.35251 16.9086 4.48094 16.7944 7.30435C16.6802 10.1278 15.6797 11.0502 15.6797 11.0502C15.6797 11.0502 16.6208 7.63679 15.0172 5.73111C13.4136 3.82542 10.3663 4.27024 8.42005 4.52776Z" fill="#FFD654"/>
<path d="M8.42005 4.52776C8.42005 4.52776 11.0242 5.32375 12.2395 6.18529C12.7571 6.56022 13.1863 7.04923 13.4954 7.61641C13.8045 8.18358 13.9858 8.81452 14.0258 9.46288C14.0532 10.4602 14.1857 11.8649 13.2537 12.8763L10.9694 13.5973C10.9694 13.5973 11.8146 12.8107 11.6866 10.5445C11.5587 8.27827 10.5902 7.58997 9.64445 6.21338C9.26498 5.63023 8.8563 5.0676 8.42005 4.52776Z" fill="#FF9D33"/>
<path d="M5.52352 13.5271C5.52352 13.5271 4.97528 12.2395 5.52352 9.21004C6.19419 7.47812 7.17504 5.89005 8.41548 4.52776L8.33324 9.26622C8.33324 9.26622 8.48401 13.7799 8.07283 13.8408C7.2174 13.7921 6.36588 13.6873 5.52352 13.5271Z" fill="#FF4545"/>
<path d="M8.42005 4.52776C8.42005 4.52776 4.91589 5.66087 3.50874 7.92241C2.10159 10.184 3.22548 12.6421 3.22548 12.6421C3.22548 12.6421 1.82747 12.3425 0.772107 10.3666C0.772107 10.3666 0.360927 7.25285 1.62188 6.05418C2.88283 4.85552 3.9656 4.76188 8.42005 4.52776Z" fill="#6E289B"/>
<path d="M1.21526 3.04816C2.45145 2.97022 3.69227 3.05678 4.90674 3.30568C6.09771 3.65038 7.2704 4.05829 8.42005 4.52776L5.61489 2.46287C5.61489 2.46287 4.06611 1.44682 2.55388 1.6107C2.55388 1.6107 1.33405 2.43946 1.21526 3.04816Z" fill="#471BB1"/>
<path d="M8.53883 0.30903H8.80382C9.0688 0.30903 9.34292 0.30903 9.6079 0.351171C10.0677 0.388809 10.5252 0.451326 10.9785 0.538462C11.721 0.679927 12.4468 0.901216 13.144 1.19866C13.6917 1.4306 14.2077 1.73436 14.6791 2.10234C15.1291 2.44773 15.5119 2.87654 15.8076 3.36656C16.2454 4.07634 16.5276 4.87514 16.6345 5.70769V5.84348C16.6345 5.95585 16.6756 6.18997 16.6756 6.23679V7.17324C16.6756 7.24348 16.598 7.95518 16.5568 8.20803C16.4881 8.62402 16.3888 9.0341 16.2599 9.43478C16.1731 9.71104 16.0634 9.99197 15.9583 10.2495C15.8487 10.5271 15.706 10.7898 15.5335 11.0314C15.2878 11.3683 14.9954 11.6664 14.6654 11.9164C14.1848 12.2842 13.6596 12.5864 13.1029 12.8154C12.6417 13.0084 12.1667 13.1649 11.6821 13.2836L11.1293 13.4054L10.878 13.4569H10.8323H10.7958L10.5399 13.4943C10.316 13.5271 10.083 13.5599 9.86832 13.5833C9.71755 13.5833 9.56678 13.6114 9.41145 13.6207H9.20129H8.96372H7.95861H7.73932L7.4789 13.5973L6.93523 13.5505C6.44367 13.4879 5.95567 13.3989 5.47326 13.2836C4.8185 13.1265 4.18039 12.9038 3.56813 12.6187C3.06752 12.3854 2.59778 12.0881 2.17012 11.7338C1.84179 11.4738 1.55375 11.1644 1.31578 10.8161C1.16779 10.5612 1.04241 10.2932 0.941145 10.0154C0.772782 9.60233 0.641276 9.1745 0.54824 8.73712C0.497984 8.51237 0.452298 8.2689 0.406611 7.98796C0.355551 7.69412 0.326531 7.39671 0.319807 7.09833C0.319807 7.03278 0.319807 6.96254 0.319807 6.89699C0.319807 6.83144 0.319807 6.69097 0.319807 6.59732C0.319807 6.31171 0.351787 6.00268 0.392905 5.70301C0.450058 5.29822 0.54491 4.89997 0.676162 4.51371C0.818401 4.08748 1.01014 3.68032 1.24725 3.301C1.41248 3.02249 1.60705 2.76341 1.82747 2.52843C2.12299 2.23756 2.44941 1.98155 2.80059 1.76522C3.30696 1.446 3.84632 1.18532 4.40876 0.98796C4.90742 0.806796 5.41915 0.665897 5.93926 0.566555L6.72964 0.435452C7.03117 0.388629 7.33728 0.3699 7.64338 0.351171C7.94948 0.332441 8.25558 0.30903 8.55711 0.30903H8.53883ZM8.55711 0C8.2236 0 7.91293 0 7.60226 0.0374582C7.29159 0.0749164 6.99006 0.0842809 6.68852 0.131104C6.38699 0.177926 6.15856 0.210702 5.89358 0.262207C5.35499 0.363248 4.82493 0.507276 4.30825 0.692977C3.72479 0.89874 3.16549 1.17042 2.64069 1.50301C2.27522 1.73106 1.93645 2.00127 1.63101 2.30836C1.3894 2.55858 1.17494 2.83488 0.9914 3.13244C0.735301 3.53091 0.528147 3.96024 0.37463 4.4107C0.238798 4.81572 0.139396 5.23261 0.0776673 5.65619C0.0365493 5.96522 0.013706 6.27425 0 6.59264C0 6.76589 0 6.93913 0 7.11237C0.00626784 7.4263 0.0352826 7.73931 0.0868046 8.04883C0.127923 8.30167 0.178178 8.55451 0.233002 8.81204C0.331762 9.26472 0.467786 9.708 0.639613 10.1371C0.74854 10.4314 0.883097 10.7151 1.04166 10.9846C1.28912 11.381 1.5977 11.7337 1.95539 12.0288C2.40259 12.4023 2.89375 12.7169 3.41736 12.9652C4.04786 13.262 4.70606 13.4926 5.38189 13.6535C5.87509 13.7698 6.37371 13.8604 6.87584 13.9251C7.14539 13.9579 7.41951 13.9719 7.68906 13.9953H9.21957C9.44343 13.9953 9.67643 13.9719 9.89116 13.9438C10.2064 13.9064 10.5171 13.8595 10.8277 13.8174L10.9008 13.794C11.175 13.7331 11.4491 13.6769 11.7232 13.6114C12.245 13.49 12.7556 13.3223 13.2491 13.1104C13.8277 12.8699 14.3742 12.5552 14.8756 12.1739C15.2208 11.9064 15.5283 11.5913 15.7893 11.2375C15.9748 10.9752 16.1283 10.6905 16.2462 10.39C16.3604 10.1137 16.4655 9.83278 16.5568 9.54716C16.691 9.1346 16.7933 8.7119 16.8629 8.28294C16.9086 8.01137 16.9909 7.24816 16.9909 7.20602V6.26957C16.9909 6.19465 16.9406 5.80134 16.9269 5.70769C16.8839 5.34175 16.8058 4.98104 16.6939 4.63077C16.5414 4.13675 16.328 3.6647 16.0589 3.22609C15.7512 2.70688 15.3551 2.24853 14.8893 1.87291C14.3958 1.49206 13.8569 1.17737 13.2857 0.936455C12.5691 0.62368 11.8216 0.391334 11.0562 0.243478C10.5865 0.15162 10.1121 0.0875226 9.63531 0.051505C9.35662 0.051505 9.07794 0.0140468 8.79925 0.00468227L8.55711 0Z" fill="#15006D"/>
<path opacity="0.1" d="M0.708145 9.21003C0.708145 9.21003 1.46197 12.5579 9.24241 12.4876C17.0228 12.4174 16.4472 5.53913 16.2416 3.87692L16.3375 3.74582C16.7626 4.74749 16.982 5.8281 16.982 6.9204C16.982 8.0127 16.7626 9.09331 16.3375 10.095C14.9304 13.7003 9.34749 14.0375 7.20022 13.7659C5.05294 13.4943 1.23811 12.7639 0.708145 9.21003Z" fill="black"/>
<path opacity="0.3" d="M1.21527 5.10836C1.21527 5.10836 2.54475 8.35318 6.90326 8.59197C11.2618 8.83077 12.9065 8.20803 14.0349 7.65552C14.0349 7.65552 12.075 9.73913 7.02204 9.3505C1.9691 8.96187 1.2107 5.29565 1.21527 5.10836Z" fill="white"/>
<path opacity="0.3" d="M6.76619 6.83612C6.76619 6.83612 9.79065 6.68161 11.1704 6.2602C12.5501 5.8388 13.5598 5.08963 13.2446 3.94716C12.9293 2.80468 13.5095 2.87024 13.8887 3.0107C14.2679 3.15117 15.0355 4.88361 13.6375 6.37726C12.2394 7.8709 9.04138 7.73512 7.6388 7.78194C6.23622 7.82876 5.61032 7.37927 5.48239 7.02341C5.35447 6.66756 6.76619 6.83612 6.76619 6.83612Z" fill="white"/>
<path opacity="0.2" d="M4.04784 5.15051C3.95009 4.84419 3.9151 4.52048 3.94507 4.19967C3.97504 3.87885 4.06931 3.56783 4.22199 3.28608C4.37467 3.00434 4.58247 2.75793 4.83237 2.5623C5.08227 2.36667 5.36889 2.22602 5.67428 2.14917C7.22615 1.56585 8.8966 1.39352 10.5308 1.64816C11.9608 1.81673 12.1252 1.32977 11.2481 0.913047C10.3709 0.496325 7.13626 0.196659 4.80167 1.11907C2.46708 2.04148 1.6036 3.4602 2.42596 4.89766C3.24832 6.33512 4.33567 6.499 4.04784 5.15051Z" fill="white"/>
</svg>
