<svg width="64" height="64" viewBox="0 0 64 64" fill="none" xmlns="http://www.w3.org/2000/svg">
<path d="M63 32C63 49.1208 49.1208 63 32 63C14.8792 63 1 49.1208 1 32C1 14.8792 14.8792 1 32 1C49.1208 1 63 14.8792 63 32Z" fill="url(#paint0_linear)" stroke="white" stroke-width="2"/>
<path d="M45.9776 31.9744C43.328 32.4224 37.9904 33.1648 31.9872 33.1648C25.984 33.1648 20.6464 32.4224 17.9968 31.9744C17.92 31.9616 17.8432 31.9488 17.7664 31.9488C17.408 31.9488 17.0624 32.0896 16.7936 32.3328C16.4992 32.6144 16.3456 33.0112 16.3968 33.408C17.1136 39.488 21.312 45.0048 26.8416 47.1424C26.9312 47.1808 26.9824 47.2448 26.9952 47.3344C27.008 47.424 26.9824 47.5136 26.9184 47.5648C26.0992 48.2944 25.5616 49.2288 25.344 50.3296C25.28 50.6112 25.3568 50.9056 25.5488 51.136C25.728 51.3536 25.9968 51.4816 26.2912 51.4816H37.6704C37.9648 51.4816 38.2336 51.3536 38.4128 51.136C38.592 50.9056 38.6688 50.6112 38.6176 50.3296C38.4 49.2288 37.8624 48.2944 37.0432 47.5648C36.9792 47.5008 36.9408 47.4112 36.9536 47.3344C36.9664 47.2448 37.0304 47.1808 37.1072 47.1424C42.6368 45.0048 46.8352 39.488 47.552 33.408C47.6032 33.0112 47.4496 32.6144 47.1552 32.3328C46.8736 32.0384 46.4128 31.9104 45.9776 31.9744ZM24.9856 41.4976C25.2416 41.8816 25.1136 42.2912 24.8704 42.5216C24.7296 42.6496 24.5376 42.7392 24.3328 42.7392C24.1792 42.7392 24.0256 42.688 23.872 42.5856C21.6448 40.9472 20.0192 38.5664 19.3152 35.8912C19.2512 35.6608 19.3152 35.4048 19.4816 35.2256C19.648 35.0336 19.904 34.944 20.1472 34.9824C20.6976 35.0592 21.3376 35.1488 22.0544 35.2384C22.4128 35.2768 22.7072 35.5456 22.7968 35.904L24.9856 41.4976Z" fill="white"/>
<path d="M47.1936 16.2048L46.2464 15.0528C45.7216 14.4128 44.7872 14.336 44.1472 14.8608L39.9872 18.304L42.304 13.7856C42.6752 13.056 42.3936 12.16 41.664 11.776L40.3328 11.0976C39.6032 10.7264 38.7072 11.008 38.3232 11.7376L35.2768 17.664C34.2016 17.3952 33.088 17.2544 31.936 17.2544C24.7296 17.2544 18.8288 22.7968 18.2272 29.8496C18.2784 29.8496 18.3168 29.8624 18.368 29.8624C20.9536 30.2976 26.1376 31.0144 31.9744 31.0144C32.1792 31.0144 32.384 31.0144 32.5888 31.0144C32.7296 31.0144 32.8832 31.0144 33.024 31.0144C33.1904 31.0144 33.3568 31.0016 33.5232 31.0016C33.728 31.0016 33.92 30.9888 34.1248 30.9888C34.1632 30.9888 34.2144 30.9888 34.2528 30.9888C39.1552 30.8352 43.3792 30.2464 45.6192 29.8624C45.6192 29.8624 45.632 29.8624 45.6448 29.8624C45.4016 26.9184 44.224 24.2304 42.4064 22.1056L46.9888 18.304C47.6288 17.7792 47.7184 16.8448 47.1936 16.2048Z" fill="white"/>
<defs>
<linearGradient id="paint0_linear" x1="4.38975" y1="51.3893" x2="63.5088" y2="9.88024" gradientUnits="userSpaceOnUse">
<stop stop-color="#15006D"/>
<stop offset="0.2607" stop-color="#15006D"/>
<stop offset="0.6669" stop-color="#5521B6"/>
<stop offset="0.9996" stop-color="#2DB7C4"/>
</linearGradient>
</defs>
</svg>
