<svg width="145" height="155" viewBox="0 0 145 155" fill="none" xmlns="http://www.w3.org/2000/svg">
<path d="M55.2161 87.5753L83.5868 145.508C84.7038 147.742 83.7357 150.497 81.5018 151.54L79.119 152.731C76.8851 153.848 74.1299 152.88 73.0874 150.646L44.7166 92.7133C43.5997 90.4794 44.5677 87.7242 46.8016 86.6817L49.1845 85.4903C51.4184 84.3734 54.0991 85.3414 55.2161 87.5753Z" fill="white"/>
<path d="M77.1086 154.518C76.4384 154.518 75.8427 154.444 75.247 154.221C73.7577 153.699 72.5663 152.657 71.8961 151.242L43.5253 93.3091C42.1105 90.405 43.3019 86.9052 46.206 85.5648L48.5889 84.3734C50.0037 83.7032 51.5674 83.6288 53.0567 84.0756C54.546 84.5968 55.7374 85.6393 56.4076 87.0541L84.7784 144.987C85.4485 146.402 85.523 147.966 85.0762 149.455C84.555 150.944 83.5125 152.136 82.0976 152.806L79.7148 153.997C78.8957 154.295 78.0021 154.518 77.1086 154.518ZM51.1207 86.3095C50.5994 86.3095 50.1526 86.3839 49.7058 86.6073L47.323 87.7988C45.6848 88.6179 45.0146 90.5539 45.8337 92.1177L74.2045 150.051C74.5768 150.795 75.247 151.391 76.0661 151.689C76.8852 151.987 77.7787 151.912 78.5234 151.54L80.9062 150.348C81.6509 149.976 82.2466 149.306 82.5444 148.487C82.8423 147.668 82.7678 146.774 82.3955 146.03L54.0247 88.0966C53.6524 87.352 52.9823 86.7563 52.1631 86.4584C51.8653 86.3839 51.493 86.3095 51.1207 86.3095Z" fill="#15006D"/>
<path opacity="0.2" d="M52.9076 88.6926L81.2784 146.625C82.3953 148.859 81.4273 151.615 79.1934 152.657L78.821 152.806C78.2998 153.029 77.7785 153.178 77.2573 153.253C78.5232 151.912 78.8955 149.902 78.0019 148.189L58.5669 108.5C57.9711 107.234 56.6308 106.564 55.216 106.787C53.9501 107.011 52.6842 107.085 51.4183 107.16L44.4187 92.7881C43.5996 91.0754 43.8975 89.0649 45.1633 87.7245C45.2378 87.6501 45.3123 87.5011 45.4612 87.4267C45.5357 87.4267 45.5357 87.3522 45.6101 87.3522C45.6846 87.2777 45.8335 87.2033 45.908 87.1288C45.9824 87.1288 45.9824 87.0544 46.0569 87.0544L46.1314 86.9799C46.2058 86.9799 46.2803 86.9054 46.2803 86.9054C46.3548 86.9054 46.4292 86.831 46.4292 86.831L46.8015 86.682C49.1099 85.5651 51.7906 86.4586 52.9076 88.6926Z" fill="#15006D"/>
<path opacity="0.3" d="M45.4613 87.6494C45.5358 87.5749 45.6102 87.426 45.7592 87.3516C45.6102 87.426 45.5358 87.5749 45.4613 87.6494Z" fill="#15006D"/>
<path d="M69.4388 50.5658C71.2259 54.2145 72.3428 58.0866 72.7896 61.8843C74.4278 76.1814 67.1304 90.5529 53.429 97.2547C39.8021 103.956 23.8668 100.903 13.5908 90.7763C10.8356 88.0956 8.52726 84.8936 6.66566 81.1705C5.5487 78.9365 4.7296 76.6282 4.13388 74.3198C0.187296 58.6823 7.55923 41.8535 22.6754 34.4816C37.7916 27.1096 55.6629 31.6519 65.5666 44.3853C67.0559 46.3213 68.3963 48.3319 69.4388 50.5658Z" fill="#FFD654"/>
<path opacity="0.2" d="M66.6836 48.7049C68.4707 52.3536 69.5877 56.2257 70.0345 60.0234C71.6727 74.3205 64.3752 88.692 50.6739 95.3938C43.7487 98.8191 36.2279 99.6382 29.1538 98.3723C32.8025 97.9255 36.4512 96.8086 40.0255 95.0959C46.7273 91.8195 51.8653 86.7559 55.2162 80.6499C52.8333 82.2136 50.2271 83.6284 47.5464 84.9688C37.6427 89.809 27.6645 92.2663 18.9522 92.4152C18.6544 92.4152 18.431 92.4152 18.1331 92.4152C17.0906 92.4152 16.0481 92.4152 15.0801 92.3407C14.9312 92.3407 14.7078 92.3407 14.4844 92.2663C13.9631 91.745 13.5164 91.2238 12.9951 90.7025C10.8357 88.3197 9.04852 85.639 7.55924 82.6604C6.44228 80.4265 5.62318 78.1181 5.02747 75.8097H5.10193C7.48478 76.0331 10.0165 76.1076 12.6228 75.9587C20.8883 75.5119 30.2707 73.0546 39.5787 68.5867C46.206 65.3848 52.0142 61.4382 56.7054 57.1193C57.3756 56.5236 57.9713 55.9279 58.6415 55.3322C61.4711 52.577 63.9284 49.6729 65.79 46.6943C66.0134 47.439 66.3858 48.1092 66.6836 48.7049Z" fill="#15006D"/>
<path opacity="0.2" d="M69.4387 50.566C69.5876 50.7894 69.6621 51.0872 69.811 51.3106C68.7685 49.3746 67.6516 47.513 66.3112 45.8747C66.3112 45.8747 66.3112 45.8747 66.3112 45.9492C64.3007 49.1512 61.6944 52.4276 58.567 55.4806C57.9712 53.0977 57.1521 50.7149 56.0352 48.4065C51.9397 40.0666 44.9401 34.035 36.8235 31.0564C50.1525 30.5352 63.1837 37.8326 69.4387 50.566Z" fill="#15006D"/>
<path opacity="0.6" d="M49.7801 33.0673C42.1848 31.2801 33.9193 31.9503 26.3985 35.6735C9.04836 44.1624 1.89982 65.0123 10.3887 82.3624C10.5376 82.6602 10.6866 82.9581 10.8355 83.256C9.86747 83.256 8.82497 83.3304 7.85694 83.4049C7.48462 82.7347 7.1123 82.0645 6.73998 81.3199C-1.74891 63.9698 5.47409 43.0454 22.7497 34.5565C31.5365 30.3121 41.2168 30.0142 49.7801 33.0673Z" fill="white"/>
<path d="M38.1639 102.169C24.7604 102.169 11.8781 94.7231 5.62314 81.9153C-3.16361 63.9695 4.28279 42.3005 22.2286 33.5137C30.9409 29.2693 40.6956 28.6736 49.8547 31.8011C59.0138 34.9285 66.3857 41.4814 70.6301 50.1192C79.4169 68.065 71.9705 89.734 54.0247 98.5208C48.8867 100.978 43.5253 102.169 38.1639 102.169ZM38.0894 32.3223C33.0259 32.3223 28.0368 33.4393 23.3456 35.7477C15.3034 39.6942 9.19741 46.5449 6.29331 55.0338C3.38922 63.5227 3.98493 72.6818 7.93152 80.7239C16.0481 97.4038 36.2278 104.329 52.9077 96.1379C69.5877 88.0213 76.5128 67.8416 68.3218 51.1617C64.3752 43.1196 57.5245 37.0135 49.0356 34.1094C45.4613 32.918 41.7381 32.3223 38.0894 32.3223Z" fill="#15006D"/>
<path d="M72.4918 50.3428C72.7897 50.9385 73.013 51.4598 73.3109 52.0555C73.8321 53.2469 73.7577 54.5128 73.162 55.6298C69.4388 62.5549 62.737 69.5545 53.9503 75.3627C51.2696 77.1498 48.291 78.7881 45.238 80.3518C35.3343 85.192 25.3561 87.6493 16.6438 87.7982C16.346 87.7982 16.1226 87.7982 15.8247 87.7982C13.293 87.7982 10.9101 87.6493 8.6762 87.2769C7.41032 87.0536 6.36782 86.3089 5.77211 85.192C5.47425 84.6707 5.1764 84.075 4.87854 83.4793C3.16587 79.9795 2.04891 76.4052 1.52766 72.7565C1.37874 71.9374 2.12338 71.1927 2.94248 71.2672C5.32533 71.4906 7.8571 71.5651 10.4633 71.4161C18.7288 70.9693 28.1113 68.512 37.4193 64.0442C44.0466 60.8422 49.8548 56.8957 54.546 52.5767C58.567 49.0025 61.8435 45.1304 64.2263 41.2582C64.6731 40.5136 65.7156 40.4391 66.3113 41.0348C68.6197 43.79 70.7791 46.9175 72.4918 50.3428Z" fill="#FF1564"/>
<path d="M72.4918 50.3428C72.7897 50.9385 73.013 51.4598 73.3109 52.0555C73.8321 53.2469 73.7577 54.5128 73.162 55.6298C69.4388 62.5549 62.737 69.5545 53.9503 75.3627C51.2696 77.1498 48.291 78.7881 45.238 80.3518C35.3343 85.192 25.3561 87.6493 16.6438 87.7982C16.346 87.7982 16.1226 87.7982 15.8247 87.7982C13.293 87.7982 10.9101 87.6493 8.6762 87.2769C7.41032 87.0536 6.36782 86.3089 5.77211 85.192C5.47425 84.6707 5.1764 84.075 4.87854 83.4793C3.16587 79.9795 2.04891 76.4052 1.52766 72.7565C1.37874 71.9374 2.12338 71.1927 2.94248 71.2672C5.32533 71.4906 7.8571 71.5651 10.4633 71.4161C18.7288 70.9693 28.1113 68.512 37.4193 64.0442C44.0466 60.8422 49.8548 56.8957 54.546 52.5767C58.567 49.0025 61.8435 45.1304 64.2263 41.2582C64.6731 40.5136 65.7156 40.4391 66.3113 41.0348C68.6197 43.79 70.7791 46.9175 72.4918 50.3428Z" fill="#FFD654"/>
<path opacity="0.6" d="M16.1225 87.6494C13.5907 87.6494 11.2078 87.5005 8.97393 87.1282C7.70804 86.9048 6.66555 86.1601 6.06984 85.0432C5.77198 84.5219 5.47413 83.9262 5.17627 83.3305C3.4636 79.8307 2.34664 76.2564 1.82539 72.6077C1.67647 71.7886 2.42111 71.044 3.24021 71.1184C5.62305 71.3418 8.15483 71.4163 10.7611 71.2674L11.2078 71.8631L5.69752 73.6502C5.25073 73.7991 4.95288 74.3204 5.02734 74.7672C5.39966 76.5543 6.51662 80.7987 8.60161 84.0007C10.6866 87.1282 14.4843 87.575 16.1225 87.6494Z" fill="white"/>
<path d="M15.6013 89.1386C13.0695 89.1386 10.6122 88.9153 8.30383 88.5429C6.66563 88.2451 5.25081 87.2771 4.43171 85.7878C4.13385 85.1921 3.836 84.5964 3.53814 84.0006C1.82547 80.5753 0.634048 76.8521 0.0383368 72.98C-0.110591 72.1609 0.187265 71.3418 0.708512 70.7461C1.22976 70.1503 2.04886 69.8525 2.86797 70.0014C12.8461 71.1184 25.1327 68.5121 36.6001 62.9273C48.0676 57.2681 57.6734 49.1515 62.8859 40.6626C63.3327 39.9925 64.0029 39.5457 64.822 39.4712C65.6411 39.3967 66.3857 39.6946 66.9814 40.2903C69.6621 43.1199 71.896 46.3219 73.6087 49.8217C73.9066 50.4174 74.2044 51.0131 74.4278 51.6088C75.098 53.1726 75.0235 54.8852 74.2044 56.3001C68.9919 65.9804 58.567 75.2139 45.6847 81.5433C35.5576 86.5324 24.9838 89.1386 15.6013 89.1386ZM2.64457 72.5332C2.64457 72.5332 2.57011 72.5332 2.64457 72.5332C3.16582 76.1819 4.28278 79.6073 5.92099 82.8837C6.21884 83.4049 6.44224 84.0006 6.74009 84.5219C7.18687 85.2665 7.93151 85.8622 8.75062 85.9367C19.1011 87.7238 32.2068 85.1921 44.5678 79.1605C57.0032 73.0544 66.9814 64.2677 71.9705 55.0342C72.4173 54.2895 72.4173 53.3215 72.045 52.5769C71.8216 51.9811 71.5237 51.4599 71.3003 50.8642C69.6621 47.5878 67.6516 44.6092 65.1198 41.9285C59.6095 50.8642 49.6313 59.3531 37.7915 65.1613C25.8773 71.0439 13.0695 73.7246 2.64457 72.5332Z" fill="#15006D"/>
<path opacity="0.2" d="M72.4917 50.3429C72.7896 50.9386 73.013 51.4599 73.3108 52.0556C73.8321 53.247 73.7576 54.5129 73.1619 55.6298C69.4387 62.555 62.7369 69.5546 53.9502 75.3628C58.7904 69.7035 56.5564 59.502 55.1416 54.9597C55.5884 54.5873 55.9607 54.215 56.333 53.9172C60.3541 50.3429 63.6305 46.4708 66.0134 42.5986C66.2367 42.2263 66.5346 42.0774 66.9069 42.0029C69.0664 44.4602 70.928 47.2899 72.4917 50.3429Z" fill="#15006D"/>
<path opacity="0.25" d="M36.5255 68.5862C33.1002 70.2244 29.7493 71.3413 27.6643 71.9371C26.4729 72.3094 25.8027 73.5008 26.1751 74.6922L27.7388 79.7558C28.1111 80.9472 29.3025 81.5429 30.494 81.245C32.7279 80.5749 36.4511 79.309 40.6211 77.5218C41.738 77.0006 42.2593 75.7347 41.738 74.6178L39.5041 69.7031C38.9829 68.5117 37.6425 68.0649 36.5255 68.5862Z" fill="white"/>
<path opacity="0.25" d="M41.3658 68.0653L44.1954 73.8735C44.4932 74.4692 45.2379 74.6926 45.8336 74.3948L48.5143 72.9055C49.11 72.6076 49.2589 71.863 48.9611 71.3418L45.6847 65.757C45.3868 65.2357 44.6422 65.0123 44.1209 65.3102L41.9615 66.5761C41.2913 66.7994 41.1424 67.4696 41.3658 68.0653Z" fill="white"/>
<path opacity="0.25" d="M32.174 57.9821C38.2227 52.592 40.3758 45.1361 36.9831 41.3288C33.5904 37.5214 25.9366 38.8045 19.8878 44.1946C13.8391 49.5846 11.686 57.0405 15.0787 60.8479C18.4715 64.6552 26.1253 63.3721 32.174 57.9821Z" fill="white"/>
<path d="M95.2032 72.6823L68.5451 141.859C67.5026 144.54 64.524 145.88 61.8433 144.838L59.0137 143.721C56.333 142.678 54.9926 139.7 56.0351 137.019L82.6932 67.8422C83.7357 65.1615 86.7143 63.8211 89.395 64.8636L92.2246 65.9806C94.9053 67.0231 96.2457 70.0016 95.2032 72.6823Z" fill="white"/>
<path d="M63.7049 146.476C62.9603 146.476 62.1412 146.327 61.3965 146.03L58.5669 144.913C55.216 143.647 53.5778 139.849 54.8437 136.498L81.5018 67.3212C82.7677 63.9703 86.5654 62.3321 89.9162 63.598L92.7459 64.7149C96.0967 65.9808 97.7349 69.7785 96.4691 73.1294L69.811 142.306C68.7685 144.913 66.3112 146.476 63.7049 146.476ZM62.2901 143.647C64.3006 144.391 66.609 143.423 67.3537 141.413L94.0117 72.2358C94.7564 70.2253 93.7884 67.9169 91.7778 67.1723L88.9482 66.0553C86.9377 65.3107 84.6293 66.2787 83.8847 68.2892L57.2266 137.466C56.4819 139.477 57.45 141.785 59.4605 142.53L62.2901 143.647Z" fill="#15006D"/>
<path opacity="0.2" d="M92.448 71.64L65.7899 140.817C64.7474 143.498 61.7689 144.838 59.0882 143.796L58.6414 143.647C58.0457 143.423 57.5244 143.051 57.0776 142.679C59.1626 142.679 61.1732 141.413 61.9923 139.328L80.2359 91.9686C80.8316 90.4794 80.3104 88.7667 79.0445 87.7987C77.8531 86.9051 76.8106 85.9371 75.7681 84.8946L82.3954 67.7679C83.2145 65.6829 85.1505 64.417 87.31 64.417C87.4589 64.417 87.6079 64.417 87.7568 64.417C87.8312 64.417 87.9057 64.417 87.9057 64.417C88.0546 64.417 88.2036 64.4915 88.3525 64.4915C88.427 64.4915 88.5014 64.4915 88.5014 64.5659C88.5759 64.5659 88.5759 64.5659 88.6503 64.5659C88.7248 64.5659 88.7993 64.6404 88.8737 64.6404C88.9482 64.6404 89.0227 64.7148 89.0971 64.7148L89.5439 64.8638C92.1502 65.9807 93.4905 68.9593 92.448 71.64Z" fill="#15006D"/>
<path d="M137.499 55.7786C135.786 60.172 133.478 64.0441 130.573 67.395C119.851 79.9794 101.979 85.0429 85.6717 78.788C69.3641 72.533 59.5349 56.7466 59.9816 40.2156C60.1306 35.8223 60.9497 31.28 62.6623 26.9611C63.7048 24.2804 64.9707 21.7486 66.46 19.4402C76.5871 3.95171 96.469 -2.97343 114.489 3.95171C132.51 10.8769 142.637 29.3439 139.658 47.662C139.211 50.4172 138.467 53.0979 137.499 55.7786Z" fill="#FFD654"/>
<path opacity="0.2" d="M136.903 51.9821C135.19 56.3755 132.882 60.2476 129.978 63.5985C119.255 76.1829 101.384 81.2464 85.076 74.9915C76.8105 71.7895 70.1833 66.1303 65.7154 59.2051C68.9918 61.8858 72.715 64.1942 76.9595 65.7579C84.9271 68.811 93.2671 69.1833 100.937 67.2472C97.7349 66.4281 94.533 65.3856 91.331 64.1197C79.5657 59.5774 69.662 53.0991 62.7369 45.8761C62.5135 45.6527 62.2901 45.4293 62.1411 45.2059C61.322 44.3123 60.5774 43.4188 59.8328 42.5997C59.6838 42.4507 59.5349 42.3018 59.4604 42.0784C59.4604 41.2593 59.5349 40.4402 59.6094 39.6211C59.9072 35.9724 60.8008 32.3236 62.1411 28.7494C63.1836 26.0687 64.4495 23.5369 65.9388 21.2285C65.9388 21.2285 65.9388 21.2285 66.0133 21.303C67.6515 23.4624 69.5875 25.6964 71.747 27.7813C78.5977 34.4086 87.9801 40.4402 99.0008 44.6847C106.894 47.7377 114.713 49.5248 122.01 50.195C123.053 50.2695 124.021 50.3439 124.989 50.4184C129.531 50.6418 133.924 50.4184 137.871 49.7482C137.424 50.4928 137.201 51.2375 136.903 51.9821Z" fill="#15006D"/>
<path opacity="0.2" d="M137.499 55.7787C137.35 56.0765 137.275 56.3744 137.126 56.6722C137.945 54.2894 138.616 51.9066 138.988 49.4492H138.914C134.669 50.2683 129.903 50.6407 124.84 50.3428C126.404 47.96 127.744 45.4282 128.786 42.673C132.659 32.6949 132.212 22.121 128.414 12.9619C139.286 23.8336 143.381 40.5136 137.499 55.7787Z" fill="#15006D"/>
<path opacity="0.6" d="M136.903 25.5468C132.51 17.7281 125.436 11.3986 116.425 7.89883C95.7245 -0.0688134 72.5662 10.2072 64.5985 30.9082C64.4496 31.2805 64.3007 31.5784 64.2262 31.9507C63.4071 31.1316 62.588 30.3125 61.7689 29.5678C62.0668 28.7487 62.2902 27.8552 62.6625 27.0361C70.5557 6.33508 93.7884 -4.0154 114.489 3.95224C124.914 7.97329 132.733 15.9409 136.903 25.5468Z" fill="white"/>
<path d="M99.9689 82.8096C95.0543 82.8096 89.9907 81.916 85.1506 80.0544C74.8001 76.1078 66.6835 68.3636 62.2157 58.2365C57.7479 48.1094 57.45 36.8653 61.3966 26.5893C69.6621 5.21816 93.6395 -5.43018 114.936 2.76085C136.233 10.9519 146.881 34.9293 138.69 56.226C132.361 72.6825 116.649 82.8096 99.9689 82.8096ZM100.043 2.53746C94.682 2.53746 89.3206 3.65442 84.3315 5.88834C74.8746 10.0583 67.5771 17.7281 63.8539 27.4084C60.1307 37.0887 60.4286 47.6626 64.5985 57.1195C68.7685 66.5764 76.4383 73.8739 86.1186 77.5971C90.6609 79.3842 95.4266 80.2033 100.043 80.2033C115.606 80.2033 130.35 70.7464 136.307 55.3324C143.977 35.3761 133.999 12.8879 114.043 5.1437C109.5 3.43103 104.735 2.53746 100.043 2.53746Z" fill="#15006D"/>
<path d="M140.031 58.1619C139.733 58.832 139.509 59.5022 139.211 60.1724C138.616 61.5127 137.499 62.4808 136.084 62.8531C127.297 65.1615 116.202 64.9381 104.437 62.034C100.788 61.1404 97.1393 60.0235 93.4906 58.6086C81.6508 54.0663 71.7471 47.588 64.8219 40.365C64.5986 40.1416 64.3752 39.9182 64.2262 39.6948C62.2157 37.6098 60.503 35.3759 59.0882 33.2164C58.2691 32.025 58.1202 30.4613 58.567 29.1209C58.7904 28.4507 59.0138 27.7061 59.3116 27.0359C60.8754 22.866 63.1093 19.1428 65.7155 15.7919C66.3112 15.0472 67.5027 15.0472 68.0984 15.7919C69.7366 17.9513 71.6726 20.1852 73.8321 22.2702C80.6828 28.8975 90.0652 34.9291 101.086 39.1736C108.979 42.2266 116.798 44.0137 124.095 44.6839C130.276 45.2796 136.084 44.9817 141.147 44.0137C142.116 43.7903 143.009 44.6094 142.935 45.5775C142.488 49.7474 141.594 53.9919 140.031 58.1619Z" fill="#FF1564"/>
<path d="M140.031 58.1619C139.733 58.832 139.509 59.5022 139.211 60.1724C138.616 61.5127 137.499 62.4808 136.084 62.8531C127.297 65.1615 116.202 64.9381 104.437 62.034C100.788 61.1404 97.1393 60.0235 93.4906 58.6086C81.6508 54.0663 71.7471 47.588 64.8219 40.365C64.5986 40.1416 64.3752 39.9182 64.2262 39.6948C62.2157 37.6098 60.503 35.3759 59.0882 33.2164C58.2691 32.025 58.1202 30.4613 58.567 29.1209C58.7904 28.4507 59.0138 27.7061 59.3116 27.0359C60.8754 22.866 63.1093 19.1428 65.7155 15.7919C66.3112 15.0472 67.5027 15.0472 68.0984 15.7919C69.7366 17.9513 71.6726 20.1852 73.8321 22.2702C80.6828 28.8975 90.0652 34.9291 101.086 39.1736C108.979 42.2266 116.798 44.0137 124.095 44.6839C130.276 45.2796 136.084 44.9817 141.147 44.0137C142.116 43.7903 143.009 44.6094 142.935 45.5775C142.488 49.7474 141.594 53.9919 140.031 58.1619Z" fill="#FFD654"/>
<path opacity="0.6" d="M64.6729 39.8432C62.6624 37.7582 60.9497 35.5243 59.5349 33.3649C58.7158 32.1735 58.5668 30.6097 59.0136 29.2694C59.237 28.5992 59.4604 27.8545 59.7583 27.1844C61.322 23.0144 63.5559 19.2912 66.1622 15.9403C66.7579 15.1957 67.9493 15.1957 68.545 15.9403C70.1832 18.0998 72.1193 20.3337 74.2787 22.4187L74.1298 23.2378L68.3216 19.9614C67.8004 19.6635 67.2047 19.8124 66.8323 20.3337C65.6409 22.0464 62.9602 26.2908 61.9177 30.5352C60.8008 34.8542 63.3325 38.4284 64.6729 39.8432Z" fill="white"/>
<path d="M122.755 65.6831C113.372 65.6831 103.096 63.6726 92.9692 59.8004C77.6297 53.9178 64.8219 44.4609 57.8967 33.887C56.8542 32.3233 56.6308 30.4617 57.2265 28.6745C57.4499 27.9299 57.7478 27.2597 57.9712 26.5151C59.6094 22.3451 61.7688 18.473 64.524 14.9732C65.0453 14.303 65.8644 13.9307 66.7579 13.9307C67.6515 13.9307 68.3961 14.3774 68.9174 15.0476C75.8425 24.3556 87.6078 32.6956 101.309 37.9825C115.011 43.2695 129.382 44.9821 140.701 42.7482C141.52 42.5993 142.413 42.8227 143.083 43.4184C143.754 44.0141 144.051 44.8332 144.051 45.7268C143.754 50.1946 142.786 54.5135 141.147 58.6835C140.85 59.3537 140.552 60.0983 140.254 60.7685C139.509 62.4811 138.02 63.747 136.233 64.1938C132.212 65.1618 127.595 65.6831 122.755 65.6831ZM66.7579 16.4624C66.6835 16.4624 66.609 16.4624 66.609 16.5369C64.0028 19.8133 61.9178 23.462 60.4285 27.4086C60.2051 28.0788 59.9072 28.749 59.6839 29.4192C59.3115 30.4617 59.4605 31.5042 60.0562 32.3977C66.6835 42.5248 79.0445 51.6094 93.8628 57.3431C108.756 63.0769 123.946 64.5661 135.712 61.5131C136.754 61.2153 137.573 60.5451 138.02 59.5771C138.318 58.9069 138.616 58.2367 138.839 57.641C140.328 53.6944 141.296 49.5989 141.52 45.4289C141.52 45.3544 141.445 45.28 141.445 45.2055C141.371 45.1311 141.296 45.1311 141.296 45.1311C129.457 47.5139 114.638 45.7268 100.49 40.2909C86.3419 34.855 74.1299 26.1427 66.9069 16.5369C66.9069 16.5369 66.8324 16.4624 66.7579 16.4624Z" fill="#15006D"/>
<path opacity="0.2" d="M140.031 58.1623C139.733 58.8324 139.509 59.5026 139.211 60.1728C138.616 61.5132 137.499 62.4812 136.084 62.8535C127.297 65.1619 116.202 64.9385 104.437 62.0344C113 61.7365 119.851 51.7584 122.532 47.1416C123.127 47.2161 123.797 47.2905 124.393 47.365C130.574 47.9607 136.382 47.6629 141.445 46.6948C141.892 46.6204 142.339 46.6948 142.637 46.9927C142.339 50.7159 141.445 54.4391 140.031 58.1623Z" fill="#15006D"/>
<path opacity="0.25" d="M96.618 42.1524C92.5225 40.5142 89.0227 38.5782 86.8633 37.3123C85.6718 36.5676 84.1081 37.0144 83.3635 38.2059L80.3104 43.4928C79.6403 44.6842 80.0126 46.248 81.204 46.9181C83.5124 48.2585 87.459 50.4179 92.2991 52.5029C93.565 53.0242 95.0543 52.4285 95.65 51.1626L98.0329 45.4289C98.5541 44.163 97.9584 42.6737 96.618 42.1524Z" fill="white"/>
<path opacity="0.25" d="M100.862 45.801L98.1818 52.7262C97.8839 53.4708 98.2563 54.2155 99.0009 54.4389L102.352 55.4814C103.096 55.7047 103.841 55.3324 103.99 54.5878L106.149 47.4392C106.373 46.7691 105.926 46.0244 105.256 45.801L102.501 44.9819C101.831 44.7585 101.086 45.1309 100.862 45.801Z" fill="white"/>
<path opacity="0.25" d="M119.853 21.2371C120.409 15.3826 113.36 9.92363 104.107 9.04407C94.8549 8.16452 86.9031 12.1975 86.3466 18.0519C85.79 23.9064 92.8395 29.3654 102.092 30.2449C111.344 31.1245 119.296 27.0915 119.853 21.2371Z" fill="white"/>
</svg>
