<svg width="90" height="147" viewBox="0 0 90 147" fill="none" xmlns="http://www.w3.org/2000/svg">
<path d="M31.9734 81.456L20.6903 140.74C20.249 143.039 21.757 145.255 24.0559 145.697L26.4744 146.156C28.7733 146.598 30.9895 145.09 31.4308 142.791L42.7231 83.5066C43.1645 81.2077 41.6564 78.9916 39.3575 78.5502L36.939 78.0904C34.6309 77.649 32.4148 79.1571 31.9734 81.456Z" fill="white" stroke="#15006D" stroke-width="1.3791" stroke-miterlimit="10"/>
<g opacity="0.3">
<path opacity="0.3" d="M34.318 81.9062L23.0349 141.19C22.5935 143.489 24.1016 145.706 26.4005 146.147L26.7683 146.221C27.2833 146.322 27.7982 146.322 28.2948 146.23C26.8327 145.338 26.0051 143.609 26.3453 141.825L34.0697 101.254C34.3088 99.9756 35.3663 99.0193 36.6628 98.8814C37.8583 98.7434 39.0445 98.5411 40.2032 98.2745L42.9986 83.5614C43.3389 81.7775 42.5113 80.0487 41.0492 79.1567C40.948 79.0924 40.8377 79.028 40.7273 78.9728C40.7181 78.9728 40.7089 78.9636 40.7089 78.9636C40.6629 78.9452 40.6262 78.9176 40.5802 78.8993C40.4698 78.8533 40.3595 78.8073 40.2491 78.7705C40.2032 78.7521 40.1572 78.7337 40.1112 78.7245C40.0744 78.7153 40.0376 78.697 40.01 78.6878C39.9457 78.6694 39.8813 78.651 39.8169 78.6418C39.7526 78.6234 39.6882 78.6142 39.6238 78.5958L39.256 78.5222C36.9663 78.0992 34.7501 79.6073 34.318 81.9062Z" fill="#000072"/>
</g>
<path d="M1.10334 45.8864C1.26886 56.9119 5.49886 66.9168 12.3496 74.5032C14.5566 76.9492 17.0302 79.1286 19.7337 81.0229C26.9799 86.0989 35.8352 89.0231 45.3619 88.8851C48.7919 88.8392 52.1299 88.3886 55.33 87.5886C66.5211 84.7931 75.9742 77.6941 81.8686 68.1582C85.3905 62.4661 87.6343 55.9004 88.2136 48.8841C88.3331 47.4864 88.3791 46.0611 88.3607 44.6174C88.2412 36.2861 85.7951 28.5342 81.6479 21.9777C73.7948 9.56361 59.8634 1.39789 44.1021 1.62778C37.3709 1.72893 31.0167 3.33817 25.3614 6.15203C11.4668 13.0488 1.80221 27.1273 1.14931 43.4587C1.13093 43.8265 1.12173 44.2036 1.12173 44.5806C1.11253 44.9116 1.11253 45.2335 1.12173 45.5645C1.10334 45.6749 1.10334 45.776 1.10334 45.8864Z" fill="#FFD654"/>
<path d="M3.59536 55.1369C4.05514 35.964 26.75 22.0326 32.58 41.2975L32.1294 37.4721C41.7756 22.2717 21.8671 13.9588 4.13791 29.2236C4.13791 29.2236 -2.18869 39.4399 3.59536 55.1369Z" fill="#33ACFF"/>
<path d="M43.9279 75.4225C32.185 73.0317 28.1114 58.6773 28.1114 58.6773C28.1114 58.6773 22.8515 54.6128 20.5066 48.5713C20.5066 48.5713 15.6329 60.6176 21.0123 71.4868C28.3505 75.5973 35.9828 76.9582 43.9279 75.4225Z" fill="#33ACFF"/>
<path d="M19.7338 81.0138C26.98 86.0898 35.8354 89.014 45.3621 88.8761C48.792 88.8301 52.1301 88.3795 55.3301 87.5795C55.4313 87.5059 55.5141 87.4323 55.5968 87.3772C55.8911 87.3588 56.1853 87.3312 56.4796 87.2852C62.6867 85.4277 68.5535 81.9977 74.172 77.4551C73.8869 77.6206 62.843 84.1863 49.6288 81.5287L43.3206 82.8161L22.3086 80.0942L19.7338 81.0138Z" fill="#33ACFF"/>
<path d="M67.3304 57.9688C62.9809 61.8493 57.4176 63.3206 49.6656 60.3872L43.7436 62.5022C43.7436 62.5022 50.5944 69.2886 60.6452 67.3943C60.6452 67.3943 64.3695 62.9896 67.3304 57.9688Z" fill="#33ACFF"/>
<path d="M53.4545 23.9268C53.4545 23.9268 57.8316 28.6993 57.6017 38.2076C57.6017 38.2076 59.965 44.571 57.9511 49.8401C63.5881 47.7894 67.3123 43.725 64.903 33.2327C64.903 33.2419 60.1673 25.7843 53.4545 23.9268Z" fill="#33ACFF"/>
<path d="M68.8755 68.4707C76.9401 65.4085 86.1449 57.6658 88.2139 48.884C88.3335 47.4862 88.3795 46.0609 88.3611 44.6172C88.2415 36.2859 85.7955 28.534 81.6483 21.9775C81.6483 21.9775 85.8231 36.7917 76.4895 51.5691C76.4803 51.5783 75.1745 63.882 68.8755 68.4707Z" fill="#33ACFF"/>
<path d="M1.10355 45.8859C1.26907 56.9114 5.49906 66.9163 12.3498 74.5027C13.9866 75.7257 15.7154 76.8384 17.5086 77.8315C23.5225 81.1603 30.3916 83.1098 37.3619 83.1741C40.8195 83.2293 44.2495 82.8247 47.6335 82.0615C49.3071 81.6477 50.9807 81.1879 52.6083 80.5718L53.2152 80.3511L53.8221 80.1028C54.2267 79.9373 54.6221 79.7718 55.0267 79.6062C55.8176 79.2384 56.6084 78.889 57.3716 78.466C58.1533 78.0798 58.8981 77.62 59.6521 77.1786C60.02 76.9487 60.3878 76.7096 60.7556 76.4705L61.3074 76.1119L61.8407 75.7257C63.2752 74.7234 64.627 73.5923 65.896 72.3877C68.4524 69.9784 70.6501 67.1646 72.3789 64.084C73.2525 62.5483 73.9697 60.9207 74.6042 59.2747C75.2204 57.6103 75.6985 55.9091 76.0572 54.1803C76.1491 53.7481 76.2135 53.3067 76.287 52.8837L76.3974 52.2308L76.4802 51.578L76.6365 50.263L76.7192 48.948L76.756 48.2951L76.7652 47.633L76.7744 46.3181L76.7192 44.9847C76.7008 44.5433 76.6457 44.0927 76.6089 43.6513C76.4342 41.8766 76.1031 40.111 75.6342 38.3914C75.156 36.6626 74.5215 34.989 73.7674 33.3706C73.0042 31.7522 72.103 30.2073 71.0823 28.736C70.0524 27.2739 68.903 25.9038 67.6432 24.6348C62.6407 19.5404 55.8268 16.2299 48.7093 15.4851L48.0381 15.4115L47.3668 15.3656C46.9254 15.3472 46.4748 15.3012 46.0334 15.3012C45.5828 15.3012 45.1414 15.292 44.6908 15.292C44.2311 15.3104 43.7713 15.3196 43.3207 15.3564C41.4908 15.4851 39.67 15.8069 37.9045 16.3219C34.3733 17.3518 31.0629 19.1358 28.2766 21.5358C25.4904 23.9267 23.219 26.9153 21.6558 30.2441C20.0925 33.5729 19.2649 37.2512 19.2281 40.9202L19.2189 41.6099L19.2465 42.318C19.2557 42.7961 19.3201 43.2651 19.3569 43.7341C19.4764 44.672 19.6328 45.6192 19.8718 46.5388C20.3224 48.3871 21.0581 50.171 21.9776 51.8262C23.8535 55.1459 26.603 57.9321 29.8951 59.854C33.1779 61.7759 37.0033 62.7874 40.7919 62.769C42.7506 62.7415 44.7368 62.4288 46.6127 61.7851C48.4978 61.1598 50.2542 60.1575 51.8083 58.9437C53.3623 57.7206 54.7141 56.2401 55.7992 54.5849C56.8843 52.9205 57.6567 51.063 58.1349 49.1411C58.2452 48.6629 58.374 48.1756 58.4291 47.679L58.5303 46.9434C58.5579 46.6951 58.6038 46.456 58.6038 46.2077L58.659 44.7272C58.6498 44.2215 58.6038 43.6973 58.5763 43.1823C58.3556 41.1133 57.6843 39.0811 56.6268 37.2879C54.5302 33.6925 50.9439 31.0165 46.8518 30.0142C45.8311 29.7659 44.7828 29.6188 43.7253 29.6004C43.5874 29.6004 43.4678 29.582 43.3299 29.5912L42.9069 29.6096L42.0701 29.6556C41.7942 29.6924 41.5184 29.7383 41.2333 29.7843L40.8195 29.8579C40.6816 29.8855 40.5436 29.9222 40.4149 29.959C40.139 30.0326 39.8723 30.1062 39.6057 30.1889C39.339 30.2809 39.0815 30.382 38.8148 30.4924C38.5574 30.5935 38.2907 30.7039 38.0516 30.8418C37.8033 30.9705 37.555 31.0993 37.3068 31.2372C37.0677 31.3843 36.8378 31.5407 36.5987 31.697L36.2493 31.9361C36.1389 32.0188 36.0378 32.1108 35.9274 32.1936L35.2929 32.7361C35.0906 32.9292 34.8975 33.1223 34.7044 33.3246L34.4193 33.6281L34.1527 33.9499C33.9779 34.1706 33.8124 34.3821 33.6469 34.6028L33.1963 35.2925L32.9848 35.6419L32.7917 36.0098C32.6722 36.2488 32.5434 36.4971 32.4239 36.7362C32.3227 36.9937 32.2216 37.242 32.1296 37.4994C32.0836 37.6282 32.0285 37.7477 31.9917 37.8857L31.8813 38.2719C31.8078 38.5386 31.7342 38.796 31.679 39.0535C31.633 39.3202 31.5871 39.5869 31.5503 39.8443L31.4951 40.2397L31.4675 40.6352L31.4216 41.4352C31.4216 41.7019 31.4399 41.9685 31.4583 42.226C31.4767 42.7318 31.5687 43.3019 31.6698 43.8444C31.7342 44.1111 31.8078 44.3778 31.8813 44.6445C31.9549 44.9111 32.0652 45.1594 32.1664 45.4169C32.5802 46.4284 33.1595 47.3388 33.8584 48.1296C34.5665 48.9112 35.3941 49.5457 36.286 50.0239C38.0608 50.9986 40.1206 51.2285 41.8862 50.7963C42.3827 50.6768 42.6862 50.171 42.5667 49.6745C42.4839 49.3434 42.2264 49.0951 41.9138 49.0032L41.8586 48.9848C39.0447 48.194 37.4447 45.9135 37.3343 43.8812C37.3343 43.7525 37.316 43.6237 37.316 43.5042C37.3251 43.3755 37.3343 43.2559 37.3343 43.1272C37.3711 42.8789 37.3803 42.6582 37.4539 42.3731C37.4907 42.2444 37.5091 42.1065 37.5366 41.9777L37.6562 41.6007L37.7114 41.4076L37.7941 41.2329C37.8493 41.1133 37.8953 40.9938 37.9413 40.8742C38.1895 40.4237 38.4286 39.9823 38.7505 39.6052L38.8608 39.4581L38.9896 39.3202C39.0723 39.2374 39.1643 39.1455 39.2378 39.0535C39.3298 38.9799 39.4217 38.8972 39.5137 38.8144L39.6516 38.6949L39.7988 38.5937C39.8999 38.5202 39.9919 38.4466 40.0838 38.373C40.185 38.3087 40.2861 38.2535 40.3873 38.1891C40.4792 38.1156 40.5896 38.0696 40.6908 38.0144C40.7919 37.9592 40.8931 37.8949 40.9942 37.8489C41.2149 37.7753 41.408 37.6466 41.6287 37.5914L41.9506 37.4719C42.0609 37.4443 42.1712 37.4259 42.2816 37.3891C42.3368 37.3707 42.3919 37.3523 42.4471 37.3431L42.6126 37.3155C42.723 37.2971 42.8425 37.2696 42.9529 37.2512C43.0632 37.242 43.1828 37.2328 43.3023 37.2236L43.477 37.2052C43.5322 37.196 43.6058 37.2052 43.6701 37.2052C44.2035 37.196 44.7276 37.2236 45.2518 37.3155C46.2909 37.4902 47.3208 37.8949 48.2036 38.5202C49.0956 39.1455 49.8312 39.9639 50.3829 40.9018C50.9347 41.8306 51.2749 42.8789 51.3945 43.9548C51.4037 44.2306 51.4312 44.4973 51.4404 44.7732C51.4312 45.0674 51.4129 45.3617 51.4129 45.6652C51.4221 45.8123 51.3853 45.9594 51.3669 46.1066L51.3117 46.5479C51.2933 46.8422 51.2014 47.1273 51.137 47.4123C50.8519 48.5526 50.4013 49.6561 49.7576 50.6492C49.1048 51.6331 48.2955 52.5159 47.3668 53.2516C46.438 53.978 45.3989 54.5849 44.277 54.9436C43.1552 55.3206 41.9965 55.5137 40.7919 55.5321C38.2539 55.5505 35.7527 54.8792 33.5641 53.601C31.3848 52.3228 29.5456 50.4653 28.3042 48.2675C27.6973 47.1641 27.2099 45.9962 26.9157 44.764C26.7502 44.1571 26.6582 43.5318 26.5755 42.9065C26.5571 42.5938 26.5019 42.2812 26.5019 41.9593L26.4651 41.4903V40.9938C26.5019 38.3362 27.0904 35.6971 28.2123 33.297C29.3433 30.897 30.9802 28.7452 32.994 27.0072C35.0078 25.2784 37.3895 23.9911 39.9367 23.2462C41.2057 22.8784 42.5207 22.6393 43.8449 22.5473C44.1759 22.529 44.5069 22.5198 44.838 22.5014L45.8679 22.5106C46.2173 22.5014 46.5576 22.5473 46.8978 22.5565L47.4128 22.5933L47.9277 22.6485C53.4083 23.2278 58.6406 25.775 62.512 29.7015C63.4775 30.6855 64.3787 31.7338 65.1603 32.8648C65.9512 33.9959 66.6408 35.1913 67.2293 36.4328C67.8179 37.6742 68.3052 38.9707 68.6731 40.2949C69.0317 41.6191 69.28 42.98 69.4179 44.3502C69.4455 44.6904 69.4915 45.0399 69.5007 45.3801L69.5466 46.41L69.5283 47.4675V48.0009L69.4915 48.525L69.4271 49.5825L69.3076 50.6308L69.2432 51.155L69.1512 51.6699C69.0869 52.0193 69.0409 52.3596 68.9673 52.709C68.6731 54.0792 68.296 55.4217 67.8179 56.7367C67.3121 58.0425 66.7512 59.3207 66.0615 60.5345C63.3396 65.4174 59.0544 69.4083 54.006 72.029C48.9668 74.6682 43.1828 75.9924 37.4263 75.9188C31.7342 75.8636 26.0513 74.2728 21.0029 71.4773C15.9453 68.691 11.5222 64.7093 8.13821 59.992C4.74502 55.2746 2.37254 49.8308 1.25068 44.1203C1.2047 43.8904 1.15872 43.6605 1.12194 43.4398C1.10355 44.2582 1.09435 45.0766 1.10355 45.8859Z" fill="#EFBE35"/>
<path d="M44.111 2.61147C56.0193 6.32651 63.4678 14.0233 67.661 24.635C67.661 24.635 59.0907 15.2831 44.7179 15.2922C44.7179 15.2922 33.6096 3.45747 15.0712 12.8646C23.6139 6.20696 32.736 1.18615 44.111 2.61147Z" fill="#33ACFF"/>
<g opacity="0.6">
<path opacity="0.6" d="M85.0503 47.0266C85.2526 61.0407 78.834 73.602 68.682 81.7309C80.7191 73.8043 88.5814 60.0936 88.3607 44.6173C88.0113 20.5248 68.1947 1.2783 44.1021 1.62773C34.0053 1.77486 24.7637 5.33357 17.4532 11.2004C24.1568 6.77729 32.1662 4.16573 40.7917 4.03699C64.8843 3.68755 84.7008 22.934 85.0503 47.0266Z" fill="white"/>
</g>
<g opacity="0.6">
<path opacity="0.6" d="M37.6649 41.6009L37.573 41.8768C37.6006 41.8492 37.6281 41.8308 37.6557 41.8032L37.7937 41.6837L37.9408 41.5825C38.0419 41.509 38.1339 41.4354 38.2259 41.3618C38.327 41.2975 38.4282 41.2423 38.5293 41.1779C38.6213 41.1044 38.7316 41.0584 38.8328 41.0032C38.9339 40.948 39.0351 40.8837 39.1362 40.8377C39.3569 40.7641 39.55 40.6354 39.7707 40.5802L40.0926 40.4607C40.2029 40.4331 40.3133 40.4147 40.4236 40.3779C40.4788 40.3595 40.534 40.3411 40.5891 40.3319L40.7547 40.3043C40.865 40.286 40.9845 40.2584 41.0949 40.24C41.2052 40.2308 41.3248 40.2216 41.4443 40.2124L41.619 40.194C41.6742 40.1848 41.7478 40.194 41.8122 40.194C42.3455 40.1848 42.8697 40.2124 43.3938 40.3043C44.4329 40.4791 45.4628 40.8837 46.3456 41.509C47.2376 42.1343 47.9732 42.9527 48.525 43.8906C49.0767 44.8194 49.4169 45.8677 49.5365 46.9436C49.5457 47.2195 49.5733 47.4861 49.5825 47.762C49.5733 48.0563 49.5549 48.3505 49.5549 48.654C49.5641 48.8011 49.5273 48.9482 49.5089 49.0954L49.4537 49.5368C49.4353 49.831 49.3434 50.1161 49.279 50.4012C49.1503 50.9253 48.9756 51.4495 48.7732 51.9552C49.1411 51.5506 49.4721 51.1184 49.7756 50.6678C50.4193 49.6747 50.8699 48.5712 51.1549 47.431C51.2193 47.1459 51.3112 46.8608 51.3296 46.5666L51.3848 46.1252C51.4032 45.9781 51.44 45.8309 51.4308 45.6838C51.44 45.3895 51.4492 45.0953 51.4584 44.7918C51.4492 44.5159 51.4216 44.2493 51.4124 43.9734C51.302 42.8975 50.9526 41.8584 50.4009 40.9205C49.8491 39.9917 49.1135 39.1641 48.2215 38.5388C47.3387 37.9135 46.318 37.5181 45.2697 37.3342C44.7456 37.2422 44.2122 37.2238 43.6881 37.2238C43.6237 37.2238 43.5501 37.2146 43.495 37.2238L43.3202 37.2422C43.2007 37.2514 43.0903 37.2606 42.9708 37.2698C42.8605 37.2974 42.7501 37.3158 42.6306 37.3342L42.465 37.3617C42.4099 37.3709 42.3547 37.3893 42.2995 37.4077C42.1892 37.4445 42.0788 37.4629 41.9685 37.4905L41.6466 37.61C41.4167 37.6652 41.2236 37.7939 41.0121 37.8675C40.911 37.9227 40.8098 37.9779 40.7087 38.033C40.6075 38.0882 40.4972 38.1342 40.4052 38.2077C40.3133 38.2721 40.2029 38.3365 40.1018 38.3917C40.0098 38.4652 39.9179 38.5388 39.8167 38.6124L39.6696 38.7135L39.5316 38.833C39.4489 38.9158 39.3569 38.9986 39.2558 39.0721C39.173 39.1549 39.0902 39.2469 39.0075 39.3388L38.8787 39.4767L38.7684 39.6239C38.4374 40.0009 38.1983 40.4331 37.9592 40.8929C37.9132 41.0124 37.8672 41.132 37.8121 41.2515L37.7293 41.4262L37.6649 41.6009Z" fill="white"/>
</g>
<g opacity="0.6">
<path opacity="0.6" d="M69.5467 47.4964L69.5651 46.4389L69.5191 45.409C69.5099 45.0688 69.4639 44.7193 69.4363 44.3791C69.2984 43.0089 69.0501 41.648 68.6915 40.3238C68.3237 38.9997 67.8363 37.7031 67.2478 36.4617C66.6592 35.2202 65.9696 34.0248 65.1787 32.8938C64.3879 31.7627 63.4959 30.7052 62.5304 29.7305C58.659 25.7947 53.4267 23.2567 47.9461 22.6774L47.4312 22.6222L46.9162 22.5854C46.576 22.5671 46.2357 22.5303 45.8863 22.5395L44.8564 22.5303C44.5254 22.5487 44.1943 22.5487 43.8633 22.5763C42.5391 22.6682 41.2241 22.9073 39.9551 23.2751C37.4171 24.02 35.0355 25.2982 33.0124 27.0361C31.1365 28.6546 29.5824 30.6316 28.4698 32.8386C29.2606 31.8087 30.1526 30.8615 31.1457 30.0155C33.1595 28.2867 35.5412 26.9994 38.0884 26.2545C39.3574 25.8867 40.6724 25.6476 41.9966 25.5556C42.3276 25.5372 42.6586 25.528 42.9897 25.5097L44.0196 25.5189C44.369 25.5097 44.7093 25.5556 45.0495 25.5648L45.5645 25.6016L46.0794 25.6568C51.56 26.2361 56.7923 28.7833 60.6637 32.7098C61.6292 33.6938 62.5304 34.7421 63.312 35.8731C64.1029 37.0042 64.7925 38.1996 65.381 39.441C65.9696 40.6825 66.4569 41.979 66.8248 43.3032C67.1834 44.6274 67.4317 45.9883 67.5696 47.3585C67.5972 47.6987 67.6432 48.0482 67.6524 48.3884L67.6983 49.4183L67.68 50.4758V51.0091L67.6432 51.5333L67.5788 52.5908L67.4593 53.6391L67.3949 54.1633L67.3029 54.6782C67.2386 55.0276 67.1926 55.3679 67.119 55.7173C66.8248 57.0875 66.4477 58.43 65.9696 59.745C65.5098 60.9312 65.004 62.0991 64.3971 63.2118C65.0132 62.3658 65.5742 61.483 66.0891 60.5634C66.7788 59.3496 67.3397 58.0714 67.8455 56.7656C68.3237 55.4598 68.7007 54.1081 68.9949 52.7379C69.0685 52.3977 69.1145 52.0483 69.1788 51.6988L69.2708 51.1839L69.3352 50.6597L69.4547 49.6114L69.5191 48.5539L69.5559 48.0298L69.5467 47.4964Z" fill="white"/>
</g>
<g opacity="0.6">
<path opacity="0.6" d="M19.265 42.3106L19.2374 41.6026L19.2466 40.9129C19.2834 37.2438 20.111 33.5748 21.6743 30.2368C21.8766 29.8046 22.0881 29.3816 22.3088 28.9678C21.3432 30.3011 20.4972 31.7173 19.7983 33.2162C18.2351 36.545 17.4075 40.2232 17.3707 43.8923L17.3615 44.582L17.3891 45.29C17.3983 45.7682 17.4627 46.2372 17.4994 46.7062C17.619 47.6441 17.7753 48.5913 18.0144 49.5108C18.465 51.3591 19.2006 53.1431 20.1202 54.7983C21.9961 58.1179 24.7456 60.9042 28.0376 62.8261C31.3205 64.748 35.1459 65.7595 38.9345 65.7411C40.8931 65.7135 42.8794 65.4009 44.7553 64.7572C46.6404 64.1319 48.3968 63.1296 49.9508 61.9157C51.5049 60.6927 52.8566 59.2122 53.9417 57.557C54.3004 56.9961 54.6314 56.4259 54.9257 55.8282C54.0245 56.9869 52.9854 58.0352 51.8267 58.9455C50.2727 60.1686 48.5255 61.1617 46.6312 61.787C44.7553 62.4307 42.7598 62.7525 40.8104 62.7709C37.0126 62.7985 33.1964 61.7778 29.9135 59.8559C26.6307 57.934 23.872 55.1385 21.9961 51.8281C21.0765 50.1637 20.3409 48.389 19.8903 46.5406C19.6512 45.6211 19.4949 44.6739 19.3753 43.736C19.3294 43.2486 19.2742 42.7796 19.265 42.3106Z" fill="white"/>
</g>
<g opacity="0.6">
<path opacity="0.6" d="M37.3335 43.8725C37.3335 43.7438 37.3151 43.615 37.3151 43.4955C37.3243 43.3667 37.3335 43.2472 37.3335 43.1185C37.3702 42.8702 37.3794 42.6495 37.453 42.3644C37.4898 42.2357 37.5082 42.0977 37.5358 41.969L37.6553 41.592L37.7105 41.3989L37.7932 41.2242C37.8484 41.1046 37.8944 40.9851 37.9404 40.8655C38.0967 40.5713 38.253 40.2862 38.4277 40.0195C38.3542 40.0747 38.2714 40.1207 38.1886 40.1667C38.0967 40.2402 38.0047 40.3138 37.9036 40.3874L37.7565 40.4885L37.6185 40.6081C37.5358 40.6908 37.4438 40.7736 37.3427 40.8471C37.2599 40.9299 37.1771 41.0219 37.0944 41.1138L36.9656 41.2517L36.8553 41.3989C36.5242 41.7759 36.2852 42.2081 36.0461 42.6679C36.0001 42.7874 35.9541 42.907 35.8989 43.0265L35.8162 43.2012L35.761 43.3943L35.6415 43.7713C35.6139 43.9001 35.5955 44.0288 35.5587 44.1668C35.4851 44.4426 35.4759 44.6633 35.4392 44.9208C35.4392 45.0403 35.43 45.1691 35.4208 45.2978C35.4208 45.4174 35.4392 45.5461 35.4392 45.6748C35.5495 47.7071 37.1495 49.9876 39.9634 50.7784L40.0186 50.7968C40.1473 50.8336 40.2761 50.898 40.3772 50.9899C40.8922 50.9715 41.3979 50.9072 41.8853 50.7876C42.3819 50.6681 42.6853 50.1623 42.5658 49.6657C42.483 49.3347 42.2255 49.0864 41.9129 48.9945L41.8577 48.9761C39.0438 48.1853 37.4346 45.9047 37.3335 43.8725Z" fill="white"/>
</g>
<g opacity="0.6">
<path opacity="0.6" d="M56.6912 44.9679C56.7279 45.4829 56.7739 46.007 56.7739 46.5128L56.7187 47.9933C56.7187 48.2416 56.6728 48.4899 56.6452 48.7289L56.544 49.4646C56.4888 49.9612 56.3601 50.4393 56.2498 50.9267C55.7716 52.8486 54.9992 54.7061 53.9141 56.3705C53.3807 57.1889 52.783 57.9614 52.1209 58.6878C53.5462 57.5108 54.7969 56.1222 55.8084 54.5774C56.8935 52.9129 57.6659 51.0554 58.1441 49.1335C58.2544 48.6554 58.3831 48.168 58.4383 47.6714L58.5395 46.9358C58.5671 46.6875 58.613 46.4484 58.613 46.2001L58.6682 44.7196C58.659 44.2139 58.613 43.6897 58.5855 43.1748C58.3648 41.1058 57.6935 39.0735 56.636 37.2804C54.5394 33.6849 50.9531 31.009 46.861 30.0066C45.8403 29.7583 44.792 29.6112 43.7345 29.5928C43.5966 29.5928 43.477 29.5744 43.3391 29.5836L42.9161 29.602L42.0793 29.648C41.8034 29.6848 41.5276 29.7308 41.2425 29.7767L40.8287 29.8503C40.6908 29.8779 40.5528 29.9147 40.4241 29.9515C40.1482 30.025 39.8815 30.0986 39.6149 30.1813C39.3482 30.2733 39.0907 30.3745 38.824 30.4848C38.5666 30.586 38.2999 30.6963 38.0608 30.8342C37.8125 30.963 37.5642 31.0917 37.316 31.2296C37.0769 31.3768 36.847 31.5331 36.6079 31.6894L36.2585 31.9285C36.1481 32.0113 36.047 32.1032 35.9366 32.186L35.3021 32.7285C35.0998 32.9216 34.9067 33.1148 34.7136 33.3171L34.4285 33.6205L34.2814 33.7952C34.309 33.7676 34.3366 33.7401 34.3734 33.7217L34.7228 33.4826C34.9527 33.3263 35.1826 33.1699 35.4309 33.0228C35.6699 32.8849 35.9274 32.7561 36.1757 32.6274C36.424 32.4895 36.6815 32.3791 36.9389 32.2779C37.1964 32.1768 37.4631 32.0665 37.7298 31.9745C37.9964 31.8917 38.2723 31.8182 38.539 31.7446C38.6769 31.7078 38.8056 31.671 38.9436 31.6435L39.3574 31.5699C39.6333 31.5239 39.9091 31.4779 40.1942 31.4411L41.031 31.3952L41.454 31.3768C41.5919 31.3676 41.7207 31.386 41.8494 31.386C42.8977 31.4136 43.946 31.5515 44.9759 31.7998C49.068 32.8021 52.6543 35.478 54.7509 39.0735C55.7992 40.8667 56.4705 42.8989 56.6912 44.9679Z" fill="white"/>
</g>
<g opacity="0.6">
<path opacity="0.6" d="M70.4846 65.8772C68.9765 68.5623 67.119 71.0359 64.9764 73.2153C65.2891 72.9394 65.5833 72.6635 65.8868 72.3877C68.4432 69.9784 70.6409 67.1646 72.3697 64.084C73.2433 62.5484 73.9606 60.9207 74.595 59.2747C75.2112 57.6103 75.6893 55.9091 76.048 54.1803C76.1399 53.7481 76.2043 53.3067 76.2778 52.8837L76.3882 52.2309L76.471 51.578L76.6365 50.263L76.7192 48.948L76.756 48.2951L76.7652 47.633L76.7744 46.3181L76.7192 44.9847C76.7008 44.5433 76.6457 44.0927 76.6089 43.6513C76.4342 41.8766 76.1031 40.111 75.6342 38.3914C75.156 36.6626 74.5215 34.989 73.7674 33.3706C73.0042 31.7522 72.103 30.2073 71.0823 28.736C70.0524 27.2739 68.903 25.9038 67.6432 24.6348C62.6407 19.5404 55.8268 16.2299 48.7093 15.4851L48.0381 15.4115L47.3668 15.3656C46.9254 15.3472 46.4748 15.3012 46.0334 15.3012C45.5828 15.3012 45.1414 15.292 44.6908 15.292C44.2311 15.3104 43.7713 15.3196 43.3207 15.3564C41.4908 15.4851 39.67 15.8069 37.9045 16.3219C34.3733 17.3518 31.0629 19.1358 28.2766 21.5358C27.6146 22.106 26.9801 22.7037 26.3823 23.329C29.1686 20.9289 32.479 19.145 36.0102 18.1151C37.7757 17.6001 39.5965 17.2782 41.4264 17.1495C41.8862 17.1219 42.346 17.1127 42.7965 17.0851C43.2471 17.0851 43.6885 17.0943 44.1391 17.0943C44.5805 17.0943 45.0311 17.1403 45.4725 17.1587L46.1438 17.2047L46.815 17.2782C53.9325 18.0231 60.7372 21.3427 65.7488 26.4279C66.9995 27.6969 68.1581 29.0671 69.188 30.5292C70.2087 31.9913 71.1099 33.5453 71.8731 35.1638C72.6364 36.7822 73.2709 38.4558 73.7399 40.1846C74.2088 41.9042 74.5307 43.6697 74.7146 45.4445C74.7514 45.8859 74.8065 46.3364 74.8249 46.7778L74.8801 48.1112L74.8709 49.4262L74.8617 50.0883L74.8249 50.7412L74.7422 52.0561L74.5859 53.3711L74.5031 54.024L74.3927 54.6769C74.3192 55.1091 74.2456 55.5413 74.1629 55.9735C73.795 57.6931 73.3169 59.4034 72.7099 61.0679C72.0754 62.7139 71.3582 64.3415 70.4846 65.8772Z" fill="white"/>
</g>
<g opacity="0.6">
<path opacity="0.6" d="M26.3267 35.099C25.1956 37.4991 24.6071 40.1383 24.5795 42.7958V43.2924L24.5979 43.7705C24.5979 44.0832 24.6439 44.405 24.6715 44.7177C24.7542 45.343 24.8462 45.9683 25.0117 46.5752C25.306 47.7982 25.7933 48.9753 26.4002 50.0787C27.6417 52.2765 29.4808 54.1432 31.6601 55.4122C33.8395 56.6812 36.3499 57.3525 38.8879 57.3433C40.0925 57.3157 41.2512 57.1318 42.3731 56.7548C43.4949 56.3869 44.534 55.7892 45.4628 55.0628C46.0697 54.5846 46.6306 54.0421 47.1272 53.4351C46.2628 54.088 45.2973 54.6306 44.2674 54.9616C43.1455 55.3386 41.9868 55.5317 40.7822 55.5501C38.2442 55.5685 35.743 54.8972 33.5544 53.6191C31.3751 52.3409 29.5359 50.4833 28.2945 48.2856C27.6876 47.1821 27.2003 46.0143 26.906 44.7821C26.7405 44.1751 26.6485 43.5498 26.5658 42.9245C26.5474 42.6119 26.4922 42.2992 26.4922 41.9774L26.4646 41.49V40.9934C26.5014 38.3359 27.0899 35.6968 28.2118 33.2967C29.021 31.5679 30.1061 29.9679 31.4027 28.5518C31.3015 28.6345 31.2004 28.7173 31.1084 28.8C29.1038 30.538 27.4577 32.699 26.3267 35.099Z" fill="white"/>
</g>
<g opacity="0.3">
<path opacity="0.3" d="M4.22986 44.5346C4.29423 48.783 4.95631 52.875 6.14255 56.7464C9.30585 61.9511 13.1772 66.0156 17.49 69.0134C23.7982 73.3997 31.0627 75.5147 38.4468 75.6526C43.3113 75.7354 48.231 74.963 52.9575 73.3997C17.9038 82.4758 -10.2625 27.9733 28.0649 6.11523L25.9867 6.14282C13.4347 13.4258 4.88275 26.7686 4.25745 42.1069C4.23905 42.4748 4.22986 42.8518 4.22986 43.2288C4.22066 43.5599 4.22066 43.8817 4.22986 44.2127C4.22986 44.3231 4.22986 44.4334 4.22986 44.5346Z" fill="#700006"/>
</g>
<g opacity="0.3">
<path opacity="0.3" d="M6.60284 58.1533C8.54312 63.7627 11.5869 68.8478 15.4766 73.1514C17.6836 75.5974 20.1572 77.7768 22.8607 79.6711C30.1069 84.7471 38.9623 87.6713 48.489 87.5334C51.9189 87.4874 55.2569 87.0368 58.457 86.2368C60.195 85.8046 61.887 85.2712 63.533 84.6367C71.1194 81.0137 77.4828 75.2572 81.8783 68.1582C81.3358 67.6616 81.0323 67.3857 81.0323 67.3857C81.0323 67.3857 74.0252 79.8734 53.2247 80.3424C53.2247 80.3424 44.2314 81.4275 46.0705 75.9193C43.5509 75.9653 40.9945 75.8825 38.4657 75.6526C31.054 74.9629 23.7527 72.9583 17.5089 69.0134C13.2881 66.3466 9.55464 62.7879 6.60284 58.1533Z" fill="#700006"/>
</g>
<path d="M44.902 16.111C44.8468 16.111 44.7916 16.111 44.7364 16.111C44.5709 16.1202 44.4054 16.1202 44.2399 16.1294C43.9548 16.1386 43.6789 16.1478 43.3939 16.1662C41.6191 16.2949 39.8535 16.6076 38.1432 17.1042C34.7316 18.0973 31.5039 19.8445 28.828 22.1526C26.1337 24.4607 23.9175 27.3757 22.4094 30.585C20.9105 33.7758 20.1013 37.3438 20.0553 40.9117V41.5829L20.0829 42.291C20.0921 42.5945 20.1197 42.9071 20.1473 43.2382C20.1565 43.3761 20.1749 43.5048 20.1841 43.6428C20.322 44.7278 20.4783 45.5647 20.6806 46.3371C21.1036 48.0475 21.7841 49.7579 22.7037 51.4223C24.506 54.6224 27.1452 57.2891 30.3177 59.1466C33.4074 60.9581 37.0765 61.9421 40.6536 61.9421C40.6995 61.9421 40.7363 61.9421 40.7823 61.9421C42.7042 61.9145 44.6261 61.5926 46.3549 60.9949C48.0744 60.4248 49.7389 59.5144 51.2929 58.2822C52.7734 57.1144 54.0608 55.7074 55.0999 54.1166C56.1114 52.5625 56.8563 50.8154 57.3253 48.9303L57.3712 48.728C57.4632 48.3233 57.5551 47.9463 57.6011 47.5509L57.7023 46.8337C57.7115 46.7601 57.7207 46.6865 57.7299 46.6222C57.7483 46.4658 57.7666 46.3187 57.7666 46.1992C57.7666 46.19 57.7666 46.1808 57.7666 46.1716L57.8218 44.7095C57.8126 44.3508 57.785 43.983 57.7574 43.5876L57.7299 43.2474C57.5184 41.2979 56.8839 39.3852 55.8907 37.6932C53.8861 34.2724 50.5113 31.762 46.6307 30.8057C45.6468 30.5666 44.6537 30.4378 43.6973 30.4102C43.633 30.4102 43.5686 30.4102 43.5042 30.4011C43.4582 30.4011 43.4123 30.4011 43.3755 30.4011C43.3663 30.4011 43.3479 30.4011 43.3387 30.4011L42.1249 30.4654C41.8674 30.5022 41.6099 30.539 41.3616 30.585L40.9662 30.6585C40.8927 30.6769 40.8099 30.6953 40.7363 30.7137L40.5984 30.7505C40.3317 30.8241 40.0742 30.8976 39.8352 30.962C39.6237 31.0355 39.4122 31.1183 39.1915 31.2103L39.0811 31.2562C38.888 31.3298 38.6397 31.431 38.3914 31.5689C38.1524 31.6884 37.9133 31.8172 37.7018 31.9367C37.5363 32.0379 37.3799 32.139 37.2236 32.2494L36.7086 32.5896C36.6535 32.6264 36.5983 32.6724 36.5431 32.7183C36.4971 32.7551 36.4512 32.7919 36.4236 32.8103L35.7983 33.3345C35.6236 33.5 35.458 33.6655 35.2649 33.877L34.9983 34.1621L34.7592 34.4471C34.5936 34.6494 34.4373 34.8517 34.281 35.054L33.858 35.7069L33.6557 36.0288L33.389 36.5437C33.3063 36.7093 33.2143 36.884 33.1315 37.0495C33.0396 37.2886 32.9476 37.5277 32.8557 37.7759L32.8373 37.8219C32.8005 37.9139 32.7637 38.0058 32.7361 38.107L32.635 38.4748C32.5706 38.7231 32.497 38.9714 32.4419 39.2105C32.3959 39.4588 32.3591 39.707 32.3223 39.9553L32.2672 40.3231L32.2028 41.445C32.2028 41.6933 32.2212 41.9324 32.2396 42.1991C32.258 42.6496 32.3499 43.1922 32.4327 43.6612C32.497 43.9094 32.5614 44.1577 32.6258 44.3968C32.6718 44.5439 32.7269 44.7003 32.8005 44.875C32.8281 44.9577 32.8649 45.0313 32.8833 45.0957C33.2419 45.9877 33.766 46.8245 34.4189 47.5693C35.0534 48.2682 35.7891 48.8475 36.6259 49.2889C37.6834 49.8682 38.8788 50.1717 40.0559 50.1717C40.5892 50.1717 41.1134 50.1073 41.6283 49.9878C41.6835 49.9786 41.7203 49.9234 41.7019 49.8682C41.6927 49.813 41.6467 49.7946 41.6191 49.7854L41.5731 49.7763C38.2075 48.8383 36.5615 46.0796 36.4512 43.9278C36.4512 43.9094 36.4512 43.891 36.4512 43.8819C36.4512 43.8451 36.4512 43.7991 36.442 43.7623C36.4328 43.6704 36.4328 43.5784 36.4328 43.4864C36.4328 43.4681 36.4328 43.4497 36.4328 43.4313C36.442 43.3485 36.442 43.2657 36.442 43.183V43.1094C36.442 43.0818 36.442 43.0542 36.4512 43.0267C36.4604 42.9715 36.4696 42.9071 36.4696 42.8519C36.4971 42.6588 36.5155 42.4381 36.5891 42.1807C36.6075 42.1255 36.6167 42.0703 36.6259 42.0151C36.6443 41.9416 36.6535 41.868 36.6719 41.7944C36.6811 41.7761 36.6811 41.7577 36.6903 41.7393L36.865 41.1875C36.8742 41.1507 36.8926 41.114 36.9109 41.0772L36.9937 40.9025C37.0397 40.8013 37.0765 40.7094 37.1133 40.6082C37.1316 40.5714 37.1408 40.5346 37.1592 40.4979C37.3891 40.0749 37.665 39.5507 38.0604 39.1001L38.1616 38.9714C38.1799 38.953 38.1983 38.9254 38.2167 38.907L38.419 38.7415C38.5018 38.6587 38.5754 38.576 38.6489 38.5024C38.6765 38.4748 38.7041 38.4472 38.7317 38.4288C38.8052 38.3645 38.8788 38.3001 38.98 38.2173L39.1179 38.0978C39.1363 38.0794 39.1639 38.061 39.1823 38.0426L39.3386 37.9323C39.3938 37.8955 39.4489 37.8495 39.5041 37.8127L39.5869 37.7484C39.6145 37.73 39.6421 37.7116 39.6696 37.6932C39.7524 37.638 39.8444 37.592 39.9271 37.5369C40.065 37.4357 40.203 37.3713 40.3133 37.3162C40.3501 37.2978 40.3869 37.2794 40.4237 37.2518C40.4972 37.215 40.5616 37.1782 40.6352 37.1415C40.672 37.1231 40.6995 37.1139 40.7363 37.0955C40.8007 37.0771 40.8559 37.0403 40.9202 37.0127C41.049 36.9483 41.2053 36.8748 41.3984 36.8288L41.6835 36.7276C41.7203 36.7185 41.7478 36.7093 41.7846 36.7001L41.849 36.6909C41.9226 36.6725 41.9869 36.6633 42.0697 36.6357L42.0973 36.5989C42.1525 36.5805 42.2168 36.5621 42.272 36.5529C42.2904 36.5529 42.3088 36.5437 42.3272 36.5437L42.5019 36.5161C42.5938 36.507 42.6858 36.4794 42.7778 36.461C42.8237 36.4518 42.8605 36.4426 42.9065 36.4426C43.0168 36.4334 43.118 36.4242 43.21 36.415L43.3847 36.3966C43.4307 36.3874 43.4858 36.3874 43.541 36.3874C43.5686 36.3874 43.5962 36.3874 43.6238 36.3874H43.6513C43.7157 36.3874 43.7893 36.3874 43.8536 36.3874C44.433 36.3874 44.9295 36.4242 45.3893 36.507C46.5848 36.7093 47.725 37.169 48.6722 37.8495C49.6285 38.5208 50.4653 39.4312 51.0906 40.4887C51.6975 41.5278 52.0837 42.6956 52.2125 43.8727C52.2125 43.891 52.2125 43.9186 52.2125 43.937C52.2125 44.0566 52.2217 44.1853 52.2309 44.3049C52.2401 44.452 52.2493 44.5991 52.2585 44.7554C52.2585 44.7738 52.2585 44.7922 52.2585 44.8106C52.2493 45.0957 52.2401 45.3807 52.2309 45.6658C52.2309 45.8405 52.2125 45.9877 52.1941 46.1072C52.1849 46.144 52.1849 46.1716 52.1757 46.2175L52.1205 46.6405C52.0929 46.9256 52.0286 47.1831 51.9734 47.4038C51.955 47.4681 51.9366 47.5325 51.9182 47.6153C51.5964 48.8935 51.0998 50.0705 50.4193 51.1096C49.7205 52.1763 48.8469 53.1143 47.8446 53.9051C46.7687 54.7511 45.6376 55.3672 44.5065 55.735C43.3203 56.1396 42.0973 56.3419 40.7547 56.3695C40.7271 56.3695 40.6903 56.3695 40.6628 56.3695C38.0144 56.3695 35.4029 55.6615 33.1131 54.3281C30.7958 52.9763 28.874 51.0177 27.5498 48.6728C26.8693 47.4406 26.3727 46.19 26.0785 44.9853C25.913 44.3692 25.8118 43.7531 25.7199 43.0267C25.7199 43.0083 25.7199 42.9899 25.7107 42.9807C25.7015 42.8795 25.6923 42.7692 25.6831 42.668C25.6647 42.4473 25.6371 42.2266 25.6371 42.0151L25.6187 41.537C25.6187 41.5278 25.6187 41.5094 25.6187 41.5002V41.0036C25.6555 38.2265 26.2808 35.4495 27.4486 32.9666C28.6165 30.4838 30.3453 28.2125 32.4419 26.401C34.5293 24.6078 37.0305 23.256 39.688 22.4744C41.0122 22.0882 42.3915 21.8399 43.7709 21.748C43.9824 21.7296 44.1847 21.7296 44.3962 21.7204C44.5249 21.7112 44.6537 21.7112 44.7824 21.702C44.8008 21.702 44.81 21.702 44.8284 21.702L45.8399 21.7112C45.8675 21.7112 45.8859 21.7112 45.9135 21.7112C46.1526 21.7112 46.3733 21.7296 46.5848 21.7388C46.6951 21.748 46.8054 21.7572 46.9342 21.7572L47.4491 21.7939C47.4583 21.7939 47.4767 21.7939 47.4859 21.7939L47.9917 21.8491C53.6746 22.4468 59.0356 25.04 63.0725 29.1504C64.1024 30.1896 65.022 31.293 65.8128 32.4241C66.622 33.5827 67.3393 34.8242 67.9462 36.1115C68.5715 37.4357 69.0773 38.7875 69.4359 40.1116C69.8037 41.4726 70.0704 42.8795 70.2083 44.3232C70.2175 44.4428 70.2267 44.5623 70.2451 44.6819C70.2635 44.9118 70.2911 45.1508 70.3003 45.3807L70.3463 46.4107C70.3463 46.429 70.3463 46.4382 70.3463 46.4566L70.3279 48.0383C70.3279 48.0567 70.3279 48.0659 70.3279 48.0843L70.2267 49.6659C70.2267 49.6843 70.2267 49.6935 70.2267 49.7119L70.0428 51.2843C70.0428 51.3027 70.0428 51.3119 70.0336 51.3303L69.9417 51.8453C69.9141 51.974 69.8957 52.1027 69.8773 52.2315C69.8405 52.4614 69.8037 52.6821 69.7578 52.912C69.4451 54.3557 69.0497 55.7442 68.5715 57.0592C67.9738 58.6041 67.4037 59.8455 66.7692 60.9581C64.0381 65.8502 59.6426 70.0526 54.3827 72.7837C49.3986 75.3953 43.6973 76.7654 37.8765 76.7654C37.7202 76.7654 37.5638 76.7654 37.4075 76.7654C31.6694 76.7103 25.8578 75.1378 20.5887 72.2228C15.4851 69.4089 10.9333 65.3537 7.44814 60.4984C5.29636 57.5098 3.54919 54.2177 2.2526 50.7694C3.36527 59.3489 7.05273 67.4135 12.8828 73.8872C14.4736 75.0643 16.1564 76.1493 17.8852 77.1057C23.9543 80.4713 30.6855 82.2828 37.3523 82.338C37.5546 82.338 37.7569 82.3472 37.9684 82.3472C41.0306 82.3472 44.2123 81.9794 47.4124 81.2529C48.7733 80.9219 50.5481 80.4529 52.3044 79.7908L52.9022 79.5793L53.4815 79.3402C53.6286 79.2758 53.7757 79.2207 53.9229 79.1563C54.1712 79.0552 54.4286 78.954 54.6585 78.8529C54.8332 78.7701 55.0172 78.6873 55.2011 78.6046C55.8172 78.3195 56.3965 78.0528 56.9942 77.7218C57.6195 77.4091 58.208 77.0597 58.8425 76.6919L59.2104 76.4712C59.4403 76.3332 59.6701 76.1769 59.9 76.0298C60.0288 75.947 60.1667 75.8551 60.2863 75.7815L60.8196 75.4321L61.3437 75.055C62.6587 74.1355 63.9553 73.0688 65.3071 71.7998C67.8175 69.4273 69.9509 66.6962 71.6429 63.68C72.4061 62.3467 73.1142 60.811 73.813 58.9903C74.3924 57.4178 74.8705 55.7442 75.2384 54.0154C75.2935 53.7304 75.3487 53.4361 75.3947 53.1511L75.5878 52.1027L75.8177 50.1809L75.9372 48.259L75.9556 46.3279L75.9004 45.0037C75.8912 44.737 75.8637 44.4612 75.8361 44.1669C75.8177 44.0106 75.8085 43.8635 75.7993 43.7255C75.6246 41.9876 75.3027 40.2588 74.8521 38.6036C74.4015 36.9759 73.7946 35.3299 73.0314 33.7115C72.2957 32.1482 71.413 30.6217 70.4198 29.2056C69.4451 27.8171 68.3232 26.4745 67.0726 25.2055C62.2173 20.2675 55.4953 17.0122 48.6446 16.2949L47.9917 16.2214L47.3572 16.1754C47.2009 16.1662 47.0353 16.157 46.879 16.1478C46.6123 16.1294 46.3549 16.111 46.0974 16.111C46.079 16.111 46.0698 16.111 46.0514 16.111C45.8859 16.111 45.7112 16.111 45.5456 16.1018C45.3341 16.111 45.1226 16.111 44.902 16.111ZM44.902 14.8236C45.1226 14.8236 45.3341 14.8236 45.5548 14.8328L45.5916 16.1202L45.61 14.8328H46.0606C46.0606 14.8328 46.0606 14.8328 46.0698 14.8328C46.3916 14.8328 46.6675 14.8512 46.9618 14.8696C47.1181 14.8788 47.2652 14.888 47.4124 14.8972L48.0744 14.9432C48.0928 14.9432 48.1112 14.9432 48.1204 14.9432L48.7733 15.0168C55.9183 15.7708 62.9162 19.1548 67.983 24.3043C69.2796 25.6193 70.4474 27.0171 71.4681 28.47C72.5072 29.9597 73.4176 31.5413 74.19 33.1689C74.9809 34.8609 75.6246 36.5713 76.0844 38.2633C76.5533 39.9921 76.8844 41.7944 77.0683 43.606C77.0775 43.7623 77.0959 43.9094 77.1051 44.0566C77.1327 44.3784 77.1602 44.6819 77.1694 44.9761L77.2246 46.2911C77.2246 46.3095 77.2246 46.3371 77.2246 46.3555L77.2062 48.2866C77.2062 48.305 77.2062 48.3325 77.2062 48.3509L77.0867 50.2728C77.0867 50.3004 77.0867 50.3188 77.0775 50.3464L76.8476 52.2683C76.8476 52.2867 76.8384 52.3142 76.8384 52.3326L76.6545 53.3717C76.5993 53.6844 76.5533 53.9787 76.489 54.2729C76.1119 56.0753 75.6154 57.804 75.0177 59.4317C74.2912 61.326 73.5556 62.9168 72.7647 64.3054C71.0176 67.4227 68.8014 70.2549 66.199 72.7194C64.8013 74.0343 63.4587 75.1378 62.0886 76.0942L61.5736 76.462C61.5552 76.4712 61.5461 76.4804 61.5277 76.4896L60.9943 76.839L60.6081 77.0873C60.3598 77.2528 60.1207 77.3999 59.8816 77.5471L59.4954 77.777C58.8517 78.154 58.2356 78.5218 57.5735 78.8529C56.985 79.1747 56.3873 79.4506 55.7528 79.7448L55.2103 79.9931C54.9436 80.1127 54.6861 80.2138 54.4378 80.3149L53.9964 80.4989L53.4079 80.738C53.3895 80.7472 53.3711 80.7472 53.3619 80.7564L52.7642 80.9678C50.9711 81.6483 49.1411 82.1265 47.7434 82.4667C44.4238 83.2208 41.1501 83.5978 37.996 83.5978C37.7845 83.5978 37.573 83.5978 37.3615 83.5886C30.4924 83.5242 23.5497 81.6575 17.2967 78.1908C15.5219 77.2068 13.7839 76.0942 12.1563 74.8803C12.0919 74.8252 12.0276 74.77 11.9632 74.7056C5.95844 68.0388 2.16985 59.8087 1.02039 50.8981C0.93763 50.2544 1.35143 49.6475 1.98592 49.4912C2.08708 49.4636 2.19743 49.4544 2.29858 49.4544C2.82273 49.4544 3.3101 49.7763 3.5032 50.2912C4.76301 53.6568 6.45501 56.8293 8.53322 59.7167C11.908 64.4249 16.3127 68.3514 21.2508 71.0733C26.336 73.8872 31.9361 75.4045 37.4627 75.4505C37.619 75.4505 37.7661 75.4505 37.9225 75.4505C43.5318 75.4505 49.04 74.1263 53.8309 71.6159C58.8701 68.9859 63.0909 64.9674 65.6933 60.2961C66.3002 59.2294 66.8519 58.0431 67.4221 56.5626C67.8727 55.3304 68.2589 53.9879 68.5531 52.6085C68.5991 52.4062 68.6267 52.1947 68.6635 51.9924C68.6911 51.8453 68.7095 51.7165 68.7278 51.5878L68.8198 51.0728L69.0037 49.528L69.1049 47.9647L69.1233 46.4015L69.0773 45.3899C69.0681 45.16 69.0497 44.9577 69.0313 44.7646C69.0221 44.6359 69.0037 44.5072 68.9945 44.3784C68.8566 43.0542 68.6175 41.7025 68.2589 40.4059C67.9186 39.1553 67.4405 37.8771 66.8427 36.6173C66.2634 35.3851 65.5829 34.208 64.8197 33.1138C64.0657 32.0379 63.1921 30.9896 62.2173 30.0056C58.3828 26.1067 53.3068 23.6515 47.9089 23.0813L47.394 23.0262L46.8974 22.9986C46.7963 22.9894 46.6767 22.9894 46.5664 22.9802C46.3549 22.9618 46.1618 22.9526 45.9595 22.9526H45.9043L44.8652 22.9434C44.764 22.9526 44.6353 22.9526 44.5065 22.9618C44.295 22.971 44.1019 22.9802 43.9088 22.9894C42.6214 23.0813 41.334 23.3112 40.0926 23.6698C37.6098 24.3963 35.2741 25.6653 33.3246 27.3389C31.366 29.0309 29.7475 31.1459 28.6625 33.4724C27.5774 35.7897 26.9889 38.3829 26.9521 40.976V41.4726L26.9705 41.9324C26.9705 41.9508 26.9705 41.96 26.9705 41.9784C26.9705 42.1255 26.9889 42.3186 27.0072 42.5117C27.0164 42.6312 27.0348 42.7508 27.0348 42.8611C27.1268 43.514 27.2096 44.0842 27.3567 44.6359C27.6326 45.767 28.0831 46.898 28.7084 48.0291C29.9131 50.1625 31.6694 51.9464 33.7936 53.1878C35.8902 54.4109 38.2719 55.0545 40.6995 55.0545H40.7823C41.9685 55.027 43.072 54.843 44.1295 54.4844C45.1318 54.1626 46.125 53.6108 47.0813 52.866C47.9733 52.1671 48.7457 51.3211 49.371 50.374C49.9596 49.4636 50.4101 48.4153 50.6952 47.275L50.7504 47.0635C50.7964 46.8704 50.8423 46.6773 50.8607 46.5026C50.8607 46.4842 50.8607 46.4658 50.8699 46.4382L50.9251 46.0152C50.9343 45.9693 50.9343 45.9233 50.9435 45.8773C50.9619 45.7853 50.9711 45.7118 50.9711 45.6566C50.9711 45.6382 50.9711 45.6198 50.9711 45.6014C50.9803 45.3072 50.9895 45.0129 50.9987 44.7187C50.9987 44.6175 50.9895 44.4888 50.9803 44.36C50.9711 44.2037 50.9619 44.0658 50.9619 43.937C50.8607 42.9807 50.5297 41.9876 50.0147 41.1048C49.4906 40.2036 48.7825 39.4312 47.9733 38.8702C47.1733 38.3001 46.2169 37.9139 45.2146 37.7484C44.8192 37.6748 44.4054 37.6472 43.8996 37.6472H43.7157C43.7065 37.6472 43.7065 37.6472 43.6973 37.6472C43.6789 37.6472 43.6697 37.6472 43.6513 37.6472H43.5778L43.3939 37.6656C43.3847 37.6656 43.3295 37.6748 43.3203 37.6748C43.2375 37.684 43.1456 37.6932 43.0628 37.6932C42.9341 37.7208 42.8329 37.7392 42.7226 37.7576L42.5571 37.7851C42.5571 37.7851 42.5295 37.7943 42.5019 37.8035C42.3548 37.8495 42.2628 37.8679 42.1617 37.8955L42.1157 37.9047L41.8582 37.9966C41.8214 38.0058 41.7846 38.0242 41.757 38.0334C41.6743 38.0518 41.5915 38.0978 41.4904 38.1438C41.38 38.1989 41.2973 38.2357 41.2053 38.2633C41.1593 38.2817 41.1225 38.3093 41.0766 38.3277C41.0306 38.3553 40.9754 38.3829 40.9294 38.4104C40.8283 38.4656 40.7455 38.5024 40.6904 38.5484C40.5708 38.6311 40.4697 38.6863 40.3777 38.7507L40.3225 38.7967C40.249 38.861 40.1754 38.9162 40.1018 38.9622L39.9823 39.0449L39.8627 39.1461C39.78 39.2289 39.688 39.3024 39.5961 39.376C39.5133 39.4679 39.4305 39.5507 39.357 39.6243L39.2558 39.7346L39.1731 39.845C39.1547 39.8634 39.1455 39.8818 39.1271 39.9001C38.8328 40.2404 38.6029 40.6634 38.4006 41.0404C38.3547 41.1599 38.3087 41.2795 38.2535 41.399L38.1799 41.5554L38.0144 42.0887C38.0052 42.1163 37.996 42.1715 37.9868 42.2266C37.9684 42.3186 37.9501 42.3922 37.9317 42.4657C37.8857 42.6496 37.8673 42.806 37.8489 42.9715L37.8305 43.137V43.183C37.8305 43.3025 37.8213 43.4129 37.8121 43.514C37.8121 43.5324 37.8121 43.5876 37.8213 43.6336C37.8305 43.7163 37.8305 43.7807 37.8305 43.8451C37.9225 45.5371 39.265 47.7348 42.0237 48.5073C42.0329 48.5073 42.0789 48.5256 42.0881 48.5256C42.5663 48.6728 42.9249 49.0406 43.0444 49.5188C43.2283 50.2636 42.7686 51.0085 42.0329 51.1924C41.426 51.3395 40.7915 51.4131 40.157 51.4131C38.7501 51.4131 37.3523 51.0544 36.1109 50.374C35.1546 49.859 34.2994 49.1877 33.5637 48.3877C32.8005 47.5233 32.2028 46.567 31.789 45.5371L31.697 45.3072C31.6143 45.1049 31.5407 44.9118 31.4855 44.7278C31.412 44.4704 31.3384 44.2037 31.274 43.937C31.2648 43.9186 31.2648 43.891 31.2556 43.8727C31.1545 43.3577 31.0533 42.7508 31.0349 42.2082C31.0165 41.9508 31.0073 41.6933 30.9982 41.4358C30.9982 41.4082 30.9982 41.3714 30.9982 41.3439L31.0625 40.222C31.0625 40.1852 31.0717 40.1392 31.0717 40.1024L31.1269 39.7346C31.1637 39.4771 31.2097 39.2105 31.2556 38.953C31.2648 38.9254 31.2648 38.8978 31.274 38.8794C31.3384 38.6219 31.4028 38.3645 31.4763 38.107L31.5775 37.73C31.5867 37.7116 31.5867 37.6932 31.5959 37.6748C31.6327 37.5645 31.6694 37.4633 31.7154 37.353L31.7338 37.2886C31.8258 37.0403 31.9177 36.792 32.0189 36.5437C32.0281 36.5162 32.0465 36.4886 32.0557 36.461C32.1384 36.2955 32.2212 36.1207 32.3131 35.9552L32.589 35.4127C32.6074 35.3851 32.6166 35.3575 32.635 35.3299L32.8373 35.0081L33.2695 34.3276C33.2879 34.3 33.3063 34.2816 33.3246 34.254C33.4902 34.0425 33.6557 33.831 33.8212 33.6103L34.0695 33.3069C34.0879 33.2885 34.1063 33.2609 34.1247 33.2425L34.3913 32.9574C34.612 32.7275 34.7959 32.5436 34.9799 32.3689C34.9983 32.3505 35.0166 32.3413 35.035 32.3229L35.6603 31.7988C35.6787 31.7804 35.6971 31.7712 35.7155 31.7528L35.7983 31.6884C35.881 31.6149 35.9546 31.5597 36.019 31.5137C36.0282 31.5045 36.0466 31.4953 36.0558 31.4861L36.5707 31.1459C36.7546 31.0172 36.9293 30.9068 37.1041 30.8057C37.3615 30.6585 37.619 30.5298 37.8765 30.3919C38.1524 30.2355 38.4558 30.116 38.6857 30.024L38.7777 29.9872C39.0259 29.8861 39.2558 29.7941 39.4857 29.7206C39.78 29.6378 40.0467 29.5551 40.3317 29.4815L40.4697 29.4447C40.58 29.4171 40.672 29.3895 40.7639 29.3711L41.1961 29.2976C41.472 29.2516 41.7478 29.2056 42.0145 29.1688C42.0513 29.1688 42.0789 29.1596 42.1157 29.1596L43.3019 29.1137C43.3295 29.1137 43.3847 29.1137 43.4031 29.1137C43.4582 29.1137 43.5134 29.1137 43.5686 29.1229C43.633 29.1229 43.6789 29.1321 43.7249 29.1321C44.8008 29.1596 45.8859 29.3068 46.9526 29.5643C51.1734 30.5942 54.8424 33.3253 57.0218 37.0495C58.1069 38.8886 58.7966 40.9852 59.0264 43.1094C59.0264 43.1278 59.0264 43.1462 59.0264 43.1554L59.054 43.4956C59.0816 43.9002 59.1092 44.2865 59.1184 44.6819C59.1184 44.7003 59.1184 44.7278 59.1184 44.7462L59.0632 46.2083C59.0632 46.4015 59.0356 46.613 59.0081 46.7969L58.9805 46.99L58.8793 47.7348C58.8333 48.1762 58.723 48.6084 58.6218 49.0314L58.5759 49.2337C58.0701 51.2659 57.2701 53.1419 56.1758 54.8155C55.0539 56.5258 53.6746 58.0339 52.0837 59.2845C50.4009 60.5995 48.617 61.5835 46.7503 62.1996C44.9111 62.8341 42.8421 63.1835 40.7915 63.2111H40.6444C36.8374 63.2111 32.9384 62.1536 29.6556 60.2409C26.2808 58.273 23.4945 55.4316 21.5726 52.0384C20.5887 50.2636 19.8714 48.4521 19.4208 46.6313C19.2093 45.8221 19.0438 44.9393 18.9059 43.7899C18.9059 43.7715 18.9059 43.7531 18.8967 43.7347C18.8875 43.606 18.8691 43.4772 18.8599 43.3393C18.8231 42.9991 18.7955 42.6496 18.7864 42.3002L18.7588 41.6105C18.7588 41.5921 18.7588 41.5737 18.7588 41.5554V40.8841C18.8047 37.1323 19.6599 33.3804 21.2324 30.024C22.814 26.6584 25.1405 23.5963 27.9728 21.1594C30.7958 18.7318 34.1798 16.9019 37.7661 15.8536C39.5593 15.3294 41.4168 14.9984 43.2835 14.8696C43.5778 14.8512 43.8628 14.842 44.1571 14.8328L44.6537 14.8145C44.6721 14.8145 44.6905 14.8145 44.6996 14.8145L44.902 14.8236Z" fill="#000072"/>
<path d="M1.10334 45.8864C1.26886 56.9119 5.49885 66.9168 12.3496 74.5032C14.5566 76.9492 17.0302 79.1286 19.7337 81.0229C26.9799 86.0989 35.8352 89.0231 45.3619 88.8851C48.7919 88.8392 52.1299 88.3886 55.33 87.5886C66.5211 84.7931 75.9742 77.6941 81.8686 68.1582C85.3905 62.4661 87.6343 55.9004 88.2136 48.8841C88.3331 47.4864 88.3791 46.0611 88.3607 44.6174C88.2412 36.2861 85.7951 28.5342 81.6479 21.9777C73.7948 9.56361 59.8634 1.39789 44.1021 1.62778C37.3709 1.72893 31.0167 3.33817 25.3614 6.15203C11.4668 13.0488 1.80221 27.1273 1.14932 43.4587C1.13093 43.8265 1.12173 44.2036 1.12173 44.5806C1.11254 44.9116 1.11254 45.2335 1.12173 45.5645C1.10334 45.6749 1.10334 45.776 1.10334 45.8864Z" stroke="#15006D" stroke-width="1.3791" stroke-miterlimit="10"/>
</svg>
