<svg width="39" height="39" viewBox="0 0 39 39" fill="none" xmlns="http://www.w3.org/2000/svg">
<g clip-path="url(#clip0)">
<path d="M35.9908 27.6725C40.5038 18.5652 36.7794 7.52382 27.6721 3.01084C18.5648 -1.50214 7.52333 2.22229 3.01034 11.3296C-1.50264 20.4369 2.2218 31.4783 11.3291 35.9913C20.4364 40.5043 31.4778 36.7799 35.9908 27.6725Z" fill="#FBECDB"/>
<path d="M16.77 30.2248C16.5885 30.2247 16.4092 30.1847 16.2448 30.1077C16.0804 30.0307 15.935 29.9185 15.8187 29.7791L15.8103 29.7693C15.6951 29.6272 15.6126 29.4613 15.5688 29.2837C15.5249 29.106 15.5209 28.9208 15.5568 28.7414C15.6316 28.3642 15.7732 28.0033 15.9747 27.6758C13.4077 26.3429 11.5176 23.6282 11.1735 20.6684C11.1484 20.4543 11.1734 20.2374 11.2464 20.0346C11.3194 19.8318 11.4384 19.6487 11.5942 19.4998C11.865 19.2421 12.2246 19.0984 12.5984 19.0986C12.682 19.0985 12.7655 19.106 12.8477 19.1209C15.0659 19.4898 17.31 19.6803 19.5585 19.6906C21.8103 19.6795 24.0577 19.4885 26.2791 19.1195C26.3577 19.1062 26.4374 19.0997 26.5172 19.1C26.8882 19.0992 27.2455 19.2402 27.5159 19.4942C27.676 19.6435 27.7984 19.8287 27.873 20.0345C27.9476 20.2403 27.9722 20.4609 27.9449 20.6781C27.5981 23.6324 25.7164 26.3457 23.1437 27.68C23.345 28.0067 23.4865 28.3665 23.5616 28.7428C23.5971 28.9224 23.5928 29.1077 23.549 29.2855C23.5052 29.4634 23.423 29.6295 23.3081 29.7721L23.2997 29.7818C23.1835 29.9213 23.038 30.0334 22.8736 30.1105C22.7092 30.1875 22.53 30.2275 22.3484 30.2276L16.77 30.2248ZM14.2866 22.195C14.4013 22.4785 14.5411 22.7512 14.7044 23.0098L14.3896 22.2075L14.2866 22.195Z" fill="url(#paint0_linear)"/>
<path d="M12.5982 19.8593C12.636 19.8597 12.6738 19.8635 12.711 19.8704C14.9742 20.2471 17.264 20.4418 19.5583 20.4526C21.8526 20.4415 24.1423 20.2468 26.4056 19.8704C26.4423 19.8637 26.4796 19.8604 26.517 19.8607C26.6939 19.8606 26.8642 19.9278 26.9934 20.0487C27.0646 20.1158 27.119 20.1986 27.1524 20.2905C27.1858 20.3824 27.1972 20.4809 27.1856 20.578C26.836 23.5629 24.7787 26.2734 22.0696 27.3222C22.0496 27.33 22.0319 27.3429 22.0184 27.3596C22.0048 27.3763 21.9959 27.3962 21.9923 27.4175C21.9888 27.4387 21.9909 27.4604 21.9983 27.4806C22.0058 27.5008 22.0183 27.5187 22.0348 27.5325C22.434 27.8876 22.7047 28.3645 22.805 28.8892C22.8193 28.9579 22.8181 29.0289 22.8015 29.0971C22.7849 29.1653 22.7533 29.2289 22.709 29.2833C22.6647 29.3377 22.6088 29.3816 22.5455 29.4117C22.4821 29.4419 22.4128 29.4575 22.3426 29.4575H16.7712C16.7015 29.4575 16.6327 29.4422 16.5696 29.4126C16.5065 29.383 16.4507 29.3398 16.4063 29.2861C16.3618 29.2312 16.3301 29.1672 16.3132 29.0985C16.2963 29.0299 16.2948 28.9584 16.3088 28.8892C16.4075 28.3639 16.6785 27.8865 17.079 27.5325C17.0958 27.5188 17.1085 27.5009 17.1159 27.4805C17.1232 27.4601 17.1249 27.4382 17.1208 27.4169C17.118 27.3956 17.1093 27.3755 17.0958 27.3588C17.0823 27.3421 17.0644 27.3294 17.0442 27.3222C14.3351 26.2734 12.2778 23.5615 11.9282 20.578C11.9177 20.4806 11.93 20.3821 11.9641 20.2902C11.9982 20.1984 12.0531 20.1157 12.1246 20.0487C12.2532 19.9276 12.423 19.8599 12.5996 19.8593H12.5982ZM15.8032 25.1521C15.9012 25.151 15.995 25.1121 16.065 25.0435C16.1323 24.98 16.1746 24.8946 16.1843 24.8026C16.194 24.7106 16.1705 24.6182 16.1179 24.5421L15.0427 21.7995C15.0234 21.7148 14.9787 21.6379 14.9144 21.5794C14.8502 21.5209 14.7695 21.4835 14.6833 21.4722C14.3323 21.4304 14.0175 21.3845 13.7515 21.3469C13.732 21.3448 13.7124 21.3448 13.693 21.3469C13.6426 21.3469 13.5927 21.3578 13.5469 21.3787C13.501 21.3996 13.4601 21.4301 13.4269 21.468C13.3869 21.511 13.3584 21.5635 13.3443 21.6205C13.3301 21.6776 13.3308 21.7373 13.3462 21.794C13.6917 23.1117 14.4782 24.2713 15.5747 25.0797C15.6395 25.1284 15.718 25.1552 15.799 25.1563L15.8032 25.1521ZM12.5954 18.3313C12.0251 18.3296 11.4762 18.5481 11.0633 18.9414C10.8205 19.1698 10.6341 19.4516 10.5188 19.7643C10.4035 20.0771 10.3624 20.4124 10.3989 20.7438C10.3989 20.7438 10.3989 20.7549 10.3989 20.7591C10.5843 22.2253 11.0896 23.6329 11.879 24.8823C12.6685 26.1317 13.7228 27.1924 14.9674 27.9894C14.896 28.1858 14.8396 28.3875 14.7989 28.5925C14.7408 28.8823 14.7473 29.1814 14.8181 29.4684C14.8889 29.7554 15.0222 30.0232 15.2084 30.2528L15.2237 30.2709C15.4117 30.4965 15.6471 30.6779 15.9131 30.8024C16.1791 30.9268 16.4692 30.9912 16.7628 30.991H22.3343C22.6268 30.9904 22.9156 30.9256 23.1803 30.8012C23.4451 30.6767 23.6793 30.4957 23.8664 30.2709L23.8831 30.2528C24.0693 30.0232 24.2026 29.7554 24.2734 29.4684C24.3442 29.1814 24.3507 28.8823 24.2926 28.5925C24.2512 28.3875 24.1944 28.1859 24.1227 27.9894C25.3666 27.193 26.4206 26.1332 27.21 24.8848C27.9994 23.6364 28.5051 22.2299 28.6913 20.7646C28.7349 20.4319 28.6996 20.0935 28.588 19.777C28.4764 19.4604 28.2918 19.1746 28.0492 18.9428L28.0394 18.9316C27.6264 18.5457 27.0822 18.3311 26.517 18.3313C26.3962 18.3314 26.2755 18.3412 26.1563 18.3606C23.9753 18.7219 21.769 18.9082 19.5583 18.9177C17.3513 18.9078 15.1487 18.7215 12.9715 18.3606C12.8483 18.3384 12.7234 18.3272 12.5982 18.3271L12.5954 18.3313Z" fill="#FBECDB"/>
<path d="M19.5431 20.1659C17.2756 20.1525 15.0127 19.9606 12.7752 19.5921H12.7321C12.533 19.5713 12.3501 19.4733 12.2225 19.3191C12.0949 19.1649 12.0328 18.9669 12.0496 18.7675C12.2069 16.8928 13.0623 15.1455 14.4464 13.8713C15.8304 12.5971 17.6424 11.8889 19.5236 11.8868C19.9328 11.8871 20.3413 11.9201 20.7452 11.9857L21.9737 9.59552C22.0633 9.42018 22.1868 9.26431 22.337 9.13689C22.4871 9.00947 22.661 8.91301 22.8486 8.85307C23.0362 8.79313 23.2338 8.77089 23.43 8.78763C23.6262 8.80438 23.8172 8.85977 23.9919 8.95063L24.6396 9.2863C24.8862 9.41444 25.0925 9.60838 25.2356 9.84662C25.3787 10.0849 25.453 10.3581 25.4502 10.636C25.7412 10.528 26.0585 10.5135 26.3581 10.5943C26.6577 10.6752 26.9246 10.8475 27.1217 11.0873L27.5855 11.6444C27.8371 11.9509 27.957 12.3447 27.9189 12.7394C27.8808 13.1342 27.6878 13.4977 27.3821 13.7504L25.7107 15.1433C26.4518 16.2161 26.8976 17.4651 27.0033 18.7647C27.0203 18.9648 26.9578 19.1637 26.8293 19.318C26.7007 19.4724 26.5165 19.5698 26.3166 19.5893C24.4574 19.8976 22.58 20.0837 20.6964 20.1464H20.6282H20.4694H20.3301H20.0752C20.0014 20.1464 19.9359 20.1464 19.8537 20.1464C19.7479 20.1464 19.6462 20.1464 19.5403 20.1464L19.5431 20.1659Z" fill="url(#paint1_linear)"/>
<path d="M23.3053 9.5424C23.4211 9.54265 23.5352 9.57033 23.6382 9.62319L24.2886 9.96026C24.4605 10.05 24.59 10.2039 24.6489 10.3886C24.7079 10.5732 24.6915 10.7737 24.6034 10.9464L23.4668 13.1583L25.5102 11.4687C25.5838 11.4077 25.6688 11.3618 25.7602 11.3336C25.8517 11.3055 25.9477 11.2957 26.043 11.3047C26.1382 11.3138 26.2307 11.3415 26.3152 11.3864C26.3997 11.4313 26.4745 11.4924 26.5353 11.5662L27.0005 12.1317C27.1234 12.281 27.182 12.473 27.1634 12.6654C27.1449 12.8579 27.0507 13.0352 26.9016 13.1583L24.6536 15.0205C25.5683 16.0922 26.1228 17.4244 26.2386 18.8286H26.2275C24.3847 19.1359 22.5234 19.3197 20.6561 19.3788H20.5934C20.4959 19.3788 20.3984 19.3788 20.2995 19.3857C20.2006 19.3927 20.1393 19.3857 20.0543 19.3857C19.9694 19.3857 19.9151 19.3857 19.8385 19.3857C19.7368 19.3857 19.6379 19.3857 19.5376 19.3857C17.304 19.3719 15.075 19.1819 12.8714 18.8174L12.8059 18.8105C12.9503 17.1285 13.7207 15.562 14.9646 14.4207C16.2086 13.2794 17.8355 12.6465 19.5237 12.6471C20.0753 12.647 20.6248 12.7139 21.1603 12.8463L22.6548 9.93937C22.7165 9.82 22.8098 9.71986 22.9245 9.64986C23.0392 9.57987 23.1709 9.5427 23.3053 9.5424ZM23.3053 8.01026C22.8902 8.00951 22.4829 8.12328 22.1283 8.33904C21.7737 8.5548 21.4855 8.8642 21.2954 9.23319L20.3092 11.1512C20.0474 11.1261 19.7855 11.1135 19.5237 11.1135C17.4493 11.1144 15.4509 11.8944 13.9245 13.299C12.3981 14.7037 11.455 16.6305 11.2821 18.6977C11.249 19.0966 11.3732 19.4926 11.6283 19.8011C11.8834 20.1095 12.2491 20.3059 12.6471 20.3482H12.6694C14.9402 20.7205 17.2366 20.9147 19.5376 20.929C19.6421 20.929 19.7493 20.929 19.8649 20.929C19.9346 20.929 20.0042 20.929 20.0933 20.929H20.2159H20.3552H20.4736H20.6491H20.6783H20.7229C22.6306 20.8672 24.5321 20.6811 26.4155 20.3719C26.809 20.3246 27.1688 20.1266 27.4195 19.8196C27.6701 19.5127 27.792 19.1205 27.7596 18.7255C27.6628 17.5285 27.3043 16.3674 26.7094 15.3242L27.8711 14.3603C28.3312 13.9784 28.6217 13.4301 28.6791 12.8349C28.7365 12.2397 28.5562 11.646 28.1775 11.1832L27.7179 10.5926C27.5151 10.3451 27.2619 10.1438 26.9751 10.0021C26.6883 9.86034 26.3745 9.78151 26.0548 9.77083C25.8539 9.26717 25.4787 8.85245 24.9976 8.60222L24.343 8.26376C24.0226 8.09822 23.6673 8.01178 23.3067 8.01165L23.3053 8.01026Z" fill="#FBECDB"/>
<path opacity="0.2" d="M9.62329 21.5252C9.62329 21.5252 10.6443 14.7183 13.9286 12.4145C17.213 10.1107 21.5893 8.73736 24.1633 9.4895C26.7373 10.2416 27.0883 11.8379 27.619 12.1471C28.1497 12.4563 29.4437 15.9635 26.5117 16.1348C21.8303 16.4134 15.9065 21.7606 15.7017 25.35C15.497 28.9393 11.9215 24.1981 11.3964 24.1981C10.8713 24.1981 11.4438 22.0823 11.2251 21.5238C11.0064 20.9652 10.3253 21.2299 10.023 21.7174C9.72079 22.2049 9.62329 21.5252 9.62329 21.5252Z" fill="white"/>
<path d="M20.3092 11.1525L21.2954 9.23456C21.4855 8.86557 21.7737 8.55618 22.1283 8.34041C22.4829 8.12465 22.8902 8.01089 23.3053 8.01163C23.6221 8.01184 23.9353 8.07875 24.2246 8.20803C26.1383 6.80124 28.4143 5.93349 30.7473 5.88613C28.5363 4.07226 25.9155 2.82619 23.1131 2.25635C21.5719 3.30913 20.2611 4.66463 19.2607 6.24027C18.2602 7.81592 17.591 9.57874 17.2937 11.4213C18.0192 11.2185 18.7689 11.1154 19.5223 11.1149C19.786 11.1149 20.0483 11.1275 20.3092 11.1525Z" fill="#8CDB26" stroke="#7EC600" stroke-width="2" stroke-linecap="round" stroke-linejoin="round"/>
<path d="M36.2923 14.0052C33.9345 12.8585 31.2955 12.4174 28.6929 12.7349C28.675 13.0436 28.5937 13.3453 28.454 13.6211C28.3142 13.897 28.1192 14.141 27.8809 14.3381L26.7192 15.302C27.0606 15.9018 27.3246 16.5425 27.5048 17.2088C31.1987 17.5055 34.809 19.3607 36.8982 22.4097C37.3851 19.6007 37.1771 16.7153 36.2923 14.0052Z" fill="#FFD654" stroke="#FFC933" stroke-width="2" stroke-linecap="round" stroke-linejoin="round"/>
<path d="M13.338 13.9048C11.9452 10.562 12.0343 6.44467 13.3993 3.04053C10.6885 4.07048 8.27346 5.75305 6.36816 7.93921C6.69688 11.7222 8.59674 15.3213 11.4744 17.5095C11.7856 16.1714 12.4262 14.9323 13.338 13.9048Z" fill="#4BE1D9" stroke="#28D1C5" stroke-width="2" stroke-linecap="round" stroke-linejoin="round"/>
<path d="M28.3753 22.3569C27.9299 23.8436 27.151 25.2089 26.0979 26.3489C26.9476 29.4131 26.6843 32.9468 25.6689 35.8927C26.5568 35.5654 27.4171 35.1676 28.2416 34.7032C29.9186 33.7549 31.4282 32.537 32.7098 31.0985C32.5148 27.679 30.8267 24.5242 28.3753 22.3569Z" fill="#FF9D33" stroke="#FF8812" stroke-width="2" stroke-linecap="round" stroke-linejoin="round"/>
<path d="M16.7699 30.9885C16.4763 30.9887 16.1861 30.9243 15.9202 30.7999C15.6542 30.6754 15.4188 30.494 15.2308 30.2684L15.2155 30.2503C15.1848 30.2127 15.1584 30.1723 15.1305 30.1333C13.2164 31.6328 10.9622 32.6374 8.56738 33.0583C10.7768 34.8485 13.3881 36.0751 16.1766 36.6324C18.1038 35.1442 19.6402 33.2097 20.6532 30.9955L16.7699 30.9885Z" fill="#FF4545" stroke="#F43434" stroke-width="2" stroke-linecap="round" stroke-linejoin="round"/>
<path d="M10.6191 21.9221C7.32218 21.3106 4.14926 19.3857 2.27726 16.834C1.85406 19.6319 2.11696 22.4908 3.04333 25.1647C5.96833 26.3695 9.47972 26.6397 12.537 25.7928C11.6272 24.6553 10.973 23.3351 10.6191 21.9221Z" fill="#DC4AFF" stroke="#D137F7" stroke-width="2" stroke-linecap="round" stroke-linejoin="round"/>
<path opacity="0.3" d="M12.0356 33.1233C11.8918 33.0409 11.7523 32.9512 11.6177 32.8545C11.224 32.5867 10.848 32.2936 10.4923 31.977C9.92456 31.4888 9.39684 30.956 8.91418 30.3836C8.2756 29.6442 7.71024 28.8447 7.22604 27.9962C6.62709 26.9898 6.13817 25.9218 5.76771 24.8108C5.65777 24.5126 5.56476 24.2085 5.48914 23.8998C5.40696 23.5711 5.32618 23.3148 5.23843 22.9123C5.09858 22.269 4.99765 21.6178 4.93618 20.9623C4.78887 19.5249 4.84279 18.0739 5.09636 16.6514C5.61471 13.7048 6.92808 10.9557 8.89468 8.70098C9.39973 8.12893 9.96319 7.61122 10.5759 7.1563C11.1559 6.73837 11.7673 6.36584 12.4047 6.04201C14.6223 4.90307 17.053 4.23894 19.5417 4.09201C20.5171 4.02826 21.4964 4.05577 22.4667 4.17419C23.2052 4.25951 23.9362 4.40059 24.6535 4.59623C25.1123 4.71712 25.5642 4.86266 26.0073 5.03219L26.4725 5.21744L25.9739 5.18262C25.6521 5.15337 25.1758 5.13805 24.581 5.12551C23.9863 5.11298 23.262 5.13944 22.4472 5.2049C21.5415 5.28963 20.6422 5.43246 19.7548 5.63251C18.72 5.86938 17.7053 6.18652 16.7198 6.58105C15.6369 7.01414 14.5939 7.54077 13.6025 8.15498C13.0978 8.47055 12.6131 8.81711 12.1512 9.19265C11.7083 9.56879 11.3046 9.98879 10.9464 10.4462C10.1711 11.4266 9.51075 12.4926 8.97825 13.6233C8.44553 14.7577 8.04141 15.9481 7.77343 17.1723C7.52027 18.3568 7.40205 19.566 7.42103 20.777C7.39457 21.3203 7.48929 21.9902 7.52968 22.6031C7.55196 22.8106 7.61046 23.1533 7.64807 23.4179C7.68289 23.7034 7.74278 23.975 7.80128 24.2536C8.00818 25.2913 8.30027 26.3101 8.67461 27.2998C9.25152 28.8188 9.99917 30.2674 10.9032 31.6177C11.2503 32.1416 11.6285 32.6444 12.0356 33.1233Z" fill="white"/>
<path opacity="0.3" d="M27.5786 5.90967C27.5786 5.90967 27.7332 5.99185 28.0048 6.1771C28.3977 6.44609 28.7736 6.73915 29.1303 7.0546C29.6939 7.54388 30.2183 8.07666 30.6986 8.64802C31.3384 9.3879 31.9051 10.1879 32.3909 11.0368C32.9894 12.0431 33.4774 13.1111 33.8465 14.2222C33.9571 14.5197 34.0501 14.8234 34.1251 15.1318C34.2086 15.4619 34.288 15.7182 34.3758 16.1193C34.5162 16.7625 34.6172 17.4137 34.678 18.0693C34.8265 19.5062 34.773 20.9568 34.5192 22.3788C34.2593 23.8437 33.8034 25.267 33.164 26.6103C32.5218 27.9564 31.6989 29.2085 30.7181 30.332C30.2127 30.9037 29.6493 31.4214 29.0369 31.8767C28.4559 32.2938 27.8441 32.6663 27.2067 32.991C24.9891 34.13 22.5584 34.7941 20.0697 34.941C19.0943 35.0051 18.1151 34.9781 17.1447 34.8602C16.405 34.7758 15.6726 34.6362 14.9538 34.4423C14.4947 34.322 14.0427 34.176 13.5999 34.005L13.1333 33.8197L13.6319 33.8546C13.9551 33.8838 14.4314 33.9005 15.0248 33.9131C15.6182 33.9256 16.3452 33.8977 17.1601 33.8323C18.0657 33.7481 18.965 33.6057 19.8524 33.4061C20.8902 33.1683 21.9077 32.8497 22.8958 32.4533C23.9798 32.0229 25.0234 31.4971 26.0144 30.8822C26.5192 30.5661 27.0039 30.219 27.4658 29.8431C27.9086 29.4669 28.3123 29.0469 28.6706 28.5896C29.4473 27.6083 30.109 26.5414 30.6429 25.4097C31.1737 24.2774 31.5765 23.0893 31.8436 21.8676C32.0971 20.6833 32.2158 19.474 32.1973 18.2629C32.2224 17.7183 32.1277 17.0497 32.0887 16.4369C32.0664 16.228 32.0065 15.8797 31.9689 15.6207C31.9313 15.3616 31.8742 15.0635 31.8157 14.785C31.6095 13.7476 31.3174 12.7291 30.9424 11.7402C30.3659 10.2231 29.6182 8.77681 28.7138 7.42927C28.3668 6.90003 27.9877 6.39255 27.5786 5.90967Z" fill="white"/>
<path d="M19.5543 1.7496C23.8694 1.74354 28.0389 3.30924 31.2834 6.15398C34.5279 8.99872 36.6253 12.9278 37.1835 17.2065C37.7416 21.4853 36.7223 25.8209 34.3161 29.4028C31.9099 32.9846 28.2816 35.5675 24.1094 36.6686C19.9372 37.7697 15.5068 37.3135 11.6465 35.3854C7.78622 33.4573 4.76027 30.1893 3.13439 26.1923C1.50851 22.1953 1.39401 17.743 2.81229 13.6677C4.23056 9.59241 7.08453 6.17317 10.8406 4.0492C13.4989 2.54553 16.5003 1.75344 19.5543 1.7496ZM19.5543 0.796882C15.0162 0.801133 10.6345 2.45587 7.22635 5.45251C3.81824 8.44914 1.61641 12.5831 1.03148 17.0834C0.446555 21.5837 1.51846 26.1432 4.0473 29.9115C6.57614 33.6798 10.3893 36.3996 14.7756 37.5638C19.1619 38.728 23.8219 38.2571 27.8866 36.2389C31.9513 34.2206 35.1431 30.7929 36.8669 26.5948C38.5907 22.3968 38.7287 17.7151 37.2552 13.4228C35.7818 9.13045 32.7974 5.5206 28.8586 3.26642C26.0258 1.64553 22.8181 0.794148 19.5543 0.796882Z" fill="white"/>
</g>
<defs>
<linearGradient id="paint0_linear" x1="28.8294" y1="14.537" x2="14.7267" y2="27.0574" gradientUnits="userSpaceOnUse">
<stop stop-color="#5521B6"/>
<stop offset="0.47" stop-color="#4F3DFF"/>
<stop offset="1" stop-color="#5521B6"/>
</linearGradient>
<linearGradient id="paint1_linear" x1="2955.37" y1="989.259" x2="1828.32" y2="2385.2" gradientUnits="userSpaceOnUse">
<stop stop-color="#5521B6"/>
<stop offset="0.47" stop-color="#4F3DFF"/>
<stop offset="1" stop-color="#5521B6"/>
</linearGradient>
<clipPath id="clip0">
<rect width="39" height="39" fill="white"/>
</clipPath>
</defs>
</svg>
